;TYPE=PLATED
;Layer: PTH_Through_Via
;EasyEDA Pro Client v2.1.21.9b64d12f.b3811b, 2024-07-11 20:19:01
;Gerber Generator version 0.3
M48
METRIC,LZ,000.000
;Hole size 1 = 0.305 METRIC
T01C0.305
%
G05
G90
T01
X071532Y-073952
X081234Y-074402
X069680Y-037973
X079121Y-037973
X094107Y-061595
X094107Y-062864
X096647Y-062864
X096647Y-062864
X096647Y-061594
X099187Y-061594
X099187Y-062864
X091567Y-062864
X091567Y-061594
X058547Y-028702
X061087Y-028702
X063627Y-028702
X066167Y-028702
X058547Y-031242
X058547Y-029972
X061087Y-029972
X063627Y-029972
X066167Y-029972
X061087Y-031242
X063627Y-031242
X066167Y-031242
X058801Y-042418
X061341Y-042418
X063881Y-042418
X066421Y-042418
X058801Y-044958
X058801Y-043688
X061341Y-043688
X063881Y-043688
X066421Y-043688
X061341Y-044958
X063881Y-044958
X058801Y-046228
X061341Y-046228
X063881Y-046228
X068199Y-042037
X056743Y-035334
X058013Y-035334
X056743Y-037874
X058013Y-037874
X039116Y-042672
X039116Y-037592
X039116Y-032512
X041656Y-042672
X041656Y-037592
X041656Y-032512
X044196Y-042672
X044196Y-037592
X044196Y-032512
X046736Y-042672
X046736Y-037592
X046736Y-032512
X049276Y-042672
X049276Y-037592
X049276Y-032512
X096579Y-042672
X096579Y-037592
X096579Y-032512
X099119Y-042672
X099119Y-037592
X099119Y-032512
X101659Y-042672
X101659Y-037592
X101659Y-032512
X104199Y-042672
X104199Y-037592
X104199Y-032512
X106739Y-042672
X106739Y-037592
X106739Y-032512
X109279Y-042672
X109279Y-037592
X109279Y-032512
X111819Y-042672
X111819Y-037592
X111819Y-032512
X078359Y-056388
X078359Y-057658
X079629Y-057658
X079629Y-056388
X066548Y-057658
X067818Y-057658
X066548Y-059563
X067818Y-059563
X069977Y-051054
X072517Y-051054
X072517Y-048514
X075057Y-051054
X075057Y-048514
X077597Y-051054
X077597Y-048514
X080137Y-051054
X065532Y-070993
X068072Y-070993
X070612Y-070993
X073152Y-070993
X075692Y-070993
X078232Y-078613
X078232Y-073533
X078232Y-070993
X080772Y-070993
X078232Y-080518
X069432Y-080668
X066892Y-080668
X064352Y-080668
X040948Y-076581
X040948Y-074041
X040948Y-071501
X040948Y-068961
X040948Y-066421
X046028Y-071501
X046028Y-068961
X046028Y-066421
X051108Y-071501
X051108Y-068961
X051108Y-066421
X096579Y-086936
X096579Y-081856
X096579Y-076776
X096579Y-071696
X096579Y-066616
X099119Y-086936
X099119Y-081856
X099119Y-076776
X099119Y-071696
X099119Y-066616
X101659Y-081856
X101659Y-076776
X101659Y-071696
X101659Y-066616
X104199Y-081856
X104199Y-076776
X104199Y-071696
X104199Y-066616
X106739Y-081856
X106739Y-076776
X106739Y-071696
X106739Y-066616
X109279Y-086936
X109279Y-081856
X109279Y-076776
X109279Y-071696
X109279Y-066616
X111819Y-086936
X111819Y-081856
X111819Y-076776
X111819Y-071696
X111819Y-066616
X053594Y-084455
X053594Y-081915
X053594Y-079375
X053594Y-076835
X053594Y-074295
X056134Y-084455
X056134Y-081915
X056134Y-079375
X056134Y-076835
X056134Y-074295
X058674Y-084455
X058674Y-081915
X058674Y-079375
X058674Y-076835
X058674Y-074295
X101659Y-086936
X104199Y-086936
X106739Y-086936
M30