G04 Layer: TopPasteMaskLayer*
G04 EasyEDA Pro v2.1.21.9b64d12f.b3811b, 2024-07-11 20:19:00*
G04 Gerber Generator version 0.3*
G04 Scale: 100 percent, Rotated: No, Reflected: No*
G04 Dimensions in millimeters*
G04 Leading zeros omitted, absolute positions, 3 integers and 3 decimals*
%FSLAX33Y33*%
%MOMM*%
%ADD10R,1.2X3.5*%
%ADD11R,3.5X2.35*%
%ADD12R,1.2X3.5*%
%ADD13R,1.2X0.6*%
%ADD14R,2.4X3.3*%
%ADD15R,1.575X0.672*%
%ADD16R,2.5X1.02*%
%ADD17R,2.5092X1.02*%
%ADD18R,2.5X1.02*%
G75*


G04 PolygonModel Start*
G36*
G01X64546Y-36015D02*
G01X65826Y-36015D01*
G01X65876Y-36065D01*
G01Y-37215D01*
G01X65826Y-37265D01*
G01X65416Y-37270D01*
G01Y-36820D01*
G01X64966D01*
G01Y-37260D01*
G01X64546Y-37265D01*
G01X64496Y-37215D01*
G01Y-36065D01*
G01X64546Y-36015D01*
G37*
G36*
G01X64546Y-38165D02*
G01X64966Y-38165D01*
G01Y-38610D01*
G01X65416D01*
G01Y-38170D01*
G01X65826Y-38165D01*
G01X65876Y-38215D01*
G01Y-39365D01*
G01X65826Y-39415D01*
G01X64546D01*
G01X64496Y-39365D01*
G01Y-38215D01*
G01X64546Y-38165D01*
G37*
G36*
G01X66592Y-36015D02*
G01X67872Y-36015D01*
G01X67922Y-36065D01*
G01Y-37215D01*
G01X67872Y-37265D01*
G01X67462Y-37270D01*
G01Y-36820D01*
G01X67012D01*
G01Y-37260D01*
G01X66592Y-37265D01*
G01X66542Y-37215D01*
G01Y-36065D01*
G01X66592Y-36015D01*
G37*
G36*
G01X66592Y-38165D02*
G01X67012Y-38165D01*
G01Y-38610D01*
G01X67462D01*
G01Y-38170D01*
G01X67872Y-38165D01*
G01X67922Y-38215D01*
G01Y-39365D01*
G01X67872Y-39415D01*
G01X66592D01*
G01X66542Y-39365D01*
G01Y-38215D01*
G01X66592Y-38165D01*
G37*
G36*
G01X68980Y-42677D02*
G01X68980Y-41397D01*
G01X69030Y-41347D01*
G01X70180D01*
G01X70230Y-41397D01*
G01X70235Y-41807D01*
G01X69785D01*
G01Y-42257D01*
G01X70225D01*
G01X70230Y-42677D01*
G01X70180Y-42727D01*
G01X69030D01*
G01X68980Y-42677D01*
G37*
G36*
G01X71130Y-42677D02*
G01X71130Y-42257D01*
G01X71575D01*
G01Y-41807D01*
G01X71135D01*
G01X71130Y-41397D01*
G01X71180Y-41347D01*
G01X72330D01*
G01X72380Y-41397D01*
G01Y-42677D01*
G01X72330Y-42727D01*
G01X71180D01*
G01X71130Y-42677D01*
G37*
G36*
G01X69005Y-38593D02*
G01X69005Y-37313D01*
G01X69055Y-37263D01*
G01X70205D01*
G01X70255Y-37313D01*
G01X70260Y-37723D01*
G01X69810D01*
G01Y-38173D01*
G01X70250D01*
G01X70255Y-38593D01*
G01X70205Y-38643D01*
G01X69055D01*
G01X69005Y-38593D01*
G37*
G36*
G01X71155Y-38593D02*
G01X71155Y-38173D01*
G01X71600D01*
G01Y-37723D01*
G01X71160D01*
G01X71155Y-37313D01*
G01X71205Y-37263D01*
G01X72355D01*
G01X72405Y-37313D01*
G01Y-38593D01*
G01X72355Y-38643D01*
G01X71205D01*
G01X71155Y-38593D01*
G37*
G36*
G01X68582Y-31916D02*
G01X68212Y-31916D01*
G01X68112Y-31816D01*
G01Y-31511D01*
G01X68012Y-31411D01*
G01X67624D01*
G01X67524Y-31511D01*
G01Y-31816D01*
G01X67424Y-31916D01*
G01X67054D01*
G01X66954Y-31816D01*
G01Y-30531D01*
G01X67054Y-30431D01*
G01X68582D01*
G01X68682Y-30531D01*
G01Y-31816D01*
G01X68582Y-31916D01*
G37*
G36*
G01X68582Y-33616D02*
G01X68212Y-33616D01*
G01X68112Y-33716D01*
G01Y-34021D01*
G01X68012Y-34121D01*
G01X67624D01*
G01X67524Y-34021D01*
G01Y-33716D01*
G01X67424Y-33616D01*
G01X67054D01*
G01X66954Y-33716D01*
G01Y-35001D01*
G01X67054Y-35101D01*
G01X68582D01*
G01X68682Y-35001D01*
G01Y-33716D01*
G01X68582Y-33616D01*
G37*
G36*
G01X80720Y-41886D02*
G01X80720Y-40606D01*
G01X80770Y-40556D01*
G01X81920D01*
G01X81970Y-40606D01*
G01X81975Y-41016D01*
G01X81525D01*
G01Y-41466D01*
G01X81965D01*
G01X81970Y-41886D01*
G01X81920Y-41936D01*
G01X80770D01*
G01X80720Y-41886D01*
G37*
G36*
G01X82870Y-41886D02*
G01X82870Y-41466D01*
G01X83315D01*
G01Y-41016D01*
G01X82875D01*
G01X82870Y-40606D01*
G01X82920Y-40556D01*
G01X84070D01*
G01X84120Y-40606D01*
G01Y-41886D01*
G01X84070Y-41936D01*
G01X82920D01*
G01X82870Y-41886D01*
G37*
G36*
G01X80269Y-27046D02*
G01X80269Y-28326D01*
G01X80219Y-28376D01*
G01X79069D01*
G01X79019Y-28326D01*
G01X79014Y-27916D01*
G01X79464D01*
G01Y-27466D01*
G01X79024D01*
G01X79019Y-27046D01*
G01X79069Y-26996D01*
G01X80219D01*
G01X80269Y-27046D01*
G37*
G36*
G01X78119Y-27046D02*
G01X78119Y-27466D01*
G01X77674D01*
G01Y-27916D01*
G01X78114D01*
G01X78119Y-28326D01*
G01X78069Y-28376D01*
G01X76919D01*
G01X76869Y-28326D01*
G01Y-27046D01*
G01X76919Y-26996D01*
G01X78069D01*
G01X78119Y-27046D01*
G37*
G36*
G01X66592Y-51157D02*
G01X67872Y-51157D01*
G01X67922Y-51207D01*
G01Y-52357D01*
G01X67872Y-52407D01*
G01X67462Y-52412D01*
G01Y-51962D01*
G01X67012D01*
G01Y-52402D01*
G01X66592Y-52407D01*
G01X66542Y-52357D01*
G01Y-51207D01*
G01X66592Y-51157D01*
G37*
G36*
G01X66592Y-53307D02*
G01X67012Y-53307D01*
G01Y-53752D01*
G01X67462D01*
G01Y-53312D01*
G01X67872Y-53307D01*
G01X67922Y-53357D01*
G01Y-54507D01*
G01X67872Y-54557D01*
G01X66592D01*
G01X66542Y-54507D01*
G01Y-53357D01*
G01X66592Y-53307D01*
G37*
G36*
G01X68764Y-58619D02*
G01X68764Y-57339D01*
G01X68814Y-57289D01*
G01X69964D01*
G01X70014Y-57339D01*
G01X70019Y-57749D01*
G01X69569D01*
G01Y-58199D01*
G01X70009D01*
G01X70014Y-58619D01*
G01X69964Y-58669D01*
G01X68814D01*
G01X68764Y-58619D01*
G37*
G36*
G01X70914Y-58619D02*
G01X70914Y-58199D01*
G01X71359D01*
G01Y-57749D01*
G01X70919D01*
G01X70914Y-57339D01*
G01X70964Y-57289D01*
G01X72114D01*
G01X72164Y-57339D01*
G01Y-58619D01*
G01X72114Y-58669D01*
G01X70964D01*
G01X70914Y-58619D01*
G37*
G36*
G01X81113Y-51383D02*
G01X82393Y-51383D01*
G01X82443Y-51433D01*
G01Y-52583D01*
G01X82393Y-52633D01*
G01X81983Y-52638D01*
G01Y-52188D01*
G01X81533D01*
G01Y-52628D01*
G01X81113Y-52633D01*
G01X81063Y-52583D01*
G01Y-51433D01*
G01X81113Y-51383D01*
G37*
G36*
G01X81113Y-53533D02*
G01X81533Y-53533D01*
G01Y-53978D01*
G01X81983D01*
G01Y-53538D01*
G01X82393Y-53533D01*
G01X82443Y-53583D01*
G01Y-54733D01*
G01X82393Y-54783D01*
G01X81113D01*
G01X81063Y-54733D01*
G01Y-53583D01*
G01X81113Y-53533D01*
G37*
G36*
G01X76587Y-57379D02*
G01X76587Y-58659D01*
G01X76537Y-58709D01*
G01X75387D01*
G01X75337Y-58659D01*
G01X75332Y-58249D01*
G01X75782D01*
G01Y-57799D01*
G01X75342D01*
G01X75337Y-57379D01*
G01X75387Y-57329D01*
G01X76537D01*
G01X76587Y-57379D01*
G37*
G36*
G01X74437Y-57379D02*
G01X74437Y-57799D01*
G01X73992D01*
G01Y-58249D01*
G01X74432D01*
G01X74437Y-58659D01*
G01X74387Y-58709D01*
G01X73237D01*
G01X73187Y-58659D01*
G01Y-57379D01*
G01X73237Y-57329D01*
G01X74387D01*
G01X74437Y-57379D01*
G37*
G36*
G01X65543Y-74999D02*
G01X64263Y-74999D01*
G01X64213Y-74949D01*
G01Y-73799D01*
G01X64263Y-73749D01*
G01X64673Y-73744D01*
G01Y-74194D01*
G01X65123D01*
G01Y-73754D01*
G01X65543Y-73749D01*
G01X65593Y-73799D01*
G01Y-74949D01*
G01X65543Y-74999D01*
G37*
G36*
G01X65543Y-72849D02*
G01X65123Y-72849D01*
G01Y-72404D01*
G01X64673D01*
G01Y-72844D01*
G01X64263Y-72849D01*
G01X64213Y-72799D01*
G01Y-71649D01*
G01X64263Y-71599D01*
G01X65543D01*
G01X65593Y-71649D01*
G01Y-72799D01*
G01X65543Y-72849D01*
G37*
G36*
G01X67532Y-74999D02*
G01X66252Y-74999D01*
G01X66202Y-74949D01*
G01Y-73799D01*
G01X66252Y-73749D01*
G01X66662Y-73744D01*
G01Y-74194D01*
G01X67112D01*
G01Y-73754D01*
G01X67532Y-73749D01*
G01X67582Y-73799D01*
G01Y-74949D01*
G01X67532Y-74999D01*
G37*
G36*
G01X67532Y-72849D02*
G01X67112Y-72849D01*
G01Y-72404D01*
G01X66662D01*
G01Y-72844D01*
G01X66252Y-72849D01*
G01X66202Y-72799D01*
G01Y-71649D01*
G01X66252Y-71599D01*
G01X67532D01*
G01X67582Y-71649D01*
G01Y-72799D01*
G01X67532Y-72849D01*
G37*
G36*
G01X69521Y-74999D02*
G01X68241Y-74999D01*
G01X68191Y-74949D01*
G01Y-73799D01*
G01X68241Y-73749D01*
G01X68651Y-73744D01*
G01Y-74194D01*
G01X69101D01*
G01Y-73754D01*
G01X69521Y-73749D01*
G01X69571Y-73799D01*
G01Y-74949D01*
G01X69521Y-74999D01*
G37*
G36*
G01X69521Y-72849D02*
G01X69101Y-72849D01*
G01Y-72404D01*
G01X68651D01*
G01Y-72844D01*
G01X68241Y-72849D01*
G01X68191Y-72799D01*
G01Y-71649D01*
G01X68241Y-71599D01*
G01X69521D01*
G01X69571Y-71649D01*
G01Y-72799D01*
G01X69521Y-72849D01*
G37*
G36*
G01X68156Y-75967D02*
G01X69436Y-75967D01*
G01X69486Y-76017D01*
G01Y-77167D01*
G01X69436Y-77217D01*
G01X69026Y-77222D01*
G01Y-76772D01*
G01X68576D01*
G01Y-77212D01*
G01X68156Y-77217D01*
G01X68106Y-77167D01*
G01Y-76017D01*
G01X68156Y-75967D01*
G37*
G36*
G01X68156Y-78117D02*
G01X68576Y-78117D01*
G01Y-78562D01*
G01X69026D01*
G01Y-78122D01*
G01X69436Y-78117D01*
G01X69486Y-78167D01*
G01Y-79317D01*
G01X69436Y-79367D01*
G01X68156D01*
G01X68106Y-79317D01*
G01Y-78167D01*
G01X68156Y-78117D01*
G37*
G36*
G01X66167Y-75967D02*
G01X67447Y-75967D01*
G01X67497Y-76017D01*
G01Y-77167D01*
G01X67447Y-77217D01*
G01X67037Y-77222D01*
G01Y-76772D01*
G01X66587D01*
G01Y-77212D01*
G01X66167Y-77217D01*
G01X66117Y-77167D01*
G01Y-76017D01*
G01X66167Y-75967D01*
G37*
G36*
G01X66167Y-78117D02*
G01X66587Y-78117D01*
G01Y-78562D01*
G01X67037D01*
G01Y-78122D01*
G01X67447Y-78117D01*
G01X67497Y-78167D01*
G01Y-79317D01*
G01X67447Y-79367D01*
G01X66167D01*
G01X66117Y-79317D01*
G01Y-78167D01*
G01X66167Y-78117D01*
G37*
G36*
G01X64178Y-75967D02*
G01X65458Y-75967D01*
G01X65508Y-76017D01*
G01Y-77167D01*
G01X65458Y-77217D01*
G01X65048Y-77222D01*
G01Y-76772D01*
G01X64598D01*
G01Y-77212D01*
G01X64178Y-77217D01*
G01X64128Y-77167D01*
G01Y-76017D01*
G01X64178Y-75967D01*
G37*
G36*
G01X64178Y-78117D02*
G01X64598Y-78117D01*
G01Y-78562D01*
G01X65048D01*
G01Y-78122D01*
G01X65458Y-78117D01*
G01X65508Y-78167D01*
G01Y-79317D01*
G01X65458Y-79367D01*
G01X64178D01*
G01X64128Y-79317D01*
G01Y-78167D01*
G01X64178Y-78117D01*
G37*
G36*
G01X74307Y-73312D02*
G01X74307Y-74592D01*
G01X74257Y-74642D01*
G01X73107D01*
G01X73057Y-74592D01*
G01X73052Y-74182D01*
G01X73502D01*
G01Y-73732D01*
G01X73062D01*
G01X73057Y-73312D01*
G01X73107Y-73262D01*
G01X74257D01*
G01X74307Y-73312D01*
G37*
G36*
G01X72157Y-73312D02*
G01X72157Y-73732D01*
G01X71712D01*
G01Y-74182D01*
G01X72152D01*
G01X72157Y-74592D01*
G01X72107Y-74642D01*
G01X70957D01*
G01X70907Y-74592D01*
G01Y-73312D01*
G01X70957Y-73262D01*
G01X72107D01*
G01X72157Y-73312D01*
G37*
G36*
G01X86977Y-77017D02*
G01X86977Y-78297D01*
G01X86927Y-78347D01*
G01X85777D01*
G01X85727Y-78297D01*
G01X85722Y-77887D01*
G01X86172D01*
G01Y-77437D01*
G01X85732D01*
G01X85727Y-77017D01*
G01X85777Y-76967D01*
G01X86927D01*
G01X86977Y-77017D01*
G37*
G36*
G01X84827Y-77017D02*
G01X84827Y-77437D01*
G01X84382D01*
G01Y-77887D01*
G01X84822D01*
G01X84827Y-78297D01*
G01X84777Y-78347D01*
G01X83627D01*
G01X83577Y-78297D01*
G01Y-77017D01*
G01X83627Y-76967D01*
G01X84777D01*
G01X84827Y-77017D01*
G37*
G36*
G01X75054Y-70012D02*
G01X73774Y-70012D01*
G01X73724Y-69962D01*
G01Y-68812D01*
G01X73774Y-68762D01*
G01X74184Y-68757D01*
G01Y-69207D01*
G01X74634D01*
G01Y-68767D01*
G01X75054Y-68762D01*
G01X75104Y-68812D01*
G01Y-69962D01*
G01X75054Y-70012D01*
G37*
G36*
G01X75054Y-67862D02*
G01X74634Y-67862D01*
G01Y-67417D01*
G01X74184D01*
G01Y-67857D01*
G01X73774Y-67862D01*
G01X73724Y-67812D01*
G01Y-66662D01*
G01X73774Y-66612D01*
G01X75054D01*
G01X75104Y-66662D01*
G01Y-67812D01*
G01X75054Y-67862D01*
G37*
G36*
G01X81003Y-70012D02*
G01X79723Y-70012D01*
G01X79673Y-69962D01*
G01Y-68812D01*
G01X79723Y-68762D01*
G01X80133Y-68757D01*
G01Y-69207D01*
G01X80583D01*
G01Y-68767D01*
G01X81003Y-68762D01*
G01X81053Y-68812D01*
G01Y-69962D01*
G01X81003Y-70012D01*
G37*
G36*
G01X81003Y-67862D02*
G01X80583Y-67862D01*
G01Y-67417D01*
G01X80133D01*
G01Y-67857D01*
G01X79723Y-67862D01*
G01X79673Y-67812D01*
G01Y-66662D01*
G01X79723Y-66612D01*
G01X81003D01*
G01X81053Y-66662D01*
G01Y-67812D01*
G01X81003Y-67862D01*
G37*
G36*
G01X77037Y-70012D02*
G01X75757Y-70012D01*
G01X75707Y-69962D01*
G01Y-68812D01*
G01X75757Y-68762D01*
G01X76167Y-68757D01*
G01Y-69207D01*
G01X76617D01*
G01Y-68767D01*
G01X77037Y-68762D01*
G01X77087Y-68812D01*
G01Y-69962D01*
G01X77037Y-70012D01*
G37*
G36*
G01X77037Y-67862D02*
G01X76617Y-67862D01*
G01Y-67417D01*
G01X76167D01*
G01Y-67857D01*
G01X75757Y-67862D01*
G01X75707Y-67812D01*
G01Y-66662D01*
G01X75757Y-66612D01*
G01X77037D01*
G01X77087Y-66662D01*
G01Y-67812D01*
G01X77037Y-67862D01*
G37*
G36*
G01X79020Y-70012D02*
G01X77740Y-70012D01*
G01X77690Y-69962D01*
G01Y-68812D01*
G01X77740Y-68762D01*
G01X78150Y-68757D01*
G01Y-69207D01*
G01X78600D01*
G01Y-68767D01*
G01X79020Y-68762D01*
G01X79070Y-68812D01*
G01Y-69962D01*
G01X79020Y-70012D01*
G37*
G36*
G01X79020Y-67862D02*
G01X78600Y-67862D01*
G01Y-67417D01*
G01X78150D01*
G01Y-67857D01*
G01X77740Y-67862D01*
G01X77690Y-67812D01*
G01Y-66662D01*
G01X77740Y-66612D01*
G01X79020D01*
G01X79070Y-66662D01*
G01Y-67812D01*
G01X79020Y-67862D01*
G37*
G36*
G01X92133Y-75415D02*
G01X92133Y-76215D01*
G01X92183Y-76265D01*
G01X92411D01*
G01Y-75895D01*
G01X92741D01*
G01Y-76265D01*
G01X92983D01*
G01X93033Y-76215D01*
G01Y-75415D01*
G01X92983Y-75365D01*
G01X92183D01*
G01X92133Y-75415D01*
G37*
G36*
G01X92183Y-76965D02*
G01X92411Y-76965D01*
G01Y-77345D01*
G01X92741D01*
G01Y-76965D01*
G01X92983D01*
G01X93033Y-77015D01*
G01Y-77805D01*
G01X92983Y-77855D01*
G01X92183D01*
G01X92133Y-77805D01*
G01Y-77015D01*
G01X92183Y-76965D01*
G37*
G36*
G01X90874Y-77805D02*
G01X90874Y-77005D01*
G01X90824Y-76955D01*
G01X90596D01*
G01Y-77325D01*
G01X90266D01*
G01Y-76955D01*
G01X90024D01*
G01X89974Y-77005D01*
G01Y-77805D01*
G01X90024Y-77855D01*
G01X90824D01*
G01X90874Y-77805D01*
G37*
G36*
G01X90824Y-76255D02*
G01X90596Y-76255D01*
G01Y-75875D01*
G01X90266D01*
G01Y-76255D01*
G01X90024D01*
G01X89974Y-76205D01*
G01Y-75415D01*
G01X90024Y-75365D01*
G01X90824D01*
G01X90874Y-75415D01*
G01Y-76205D01*
G01X90824Y-76255D01*
G37*
G36*
G01X88133Y-38686D02*
G01X89413Y-38686D01*
G01X89463Y-38736D01*
G01Y-39886D01*
G01X89413Y-39936D01*
G01X89003Y-39941D01*
G01Y-39491D01*
G01X88553D01*
G01Y-39931D01*
G01X88133Y-39936D01*
G01X88083Y-39886D01*
G01Y-38736D01*
G01X88133Y-38686D01*
G37*
G36*
G01X88133Y-40836D02*
G01X88553Y-40836D01*
G01Y-41281D01*
G01X89003D01*
G01Y-40841D01*
G01X89413Y-40836D01*
G01X89463Y-40886D01*
G01Y-42036D01*
G01X89413Y-42086D01*
G01X88133D01*
G01X88083Y-42036D01*
G01Y-40886D01*
G01X88133Y-40836D01*
G37*
G36*
G01X74235Y-80607D02*
G01X72955Y-80607D01*
G01X72905Y-80557D01*
G01Y-79407D01*
G01X72955Y-79357D01*
G01X73365Y-79352D01*
G01Y-79802D01*
G01X73815D01*
G01Y-79362D01*
G01X74235Y-79357D01*
G01X74285Y-79407D01*
G01Y-80557D01*
G01X74235Y-80607D01*
G37*
G36*
G01X74235Y-78457D02*
G01X73815Y-78457D01*
G01Y-78012D01*
G01X73365D01*
G01Y-78452D01*
G01X72955Y-78457D01*
G01X72905Y-78407D01*
G01Y-77257D01*
G01X72955Y-77207D01*
G01X74235D01*
G01X74285Y-77257D01*
G01Y-78407D01*
G01X74235Y-78457D01*
G37*
G36*
G01X86537Y-41928D02*
G01X85257Y-41928D01*
G01X85207Y-41878D01*
G01Y-40728D01*
G01X85257Y-40678D01*
G01X85667Y-40673D01*
G01Y-41123D01*
G01X86117D01*
G01Y-40683D01*
G01X86537Y-40678D01*
G01X86587Y-40728D01*
G01Y-41878D01*
G01X86537Y-41928D01*
G37*
G36*
G01X86537Y-39778D02*
G01X86117Y-39778D01*
G01Y-39333D01*
G01X85667D01*
G01Y-39773D01*
G01X85257Y-39778D01*
G01X85207Y-39728D01*
G01Y-38578D01*
G01X85257Y-38528D01*
G01X86537D01*
G01X86587Y-38578D01*
G01Y-39728D01*
G01X86537Y-39778D01*
G37*
G36*
G01X88886Y-78285D02*
G01X87606Y-78285D01*
G01X87556Y-78235D01*
G01Y-77085D01*
G01X87606Y-77035D01*
G01X88016Y-77030D01*
G01Y-77480D01*
G01X88466D01*
G01Y-77040D01*
G01X88886Y-77035D01*
G01X88936Y-77085D01*
G01Y-78235D01*
G01X88886Y-78285D01*
G37*
G36*
G01X88886Y-76135D02*
G01X88466Y-76135D01*
G01Y-75690D01*
G01X88016D01*
G01Y-76130D01*
G01X87606Y-76135D01*
G01X87556Y-76085D01*
G01Y-74935D01*
G01X87606Y-74885D01*
G01X88886D01*
G01X88936Y-74935D01*
G01Y-76085D01*
G01X88886Y-76135D01*
G37*
G04 PolygonModel End*

G04 Pad Start*
G54D10*
G01X60119Y-39934D03*
G01X60119Y-34594D03*
G54D11*
G01X82347Y-36276D03*
G01X82347Y-30576D03*
G54D12*
G01X73279Y-29588D03*
G01X73279Y-34928D03*
G54D13*
G01X73392Y-38025D03*
G01X73392Y-39295D03*
G01X73392Y-40565D03*
G01X73392Y-41835D03*
G01X79208Y-41835D03*
G01X79208Y-40565D03*
G01X79208Y-39295D03*
G01X79208Y-38025D03*
G54D14*
G01X76300Y-39930D03*
G54D15*
G01X75842Y-52763D03*
G01X75842Y-55763D03*
G36*
G01X79481Y-55213D02*
G01X77627Y-55213D01*
G01X77582Y-55212D01*
G01X77538Y-55209D01*
G01X77494Y-55203D01*
G01X77450Y-55196D01*
G01X77406Y-55187D01*
G01X77363Y-55175D01*
G01X77321Y-55162D01*
G01X77279Y-55147D01*
G01X77238Y-55129D01*
G01X77198Y-55110D01*
G01X77158Y-55089D01*
G01X77120Y-55066D01*
G01X77083Y-55042D01*
G01X77047Y-55015D01*
G01X77013Y-54987D01*
G01X76979Y-54958D01*
G01X76947Y-54927D01*
G01X76917Y-54894D01*
G01X76888Y-54860D01*
G01X76861Y-54825D01*
G01X76835Y-54788D01*
G01X76812Y-54751D01*
G01X76790Y-54712D01*
G01X76770Y-54672D01*
G01X76751Y-54593D01*
G01X75054D01*
G01Y-53933D01*
G01X76751D01*
G01X76770Y-53854D01*
G01X76790Y-53814D01*
G01X76812Y-53775D01*
G01X76835Y-53737D01*
G01X76861Y-53701D01*
G01X76888Y-53666D01*
G01X76917Y-53632D01*
G01X76947Y-53599D01*
G01X76979Y-53568D01*
G01X77013Y-53538D01*
G01X77047Y-53510D01*
G01X77083Y-53484D01*
G01X77120Y-53459D01*
G01X77158Y-53436D01*
G01X77198Y-53415D01*
G01X77238Y-53396D01*
G01X77279Y-53379D01*
G01X77321Y-53364D01*
G01X77363Y-53350D01*
G01X77406Y-53339D01*
G01X77450Y-53329D01*
G01X77494Y-53322D01*
G01X77538Y-53317D01*
G01X77582Y-53314D01*
G01X77627Y-53313D01*
G01X79481D01*
G01X79526Y-53314D01*
G01X79570Y-53317D01*
G01X79614Y-53322D01*
G01X79658Y-53329D01*
G01X79702Y-53339D01*
G01X79745Y-53350D01*
G01X79787Y-53364D01*
G01X79829Y-53379D01*
G01X79870Y-53396D01*
G01X79910Y-53415D01*
G01X79950Y-53436D01*
G01X79988Y-53459D01*
G01X80025Y-53484D01*
G01X80061Y-53510D01*
G01X80096Y-53538D01*
G01X80129Y-53568D01*
G01X80161Y-53599D01*
G01X80191Y-53632D01*
G01X80220Y-53666D01*
G01X80247Y-53701D01*
G01X80273Y-53737D01*
G01X80296Y-53775D01*
G01X80318Y-53814D01*
G01X80338Y-53854D01*
G01X80357Y-53894D01*
G01X80373Y-53936D01*
G01X80387Y-53978D01*
G01X80400Y-54021D01*
G01X80410Y-54064D01*
G01X80418Y-54108D01*
G01X80425Y-54152D01*
G01X80429Y-54196D01*
G01X80431Y-54241D01*
G01Y-54285D01*
G01X80429Y-54330D01*
G01X80425Y-54374D01*
G01X80418Y-54418D01*
G01X80410Y-54462D01*
G01X80400Y-54505D01*
G01X80387Y-54548D01*
G01X80373Y-54590D01*
G01X80357Y-54632D01*
G01X80338Y-54672D01*
G01X80318Y-54712D01*
G01X80296Y-54751D01*
G01X80273Y-54788D01*
G01X80247Y-54825D01*
G01X80220Y-54860D01*
G01X80191Y-54894D01*
G01X80161Y-54927D01*
G01X80129Y-54958D01*
G01X80096Y-54987D01*
G01X80061Y-55015D01*
G01X80025Y-55042D01*
G01X79988Y-55066D01*
G01X79950Y-55089D01*
G01X79910Y-55110D01*
G01X79870Y-55129D01*
G01X79829Y-55147D01*
G01X79787Y-55162D01*
G01X79745Y-55175D01*
G01X79702Y-55187D01*
G01X79658Y-55196D01*
G01X79614Y-55203D01*
G01X79570Y-55209D01*
G01X79526Y-55212D01*
G01X79481Y-55213D01*
G37*
G01X69895Y-52658D03*
G01X69895Y-55658D03*
G36*
G01X73534Y-55108D02*
G01X71680Y-55108D01*
G01X71635Y-55107D01*
G01X71591Y-55104D01*
G01X71547Y-55099D01*
G01X71503Y-55091D01*
G01X71459Y-55082D01*
G01X71416Y-55071D01*
G01X71374Y-55057D01*
G01X71332Y-55042D01*
G01X71291Y-55025D01*
G01X71251Y-55006D01*
G01X71211Y-54985D01*
G01X71173Y-54962D01*
G01X71136Y-54937D01*
G01X71100Y-54911D01*
G01X71066Y-54883D01*
G01X71032Y-54853D01*
G01X71000Y-54822D01*
G01X70970Y-54789D01*
G01X70941Y-54755D01*
G01X70914Y-54720D01*
G01X70889Y-54684D01*
G01X70865Y-54646D01*
G01X70843Y-54607D01*
G01X70823Y-54567D01*
G01X70804Y-54488D01*
G01X69107D01*
G01Y-53828D01*
G01X70804D01*
G01X70823Y-53749D01*
G01X70843Y-53709D01*
G01X70865Y-53670D01*
G01X70889Y-53633D01*
G01X70914Y-53596D01*
G01X70941Y-53561D01*
G01X70970Y-53527D01*
G01X71000Y-53494D01*
G01X71032Y-53463D01*
G01X71066Y-53434D01*
G01X71100Y-53406D01*
G01X71136Y-53379D01*
G01X71173Y-53355D01*
G01X71211Y-53332D01*
G01X71251Y-53311D01*
G01X71291Y-53291D01*
G01X71332Y-53274D01*
G01X71374Y-53259D01*
G01X71416Y-53245D01*
G01X71459Y-53234D01*
G01X71503Y-53225D01*
G01X71547Y-53218D01*
G01X71591Y-53212D01*
G01X71635Y-53209D01*
G01X71680Y-53208D01*
G01X73534D01*
G01X73579Y-53209D01*
G01X73623Y-53212D01*
G01X73667Y-53218D01*
G01X73711Y-53225D01*
G01X73755Y-53234D01*
G01X73798Y-53245D01*
G01X73840Y-53259D01*
G01X73882Y-53274D01*
G01X73923Y-53291D01*
G01X73964Y-53311D01*
G01X74003Y-53332D01*
G01X74041Y-53355D01*
G01X74078Y-53379D01*
G01X74114Y-53406D01*
G01X74149Y-53434D01*
G01X74182Y-53463D01*
G01X74214Y-53494D01*
G01X74244Y-53527D01*
G01X74273Y-53561D01*
G01X74300Y-53596D01*
G01X74326Y-53633D01*
G01X74349Y-53670D01*
G01X74371Y-53709D01*
G01X74392Y-53749D01*
G01X74410Y-53789D01*
G01X74426Y-53831D01*
G01X74440Y-53873D01*
G01X74453Y-53916D01*
G01X74463Y-53959D01*
G01X74471Y-54003D01*
G01X74478Y-54047D01*
G01X74482Y-54091D01*
G01X74484Y-54136D01*
G01Y-54180D01*
G01X74482Y-54225D01*
G01X74478Y-54269D01*
G01X74471Y-54313D01*
G01X74463Y-54357D01*
G01X74453Y-54400D01*
G01X74440Y-54443D01*
G01X74426Y-54485D01*
G01X74410Y-54527D01*
G01X74392Y-54567D01*
G01X74371Y-54607D01*
G01X74349Y-54646D01*
G01X74326Y-54684D01*
G01X74300Y-54720D01*
G01X74273Y-54755D01*
G01X74244Y-54789D01*
G01X74214Y-54822D01*
G01X74182Y-54853D01*
G01X74149Y-54883D01*
G01X74114Y-54911D01*
G01X74078Y-54937D01*
G01X74041Y-54962D01*
G01X74003Y-54985D01*
G01X73964Y-55006D01*
G01X73923Y-55025D01*
G01X73882Y-55042D01*
G01X73840Y-55057D01*
G01X73798Y-55071D01*
G01X73755Y-55082D01*
G01X73711Y-55091D01*
G01X73667Y-55099D01*
G01X73623Y-55104D01*
G01X73579Y-55107D01*
G01X73534Y-55108D01*
G37*
G54D13*
G01X75418Y-74402D03*
G01X75418Y-75672D03*
G01X75418Y-76942D03*
G01X75418Y-78212D03*
G01X81234Y-78212D03*
G01X81234Y-76942D03*
G01X81234Y-75672D03*
G01X81234Y-74402D03*
G54D14*
G01X78326Y-76307D03*
G54D11*
G01X85277Y-73462D03*
G01X85277Y-67762D03*
G54D16*
G01X41769Y-57057D03*
G01X47769Y-57057D03*
G01X41769Y-59597D03*
G01X47769Y-59597D03*
G01X41769Y-62137D03*
G01X47769Y-62137D03*
G01X41769Y-64677D03*
G01X47769Y-64677D03*
G01X47769Y-54517D03*
G01X41769Y-54517D03*
G01X47769Y-51977D03*
G01X41769Y-51977D03*
G01X47769Y-49437D03*
G01X41769Y-49437D03*
G01X47769Y-46897D03*
G01X41769Y-46897D03*
G54D18*
G01X107769Y-54517D03*
G01X101769Y-54517D03*
G01X107769Y-51977D03*
G01X101769Y-51977D03*
G01X107769Y-49437D03*
G01X101769Y-49437D03*
G01X107769Y-46897D03*
G01X101769Y-46897D03*
G01X101769Y-57057D03*
G01X107769Y-57057D03*
G01X101769Y-59597D03*
G01X107769Y-59597D03*
G01X101769Y-62137D03*
G01X107769Y-62137D03*
G01X101769Y-64677D03*
G01X107769Y-64677D03*
G04 Pad End*

M02*
