G04 Layer: TopSilkscreenLayer*
G04 EasyEDA Pro v2.1.21.9b64d12f.b3811b, 2024-07-11 20:19:00*
G04 Gerber Generator version 0.3*
G04 Scale: 100 percent, Rotated: No, Reflected: No*
G04 Dimensions in millimeters*
G04 Leading zeros omitted, absolute positions, 3 integers and 3 decimals*
%FSLAX33Y33*%
%MOMM*%
%ADD10C,0.152*%
%ADD11C,0.254*%
G75*


G04 Text Start*
G54D10*
G01X55855Y-40988D02*
G01X55791Y-41018D01*
G01X55730Y-41082D01*
G01X55700Y-41143D01*
G01Y-41267D01*
G01X55730Y-41328D01*
G01X55791Y-41392D01*
G01X55855Y-41422D01*
G01X55946Y-41453D01*
G01X56101D01*
G01X56195Y-41422D01*
G01X56256Y-41392D01*
G01X56319Y-41328D01*
G01X56350Y-41267D01*
G01Y-41143D01*
G01X56319Y-41082D01*
G01X56256Y-41018D01*
G01X56195Y-40988D01*
G01X55824Y-40686D02*
G01X55791Y-40625D01*
G01X55700Y-40533D01*
G01X56350D01*
G01X55855Y-40201D02*
G01X55824Y-40201D01*
G01X55761Y-40170D01*
G01X55730Y-40140D01*
G01X55700Y-40079D01*
G01Y-39954D01*
G01X55730Y-39891D01*
G01X55761Y-39860D01*
G01X55824Y-39830D01*
G01X55885D01*
G01X55946Y-39860D01*
G01X56040Y-39924D01*
G01X56350Y-40231D01*
G01Y-39799D01*
G01X64999Y-41143D02*
G01X64935Y-41173D01*
G01X64874Y-41237D01*
G01X64844Y-41298D01*
G01Y-41422D01*
G01X64874Y-41483D01*
G01X64935Y-41547D01*
G01X64999Y-41577D01*
G01X65090Y-41608D01*
G01X65245D01*
G01X65339Y-41577D01*
G01X65400Y-41547D01*
G01X65463Y-41483D01*
G01X65494Y-41422D01*
G01Y-41298D01*
G01X65463Y-41237D01*
G01X65400Y-41173D01*
G01X65339Y-41143D01*
G01X64968Y-40841D02*
G01X64935Y-40780D01*
G01X64844Y-40688D01*
G01X65494D01*
G01X64844Y-40325D02*
G01X64844Y-39985D01*
G01X65090Y-40170D01*
G01Y-40079D01*
G01X65121Y-40015D01*
G01X65154Y-39985D01*
G01X65245Y-39954D01*
G01X65308D01*
G01X65400Y-39985D01*
G01X65463Y-40046D01*
G01X65494Y-40140D01*
G01Y-40234D01*
G01X65463Y-40325D01*
G01X65430Y-40356D01*
G01X65369Y-40386D01*
G01X67031Y-41173D02*
G01X66967Y-41204D01*
G01X66906Y-41267D01*
G01X66876Y-41328D01*
G01Y-41453D01*
G01X66906Y-41514D01*
G01X66967Y-41577D01*
G01X67031Y-41608D01*
G01X67122Y-41638D01*
G01X67277D01*
G01X67371Y-41608D01*
G01X67432Y-41577D01*
G01X67495Y-41514D01*
G01X67526Y-41453D01*
G01Y-41328D01*
G01X67495Y-41267D01*
G01X67432Y-41204D01*
G01X67371Y-41173D01*
G01X67000Y-40871D02*
G01X66967Y-40810D01*
G01X66876Y-40719D01*
G01X67526D01*
G01X66876Y-40109D02*
G01X67307Y-40416D01*
G01Y-39954D01*
G01X66876Y-40109D02*
G01X67526Y-40109D01*
G01X69926Y-40079D02*
G01X69926Y-40729D01*
G01X69926Y-40079D02*
G01X70206Y-40079D01*
G01X70297Y-40109D01*
G01X70328Y-40140D01*
G01X70361Y-40203D01*
G01Y-40264D01*
G01X70328Y-40325D01*
G01X70297Y-40356D01*
G01X70206Y-40389D01*
G01X69926D01*
G01X70142Y-40389D02*
G01X70361Y-40729D01*
G01X70724Y-40079D02*
G01X71064Y-40079D01*
G01X70879Y-40325D01*
G01X70970D01*
G01X71034Y-40356D01*
G01X71064Y-40389D01*
G01X71095Y-40480D01*
G01Y-40543D01*
G01X71064Y-40635D01*
G01X71003Y-40698D01*
G01X70909Y-40729D01*
G01X70815D01*
G01X70724Y-40698D01*
G01X70693Y-40665D01*
G01X70663Y-40604D01*
G01X71768Y-40170D02*
G01X71737Y-40109D01*
G01X71643Y-40079D01*
G01X71582D01*
G01X71488Y-40109D01*
G01X71427Y-40203D01*
G01X71397Y-40356D01*
G01Y-40510D01*
G01X71427Y-40635D01*
G01X71488Y-40698D01*
G01X71582Y-40729D01*
G01X71613D01*
G01X71704Y-40698D01*
G01X71768Y-40635D01*
G01X71798Y-40543D01*
G01Y-40510D01*
G01X71768Y-40419D01*
G01X71704Y-40356D01*
G01X71613Y-40325D01*
G01X71582D01*
G01X71488Y-40356D01*
G01X71427Y-40419D01*
G01X71397Y-40510D01*
G01X70137Y-36297D02*
G01X70107Y-36233D01*
G01X70043Y-36172D01*
G01X69982Y-36142D01*
G01X69858D01*
G01X69797Y-36172D01*
G01X69733Y-36233D01*
G01X69703Y-36297D01*
G01X69672Y-36388D01*
G01Y-36543D01*
G01X69703Y-36637D01*
G01X69733Y-36698D01*
G01X69797Y-36761D01*
G01X69858Y-36792D01*
G01X69982D01*
G01X70043Y-36761D01*
G01X70107Y-36698D01*
G01X70137Y-36637D01*
G01X70439Y-36266D02*
G01X70500Y-36233D01*
G01X70592Y-36142D01*
G01Y-36792D01*
G01X71265Y-36142D02*
G01X70955Y-36142D01*
G01X70924Y-36419D01*
G01X70955Y-36388D01*
G01X71046Y-36358D01*
G01X71140D01*
G01X71234Y-36388D01*
G01X71295Y-36452D01*
G01X71326Y-36543D01*
G01Y-36606D01*
G01X71295Y-36698D01*
G01X71234Y-36761D01*
G01X71140Y-36792D01*
G01X71046D01*
G01X70955Y-36761D01*
G01X70924Y-36728D01*
G01X70894Y-36667D01*
G01X77925Y-34468D02*
G01X78389Y-34468D01*
G01X78481Y-34437D01*
G01X78544Y-34374D01*
G01X78575Y-34282D01*
G01Y-34219D01*
G01X78544Y-34127D01*
G01X78481Y-34066D01*
G01X78389Y-34033D01*
G01X77925D01*
G01X78080Y-33701D02*
G01X78049Y-33701D01*
G01X77986Y-33670D01*
G01X77955Y-33640D01*
G01X77925Y-33579D01*
G01Y-33454D01*
G01X77955Y-33391D01*
G01X77986Y-33360D01*
G01X78049Y-33330D01*
G01X78110D01*
G01X78171Y-33360D01*
G01X78265Y-33424D01*
G01X78575Y-33731D01*
G01Y-33299D01*
G01X77925Y-32626D02*
G01X77925Y-32936D01*
G01X78202Y-32967D01*
G01X78171Y-32936D01*
G01X78141Y-32845D01*
G01Y-32751D01*
G01X78171Y-32657D01*
G01X78235Y-32596D01*
G01X78326Y-32565D01*
G01X78389D01*
G01X78481Y-32596D01*
G01X78544Y-32657D01*
G01X78575Y-32751D01*
G01Y-32845D01*
G01X78544Y-32936D01*
G01X78511Y-32967D01*
G01X78450Y-32997D01*
G01X65761Y-33368D02*
G01X65697Y-33398D01*
G01X65636Y-33462D01*
G01X65606Y-33523D01*
G01Y-33647D01*
G01X65636Y-33708D01*
G01X65697Y-33772D01*
G01X65761Y-33802D01*
G01X65852Y-33833D01*
G01X66007D01*
G01X66101Y-33802D01*
G01X66162Y-33772D01*
G01X66225Y-33708D01*
G01X66256Y-33647D01*
G01Y-33523D01*
G01X66225Y-33462D01*
G01X66162Y-33398D01*
G01X66101Y-33368D01*
G01X65730Y-33066D02*
G01X65697Y-33005D01*
G01X65606Y-32913D01*
G01X66256D01*
G01X65697Y-32240D02*
G01X65636Y-32271D01*
G01X65606Y-32365D01*
G01Y-32426D01*
G01X65636Y-32520D01*
G01X65730Y-32581D01*
G01X65883Y-32611D01*
G01X66037D01*
G01X66162Y-32581D01*
G01X66225Y-32520D01*
G01X66256Y-32426D01*
G01Y-32395D01*
G01X66225Y-32304D01*
G01X66162Y-32240D01*
G01X66070Y-32210D01*
G01X66037D01*
G01X65946Y-32240D01*
G01X65883Y-32304D01*
G01X65852Y-32395D01*
G01Y-32426D01*
G01X65883Y-32520D01*
G01X65946Y-32581D01*
G01X66037Y-32611D01*
G01X81356Y-39190D02*
G01X81356Y-39840D01*
G01X81356Y-39190D02*
G01X81636Y-39190D01*
G01X81727Y-39220D01*
G01X81758Y-39251D01*
G01X81791Y-39314D01*
G01Y-39375D01*
G01X81758Y-39436D01*
G01X81727Y-39467D01*
G01X81636Y-39500D01*
G01X81356D01*
G01X81572Y-39500D02*
G01X81791Y-39840D01*
G01X82154Y-39190D02*
G01X82494Y-39190D01*
G01X82309Y-39436D01*
G01X82400D01*
G01X82464Y-39467D01*
G01X82494Y-39500D01*
G01X82525Y-39591D01*
G01Y-39654D01*
G01X82494Y-39746D01*
G01X82433Y-39809D01*
G01X82339Y-39840D01*
G01X82245D01*
G01X82154Y-39809D01*
G01X82123Y-39776D01*
G01X82093Y-39715D01*
G01X83259Y-39190D02*
G01X82949Y-39840D01*
G01X82827Y-39190D02*
G01X83259Y-39190D01*
G01X70137Y-26899D02*
G01X70107Y-26835D01*
G01X70043Y-26774D01*
G01X69982Y-26744D01*
G01X69858D01*
G01X69797Y-26774D01*
G01X69733Y-26835D01*
G01X69703Y-26899D01*
G01X69672Y-26990D01*
G01Y-27145D01*
G01X69703Y-27239D01*
G01X69733Y-27300D01*
G01X69797Y-27363D01*
G01X69858Y-27394D01*
G01X69982D01*
G01X70043Y-27363D01*
G01X70107Y-27300D01*
G01X70137Y-27239D01*
G01X70439Y-26868D02*
G01X70500Y-26835D01*
G01X70592Y-26744D01*
G01Y-27394D01*
G01X71046Y-26744D02*
G01X70955Y-26774D01*
G01X70924Y-26835D01*
G01Y-26899D01*
G01X70955Y-26960D01*
G01X71016Y-26990D01*
G01X71140Y-27021D01*
G01X71234Y-27054D01*
G01X71295Y-27114D01*
G01X71326Y-27175D01*
G01Y-27269D01*
G01X71295Y-27330D01*
G01X71265Y-27363D01*
G01X71171Y-27394D01*
G01X71046D01*
G01X70955Y-27363D01*
G01X70924Y-27330D01*
G01X70894Y-27269D01*
G01Y-27175D01*
G01X70924Y-27114D01*
G01X70985Y-27054D01*
G01X71079Y-27021D01*
G01X71201Y-26990D01*
G01X71265Y-26960D01*
G01X71295Y-26899D01*
G01Y-26835D01*
G01X71265Y-26774D01*
G01X71171Y-26744D01*
G01X71046D01*
G01X74498Y-27252D02*
G01X74498Y-27902D01*
G01X74498Y-27252D02*
G01X74778Y-27252D01*
G01X74869Y-27282D01*
G01X74900Y-27313D01*
G01X74933Y-27376D01*
G01Y-27437D01*
G01X74900Y-27498D01*
G01X74869Y-27529D01*
G01X74778Y-27562D01*
G01X74498D01*
G01X74714Y-27562D02*
G01X74933Y-27902D01*
G01X75296Y-27252D02*
G01X75636Y-27252D01*
G01X75451Y-27498D01*
G01X75542D01*
G01X75606Y-27529D01*
G01X75636Y-27562D01*
G01X75667Y-27653D01*
G01Y-27716D01*
G01X75636Y-27808D01*
G01X75575Y-27871D01*
G01X75481Y-27902D01*
G01X75387D01*
G01X75296Y-27871D01*
G01X75265Y-27838D01*
G01X75235Y-27777D01*
G01X76121Y-27252D02*
G01X76030Y-27282D01*
G01X75999Y-27343D01*
G01Y-27407D01*
G01X76030Y-27468D01*
G01X76091Y-27498D01*
G01X76215Y-27529D01*
G01X76309Y-27562D01*
G01X76370Y-27622D01*
G01X76401Y-27683D01*
G01Y-27777D01*
G01X76370Y-27838D01*
G01X76340Y-27871D01*
G01X76246Y-27902D01*
G01X76121D01*
G01X76030Y-27871D01*
G01X75999Y-27838D01*
G01X75969Y-27777D01*
G01Y-27683D01*
G01X75999Y-27622D01*
G01X76060Y-27562D01*
G01X76154Y-27529D01*
G01X76276Y-27498D01*
G01X76340Y-27468D01*
G01X76370Y-27407D01*
G01Y-27343D01*
G01X76340Y-27282D01*
G01X76246Y-27252D01*
G01X76121D01*
G01X87452Y-27125D02*
G01X87452Y-27775D01*
G01X87452Y-27125D02*
G01X87732Y-27125D01*
G01X87823Y-27155D01*
G01X87854Y-27186D01*
G01X87887Y-27249D01*
G01Y-27310D01*
G01X87854Y-27371D01*
G01X87823Y-27402D01*
G01X87732Y-27435D01*
G01X87452D01*
G01X87668Y-27435D02*
G01X87887Y-27775D01*
G01X88250Y-27125D02*
G01X88590Y-27125D01*
G01X88405Y-27371D01*
G01X88496D01*
G01X88560Y-27402D01*
G01X88590Y-27435D01*
G01X88621Y-27526D01*
G01Y-27589D01*
G01X88590Y-27681D01*
G01X88529Y-27744D01*
G01X88435Y-27775D01*
G01X88341D01*
G01X88250Y-27744D01*
G01X88219Y-27711D01*
G01X88189Y-27650D01*
G01X89324Y-27341D02*
G01X89294Y-27435D01*
G01X89230Y-27495D01*
G01X89139Y-27526D01*
G01X89108D01*
G01X89014Y-27495D01*
G01X88953Y-27435D01*
G01X88923Y-27341D01*
G01Y-27310D01*
G01X88953Y-27216D01*
G01X89014Y-27155D01*
G01X89108Y-27125D01*
G01X89139D01*
G01X89230Y-27155D01*
G01X89294Y-27216D01*
G01X89324Y-27341D01*
G01Y-27495D01*
G01X89294Y-27650D01*
G01X89230Y-27744D01*
G01X89139Y-27775D01*
G01X89075D01*
G01X88984Y-27744D01*
G01X88953Y-27681D01*
G01X75260Y-36142D02*
G01X75260Y-36606D01*
G01X75291Y-36698D01*
G01X75354Y-36761D01*
G01X75446Y-36792D01*
G01X75509D01*
G01X75601Y-36761D01*
G01X75662Y-36698D01*
G01X75695Y-36606D01*
G01Y-36142D01*
G01X76027Y-36297D02*
G01X76027Y-36266D01*
G01X76058Y-36203D01*
G01X76088Y-36172D01*
G01X76149Y-36142D01*
G01X76274D01*
G01X76337Y-36172D01*
G01X76368Y-36203D01*
G01X76398Y-36266D01*
G01Y-36327D01*
G01X76368Y-36388D01*
G01X76304Y-36482D01*
G01X75997Y-36792D01*
G01X76429D01*
G01X77102Y-36233D02*
G01X77071Y-36172D01*
G01X76977Y-36142D01*
G01X76916D01*
G01X76822Y-36172D01*
G01X76761Y-36266D01*
G01X76731Y-36419D01*
G01Y-36573D01*
G01X76761Y-36698D01*
G01X76822Y-36761D01*
G01X76916Y-36792D01*
G01X76947D01*
G01X77038Y-36761D01*
G01X77102Y-36698D01*
G01X77132Y-36606D01*
G01Y-36573D01*
G01X77102Y-36482D01*
G01X77038Y-36419D01*
G01X76947Y-36388D01*
G01X76916D01*
G01X76822Y-36419D01*
G01X76761Y-36482D01*
G01X76731Y-36573D01*
G01X65380Y-52926D02*
G01X65316Y-52956D01*
G01X65255Y-53020D01*
G01X65225Y-53081D01*
G01Y-53205D01*
G01X65255Y-53266D01*
G01X65316Y-53330D01*
G01X65380Y-53360D01*
G01X65471Y-53391D01*
G01X65626D01*
G01X65720Y-53360D01*
G01X65781Y-53330D01*
G01X65844Y-53266D01*
G01X65875Y-53205D01*
G01Y-53081D01*
G01X65844Y-53020D01*
G01X65781Y-52956D01*
G01X65720Y-52926D01*
G01X65316Y-52253D02*
G01X65255Y-52283D01*
G01X65225Y-52377D01*
G01Y-52438D01*
G01X65255Y-52532D01*
G01X65349Y-52593D01*
G01X65502Y-52624D01*
G01X65656D01*
G01X65781Y-52593D01*
G01X65844Y-52532D01*
G01X65875Y-52438D01*
G01Y-52408D01*
G01X65844Y-52316D01*
G01X65781Y-52253D01*
G01X65689Y-52222D01*
G01X65656D01*
G01X65565Y-52253D01*
G01X65502Y-52316D01*
G01X65471Y-52408D01*
G01Y-52438D01*
G01X65502Y-52532D01*
G01X65565Y-52593D01*
G01X65656Y-52624D01*
G01X70391Y-59538D02*
G01X70361Y-59474D01*
G01X70297Y-59413D01*
G01X70236Y-59383D01*
G01X70112D01*
G01X70051Y-59413D01*
G01X69987Y-59474D01*
G01X69957Y-59538D01*
G01X69926Y-59629D01*
G01Y-59784D01*
G01X69957Y-59878D01*
G01X69987Y-59939D01*
G01X70051Y-60002D01*
G01X70112Y-60033D01*
G01X70236D01*
G01X70297Y-60002D01*
G01X70361Y-59939D01*
G01X70391Y-59878D01*
G01X71125Y-59383D02*
G01X70815Y-60033D01*
G01X70693Y-59383D02*
G01X71125Y-59383D01*
G01X79985Y-53180D02*
G01X79921Y-53210D01*
G01X79860Y-53274D01*
G01X79830Y-53335D01*
G01Y-53459D01*
G01X79860Y-53520D01*
G01X79921Y-53584D01*
G01X79985Y-53614D01*
G01X80076Y-53645D01*
G01X80231D01*
G01X80325Y-53614D01*
G01X80386Y-53584D01*
G01X80449Y-53520D01*
G01X80480Y-53459D01*
G01Y-53335D01*
G01X80449Y-53274D01*
G01X80386Y-53210D01*
G01X80325Y-53180D01*
G01X79830Y-52725D02*
G01X79860Y-52817D01*
G01X79921Y-52847D01*
G01X79985D01*
G01X80046Y-52817D01*
G01X80076Y-52756D01*
G01X80107Y-52631D01*
G01X80140Y-52537D01*
G01X80201Y-52476D01*
G01X80261Y-52446D01*
G01X80355D01*
G01X80416Y-52476D01*
G01X80449Y-52507D01*
G01X80480Y-52601D01*
G01Y-52725D01*
G01X80449Y-52817D01*
G01X80416Y-52847D01*
G01X80355Y-52878D01*
G01X80261D01*
G01X80201Y-52847D01*
G01X80140Y-52786D01*
G01X80107Y-52692D01*
G01X80076Y-52570D01*
G01X80046Y-52507D01*
G01X79985Y-52476D01*
G01X79921D01*
G01X79860Y-52507D01*
G01X79830Y-52601D01*
G01Y-52725D01*
G01X74836Y-59538D02*
G01X74806Y-59474D01*
G01X74742Y-59413D01*
G01X74681Y-59383D01*
G01X74557D01*
G01X74496Y-59413D01*
G01X74432Y-59474D01*
G01X74402Y-59538D01*
G01X74371Y-59629D01*
G01Y-59784D01*
G01X74402Y-59878D01*
G01X74432Y-59939D01*
G01X74496Y-60002D01*
G01X74557Y-60033D01*
G01X74681D01*
G01X74742Y-60002D01*
G01X74806Y-59939D01*
G01X74836Y-59878D01*
G01X75540Y-59599D02*
G01X75509Y-59693D01*
G01X75446Y-59753D01*
G01X75354Y-59784D01*
G01X75324D01*
G01X75230Y-59753D01*
G01X75169Y-59693D01*
G01X75138Y-59599D01*
G01Y-59568D01*
G01X75169Y-59474D01*
G01X75230Y-59413D01*
G01X75324Y-59383D01*
G01X75354D01*
G01X75446Y-59413D01*
G01X75509Y-59474D01*
G01X75540Y-59599D01*
G01Y-59753D01*
G01X75509Y-59908D01*
G01X75446Y-60002D01*
G01X75354Y-60033D01*
G01X75291D01*
G01X75199Y-60002D01*
G01X75169Y-59939D01*
G01X75192Y-50874D02*
G01X75131Y-50904D01*
G01X75067Y-50965D01*
G01X75037Y-51029D01*
G01X75006Y-51120D01*
G01Y-51275D01*
G01X75037Y-51369D01*
G01X75067Y-51430D01*
G01X75131Y-51493D01*
G01X75192Y-51524D01*
G01X75316D01*
G01X75377Y-51493D01*
G01X75441Y-51430D01*
G01X75471Y-51369D01*
G01X75502Y-51275D01*
G01Y-51120D01*
G01X75471Y-51029D01*
G01X75441Y-50965D01*
G01X75377Y-50904D01*
G01X75316Y-50874D01*
G01X75192D01*
G01X75286Y-51399D02*
G01X75471Y-51585D01*
G01X75865Y-50874D02*
G01X76205Y-50874D01*
G01X76020Y-51120D01*
G01X76111D01*
G01X76175Y-51151D01*
G01X76205Y-51184D01*
G01X76236Y-51275D01*
G01Y-51338D01*
G01X76205Y-51430D01*
G01X76144Y-51493D01*
G01X76050Y-51524D01*
G01X75956D01*
G01X75865Y-51493D01*
G01X75834Y-51460D01*
G01X75804Y-51399D01*
G01X69223Y-50747D02*
G01X69162Y-50777D01*
G01X69098Y-50838D01*
G01X69068Y-50902D01*
G01X69037Y-50993D01*
G01Y-51148D01*
G01X69068Y-51242D01*
G01X69098Y-51303D01*
G01X69162Y-51366D01*
G01X69223Y-51397D01*
G01X69347D01*
G01X69408Y-51366D01*
G01X69472Y-51303D01*
G01X69502Y-51242D01*
G01X69533Y-51148D01*
G01Y-50993D01*
G01X69502Y-50902D01*
G01X69472Y-50838D01*
G01X69408Y-50777D01*
G01X69347Y-50747D01*
G01X69223D01*
G01X69317Y-51272D02*
G01X69502Y-51458D01*
G01X70142Y-50747D02*
G01X69835Y-51178D01*
G01X70297D01*
G01X70142Y-50747D02*
G01X70142Y-51397D01*
G01X36482Y-64364D02*
G01X36452Y-64300D01*
G01X36388Y-64239D01*
G01X36327Y-64209D01*
G01X36203D01*
G01X36142Y-64239D01*
G01X36078Y-64300D01*
G01X36048Y-64364D01*
G01X36017Y-64455D01*
G01Y-64610D01*
G01X36048Y-64704D01*
G01X36078Y-64765D01*
G01X36142Y-64828D01*
G01X36203Y-64859D01*
G01X36327D01*
G01X36388Y-64828D01*
G01X36452Y-64765D01*
G01X36482Y-64704D01*
G01X36784Y-64209D02*
G01X36784Y-64859D01*
G01X36784Y-64209D02*
G01X37216Y-64859D01*
G01X37216Y-64209D02*
G01X37216Y-64859D01*
G01X37518Y-64333D02*
G01X37579Y-64300D01*
G01X37671Y-64209D01*
G01Y-64859D01*
G01X60300Y-73627D02*
G01X60236Y-73657D01*
G01X60175Y-73721D01*
G01X60145Y-73782D01*
G01Y-73906D01*
G01X60175Y-73967D01*
G01X60236Y-74031D01*
G01X60300Y-74061D01*
G01X60391Y-74092D01*
G01X60546D01*
G01X60640Y-74061D01*
G01X60701Y-74031D01*
G01X60764Y-73967D01*
G01X60795Y-73906D01*
G01Y-73782D01*
G01X60764Y-73721D01*
G01X60701Y-73657D01*
G01X60640Y-73627D01*
G01X60269Y-73325D02*
G01X60236Y-73264D01*
G01X60145Y-73172D01*
G01X60795D01*
G01X60361Y-72469D02*
G01X60455Y-72499D01*
G01X60516Y-72563D01*
G01X60546Y-72654D01*
G01Y-72685D01*
G01X60516Y-72779D01*
G01X60455Y-72840D01*
G01X60361Y-72870D01*
G01X60330D01*
G01X60236Y-72840D01*
G01X60175Y-72779D01*
G01X60145Y-72685D01*
G01Y-72654D01*
G01X60175Y-72563D01*
G01X60236Y-72499D01*
G01X60361Y-72469D01*
G01X60516D01*
G01X60670Y-72499D01*
G01X60764Y-72563D01*
G01X60795Y-72654D01*
G01Y-72718D01*
G01X60764Y-72809D01*
G01X60701Y-72840D01*
G01X61443Y-73627D02*
G01X61379Y-73657D01*
G01X61318Y-73721D01*
G01X61288Y-73782D01*
G01Y-73906D01*
G01X61318Y-73967D01*
G01X61379Y-74031D01*
G01X61443Y-74061D01*
G01X61534Y-74092D01*
G01X61689D01*
G01X61783Y-74061D01*
G01X61844Y-74031D01*
G01X61907Y-73967D01*
G01X61938Y-73906D01*
G01Y-73782D01*
G01X61907Y-73721D01*
G01X61844Y-73657D01*
G01X61783Y-73627D01*
G01X61443Y-73294D02*
G01X61412Y-73294D01*
G01X61349Y-73264D01*
G01X61318Y-73233D01*
G01X61288Y-73172D01*
G01Y-73048D01*
G01X61318Y-72984D01*
G01X61349Y-72954D01*
G01X61412Y-72923D01*
G01X61473D01*
G01X61534Y-72954D01*
G01X61628Y-73017D01*
G01X61938Y-73325D01*
G01Y-72893D01*
G01X61288Y-72405D02*
G01X61318Y-72499D01*
G01X61412Y-72560D01*
G01X61565Y-72591D01*
G01X61659D01*
G01X61813Y-72560D01*
G01X61907Y-72499D01*
G01X61938Y-72405D01*
G01Y-72344D01*
G01X61907Y-72250D01*
G01X61813Y-72189D01*
G01X61659Y-72159D01*
G01X61565D01*
G01X61412Y-72189D01*
G01X61318Y-72250D01*
G01X61288Y-72344D01*
G01Y-72405D01*
G01X62840Y-73627D02*
G01X62776Y-73657D01*
G01X62715Y-73721D01*
G01X62685Y-73782D01*
G01Y-73906D01*
G01X62715Y-73967D01*
G01X62776Y-74031D01*
G01X62840Y-74061D01*
G01X62931Y-74092D01*
G01X63086D01*
G01X63180Y-74061D01*
G01X63241Y-74031D01*
G01X63304Y-73967D01*
G01X63335Y-73906D01*
G01Y-73782D01*
G01X63304Y-73721D01*
G01X63241Y-73657D01*
G01X63180Y-73627D01*
G01X62840Y-73294D02*
G01X62809Y-73294D01*
G01X62746Y-73264D01*
G01X62715Y-73233D01*
G01X62685Y-73172D01*
G01Y-73048D01*
G01X62715Y-72984D01*
G01X62746Y-72954D01*
G01X62809Y-72923D01*
G01X62870D01*
G01X62931Y-72954D01*
G01X63025Y-73017D01*
G01X63335Y-73325D01*
G01Y-72893D01*
G01X62809Y-72591D02*
G01X62776Y-72530D01*
G01X62685Y-72438D01*
G01X63335D01*
G01X62713Y-78072D02*
G01X62649Y-78102D01*
G01X62588Y-78166D01*
G01X62558Y-78227D01*
G01Y-78351D01*
G01X62588Y-78412D01*
G01X62649Y-78476D01*
G01X62713Y-78506D01*
G01X62804Y-78537D01*
G01X62959D01*
G01X63053Y-78506D01*
G01X63114Y-78476D01*
G01X63177Y-78412D01*
G01X63208Y-78351D01*
G01Y-78227D01*
G01X63177Y-78166D01*
G01X63114Y-78102D01*
G01X63053Y-78072D01*
G01X62713Y-77739D02*
G01X62682Y-77739D01*
G01X62619Y-77709D01*
G01X62588Y-77678D01*
G01X62558Y-77617D01*
G01Y-77493D01*
G01X62588Y-77429D01*
G01X62619Y-77399D01*
G01X62682Y-77368D01*
G01X62743D01*
G01X62804Y-77399D01*
G01X62898Y-77462D01*
G01X63208Y-77770D01*
G01Y-77338D01*
G01X62713Y-77005D02*
G01X62682Y-77005D01*
G01X62619Y-76975D01*
G01X62588Y-76944D01*
G01X62558Y-76883D01*
G01Y-76759D01*
G01X62588Y-76695D01*
G01X62619Y-76665D01*
G01X62682Y-76634D01*
G01X62743D01*
G01X62804Y-76665D01*
G01X62898Y-76728D01*
G01X63208Y-77036D01*
G01Y-76604D01*
G01X61570Y-78072D02*
G01X61506Y-78102D01*
G01X61445Y-78166D01*
G01X61415Y-78227D01*
G01Y-78351D01*
G01X61445Y-78412D01*
G01X61506Y-78476D01*
G01X61570Y-78506D01*
G01X61661Y-78537D01*
G01X61816D01*
G01X61910Y-78506D01*
G01X61971Y-78476D01*
G01X62034Y-78412D01*
G01X62065Y-78351D01*
G01Y-78227D01*
G01X62034Y-78166D01*
G01X61971Y-78102D01*
G01X61910Y-78072D01*
G01X61570Y-77739D02*
G01X61539Y-77739D01*
G01X61476Y-77709D01*
G01X61445Y-77678D01*
G01X61415Y-77617D01*
G01Y-77493D01*
G01X61445Y-77429D01*
G01X61476Y-77399D01*
G01X61539Y-77368D01*
G01X61600D01*
G01X61661Y-77399D01*
G01X61755Y-77462D01*
G01X62065Y-77770D01*
G01Y-77338D01*
G01X61415Y-76975D02*
G01X61415Y-76634D01*
G01X61661Y-76820D01*
G01Y-76728D01*
G01X61692Y-76665D01*
G01X61725Y-76634D01*
G01X61816Y-76604D01*
G01X61879D01*
G01X61971Y-76634D01*
G01X62034Y-76695D01*
G01X62065Y-76789D01*
G01Y-76883D01*
G01X62034Y-76975D01*
G01X62001Y-77005D01*
G01X61940Y-77036D01*
G01X60300Y-78072D02*
G01X60236Y-78102D01*
G01X60175Y-78166D01*
G01X60145Y-78227D01*
G01Y-78351D01*
G01X60175Y-78412D01*
G01X60236Y-78476D01*
G01X60300Y-78506D01*
G01X60391Y-78537D01*
G01X60546D01*
G01X60640Y-78506D01*
G01X60701Y-78476D01*
G01X60764Y-78412D01*
G01X60795Y-78351D01*
G01Y-78227D01*
G01X60764Y-78166D01*
G01X60701Y-78102D01*
G01X60640Y-78072D01*
G01X60300Y-77739D02*
G01X60269Y-77739D01*
G01X60206Y-77709D01*
G01X60175Y-77678D01*
G01X60145Y-77617D01*
G01Y-77493D01*
G01X60175Y-77429D01*
G01X60206Y-77399D01*
G01X60269Y-77368D01*
G01X60330D01*
G01X60391Y-77399D01*
G01X60485Y-77462D01*
G01X60795Y-77770D01*
G01Y-77338D01*
G01X60145Y-76728D02*
G01X60576Y-77036D01*
G01Y-76573D01*
G01X60145Y-76728D02*
G01X60795Y-76728D01*
G01X72296Y-72111D02*
G01X72266Y-72047D01*
G01X72202Y-71986D01*
G01X72141Y-71956D01*
G01X72017D01*
G01X71956Y-71986D01*
G01X71892Y-72047D01*
G01X71862Y-72111D01*
G01X71831Y-72202D01*
G01Y-72357D01*
G01X71862Y-72451D01*
G01X71892Y-72512D01*
G01X71956Y-72575D01*
G01X72017Y-72606D01*
G01X72141D01*
G01X72202Y-72575D01*
G01X72266Y-72512D01*
G01X72296Y-72451D01*
G01X72629Y-72111D02*
G01X72629Y-72080D01*
G01X72659Y-72017D01*
G01X72690Y-71986D01*
G01X72751Y-71956D01*
G01X72875D01*
G01X72939Y-71986D01*
G01X72969Y-72017D01*
G01X73000Y-72080D01*
G01Y-72141D01*
G01X72969Y-72202D01*
G01X72906Y-72296D01*
G01X72598Y-72606D01*
G01X73030D01*
G01X73703Y-71956D02*
G01X73393Y-71956D01*
G01X73363Y-72233D01*
G01X73393Y-72202D01*
G01X73485Y-72172D01*
G01X73579D01*
G01X73673Y-72202D01*
G01X73734Y-72266D01*
G01X73764Y-72357D01*
G01Y-72420D01*
G01X73734Y-72512D01*
G01X73673Y-72575D01*
G01X73579Y-72606D01*
G01X73485D01*
G01X73393Y-72575D01*
G01X73363Y-72542D01*
G01X73332Y-72481D01*
G01X83388Y-75639D02*
G01X83388Y-76289D01*
G01X83388Y-75639D02*
G01X83668Y-75639D01*
G01X83759Y-75669D01*
G01X83790Y-75700D01*
G01X83823Y-75763D01*
G01Y-75824D01*
G01X83790Y-75885D01*
G01X83759Y-75916D01*
G01X83668Y-75949D01*
G01X83388D01*
G01X83604Y-75949D02*
G01X83823Y-76289D01*
G01X84432Y-75639D02*
G01X84125Y-76070D01*
G01X84587D01*
G01X84432Y-75639D02*
G01X84432Y-76289D01*
G01X84889Y-75763D02*
G01X84950Y-75730D01*
G01X85042Y-75639D01*
G01Y-76289D01*
G01X69746Y-68693D02*
G01X69682Y-68724D01*
G01X69621Y-68787D01*
G01X69591Y-68848D01*
G01Y-68973D01*
G01X69621Y-69034D01*
G01X69682Y-69097D01*
G01X69746Y-69128D01*
G01X69837Y-69158D01*
G01X69992D01*
G01X70086Y-69128D01*
G01X70147Y-69097D01*
G01X70210Y-69034D01*
G01X70241Y-68973D01*
G01Y-68848D01*
G01X70210Y-68787D01*
G01X70147Y-68724D01*
G01X70086Y-68693D01*
G01X69746Y-68360D02*
G01X69715Y-68360D01*
G01X69652Y-68330D01*
G01X69621Y-68300D01*
G01X69591Y-68239D01*
G01Y-68114D01*
G01X69621Y-68051D01*
G01X69652Y-68020D01*
G01X69715Y-67990D01*
G01X69776D01*
G01X69837Y-68020D01*
G01X69931Y-68084D01*
G01X70241Y-68391D01*
G01Y-67959D01*
G01X69591Y-67225D02*
G01X70241Y-67535D01*
G01X69591Y-67657D02*
G01X69591Y-67225D01*
G01X72619Y-68674D02*
G01X72555Y-68704D01*
G01X72494Y-68768D01*
G01X72464Y-68829D01*
G01Y-68953D01*
G01X72494Y-69014D01*
G01X72555Y-69078D01*
G01X72619Y-69108D01*
G01X72710Y-69139D01*
G01X72865D01*
G01X72959Y-69108D01*
G01X73020Y-69078D01*
G01X73083Y-69014D01*
G01X73114Y-68953D01*
G01Y-68829D01*
G01X73083Y-68768D01*
G01X73020Y-68704D01*
G01X72959Y-68674D01*
G01X72619Y-68341D02*
G01X72588Y-68341D01*
G01X72525Y-68311D01*
G01X72494Y-68280D01*
G01X72464Y-68219D01*
G01Y-68095D01*
G01X72494Y-68031D01*
G01X72525Y-68001D01*
G01X72588Y-67970D01*
G01X72649D01*
G01X72710Y-68001D01*
G01X72804Y-68064D01*
G01X73114Y-68372D01*
G01Y-67940D01*
G01X72464Y-67485D02*
G01X72494Y-67577D01*
G01X72555Y-67607D01*
G01X72619D01*
G01X72680Y-67577D01*
G01X72710Y-67516D01*
G01X72741Y-67391D01*
G01X72774Y-67297D01*
G01X72835Y-67236D01*
G01X72895Y-67206D01*
G01X72989D01*
G01X73050Y-67236D01*
G01X73083Y-67267D01*
G01X73114Y-67361D01*
G01Y-67485D01*
G01X73083Y-67577D01*
G01X73050Y-67607D01*
G01X72989Y-67638D01*
G01X72895D01*
G01X72835Y-67607D01*
G01X72774Y-67546D01*
G01X72741Y-67452D01*
G01X72710Y-67330D01*
G01X72680Y-67267D01*
G01X72619Y-67236D01*
G01X72555D01*
G01X72494Y-67267D01*
G01X72464Y-67361D01*
G01Y-67485D01*
G01X70713Y-68693D02*
G01X70649Y-68724D01*
G01X70588Y-68787D01*
G01X70558Y-68848D01*
G01Y-68973D01*
G01X70588Y-69034D01*
G01X70649Y-69097D01*
G01X70713Y-69128D01*
G01X70804Y-69158D01*
G01X70959D01*
G01X71053Y-69128D01*
G01X71114Y-69097D01*
G01X71178Y-69034D01*
G01X71208Y-68973D01*
G01Y-68848D01*
G01X71178Y-68787D01*
G01X71114Y-68724D01*
G01X71053Y-68693D01*
G01X70713Y-68360D02*
G01X70682Y-68360D01*
G01X70619Y-68330D01*
G01X70588Y-68300D01*
G01X70558Y-68239D01*
G01Y-68114D01*
G01X70588Y-68051D01*
G01X70619Y-68020D01*
G01X70682Y-67990D01*
G01X70743D01*
G01X70804Y-68020D01*
G01X70898Y-68084D01*
G01X71208Y-68391D01*
G01Y-67959D01*
G01X70774Y-67256D02*
G01X70868Y-67286D01*
G01X70929Y-67350D01*
G01X70959Y-67441D01*
G01Y-67471D01*
G01X70929Y-67565D01*
G01X70868Y-67626D01*
G01X70774Y-67657D01*
G01X70743D01*
G01X70649Y-67626D01*
G01X70588Y-67565D01*
G01X70558Y-67471D01*
G01Y-67441D01*
G01X70588Y-67350D01*
G01X70649Y-67286D01*
G01X70774Y-67256D01*
G01X70929D01*
G01X71084Y-67286D01*
G01X71178Y-67350D01*
G01X71208Y-67441D01*
G01Y-67505D01*
G01X71178Y-67596D01*
G01X71114Y-67626D01*
G01X71680Y-68693D02*
G01X71616Y-68724D01*
G01X71555Y-68787D01*
G01X71525Y-68848D01*
G01Y-68973D01*
G01X71555Y-69034D01*
G01X71616Y-69097D01*
G01X71680Y-69128D01*
G01X71771Y-69158D01*
G01X71926D01*
G01X72020Y-69128D01*
G01X72081Y-69097D01*
G01X72145Y-69034D01*
G01X72175Y-68973D01*
G01Y-68848D01*
G01X72145Y-68787D01*
G01X72081Y-68724D01*
G01X72020Y-68693D01*
G01X71525Y-68330D02*
G01X71525Y-67990D01*
G01X71771Y-68175D01*
G01Y-68084D01*
G01X71802Y-68020D01*
G01X71835Y-67990D01*
G01X71926Y-67959D01*
G01X71990D01*
G01X72081Y-67990D01*
G01X72145Y-68051D01*
G01X72175Y-68145D01*
G01Y-68239D01*
G01X72145Y-68330D01*
G01X72112Y-68360D01*
G01X72051Y-68391D01*
G01X71525Y-67471D02*
G01X71555Y-67565D01*
G01X71649Y-67626D01*
G01X71802Y-67657D01*
G01X71896D01*
G01X72051Y-67626D01*
G01X72145Y-67565D01*
G01X72175Y-67471D01*
G01Y-67411D01*
G01X72145Y-67317D01*
G01X72051Y-67256D01*
G01X71896Y-67225D01*
G01X71802D01*
G01X71649Y-67256D01*
G01X71555Y-67317D01*
G01X71525Y-67411D01*
G01Y-67471D01*
G01X90117Y-74981D02*
G01X90767Y-74981D01*
G01X90117Y-74981D02*
G01X90117Y-74701D01*
G01X90147Y-74610D01*
G01X90178Y-74579D01*
G01X90241Y-74546D01*
G01X90302D01*
G01X90363Y-74579D01*
G01X90394Y-74610D01*
G01X90427Y-74701D01*
G01Y-74981D01*
G01X90427Y-74765D02*
G01X90767Y-74546D01*
G01X90117Y-73937D02*
G01X90548Y-74244D01*
G01Y-73782D01*
G01X90117Y-73937D02*
G01X90767Y-73937D01*
G01X90117Y-73419D02*
G01X90117Y-73078D01*
G01X90363Y-73264D01*
G01Y-73172D01*
G01X90394Y-73109D01*
G01X90427Y-73078D01*
G01X90518Y-73048D01*
G01X90581D01*
G01X90673Y-73078D01*
G01X90736Y-73139D01*
G01X90767Y-73233D01*
G01Y-73327D01*
G01X90736Y-73419D01*
G01X90703Y-73449D01*
G01X90642Y-73480D01*
G01X92149Y-74981D02*
G01X92799Y-74981D01*
G01X92149Y-74981D02*
G01X92149Y-74701D01*
G01X92179Y-74610D01*
G01X92210Y-74579D01*
G01X92273Y-74546D01*
G01X92334D01*
G01X92395Y-74579D01*
G01X92426Y-74610D01*
G01X92459Y-74701D01*
G01Y-74981D01*
G01X92459Y-74765D02*
G01X92799Y-74546D01*
G01X92149Y-73937D02*
G01X92580Y-74244D01*
G01Y-73782D01*
G01X92149Y-73937D02*
G01X92799Y-73937D01*
G01X92149Y-73172D02*
G01X92580Y-73480D01*
G01Y-73017D01*
G01X92149Y-73172D02*
G01X92799Y-73172D01*
G01X77292Y-72464D02*
G01X77292Y-72928D01*
G01X77323Y-73020D01*
G01X77386Y-73083D01*
G01X77478Y-73114D01*
G01X77541D01*
G01X77633Y-73083D01*
G01X77694Y-73020D01*
G01X77727Y-72928D01*
G01Y-72464D01*
G01X78059Y-72619D02*
G01X78059Y-72588D01*
G01X78090Y-72525D01*
G01X78120Y-72494D01*
G01X78181Y-72464D01*
G01X78306D01*
G01X78369Y-72494D01*
G01X78400Y-72525D01*
G01X78430Y-72588D01*
G01Y-72649D01*
G01X78400Y-72710D01*
G01X78336Y-72804D01*
G01X78029Y-73114D01*
G01X78461D01*
G01X78915Y-72464D02*
G01X78824Y-72494D01*
G01X78793Y-72555D01*
G01Y-72619D01*
G01X78824Y-72680D01*
G01X78885Y-72710D01*
G01X79009Y-72741D01*
G01X79103Y-72774D01*
G01X79164Y-72834D01*
G01X79195Y-72895D01*
G01Y-72989D01*
G01X79164Y-73050D01*
G01X79134Y-73083D01*
G01X79040Y-73114D01*
G01X78915D01*
G01X78824Y-73083D01*
G01X78793Y-73050D01*
G01X78763Y-72989D01*
G01Y-72895D01*
G01X78793Y-72834D01*
G01X78854Y-72774D01*
G01X78948Y-72741D01*
G01X79070Y-72710D01*
G01X79134Y-72680D01*
G01X79164Y-72619D01*
G01Y-72555D01*
G01X79134Y-72494D01*
G01X79040Y-72464D01*
G01X78915D01*
G01X81864Y-65606D02*
G01X81864Y-66070D01*
G01X81895Y-66162D01*
G01X81958Y-66225D01*
G01X82050Y-66256D01*
G01X82113D01*
G01X82205Y-66225D01*
G01X82266Y-66162D01*
G01X82299Y-66070D01*
G01Y-65606D01*
G01X82631Y-65761D02*
G01X82631Y-65730D01*
G01X82662Y-65667D01*
G01X82692Y-65636D01*
G01X82753Y-65606D01*
G01X82878D01*
G01X82941Y-65636D01*
G01X82972Y-65667D01*
G01X83002Y-65730D01*
G01Y-65791D01*
G01X82972Y-65852D01*
G01X82908Y-65946D01*
G01X82601Y-66256D01*
G01X83033D01*
G01X83736Y-65822D02*
G01X83706Y-65916D01*
G01X83642Y-65976D01*
G01X83551Y-66007D01*
G01X83520D01*
G01X83426Y-65976D01*
G01X83365Y-65916D01*
G01X83335Y-65822D01*
G01Y-65791D01*
G01X83365Y-65697D01*
G01X83426Y-65636D01*
G01X83520Y-65606D01*
G01X83551D01*
G01X83642Y-65636D01*
G01X83706Y-65697D01*
G01X83736Y-65822D01*
G01Y-65976D01*
G01X83706Y-66131D01*
G01X83642Y-66225D01*
G01X83551Y-66256D01*
G01X83487D01*
G01X83396Y-66225D01*
G01X83365Y-66162D01*
G01X88466Y-44374D02*
G01X89116Y-44374D01*
G01X88466Y-44374D02*
G01X88466Y-44094D01*
G01X88496Y-44003D01*
G01X88527Y-43972D01*
G01X88590Y-43939D01*
G01X88651D01*
G01X88712Y-43972D01*
G01X88743Y-44003D01*
G01X88776Y-44094D01*
G01Y-44374D01*
G01X88776Y-44158D02*
G01X89116Y-43939D01*
G01X88466Y-43330D02*
G01X88897Y-43637D01*
G01Y-43175D01*
G01X88466Y-43330D02*
G01X89116Y-43330D01*
G01X88466Y-42687D02*
G01X88496Y-42781D01*
G01X88590Y-42842D01*
G01X88743Y-42873D01*
G01X88837D01*
G01X88991Y-42842D01*
G01X89085Y-42781D01*
G01X89116Y-42687D01*
G01Y-42626D01*
G01X89085Y-42532D01*
G01X88991Y-42471D01*
G01X88837Y-42441D01*
G01X88743D01*
G01X88590Y-42471D01*
G01X88496Y-42532D01*
G01X88466Y-42626D01*
G01Y-42687D01*
G01X60909Y-84783D02*
G01X60909Y-85247D01*
G01X60940Y-85339D01*
G01X61003Y-85402D01*
G01X61095Y-85433D01*
G01X61158D01*
G01X61250Y-85402D01*
G01X61311Y-85339D01*
G01X61344Y-85247D01*
G01Y-84783D01*
G01X61707Y-84783D02*
G01X62047Y-84783D01*
G01X61862Y-85029D01*
G01X61953D01*
G01X62017Y-85060D01*
G01X62047Y-85093D01*
G01X62078Y-85184D01*
G01Y-85247D01*
G01X62047Y-85339D01*
G01X61986Y-85402D01*
G01X61892Y-85433D01*
G01X61798D01*
G01X61707Y-85402D01*
G01X61676Y-85369D01*
G01X61646Y-85308D01*
G01X62565Y-84783D02*
G01X62471Y-84813D01*
G01X62410Y-84907D01*
G01X62380Y-85060D01*
G01Y-85153D01*
G01X62410Y-85308D01*
G01X62471Y-85402D01*
G01X62565Y-85433D01*
G01X62626D01*
G01X62720Y-85402D01*
G01X62781Y-85308D01*
G01X62812Y-85153D01*
G01Y-85060D01*
G01X62781Y-84907D01*
G01X62720Y-84813D01*
G01X62626Y-84783D01*
G01X62565D01*
G01X77292Y-84656D02*
G01X77292Y-85120D01*
G01X77323Y-85212D01*
G01X77386Y-85275D01*
G01X77478Y-85306D01*
G01X77541D01*
G01X77633Y-85275D01*
G01X77694Y-85212D01*
G01X77727Y-85120D01*
G01Y-84656D01*
G01X78090Y-84656D02*
G01X78430Y-84656D01*
G01X78245Y-84902D01*
G01X78336D01*
G01X78400Y-84933D01*
G01X78430Y-84966D01*
G01X78461Y-85057D01*
G01Y-85120D01*
G01X78430Y-85212D01*
G01X78369Y-85275D01*
G01X78275Y-85306D01*
G01X78181D01*
G01X78090Y-85275D01*
G01X78059Y-85242D01*
G01X78029Y-85181D01*
G01X78763Y-84780D02*
G01X78824Y-84747D01*
G01X78915Y-84656D01*
G01Y-85306D01*
G01X71448Y-79807D02*
G01X72098Y-79807D01*
G01X71448Y-79807D02*
G01X71448Y-79527D01*
G01X71478Y-79436D01*
G01X71509Y-79405D01*
G01X71572Y-79372D01*
G01X71633D01*
G01X71694Y-79405D01*
G01X71725Y-79436D01*
G01X71758Y-79527D01*
G01Y-79807D01*
G01X71758Y-79591D02*
G01X72098Y-79372D01*
G01X71448Y-78763D02*
G01X71879Y-79070D01*
G01Y-78608D01*
G01X71448Y-78763D02*
G01X72098Y-78763D01*
G01X71448Y-77935D02*
G01X71448Y-78245D01*
G01X71725Y-78275D01*
G01X71694Y-78245D01*
G01X71664Y-78153D01*
G01Y-78059D01*
G01X71694Y-77965D01*
G01X71758Y-77904D01*
G01X71849Y-77874D01*
G01X71912D01*
G01X72004Y-77904D01*
G01X72067Y-77965D01*
G01X72098Y-78059D01*
G01Y-78153D01*
G01X72067Y-78245D01*
G01X72034Y-78275D01*
G01X71973Y-78306D01*
G01X40589Y-44270D02*
G01X40589Y-44920D01*
G01X41024Y-44270D02*
G01X41024Y-44920D01*
G01X40589Y-44580D02*
G01X41024Y-44580D01*
G01X41387Y-44270D02*
G01X41727Y-44270D01*
G01X41542Y-44516D01*
G01X41633D01*
G01X41697Y-44547D01*
G01X41727Y-44580D01*
G01X41758Y-44671D01*
G01Y-44734D01*
G01X41727Y-44826D01*
G01X41666Y-44889D01*
G01X41572Y-44920D01*
G01X41478D01*
G01X41387Y-44889D01*
G01X41356Y-44856D01*
G01X41326Y-44795D01*
G01X100406Y-44270D02*
G01X100406Y-44920D01*
G01X100841Y-44270D02*
G01X100841Y-44920D01*
G01X100406Y-44580D02*
G01X100841Y-44580D01*
G01X101450Y-44270D02*
G01X101143Y-44701D01*
G01X101605D01*
G01X101450Y-44270D02*
G01X101450Y-44920D01*
G01X85827Y-44036D02*
G01X85763Y-44066D01*
G01X85702Y-44130D01*
G01X85672Y-44191D01*
G01Y-44315D01*
G01X85702Y-44376D01*
G01X85763Y-44440D01*
G01X85827Y-44470D01*
G01X85918Y-44501D01*
G01X86073D01*
G01X86167Y-44470D01*
G01X86228Y-44440D01*
G01X86291Y-44376D01*
G01X86322Y-44315D01*
G01Y-44191D01*
G01X86291Y-44130D01*
G01X86228Y-44066D01*
G01X86167Y-44036D01*
G01X85672Y-43673D02*
G01X85672Y-43332D01*
G01X85918Y-43518D01*
G01Y-43426D01*
G01X85949Y-43363D01*
G01X85982Y-43332D01*
G01X86073Y-43302D01*
G01X86136D01*
G01X86228Y-43332D01*
G01X86291Y-43393D01*
G01X86322Y-43487D01*
G01Y-43581D01*
G01X86291Y-43673D01*
G01X86258Y-43703D01*
G01X86197Y-43734D01*
G01X85827Y-42969D02*
G01X85796Y-42969D01*
G01X85733Y-42939D01*
G01X85702Y-42908D01*
G01X85672Y-42847D01*
G01Y-42723D01*
G01X85702Y-42659D01*
G01X85733Y-42629D01*
G01X85796Y-42598D01*
G01X85857D01*
G01X85918Y-42629D01*
G01X86012Y-42692D01*
G01X86322Y-43000D01*
G01Y-42568D01*
G01X86335Y-76040D02*
G01X86271Y-76070D01*
G01X86210Y-76134D01*
G01X86180Y-76195D01*
G01Y-76319D01*
G01X86210Y-76380D01*
G01X86271Y-76444D01*
G01X86335Y-76474D01*
G01X86426Y-76505D01*
G01X86581D01*
G01X86675Y-76474D01*
G01X86736Y-76444D01*
G01X86799Y-76380D01*
G01X86830Y-76319D01*
G01Y-76195D01*
G01X86799Y-76134D01*
G01X86736Y-76070D01*
G01X86675Y-76040D01*
G01X86180Y-75677D02*
G01X86180Y-75336D01*
G01X86426Y-75522D01*
G01Y-75430D01*
G01X86457Y-75367D01*
G01X86490Y-75336D01*
G01X86581Y-75306D01*
G01X86644D01*
G01X86736Y-75336D01*
G01X86799Y-75397D01*
G01X86830Y-75491D01*
G01Y-75585D01*
G01X86799Y-75677D01*
G01X86766Y-75707D01*
G01X86705Y-75738D01*
G01X86304Y-75004D02*
G01X86271Y-74943D01*
G01X86180Y-74851D01*
G01X86830D01*
G01X39700Y-78052D02*
G01X39700Y-78516D01*
G01X39731Y-78608D01*
G01X39794Y-78671D01*
G01X39886Y-78702D01*
G01X39949D01*
G01X40041Y-78671D01*
G01X40102Y-78608D01*
G01X40135Y-78516D01*
G01Y-78052D01*
G01X40498Y-78052D02*
G01X40838Y-78052D01*
G01X40653Y-78298D01*
G01X40744D01*
G01X40808Y-78329D01*
G01X40838Y-78362D01*
G01X40869Y-78453D01*
G01Y-78516D01*
G01X40838Y-78608D01*
G01X40777Y-78671D01*
G01X40683Y-78702D01*
G01X40589D01*
G01X40498Y-78671D01*
G01X40467Y-78638D01*
G01X40437Y-78577D01*
G01X41232Y-78052D02*
G01X41572Y-78052D01*
G01X41387Y-78298D01*
G01X41478D01*
G01X41542Y-78329D01*
G01X41572Y-78362D01*
G01X41603Y-78453D01*
G01Y-78516D01*
G01X41572Y-78608D01*
G01X41511Y-78671D01*
G01X41417Y-78702D01*
G01X41323D01*
G01X41232Y-78671D01*
G01X41201Y-78638D01*
G01X41171Y-78577D01*
G01X49966Y-54014D02*
G01X50307Y-54014D01*
G01X50121Y-54261D01*
G01X50215D01*
G01X50276Y-54291D01*
G01X50307Y-54324D01*
G01X50340Y-54416D01*
G01Y-54479D01*
G01X50307Y-54570D01*
G01X50246Y-54634D01*
G01X50154Y-54664D01*
G01X50060D01*
G01X49966Y-54634D01*
G01X49936Y-54601D01*
G01X49905Y-54540D01*
G01X50642Y-54014D02*
G01X50888Y-54664D01*
G01X51137Y-54014D02*
G01X50888Y-54664D01*
G01X51501Y-54014D02*
G01X51841Y-54014D01*
G01X51655Y-54261D01*
G01X51747D01*
G01X51810Y-54291D01*
G01X51841Y-54324D01*
G01X51871Y-54416D01*
G01Y-54479D01*
G01X51841Y-54570D01*
G01X51780Y-54634D01*
G01X51686Y-54664D01*
G01X51592D01*
G01X51501Y-54634D01*
G01X51470Y-54601D01*
G01X51440Y-54540D01*
G01X52174Y-54880D02*
G01X52730Y-54880D01*
G01X53279Y-54014D02*
G01X53032Y-54664D01*
G01X53279Y-54014D02*
G01X53527Y-54664D01*
G01X53124Y-54446D02*
G01X53433Y-54446D01*
G01X49905Y-49052D02*
G01X50154Y-49702D01*
G01X50401Y-49052D02*
G01X50154Y-49702D01*
G01X51135Y-49143D02*
G01X51074Y-49082D01*
G01X50980Y-49052D01*
G01X50855D01*
G01X50764Y-49082D01*
G01X50703Y-49143D01*
G01Y-49207D01*
G01X50733Y-49268D01*
G01X50764Y-49298D01*
G01X50825Y-49329D01*
G01X51010Y-49392D01*
G01X51074Y-49423D01*
G01X51104Y-49453D01*
G01X51135Y-49517D01*
G01Y-49608D01*
G01X51074Y-49672D01*
G01X50980Y-49702D01*
G01X50855D01*
G01X50764Y-49672D01*
G01X50703Y-49608D01*
G01X51653Y-49052D02*
G01X51653Y-49702D01*
G01X51437Y-49052D02*
G01X51869Y-49052D01*
G01X52171Y-49052D02*
G01X52171Y-49702D01*
G01X52171Y-49052D02*
G01X52572Y-49052D01*
G01X52171Y-49362D02*
G01X52417Y-49362D01*
G01X52171Y-49702D02*
G01X52572Y-49702D01*
G01X52875Y-49052D02*
G01X52875Y-49702D01*
G01X52875Y-49052D02*
G01X53276Y-49052D01*
G01X52875Y-49362D02*
G01X53121Y-49362D01*
G01X52875Y-49702D02*
G01X53276Y-49702D01*
G01X53578Y-49052D02*
G01X53578Y-49702D01*
G01X53578Y-49052D02*
G01X53855Y-49052D01*
G01X53949Y-49082D01*
G01X53980Y-49113D01*
G01X54010Y-49176D01*
G01Y-49237D01*
G01X53980Y-49298D01*
G01X53949Y-49329D01*
G01X53855Y-49362D01*
G01X53578D01*
G01X53794Y-49362D02*
G01X54010Y-49702D01*
G01X50276Y-51533D02*
G01X49966Y-51533D01*
G01X49936Y-51810D01*
G01X49966Y-51779D01*
G01X50060Y-51749D01*
G01X50154D01*
G01X50246Y-51779D01*
G01X50307Y-51843D01*
G01X50340Y-51934D01*
G01Y-51998D01*
G01X50307Y-52089D01*
G01X50246Y-52153D01*
G01X50154Y-52183D01*
G01X50060D01*
G01X49966Y-52153D01*
G01X49936Y-52120D01*
G01X49905Y-52059D01*
G01X50642Y-51533D02*
G01X50888Y-52183D01*
G01X51137Y-51533D02*
G01X50888Y-52183D01*
G01X50370Y-46726D02*
G01X50340Y-46662D01*
G01X50276Y-46601D01*
G01X50215Y-46571D01*
G01X50091D01*
G01X50030Y-46601D01*
G01X49966Y-46662D01*
G01X49936Y-46726D01*
G01X49905Y-46817D01*
G01Y-46972D01*
G01X49936Y-47066D01*
G01X49966Y-47127D01*
G01X50030Y-47190D01*
G01X50091Y-47221D01*
G01X50215D01*
G01X50276Y-47190D01*
G01X50340Y-47127D01*
G01X50370Y-47066D01*
G01Y-46972D01*
G01X50215Y-46972D02*
G01X50370Y-46972D01*
G01X50672Y-46571D02*
G01X50672Y-47221D01*
G01X50672Y-46571D02*
G01X51104Y-47221D01*
G01X51104Y-46571D02*
G01X51104Y-47221D01*
G01X51407Y-46571D02*
G01X51407Y-47221D01*
G01X51407Y-46571D02*
G01X51622Y-46571D01*
G01X51714Y-46601D01*
G01X51777Y-46662D01*
G01X51808Y-46726D01*
G01X51838Y-46817D01*
G01Y-46972D01*
G01X51808Y-47066D01*
G01X51777Y-47127D01*
G01X51714Y-47190D01*
G01X51622Y-47221D01*
G01X51407D01*
G01X50276Y-59388D02*
G01X49966Y-59388D01*
G01X49936Y-59665D01*
G01X49966Y-59635D01*
G01X50060Y-59604D01*
G01X50154D01*
G01X50246Y-59635D01*
G01X50307Y-59698D01*
G01X50340Y-59789D01*
G01Y-59853D01*
G01X50307Y-59944D01*
G01X50246Y-60008D01*
G01X50154Y-60038D01*
G01X50060D01*
G01X49966Y-60008D01*
G01X49936Y-59975D01*
G01X49905Y-59914D01*
G01X50642Y-59388D02*
G01X50888Y-60038D01*
G01X51137Y-59388D02*
G01X50888Y-60038D01*
G01X49966Y-56701D02*
G01X50307Y-56701D01*
G01X50121Y-56948D01*
G01X50215D01*
G01X50276Y-56978D01*
G01X50307Y-57011D01*
G01X50340Y-57103D01*
G01Y-57166D01*
G01X50307Y-57257D01*
G01X50246Y-57321D01*
G01X50154Y-57351D01*
G01X50060D01*
G01X49966Y-57321D01*
G01X49936Y-57288D01*
G01X49905Y-57227D01*
G01X50642Y-56701D02*
G01X50888Y-57351D01*
G01X51137Y-56701D02*
G01X50888Y-57351D01*
G01X51501Y-56701D02*
G01X51841Y-56701D01*
G01X51655Y-56948D01*
G01X51747D01*
G01X51810Y-56978D01*
G01X51841Y-57011D01*
G01X51871Y-57103D01*
G01Y-57166D01*
G01X51841Y-57257D01*
G01X51780Y-57321D01*
G01X51686Y-57351D01*
G01X51592D01*
G01X51501Y-57321D01*
G01X51470Y-57288D01*
G01X51440Y-57227D01*
G01X52174Y-57567D02*
G01X52730Y-57567D01*
G01X53279Y-56701D02*
G01X53032Y-57351D01*
G01X53279Y-56701D02*
G01X53527Y-57351D01*
G01X53124Y-57133D02*
G01X53433Y-57133D01*
G01X50370Y-64506D02*
G01X50340Y-64442D01*
G01X50276Y-64381D01*
G01X50215Y-64351D01*
G01X50091D01*
G01X50030Y-64381D01*
G01X49966Y-64442D01*
G01X49936Y-64506D01*
G01X49905Y-64597D01*
G01Y-64752D01*
G01X49936Y-64846D01*
G01X49966Y-64907D01*
G01X50030Y-64970D01*
G01X50091Y-65001D01*
G01X50215D01*
G01X50276Y-64970D01*
G01X50340Y-64907D01*
G01X50370Y-64846D01*
G01Y-64752D01*
G01X50215Y-64752D02*
G01X50370Y-64752D01*
G01X50672Y-64351D02*
G01X50672Y-65001D01*
G01X50672Y-64351D02*
G01X51104Y-65001D01*
G01X51104Y-64351D02*
G01X51104Y-65001D01*
G01X51407Y-64351D02*
G01X51407Y-65001D01*
G01X51407Y-64351D02*
G01X51622Y-64351D01*
G01X51714Y-64381D01*
G01X51777Y-64442D01*
G01X51808Y-64506D01*
G01X51838Y-64597D01*
G01Y-64752D01*
G01X51808Y-64846D01*
G01X51777Y-64907D01*
G01X51714Y-64970D01*
G01X51622Y-65001D01*
G01X51407D01*
G01X49905Y-61869D02*
G01X50154Y-62520D01*
G01X50401Y-61869D02*
G01X50154Y-62520D01*
G01X50703Y-61869D02*
G01X50703Y-62520D01*
G01X50703Y-61869D02*
G01X50980Y-61869D01*
G01X51074Y-61900D01*
G01X51104Y-61930D01*
G01X51135Y-61994D01*
G01Y-62055D01*
G01X51104Y-62116D01*
G01X51074Y-62146D01*
G01X50980Y-62179D01*
G01X50703Y-62179D02*
G01X50980Y-62179D01*
G01X51074Y-62210D01*
G01X51104Y-62240D01*
G01X51135Y-62301D01*
G01Y-62395D01*
G01X51104Y-62456D01*
G01X51074Y-62489D01*
G01X50980Y-62520D01*
G01X50703D01*
G01X51683Y-61869D02*
G01X51437Y-62520D01*
G01X51683Y-61869D02*
G01X51932Y-62520D01*
G01X51528Y-62301D02*
G01X51838Y-62301D01*
G01X52450Y-61869D02*
G01X52450Y-62520D01*
G01X52235Y-61869D02*
G01X52666Y-61869D01*
G01X95780Y-61874D02*
G01X96029Y-62525D01*
G01X96276Y-61874D02*
G01X96029Y-62525D01*
G01X97010Y-61966D02*
G01X96949Y-61905D01*
G01X96855Y-61874D01*
G01X96730D01*
G01X96639Y-61905D01*
G01X96578Y-61966D01*
G01Y-62029D01*
G01X96608Y-62090D01*
G01X96639Y-62121D01*
G01X96700Y-62151D01*
G01X96885Y-62215D01*
G01X96949Y-62245D01*
G01X96979Y-62276D01*
G01X97010Y-62339D01*
G01Y-62431D01*
G01X96949Y-62494D01*
G01X96855Y-62525D01*
G01X96730D01*
G01X96639Y-62494D01*
G01X96578Y-62431D01*
G01X97528Y-61874D02*
G01X97528Y-62525D01*
G01X97312Y-61874D02*
G01X97744Y-61874D01*
G01X98046Y-61874D02*
G01X98046Y-62525D01*
G01X98046Y-61874D02*
G01X98447Y-61874D01*
G01X98046Y-62184D02*
G01X98292Y-62184D01*
G01X98046Y-62525D02*
G01X98447Y-62525D01*
G01X98750Y-61874D02*
G01X98750Y-62525D01*
G01X98750Y-61874D02*
G01X99151Y-61874D01*
G01X98750Y-62184D02*
G01X98996Y-62184D01*
G01X98750Y-62525D02*
G01X99151Y-62525D01*
G01X99453Y-61874D02*
G01X99453Y-62525D01*
G01X99453Y-61874D02*
G01X99730Y-61874D01*
G01X99824Y-61905D01*
G01X99854Y-61935D01*
G01X99885Y-61999D01*
G01Y-62060D01*
G01X99854Y-62121D01*
G01X99824Y-62151D01*
G01X99730Y-62184D01*
G01X99453D01*
G01X99669Y-62184D02*
G01X99885Y-62525D01*
G01X96357Y-56706D02*
G01X96697Y-56706D01*
G01X96512Y-56953D01*
G01X96606D01*
G01X96667Y-56983D01*
G01X96697Y-57016D01*
G01X96730Y-57108D01*
G01Y-57171D01*
G01X96697Y-57263D01*
G01X96636Y-57326D01*
G01X96545Y-57357D01*
G01X96451D01*
G01X96357Y-57326D01*
G01X96326Y-57293D01*
G01X96296Y-57232D01*
G01X97033Y-56706D02*
G01X97279Y-57357D01*
G01X97528Y-56706D02*
G01X97279Y-57357D01*
G01X97891Y-56706D02*
G01X98231Y-56706D01*
G01X98046Y-56953D01*
G01X98137D01*
G01X98201Y-56983D01*
G01X98231Y-57016D01*
G01X98262Y-57108D01*
G01Y-57171D01*
G01X98231Y-57263D01*
G01X98170Y-57326D01*
G01X98076Y-57357D01*
G01X97983D01*
G01X97891Y-57326D01*
G01X97861Y-57293D01*
G01X97830Y-57232D01*
G01X98564Y-57572D02*
G01X99120Y-57572D01*
G01X99669Y-56706D02*
G01X99423Y-57357D01*
G01X99669Y-56706D02*
G01X99918Y-57357D01*
G01X99514Y-57138D02*
G01X99824Y-57138D01*
G01X96357Y-54019D02*
G01X96697Y-54019D01*
G01X96512Y-54266D01*
G01X96606D01*
G01X96667Y-54296D01*
G01X96697Y-54329D01*
G01X96730Y-54421D01*
G01Y-54484D01*
G01X96697Y-54576D01*
G01X96636Y-54639D01*
G01X96545Y-54670D01*
G01X96451D01*
G01X96357Y-54639D01*
G01X96326Y-54606D01*
G01X96296Y-54545D01*
G01X97033Y-54019D02*
G01X97279Y-54670D01*
G01X97528Y-54019D02*
G01X97279Y-54670D01*
G01X97891Y-54019D02*
G01X98231Y-54019D01*
G01X98046Y-54266D01*
G01X98137D01*
G01X98201Y-54296D01*
G01X98231Y-54329D01*
G01X98262Y-54421D01*
G01Y-54484D01*
G01X98231Y-54576D01*
G01X98170Y-54639D01*
G01X98076Y-54670D01*
G01X97983D01*
G01X97891Y-54639D01*
G01X97861Y-54606D01*
G01X97830Y-54545D01*
G01X98564Y-54885D02*
G01X99120Y-54885D01*
G01X99669Y-54019D02*
G01X99423Y-54670D01*
G01X99669Y-54019D02*
G01X99918Y-54670D01*
G01X99514Y-54451D02*
G01X99824Y-54451D01*
G01X97172Y-49057D02*
G01X97421Y-49707D01*
G01X97668Y-49057D02*
G01X97421Y-49707D01*
G01X98216Y-49057D02*
G01X97970Y-49707D01*
G01X98216Y-49057D02*
G01X98465Y-49707D01*
G01X98061Y-49489D02*
G01X98371Y-49489D01*
G01X98767Y-49057D02*
G01X98767Y-49707D01*
G01X98767Y-49057D02*
G01X99044Y-49057D01*
G01X99138Y-49087D01*
G01X99169Y-49118D01*
G01X99199Y-49181D01*
G01Y-49242D01*
G01X99169Y-49303D01*
G01X99138Y-49334D01*
G01X99044Y-49367D01*
G01X98767Y-49367D02*
G01X99044Y-49367D01*
G01X99138Y-49397D01*
G01X99169Y-49428D01*
G01X99199Y-49489D01*
G01Y-49583D01*
G01X99169Y-49644D01*
G01X99138Y-49677D01*
G01X99044Y-49707D01*
G01X98767D01*
G01X99717Y-49057D02*
G01X99717Y-49707D01*
G01X99501Y-49057D02*
G01X99933Y-49057D01*
G01X98483Y-64511D02*
G01X98452Y-64447D01*
G01X98389Y-64386D01*
G01X98328Y-64356D01*
G01X98203D01*
G01X98143Y-64386D01*
G01X98079Y-64447D01*
G01X98049Y-64511D01*
G01X98018Y-64602D01*
G01Y-64757D01*
G01X98049Y-64851D01*
G01X98079Y-64912D01*
G01X98143Y-64975D01*
G01X98203Y-65006D01*
G01X98328D01*
G01X98389Y-64975D01*
G01X98452Y-64912D01*
G01X98483Y-64851D01*
G01Y-64757D01*
G01X98328Y-64757D02*
G01X98483Y-64757D01*
G01X98785Y-64356D02*
G01X98785Y-65006D01*
G01X98785Y-64356D02*
G01X99217Y-65006D01*
G01X99217Y-64356D02*
G01X99217Y-65006D01*
G01X99519Y-64356D02*
G01X99519Y-65006D01*
G01X99519Y-64356D02*
G01X99735Y-64356D01*
G01X99827Y-64386D01*
G01X99890Y-64447D01*
G01X99921Y-64511D01*
G01X99951Y-64602D01*
G01Y-64757D01*
G01X99921Y-64851D01*
G01X99890Y-64912D01*
G01X99827Y-64975D01*
G01X99735Y-65006D01*
G01X99519D01*
G01X98483Y-46731D02*
G01X98452Y-46667D01*
G01X98389Y-46606D01*
G01X98328Y-46576D01*
G01X98203D01*
G01X98143Y-46606D01*
G01X98079Y-46667D01*
G01X98049Y-46731D01*
G01X98018Y-46822D01*
G01Y-46977D01*
G01X98049Y-47071D01*
G01X98079Y-47132D01*
G01X98143Y-47195D01*
G01X98203Y-47226D01*
G01X98328D01*
G01X98389Y-47195D01*
G01X98452Y-47132D01*
G01X98483Y-47071D01*
G01Y-46977D01*
G01X98328Y-46977D02*
G01X98483Y-46977D01*
G01X98785Y-46576D02*
G01X98785Y-47226D01*
G01X98785Y-46576D02*
G01X99217Y-47226D01*
G01X99217Y-46576D02*
G01X99217Y-47226D01*
G01X99519Y-46576D02*
G01X99519Y-47226D01*
G01X99519Y-46576D02*
G01X99735Y-46576D01*
G01X99827Y-46606D01*
G01X99890Y-46667D01*
G01X99921Y-46731D01*
G01X99951Y-46822D01*
G01Y-46977D01*
G01X99921Y-47071D01*
G01X99890Y-47132D01*
G01X99827Y-47195D01*
G01X99735Y-47226D01*
G01X99519D01*
G01X99110Y-51538D02*
G01X98800Y-51538D01*
G01X98770Y-51815D01*
G01X98800Y-51784D01*
G01X98894Y-51754D01*
G01X98988D01*
G01X99080Y-51784D01*
G01X99141Y-51848D01*
G01X99174Y-51939D01*
G01Y-52003D01*
G01X99141Y-52094D01*
G01X99080Y-52158D01*
G01X98988Y-52188D01*
G01X98894D01*
G01X98800Y-52158D01*
G01X98770Y-52125D01*
G01X98739Y-52064D01*
G01X99476Y-51538D02*
G01X99722Y-52188D01*
G01X99971Y-51538D02*
G01X99722Y-52188D01*
G01X99110Y-59393D02*
G01X98800Y-59393D01*
G01X98770Y-59670D01*
G01X98800Y-59640D01*
G01X98894Y-59609D01*
G01X98988D01*
G01X99080Y-59640D01*
G01X99141Y-59703D01*
G01X99174Y-59795D01*
G01Y-59858D01*
G01X99141Y-59949D01*
G01X99080Y-60013D01*
G01X98988Y-60043D01*
G01X98894D01*
G01X98800Y-60013D01*
G01X98770Y-59980D01*
G01X98739Y-59919D01*
G01X99476Y-59393D02*
G01X99722Y-60043D01*
G01X99971Y-59393D02*
G01X99722Y-60043D01*
G04 Text End*

G04 PolygonModel Start*
G54D11*
G01X82169Y-48387D02*
G02X67369Y-48387I-7400J-7400D01*
G54D10*
G01X60859Y-33908D02*
G01X63495Y-33888D01*
G01X63495Y-33888D02*
G01X63495Y-39245D01*
G01X63495Y-39245D02*
G01X62100Y-40640D01*
G01X62100Y-40640D02*
G01X60805Y-40626D01*
G01X59412Y-33894D02*
G01X56743Y-33888D01*
G01X56743Y-33888D02*
G01X56743Y-39244D01*
G01X56743Y-39244D02*
G01X58139Y-40640D01*
G01X58139Y-40640D02*
G01X59433Y-40640D01*
G36*
G01X61538Y-34162D02*
G01X61736Y-34162D01*
G01Y-34954D01*
G01X61538D01*
G01Y-34162D01*
G37*
G36*
G01X61538Y-40366D02*
G01X61736Y-40366D01*
G01Y-39574D01*
G01X61538D01*
G01Y-40366D01*
G37*
G36*
G01X60977Y-40069D02*
G01X62297Y-40069D01*
G01Y-39871D01*
G01X60977D01*
G01Y-40069D01*
G37*
G01X66070Y-39501D02*
G01X66070Y-38091D01*
G01X64263Y-38091D02*
G01X64263Y-39501D01*
G01X64415Y-39654D02*
G01X65917Y-39654D01*
G01X66070Y-35879D02*
G01X66070Y-37289D01*
G01X64263Y-37289D02*
G01X64263Y-35879D01*
G01X64415Y-35727D02*
G01X65917Y-35727D01*
G01X64263Y-39501D02*
G03X64415Y-39654I152J0D01*
G01X65917Y-39654D02*
G03X66070Y-39501I0J152D01*
G01X64263Y-35879D02*
G02X64415Y-35727I152J0D01*
G01X65917Y-35727D02*
G02X66070Y-35879I0J-152D01*
G01X68116Y-39501D02*
G01X68116Y-38091D01*
G01X66308Y-38091D02*
G01X66308Y-39501D01*
G01X66461Y-39654D02*
G01X67963Y-39654D01*
G01X68116Y-35879D02*
G01X68116Y-37289D01*
G01X66308Y-37289D02*
G01X66308Y-35879D01*
G01X66461Y-35727D02*
G01X67963Y-35727D01*
G01X66308Y-39501D02*
G03X66461Y-39654I152J0D01*
G01X67963Y-39654D02*
G03X68116Y-39501I0J152D01*
G01X66308Y-35879D02*
G02X66461Y-35727I152J0D01*
G01X67963Y-35727D02*
G02X68116Y-35879I0J-152D01*
G01X71156Y-42954D02*
G01X72441Y-42954D01*
G01X72441Y-42954D02*
G01X72441Y-41120D01*
G01X72441Y-41120D02*
G01X71156Y-41120D01*
G01X70204Y-42954D02*
G01X68919Y-42954D01*
G01X68919Y-42954D02*
G01X68919Y-41120D01*
G01X68919Y-41120D02*
G01X70204Y-41120D01*
G01X72491Y-37069D02*
G01X71081Y-37069D01*
G01X71081Y-38877D02*
G01X72491Y-38877D01*
G01X72644Y-38724D02*
G01X72644Y-37222D01*
G01X68869Y-37069D02*
G01X70279Y-37069D01*
G01X70279Y-38877D02*
G01X68869Y-38877D01*
G01X68717Y-38724D02*
G01X68717Y-37222D01*
G01X72491Y-38877D02*
G03X72644Y-38724I0J152D01*
G01X72644Y-37222D02*
G03X72491Y-37069I-152J0D01*
G01X68869Y-38877D02*
G02X68717Y-38724I0J152D01*
G01X68717Y-37222D02*
G02X68869Y-37069I152J0D01*
G54D11*
G01X85647Y-36725D02*
G01X85647Y-30125D01*
G01X79047Y-36725D02*
G01X79047Y-30125D01*
G01X79047Y-30125D02*
G01X80366Y-30125D01*
G01X84328Y-36725D02*
G01X85647Y-36725D01*
G01X79047Y-36725D02*
G01X80366Y-36725D01*
G01X84328Y-30125D02*
G01X85647Y-30125D01*
G54D10*
G01X66725Y-30355D02*
G01X66725Y-31840D01*
G01X68911Y-31840D02*
G01X68911Y-30355D01*
G01X68758Y-30202D02*
G01X66878Y-30202D01*
G01X66725Y-35177D02*
G01X66725Y-33692D01*
G01X68911Y-33692D02*
G01X68911Y-35177D01*
G01X68758Y-35330D02*
G01X66878Y-35330D01*
G01X68911Y-30355D02*
G03X68758Y-30202I-152J0D01*
G01X66878Y-30202D02*
G03X66725Y-30355I0J-152D01*
G01X68911Y-35177D02*
G02X68758Y-35330I-152J0D01*
G01X66878Y-35330D02*
G02X66725Y-35177I0J152D01*
G01X82896Y-42163D02*
G01X84181Y-42163D01*
G01X84181Y-42163D02*
G01X84181Y-40329D01*
G01X84181Y-40329D02*
G01X82896Y-40329D01*
G01X81944Y-42163D02*
G01X80659Y-42163D01*
G01X80659Y-42163D02*
G01X80659Y-40329D01*
G01X80659Y-40329D02*
G01X81944Y-40329D01*
G01X72540Y-35614D02*
G01X69903Y-35634D01*
G01X69903Y-35634D02*
G01X69903Y-30277D01*
G01X69903Y-30277D02*
G01X71298Y-28882D01*
G01X71298Y-28882D02*
G01X72593Y-28896D01*
G01X73987Y-35627D02*
G01X76655Y-35634D01*
G01X76655Y-35634D02*
G01X76655Y-30278D01*
G01X76655Y-30278D02*
G01X75259Y-28882D01*
G01X75259Y-28882D02*
G01X73965Y-28882D01*
G36*
G01X71860Y-35360D02*
G01X71662Y-35360D01*
G01Y-34568D01*
G01X71860D01*
G01Y-35360D01*
G37*
G36*
G01X71860Y-29156D02*
G01X71662Y-29156D01*
G01Y-29948D01*
G01X71860D01*
G01Y-29156D01*
G37*
G36*
G01X72421Y-29453D02*
G01X71101Y-29453D01*
G01Y-29651D01*
G01X72421D01*
G01Y-29453D01*
G37*
G01X78093Y-26769D02*
G01X76808Y-26769D01*
G01X76808Y-26769D02*
G01X76808Y-28603D01*
G01X76808Y-28603D02*
G01X78093Y-28603D01*
G01X79045Y-26769D02*
G01X80330Y-26769D01*
G01X80330Y-26769D02*
G01X80330Y-28603D01*
G01X80330Y-28603D02*
G01X79045Y-28603D01*
G54D11*
G01X92747Y-28143D02*
G01X92747Y-37643D01*
G01X91567Y-30089D02*
G01X91948Y-30089D01*
G01X91948Y-30089D02*
G01X92329Y-30089D01*
G01X92329Y-30089D02*
G01X91948Y-30089D01*
G01X92747Y-28143D02*
G01X87847Y-28143D01*
G01X87847Y-28143D02*
G01X87797Y-28143D01*
G01X87797Y-28143D02*
G01X87797Y-28638D01*
G01X87797Y-28638D02*
G01X88297Y-28638D01*
G01X88297Y-28638D02*
G01X88297Y-37148D01*
G01X88297Y-37148D02*
G01X87797Y-37148D01*
G01X87797Y-37148D02*
G01X87797Y-37648D01*
G01X87797Y-37648D02*
G01X87847Y-37648D01*
G01X87847Y-37648D02*
G01X92747Y-37648D01*
G01X92486Y-30089D02*
G03X92486Y-30099I-539J-5D01*
G01X78350Y-37380D02*
G01X78350Y-42480D01*
G01X78350Y-42480D02*
G01X74250Y-42480D01*
G01X74250Y-42480D02*
G01X74250Y-37380D01*
G01X77100Y-37380D02*
G01X78350Y-37380D01*
G01X75500Y-37380D02*
G01X74250Y-37380D01*
G01X77100Y-37430D02*
G02X75500Y-37430I-800J375D01*
G54D10*
G01X68116Y-54643D02*
G01X68116Y-53233D01*
G01X66308Y-53233D02*
G01X66308Y-54643D01*
G01X66461Y-54796D02*
G01X67963Y-54796D01*
G01X68116Y-51021D02*
G01X68116Y-52431D01*
G01X66308Y-52431D02*
G01X66308Y-51021D01*
G01X66461Y-50868D02*
G01X67963Y-50868D01*
G01X66308Y-54643D02*
G03X66461Y-54796I152J0D01*
G01X67963Y-54796D02*
G03X68116Y-54643I0J152D01*
G01X66308Y-51021D02*
G02X66461Y-50868I152J0D01*
G01X67963Y-50868D02*
G02X68116Y-51021I0J-152D01*
G01X72250Y-57096D02*
G01X70840Y-57096D01*
G01X70840Y-58903D02*
G01X72250Y-58903D01*
G01X72403Y-58751D02*
G01X72403Y-57248D01*
G01X68628Y-57096D02*
G01X70038Y-57096D01*
G01X70038Y-58903D02*
G01X68628Y-58903D01*
G01X68475Y-58751D02*
G01X68475Y-57248D01*
G01X72250Y-58903D02*
G03X72403Y-58751I0J152D01*
G01X72403Y-57248D02*
G03X72250Y-57096I-152J0D01*
G01X68628Y-58903D02*
G02X68475Y-58751I0J152D01*
G01X68475Y-57248D02*
G02X68628Y-57096I152J0D01*
G01X82637Y-54869D02*
G01X82637Y-53459D01*
G01X80830Y-53459D02*
G01X80830Y-54869D01*
G01X80982Y-55021D02*
G01X82484Y-55021D01*
G01X82637Y-51246D02*
G01X82637Y-52656D01*
G01X80830Y-52656D02*
G01X80830Y-51246D01*
G01X80982Y-51094D02*
G01X82484Y-51094D01*
G01X80830Y-54869D02*
G03X80982Y-55021I152J0D01*
G01X82484Y-55021D02*
G03X82637Y-54869I0J152D01*
G01X80830Y-51246D02*
G02X80982Y-51094I152J0D01*
G01X82484Y-51094D02*
G02X82637Y-51246I0J-152D01*
G01X73101Y-58903D02*
G01X74511Y-58903D01*
G01X74511Y-57096D02*
G01X73101Y-57096D01*
G01X72948Y-57248D02*
G01X72948Y-58751D01*
G01X76723Y-58903D02*
G01X75313Y-58903D01*
G01X75313Y-57096D02*
G01X76723Y-57096D01*
G01X76876Y-57248D02*
G01X76876Y-58751D01*
G01X73101Y-57096D02*
G03X72948Y-57248I0J-152D01*
G01X72948Y-58751D02*
G03X73101Y-58903I152J0D01*
G01X76723Y-57096D02*
G02X76876Y-57248I0J-152D01*
G01X76876Y-58751D02*
G02X76723Y-58903I-152J0D01*
G01X76495Y-56589D02*
G01X79148Y-56589D01*
G01X79148Y-56589D02*
G01X79148Y-55440D01*
G01X76495Y-51937D02*
G01X79148Y-51937D01*
G01X79148Y-51937D02*
G01X79148Y-53086D01*
G01X70549Y-56485D02*
G01X73201Y-56485D01*
G01X73201Y-56485D02*
G01X73201Y-55336D01*
G01X70549Y-51832D02*
G01X73201Y-51832D01*
G01X73201Y-51832D02*
G01X73201Y-52981D01*
G54D11*
G01X35937Y-67134D02*
G01X34268Y-67164D01*
G01X34268Y-67164D02*
G01X34327Y-77294D01*
G01X34327Y-77294D02*
G01X35869Y-77294D01*
G01X46228Y-70690D02*
G01X45466Y-70690D01*
G01X45466Y-70690D02*
G01X45466Y-71071D01*
G01X45466Y-71071D02*
G01X43434Y-71071D01*
G01X43434Y-71071D02*
G01X43434Y-73484D01*
G01X43434Y-73484D02*
G01X45466Y-73484D01*
G01X45466Y-73484D02*
G01X45466Y-73738D01*
G01X45466Y-73738D02*
G01X46228Y-73738D01*
G01X46101Y-75643D02*
G01X45466Y-75643D01*
G01X45466Y-75643D02*
G01X45466Y-76024D01*
G01X45466Y-76024D02*
G01X43434Y-76024D01*
G01X43434Y-76024D02*
G01X43434Y-77294D01*
G01X43434Y-77294D02*
G01X42465Y-77294D01*
G01X46101Y-68785D02*
G01X45466Y-68785D01*
G01X45466Y-68785D02*
G01X45466Y-68404D01*
G01X45466Y-68404D02*
G01X43561Y-68404D01*
G01X43561Y-68404D02*
G01X43561Y-67134D01*
G01X43561Y-67134D02*
G01X42465Y-67134D01*
G01X38468Y-77294D02*
G01X42465Y-77294D01*
G01X38468Y-67134D02*
G01X42465Y-67134D01*
G01X38859Y-78864D02*
G01X35868Y-78864D01*
G01X38833Y-65564D02*
G01X35938Y-65564D01*
G01X35868Y-77294D02*
G01X35868Y-78864D01*
G01X35938Y-65564D02*
G01X35938Y-67134D01*
G01X38859Y-77294D02*
G01X38859Y-78864D01*
G01X38833Y-65564D02*
G01X38833Y-67134D01*
G54D10*
G01X64019Y-71513D02*
G01X64019Y-72923D01*
G01X65827Y-72923D02*
G01X65827Y-71513D01*
G01X65674Y-71361D02*
G01X64172Y-71361D01*
G01X64019Y-75135D02*
G01X64019Y-73725D01*
G01X65827Y-73725D02*
G01X65827Y-75135D01*
G01X65674Y-75288D02*
G01X64172Y-75288D01*
G01X65827Y-71513D02*
G03X65674Y-71361I-152J0D01*
G01X64172Y-71361D02*
G03X64019Y-71513I0J-152D01*
G01X65827Y-75135D02*
G02X65674Y-75288I-152J0D01*
G01X64172Y-75288D02*
G02X64019Y-75135I0J152D01*
G01X66008Y-71513D02*
G01X66008Y-72923D01*
G01X67816Y-72923D02*
G01X67816Y-71513D01*
G01X67663Y-71361D02*
G01X66161Y-71361D01*
G01X66008Y-75135D02*
G01X66008Y-73725D01*
G01X67816Y-73725D02*
G01X67816Y-75135D01*
G01X67663Y-75288D02*
G01X66161Y-75288D01*
G01X67816Y-71513D02*
G03X67663Y-71361I-152J0D01*
G01X66161Y-71361D02*
G03X66008Y-71513I0J-152D01*
G01X67816Y-75135D02*
G02X67663Y-75288I-152J0D01*
G01X66161Y-75288D02*
G02X66008Y-75135I0J152D01*
G01X67998Y-71513D02*
G01X67998Y-72923D01*
G01X69805Y-72923D02*
G01X69805Y-71513D01*
G01X69652Y-71361D02*
G01X68150Y-71361D01*
G01X67998Y-75135D02*
G01X67998Y-73725D01*
G01X69805Y-73725D02*
G01X69805Y-75135D01*
G01X69652Y-75288D02*
G01X68150Y-75288D01*
G01X69805Y-71513D02*
G03X69652Y-71361I-152J0D01*
G01X68150Y-71361D02*
G03X67998Y-71513I0J-152D01*
G01X69805Y-75135D02*
G02X69652Y-75288I-152J0D01*
G01X68150Y-75288D02*
G02X67998Y-75135I0J152D01*
G01X69679Y-79453D02*
G01X69679Y-78043D01*
G01X67872Y-78043D02*
G01X67872Y-79453D01*
G01X68025Y-79606D02*
G01X69527Y-79606D01*
G01X69679Y-75831D02*
G01X69679Y-77241D01*
G01X67872Y-77241D02*
G01X67872Y-75831D01*
G01X68025Y-75679D02*
G01X69527Y-75679D01*
G01X67872Y-79453D02*
G03X68025Y-79606I152J0D01*
G01X69527Y-79606D02*
G03X69679Y-79453I0J152D01*
G01X67872Y-75831D02*
G02X68025Y-75679I152J0D01*
G01X69527Y-75679D02*
G02X69679Y-75831I0J-152D01*
G01X67690Y-79453D02*
G01X67690Y-78043D01*
G01X65883Y-78043D02*
G01X65883Y-79453D01*
G01X66036Y-79606D02*
G01X67538Y-79606D01*
G01X67690Y-75831D02*
G01X67690Y-77241D01*
G01X65883Y-77241D02*
G01X65883Y-75831D01*
G01X66036Y-75679D02*
G01X67538Y-75679D01*
G01X65883Y-79453D02*
G03X66036Y-79606I152J0D01*
G01X67538Y-79606D02*
G03X67690Y-79453I0J152D01*
G01X65883Y-75831D02*
G02X66036Y-75679I152J0D01*
G01X67538Y-75679D02*
G02X67690Y-75831I0J-152D01*
G01X65701Y-79453D02*
G01X65701Y-78043D01*
G01X63894Y-78043D02*
G01X63894Y-79453D01*
G01X64046Y-79606D02*
G01X65549Y-79606D01*
G01X65701Y-75831D02*
G01X65701Y-77241D01*
G01X63894Y-77241D02*
G01X63894Y-75831D01*
G01X64046Y-75679D02*
G01X65549Y-75679D01*
G01X63894Y-79453D02*
G03X64046Y-79606I152J0D01*
G01X65549Y-79606D02*
G03X65701Y-79453I0J152D01*
G01X63894Y-75831D02*
G02X64046Y-75679I152J0D01*
G01X65549Y-75679D02*
G02X65701Y-75831I0J-152D01*
G01X70821Y-74835D02*
G01X72231Y-74835D01*
G01X72231Y-73028D02*
G01X70821Y-73028D01*
G01X70669Y-73181D02*
G01X70669Y-74683D01*
G01X74444Y-74835D02*
G01X73034Y-74835D01*
G01X73034Y-73028D02*
G01X74444Y-73028D01*
G01X74596Y-73181D02*
G01X74596Y-74683D01*
G01X70821Y-73028D02*
G03X70669Y-73181I0J-152D01*
G01X70669Y-74683D02*
G03X70821Y-74835I152J0D01*
G01X74444Y-73028D02*
G02X74596Y-73181I0J-152D01*
G01X74596Y-74683D02*
G02X74444Y-74835I-152J0D01*
G01X84801Y-76740D02*
G01X83516Y-76740D01*
G01X83516Y-76740D02*
G01X83516Y-78574D01*
G01X83516Y-78574D02*
G01X84801Y-78574D01*
G01X85754Y-76740D02*
G01X87039Y-76740D01*
G01X87039Y-76740D02*
G01X87039Y-78574D01*
G01X87039Y-78574D02*
G01X85754Y-78574D01*
G01X73530Y-66526D02*
G01X73530Y-67936D01*
G01X75337Y-67936D02*
G01X75337Y-66526D01*
G01X75185Y-66374D02*
G01X73683Y-66374D01*
G01X73530Y-70149D02*
G01X73530Y-68739D01*
G01X75337Y-68739D02*
G01X75337Y-70149D01*
G01X75185Y-70301D02*
G01X73683Y-70301D01*
G01X75337Y-66526D02*
G03X75185Y-66374I-152J0D01*
G01X73683Y-66374D02*
G03X73530Y-66526I0J-152D01*
G01X75337Y-70149D02*
G02X75185Y-70301I-152J0D01*
G01X73683Y-70301D02*
G02X73530Y-70149I0J152D01*
G01X79480Y-66526D02*
G01X79480Y-67936D01*
G01X81287Y-67936D02*
G01X81287Y-66526D01*
G01X81134Y-66374D02*
G01X79632Y-66374D01*
G01X79480Y-70149D02*
G01X79480Y-68739D01*
G01X81287Y-68739D02*
G01X81287Y-70149D01*
G01X81134Y-70301D02*
G01X79632Y-70301D01*
G01X81287Y-66526D02*
G03X81134Y-66374I-152J0D01*
G01X79632Y-66374D02*
G03X79480Y-66526I0J-152D01*
G01X81287Y-70149D02*
G02X81134Y-70301I-152J0D01*
G01X79632Y-70301D02*
G02X79480Y-70149I0J152D01*
G01X75513Y-66526D02*
G01X75513Y-67936D01*
G01X77321Y-67936D02*
G01X77321Y-66526D01*
G01X77168Y-66374D02*
G01X75666Y-66374D01*
G01X75513Y-70149D02*
G01X75513Y-68739D01*
G01X77321Y-68739D02*
G01X77321Y-70149D01*
G01X77168Y-70301D02*
G01X75666Y-70301D01*
G01X77321Y-66526D02*
G03X77168Y-66374I-152J0D01*
G01X75666Y-66374D02*
G03X75513Y-66526I0J-152D01*
G01X77321Y-70149D02*
G02X77168Y-70301I-152J0D01*
G01X75666Y-70301D02*
G02X75513Y-70149I0J152D01*
G01X77496Y-66526D02*
G01X77496Y-67936D01*
G01X79304Y-67936D02*
G01X79304Y-66526D01*
G01X79151Y-66374D02*
G01X77649Y-66374D01*
G01X77496Y-70149D02*
G01X77496Y-68739D01*
G01X79304Y-68739D02*
G01X79304Y-70149D01*
G01X79151Y-70301D02*
G01X77649Y-70301D01*
G01X79304Y-66526D02*
G03X79151Y-66374I-152J0D01*
G01X77649Y-66374D02*
G03X77496Y-66526I0J-152D01*
G01X79304Y-70149D02*
G02X79151Y-70301I-152J0D01*
G01X77649Y-70301D02*
G02X77496Y-70149I0J152D01*
G01X93244Y-76184D02*
G01X93244Y-75225D01*
G01X93244Y-75225D02*
G01X91922Y-75225D01*
G01X91922Y-75225D02*
G01X91922Y-76184D01*
G01X93244Y-77037D02*
G01X93244Y-77995D01*
G01X93244Y-77995D02*
G01X91922Y-77995D01*
G01X91922Y-77995D02*
G01X91922Y-77037D01*
G01X89763Y-77037D02*
G01X89763Y-77995D01*
G01X89763Y-77995D02*
G01X91085Y-77995D01*
G01X91085Y-77995D02*
G01X91085Y-77037D01*
G01X89763Y-76184D02*
G01X89763Y-75225D01*
G01X89763Y-75225D02*
G01X91085Y-75225D01*
G01X91085Y-75225D02*
G01X91085Y-76184D01*
G54D11*
G01X80376Y-73757D02*
G01X80376Y-78857D01*
G01X80376Y-78857D02*
G01X76276Y-78857D01*
G01X76276Y-78857D02*
G01X76276Y-73757D01*
G01X79126Y-73757D02*
G01X80376Y-73757D01*
G01X77526Y-73757D02*
G01X76276Y-73757D01*
G01X79126Y-73807D02*
G02X77526Y-73807I-800J375D01*
G01X88577Y-73912D02*
G01X88577Y-67312D01*
G01X81977Y-73912D02*
G01X81977Y-67312D01*
G01X81977Y-67312D02*
G01X83296Y-67312D01*
G01X87259Y-73912D02*
G01X88577Y-73912D01*
G01X81977Y-73912D02*
G01X83296Y-73912D01*
G01X87259Y-67312D02*
G01X88577Y-67312D01*
G54D10*
G01X87856Y-40862D02*
G01X87856Y-42147D01*
G01X87856Y-42147D02*
G01X89690Y-42147D01*
G01X89690Y-42147D02*
G01X89690Y-40862D01*
G01X87856Y-39910D02*
G01X87856Y-38625D01*
G01X87856Y-38625D02*
G01X89690Y-38625D01*
G01X89690Y-38625D02*
G01X89690Y-39910D01*
G54D11*
G01X72819Y-90944D02*
G01X72819Y-88944D01*
G01X62919Y-90944D02*
G01X62919Y-88944D01*
G01X74619Y-88944D02*
G01X72819Y-88944D01*
G01X74053Y-86944D02*
G01X74619Y-86944D01*
G01X74619Y-86944D02*
G01X74619Y-88944D01*
G01X61119Y-88944D02*
G01X62919Y-88944D01*
G01X61119Y-86944D02*
G01X61119Y-88944D01*
G01X61685Y-86944D02*
G01X61119Y-86944D01*
G01X69369Y-84994D02*
G01X69369Y-83997D01*
G01X71369Y-84994D02*
G01X71369Y-84047D01*
G01X69119Y-84994D02*
G01X71619Y-84994D01*
G01X71619Y-86944D02*
G01X71619Y-84994D01*
G01X69119Y-86944D02*
G01X69119Y-84994D01*
G01X64369Y-84994D02*
G01X64369Y-83997D01*
G01X66369Y-84994D02*
G01X66369Y-84047D01*
G01X64119Y-84994D02*
G01X66619Y-84994D01*
G01X66619Y-86944D02*
G01X66619Y-84994D01*
G01X64119Y-86944D02*
G01X64119Y-84994D01*
G01X63053Y-86944D02*
G01X72686Y-86944D01*
G01X72819Y-90944D02*
G01X62919Y-90944D01*
G01X72369Y-96944D02*
G01X72369Y-90944D01*
G01X63369Y-96944D02*
G01X63369Y-90944D01*
G01X63369Y-96944D02*
G01X72369Y-96944D01*
G01X88516Y-90944D02*
G01X88516Y-88944D01*
G01X78616Y-90944D02*
G01X78616Y-88944D01*
G01X90316Y-88944D02*
G01X88516Y-88944D01*
G01X89750Y-86944D02*
G01X90316Y-86944D01*
G01X90316Y-86944D02*
G01X90316Y-88944D01*
G01X76816Y-88944D02*
G01X78616Y-88944D01*
G01X76816Y-86944D02*
G01X76816Y-88944D01*
G01X77382Y-86944D02*
G01X76816Y-86944D01*
G01X85066Y-84994D02*
G01X85066Y-83997D01*
G01X87066Y-84994D02*
G01X87066Y-84047D01*
G01X84816Y-84994D02*
G01X87316Y-84994D01*
G01X87316Y-86944D02*
G01X87316Y-84994D01*
G01X84816Y-86944D02*
G01X84816Y-84994D01*
G01X80066Y-84994D02*
G01X80066Y-83997D01*
G01X82066Y-84994D02*
G01X82066Y-84047D01*
G01X79816Y-84994D02*
G01X82316Y-84994D01*
G01X82316Y-86944D02*
G01X82316Y-84994D01*
G01X79816Y-86944D02*
G01X79816Y-84994D01*
G01X78750Y-86944D02*
G01X88382Y-86944D01*
G01X88516Y-90944D02*
G01X78616Y-90944D01*
G01X88066Y-96944D02*
G01X88066Y-90944D01*
G01X79066Y-96944D02*
G01X79066Y-90944D01*
G01X79066Y-96944D02*
G01X88066Y-96944D01*
G54D10*
G01X74512Y-78431D02*
G01X74512Y-77146D01*
G01X74512Y-77146D02*
G01X72677Y-77146D01*
G01X72677Y-77146D02*
G01X72677Y-78431D01*
G01X74512Y-79383D02*
G01X74512Y-80668D01*
G01X74512Y-80668D02*
G01X72677Y-80668D01*
G01X72677Y-80668D02*
G01X72677Y-79383D01*
G54D11*
G01X47259Y-46156D02*
G01X47259Y-45373D01*
G01X47259Y-48696D02*
G01X47259Y-47638D01*
G01X47259Y-51236D02*
G01X47259Y-50178D01*
G01X47259Y-53776D02*
G01X47259Y-52718D01*
G01X47259Y-56316D02*
G01X47259Y-55258D01*
G01X47259Y-58856D02*
G01X47259Y-57798D01*
G01X47259Y-61396D02*
G01X47259Y-60338D01*
G01X47259Y-63936D02*
G01X47259Y-62878D01*
G01X47259Y-66201D02*
G01X47259Y-65418D01*
G01X42179Y-46156D02*
G01X42179Y-45373D01*
G01X42179Y-48696D02*
G01X42179Y-47638D01*
G01X42179Y-51236D02*
G01X42179Y-50178D01*
G01X42179Y-53776D02*
G01X42179Y-52718D01*
G01X42179Y-56316D02*
G01X42179Y-55258D01*
G01X42179Y-58856D02*
G01X42179Y-57798D01*
G01X42179Y-61396D02*
G01X42179Y-60338D01*
G01X42179Y-63936D02*
G01X42179Y-62878D01*
G01X42179Y-66201D02*
G01X42179Y-65418D01*
G01X47259Y-45373D02*
G01X42179Y-45373D01*
G01X42179Y-66201D02*
G01X47259Y-66201D01*
G01X102279Y-65418D02*
G01X102279Y-66201D01*
G01X102279Y-62878D02*
G01X102279Y-63936D01*
G01X102279Y-60338D02*
G01X102279Y-61396D01*
G01X102279Y-57798D02*
G01X102279Y-58856D01*
G01X102279Y-55258D02*
G01X102279Y-56316D01*
G01X102279Y-52718D02*
G01X102279Y-53776D01*
G01X102279Y-50178D02*
G01X102279Y-51236D01*
G01X102279Y-47638D02*
G01X102279Y-48696D01*
G01X102279Y-45373D02*
G01X102279Y-46156D01*
G01X107359Y-65418D02*
G01X107359Y-66201D01*
G01X107359Y-62878D02*
G01X107359Y-63936D01*
G01X107359Y-60338D02*
G01X107359Y-61396D01*
G01X107359Y-57798D02*
G01X107359Y-58856D01*
G01X107359Y-55258D02*
G01X107359Y-56316D01*
G01X107359Y-52718D02*
G01X107359Y-53776D01*
G01X107359Y-50178D02*
G01X107359Y-51236D01*
G01X107359Y-47638D02*
G01X107359Y-48696D01*
G01X107359Y-45373D02*
G01X107359Y-46156D01*
G01X102279Y-66201D02*
G01X107359Y-66201D01*
G01X107359Y-45373D02*
G01X102279Y-45373D01*
G54D10*
G01X85014Y-38442D02*
G01X85014Y-39852D01*
G01X86821Y-39852D02*
G01X86821Y-38442D01*
G01X86669Y-38290D02*
G01X85166Y-38290D01*
G01X85014Y-42065D02*
G01X85014Y-40655D01*
G01X86821Y-40655D02*
G01X86821Y-42065D01*
G01X86669Y-42217D02*
G01X85166Y-42217D01*
G01X86821Y-38442D02*
G03X86669Y-38290I-152J0D01*
G01X85166Y-38290D02*
G03X85014Y-38442I0J-152D01*
G01X86821Y-42065D02*
G02X86669Y-42217I-152J0D01*
G01X85166Y-42217D02*
G02X85014Y-42065I0J152D01*
G01X87362Y-74799D02*
G01X87362Y-76209D01*
G01X89169Y-76209D02*
G01X89169Y-74799D01*
G01X89017Y-74647D02*
G01X87514Y-74647D01*
G01X87362Y-78422D02*
G01X87362Y-77012D01*
G01X89169Y-77012D02*
G01X89169Y-78422D01*
G01X89017Y-78574D02*
G01X87514Y-78574D01*
G01X89169Y-74799D02*
G03X89017Y-74647I-152J0D01*
G01X87514Y-74647D02*
G03X87362Y-74799I0J-152D01*
G01X89169Y-78422D02*
G02X89017Y-78574I-152J0D01*
G01X87514Y-78574D02*
G02X87362Y-78422I0J152D01*
G54D11*
G01X31262Y-81915D02*
G01X31262Y-85852D01*
G01X30754Y-81915D02*
G01X30754Y-85852D01*
G01X30226Y-85852D02*
G01X30226Y-81952D01*
G01X35224Y-85852D02*
G01X30224Y-85852D01*
G01X44293Y-90626D02*
G01X42799Y-90626D01*
G01X44293Y-85826D02*
G01X42799Y-85826D01*
G01X44293Y-81026D02*
G01X42799Y-81026D01*
G01X42579Y-92202D02*
G01X35224Y-92202D01*
G01X42630Y-79502D02*
G01X35224Y-79502D01*
G01X35224Y-81915D02*
G01X30224Y-81915D01*
G01X35224Y-79502D02*
G01X35224Y-92202D01*
G01X42624Y-92202D02*
G01X42624Y-79502D01*
G04 PolygonModel End*

G04 Rect Start*
G01X39116Y-88900D02*
G01X37719Y-88900D01*
G01Y-91313D01*
G01X39116D01*
G01Y-88900D01*
G01X39116Y-80391D02*
G01X37719Y-80391D01*
G01Y-82804D01*
G01X39116D01*
G01Y-80391D01*
G04 Rect End*

G04 Circle Start*
G01X73630Y-36900D02*
G03X73970Y-36900I170J0D01*
G03X73630I-170J0D01*
G01X75656Y-73277D02*
G03X75996Y-73277I170J0D01*
G03X75656I-170J0D01*
G01X47968Y-66074D02*
G03X48328Y-66074I180J0D01*
G03X47968I-180J0D01*
G01X101210Y-45500D02*
G03X101570Y-45500I180J0D01*
G03X101210I-180J0D01*
G04 Circle End*

M02*
