G04 Layer: BottomLayer*
G04 EasyEDA Pro v2.1.21.9b64d12f.b3811b, 2024-07-11 20:19:00*
G04 Gerber Generator version 0.3*
G04 Scale: 100 percent, Rotated: No, Reflected: No*
G04 Dimensions in millimeters*
G04 Leading zeros omitted, absolute positions, 3 integers and 3 decimals*
%FSLAX33Y33*%
%MOMM*%
%ADD8191C,0.203*%
%ADD10C,1.016*%
%ADD11C,1.524*%
%ADD12C,2.5*%
%ADD13C,1.8*%
%ADD14C,4.5*%
%ADD15O,2.9X1.7*%
%ADD16C,0.61*%
%ADD17C,0.2040*%
%ADD18C,0.203*%
G75*


G04 Copper Start*
G36*
G01X38151Y-92098D02*
G02X35969Y-89916I0J2182D01*
G01Y-28956D01*
G02X38151Y-26774I2182J0D01*
G01X111938D01*
G02X114120Y-28956I0J-2182D01*
G01Y-89916D01*
G02X111938Y-92098I-2182J0D01*
G01X38151D01*
G37*
%LPC*%
G36*
G01X90921Y-63787D02*
G03X91174Y-63892I253J253D01*
G01X109536D01*
G03X109789Y-63787I0J358D01*
G01X111138Y-62438D01*
G03X111243Y-62185I-253J253D01*
G01Y-60594D01*
G03X111138Y-60341I-358J0D01*
G01X109086Y-58288D01*
G03X108833Y-58184I-253J-253D01*
G01X93968D01*
G01X90011Y-54227D01*
G01Y-38403D01*
G03X89906Y-38150I-358J0D01*
G01X79098Y-27342D01*
G03X78845Y-27237I-253J-253D01*
G01X57774D01*
G03X57521Y-27342I0J-358D01*
G01X56929Y-27934D01*
G03X56824Y-28188I253J-253D01*
G01Y-30918D01*
G03X56929Y-31171I358J0D01*
G01X58348Y-32590D01*
G03X58601Y-32695I253J253D01*
G01X75829D01*
G01X85036Y-41902D01*
G01Y-57754D01*
G03X85141Y-58007I358J0D01*
G01X90921Y-63787D01*
G37*
G36*
G01X54103Y-87248D02*
G03X54356Y-87353I253J253D01*
G01X58928D01*
G03X59181Y-87248I0J358D01*
G01X61086Y-85343D01*
G03X61191Y-85090I-253J253D01*
G01Y-53742D01*
G01X64007Y-50926D01*
G03X64112Y-50673I-253J253D01*
G01Y-47265D01*
G01X67174Y-44203D01*
G03X67279Y-43950I-253J253D01*
G01Y-42443D01*
G03X67174Y-42190I-358J0D01*
G01X66387Y-41403D01*
G03X66134Y-41298I-253J-253D01*
G01X57788D01*
G03X57534Y-41403I0J-358D01*
G01X55627Y-43310D01*
G03X55522Y-43564I253J-253D01*
G01Y-71734D01*
G01X54462Y-72794D01*
G01X52959D01*
G03X52706Y-72899I0J-358D01*
G01X50801Y-74804D01*
G03X50696Y-75057I253J-253D01*
G01Y-83693D01*
G03X50801Y-83946I358J0D01*
G01X54103Y-87248D01*
G37*
G36*
G01X80572Y-74402D02*
G03X81234Y-75065I663J0D01*
G03X81897Y-74402I0J663D01*
G03X81740Y-73973I-663J0D01*
G01Y-73787D01*
G03X81605Y-73462I-460J0D01*
G01X80335Y-72192D01*
G03X80010Y-72057I-325J-325D01*
G01X72967D01*
G03X72642Y-72192I0J-460D01*
G01X71545Y-73289D01*
G01X71532D01*
G03X70869Y-73952I0J-663D01*
G03X71532Y-74615I663J0D01*
G03X72195Y-73952I0J663D01*
G01Y-73939D01*
G01X73158Y-72977D01*
G01X79820D01*
G01X80771Y-73928D01*
G03X80572Y-74402I464J-474D01*
G37*
G36*
G01X79561Y-48387D02*
G03X82169Y-50995I2608J0D01*
G03X84777Y-48387I0J2608D01*
G03X82169Y-45779I-2608J0D01*
G03X79561Y-48387I0J-2608D01*
G37*
G36*
G01X82169Y-65795D02*
G03X84777Y-63187I0J2608D01*
G03X82169Y-60579I-2608J0D01*
G03X79561Y-63187I0J-2608D01*
G03X82169Y-65795I2608J0D01*
G37*
G36*
G01X67369Y-50995D02*
G03X69977Y-48387I0J2608D01*
G03X67369Y-45779I-2608J0D01*
G03X64761Y-48387I0J-2608D01*
G03X67369Y-50995I2608J0D01*
G37*
G36*
G01X64761Y-63187D02*
G03X67369Y-65795I2608J0D01*
G03X69977Y-63187I0J2608D01*
G03X67369Y-60579I-2608J0D01*
G03X64761Y-63187I0J-2608D01*
G37*
G36*
G01X78643Y-38433D02*
G03X79121Y-38636I478J460D01*
G03X79784Y-37973I0J663D01*
G03X79121Y-37310I-663J0D01*
G03X78643Y-37513I0J-663D01*
G01X70158D01*
G03X69680Y-37310I-478J-460D01*
G03X69017Y-37973I0J-663D01*
G03X69680Y-38636I663J0D01*
G03X70158Y-38433I0J663D01*
G01X78643D01*
G37*
G36*
G01X70369Y-84579D02*
G03X72104Y-82844I0J1735D01*
G03X70369Y-81109I-1735J0D01*
G03X68634Y-82844I0J-1735D01*
G03X70369Y-84579I1735J0D01*
G37*
G36*
G01X47418Y-71449D02*
G03X49153Y-69714I0J1735D01*
G03X47418Y-67979I-1735J0D01*
G03X45683Y-69714I0J-1735D01*
G03X47418Y-71449I1735J0D01*
G37*
G36*
G01X86066Y-84579D02*
G03X87801Y-82844I0J1735D01*
G03X86066Y-81109I-1735J0D01*
G03X84331Y-82844I0J-1735D01*
G03X86066Y-84579I1735J0D01*
G37*
G36*
G01X47418Y-76322D02*
G03X49026Y-74714I0J1608D01*
G03X47418Y-73106I-1608J0D01*
G03X45810Y-74714I0J-1608D01*
G03X47418Y-76322I1608J0D01*
G37*
G36*
G01X81066Y-84452D02*
G03X82674Y-82844I0J1608D01*
G03X81066Y-81236I-1608J0D01*
G03X79458Y-82844I0J-1608D01*
G03X81066Y-84452I1608J0D01*
G37*
G36*
G01X63761Y-82844D02*
G03X65369Y-84452I1608J0D01*
G03X66977Y-82844I0J1608D01*
G03X65369Y-81236I-1608J0D01*
G03X63761Y-82844I0J-1608D01*
G37*
G36*
G01X44166Y-81052D02*
G03X45374Y-82260I1208J0D01*
G01X46574D01*
G03X47782Y-81052I0J1208D01*
G03X46574Y-79844I-1208J0D01*
G01X45374D01*
G03X44166Y-81052I0J-1208D01*
G37*
G36*
G01X44166Y-90652D02*
G03X45374Y-91860I1208J0D01*
G01X46574D01*
G03X47782Y-90652I0J1208D01*
G03X46574Y-89444I-1208J0D01*
G01X45374D01*
G03X44166Y-90652I0J-1208D01*
G37*
G36*
G01X44166Y-85852D02*
G03X45374Y-87060I1208J0D01*
G01X46574D01*
G03X47782Y-85852I0J1208D01*
G03X46574Y-84644I-1208J0D01*
G01X45374D01*
G03X44166Y-85852I0J-1208D01*
G37*
G36*
G01X87681Y-87844D02*
G03X89066Y-89229I1385J0D01*
G03X90451Y-87844I0J1385D01*
G03X89066Y-86459I-1385J0D01*
G03X87681Y-87844I0J-1385D01*
G37*
G36*
G01X37418Y-79099D02*
G03X38803Y-77714I0J1385D01*
G03X37418Y-76329I-1385J0D01*
G03X36033Y-77714I0J-1385D01*
G03X37418Y-79099I1385J0D01*
G37*
G36*
G01X76681Y-87844D02*
G03X78066Y-89229I1385J0D01*
G03X79451Y-87844I0J1385D01*
G03X78066Y-86459I-1385J0D01*
G03X76681Y-87844I0J-1385D01*
G37*
G36*
G01X60984Y-87844D02*
G03X62369Y-89229I1385J0D01*
G03X63754Y-87844I0J1385D01*
G03X62369Y-86459I-1385J0D01*
G03X60984Y-87844I0J-1385D01*
G37*
G36*
G01X71984Y-87844D02*
G03X73369Y-89229I1385J0D01*
G03X74754Y-87844I0J1385D01*
G03X73369Y-86459I-1385J0D01*
G03X71984Y-87844I0J-1385D01*
G37*
G36*
G01X37418Y-68099D02*
G03X38803Y-66714I0J1385D01*
G03X37418Y-65329I-1385J0D01*
G03X36033Y-66714I0J-1385D01*
G03X37418Y-68099I1385J0D01*
G37*
G36*
G01X89177Y-32893D02*
G03X90297Y-34013I1120J0D01*
G03X91417Y-32893I0J1120D01*
G03X90297Y-31773I-1120J0D01*
G03X89177Y-32893I0J-1120D01*
G37*
G36*
G01X90297Y-31513D02*
G03X91417Y-30393I0J1120D01*
G03X90297Y-29273I-1120J0D01*
G03X89177Y-30393I0J-1120D01*
G03X90297Y-31513I1120J0D01*
G37*
G36*
G01X89177Y-35393D02*
G03X90297Y-36513I1120J0D01*
G03X91417Y-35393I0J1120D01*
G03X90297Y-34273I-1120J0D01*
G03X89177Y-35393I0J-1120D01*
G37*
G36*
G01X106739Y-87599D02*
G03X107402Y-86936I0J663D01*
G03X106739Y-86273I-663J0D01*
G03X106076Y-86936I0J-663D01*
G03X106739Y-87599I663J0D01*
G37*
G36*
G01X104199Y-87599D02*
G03X104862Y-86936I0J663D01*
G03X104199Y-86273I-663J0D01*
G03X103536Y-86936I0J-663D01*
G03X104199Y-87599I663J0D01*
G37*
G36*
G01X100996Y-86936D02*
G03X101659Y-87599I663J0D01*
G03X102322Y-86936I0J663D01*
G03X101659Y-86273I-663J0D01*
G03X100996Y-86936I0J-663D01*
G37*
%LPD*%
G36*
G01X54356Y-86995D02*
G01X51054Y-83693D01*
G01Y-75057D01*
G01X52959Y-73152D01*
G01X54610D01*
G01X55880Y-71882D01*
G01Y-43564D01*
G01X57788Y-41656D01*
G01X66134D01*
G01X66921Y-42443D01*
G01Y-43950D01*
G01X63754Y-47117D01*
G01Y-50673D01*
G01X60833Y-53594D01*
G01Y-85090D01*
G01X58928Y-86995D01*
G01X54356D01*
G37*
G36*
G01X91174Y-63534D02*
G01X85395Y-57754D01*
G01Y-41754D01*
G01X75977Y-32337D01*
G01X58601D01*
G01X57182Y-30918D01*
G01Y-28188D01*
G01X57774Y-27596D01*
G01X78845D01*
G01X89653Y-38403D01*
G01Y-54375D01*
G01X93819Y-58542D01*
G01X108833D01*
G01X110885Y-60594D01*
G01Y-62185D01*
G01X109536Y-63534D01*
G01X91174D01*
G37*
G54D8191*
G01X38151Y-92098D02*
G02X35969Y-89916I0J2182D01*
G01Y-28956D01*
G02X38151Y-26774I2182J0D01*
G01X111938D01*
G02X114120Y-28956I0J-2182D01*
G01Y-89916D01*
G02X111938Y-92098I-2182J0D01*
G01X38151D01*
G01X90921Y-63787D02*
G03X91174Y-63892I253J253D01*
G01X109536D01*
G03X109789Y-63787I0J358D01*
G01X111138Y-62438D01*
G03X111243Y-62185I-253J253D01*
G01Y-60594D01*
G03X111138Y-60341I-358J0D01*
G01X109086Y-58288D01*
G03X108833Y-58184I-253J-253D01*
G01X93968D01*
G01X90011Y-54227D01*
G01Y-38403D01*
G03X89906Y-38150I-358J0D01*
G01X79098Y-27342D01*
G03X78845Y-27237I-253J-253D01*
G01X57774D01*
G03X57521Y-27342I0J-358D01*
G01X56929Y-27934D01*
G03X56824Y-28188I253J-253D01*
G01Y-30918D01*
G03X56929Y-31171I358J0D01*
G01X58348Y-32590D01*
G03X58601Y-32695I253J253D01*
G01X75829D01*
G01X85036Y-41902D01*
G01Y-57754D01*
G03X85141Y-58007I358J0D01*
G01X90921Y-63787D01*
G01X54103Y-87248D02*
G03X54356Y-87353I253J253D01*
G01X58928D01*
G03X59181Y-87248I0J358D01*
G01X61086Y-85343D01*
G03X61191Y-85090I-253J253D01*
G01Y-53742D01*
G01X64007Y-50926D01*
G03X64112Y-50673I-253J253D01*
G01Y-47265D01*
G01X67174Y-44203D01*
G03X67279Y-43950I-253J253D01*
G01Y-42443D01*
G03X67174Y-42190I-358J0D01*
G01X66387Y-41403D01*
G03X66134Y-41298I-253J-253D01*
G01X57788D01*
G03X57534Y-41403I0J-358D01*
G01X55627Y-43310D01*
G03X55522Y-43564I253J-253D01*
G01Y-71734D01*
G01X54462Y-72794D01*
G01X52959D01*
G03X52706Y-72899I0J-358D01*
G01X50801Y-74804D01*
G03X50696Y-75057I253J-253D01*
G01Y-83693D01*
G03X50801Y-83946I358J0D01*
G01X54103Y-87248D01*
G01X80572Y-74402D02*
G03X81234Y-75065I663J0D01*
G03X81897Y-74402I0J663D01*
G03X81740Y-73973I-663J0D01*
G01Y-73787D01*
G03X81605Y-73462I-460J0D01*
G01X80335Y-72192D01*
G03X80010Y-72057I-325J-325D01*
G01X72967D01*
G03X72642Y-72192I0J-460D01*
G01X71545Y-73289D01*
G01X71532D01*
G03X70869Y-73952I0J-663D01*
G03X71532Y-74615I663J0D01*
G03X72195Y-73952I0J663D01*
G01Y-73939D01*
G01X73158Y-72977D01*
G01X79820D01*
G01X80771Y-73928D01*
G03X80572Y-74402I464J-474D01*
G01X79561Y-48387D02*
G03X82169Y-50995I2608J0D01*
G03X84777Y-48387I0J2608D01*
G03X82169Y-45779I-2608J0D01*
G03X79561Y-48387I0J-2608D01*
G01X82169Y-65795D02*
G03X84777Y-63187I0J2608D01*
G03X82169Y-60579I-2608J0D01*
G03X79561Y-63187I0J-2608D01*
G03X82169Y-65795I2608J0D01*
G01X67369Y-50995D02*
G03X69977Y-48387I0J2608D01*
G03X67369Y-45779I-2608J0D01*
G03X64761Y-48387I0J-2608D01*
G03X67369Y-50995I2608J0D01*
G01X64761Y-63187D02*
G03X67369Y-65795I2608J0D01*
G03X69977Y-63187I0J2608D01*
G03X67369Y-60579I-2608J0D01*
G03X64761Y-63187I0J-2608D01*
G01X78643Y-38433D02*
G03X79121Y-38636I478J460D01*
G03X79784Y-37973I0J663D01*
G03X79121Y-37310I-663J0D01*
G03X78643Y-37513I0J-663D01*
G01X70158D01*
G03X69680Y-37310I-478J-460D01*
G03X69017Y-37973I0J-663D01*
G03X69680Y-38636I663J0D01*
G03X70158Y-38433I0J663D01*
G01X78643D01*
G01X70369Y-84579D02*
G03X72104Y-82844I0J1735D01*
G03X70369Y-81109I-1735J0D01*
G03X68634Y-82844I0J-1735D01*
G03X70369Y-84579I1735J0D01*
G01X47418Y-71449D02*
G03X49153Y-69714I0J1735D01*
G03X47418Y-67979I-1735J0D01*
G03X45683Y-69714I0J-1735D01*
G03X47418Y-71449I1735J0D01*
G01X86066Y-84579D02*
G03X87801Y-82844I0J1735D01*
G03X86066Y-81109I-1735J0D01*
G03X84331Y-82844I0J-1735D01*
G03X86066Y-84579I1735J0D01*
G01X47418Y-76322D02*
G03X49026Y-74714I0J1608D01*
G03X47418Y-73106I-1608J0D01*
G03X45810Y-74714I0J-1608D01*
G03X47418Y-76322I1608J0D01*
G01X81066Y-84452D02*
G03X82674Y-82844I0J1608D01*
G03X81066Y-81236I-1608J0D01*
G03X79458Y-82844I0J-1608D01*
G03X81066Y-84452I1608J0D01*
G01X63761Y-82844D02*
G03X65369Y-84452I1608J0D01*
G03X66977Y-82844I0J1608D01*
G03X65369Y-81236I-1608J0D01*
G03X63761Y-82844I0J-1608D01*
G01X44166Y-81052D02*
G03X45374Y-82260I1208J0D01*
G01X46574D01*
G03X47782Y-81052I0J1208D01*
G03X46574Y-79844I-1208J0D01*
G01X45374D01*
G03X44166Y-81052I0J-1208D01*
G01X44166Y-90652D02*
G03X45374Y-91860I1208J0D01*
G01X46574D01*
G03X47782Y-90652I0J1208D01*
G03X46574Y-89444I-1208J0D01*
G01X45374D01*
G03X44166Y-90652I0J-1208D01*
G01X44166Y-85852D02*
G03X45374Y-87060I1208J0D01*
G01X46574D01*
G03X47782Y-85852I0J1208D01*
G03X46574Y-84644I-1208J0D01*
G01X45374D01*
G03X44166Y-85852I0J-1208D01*
G01X87681Y-87844D02*
G03X89066Y-89229I1385J0D01*
G03X90451Y-87844I0J1385D01*
G03X89066Y-86459I-1385J0D01*
G03X87681Y-87844I0J-1385D01*
G01X37418Y-79099D02*
G03X38803Y-77714I0J1385D01*
G03X37418Y-76329I-1385J0D01*
G03X36033Y-77714I0J-1385D01*
G03X37418Y-79099I1385J0D01*
G01X76681Y-87844D02*
G03X78066Y-89229I1385J0D01*
G03X79451Y-87844I0J1385D01*
G03X78066Y-86459I-1385J0D01*
G03X76681Y-87844I0J-1385D01*
G01X60984Y-87844D02*
G03X62369Y-89229I1385J0D01*
G03X63754Y-87844I0J1385D01*
G03X62369Y-86459I-1385J0D01*
G03X60984Y-87844I0J-1385D01*
G01X71984Y-87844D02*
G03X73369Y-89229I1385J0D01*
G03X74754Y-87844I0J1385D01*
G03X73369Y-86459I-1385J0D01*
G03X71984Y-87844I0J-1385D01*
G01X37418Y-68099D02*
G03X38803Y-66714I0J1385D01*
G03X37418Y-65329I-1385J0D01*
G03X36033Y-66714I0J-1385D01*
G03X37418Y-68099I1385J0D01*
G01X89177Y-32893D02*
G03X90297Y-34013I1120J0D01*
G03X91417Y-32893I0J1120D01*
G03X90297Y-31773I-1120J0D01*
G03X89177Y-32893I0J-1120D01*
G01X90297Y-31513D02*
G03X91417Y-30393I0J1120D01*
G03X90297Y-29273I-1120J0D01*
G03X89177Y-30393I0J-1120D01*
G03X90297Y-31513I1120J0D01*
G01X89177Y-35393D02*
G03X90297Y-36513I1120J0D01*
G03X91417Y-35393I0J1120D01*
G03X90297Y-34273I-1120J0D01*
G03X89177Y-35393I0J-1120D01*
G01X106739Y-87599D02*
G03X107402Y-86936I0J663D01*
G03X106739Y-86273I-663J0D01*
G03X106076Y-86936I0J-663D01*
G03X106739Y-87599I663J0D01*
G01X104199Y-87599D02*
G03X104862Y-86936I0J663D01*
G03X104199Y-86273I-663J0D01*
G03X103536Y-86936I0J-663D01*
G03X104199Y-87599I663J0D01*
G01X100996Y-86936D02*
G03X101659Y-87599I663J0D01*
G03X102322Y-86936I0J663D01*
G03X101659Y-86273I-663J0D01*
G03X100996Y-86936I0J-663D01*
G54D10*
G01X37418Y-77714D02*
G01X37418Y-76428D01*
G01X37418Y-77714D02*
G01X37418Y-79000D01*
G01X37418Y-77714D02*
G01X38704Y-77714D01*
G01X37418Y-66714D02*
G01X37418Y-65428D01*
G01X37418Y-66714D02*
G01X37418Y-68000D01*
G01X37418Y-66714D02*
G01X38704Y-66714D01*
G01X47418Y-69714D02*
G01X47418Y-68078D01*
G01X47418Y-69714D02*
G01X47418Y-71350D01*
G01X47418Y-69714D02*
G01X49054Y-69714D01*
G01X47418Y-69714D02*
G01X45782Y-69714D01*
G01X62369Y-87844D02*
G01X61083Y-87844D01*
G01X62369Y-87844D02*
G01X63655Y-87844D01*
G01X62369Y-87844D02*
G01X62369Y-86558D01*
G01X62369Y-87844D02*
G01X62369Y-89130D01*
G01X70369Y-82844D02*
G01X68733Y-82844D01*
G01X70369Y-82844D02*
G01X72005Y-82844D01*
G01X70369Y-82844D02*
G01X70369Y-81208D01*
G01X70369Y-82844D02*
G01X70369Y-84480D01*
G01X73369Y-87844D02*
G01X72083Y-87844D01*
G01X73369Y-87844D02*
G01X74655Y-87844D01*
G01X73369Y-87844D02*
G01X73369Y-86558D01*
G01X73369Y-87844D02*
G01X73369Y-89130D01*
G01X78066Y-87844D02*
G01X76780Y-87844D01*
G01X78066Y-87844D02*
G01X79352Y-87844D01*
G01X78066Y-87844D02*
G01X78066Y-86558D01*
G01X78066Y-87844D02*
G01X78066Y-89130D01*
G01X86066Y-82844D02*
G01X84430Y-82844D01*
G01X86066Y-82844D02*
G01X87702Y-82844D01*
G01X86066Y-82844D02*
G01X86066Y-81208D01*
G01X86066Y-82844D02*
G01X86066Y-84480D01*
G01X89066Y-87844D02*
G01X87780Y-87844D01*
G01X89066Y-87844D02*
G01X90352Y-87844D01*
G01X89066Y-87844D02*
G01X89066Y-86558D01*
G01X89066Y-87844D02*
G01X89066Y-89130D01*
G04 Copper End*

G04 Pad Start*
G54D11*
G01X90297Y-32893D03*
G01X90297Y-30393D03*
G01X90297Y-35393D03*
G54D12*
G01X47418Y-69714D03*
G01X47418Y-74714D03*
G54D13*
G01X37418Y-77714D03*
G01X37418Y-66714D03*
G01X62369Y-87844D03*
G01X73369Y-87844D03*
G54D12*
G01X70369Y-82844D03*
G01X65369Y-82844D03*
G54D13*
G01X78066Y-87844D03*
G01X89066Y-87844D03*
G54D12*
G01X86066Y-82844D03*
G01X81066Y-82844D03*
G54D14*
G01X82169Y-63187D03*
G01X67369Y-63187D03*
G01X67369Y-48387D03*
G01X82169Y-48387D03*
G54D15*
G01X45974Y-81052D03*
G01X45974Y-85852D03*
G01X45974Y-90652D03*
G04 Pad End*

G04 Via Start*
G54D16*
G01X71532Y-73952D03*
G01X81234Y-74402D03*
G01X69680Y-37973D03*
G01X79121Y-37973D03*
G01X94107Y-61595D03*
G01X94107Y-62864D03*
G01X96647Y-62864D03*
G01X96647Y-62864D03*
G01X96647Y-61594D03*
G01X99187Y-61594D03*
G01X99187Y-62864D03*
G01X91567Y-62864D03*
G01X91567Y-61594D03*
G01X58547Y-28702D03*
G01X61087Y-28702D03*
G01X63627Y-28702D03*
G01X66167Y-28702D03*
G01X58547Y-31242D03*
G01X58547Y-29972D03*
G01X61087Y-29972D03*
G01X63627Y-29972D03*
G01X66167Y-29972D03*
G01X61087Y-31242D03*
G01X63627Y-31242D03*
G01X66167Y-31242D03*
G01X58801Y-42418D03*
G01X61341Y-42418D03*
G01X63881Y-42418D03*
G01X66421Y-42418D03*
G01X58801Y-44958D03*
G01X58801Y-43688D03*
G01X61341Y-43688D03*
G01X63881Y-43688D03*
G01X66421Y-43688D03*
G01X61341Y-44958D03*
G01X63881Y-44958D03*
G01X58801Y-46228D03*
G01X61341Y-46228D03*
G01X63881Y-46228D03*
G01X68199Y-42037D03*
G01X56743Y-35334D03*
G01X58013Y-35334D03*
G01X56743Y-37874D03*
G01X58013Y-37874D03*
G01X39116Y-42672D03*
G01X39116Y-37592D03*
G01X39116Y-32512D03*
G01X41656Y-42672D03*
G01X41656Y-37592D03*
G01X41656Y-32512D03*
G01X44196Y-42672D03*
G01X44196Y-37592D03*
G01X44196Y-32512D03*
G01X46736Y-42672D03*
G01X46736Y-37592D03*
G01X46736Y-32512D03*
G01X49276Y-42672D03*
G01X49276Y-37592D03*
G01X49276Y-32512D03*
G01X96579Y-42672D03*
G01X96579Y-37592D03*
G01X96579Y-32512D03*
G01X99119Y-42672D03*
G01X99119Y-37592D03*
G01X99119Y-32512D03*
G01X101659Y-42672D03*
G01X101659Y-37592D03*
G01X101659Y-32512D03*
G01X104199Y-42672D03*
G01X104199Y-37592D03*
G01X104199Y-32512D03*
G01X106739Y-42672D03*
G01X106739Y-37592D03*
G01X106739Y-32512D03*
G01X109279Y-42672D03*
G01X109279Y-37592D03*
G01X109279Y-32512D03*
G01X111819Y-42672D03*
G01X111819Y-37592D03*
G01X111819Y-32512D03*
G01X78359Y-56388D03*
G01X78359Y-57658D03*
G01X79629Y-57658D03*
G01X79629Y-56388D03*
G01X66548Y-57658D03*
G01X67818Y-57658D03*
G01X66548Y-59563D03*
G01X67818Y-59563D03*
G01X69977Y-51054D03*
G01X72517Y-51054D03*
G01X72517Y-48514D03*
G01X75057Y-51054D03*
G01X75057Y-48514D03*
G01X77597Y-51054D03*
G01X77597Y-48514D03*
G01X80137Y-51054D03*
G01X65532Y-70993D03*
G01X68072Y-70993D03*
G01X70612Y-70993D03*
G01X73152Y-70993D03*
G01X75692Y-70993D03*
G01X78232Y-78613D03*
G01X78232Y-73533D03*
G01X78232Y-70993D03*
G01X80772Y-70993D03*
G01X78232Y-80518D03*
G01X69432Y-80668D03*
G01X66892Y-80668D03*
G01X64352Y-80668D03*
G01X40948Y-76581D03*
G01X40948Y-74041D03*
G01X40948Y-71501D03*
G01X40948Y-68961D03*
G01X40948Y-66421D03*
G01X46028Y-71501D03*
G01X46028Y-68961D03*
G01X46028Y-66421D03*
G01X51108Y-71501D03*
G01X51108Y-68961D03*
G01X51108Y-66421D03*
G01X96579Y-86936D03*
G01X96579Y-81856D03*
G01X96579Y-76776D03*
G01X96579Y-71696D03*
G01X96579Y-66616D03*
G01X99119Y-86936D03*
G01X99119Y-81856D03*
G01X99119Y-76776D03*
G01X99119Y-71696D03*
G01X99119Y-66616D03*
G01X101659Y-81856D03*
G01X101659Y-76776D03*
G01X101659Y-71696D03*
G01X101659Y-66616D03*
G01X104199Y-81856D03*
G01X104199Y-76776D03*
G01X104199Y-71696D03*
G01X104199Y-66616D03*
G01X106739Y-81856D03*
G01X106739Y-76776D03*
G01X106739Y-71696D03*
G01X106739Y-66616D03*
G01X109279Y-86936D03*
G01X109279Y-81856D03*
G01X109279Y-76776D03*
G01X109279Y-71696D03*
G01X109279Y-66616D03*
G01X111819Y-86936D03*
G01X111819Y-81856D03*
G01X111819Y-76776D03*
G01X111819Y-71696D03*
G01X111819Y-66616D03*
G01X53594Y-84455D03*
G01X53594Y-81915D03*
G01X53594Y-79375D03*
G01X53594Y-76835D03*
G01X53594Y-74295D03*
G01X56134Y-84455D03*
G01X56134Y-81915D03*
G01X56134Y-79375D03*
G01X56134Y-76835D03*
G01X56134Y-74295D03*
G01X58674Y-84455D03*
G01X58674Y-81915D03*
G01X58674Y-79375D03*
G01X58674Y-76835D03*
G01X58674Y-74295D03*
G01X101659Y-86936D03*
G01X104199Y-86936D03*
G01X106739Y-86936D03*
G04 Via End*

G04 Track Start*
G54D18*
G01X71532Y-73952D02*
G01X72967Y-72517D01*
G01X81280Y-74422D02*
G01X81280Y-73787D01*
G01X80010Y-72517D01*
G01X72967D01*
G01X79121Y-37973D02*
G01X69680Y-37973D01*
G04 Track End*

M02*
