G04*
G04 #@! TF.GenerationSoftware,Altium Limited,Altium Designer,22.7.1 (60)*
G04*
G04 Layer_Color=16711935*
%FSLAX25Y25*%
%MOIN*%
G70*
G04*
G04 #@! TF.SameCoordinates,D5FD8CF7-689A-4CA3-A305-E5C997A2AED7*
G04*
G04*
G04 #@! TF.FilePolarity,Negative*
G04*
G01*
G75*
%ADD58O,0.12611X0.08674*%
%ADD59O,0.07087X0.11811*%
%ADD60P,0.09389X8X292.5*%
%ADD61O,0.26391X0.18517*%
%ADD62C,0.02800*%
G36*
X211042Y61915D02*
X211117Y61906D01*
X211192Y61894D01*
X211262Y61873D01*
X211325Y61852D01*
X211387Y61831D01*
X211441Y61802D01*
X211495Y61777D01*
X211541Y61752D01*
X211578Y61727D01*
X211616Y61703D01*
X211641Y61682D01*
X211666Y61661D01*
X211682Y61648D01*
X211691Y61640D01*
X211695Y61636D01*
X211745Y61582D01*
X211790Y61528D01*
X211828Y61470D01*
X211865Y61411D01*
X211890Y61353D01*
X211915Y61295D01*
X211936Y61241D01*
X211949Y61187D01*
X211961Y61141D01*
X211969Y61095D01*
X211978Y61054D01*
X211982Y61016D01*
X211986Y60991D01*
Y60950D01*
X211982Y60875D01*
X211974Y60804D01*
X211961Y60742D01*
X211949Y60688D01*
X211936Y60642D01*
X211924Y60608D01*
X211915Y60588D01*
X211911Y60579D01*
X211882Y60521D01*
X211845Y60463D01*
X211807Y60413D01*
X211770Y60367D01*
X211736Y60326D01*
X211707Y60296D01*
X211691Y60280D01*
X211682Y60272D01*
X211770Y60280D01*
X211853Y60288D01*
X211924Y60296D01*
X211990Y60305D01*
X212049Y60317D01*
X212103Y60326D01*
X212148Y60338D01*
X212186Y60346D01*
X212223Y60355D01*
X212248Y60363D01*
X212273Y60371D01*
X212294Y60380D01*
X212306Y60384D01*
X212315Y60388D01*
X212323Y60392D01*
X212361Y60413D01*
X212394Y60438D01*
X212419Y60463D01*
X212444Y60488D01*
X212481Y60542D01*
X212506Y60596D01*
X212519Y60642D01*
X212527Y60679D01*
X212531Y60704D01*
Y60712D01*
X212527Y60754D01*
X212519Y60791D01*
X212506Y60821D01*
X212494Y60850D01*
X212481Y60875D01*
X212469Y60891D01*
X212460Y60900D01*
X212456Y60904D01*
X212427Y60933D01*
X212390Y60954D01*
X212306Y60991D01*
X212269Y61000D01*
X212240Y61008D01*
X212219Y61016D01*
X212211D01*
X212311Y61856D01*
X212398Y61827D01*
X212477Y61790D01*
X212548Y61757D01*
X212606Y61719D01*
X212656Y61690D01*
X212689Y61665D01*
X212710Y61648D01*
X212718Y61640D01*
X212776Y61586D01*
X212826Y61528D01*
X212868Y61470D01*
X212901Y61415D01*
X212930Y61366D01*
X212947Y61328D01*
X212960Y61299D01*
X212964Y61295D01*
Y61291D01*
X212993Y61207D01*
X213014Y61116D01*
X213030Y61020D01*
X213038Y60929D01*
X213047Y60846D01*
Y60812D01*
X213051Y60779D01*
Y60721D01*
X213047Y60608D01*
X213034Y60504D01*
X213018Y60405D01*
X212993Y60313D01*
X212964Y60226D01*
X212930Y60147D01*
X212897Y60076D01*
X212860Y60009D01*
X212822Y59951D01*
X212789Y59901D01*
X212756Y59860D01*
X212726Y59822D01*
X212706Y59797D01*
X212685Y59776D01*
X212672Y59764D01*
X212668Y59760D01*
X212593Y59697D01*
X212506Y59648D01*
X212415Y59602D01*
X212319Y59560D01*
X212219Y59527D01*
X212119Y59498D01*
X212019Y59477D01*
X211924Y59456D01*
X211828Y59444D01*
X211745Y59431D01*
X211666Y59427D01*
X211595Y59419D01*
X211541D01*
X211499Y59414D01*
X211483D01*
X211470D01*
X211466D01*
X211462D01*
X211358D01*
X211262Y59423D01*
X211171Y59431D01*
X211083Y59439D01*
X211004Y59452D01*
X210929Y59464D01*
X210863Y59481D01*
X210801Y59498D01*
X210746Y59510D01*
X210697Y59527D01*
X210655Y59539D01*
X210622Y59552D01*
X210593Y59560D01*
X210576Y59568D01*
X210563Y59577D01*
X210559D01*
X210497Y59610D01*
X210438Y59643D01*
X210389Y59681D01*
X210339Y59714D01*
X210293Y59751D01*
X210251Y59789D01*
X210185Y59860D01*
X210131Y59922D01*
X210110Y59951D01*
X210093Y59972D01*
X210081Y59993D01*
X210072Y60005D01*
X210064Y60014D01*
Y60018D01*
X210039Y60072D01*
X210014Y60130D01*
X209977Y60246D01*
X209948Y60371D01*
X209931Y60488D01*
X209923Y60542D01*
X209919Y60592D01*
X209914Y60638D01*
Y60675D01*
X209910Y60704D01*
Y60750D01*
X209914Y60887D01*
X209931Y61008D01*
X209952Y61116D01*
X209960Y61162D01*
X209973Y61207D01*
X209985Y61245D01*
X209998Y61278D01*
X210006Y61307D01*
X210014Y61332D01*
X210023Y61353D01*
X210031Y61366D01*
X210035Y61374D01*
Y61378D01*
X210089Y61470D01*
X210147Y61549D01*
X210210Y61615D01*
X210272Y61669D01*
X210326Y61715D01*
X210368Y61748D01*
X210384Y61757D01*
X210397Y61765D01*
X210405Y61773D01*
X210409D01*
X210505Y61823D01*
X210601Y61856D01*
X210692Y61881D01*
X210780Y61902D01*
X210850Y61910D01*
X210884Y61915D01*
X210909D01*
X210929Y61919D01*
X210946D01*
X210954D01*
X210959D01*
X211042Y61915D01*
D02*
G37*
G36*
X213051Y58815D02*
X209910Y58058D01*
Y58483D01*
X213051Y59248D01*
Y58815D01*
D02*
G37*
G36*
X211000Y57880D02*
X211071Y57871D01*
X211133Y57854D01*
X211187Y57842D01*
X211229Y57825D01*
X211262Y57809D01*
X211279Y57800D01*
X211287Y57796D01*
X211341Y57763D01*
X211391Y57726D01*
X211433Y57688D01*
X211470Y57651D01*
X211499Y57613D01*
X211520Y57588D01*
X211533Y57572D01*
X211537Y57563D01*
X211558Y57526D01*
X211578Y57480D01*
X211595Y57434D01*
X211608Y57393D01*
X211620Y57355D01*
X211628Y57322D01*
X211637Y57301D01*
Y57293D01*
X211682Y57372D01*
X211732Y57438D01*
X211778Y57493D01*
X211820Y57538D01*
X211857Y57576D01*
X211890Y57601D01*
X211907Y57617D01*
X211915Y57622D01*
X211978Y57659D01*
X212040Y57684D01*
X212098Y57705D01*
X212153Y57717D01*
X212202Y57726D01*
X212240Y57730D01*
X212265D01*
X212269D01*
X212273D01*
X212335Y57726D01*
X212394Y57717D01*
X212448Y57705D01*
X212502Y57688D01*
X212593Y57647D01*
X212677Y57597D01*
X212710Y57572D01*
X212739Y57547D01*
X212764Y57526D01*
X212789Y57505D01*
X212806Y57488D01*
X212818Y57476D01*
X212822Y57468D01*
X212826Y57464D01*
X212868Y57409D01*
X212901Y57351D01*
X212930Y57285D01*
X212955Y57218D01*
X212997Y57072D01*
X213022Y56931D01*
X213034Y56864D01*
X213038Y56802D01*
X213043Y56744D01*
X213047Y56698D01*
X213051Y56656D01*
Y56598D01*
X213047Y56502D01*
X213043Y56415D01*
X213034Y56332D01*
X213018Y56257D01*
X213005Y56182D01*
X212989Y56116D01*
X212968Y56057D01*
X212951Y56003D01*
X212930Y55953D01*
X212914Y55912D01*
X212893Y55879D01*
X212880Y55849D01*
X212868Y55824D01*
X212856Y55808D01*
X212851Y55800D01*
X212847Y55795D01*
X212806Y55745D01*
X212764Y55700D01*
X212668Y55616D01*
X212573Y55550D01*
X212477Y55500D01*
X212394Y55462D01*
X212356Y55446D01*
X212323Y55438D01*
X212298Y55429D01*
X212277Y55421D01*
X212265Y55417D01*
X212261D01*
X212119Y56216D01*
X212198Y56232D01*
X212265Y56249D01*
X212319Y56270D01*
X212361Y56290D01*
X212394Y56311D01*
X212419Y56324D01*
X212431Y56336D01*
X212435Y56340D01*
X212464Y56378D01*
X212489Y56419D01*
X212506Y56461D01*
X212514Y56498D01*
X212523Y56532D01*
X212527Y56561D01*
Y56586D01*
X212523Y56636D01*
X212514Y56681D01*
X212502Y56723D01*
X212485Y56756D01*
X212469Y56781D01*
X212456Y56798D01*
X212448Y56810D01*
X212444Y56814D01*
X212410Y56844D01*
X212373Y56864D01*
X212335Y56877D01*
X212302Y56889D01*
X212273Y56894D01*
X212248Y56898D01*
X212227D01*
X212223D01*
X212169Y56894D01*
X212123Y56881D01*
X212082Y56860D01*
X212044Y56844D01*
X212015Y56823D01*
X211990Y56802D01*
X211978Y56790D01*
X211974Y56785D01*
X211940Y56740D01*
X211915Y56694D01*
X211894Y56648D01*
X211882Y56602D01*
X211874Y56565D01*
X211870Y56536D01*
Y56473D01*
X211874Y56440D01*
Y56423D01*
X211878Y56411D01*
Y56398D01*
X211275Y56357D01*
X211291Y56419D01*
X211304Y56469D01*
X211312Y56519D01*
X211320Y56557D01*
Y56586D01*
X211325Y56611D01*
Y56627D01*
X211320Y56694D01*
X211308Y56752D01*
X211287Y56802D01*
X211266Y56844D01*
X211246Y56877D01*
X211225Y56902D01*
X211212Y56919D01*
X211208Y56923D01*
X211162Y56960D01*
X211108Y56989D01*
X211054Y57006D01*
X211000Y57023D01*
X210954Y57031D01*
X210913Y57035D01*
X210888D01*
X210884D01*
X210879D01*
X210805Y57031D01*
X210738Y57018D01*
X210684Y56998D01*
X210634Y56977D01*
X210597Y56956D01*
X210572Y56935D01*
X210551Y56923D01*
X210547Y56919D01*
X210505Y56873D01*
X210476Y56827D01*
X210455Y56781D01*
X210443Y56735D01*
X210434Y56694D01*
X210426Y56665D01*
Y56636D01*
X210430Y56577D01*
X210443Y56528D01*
X210455Y56482D01*
X210476Y56440D01*
X210493Y56411D01*
X210505Y56390D01*
X210518Y56374D01*
X210522Y56369D01*
X210567Y56332D01*
X210617Y56303D01*
X210676Y56274D01*
X210738Y56253D01*
X210788Y56236D01*
X210834Y56224D01*
X210850Y56220D01*
X210863D01*
X210871Y56216D01*
X210875D01*
X210763Y55371D01*
X210663Y55404D01*
X210572Y55442D01*
X210489Y55479D01*
X210422Y55517D01*
X210364Y55550D01*
X210322Y55579D01*
X210310Y55587D01*
X210297Y55596D01*
X210293Y55604D01*
X210289D01*
X210222Y55666D01*
X210164Y55733D01*
X210118Y55800D01*
X210077Y55862D01*
X210048Y55916D01*
X210023Y55962D01*
X210014Y55978D01*
X210010Y55991D01*
X210006Y55995D01*
Y55999D01*
X209973Y56095D01*
X209952Y56203D01*
X209935Y56315D01*
X209923Y56419D01*
X209919Y56469D01*
X209914Y56511D01*
Y56552D01*
X209910Y56590D01*
Y56656D01*
X209914Y56806D01*
X209923Y56877D01*
X209931Y56944D01*
X209939Y57002D01*
X209952Y57060D01*
X209964Y57114D01*
X209977Y57160D01*
X209985Y57201D01*
X209998Y57239D01*
X210010Y57268D01*
X210018Y57297D01*
X210027Y57318D01*
X210035Y57330D01*
X210039Y57339D01*
Y57343D01*
X210093Y57434D01*
X210156Y57518D01*
X210218Y57584D01*
X210276Y57642D01*
X210330Y57684D01*
X210372Y57717D01*
X210389Y57730D01*
X210401Y57734D01*
X210409Y57742D01*
X210414D01*
X210505Y57788D01*
X210597Y57825D01*
X210684Y57850D01*
X210763Y57867D01*
X210830Y57875D01*
X210855Y57880D01*
X210879Y57884D01*
X210900D01*
X210913D01*
X210921D01*
X210925D01*
X211000Y57880D01*
D02*
G37*
G36*
X213051Y54801D02*
X209910Y54044D01*
Y54468D01*
X213051Y55234D01*
Y54801D01*
D02*
G37*
G36*
X211183Y53570D02*
X213051D01*
Y52833D01*
X211221Y51294D01*
X210526D01*
Y52833D01*
X209960D01*
Y53570D01*
X210526D01*
Y53952D01*
X211183D01*
Y53570D01*
D02*
G37*
G36*
X210651Y49701D02*
X210692Y49742D01*
X210726Y49780D01*
X210759Y49813D01*
X210784Y49842D01*
X210805Y49867D01*
X210821Y49884D01*
X210830Y49896D01*
X210834Y49901D01*
X210863Y49942D01*
X210900Y49992D01*
X210942Y50046D01*
X210983Y50104D01*
X211021Y50159D01*
X211050Y50200D01*
X211063Y50217D01*
X211071Y50229D01*
X211079Y50238D01*
Y50242D01*
X211137Y50321D01*
X211192Y50392D01*
X211241Y50454D01*
X211296Y50516D01*
X211341Y50570D01*
X211387Y50616D01*
X211429Y50662D01*
X211470Y50699D01*
X211508Y50733D01*
X211537Y50758D01*
X211566Y50783D01*
X211591Y50799D01*
X211608Y50816D01*
X211620Y50824D01*
X211628Y50832D01*
X211632D01*
X211728Y50886D01*
X211824Y50928D01*
X211911Y50957D01*
X211994Y50978D01*
X212065Y50990D01*
X212094Y50995D01*
X212119D01*
X212136Y50999D01*
X212153D01*
X212161D01*
X212165D01*
X212261Y50995D01*
X212348Y50978D01*
X212427Y50953D01*
X212498Y50928D01*
X212556Y50899D01*
X212598Y50878D01*
X212614Y50866D01*
X212627Y50862D01*
X212631Y50853D01*
X212635D01*
X212710Y50795D01*
X212772Y50733D01*
X212826Y50666D01*
X212872Y50604D01*
X212905Y50550D01*
X212926Y50504D01*
X212934Y50487D01*
X212943Y50475D01*
X212947Y50466D01*
Y50462D01*
X212964Y50412D01*
X212980Y50362D01*
X213005Y50250D01*
X213026Y50138D01*
X213038Y50025D01*
X213043Y49971D01*
X213047Y49926D01*
Y49884D01*
X213051Y49847D01*
Y49693D01*
X213047Y49622D01*
X213043Y49551D01*
X213034Y49485D01*
X213026Y49426D01*
X213018Y49372D01*
X213005Y49322D01*
X212997Y49277D01*
X212989Y49235D01*
X212976Y49202D01*
X212968Y49173D01*
X212960Y49148D01*
X212951Y49127D01*
X212947Y49114D01*
X212943Y49106D01*
Y49102D01*
X212897Y49019D01*
X212851Y48944D01*
X212797Y48877D01*
X212747Y48823D01*
X212706Y48782D01*
X212668Y48752D01*
X212643Y48736D01*
X212639Y48728D01*
X212635D01*
X212552Y48682D01*
X212464Y48644D01*
X212373Y48611D01*
X212281Y48590D01*
X212202Y48569D01*
X212165Y48565D01*
X212136Y48557D01*
X212111Y48553D01*
X212094D01*
X212082Y48549D01*
X212078D01*
X212011Y49393D01*
X212103Y49410D01*
X212177Y49431D01*
X212236Y49451D01*
X212286Y49476D01*
X212323Y49497D01*
X212348Y49514D01*
X212365Y49526D01*
X212369Y49530D01*
X212402Y49572D01*
X212427Y49618D01*
X212448Y49659D01*
X212460Y49701D01*
X212469Y49738D01*
X212473Y49772D01*
Y49797D01*
X212469Y49851D01*
X212456Y49901D01*
X212439Y49946D01*
X212423Y49984D01*
X212406Y50013D01*
X212390Y50038D01*
X212377Y50050D01*
X212373Y50055D01*
X212335Y50088D01*
X212294Y50113D01*
X212252Y50134D01*
X212219Y50146D01*
X212186Y50154D01*
X212161Y50159D01*
X212140D01*
X212136D01*
X212086Y50154D01*
X212040Y50142D01*
X211994Y50125D01*
X211949Y50104D01*
X211915Y50084D01*
X211886Y50067D01*
X211870Y50055D01*
X211861Y50050D01*
X211832Y50030D01*
X211803Y50000D01*
X211770Y49967D01*
X211736Y49934D01*
X211666Y49855D01*
X211599Y49776D01*
X211541Y49701D01*
X211512Y49663D01*
X211491Y49634D01*
X211470Y49609D01*
X211458Y49593D01*
X211449Y49580D01*
X211445Y49576D01*
X211362Y49468D01*
X211283Y49368D01*
X211208Y49272D01*
X211133Y49189D01*
X211067Y49114D01*
X211000Y49048D01*
X210942Y48985D01*
X210888Y48935D01*
X210838Y48890D01*
X210792Y48852D01*
X210755Y48819D01*
X210721Y48794D01*
X210697Y48773D01*
X210680Y48761D01*
X210667Y48752D01*
X210663Y48748D01*
X210601Y48711D01*
X210538Y48673D01*
X210414Y48615D01*
X210297Y48569D01*
X210189Y48536D01*
X210139Y48524D01*
X210097Y48511D01*
X210056Y48503D01*
X210023Y48494D01*
X209998Y48490D01*
X209977D01*
X209964Y48486D01*
X209960D01*
Y51020D01*
X210651D01*
Y49701D01*
D02*
G37*
G36*
X211637Y48195D02*
X211766Y48187D01*
X211886Y48170D01*
X211945Y48162D01*
X211994Y48158D01*
X212040Y48149D01*
X212082Y48141D01*
X212119Y48133D01*
X212153Y48124D01*
X212177Y48120D01*
X212194Y48116D01*
X212207Y48112D01*
X212211D01*
X212277Y48095D01*
X212335Y48074D01*
X212390Y48058D01*
X212435Y48037D01*
X212473Y48020D01*
X212498Y48008D01*
X212519Y48000D01*
X212523Y47995D01*
X212573Y47966D01*
X212618Y47937D01*
X212660Y47904D01*
X212702Y47870D01*
X212731Y47841D01*
X212756Y47821D01*
X212772Y47804D01*
X212776Y47800D01*
X212818Y47750D01*
X212860Y47696D01*
X212893Y47642D01*
X212918Y47592D01*
X212943Y47546D01*
X212960Y47513D01*
X212968Y47488D01*
X212972Y47484D01*
Y47480D01*
X212997Y47400D01*
X213018Y47317D01*
X213030Y47234D01*
X213043Y47155D01*
X213047Y47084D01*
Y47055D01*
X213051Y47026D01*
Y46976D01*
X213047Y46860D01*
X213034Y46751D01*
X213018Y46652D01*
X212997Y46560D01*
X212972Y46473D01*
X212939Y46398D01*
X212910Y46327D01*
X212876Y46265D01*
X212843Y46207D01*
X212814Y46161D01*
X212785Y46119D01*
X212756Y46086D01*
X212735Y46061D01*
X212718Y46044D01*
X212706Y46032D01*
X212702Y46028D01*
X212631Y45974D01*
X212552Y45924D01*
X212460Y45882D01*
X212369Y45849D01*
X212269Y45816D01*
X212165Y45790D01*
X212065Y45770D01*
X211965Y45753D01*
X211874Y45741D01*
X211782Y45732D01*
X211703Y45724D01*
X211632Y45720D01*
X211574D01*
X211528Y45716D01*
X211512D01*
X211499D01*
X211495D01*
X211491D01*
X211362Y45720D01*
X211241Y45724D01*
X211133Y45732D01*
X211038Y45745D01*
X210996Y45749D01*
X210959Y45757D01*
X210925Y45761D01*
X210896Y45766D01*
X210875Y45770D01*
X210859D01*
X210850Y45774D01*
X210846D01*
X210742Y45799D01*
X210651Y45828D01*
X210572Y45857D01*
X210509Y45882D01*
X210455Y45907D01*
X210418Y45928D01*
X210397Y45940D01*
X210389Y45944D01*
X210305Y46007D01*
X210235Y46069D01*
X210172Y46136D01*
X210122Y46194D01*
X210081Y46248D01*
X210052Y46294D01*
X210043Y46310D01*
X210035Y46323D01*
X210031Y46327D01*
Y46331D01*
X209989Y46427D01*
X209960Y46531D01*
X209939Y46635D01*
X209927Y46731D01*
X209919Y46776D01*
Y46822D01*
X209914Y46860D01*
X209910Y46893D01*
Y46955D01*
X209914Y47080D01*
X209927Y47192D01*
X209948Y47296D01*
X209968Y47392D01*
X209998Y47480D01*
X210031Y47559D01*
X210064Y47629D01*
X210102Y47692D01*
X210139Y47746D01*
X210172Y47791D01*
X210206Y47829D01*
X210235Y47862D01*
X210260Y47887D01*
X210276Y47904D01*
X210289Y47912D01*
X210293Y47916D01*
X210368Y47966D01*
X210455Y48008D01*
X210547Y48049D01*
X210642Y48079D01*
X210742Y48108D01*
X210842Y48128D01*
X210942Y48149D01*
X211042Y48166D01*
X211133Y48174D01*
X211221Y48182D01*
X211296Y48191D01*
X211366Y48195D01*
X211420Y48199D01*
X211462D01*
X211478D01*
X211491D01*
X211495D01*
X211499D01*
X211637Y48195D01*
D02*
G37*
G36*
X210651Y44035D02*
X210692Y44077D01*
X210726Y44114D01*
X210759Y44147D01*
X210784Y44176D01*
X210805Y44201D01*
X210821Y44218D01*
X210830Y44230D01*
X210834Y44235D01*
X210863Y44276D01*
X210900Y44326D01*
X210942Y44380D01*
X210983Y44438D01*
X211021Y44493D01*
X211050Y44534D01*
X211063Y44551D01*
X211071Y44563D01*
X211079Y44572D01*
Y44576D01*
X211137Y44655D01*
X211192Y44726D01*
X211241Y44788D01*
X211296Y44850D01*
X211341Y44904D01*
X211387Y44950D01*
X211429Y44996D01*
X211470Y45033D01*
X211508Y45067D01*
X211537Y45092D01*
X211566Y45117D01*
X211591Y45133D01*
X211608Y45150D01*
X211620Y45158D01*
X211628Y45167D01*
X211632D01*
X211728Y45221D01*
X211824Y45262D01*
X211911Y45291D01*
X211994Y45312D01*
X212065Y45325D01*
X212094Y45329D01*
X212119D01*
X212136Y45333D01*
X212153D01*
X212161D01*
X212165D01*
X212261Y45329D01*
X212348Y45312D01*
X212427Y45287D01*
X212498Y45262D01*
X212556Y45233D01*
X212598Y45212D01*
X212614Y45200D01*
X212627Y45196D01*
X212631Y45187D01*
X212635D01*
X212710Y45129D01*
X212772Y45067D01*
X212826Y45000D01*
X212872Y44938D01*
X212905Y44884D01*
X212926Y44838D01*
X212934Y44821D01*
X212943Y44809D01*
X212947Y44800D01*
Y44796D01*
X212964Y44746D01*
X212980Y44696D01*
X213005Y44584D01*
X213026Y44472D01*
X213038Y44359D01*
X213043Y44305D01*
X213047Y44260D01*
Y44218D01*
X213051Y44181D01*
Y44027D01*
X213047Y43956D01*
X213043Y43885D01*
X213034Y43819D01*
X213026Y43760D01*
X213018Y43706D01*
X213005Y43656D01*
X212997Y43611D01*
X212989Y43569D01*
X212976Y43536D01*
X212968Y43507D01*
X212960Y43482D01*
X212951Y43461D01*
X212947Y43448D01*
X212943Y43440D01*
Y43436D01*
X212897Y43353D01*
X212851Y43278D01*
X212797Y43211D01*
X212747Y43157D01*
X212706Y43116D01*
X212668Y43086D01*
X212643Y43070D01*
X212639Y43062D01*
X212635D01*
X212552Y43016D01*
X212464Y42978D01*
X212373Y42945D01*
X212281Y42924D01*
X212202Y42904D01*
X212165Y42899D01*
X212136Y42891D01*
X212111Y42887D01*
X212094D01*
X212082Y42883D01*
X212078D01*
X212011Y43727D01*
X212103Y43744D01*
X212177Y43765D01*
X212236Y43785D01*
X212286Y43810D01*
X212323Y43831D01*
X212348Y43848D01*
X212365Y43860D01*
X212369Y43864D01*
X212402Y43906D01*
X212427Y43952D01*
X212448Y43993D01*
X212460Y44035D01*
X212469Y44072D01*
X212473Y44106D01*
Y44131D01*
X212469Y44185D01*
X212456Y44235D01*
X212439Y44280D01*
X212423Y44318D01*
X212406Y44347D01*
X212390Y44372D01*
X212377Y44384D01*
X212373Y44389D01*
X212335Y44422D01*
X212294Y44447D01*
X212252Y44468D01*
X212219Y44480D01*
X212186Y44488D01*
X212161Y44493D01*
X212140D01*
X212136D01*
X212086Y44488D01*
X212040Y44476D01*
X211994Y44459D01*
X211949Y44438D01*
X211915Y44418D01*
X211886Y44401D01*
X211870Y44389D01*
X211861Y44384D01*
X211832Y44364D01*
X211803Y44335D01*
X211770Y44301D01*
X211736Y44268D01*
X211666Y44189D01*
X211599Y44110D01*
X211541Y44035D01*
X211512Y43998D01*
X211491Y43968D01*
X211470Y43944D01*
X211458Y43927D01*
X211449Y43914D01*
X211445Y43910D01*
X211362Y43802D01*
X211283Y43702D01*
X211208Y43606D01*
X211133Y43523D01*
X211067Y43448D01*
X211000Y43382D01*
X210942Y43319D01*
X210888Y43270D01*
X210838Y43224D01*
X210792Y43186D01*
X210755Y43153D01*
X210721Y43128D01*
X210697Y43107D01*
X210680Y43095D01*
X210667Y43086D01*
X210663Y43082D01*
X210601Y43045D01*
X210538Y43007D01*
X210414Y42949D01*
X210297Y42904D01*
X210189Y42870D01*
X210139Y42858D01*
X210097Y42845D01*
X210056Y42837D01*
X210023Y42829D01*
X209998Y42824D01*
X209977D01*
X209964Y42820D01*
X209960D01*
Y45354D01*
X210651D01*
Y44035D01*
D02*
G37*
G36*
X219880Y65286D02*
X219614Y65020D01*
Y61933D01*
X219468Y62083D01*
X219485Y62154D01*
X219497Y62225D01*
X219506Y62291D01*
X219514Y62353D01*
Y62403D01*
X219518Y62445D01*
Y62932D01*
X219323Y62973D01*
X219135Y63019D01*
X218956Y63069D01*
X218790Y63119D01*
X218632Y63177D01*
X218486Y63231D01*
X218353Y63289D01*
X218229Y63344D01*
X218116Y63398D01*
X218021Y63447D01*
X217937Y63493D01*
X217867Y63531D01*
X217812Y63564D01*
X217771Y63589D01*
X217746Y63606D01*
X217742Y63610D01*
X217738D01*
X217609Y63477D01*
X217488Y63335D01*
X217380Y63190D01*
X217276Y63040D01*
X217184Y62890D01*
X217101Y62744D01*
X217026Y62599D01*
X216955Y62462D01*
X216897Y62333D01*
X216847Y62212D01*
X216806Y62104D01*
X216785Y62058D01*
X216773Y62012D01*
X216756Y61975D01*
X216743Y61937D01*
X216735Y61908D01*
X216727Y61883D01*
X216718Y61862D01*
X216714Y61846D01*
X216710Y61838D01*
Y61833D01*
X216660Y61850D01*
X216706Y62054D01*
X216764Y62254D01*
X216827Y62441D01*
X216897Y62616D01*
X216972Y62782D01*
X217047Y62940D01*
X217126Y63081D01*
X217205Y63214D01*
X217280Y63335D01*
X217351Y63439D01*
X217417Y63526D01*
X217476Y63606D01*
X217521Y63664D01*
X217542Y63689D01*
X217559Y63705D01*
X217571Y63722D01*
X217580Y63735D01*
X217588Y63739D01*
Y63743D01*
X217484Y63847D01*
X217388Y63955D01*
X217301Y64076D01*
X217218Y64201D01*
X217139Y64325D01*
X217068Y64454D01*
X217005Y64579D01*
X216947Y64700D01*
X216897Y64816D01*
X216851Y64924D01*
X216814Y65020D01*
X216781Y65103D01*
X216768Y65141D01*
X216760Y65174D01*
X216747Y65203D01*
X216739Y65224D01*
X216735Y65245D01*
X216731Y65257D01*
X216727Y65265D01*
Y65270D01*
X216764Y65282D01*
X216793Y65299D01*
X216822Y65324D01*
X216851Y65349D01*
X216893Y65407D01*
X216926Y65473D01*
X216951Y65532D01*
X216964Y65586D01*
X216972Y65606D01*
Y65623D01*
X216976Y65632D01*
Y65636D01*
X217043D01*
X217064Y65436D01*
X217093Y65249D01*
X217134Y65074D01*
X217184Y64908D01*
X217234Y64754D01*
X217292Y64608D01*
X217351Y64479D01*
X217413Y64359D01*
X217471Y64250D01*
X217526Y64159D01*
X217580Y64080D01*
X217625Y64013D01*
X217667Y63959D01*
X217696Y63922D01*
X217713Y63901D01*
X217721Y63893D01*
X217858Y63984D01*
X218004Y64072D01*
X218154Y64151D01*
X218303Y64225D01*
X218453Y64292D01*
X218603Y64350D01*
X218748Y64404D01*
X218890Y64450D01*
X219019Y64492D01*
X219140Y64525D01*
X219244Y64554D01*
X219293Y64566D01*
X219339Y64579D01*
X219377Y64587D01*
X219414Y64600D01*
X219443Y64604D01*
X219472Y64612D01*
X219489Y64616D01*
X219506D01*
X219514Y64621D01*
X219518D01*
Y65652D01*
X219880Y65286D01*
D02*
G37*
G36*
X220013Y63955D02*
X220046Y63942D01*
X220084Y63926D01*
X220117Y63905D01*
X220142Y63884D01*
X220167Y63868D01*
X220184Y63855D01*
X220188Y63851D01*
X220234Y63805D01*
X220284Y63751D01*
X220329Y63697D01*
X220371Y63639D01*
X220408Y63589D01*
X220438Y63547D01*
X220450Y63531D01*
X220454Y63518D01*
X220462Y63514D01*
Y63510D01*
X220429Y63460D01*
X220325Y63522D01*
X220225Y63572D01*
X220130Y63614D01*
X220051Y63647D01*
X219980Y63668D01*
X219951Y63676D01*
X219926Y63680D01*
X219905Y63689D01*
X219893D01*
X219884Y63693D01*
X219880D01*
X219826Y63705D01*
X219784Y63722D01*
X219755Y63735D01*
X219734Y63747D01*
X219722Y63759D01*
X219718Y63768D01*
X219714Y63776D01*
X219718Y63797D01*
X219726Y63814D01*
X219743Y63834D01*
X219759Y63855D01*
X219776Y63868D01*
X219793Y63880D01*
X219801Y63889D01*
X219805Y63893D01*
X219838Y63913D01*
X219872Y63930D01*
X219901Y63942D01*
X219926Y63951D01*
X219951Y63955D01*
X219967Y63959D01*
X219976D01*
X219980D01*
X220013Y63955D01*
D02*
G37*
G36*
X217105Y61197D02*
X217139Y61189D01*
X217176Y61172D01*
X217209Y61155D01*
X217234Y61139D01*
X217259Y61122D01*
X217276Y61114D01*
X217280Y61110D01*
X217305Y61089D01*
X217338Y61060D01*
X217372Y61022D01*
X217409Y60981D01*
X217492Y60889D01*
X217571Y60789D01*
X217650Y60694D01*
X217684Y60652D01*
X217713Y60615D01*
X217738Y60581D01*
X217754Y60556D01*
X217767Y60540D01*
X217771Y60536D01*
X217738Y60486D01*
X217654Y60544D01*
X217575Y60598D01*
X217500Y60648D01*
X217430Y60689D01*
X217363Y60731D01*
X217301Y60764D01*
X217243Y60793D01*
X217189Y60818D01*
X217143Y60839D01*
X217097Y60856D01*
X217064Y60873D01*
X217030Y60885D01*
X217010Y60893D01*
X216989Y60897D01*
X216981Y60902D01*
X216976D01*
X216939Y60910D01*
X216906Y60922D01*
X216877Y60931D01*
X216851Y60939D01*
X216814Y60960D01*
X216789Y60981D01*
X216773Y60993D01*
X216764Y61006D01*
X216760Y61014D01*
Y61018D01*
X216764Y61026D01*
X216777Y61039D01*
X216793Y61055D01*
X216814Y61076D01*
X216835Y61089D01*
X216851Y61105D01*
X216864Y61114D01*
X216868Y61118D01*
X216910Y61147D01*
X216947Y61168D01*
X216981Y61180D01*
X217010Y61193D01*
X217035Y61197D01*
X217055Y61201D01*
X217068D01*
X217072D01*
X217105Y61197D01*
D02*
G37*
G36*
X217139Y60219D02*
X217168Y60215D01*
X217226Y60194D01*
X217247Y60182D01*
X217263Y60174D01*
X217276Y60169D01*
X217280Y60165D01*
X217301Y60153D01*
X217326Y60132D01*
X217351Y60103D01*
X217384Y60074D01*
X217451Y60007D01*
X217517Y59932D01*
X217584Y59862D01*
X217613Y59828D01*
X217638Y59799D01*
X217659Y59774D01*
X217675Y59758D01*
X217684Y59745D01*
X217688Y59741D01*
X217654Y59691D01*
X217580Y59728D01*
X217513Y59766D01*
X217384Y59820D01*
X217326Y59845D01*
X217272Y59866D01*
X217218Y59882D01*
X217176Y59899D01*
X217134Y59907D01*
X217097Y59920D01*
X217068Y59928D01*
X217039Y59932D01*
X217018Y59936D01*
X217005Y59941D01*
X216997D01*
X216993D01*
X216939Y59949D01*
X216897Y59957D01*
X216868Y59970D01*
X216847Y59982D01*
X216835Y59991D01*
X216831Y59999D01*
X216827Y60007D01*
X216831Y60024D01*
X216839Y60040D01*
X216856Y60061D01*
X216872Y60082D01*
X216889Y60103D01*
X216906Y60115D01*
X216914Y60128D01*
X216918Y60132D01*
X216951Y60161D01*
X216985Y60186D01*
X217018Y60203D01*
X217047Y60211D01*
X217072Y60219D01*
X217089Y60224D01*
X217101D01*
X217105D01*
X217139Y60219D01*
D02*
G37*
G36*
X218482Y61334D02*
X218499Y61234D01*
X218524Y61139D01*
X218553Y61047D01*
X218619Y60873D01*
X218699Y60710D01*
X218786Y60565D01*
X218882Y60427D01*
X218982Y60303D01*
X219081Y60194D01*
X219181Y60094D01*
X219273Y60011D01*
X219360Y59936D01*
X219439Y59878D01*
X219506Y59832D01*
X219531Y59816D01*
X219555Y59799D01*
X219572Y59791D01*
X219585Y59782D01*
X219593Y59774D01*
X219597D01*
Y61268D01*
X219909Y60952D01*
X219693Y60735D01*
Y59641D01*
X220175D01*
X220292Y59791D01*
X220479Y59375D01*
X220346Y59379D01*
X220209Y59383D01*
X220075Y59387D01*
X219955Y59391D01*
X219897D01*
X219847D01*
X219805D01*
X219768D01*
X219734D01*
X219714D01*
X219697D01*
X219693D01*
Y57715D01*
X219547Y57865D01*
X219564Y57936D01*
X219576Y58006D01*
X219585Y58073D01*
X219593Y58135D01*
Y58185D01*
X219597Y58227D01*
Y59209D01*
X219414Y59096D01*
X219244Y58975D01*
X219081Y58846D01*
X218927Y58709D01*
X218786Y58572D01*
X218653Y58430D01*
X218536Y58293D01*
X218428Y58160D01*
X218328Y58031D01*
X218245Y57915D01*
X218174Y57806D01*
X218112Y57715D01*
X218087Y57673D01*
X218066Y57640D01*
X218045Y57607D01*
X218033Y57582D01*
X218021Y57561D01*
X218012Y57544D01*
X218004Y57536D01*
Y57532D01*
X217954Y57565D01*
X218054Y57782D01*
X218158Y57990D01*
X218274Y58177D01*
X218395Y58356D01*
X218515Y58518D01*
X218640Y58668D01*
X218761Y58805D01*
X218878Y58930D01*
X218990Y59034D01*
X219094Y59129D01*
X219190Y59209D01*
X219268Y59275D01*
X219335Y59325D01*
X219364Y59346D01*
X219389Y59362D01*
X219406Y59375D01*
X219418Y59383D01*
X219427Y59391D01*
X219273D01*
X219123D01*
X218982D01*
X218844Y59387D01*
X218711D01*
X218590D01*
X218478Y59383D01*
X218374D01*
X218283D01*
X218199Y59379D01*
X218125D01*
X218066D01*
X218016Y59375D01*
X217983D01*
X217962D01*
X217954D01*
X218087Y59658D01*
X218116D01*
X218149Y59654D01*
X218187D01*
X218233D01*
X218328Y59649D01*
X218441D01*
X218561Y59645D01*
X218686D01*
X218948D01*
X219073Y59641D01*
X219194D01*
X219302D01*
X219402D01*
X219443D01*
X219481D01*
X219514D01*
X219543D01*
X219568D01*
X219585D01*
X219593D01*
X219597D01*
Y59691D01*
X219497Y59733D01*
X219402Y59778D01*
X219314Y59824D01*
X219227Y59874D01*
X219065Y59982D01*
X218919Y60094D01*
X218790Y60211D01*
X218674Y60328D01*
X218574Y60444D01*
X218486Y60561D01*
X218407Y60669D01*
X218345Y60768D01*
X218295Y60860D01*
X218253Y60943D01*
X218220Y61010D01*
X218208Y61035D01*
X218199Y61060D01*
X218191Y61076D01*
X218187Y61089D01*
X218183Y61097D01*
Y61101D01*
X218220Y61114D01*
X218249Y61130D01*
X218299Y61176D01*
X218341Y61230D01*
X218366Y61288D01*
X218382Y61343D01*
X218395Y61388D01*
Y61409D01*
X218399Y61422D01*
Y61434D01*
X218466D01*
X218482Y61334D01*
D02*
G37*
G36*
X217093Y59321D02*
X217118Y59317D01*
X217176Y59292D01*
X217201Y59279D01*
X217218Y59271D01*
X217234Y59263D01*
X217238Y59258D01*
X217263Y59242D01*
X217292Y59221D01*
X217322Y59196D01*
X217355Y59167D01*
X217426Y59104D01*
X217500Y59034D01*
X217567Y58967D01*
X217596Y58938D01*
X217621Y58913D01*
X217642Y58892D01*
X217659Y58876D01*
X217667Y58863D01*
X217671Y58859D01*
X217638Y58813D01*
X217505Y58876D01*
X217384Y58926D01*
X217272Y58963D01*
X217222Y58980D01*
X217180Y58996D01*
X217139Y59009D01*
X217101Y59017D01*
X217068Y59025D01*
X217043Y59030D01*
X217022Y59038D01*
X217005D01*
X216997Y59042D01*
X216993D01*
X216960Y59046D01*
X216935Y59050D01*
X216889Y59063D01*
X216856Y59075D01*
X216835Y59092D01*
X216818Y59104D01*
X216814Y59113D01*
X216810Y59121D01*
Y59125D01*
X216814Y59142D01*
X216822Y59158D01*
X216839Y59175D01*
X216856Y59196D01*
X216872Y59213D01*
X216889Y59229D01*
X216897Y59238D01*
X216901Y59242D01*
X216935Y59271D01*
X216968Y59292D01*
X216997Y59304D01*
X217022Y59317D01*
X217043Y59321D01*
X217059Y59325D01*
X217068D01*
X217072D01*
X217093Y59321D01*
D02*
G37*
G36*
X217754Y58264D02*
X217663Y58235D01*
X217584Y58206D01*
X217505Y58177D01*
X217438Y58148D01*
X217376Y58118D01*
X217318Y58089D01*
X217267Y58060D01*
X217226Y58035D01*
X217189Y58010D01*
X217155Y57985D01*
X217130Y57965D01*
X217109Y57948D01*
X217093Y57936D01*
X217080Y57923D01*
X217076Y57919D01*
X217072Y57915D01*
X217030Y57869D01*
X216997Y57840D01*
X216968Y57815D01*
X216939Y57798D01*
X216922Y57790D01*
X216906Y57786D01*
X216897Y57782D01*
X216893D01*
X216881Y57786D01*
X216868Y57794D01*
X216847Y57823D01*
X216831Y57852D01*
X216827Y57861D01*
Y57865D01*
X216814Y57894D01*
X216806Y57919D01*
X216802Y57940D01*
X216797Y57956D01*
X216793Y57973D01*
Y57981D01*
X216802Y58023D01*
X216818Y58064D01*
X216839Y58102D01*
X216868Y58139D01*
X216897Y58164D01*
X216918Y58189D01*
X216935Y58202D01*
X216943Y58206D01*
X216976Y58227D01*
X217018Y58243D01*
X217072Y58256D01*
X217130Y58272D01*
X217197Y58285D01*
X217263Y58293D01*
X217405Y58310D01*
X217471Y58314D01*
X217538Y58318D01*
X217596Y58322D01*
X217646Y58327D01*
X217692D01*
X217725Y58331D01*
X217746D01*
X217754D01*
Y58264D01*
D02*
G37*
G36*
X219926Y56517D02*
X219743Y56401D01*
Y55390D01*
X220242D01*
X220375Y55523D01*
X220529Y55140D01*
X220383Y55144D01*
X220242Y55148D01*
X220109Y55152D01*
X220051D01*
X219992Y55157D01*
X219938D01*
X219888D01*
X219847D01*
X219809D01*
X219784D01*
X219759D01*
X219747D01*
X219743D01*
Y54096D01*
X219893Y53846D01*
X219693Y53850D01*
X219497Y53855D01*
X219406Y53859D01*
X219314D01*
X219227D01*
X219148Y53863D01*
X219073D01*
X219006D01*
X218944D01*
X218894D01*
X218852D01*
X218823D01*
X218807D01*
X218798D01*
X218586D01*
X218378Y53859D01*
X218278D01*
X218183D01*
X218091Y53855D01*
X218008D01*
X217929D01*
X217854Y53850D01*
X217792D01*
X217742D01*
X217696Y53846D01*
X217663D01*
X217646D01*
X217638D01*
X217738Y54096D01*
X217971D01*
Y55157D01*
X217867D01*
X217771D01*
X217684D01*
X217600D01*
X217530D01*
X217463D01*
X217409D01*
X217359D01*
X217313D01*
X217276D01*
X217247D01*
X217222D01*
X217205D01*
X217189D01*
X217184D01*
X217180D01*
X217097D01*
X217005Y55152D01*
X216910D01*
X216818Y55148D01*
X216735Y55144D01*
X216702D01*
X216673D01*
X216644Y55140D01*
X216627D01*
X216614D01*
X216610D01*
X216727Y55406D01*
X216822Y55402D01*
X216918Y55398D01*
X217010Y55394D01*
X217093D01*
X217163Y55390D01*
X217197D01*
X217222D01*
X217243D01*
X217259D01*
X217267D01*
X217272D01*
X217971D01*
Y56434D01*
X217704D01*
X217804Y56683D01*
X217929Y56679D01*
X218050Y56675D01*
X218162Y56671D01*
X218266D01*
X218312Y56667D01*
X218353D01*
X218391D01*
X218424D01*
X218449D01*
X218466D01*
X218478D01*
X218482D01*
X219597D01*
X219709Y56800D01*
X219926Y56517D01*
D02*
G37*
G36*
X218299Y51279D02*
X218099Y51063D01*
Y50814D01*
X218299D01*
X218432Y50947D01*
X218615Y50581D01*
X218595Y50585D01*
X218566D01*
X218532Y50589D01*
X218495D01*
X218407Y50593D01*
X218320Y50597D01*
X218237D01*
X218199D01*
X218166D01*
X218137D01*
X218116D01*
X218104D01*
X218099D01*
Y49487D01*
X217954Y49636D01*
X217971Y49707D01*
X217983Y49778D01*
X217991Y49844D01*
X218000Y49907D01*
Y49957D01*
X218004Y49998D01*
Y50597D01*
X217155D01*
X217105Y50593D01*
X217072Y50581D01*
X217047Y50564D01*
X217026Y50543D01*
X217018Y50522D01*
X217014Y50506D01*
X217010Y50493D01*
Y50435D01*
X217014Y50398D01*
Y50356D01*
X217022Y50260D01*
X217026Y50165D01*
X217035Y50073D01*
Y50032D01*
X217039Y49994D01*
Y49961D01*
X217043Y49940D01*
Y49919D01*
X216976D01*
X216955Y50011D01*
X216931Y50094D01*
X216906Y50165D01*
X216877Y50227D01*
X216847Y50281D01*
X216818Y50323D01*
X216785Y50360D01*
X216756Y50389D01*
X216727Y50414D01*
X216702Y50431D01*
X216677Y50443D01*
X216652Y50452D01*
X216635Y50460D01*
X216623Y50464D01*
X216614D01*
X216610D01*
X216631Y50531D01*
X216660Y50589D01*
X216689Y50639D01*
X216727Y50681D01*
X216760Y50714D01*
X216802Y50743D01*
X216839Y50764D01*
X216881Y50784D01*
X216918Y50797D01*
X216951Y50805D01*
X216985Y50809D01*
X217014Y50814D01*
X217039D01*
X217055D01*
X217068D01*
X217072D01*
X218004D01*
Y51546D01*
X218299Y51279D01*
D02*
G37*
G36*
X217442Y50065D02*
X217467Y50061D01*
X217517Y50040D01*
X217538Y50027D01*
X217555Y50019D01*
X217567Y50015D01*
X217571Y50011D01*
X217592Y49994D01*
X217613Y49973D01*
X217638Y49944D01*
X217659Y49911D01*
X217708Y49836D01*
X217758Y49753D01*
X217804Y49670D01*
X217821Y49636D01*
X217838Y49603D01*
X217850Y49574D01*
X217862Y49553D01*
X217867Y49541D01*
X217871Y49536D01*
X217821Y49503D01*
X217750Y49561D01*
X217688Y49607D01*
X217638Y49649D01*
X217592Y49678D01*
X217559Y49699D01*
X217534Y49715D01*
X217517Y49724D01*
X217513Y49728D01*
X217426Y49774D01*
X217384Y49794D01*
X217342Y49811D01*
X217309Y49828D01*
X217280Y49840D01*
X217263Y49848D01*
X217255Y49853D01*
X217226Y49865D01*
X217205Y49878D01*
X217193Y49890D01*
X217184Y49898D01*
X217172Y49915D01*
Y49919D01*
X217176Y49932D01*
X217189Y49948D01*
X217205Y49965D01*
X217222Y49977D01*
X217238Y49990D01*
X217255Y50002D01*
X217267Y50007D01*
X217272Y50011D01*
X217305Y50032D01*
X217338Y50044D01*
X217363Y50056D01*
X217384Y50061D01*
X217401Y50065D01*
X217413Y50069D01*
X217417D01*
X217422D01*
X217442Y50065D01*
D02*
G37*
G36*
X218998Y51130D02*
X218765Y50863D01*
Y49786D01*
X218836Y49815D01*
X218915Y49848D01*
X218990Y49873D01*
X219060Y49902D01*
X219123Y49923D01*
X219152Y49932D01*
X219173Y49940D01*
X219194Y49944D01*
X219206Y49948D01*
X219214Y49952D01*
X219219D01*
Y51163D01*
X219531Y50880D01*
X219314Y50664D01*
Y49969D01*
X219402Y49990D01*
X219485Y50007D01*
X219564Y50023D01*
X219635Y50040D01*
X219693Y50052D01*
X219739Y50061D01*
X219755Y50065D01*
X219772D01*
X219776Y50069D01*
X219780D01*
Y51413D01*
X220109Y51113D01*
X219876Y50880D01*
Y50086D01*
X219951Y50098D01*
X220017Y50111D01*
X220080Y50123D01*
X220134Y50131D01*
X220180Y50140D01*
X220213Y50148D01*
X220234Y50152D01*
X220242D01*
X220325Y50302D01*
X220529Y49902D01*
X220487Y49898D01*
X220442Y49894D01*
X220342Y49886D01*
X220234Y49878D01*
X220126Y49873D01*
X220075Y49869D01*
X220030Y49865D01*
X219988Y49861D01*
X219951Y49857D01*
X219917D01*
X219897Y49853D01*
X219880D01*
X219876D01*
Y48875D01*
X219730Y49021D01*
X219747Y49091D01*
X219759Y49162D01*
X219768Y49229D01*
X219776Y49291D01*
Y49341D01*
X219780Y49382D01*
Y49836D01*
X219693Y49823D01*
X219610Y49807D01*
X219531Y49790D01*
X219460Y49774D01*
X219402Y49761D01*
X219356Y49749D01*
X219339Y49744D01*
X219327Y49740D01*
X219318Y49736D01*
X219314D01*
Y49104D01*
X219169Y49254D01*
X219185Y49324D01*
X219198Y49395D01*
X219206Y49462D01*
X219214Y49524D01*
Y49574D01*
X219219Y49615D01*
Y49720D01*
X219110Y49682D01*
X219019Y49653D01*
X218940Y49624D01*
X218878Y49599D01*
X218828Y49578D01*
X218794Y49566D01*
X218774Y49557D01*
X218765Y49553D01*
Y48692D01*
X218619Y48842D01*
X218636Y48908D01*
X218649Y48979D01*
X218657Y49046D01*
X218665Y49108D01*
Y49158D01*
X218670Y49200D01*
Y49520D01*
X218520Y49449D01*
X218378Y49366D01*
X218237Y49283D01*
X218104Y49195D01*
X217979Y49104D01*
X217858Y49012D01*
X217746Y48925D01*
X217642Y48838D01*
X217546Y48754D01*
X217459Y48675D01*
X217388Y48605D01*
X217326Y48546D01*
X217276Y48496D01*
X217238Y48459D01*
X217218Y48434D01*
X217209Y48430D01*
Y48426D01*
X217159Y48459D01*
X217276Y48621D01*
X217401Y48771D01*
X217526Y48913D01*
X217654Y49037D01*
X217779Y49154D01*
X217904Y49262D01*
X218029Y49358D01*
X218145Y49441D01*
X218253Y49516D01*
X218353Y49578D01*
X218441Y49632D01*
X218520Y49678D01*
X218582Y49711D01*
X218607Y49724D01*
X218628Y49732D01*
X218649Y49740D01*
X218661Y49749D01*
X218665Y49753D01*
X218670D01*
Y51446D01*
X218998Y51130D01*
D02*
G37*
G36*
X220013Y48667D02*
X220055Y48650D01*
X220075Y48642D01*
X220088Y48634D01*
X220100Y48630D01*
X220105Y48625D01*
X220126Y48613D01*
X220146Y48588D01*
X220167Y48563D01*
X220196Y48526D01*
X220221Y48488D01*
X220246Y48447D01*
X220300Y48359D01*
X220350Y48272D01*
X220371Y48230D01*
X220392Y48197D01*
X220408Y48168D01*
X220421Y48147D01*
X220425Y48130D01*
X220429Y48126D01*
X220379Y48093D01*
X220271Y48180D01*
X220171Y48251D01*
X220084Y48309D01*
X220009Y48355D01*
X219947Y48388D01*
X219922Y48401D01*
X219901Y48409D01*
X219884Y48417D01*
X219872Y48422D01*
X219867Y48426D01*
X219863D01*
X219818Y48438D01*
X219789Y48455D01*
X219763Y48472D01*
X219747Y48488D01*
X219739Y48505D01*
X219734Y48513D01*
X219730Y48521D01*
Y48526D01*
X219734Y48534D01*
X219743Y48546D01*
X219759Y48559D01*
X219776Y48575D01*
X219793Y48588D01*
X219809Y48596D01*
X219818Y48605D01*
X219822Y48609D01*
X219855Y48630D01*
X219884Y48646D01*
X219913Y48659D01*
X219934Y48667D01*
X219955Y48671D01*
X219967Y48675D01*
X219976D01*
X219980D01*
X219997D01*
X220013Y48667D01*
D02*
G37*
G36*
X219073Y48305D02*
X219115Y48297D01*
X219131Y48293D01*
X219144Y48289D01*
X219152Y48284D01*
X219156D01*
X219173Y48276D01*
X219190Y48255D01*
X219210Y48222D01*
X219235Y48189D01*
X219256Y48143D01*
X219281Y48097D01*
X219331Y47997D01*
X219377Y47897D01*
X219393Y47852D01*
X219414Y47810D01*
X219427Y47777D01*
X219439Y47752D01*
X219443Y47731D01*
X219447Y47727D01*
X219397Y47694D01*
X219335Y47752D01*
X219281Y47802D01*
X219227Y47848D01*
X219177Y47889D01*
X219131Y47927D01*
X219090Y47960D01*
X219015Y48014D01*
X218956Y48051D01*
X218915Y48076D01*
X218902Y48085D01*
X218890Y48089D01*
X218886Y48093D01*
X218882D01*
X218844Y48110D01*
X218815Y48126D01*
X218794Y48143D01*
X218782Y48155D01*
X218774Y48164D01*
X218765Y48172D01*
Y48176D01*
X218769Y48189D01*
X218778Y48205D01*
X218807Y48230D01*
X218836Y48251D01*
X218844Y48259D01*
X218848D01*
X218882Y48276D01*
X218911Y48289D01*
X218973Y48305D01*
X218994D01*
X219015Y48309D01*
X219027D01*
X219031D01*
X219073Y48305D01*
D02*
G37*
G36*
X219730Y48808D02*
X219601Y48767D01*
X219481Y48725D01*
X219368Y48688D01*
X219260Y48650D01*
X219156Y48617D01*
X219060Y48584D01*
X218969Y48551D01*
X218886Y48521D01*
X218807Y48496D01*
X218732Y48467D01*
X218661Y48447D01*
X218599Y48422D01*
X218536Y48401D01*
X218482Y48380D01*
X218432Y48363D01*
X218387Y48347D01*
X218307Y48318D01*
X218241Y48293D01*
X218191Y48272D01*
X218149Y48259D01*
X218125Y48247D01*
X218104Y48239D01*
X218095Y48234D01*
X218091D01*
X218050Y48214D01*
X218012Y48197D01*
X217979Y48180D01*
X217954Y48164D01*
X217908Y48130D01*
X217879Y48105D01*
X217862Y48085D01*
X217850Y48072D01*
X217846Y48064D01*
Y47976D01*
X217850Y47914D01*
X217854Y47852D01*
X217862Y47793D01*
X217867Y47743D01*
Y47723D01*
X217871Y47706D01*
Y47694D01*
X217804D01*
X217792Y47739D01*
X217779Y47781D01*
X217754Y47848D01*
X217734Y47902D01*
X217713Y47947D01*
X217696Y47976D01*
X217684Y47997D01*
X217675Y48006D01*
X217671Y48010D01*
X217646Y48030D01*
X217617Y48047D01*
X217588Y48060D01*
X217563Y48068D01*
X217538Y48072D01*
X217521Y48076D01*
X217509D01*
X217505D01*
X217459D01*
X217413Y48068D01*
X217363Y48060D01*
X217322Y48051D01*
X217280Y48043D01*
X217251Y48035D01*
X217230Y48030D01*
X217222Y48026D01*
X217139Y48006D01*
X217097Y48001D01*
X217064Y47997D01*
X217035Y47993D01*
X217014D01*
X216997D01*
X216993D01*
X216943Y47997D01*
X216897Y48014D01*
X216860Y48035D01*
X216835Y48055D01*
X216810Y48081D01*
X216797Y48097D01*
X216789Y48114D01*
X216785Y48118D01*
X216764Y48160D01*
X216752Y48197D01*
X216739Y48222D01*
X216735Y48243D01*
X216731Y48259D01*
X216727Y48268D01*
Y48276D01*
X216731Y48297D01*
X216743Y48313D01*
X216760Y48326D01*
X216777Y48334D01*
X216793Y48338D01*
X216810Y48342D01*
X216822D01*
X216827D01*
X216847D01*
X216877D01*
X216906D01*
X216939D01*
X217014D01*
X217093D01*
X217163D01*
X217197D01*
X217222D01*
X217247D01*
X217263D01*
X217276D01*
X217280D01*
X217409Y48347D01*
X217526Y48351D01*
X217630Y48359D01*
X217675Y48368D01*
X217717Y48372D01*
X217754Y48376D01*
X217792Y48384D01*
X217817Y48388D01*
X217842Y48393D01*
X217862Y48397D01*
X217875D01*
X217883Y48401D01*
X217887D01*
X217916Y48409D01*
X217950Y48417D01*
X217991Y48426D01*
X218037Y48438D01*
X218091Y48451D01*
X218149Y48467D01*
X218212Y48484D01*
X218278Y48501D01*
X218420Y48538D01*
X218574Y48575D01*
X218736Y48617D01*
X218894Y48659D01*
X219052Y48700D01*
X219202Y48742D01*
X219339Y48775D01*
X219406Y48792D01*
X219464Y48808D01*
X219518Y48825D01*
X219568Y48838D01*
X219610Y48846D01*
X219647Y48858D01*
X219676Y48867D01*
X219697Y48871D01*
X219709Y48875D01*
X219714D01*
X219730Y48808D01*
D02*
G37*
G36*
X219343Y46604D02*
X219348D01*
X219373Y46595D01*
X219397Y46583D01*
X219422Y46562D01*
X219447Y46537D01*
X219506Y46479D01*
X219560Y46416D01*
X219605Y46354D01*
X219643Y46300D01*
X219659Y46275D01*
X219672Y46258D01*
X219676Y46250D01*
X219680Y46246D01*
X219647Y46213D01*
X219572Y46258D01*
X219497Y46296D01*
X219427Y46325D01*
X219364Y46346D01*
X219310Y46362D01*
X219268Y46371D01*
X219252Y46375D01*
X219239Y46379D01*
X219235D01*
X219231D01*
X219181Y46387D01*
X219148Y46400D01*
X219123Y46412D01*
X219102Y46429D01*
X219094Y46441D01*
X219090Y46450D01*
X219086Y46458D01*
Y46462D01*
X219090Y46470D01*
X219098Y46483D01*
X219123Y46516D01*
X219144Y46541D01*
X219152Y46550D01*
X219156Y46554D01*
X219185Y46579D01*
X219219Y46595D01*
X219248Y46604D01*
X219281Y46608D01*
X219306D01*
X219327D01*
X219343Y46604D01*
D02*
G37*
G36*
X218532Y47045D02*
X218382Y46895D01*
Y46063D01*
X219863D01*
Y46812D01*
X219722Y46808D01*
X219597Y46799D01*
X219485Y46795D01*
X219385Y46787D01*
X219302Y46782D01*
X219227Y46774D01*
X219164Y46770D01*
X219115Y46766D01*
X219073Y46762D01*
X219040Y46758D01*
X219011Y46753D01*
X218994Y46749D01*
X218982D01*
X218969Y46745D01*
X218965D01*
X218932Y46733D01*
X218907Y46716D01*
X218886Y46695D01*
X218873Y46679D01*
X218865Y46662D01*
X218861Y46649D01*
X218857Y46641D01*
Y46600D01*
X218861Y46554D01*
X218865Y46496D01*
X218873Y46437D01*
X218882Y46383D01*
X218890Y46337D01*
X218894Y46321D01*
X218898Y46308D01*
Y46296D01*
X218848Y46279D01*
X218828Y46337D01*
X218803Y46387D01*
X218782Y46433D01*
X218761Y46470D01*
X218740Y46500D01*
X218719Y46525D01*
X218699Y46545D01*
X218682Y46562D01*
X218649Y46583D01*
X218619Y46591D01*
X218603Y46595D01*
X218599D01*
X218619Y46670D01*
X218644Y46733D01*
X218670Y46787D01*
X218694Y46828D01*
X218715Y46857D01*
X218732Y46878D01*
X218744Y46891D01*
X218748Y46895D01*
X218769Y46911D01*
X218794Y46924D01*
X218852Y46945D01*
X218915Y46961D01*
X218977Y46978D01*
X219036Y46986D01*
X219086Y46990D01*
X219106Y46995D01*
X219119D01*
X219127D01*
X219131D01*
X219244D01*
X219360Y46999D01*
X219477D01*
X219589Y47003D01*
X219639D01*
X219685Y47007D01*
X219726D01*
X219759D01*
X219789Y47011D01*
X219813D01*
X219826D01*
X219830D01*
X219926Y47128D01*
X220109Y46895D01*
X219959Y46778D01*
Y46296D01*
X220017Y46337D01*
X220071Y46375D01*
X220117Y46408D01*
X220159Y46446D01*
X220192Y46475D01*
X220221Y46508D01*
X220246Y46533D01*
X220267Y46562D01*
X220296Y46604D01*
X220317Y46637D01*
X220325Y46654D01*
Y46662D01*
X220496Y46362D01*
X220400Y46342D01*
X220304Y46321D01*
X220213Y46300D01*
X220134Y46279D01*
X220063Y46258D01*
X220034Y46250D01*
X220009Y46242D01*
X219988Y46238D01*
X219971Y46233D01*
X219963Y46229D01*
X219959D01*
Y46063D01*
X220092Y45851D01*
X220071D01*
X220042Y45855D01*
X220005D01*
X219963D01*
X219917Y45859D01*
X219863D01*
X219805D01*
X219747D01*
X219614Y45863D01*
X219472D01*
X219327D01*
X219181Y45867D01*
X219031D01*
X218894D01*
X218765D01*
X218707D01*
X218649D01*
X218599D01*
X218553D01*
X218515D01*
X218478D01*
X218453D01*
X218432D01*
X218420D01*
X218416D01*
X218333Y45768D01*
X218170Y45967D01*
X218287Y46079D01*
Y46928D01*
X218187D01*
X218091D01*
X218000Y46924D01*
X217912Y46920D01*
X217829Y46916D01*
X217754Y46911D01*
X217684Y46907D01*
X217621Y46903D01*
X217563Y46899D01*
X217509Y46895D01*
X217467Y46891D01*
X217430Y46887D01*
X217401Y46882D01*
X217380D01*
X217367Y46878D01*
X217363D01*
X217297Y46870D01*
X217238Y46857D01*
X217189Y46845D01*
X217147Y46832D01*
X217109Y46820D01*
X217076Y46808D01*
X217051Y46795D01*
X217030Y46782D01*
X217014Y46770D01*
X217001Y46758D01*
X216985Y46737D01*
X216976Y46724D01*
Y46637D01*
X216981Y46600D01*
X216989Y46525D01*
X217005Y46441D01*
X217018Y46367D01*
X217026Y46333D01*
X217030Y46304D01*
X217035Y46279D01*
X217039Y46262D01*
X217043Y46250D01*
Y46246D01*
X216976Y46229D01*
X216951Y46304D01*
X216926Y46367D01*
X216897Y46421D01*
X216872Y46466D01*
X216843Y46508D01*
X216818Y46537D01*
X216793Y46566D01*
X216768Y46587D01*
X216747Y46600D01*
X216727Y46612D01*
X216689Y46624D01*
X216669Y46629D01*
X216664D01*
X216660D01*
X216681Y46695D01*
X216702Y46749D01*
X216727Y46799D01*
X216752Y46841D01*
X216768Y46870D01*
X216785Y46895D01*
X216797Y46907D01*
X216802Y46911D01*
X216843Y46945D01*
X216889Y46978D01*
X216939Y47003D01*
X216993Y47024D01*
X217039Y47040D01*
X217076Y47053D01*
X217105Y47057D01*
X217109Y47061D01*
X217114D01*
X217163Y47070D01*
X217226Y47078D01*
X217301Y47086D01*
X217388Y47095D01*
X217480Y47103D01*
X217571Y47111D01*
X217767Y47124D01*
X217862Y47128D01*
X217954Y47132D01*
X218033Y47136D01*
X218108Y47140D01*
X218166D01*
X218191D01*
X218212Y47144D01*
X218233D01*
X218245D01*
X218249D01*
X218253D01*
X218316Y47261D01*
X218532Y47045D01*
D02*
G37*
G36*
X217883Y46612D02*
X217717Y46446D01*
Y45601D01*
X217571Y45751D01*
X217588Y45817D01*
X217600Y45876D01*
X217609Y45930D01*
X217617Y45976D01*
Y46013D01*
X217621Y46042D01*
Y46845D01*
X217883Y46612D01*
D02*
G37*
G36*
X220275Y45451D02*
X220126Y45351D01*
Y44936D01*
X220259Y44719D01*
X220092Y44723D01*
X219930D01*
X219780Y44728D01*
X219635D01*
X219501Y44732D01*
X219377D01*
X219260D01*
X219152Y44736D01*
X219060D01*
X218973D01*
X218902D01*
X218844D01*
X218794D01*
X218761D01*
X218740D01*
X218732D01*
X218619D01*
X218511D01*
X218407Y44732D01*
X218307D01*
X218212D01*
X218125Y44728D01*
X218041D01*
X217966Y44723D01*
X217900Y44719D01*
X217842D01*
X217788Y44715D01*
X217746D01*
X217708D01*
X217684Y44711D01*
X217667D01*
X217663D01*
X217575Y44703D01*
X217488Y44690D01*
X217405Y44669D01*
X217318Y44644D01*
X217155Y44590D01*
X217080Y44557D01*
X217005Y44524D01*
X216939Y44495D01*
X216881Y44461D01*
X216827Y44436D01*
X216781Y44407D01*
X216743Y44386D01*
X216718Y44370D01*
X216698Y44361D01*
X216693Y44357D01*
X216660Y44390D01*
X216727Y44449D01*
X216789Y44503D01*
X216856Y44553D01*
X216918Y44598D01*
X216976Y44636D01*
X217035Y44673D01*
X217093Y44707D01*
X217143Y44732D01*
X217189Y44757D01*
X217234Y44777D01*
X217272Y44794D01*
X217301Y44807D01*
X217330Y44815D01*
X217347Y44823D01*
X217359Y44827D01*
X217363D01*
X217500Y44865D01*
X217646Y44890D01*
X217788Y44910D01*
X217854Y44915D01*
X217916Y44923D01*
X217979Y44927D01*
X218033Y44931D01*
X218083D01*
X218125Y44936D01*
X218158D01*
X218183D01*
X218199D01*
X218203D01*
Y45368D01*
X217089D01*
X217055Y45364D01*
X217035Y45351D01*
X217018Y45331D01*
X217005Y45310D01*
X216997Y45289D01*
X216993Y45268D01*
Y45206D01*
X216997Y45152D01*
X217005Y45102D01*
X217010Y45052D01*
X217018Y45006D01*
X217022Y44969D01*
X217026Y44944D01*
Y44936D01*
X216960D01*
X216939Y44994D01*
X216914Y45044D01*
X216893Y45089D01*
X216868Y45127D01*
X216847Y45160D01*
X216822Y45189D01*
X216802Y45210D01*
X216785Y45227D01*
X216747Y45252D01*
X216718Y45264D01*
X216702Y45268D01*
X216693D01*
X216718Y45322D01*
X216743Y45372D01*
X216773Y45414D01*
X216806Y45447D01*
X216835Y45476D01*
X216868Y45501D01*
X216901Y45522D01*
X216935Y45539D01*
X216993Y45555D01*
X217043Y45564D01*
X217064Y45568D01*
X217076D01*
X217085D01*
X217089D01*
X219997D01*
X220109Y45684D01*
X220275Y45451D01*
D02*
G37*
G36*
X220259Y44341D02*
X220126Y44224D01*
Y43858D01*
X220259Y43642D01*
X219976Y43646D01*
X219838Y43650D01*
X219705D01*
X219581Y43654D01*
X219456D01*
X219343D01*
X219235Y43658D01*
X219135D01*
X219048D01*
X218973D01*
X218907D01*
X218852D01*
X218815D01*
X218790D01*
X218786D01*
X218782D01*
X218586D01*
X218399Y43654D01*
X218312D01*
X218229D01*
X218149Y43650D01*
X218079D01*
X218012D01*
X217950Y43646D01*
X217900D01*
X217854D01*
X217821Y43642D01*
X217792D01*
X217775D01*
X217771D01*
X217679Y43638D01*
X217584Y43625D01*
X217492Y43608D01*
X217396Y43592D01*
X217214Y43546D01*
X217126Y43521D01*
X217043Y43496D01*
X216968Y43467D01*
X216897Y43442D01*
X216835Y43421D01*
X216781Y43400D01*
X216735Y43384D01*
X216706Y43371D01*
X216685Y43363D01*
X216677Y43359D01*
X216644Y43392D01*
X216764Y43475D01*
X216889Y43546D01*
X217022Y43608D01*
X217151Y43663D01*
X217284Y43708D01*
X217413Y43746D01*
X217538Y43775D01*
X217659Y43800D01*
X217771Y43821D01*
X217875Y43833D01*
X217966Y43846D01*
X218050Y43850D01*
X218112Y43854D01*
X218141Y43858D01*
X218162D01*
X218179D01*
X218191D01*
X218199D01*
X218203D01*
Y44241D01*
X217238D01*
X217201Y44237D01*
X217172Y44220D01*
X217155Y44199D01*
X217143Y44174D01*
X217134Y44149D01*
X217130Y44128D01*
Y44108D01*
X217139Y44012D01*
X217143Y43970D01*
X217147Y43933D01*
X217151Y43904D01*
Y43879D01*
X217155Y43862D01*
Y43858D01*
X217089D01*
X217072Y43912D01*
X217051Y43958D01*
X217030Y43995D01*
X217010Y44033D01*
X216989Y44062D01*
X216968Y44083D01*
X216947Y44104D01*
X216931Y44120D01*
X216897Y44141D01*
X216868Y44153D01*
X216851Y44158D01*
X216843D01*
X216868Y44212D01*
X216893Y44257D01*
X216918Y44295D01*
X216947Y44328D01*
X216981Y44357D01*
X217010Y44378D01*
X217039Y44399D01*
X217068Y44411D01*
X217122Y44432D01*
X217163Y44440D01*
X217180D01*
X217193D01*
X217201D01*
X217205D01*
X219997D01*
X220075Y44557D01*
X220259Y44341D01*
D02*
G37*
G36*
X219751Y42689D02*
X219776Y42685D01*
X219834Y42664D01*
X219859Y42652D01*
X219876Y42643D01*
X219893Y42639D01*
X219897Y42635D01*
X219922Y42618D01*
X219947Y42589D01*
X219971Y42552D01*
X219997Y42502D01*
X220026Y42448D01*
X220055Y42390D01*
X220109Y42269D01*
X220134Y42206D01*
X220155Y42148D01*
X220175Y42094D01*
X220192Y42044D01*
X220209Y42003D01*
X220221Y41974D01*
X220225Y41953D01*
X220230Y41945D01*
X220163Y41928D01*
X220109Y41994D01*
X220059Y42053D01*
X220013Y42111D01*
X219967Y42161D01*
X219922Y42206D01*
X219880Y42248D01*
X219843Y42281D01*
X219809Y42315D01*
X219776Y42344D01*
X219747Y42365D01*
X219722Y42385D01*
X219701Y42402D01*
X219685Y42410D01*
X219672Y42419D01*
X219668Y42427D01*
X219664D01*
X219614Y42452D01*
X219576Y42477D01*
X219547Y42498D01*
X219531Y42518D01*
X219518Y42535D01*
X219514Y42548D01*
X219510Y42556D01*
Y42560D01*
X219514Y42573D01*
X219522Y42589D01*
X219547Y42614D01*
X219572Y42635D01*
X219581Y42643D01*
X219585D01*
X219614Y42660D01*
X219643Y42672D01*
X219689Y42689D01*
X219705D01*
X219718Y42693D01*
X219726D01*
X219730D01*
X219751Y42689D01*
D02*
G37*
G36*
X216681Y42964D02*
X216689Y42959D01*
X216693D01*
X216797Y42926D01*
X216847Y42914D01*
X216893Y42905D01*
X216935Y42897D01*
X216964Y42889D01*
X216985Y42885D01*
X216993D01*
X217026Y42880D01*
X217072D01*
X217122D01*
X217176D01*
X217297Y42889D01*
X217417Y42897D01*
X217476Y42901D01*
X217534Y42905D01*
X217584Y42914D01*
X217630Y42918D01*
X217667Y42922D01*
X217696D01*
X217713Y42926D01*
X217721D01*
Y42860D01*
X216993Y42643D01*
X217030Y42577D01*
X217072Y42510D01*
X217163Y42385D01*
X217267Y42273D01*
X217318Y42219D01*
X217367Y42173D01*
X217417Y42132D01*
X217463Y42090D01*
X217500Y42057D01*
X217538Y42032D01*
X217567Y42007D01*
X217588Y41990D01*
X217604Y41982D01*
X217609Y41978D01*
X217696Y41924D01*
X217796Y41878D01*
X217904Y41832D01*
X218016Y41791D01*
X218253Y41724D01*
X218370Y41695D01*
X218486Y41670D01*
X218595Y41649D01*
X218699Y41628D01*
X218790Y41616D01*
X218873Y41603D01*
X218940Y41595D01*
X218965Y41591D01*
X218990Y41587D01*
X219006D01*
X219019Y41583D01*
X219027D01*
X219031D01*
X219115Y42926D01*
X219397Y42593D01*
X219181Y42377D01*
X219131Y41566D01*
X219194Y41562D01*
X219264Y41553D01*
X219339Y41549D01*
X219414Y41545D01*
X219576Y41537D01*
X219730Y41528D01*
X219805Y41524D01*
X219872D01*
X219934Y41520D01*
X219988D01*
X220030Y41516D01*
X220063D01*
X220084D01*
X220092D01*
X220209Y41649D01*
X220408Y41250D01*
X220292Y41258D01*
X220180Y41262D01*
X220080Y41266D01*
X219992Y41275D01*
X219951D01*
X219917Y41279D01*
X219884D01*
X219859D01*
X219838Y41283D01*
X219822D01*
X219813D01*
X219809D01*
X219697Y41291D01*
X219581Y41300D01*
X219464Y41308D01*
X219356Y41316D01*
X219306D01*
X219260Y41320D01*
X219219Y41325D01*
X219185Y41329D01*
X219156D01*
X219131Y41333D01*
X219119D01*
X219115D01*
X219065Y40355D01*
X218932Y40518D01*
X218982Y40667D01*
X219015Y41350D01*
X218836Y41374D01*
X218670Y41395D01*
X218515Y41425D01*
X218374Y41449D01*
X218249Y41478D01*
X218133Y41504D01*
X218029Y41533D01*
X217937Y41558D01*
X217858Y41583D01*
X217788Y41603D01*
X217734Y41624D01*
X217684Y41645D01*
X217650Y41657D01*
X217625Y41670D01*
X217609Y41674D01*
X217604Y41678D01*
X217530Y41720D01*
X217455Y41766D01*
X217388Y41811D01*
X217326Y41857D01*
X217267Y41903D01*
X217214Y41949D01*
X217163Y41990D01*
X217118Y42036D01*
X217076Y42073D01*
X217043Y42111D01*
X217014Y42144D01*
X216989Y42173D01*
X216968Y42194D01*
X216955Y42211D01*
X216947Y42223D01*
X216943Y42227D01*
X216897Y42290D01*
X216860Y42344D01*
X216822Y42398D01*
X216793Y42444D01*
X216743Y42531D01*
X216706Y42598D01*
X216677Y42652D01*
X216664Y42689D01*
X216656Y42710D01*
X216652Y42718D01*
X216639Y42772D01*
X216627Y42814D01*
X216619Y42847D01*
X216614Y42872D01*
Y42889D01*
X216610Y42901D01*
Y42910D01*
X216614Y42935D01*
X216623Y42951D01*
X216635Y42964D01*
X216652Y42968D01*
X216681Y42964D01*
D02*
G37*
G36*
X220529Y40239D02*
X220329Y40181D01*
X220234Y40152D01*
X220146Y40122D01*
X220059Y40093D01*
X219980Y40064D01*
X219905Y40039D01*
X219838Y40014D01*
X219776Y39989D01*
X219718Y39964D01*
X219672Y39948D01*
X219630Y39931D01*
X219597Y39919D01*
X219576Y39906D01*
X219560Y39902D01*
X219555Y39898D01*
X219402Y39827D01*
X219260Y39756D01*
X219194Y39723D01*
X219131Y39694D01*
X219073Y39665D01*
X219023Y39636D01*
X218973Y39611D01*
X218932Y39586D01*
X218894Y39565D01*
X218865Y39548D01*
X218840Y39536D01*
X218823Y39523D01*
X218811Y39519D01*
X218807Y39515D01*
X218690Y39444D01*
X218578Y39369D01*
X218474Y39303D01*
X218387Y39240D01*
X218345Y39211D01*
X218312Y39186D01*
X218278Y39161D01*
X218253Y39145D01*
X218233Y39128D01*
X218216Y39116D01*
X218208Y39112D01*
X218203Y39107D01*
X218154Y39157D01*
X218220Y39228D01*
X218291Y39294D01*
X218366Y39365D01*
X218445Y39432D01*
X218603Y39561D01*
X218682Y39619D01*
X218761Y39677D01*
X218832Y39731D01*
X218898Y39777D01*
X218961Y39819D01*
X219011Y39856D01*
X219056Y39885D01*
X219086Y39906D01*
X219106Y39919D01*
X219115Y39923D01*
X217288D01*
X217184D01*
X217072Y39919D01*
X216960D01*
X216851Y39914D01*
X216802D01*
X216756Y39910D01*
X216714D01*
X216681D01*
X216652Y39906D01*
X216627D01*
X216614D01*
X216610D01*
X216727Y40172D01*
X216843Y40168D01*
X216951Y40164D01*
X217047Y40160D01*
X217134D01*
X217172Y40156D01*
X217205D01*
X217234D01*
X217259D01*
X217280D01*
X217292D01*
X217301D01*
X217305D01*
X219098D01*
X219214Y40272D01*
X219364Y40039D01*
X219460Y40089D01*
X219560Y40139D01*
X219651Y40189D01*
X219743Y40231D01*
X219818Y40268D01*
X219851Y40285D01*
X219876Y40297D01*
X219901Y40305D01*
X219917Y40314D01*
X219926Y40322D01*
X219930D01*
X219984Y40351D01*
X220030Y40376D01*
X220075Y40401D01*
X220113Y40426D01*
X220146Y40451D01*
X220180Y40476D01*
X220225Y40518D01*
X220259Y40551D01*
X220279Y40576D01*
X220292Y40597D01*
X220296Y40601D01*
X220529Y40239D01*
D02*
G37*
G36*
X226799Y62545D02*
X226483Y62225D01*
Y58011D01*
X226292Y58198D01*
X226313Y58285D01*
X226329Y58377D01*
X226342Y58464D01*
X226350Y58543D01*
X226354Y58610D01*
X226358Y58639D01*
Y60045D01*
X226125Y60041D01*
X225901Y60024D01*
X225689Y59999D01*
X225481Y59962D01*
X225281Y59920D01*
X225090Y59870D01*
X224907Y59812D01*
X224732Y59745D01*
X224565Y59679D01*
X224407Y59604D01*
X224258Y59525D01*
X224112Y59442D01*
X223975Y59354D01*
X223850Y59267D01*
X223729Y59180D01*
X223613Y59092D01*
X223509Y59001D01*
X223409Y58913D01*
X223317Y58826D01*
X223234Y58739D01*
X223155Y58655D01*
X223089Y58576D01*
X223022Y58506D01*
X222968Y58435D01*
X222918Y58368D01*
X222877Y58310D01*
X222839Y58260D01*
X222810Y58219D01*
X222789Y58181D01*
X222773Y58156D01*
X222764Y58139D01*
X222760Y58135D01*
X222677Y58177D01*
X222752Y58335D01*
X222835Y58485D01*
X222922Y58626D01*
X223014Y58759D01*
X223109Y58888D01*
X223209Y59005D01*
X223309Y59121D01*
X223413Y59225D01*
X223521Y59325D01*
X223629Y59421D01*
X223738Y59508D01*
X223850Y59587D01*
X223958Y59666D01*
X224066Y59737D01*
X224174Y59799D01*
X224278Y59858D01*
X224382Y59916D01*
X224482Y59962D01*
X224582Y60007D01*
X224674Y60049D01*
X224761Y60086D01*
X224848Y60115D01*
X224923Y60145D01*
X224998Y60170D01*
X225065Y60190D01*
X225123Y60207D01*
X225173Y60224D01*
X225219Y60236D01*
X225252Y60245D01*
X225277Y60249D01*
X225293Y60253D01*
X225298D01*
Y61676D01*
X225102Y61651D01*
X224919Y61630D01*
X224753Y61609D01*
X224603Y61588D01*
X224461Y61567D01*
X224337Y61551D01*
X224224Y61534D01*
X224125Y61518D01*
X224037Y61505D01*
X223962Y61493D01*
X223896Y61484D01*
X223846Y61476D01*
X223808Y61467D01*
X223779Y61463D01*
X223763Y61459D01*
X223758D01*
X223679Y61443D01*
X223604Y61426D01*
X223542Y61414D01*
X223484Y61397D01*
X223434Y61380D01*
X223388Y61368D01*
X223351Y61351D01*
X223322Y61339D01*
X223292Y61326D01*
X223272Y61314D01*
X223255Y61305D01*
X223242Y61297D01*
X223226Y61285D01*
X223222Y61280D01*
X223197Y61243D01*
X223176Y61197D01*
X223164Y61151D01*
X223155Y61110D01*
X223151Y61068D01*
Y61006D01*
X223155Y60968D01*
X223159Y60923D01*
X223172Y60869D01*
X223180Y60814D01*
X223209Y60690D01*
X223242Y60561D01*
X223259Y60502D01*
X223272Y60444D01*
X223288Y60390D01*
X223301Y60344D01*
X223309Y60307D01*
X223317Y60278D01*
X223326Y60261D01*
Y60253D01*
X223242Y60232D01*
X223197Y60340D01*
X223147Y60440D01*
X223097Y60523D01*
X223047Y60602D01*
X222997Y60669D01*
X222947Y60723D01*
X222897Y60773D01*
X222856Y60814D01*
X222810Y60848D01*
X222773Y60873D01*
X222739Y60893D01*
X222710Y60910D01*
X222685Y60918D01*
X222669Y60927D01*
X222656Y60931D01*
X222652D01*
X222685Y61043D01*
X222723Y61143D01*
X222756Y61230D01*
X222785Y61301D01*
X222814Y61355D01*
X222835Y61397D01*
X222851Y61422D01*
X222856Y61430D01*
X222906Y61493D01*
X222968Y61547D01*
X223035Y61592D01*
X223105Y61630D01*
X223164Y61655D01*
X223218Y61676D01*
X223234Y61684D01*
X223251Y61688D01*
X223259Y61692D01*
X223263D01*
X223297Y61700D01*
X223334Y61709D01*
X223380Y61721D01*
X223430Y61730D01*
X223488Y61742D01*
X223550Y61750D01*
X223617Y61763D01*
X223688Y61775D01*
X223842Y61800D01*
X224004Y61825D01*
X224170Y61850D01*
X224337Y61875D01*
X224503Y61900D01*
X224657Y61921D01*
X224803Y61942D01*
X224869Y61950D01*
X224932Y61958D01*
X224986Y61967D01*
X225036Y61971D01*
X225081Y61979D01*
X225119Y61983D01*
X225148Y61988D01*
X225173D01*
X225185Y61992D01*
X225189D01*
X225318Y62204D01*
X225635Y61867D01*
X225422Y61655D01*
Y60278D01*
X225614Y60307D01*
X225705Y60319D01*
X225793Y60328D01*
X225876Y60340D01*
X225951Y60348D01*
X226026Y60357D01*
X226092Y60361D01*
X226150Y60365D01*
X226204Y60369D01*
X226250Y60374D01*
X226288Y60378D01*
X226317D01*
X226342Y60382D01*
X226354D01*
X226358D01*
Y62990D01*
X226799Y62545D01*
D02*
G37*
G36*
X226962Y60781D02*
X226999Y60769D01*
X227041Y60756D01*
X227078Y60739D01*
X227111Y60719D01*
X227136Y60706D01*
X227153Y60694D01*
X227161Y60690D01*
X227190Y60669D01*
X227220Y60636D01*
X227249Y60594D01*
X227282Y60548D01*
X227311Y60498D01*
X227340Y60444D01*
X227398Y60332D01*
X227448Y60224D01*
X227469Y60174D01*
X227490Y60132D01*
X227502Y60095D01*
X227515Y60070D01*
X227519Y60053D01*
X227523Y60045D01*
X227457Y59999D01*
X227344Y60103D01*
X227236Y60190D01*
X227132Y60265D01*
X227041Y60324D01*
X226999Y60348D01*
X226962Y60369D01*
X226928Y60386D01*
X226899Y60398D01*
X226878Y60411D01*
X226858Y60419D01*
X226849Y60423D01*
X226845D01*
X226803Y60440D01*
X226766Y60457D01*
X226737Y60473D01*
X226708Y60486D01*
X226687Y60502D01*
X226666Y60515D01*
X226637Y60540D01*
X226621Y60565D01*
X226612Y60581D01*
X226608Y60590D01*
Y60594D01*
X226612Y60606D01*
X226625Y60619D01*
X226645Y60636D01*
X226666Y60652D01*
X226687Y60669D01*
X226708Y60685D01*
X226720Y60694D01*
X226725Y60698D01*
X226766Y60727D01*
X226808Y60748D01*
X226841Y60764D01*
X226870Y60773D01*
X226895Y60781D01*
X226912Y60785D01*
X226924D01*
X226928D01*
X226962Y60781D01*
D02*
G37*
G36*
X224603Y57033D02*
X224262Y56696D01*
Y55211D01*
X224665D01*
X224815Y55402D01*
X225048Y54895D01*
X224990Y54899D01*
X224927Y54903D01*
X224798Y54907D01*
X224669Y54911D01*
X224545D01*
X224486Y54915D01*
X224432D01*
X224382D01*
X224341D01*
X224307D01*
X224283D01*
X224266D01*
X224262D01*
Y52669D01*
X224070Y52860D01*
X224091Y52948D01*
X224108Y53039D01*
X224120Y53123D01*
X224129Y53202D01*
X224133Y53268D01*
X224137Y53297D01*
Y54915D01*
X223946D01*
X223767D01*
X223604D01*
X223455Y54911D01*
X223313D01*
X223188Y54907D01*
X223076D01*
X222976D01*
X222889Y54903D01*
X222814D01*
X222752Y54899D01*
X222702D01*
X222660Y54895D01*
X222631D01*
X222614D01*
X222610D01*
X222802Y55232D01*
X222872Y55228D01*
X222955Y55223D01*
X223051D01*
X223155Y55219D01*
X223263D01*
X223376Y55215D01*
X223596D01*
X223704Y55211D01*
X223804D01*
X223896D01*
X223975D01*
X224041D01*
X224070D01*
X224095D01*
X224112D01*
X224125D01*
X224133D01*
X224137D01*
Y57499D01*
X224603Y57033D01*
D02*
G37*
G36*
X225343Y57287D02*
X225377Y57237D01*
X225414Y57195D01*
X225456Y57162D01*
X225493Y57141D01*
X225526Y57125D01*
X225547Y57120D01*
X225555Y57116D01*
X225635Y57104D01*
X225718Y57087D01*
X225805Y57079D01*
X225892Y57070D01*
X225967Y57062D01*
X226001Y57058D01*
X226030D01*
X226051D01*
X226067Y57054D01*
X226080D01*
X226084D01*
Y56971D01*
X226001Y56966D01*
X225922Y56962D01*
X225851Y56954D01*
X225788Y56950D01*
X225730Y56941D01*
X225676Y56933D01*
X225630Y56925D01*
X225593Y56921D01*
X225555Y56912D01*
X225526Y56904D01*
X225501Y56900D01*
X225481Y56896D01*
X225468Y56892D01*
X225456Y56887D01*
X225451Y56883D01*
X225447D01*
X225393Y56854D01*
X225352Y56821D01*
X225323Y56783D01*
X225302Y56746D01*
X225289Y56709D01*
X225285Y56683D01*
X225281Y56663D01*
Y55785D01*
X225285Y55731D01*
X225289Y55685D01*
X225302Y55648D01*
X225318Y55610D01*
X225335Y55581D01*
X225356Y55560D01*
X225377Y55540D01*
X225397Y55523D01*
X225439Y55502D01*
X225477Y55490D01*
X225506Y55485D01*
X225510D01*
X225514D01*
X226192D01*
X226238Y55614D01*
X226284Y55731D01*
X226325Y55839D01*
X226367Y55943D01*
X226400Y56035D01*
X226437Y56122D01*
X226467Y56197D01*
X226496Y56267D01*
X226525Y56330D01*
X226546Y56380D01*
X226566Y56426D01*
X226583Y56463D01*
X226595Y56488D01*
X226604Y56509D01*
X226612Y56521D01*
Y56525D01*
X226670Y56642D01*
X226716Y56754D01*
X226754Y56858D01*
X226783Y56954D01*
X226795Y56991D01*
X226803Y57029D01*
X226808Y57062D01*
X226816Y57091D01*
X226820Y57112D01*
X226824Y57129D01*
Y57141D01*
X227165Y56779D01*
X227103Y56709D01*
X227045Y56642D01*
X226995Y56580D01*
X226945Y56517D01*
X226858Y56409D01*
X226820Y56363D01*
X226787Y56318D01*
X226758Y56280D01*
X226733Y56243D01*
X226712Y56213D01*
X226695Y56188D01*
X226683Y56168D01*
X226675Y56155D01*
X226666Y56147D01*
Y56143D01*
X226608Y56043D01*
X226546Y55935D01*
X226487Y55822D01*
X226433Y55718D01*
X226408Y55673D01*
X226388Y55627D01*
X226367Y55585D01*
X226350Y55552D01*
X226338Y55523D01*
X226325Y55502D01*
X226321Y55490D01*
X226317Y55485D01*
X227165D01*
X227332Y55656D01*
X227565Y55169D01*
X227419Y55178D01*
X227278Y55182D01*
X227149Y55186D01*
X227091D01*
X227036D01*
X226982Y55190D01*
X226941D01*
X226899D01*
X226866D01*
X226841D01*
X226820D01*
X226808D01*
X226803D01*
X225364D01*
X225302Y55194D01*
X225248Y55211D01*
X225198Y55232D01*
X225160Y55261D01*
X225127Y55294D01*
X225098Y55331D01*
X225077Y55373D01*
X225061Y55415D01*
X225048Y55456D01*
X225040Y55494D01*
X225031Y55531D01*
X225027Y55564D01*
Y56758D01*
X225031Y56833D01*
X225036Y56904D01*
X225044Y56962D01*
X225052Y57012D01*
X225061Y57054D01*
X225069Y57083D01*
X225077Y57104D01*
Y57108D01*
X225102Y57158D01*
X225139Y57204D01*
X225177Y57245D01*
X225219Y57283D01*
X225260Y57312D01*
X225293Y57332D01*
X225314Y57349D01*
X225323Y57353D01*
X225343Y57287D01*
D02*
G37*
G36*
X226720Y54683D02*
X226487Y54450D01*
Y53622D01*
X227207D01*
X227378Y53792D01*
X227590Y53306D01*
X227511Y53310D01*
X227423Y53314D01*
X227336D01*
X227240Y53318D01*
X227049Y53322D01*
X226957D01*
X226866D01*
X226783Y53326D01*
X226699D01*
X226629D01*
X226566D01*
X226517D01*
X226479D01*
X226454D01*
X226450D01*
X226446D01*
X225364D01*
X225306Y53322D01*
X225256Y53314D01*
X225214Y53297D01*
X225185Y53285D01*
X225160Y53268D01*
X225144Y53251D01*
X225135Y53243D01*
X225131Y53239D01*
X224794Y53497D01*
X224815Y53514D01*
X224836Y53539D01*
X224861Y53563D01*
X224890Y53597D01*
X224915Y53634D01*
X224944Y53680D01*
X225002Y53776D01*
X225065Y53880D01*
X225127Y53996D01*
X225194Y54117D01*
X225256Y54242D01*
X225314Y54362D01*
X225373Y54479D01*
X225422Y54583D01*
X225468Y54678D01*
X225485Y54720D01*
X225506Y54757D01*
X225518Y54791D01*
X225531Y54820D01*
X225543Y54845D01*
X225551Y54861D01*
X225555Y54870D01*
Y54874D01*
X225618Y54828D01*
X225260Y53622D01*
X226363D01*
Y55040D01*
X226720Y54683D01*
D02*
G37*
G36*
X225331Y51733D02*
X225368Y51725D01*
X225397Y51712D01*
X225431Y51696D01*
X225485Y51654D01*
X225535Y51604D01*
X225572Y51554D01*
X225601Y51513D01*
X225614Y51496D01*
X225622Y51484D01*
X225626Y51475D01*
Y51471D01*
X225651Y51421D01*
X225676Y51363D01*
X225726Y51246D01*
X225768Y51122D01*
X225801Y51005D01*
X225818Y50951D01*
X225830Y50901D01*
X225842Y50855D01*
X225855Y50818D01*
X225863Y50785D01*
X225868Y50760D01*
X225872Y50743D01*
Y50739D01*
X225809Y50697D01*
X225739Y50810D01*
X225676Y50905D01*
X225622Y50989D01*
X225572Y51055D01*
X225535Y51109D01*
X225506Y51147D01*
X225489Y51167D01*
X225481Y51176D01*
X225427Y51234D01*
X225368Y51292D01*
X225310Y51350D01*
X225256Y51400D01*
X225206Y51442D01*
X225169Y51475D01*
X225139Y51496D01*
X225135Y51504D01*
X225131D01*
X225081Y51534D01*
X225044Y51563D01*
X225019Y51587D01*
X225002Y51608D01*
X224990Y51625D01*
X224986Y51638D01*
X224981Y51646D01*
Y51650D01*
X224986Y51658D01*
X224998Y51671D01*
X225019Y51679D01*
X225040Y51687D01*
X225061Y51696D01*
X225081Y51700D01*
X225094Y51704D01*
X225098D01*
X225139Y51717D01*
X225177Y51725D01*
X225214Y51729D01*
X225243Y51733D01*
X225264Y51737D01*
X225281D01*
X225293D01*
X225298D01*
X225331Y51733D01*
D02*
G37*
G36*
X226317Y51717D02*
X226063Y51463D01*
Y50444D01*
X226699D01*
Y51758D01*
X227057Y51417D01*
X226824Y51184D01*
Y50444D01*
X227290D01*
X227378Y50573D01*
X227590Y50148D01*
X227440Y50156D01*
X227298Y50161D01*
X227170Y50165D01*
X227111D01*
X227057D01*
X227007Y50169D01*
X226962D01*
X226920D01*
X226887D01*
X226862D01*
X226841D01*
X226829D01*
X226824D01*
Y49004D01*
X226633Y49196D01*
X226654Y49283D01*
X226670Y49374D01*
X226683Y49458D01*
X226691Y49537D01*
X226695Y49603D01*
X226699Y49632D01*
Y50169D01*
X226063D01*
Y48705D01*
X225872Y48896D01*
X225892Y48983D01*
X225909Y49075D01*
X225922Y49158D01*
X225930Y49237D01*
X225934Y49304D01*
X225938Y49333D01*
Y49682D01*
X225834Y49616D01*
X225734Y49549D01*
X225639Y49478D01*
X225551Y49408D01*
X225468Y49341D01*
X225389Y49270D01*
X225318Y49204D01*
X225256Y49141D01*
X225198Y49079D01*
X225148Y49025D01*
X225102Y48979D01*
X225069Y48938D01*
X225040Y48900D01*
X225019Y48875D01*
X225006Y48859D01*
X225002Y48854D01*
X224940Y48896D01*
X224981Y48975D01*
X225031Y49058D01*
X225081Y49146D01*
X225139Y49229D01*
X225256Y49391D01*
X225314Y49470D01*
X225368Y49545D01*
X225422Y49611D01*
X225472Y49678D01*
X225518Y49732D01*
X225560Y49782D01*
X225593Y49819D01*
X225618Y49849D01*
X225635Y49869D01*
X225639Y49874D01*
X225680Y50082D01*
X225938Y49745D01*
Y52074D01*
X226317Y51717D01*
D02*
G37*
G36*
X223039Y51899D02*
X223072Y51733D01*
X223109Y51579D01*
X223151Y51429D01*
X223197Y51292D01*
X223247Y51167D01*
X223301Y51051D01*
X223351Y50943D01*
X223401Y50847D01*
X223446Y50764D01*
X223488Y50693D01*
X223530Y50635D01*
X223559Y50589D01*
X223584Y50556D01*
X223600Y50535D01*
X223604Y50527D01*
X223659Y50573D01*
X223721Y50622D01*
X223787Y50677D01*
X223862Y50731D01*
X224025Y50843D01*
X224187Y50955D01*
X224266Y51005D01*
X224337Y51051D01*
X224403Y51097D01*
X224461Y51130D01*
X224511Y51163D01*
X224545Y51184D01*
X224570Y51201D01*
X224578Y51205D01*
X224686Y51396D01*
X225002Y51059D01*
X224790Y50889D01*
Y49957D01*
X225065Y50169D01*
X225131Y50360D01*
X225406Y49936D01*
X225235Y49865D01*
X225073Y49790D01*
X224923Y49711D01*
X224782Y49632D01*
X224649Y49549D01*
X224528Y49470D01*
X224416Y49391D01*
X224316Y49312D01*
X224224Y49241D01*
X224145Y49175D01*
X224079Y49117D01*
X224021Y49062D01*
X223979Y49021D01*
X223946Y48992D01*
X223929Y48971D01*
X223921Y48963D01*
X223858Y49004D01*
X223958Y49146D01*
X224066Y49283D01*
X224179Y49412D01*
X224233Y49470D01*
X224283Y49528D01*
X224328Y49578D01*
X224374Y49624D01*
X224416Y49666D01*
X224449Y49699D01*
X224478Y49728D01*
X224499Y49749D01*
X224511Y49761D01*
X224516Y49766D01*
X224416Y49807D01*
X224316Y49845D01*
X224224Y49882D01*
X224141Y49919D01*
X224058Y49957D01*
X223983Y49994D01*
X223917Y50028D01*
X223854Y50057D01*
X223796Y50086D01*
X223746Y50111D01*
X223704Y50136D01*
X223671Y50152D01*
X223642Y50169D01*
X223621Y50182D01*
X223609Y50186D01*
X223604Y50190D01*
X223513Y50077D01*
X223421Y49957D01*
X223338Y49819D01*
X223255Y49678D01*
X223180Y49528D01*
X223109Y49379D01*
X223043Y49229D01*
X222985Y49083D01*
X222931Y48946D01*
X222881Y48813D01*
X222839Y48696D01*
X222818Y48642D01*
X222806Y48592D01*
X222789Y48547D01*
X222777Y48509D01*
X222764Y48472D01*
X222756Y48443D01*
X222747Y48422D01*
X222743Y48401D01*
X222739Y48393D01*
Y48388D01*
X222677Y48409D01*
X222698Y48559D01*
X222731Y48717D01*
X222764Y48871D01*
X222785Y48946D01*
X222802Y49017D01*
X222822Y49079D01*
X222839Y49141D01*
X222856Y49196D01*
X222868Y49241D01*
X222881Y49279D01*
X222889Y49308D01*
X222897Y49329D01*
Y49333D01*
X222935Y49433D01*
X222972Y49532D01*
X223055Y49720D01*
X223101Y49811D01*
X223147Y49894D01*
X223188Y49973D01*
X223234Y50048D01*
X223272Y50119D01*
X223313Y50177D01*
X223346Y50231D01*
X223376Y50277D01*
X223401Y50310D01*
X223417Y50340D01*
X223430Y50356D01*
X223434Y50360D01*
X223334Y50477D01*
X223238Y50593D01*
X223151Y50710D01*
X223072Y50822D01*
X223001Y50934D01*
X222939Y51047D01*
X222881Y51151D01*
X222835Y51246D01*
X222789Y51338D01*
X222752Y51421D01*
X222723Y51492D01*
X222698Y51554D01*
X222681Y51604D01*
X222664Y51642D01*
X222660Y51667D01*
X222656Y51675D01*
X222702Y51692D01*
X222743Y51708D01*
X222777Y51733D01*
X222810Y51762D01*
X222860Y51829D01*
X222897Y51899D01*
X222926Y51966D01*
X222935Y51995D01*
X222943Y52020D01*
X222947Y52041D01*
Y52062D01*
X222951Y52070D01*
Y52074D01*
X223014D01*
X223039Y51899D01*
D02*
G37*
G36*
X227378Y48663D02*
X227186Y48493D01*
Y47814D01*
X227398Y47477D01*
X227361D01*
X227315Y47482D01*
X227261D01*
X227199Y47486D01*
X227132D01*
X227053D01*
X226974Y47490D01*
X226887D01*
X226795D01*
X226699D01*
X226504Y47494D01*
X226300D01*
X226092D01*
X225892Y47498D01*
X225697D01*
X225610D01*
X225522D01*
X225439D01*
X225364D01*
X225293D01*
X225231D01*
X225177D01*
X225131D01*
X225094D01*
X225065D01*
X225048D01*
X225044D01*
X224861D01*
X224686D01*
X224520D01*
X224362D01*
X224216D01*
X224075D01*
X223941Y47494D01*
X223821D01*
X223704D01*
X223592D01*
X223492D01*
X223396Y47490D01*
X223309D01*
X223230D01*
X223151D01*
X223084D01*
X223022Y47486D01*
X222964D01*
X222910D01*
X222864D01*
X222822Y47482D01*
X222785D01*
X222752D01*
X222727D01*
X222681Y47477D01*
X222652D01*
X222635D01*
X222631D01*
X222802Y47773D01*
X224241D01*
X224216Y47844D01*
X224187Y47906D01*
X224154Y47960D01*
X224120Y48010D01*
X224087Y48052D01*
X224050Y48085D01*
X224016Y48114D01*
X223979Y48135D01*
X223950Y48156D01*
X223917Y48168D01*
X223887Y48180D01*
X223867Y48189D01*
X223846Y48193D01*
X223829Y48197D01*
X223821D01*
X223817D01*
X223833Y48280D01*
X223854Y48355D01*
X223879Y48426D01*
X223904Y48484D01*
X223933Y48538D01*
X223958Y48588D01*
X223987Y48626D01*
X224016Y48663D01*
X224045Y48692D01*
X224070Y48717D01*
X224091Y48738D01*
X224112Y48755D01*
X224129Y48767D01*
X224141Y48775D01*
X224149Y48779D01*
X224154D01*
X224249Y48817D01*
X224337Y48846D01*
X224416Y48867D01*
X224482Y48884D01*
X224540Y48892D01*
X224582Y48896D01*
X224599D01*
X224611D01*
X224615D01*
X224620D01*
X224678Y48892D01*
X224736Y48888D01*
X224794Y48879D01*
X224848Y48871D01*
X224894Y48859D01*
X224927Y48850D01*
X224952Y48846D01*
X224961Y48842D01*
X225031Y48817D01*
X225102Y48788D01*
X225169Y48750D01*
X225227Y48713D01*
X225277Y48680D01*
X225318Y48651D01*
X225343Y48630D01*
X225347Y48621D01*
X225352D01*
X225431Y48551D01*
X225514Y48476D01*
X225601Y48401D01*
X225676Y48326D01*
X225747Y48259D01*
X225776Y48230D01*
X225801Y48206D01*
X225822Y48185D01*
X225838Y48168D01*
X225847Y48160D01*
X225851Y48156D01*
X226953Y48771D01*
X227082Y48983D01*
X227378Y48663D01*
D02*
G37*
G36*
X223172Y46550D02*
X223193Y46516D01*
X223242Y46458D01*
X223301Y46417D01*
X223363Y46383D01*
X223421Y46363D01*
X223471Y46350D01*
X223488Y46346D01*
X223505Y46342D01*
X223513D01*
X223517D01*
X223634Y46334D01*
X223746Y46325D01*
X223858Y46321D01*
X223962Y46317D01*
X224008D01*
X224050Y46313D01*
X224087D01*
X224116D01*
X224145D01*
X224162D01*
X224174D01*
X224179D01*
Y46205D01*
X224050Y46200D01*
X223933Y46196D01*
X223825Y46188D01*
X223733Y46180D01*
X223650Y46171D01*
X223575Y46167D01*
X223513Y46159D01*
X223455Y46150D01*
X223409Y46142D01*
X223372Y46134D01*
X223338Y46126D01*
X223313Y46121D01*
X223297Y46117D01*
X223284Y46113D01*
X223280Y46109D01*
X223276D01*
X223218Y46080D01*
X223176Y46046D01*
X223143Y46009D01*
X223122Y45972D01*
X223109Y45938D01*
X223105Y45913D01*
X223101Y45897D01*
Y44961D01*
X223105Y44907D01*
X223118Y44861D01*
X223134Y44823D01*
X223155Y44790D01*
X223176Y44765D01*
X223201Y44740D01*
X223230Y44723D01*
X223280Y44699D01*
X223326Y44686D01*
X223346D01*
X223359Y44682D01*
X223367D01*
X223372D01*
X225639D01*
Y45547D01*
X224407D01*
X224349Y45543D01*
X224307Y45526D01*
X224278Y45506D01*
X224258Y45481D01*
X224245Y45452D01*
X224241Y45431D01*
X224237Y45414D01*
Y45352D01*
X224241Y45281D01*
X224245Y45206D01*
X224249Y45131D01*
Y45065D01*
X224253Y45035D01*
Y45006D01*
X224258Y44986D01*
Y44956D01*
X224174D01*
X224154Y45044D01*
X224129Y45119D01*
X224099Y45181D01*
X224070Y45239D01*
X224041Y45285D01*
X224008Y45323D01*
X223975Y45356D01*
X223946Y45381D01*
X223912Y45402D01*
X223887Y45418D01*
X223858Y45427D01*
X223837Y45435D01*
X223817Y45439D01*
X223804Y45443D01*
X223796D01*
X223792D01*
X223821Y45518D01*
X223854Y45581D01*
X223891Y45639D01*
X223933Y45684D01*
X223971Y45726D01*
X224012Y45759D01*
X224054Y45784D01*
X224095Y45805D01*
X224133Y45822D01*
X224166Y45830D01*
X224199Y45838D01*
X224229Y45843D01*
X224249Y45847D01*
X224266D01*
X224278D01*
X224283D01*
X225572D01*
X225701Y45992D01*
X225955Y45655D01*
X225764Y45526D01*
Y44682D01*
X225976Y44362D01*
X225851Y44370D01*
X225730Y44374D01*
X225618Y44378D01*
X225522D01*
X225477Y44382D01*
X225439D01*
X225402D01*
X225373D01*
X225352D01*
X225331D01*
X225323D01*
X225318D01*
X223284D01*
X223201Y44387D01*
X223126Y44399D01*
X223064Y44424D01*
X223010Y44462D01*
X222964Y44503D01*
X222926Y44549D01*
X222897Y44599D01*
X222872Y44653D01*
X222856Y44703D01*
X222843Y44757D01*
X222831Y44803D01*
X222827Y44848D01*
X222822Y44882D01*
Y45951D01*
X222827Y46042D01*
X222839Y46126D01*
X222856Y46196D01*
X222877Y46263D01*
X222901Y46325D01*
X222931Y46375D01*
X222960Y46421D01*
X222993Y46458D01*
X223022Y46492D01*
X223051Y46521D01*
X223080Y46542D01*
X223105Y46558D01*
X223130Y46571D01*
X223147Y46579D01*
X223155Y46587D01*
X223159D01*
X223172Y46550D01*
D02*
G37*
G36*
X227099Y44420D02*
X227136Y44407D01*
X227178Y44391D01*
X227211Y44374D01*
X227240Y44353D01*
X227261Y44337D01*
X227278Y44324D01*
X227282Y44320D01*
X227303Y44295D01*
X227328Y44266D01*
X227353Y44233D01*
X227378Y44195D01*
X227432Y44108D01*
X227482Y44016D01*
X227523Y43933D01*
X227544Y43892D01*
X227556Y43858D01*
X227573Y43833D01*
X227581Y43808D01*
X227590Y43796D01*
Y43792D01*
X227544Y43746D01*
X227477Y43800D01*
X227415Y43846D01*
X227353Y43892D01*
X227294Y43929D01*
X227240Y43962D01*
X227186Y43991D01*
X227136Y44016D01*
X227095Y44041D01*
X227053Y44058D01*
X227016Y44070D01*
X226987Y44083D01*
X226962Y44095D01*
X226941Y44100D01*
X226924Y44104D01*
X226916Y44108D01*
X226912D01*
X226878Y44116D01*
X226849Y44124D01*
X226799Y44141D01*
X226766Y44162D01*
X226745Y44179D01*
X226729Y44191D01*
X226725Y44203D01*
X226720Y44212D01*
Y44216D01*
X226725Y44233D01*
X226737Y44254D01*
X226758Y44274D01*
X226779Y44295D01*
X226799Y44312D01*
X226820Y44328D01*
X226833Y44337D01*
X226837Y44341D01*
X226878Y44370D01*
X226920Y44391D01*
X226957Y44403D01*
X226991Y44416D01*
X227020Y44420D01*
X227041Y44424D01*
X227053D01*
X227057D01*
X227099Y44420D01*
D02*
G37*
G36*
X225743Y43916D02*
X225531Y43771D01*
Y43047D01*
X225630Y43097D01*
X225730Y43143D01*
X225818Y43184D01*
X225897Y43222D01*
X225963Y43255D01*
X225992Y43268D01*
X226013Y43280D01*
X226034Y43288D01*
X226046Y43297D01*
X226055Y43301D01*
X226059D01*
X226146Y43471D01*
X226400Y43005D01*
X226163Y42947D01*
X225938Y42876D01*
X225830Y42839D01*
X225730Y42806D01*
X225630Y42768D01*
X225543Y42735D01*
X225460Y42702D01*
X225385Y42673D01*
X225318Y42643D01*
X225264Y42619D01*
X225219Y42602D01*
X225189Y42585D01*
X225169Y42577D01*
X225160Y42573D01*
X225048Y42519D01*
X224944Y42461D01*
X224840Y42402D01*
X224740Y42344D01*
X224649Y42286D01*
X224565Y42228D01*
X224482Y42173D01*
X224412Y42119D01*
X224345Y42070D01*
X224287Y42024D01*
X224233Y41986D01*
X224191Y41949D01*
X224158Y41920D01*
X224133Y41899D01*
X224116Y41886D01*
X224112Y41882D01*
X224050Y41924D01*
X224120Y42003D01*
X224187Y42082D01*
X224253Y42149D01*
X224316Y42215D01*
X224374Y42273D01*
X224432Y42327D01*
X224482Y42377D01*
X224532Y42419D01*
X224574Y42456D01*
X224611Y42490D01*
X224649Y42519D01*
X224674Y42540D01*
X224698Y42560D01*
X224715Y42573D01*
X224724Y42577D01*
X224728Y42581D01*
X224661Y42631D01*
X224599Y42677D01*
X224540Y42718D01*
X224482Y42756D01*
X224382Y42818D01*
X224337Y42843D01*
X224295Y42868D01*
X224258Y42885D01*
X224224Y42902D01*
X224199Y42914D01*
X224174Y42926D01*
X224158Y42935D01*
X224145Y42939D01*
X224137Y42943D01*
X224133D01*
X224083Y42960D01*
X224045Y42972D01*
X224021Y42989D01*
X224004Y43001D01*
X223991Y43010D01*
X223987Y43018D01*
X223983Y43026D01*
X223987Y43043D01*
X224000Y43060D01*
X224021Y43076D01*
X224041Y43093D01*
X224062Y43110D01*
X224083Y43122D01*
X224095Y43126D01*
X224099Y43130D01*
X224141Y43151D01*
X224183Y43168D01*
X224216Y43180D01*
X224245Y43189D01*
X224270Y43193D01*
X224287Y43197D01*
X224299D01*
X224303D01*
X224337Y43193D01*
X224370Y43180D01*
X224403Y43163D01*
X224436Y43143D01*
X224461Y43122D01*
X224482Y43105D01*
X224499Y43093D01*
X224503Y43089D01*
X224524Y43068D01*
X224549Y43039D01*
X224574Y43005D01*
X224599Y42972D01*
X224644Y42897D01*
X224690Y42818D01*
X224732Y42743D01*
X224748Y42710D01*
X224761Y42681D01*
X224773Y42656D01*
X224782Y42639D01*
X224790Y42627D01*
Y42623D01*
X224865Y42673D01*
X224932Y42718D01*
X224998Y42760D01*
X225056Y42802D01*
X225110Y42835D01*
X225160Y42868D01*
X225210Y42893D01*
X225248Y42918D01*
X225285Y42939D01*
X225318Y42960D01*
X225343Y42972D01*
X225368Y42985D01*
X225385Y42993D01*
X225397Y43001D01*
X225402Y43005D01*
X225406D01*
Y43792D01*
X225223Y43750D01*
X225052Y43704D01*
X224890Y43654D01*
X224736Y43600D01*
X224594Y43546D01*
X224461Y43492D01*
X224345Y43438D01*
X224237Y43388D01*
X224137Y43338D01*
X224054Y43292D01*
X223983Y43251D01*
X223921Y43213D01*
X223875Y43184D01*
X223842Y43163D01*
X223821Y43147D01*
X223813Y43143D01*
X223704Y43055D01*
X223596Y42960D01*
X223488Y42856D01*
X223384Y42743D01*
X223288Y42631D01*
X223193Y42515D01*
X223105Y42398D01*
X223022Y42290D01*
X222947Y42182D01*
X222881Y42082D01*
X222822Y41990D01*
X222773Y41911D01*
X222731Y41849D01*
X222714Y41820D01*
X222702Y41799D01*
X222689Y41782D01*
X222685Y41770D01*
X222677Y41762D01*
Y41758D01*
X222610Y41799D01*
X222669Y41932D01*
X222727Y42057D01*
X222785Y42178D01*
X222847Y42290D01*
X222906Y42394D01*
X222964Y42494D01*
X223018Y42585D01*
X223072Y42664D01*
X223122Y42739D01*
X223168Y42806D01*
X223209Y42860D01*
X223242Y42910D01*
X223272Y42943D01*
X223292Y42972D01*
X223305Y42989D01*
X223309Y42993D01*
X223384Y43080D01*
X223463Y43159D01*
X223542Y43238D01*
X223621Y43309D01*
X223696Y43371D01*
X223771Y43430D01*
X223846Y43484D01*
X223912Y43534D01*
X223975Y43575D01*
X224033Y43613D01*
X224087Y43642D01*
X224129Y43667D01*
X224166Y43688D01*
X224195Y43700D01*
X224212Y43709D01*
X224216Y43713D01*
X224412Y43800D01*
X224603Y43879D01*
X224790Y43946D01*
X224877Y43975D01*
X224961Y44004D01*
X225036Y44025D01*
X225106Y44050D01*
X225165Y44066D01*
X225219Y44079D01*
X225260Y44091D01*
X225293Y44100D01*
X225310Y44108D01*
X225318D01*
X225468Y44278D01*
X225743Y43916D01*
D02*
G37*
G36*
X226887Y46080D02*
X226675Y45888D01*
Y42477D01*
X226949Y42436D01*
Y42348D01*
X226866Y42336D01*
X226791Y42319D01*
X226716Y42302D01*
X226650Y42282D01*
X226583Y42261D01*
X226525Y42240D01*
X226471Y42219D01*
X226421Y42198D01*
X226379Y42178D01*
X226342Y42157D01*
X226308Y42140D01*
X226279Y42123D01*
X226259Y42111D01*
X226242Y42103D01*
X226234Y42099D01*
X226229Y42094D01*
X226184Y42061D01*
X226142Y42036D01*
X226109Y42015D01*
X226076Y42003D01*
X226051Y41995D01*
X226034Y41990D01*
X226021D01*
X226017D01*
X225996Y41999D01*
X225980Y42015D01*
X225963Y42040D01*
X225951Y42070D01*
X225942Y42099D01*
X225938Y42123D01*
X225934Y42140D01*
Y42207D01*
X225942Y42257D01*
X225955Y42298D01*
X225976Y42336D01*
X225992Y42365D01*
X226013Y42386D01*
X226026Y42398D01*
X226030Y42402D01*
X226076Y42436D01*
X226121Y42456D01*
X226171Y42473D01*
X226217Y42485D01*
X226254Y42494D01*
X226284Y42498D01*
X226304D01*
X226313D01*
X226396Y42494D01*
X226433Y42490D01*
X226471D01*
X226504Y42485D01*
X226529Y42481D01*
X226546Y42477D01*
X226550D01*
Y45909D01*
X226059Y45614D01*
X226017Y45676D01*
X226105Y45763D01*
X226180Y45843D01*
X226242Y45922D01*
X226300Y45992D01*
X226346Y46059D01*
X226383Y46121D01*
X226417Y46180D01*
X226442Y46234D01*
X226462Y46279D01*
X226479Y46321D01*
X226487Y46354D01*
X226496Y46383D01*
X226500Y46408D01*
X226504Y46425D01*
Y46437D01*
X226887Y46080D01*
D02*
G37*
%LPC*%
G36*
X210979Y61120D02*
X210963D01*
X210950D01*
X210942D01*
X210938D01*
X210850Y61116D01*
X210775Y61103D01*
X210709Y61083D01*
X210659Y61066D01*
X210617Y61045D01*
X210588Y61024D01*
X210567Y61012D01*
X210563Y61008D01*
X210522Y60962D01*
X210493Y60916D01*
X210468Y60870D01*
X210455Y60825D01*
X210447Y60787D01*
X210443Y60758D01*
X210438Y60737D01*
Y60729D01*
X210443Y60663D01*
X210459Y60604D01*
X210480Y60550D01*
X210509Y60509D01*
X210534Y60471D01*
X210555Y60442D01*
X210572Y60425D01*
X210576Y60421D01*
X210630Y60380D01*
X210692Y60351D01*
X210759Y60326D01*
X210817Y60313D01*
X210875Y60305D01*
X210917Y60301D01*
X210934Y60296D01*
X210946D01*
X210954D01*
X210959D01*
X211046Y60301D01*
X211117Y60317D01*
X211183Y60334D01*
X211233Y60359D01*
X211275Y60380D01*
X211304Y60400D01*
X211325Y60413D01*
X211329Y60417D01*
X211374Y60463D01*
X211408Y60513D01*
X211429Y60563D01*
X211445Y60608D01*
X211454Y60650D01*
X211462Y60683D01*
Y60712D01*
X211458Y60775D01*
X211441Y60833D01*
X211420Y60883D01*
X211395Y60925D01*
X211366Y60958D01*
X211345Y60983D01*
X211329Y61000D01*
X211325Y61004D01*
X211271Y61041D01*
X211208Y61070D01*
X211146Y61091D01*
X211083Y61108D01*
X211025Y61116D01*
X210979Y61120D01*
D02*
G37*
G36*
X212140Y52833D02*
X211183D01*
Y52018D01*
X212140Y52833D01*
D02*
G37*
G36*
X211566Y47359D02*
X211524D01*
X211491D01*
X211474D01*
X211466D01*
X211391D01*
X211320D01*
X211258Y47355D01*
X211196Y47350D01*
X211142Y47346D01*
X211092D01*
X211050Y47342D01*
X211009Y47338D01*
X210971Y47334D01*
X210942Y47330D01*
X210917Y47326D01*
X210896Y47321D01*
X210879Y47317D01*
X210867D01*
X210863Y47313D01*
X210859D01*
X210792Y47292D01*
X210734Y47271D01*
X210684Y47247D01*
X210647Y47226D01*
X210613Y47205D01*
X210593Y47188D01*
X210580Y47176D01*
X210576Y47172D01*
X210547Y47134D01*
X210526Y47097D01*
X210509Y47063D01*
X210501Y47026D01*
X210493Y46997D01*
X210489Y46972D01*
Y46951D01*
X210493Y46914D01*
X210497Y46880D01*
X210522Y46822D01*
X210555Y46772D01*
X210593Y46727D01*
X210630Y46693D01*
X210663Y46672D01*
X210688Y46656D01*
X210692Y46652D01*
X210697D01*
X210742Y46635D01*
X210792Y46618D01*
X210850Y46606D01*
X210909Y46593D01*
X211042Y46577D01*
X211175Y46564D01*
X211237Y46560D01*
X211296Y46556D01*
X211350D01*
X211395Y46552D01*
X211437D01*
X211466D01*
X211483D01*
X211491D01*
X211595D01*
X211691Y46556D01*
X211778Y46560D01*
X211857Y46564D01*
X211928Y46573D01*
X211990Y46581D01*
X212049Y46589D01*
X212098Y46598D01*
X212144Y46606D01*
X212182Y46614D01*
X212211Y46622D01*
X212236Y46631D01*
X212252Y46635D01*
X212269Y46639D01*
X212273Y46643D01*
X212277D01*
X212315Y46660D01*
X212348Y46681D01*
X212377Y46706D01*
X212402Y46731D01*
X212439Y46781D01*
X212464Y46830D01*
X212477Y46876D01*
X212485Y46914D01*
X212489Y46939D01*
Y46947D01*
X212485Y46984D01*
X212481Y47018D01*
X212456Y47080D01*
X212423Y47134D01*
X212385Y47176D01*
X212348Y47213D01*
X212315Y47234D01*
X212290Y47251D01*
X212286Y47255D01*
X212281D01*
X212240Y47271D01*
X212186Y47288D01*
X212127Y47305D01*
X212065Y47313D01*
X211932Y47334D01*
X211795Y47346D01*
X211732Y47350D01*
X211670Y47355D01*
X211612D01*
X211566Y47359D01*
D02*
G37*
G36*
X219518Y64359D02*
X219339Y64321D01*
X219173Y64280D01*
X219011Y64234D01*
X218861Y64184D01*
X218715Y64134D01*
X218586Y64084D01*
X218461Y64034D01*
X218353Y63984D01*
X218253Y63934D01*
X218162Y63889D01*
X218087Y63847D01*
X218025Y63814D01*
X217975Y63784D01*
X217937Y63764D01*
X217916Y63747D01*
X217908Y63743D01*
X218033Y63656D01*
X218162Y63572D01*
X218295Y63497D01*
X218432Y63427D01*
X218566Y63364D01*
X218703Y63306D01*
X218832Y63252D01*
X218956Y63206D01*
X219073Y63165D01*
X219177Y63131D01*
X219273Y63098D01*
X219356Y63073D01*
X219393Y63065D01*
X219427Y63056D01*
X219451Y63048D01*
X219477Y63044D01*
X219493Y63036D01*
X219506D01*
X219514Y63032D01*
X219518D01*
Y64359D01*
D02*
G37*
G36*
X219647Y56434D02*
X218915D01*
Y55390D01*
X219647D01*
Y56434D01*
D02*
G37*
G36*
X218819D02*
X218066D01*
Y55390D01*
X218819D01*
Y56434D01*
D02*
G37*
G36*
X219647Y55157D02*
X218915D01*
Y54096D01*
X219647D01*
Y55157D01*
D02*
G37*
G36*
X218819D02*
X218066D01*
Y54096D01*
X218819D01*
Y55157D01*
D02*
G37*
G36*
X220030Y45368D02*
X219181D01*
Y44936D01*
X220030D01*
Y45368D01*
D02*
G37*
G36*
X219086D02*
X218299D01*
Y44936D01*
X219086D01*
Y45368D01*
D02*
G37*
G36*
X220030Y44241D02*
X219181D01*
Y43858D01*
X220030D01*
Y44241D01*
D02*
G37*
G36*
X219086D02*
X218299D01*
Y43858D01*
X219086D01*
Y44241D01*
D02*
G37*
G36*
X224665Y50889D02*
X224490Y50810D01*
X224328Y50722D01*
X224249Y50677D01*
X224179Y50631D01*
X224108Y50585D01*
X224045Y50543D01*
X223987Y50502D01*
X223933Y50464D01*
X223887Y50427D01*
X223850Y50398D01*
X223817Y50373D01*
X223796Y50356D01*
X223779Y50344D01*
X223775Y50340D01*
X223821Y50294D01*
X223879Y50252D01*
X223937Y50206D01*
X224004Y50161D01*
X224137Y50077D01*
X224274Y49998D01*
X224341Y49961D01*
X224399Y49928D01*
X224453Y49899D01*
X224503Y49874D01*
X224545Y49857D01*
X224574Y49840D01*
X224590Y49832D01*
X224599Y49828D01*
X224665Y49894D01*
Y50889D01*
D02*
G37*
G36*
X224715Y48588D02*
X224653D01*
X224599Y48584D01*
X224553Y48580D01*
X224511Y48572D01*
X224478Y48563D01*
X224449Y48551D01*
X224424Y48542D01*
X224403Y48530D01*
X224387Y48522D01*
X224374Y48513D01*
X224362Y48497D01*
X224357Y48493D01*
X224332Y48447D01*
X224316Y48397D01*
X224299Y48351D01*
X224291Y48309D01*
X224287Y48272D01*
X224283Y48243D01*
Y48193D01*
X224287Y48164D01*
X224295Y48097D01*
X224303Y48022D01*
X224316Y47947D01*
X224328Y47881D01*
X224332Y47852D01*
X224341Y47827D01*
X224345Y47802D01*
Y47785D01*
X224349Y47777D01*
Y47773D01*
X227061D01*
Y48493D01*
X225851Y48027D01*
X225747Y48118D01*
X225643Y48197D01*
X225547Y48268D01*
X225456Y48330D01*
X225368Y48380D01*
X225285Y48426D01*
X225210Y48463D01*
X225139Y48497D01*
X225077Y48522D01*
X225023Y48538D01*
X224973Y48555D01*
X224932Y48567D01*
X224898Y48572D01*
X224877Y48576D01*
X224861Y48580D01*
X224857D01*
X224782Y48584D01*
X224715Y48588D01*
D02*
G37*
%LPD*%
D58*
X240905Y47399D02*
D03*
Y57399D02*
D03*
X19685Y47400D02*
D03*
Y57400D02*
D03*
D59*
X185302Y93900D02*
D03*
X204200D02*
D03*
X223097D02*
D03*
D60*
X108100Y95600D02*
D03*
X88415D02*
D03*
D61*
X17717Y93504D02*
D03*
X242874D02*
D03*
Y13780D02*
D03*
X17717D02*
D03*
D62*
X151100Y31600D02*
D03*
X155628D02*
D03*
X151100Y27072D02*
D03*
X146572Y31600D02*
D03*
X151100Y36128D02*
D03*
X108500Y48572D02*
D03*
X113028Y53100D02*
D03*
X108500Y57628D02*
D03*
X103972Y53100D02*
D03*
X108500D02*
D03*
M02*
