G04*
G04 #@! TF.GenerationSoftware,Altium Limited,Altium Designer,22.7.1 (60)*
G04*
G04 Layer_Color=128*
%FSLAX25Y25*%
%MOIN*%
G70*
G04*
G04 #@! TF.SameCoordinates,FE68ECFD-9EB9-4A45-832B-2F671F2585F3*
G04*
G04*
G04 #@! TF.FilePolarity,Positive*
G04*
G01*
G75*
%ADD10C,0.01000*%
%ADD11C,0.00200*%
D10*
X260591Y89608D02*
G03*
X242874Y107324I-17717J0D01*
G01*
Y41D02*
G03*
X260591Y17757I0J17717D01*
G01*
X17717Y107324D02*
G03*
X0Y89608I0J-17717D01*
G01*
Y17757D02*
G03*
X17717Y41I17717J0D01*
G01*
X242874D01*
X17717Y107324D02*
X242874D01*
X260591Y17757D02*
Y89608D01*
X0Y17757D02*
Y89608D01*
D11*
X238937Y47399D02*
X242874D01*
X240905Y45430D02*
Y49367D01*
X238937Y57399D02*
X242874D01*
X240905Y55431D02*
Y59368D01*
X17717Y47400D02*
X21654D01*
X19685Y45432D02*
Y49369D01*
X17717Y57400D02*
X21654D01*
X19685Y55431D02*
Y59368D01*
X183137Y93900D02*
X187468D01*
X185302Y91735D02*
Y96065D01*
X202034Y93900D02*
X206365D01*
X204200Y91735D02*
Y96065D01*
X220932Y93900D02*
X225263D01*
X223097Y91735D02*
Y96065D01*
X105935Y95600D02*
X110265D01*
X108100Y93435D02*
Y97765D01*
X86250Y95600D02*
X90580D01*
X88415Y93435D02*
Y97765D01*
X11811Y93504D02*
X23622D01*
X17717Y87599D02*
Y99409D01*
X236968Y93504D02*
X248780D01*
X242874Y87599D02*
Y99409D01*
X236968Y13780D02*
X248780D01*
X242874Y7874D02*
Y19685D01*
X11811Y13780D02*
X23622D01*
X17717Y7874D02*
Y19685D01*
X3700Y78900D02*
X4900D01*
X4300Y78300D02*
Y79500D01*
X13700Y78900D02*
X14900D01*
X14300Y78300D02*
Y79500D01*
X241600Y28700D02*
X242800D01*
X242200Y28100D02*
Y29300D01*
X251600Y28700D02*
X252800D01*
X252200Y28100D02*
Y29300D01*
X184400Y50900D02*
X185600D01*
X185000Y50300D02*
Y51500D01*
X188900Y50900D02*
X190100D01*
X189500Y50300D02*
Y51500D01*
X193400Y50900D02*
X194600D01*
X194000Y50300D02*
Y51500D01*
X85700Y17400D02*
X86900D01*
X86300Y16800D02*
Y18000D01*
X83789Y19751D02*
X84988D01*
X84389Y19151D02*
Y20351D01*
X81794Y21992D02*
X82994D01*
X82394Y21392D02*
Y22592D01*
X125900Y61100D02*
X127100D01*
X126500Y60500D02*
Y61700D01*
X116600Y67600D02*
X117800D01*
X117200Y67000D02*
Y68200D01*
X137287Y60587D02*
X138487D01*
X137887Y59987D02*
Y61187D01*
X145350Y53600D02*
X146550D01*
X145950Y53000D02*
Y54200D01*
X130200Y23300D02*
X131400D01*
X130800Y22700D02*
Y23900D01*
X169200Y39200D02*
X170400D01*
X169800Y38600D02*
Y39800D01*
X130900Y72000D02*
X132100D01*
X131500Y71400D02*
Y72600D01*
X140500Y71900D02*
X141700D01*
X141100Y71300D02*
Y72500D01*
X162700Y77100D02*
X163900D01*
X163300Y76500D02*
Y77700D01*
X162700Y70100D02*
X163900D01*
X163300Y69500D02*
Y70700D01*
X89100Y45700D02*
X90300D01*
X89700Y45100D02*
Y46300D01*
X97000Y63961D02*
X98200D01*
X97600Y63361D02*
Y64561D01*
X91044Y61256D02*
X92244D01*
X91644Y60656D02*
Y61856D01*
X128500Y74600D02*
X129700D01*
X129100Y74000D02*
Y75200D01*
X130600Y66800D02*
X131800D01*
X131200Y66200D02*
Y67400D01*
X145881Y15619D02*
X147081D01*
X146482Y15019D02*
Y16219D01*
X146021Y18616D02*
X147221D01*
X146621Y18016D02*
Y19216D01*
X61300Y71700D02*
X62500D01*
X61900Y71100D02*
Y72300D01*
X124537Y20700D02*
X125737D01*
X125137Y20100D02*
Y21300D01*
X119000Y62300D02*
X120200D01*
X119600Y61700D02*
Y62900D01*
X116600Y60000D02*
X117800D01*
X117200Y59400D02*
Y60600D01*
X110287Y79213D02*
X111487D01*
X110887Y78613D02*
Y79813D01*
X115600Y81600D02*
X116800D01*
X116200Y81000D02*
Y82200D01*
X152237Y64323D02*
X153437D01*
X152837Y63723D02*
Y64923D01*
X152060Y72000D02*
X153260D01*
X152660Y71400D02*
Y72600D01*
X59291Y12800D02*
X60491D01*
X59891Y12200D02*
Y13400D01*
X141839Y23400D02*
X143039D01*
X142439Y22800D02*
Y24000D01*
X141839Y40360D02*
X143039D01*
X142439Y39760D02*
Y40960D01*
X116660Y44783D02*
X117860D01*
X117260Y44183D02*
Y45383D01*
X34990Y71625D02*
X36190D01*
X35590Y71025D02*
Y72225D01*
X125500Y27663D02*
X126700D01*
X126100Y27063D02*
Y28263D01*
X128100Y57242D02*
X129300D01*
X128700Y56642D02*
Y57842D01*
X162400Y18800D02*
X163600D01*
X163000Y18200D02*
Y19400D01*
X169056Y22944D02*
X170256D01*
X169656Y22344D02*
Y23544D01*
X166494Y26606D02*
X167694D01*
X167094Y26006D02*
Y27206D01*
X185600Y76300D02*
X186800D01*
X186200Y75700D02*
Y76900D01*
X183400Y73700D02*
X184600D01*
X184000Y73100D02*
Y74300D01*
X202200Y60900D02*
X203400D01*
X202800Y60300D02*
Y61500D01*
X94400Y58000D02*
X95600D01*
X95000Y57400D02*
Y58600D01*
X150500Y31600D02*
X151700D01*
X151100Y31000D02*
Y32200D01*
X155028Y31600D02*
X156228D01*
X155628Y31000D02*
Y32200D01*
X150500Y27072D02*
X151700D01*
X151100Y26472D02*
Y27672D01*
X145972Y31600D02*
X147172D01*
X146572Y31000D02*
Y32200D01*
X150500Y36128D02*
X151700D01*
X151100Y35528D02*
Y36728D01*
X107900Y48572D02*
X109100D01*
X108500Y47972D02*
Y49172D01*
X112428Y53100D02*
X113628D01*
X113028Y52500D02*
Y53700D01*
X107900Y57628D02*
X109100D01*
X108500Y57028D02*
Y58228D01*
X103372Y53100D02*
X104572D01*
X103972Y52500D02*
Y53700D01*
X107900Y53100D02*
X109100D01*
X108500Y52500D02*
Y53700D01*
X93900Y23400D02*
X95100D01*
X94500Y22800D02*
Y24000D01*
X193900Y93400D02*
X195100D01*
X194500Y92800D02*
Y94000D01*
X213900Y83400D02*
X215100D01*
X214500Y82800D02*
Y84000D01*
X223900Y83400D02*
X225100D01*
X224500Y82800D02*
Y84000D01*
X43900Y3400D02*
X45100D01*
X44500Y2800D02*
Y4000D01*
X223900Y3400D02*
X225100D01*
X224500Y2800D02*
Y4000D01*
X213900Y93400D02*
X215100D01*
X214500Y92800D02*
Y94000D01*
X83900Y73400D02*
X85100D01*
X84500Y72800D02*
Y74000D01*
X243900Y73400D02*
X245100D01*
X244500Y72800D02*
Y74000D01*
X203900Y13400D02*
X205100D01*
X204500Y12800D02*
Y14000D01*
X103900Y23400D02*
X105100D01*
X104500Y22800D02*
Y24000D01*
X203900Y3400D02*
X205100D01*
X204500Y2800D02*
Y4000D01*
X43900Y13400D02*
X45100D01*
X44500Y12800D02*
Y14000D01*
X233900Y73400D02*
X235100D01*
X234500Y72800D02*
Y74000D01*
X83900Y83400D02*
X85100D01*
X84500Y82800D02*
Y84000D01*
X113900Y93400D02*
X115100D01*
X114500Y92800D02*
Y94000D01*
X183900Y83400D02*
X185100D01*
X184500Y82800D02*
Y84000D01*
X43900Y83400D02*
X45100D01*
X44500Y82800D02*
Y84000D01*
X33900Y13400D02*
X35100D01*
X34500Y12800D02*
Y14000D01*
X53900Y83400D02*
X55100D01*
X54500Y82800D02*
Y84000D01*
X203900Y83400D02*
X205100D01*
X204500Y82800D02*
Y84000D01*
X33900Y83400D02*
X35100D01*
X34500Y82800D02*
Y84000D01*
X93900Y83400D02*
X95100D01*
X94500Y82800D02*
Y84000D01*
X193900Y83400D02*
X195100D01*
X194500Y82800D02*
Y84000D01*
X213900Y3400D02*
X215100D01*
X214500Y2800D02*
Y4000D01*
X103900Y83400D02*
X105100D01*
X104500Y82800D02*
Y84000D01*
X223900Y13400D02*
X225100D01*
X224500Y12800D02*
Y14000D01*
X253900Y73400D02*
X255100D01*
X254500Y72800D02*
Y74000D01*
X93900Y73400D02*
X95100D01*
X94500Y72800D02*
Y74000D01*
X33900Y93400D02*
X35100D01*
X34500Y92800D02*
Y94000D01*
X213900Y13400D02*
X215100D01*
X214500Y12800D02*
Y14000D01*
X73900Y58400D02*
X75100D01*
X74500Y57800D02*
Y59000D01*
X68900Y53400D02*
X70100D01*
X69500Y52800D02*
Y54000D01*
X68900Y28400D02*
X70100D01*
X69500Y27800D02*
Y29000D01*
X68900Y63400D02*
X70100D01*
X69500Y62800D02*
Y64000D01*
X68900Y68400D02*
X70100D01*
X69500Y67800D02*
Y69000D01*
X73900Y68400D02*
X75100D01*
X74500Y67800D02*
Y69000D01*
X68900Y38400D02*
X70100D01*
X69500Y37800D02*
Y39000D01*
X73900Y28400D02*
X75100D01*
X74500Y27800D02*
Y29000D01*
X68900Y58400D02*
X70100D01*
X69500Y57800D02*
Y59000D01*
X73900Y33400D02*
X75100D01*
X74500Y32800D02*
Y34000D01*
X73900Y63400D02*
X75100D01*
X74500Y62800D02*
Y64000D01*
X73900Y53400D02*
X75100D01*
X74500Y52800D02*
Y54000D01*
X68900Y33400D02*
X70100D01*
X69500Y32800D02*
Y34000D01*
X73900Y38400D02*
X75100D01*
X74500Y37800D02*
Y39000D01*
X130400Y85400D02*
X131600D01*
X131000Y84800D02*
Y86000D01*
X131900Y88400D02*
X133100D01*
X132500Y87800D02*
Y89000D01*
X128900Y88400D02*
X130100D01*
X129500Y87800D02*
Y89000D01*
X188900Y28400D02*
X190100D01*
X189500Y27800D02*
Y29000D01*
X188900Y37400D02*
X190100D01*
X189500Y36800D02*
Y38000D01*
X184400Y37400D02*
X185600D01*
X185000Y36800D02*
Y38000D01*
X184400Y28400D02*
X185600D01*
X185000Y27800D02*
Y29000D01*
X188900Y41900D02*
X190100D01*
X189500Y41300D02*
Y42500D01*
X193400Y32900D02*
X194600D01*
X194000Y32300D02*
Y33500D01*
X188900Y32900D02*
X190100D01*
X189500Y32300D02*
Y33500D01*
X184400Y32900D02*
X185600D01*
X185000Y32300D02*
Y33500D01*
X193400Y41900D02*
X194600D01*
X194000Y41300D02*
Y42500D01*
X193400Y37400D02*
X194600D01*
X194000Y36800D02*
Y38000D01*
X184400Y41900D02*
X185600D01*
X185000Y41300D02*
Y42500D01*
X193400Y28400D02*
X194600D01*
X194000Y27800D02*
Y29000D01*
X184400Y55400D02*
X185600D01*
X185000Y54800D02*
Y56000D01*
X188900Y59900D02*
X190100D01*
X189500Y59300D02*
Y60500D01*
X184400Y59900D02*
X185600D01*
X185000Y59300D02*
Y60500D01*
X193400Y64400D02*
X194600D01*
X194000Y63800D02*
Y65000D01*
X193400Y55400D02*
X194600D01*
X194000Y54800D02*
Y56000D01*
X184400Y64400D02*
X185600D01*
X185000Y63800D02*
Y65000D01*
X193400Y59900D02*
X194600D01*
X194000Y59300D02*
Y60500D01*
X188900Y55400D02*
X190100D01*
X189500Y54800D02*
Y56000D01*
X188900Y64400D02*
X190100D01*
X189500Y63800D02*
Y65000D01*
M02*
