G04*
G04 #@! TF.GenerationSoftware,Altium Limited,Altium Designer,22.7.1 (60)*
G04*
G04 Layer_Color=2752767*
%FSLAX25Y25*%
%MOIN*%
G70*
G04*
G04 #@! TF.SameCoordinates,FE68ECFD-9EB9-4A45-832B-2F671F2585F3*
G04*
G04*
G04 #@! TF.FilePolarity,Positive*
G04*
G01*
G75*
%ADD10C,0.01000*%
%ADD11C,0.00200*%
%ADD12C,0.00267*%
D10*
X260591Y89608D02*
G03*
X242874Y107324I-17717J0D01*
G01*
Y41D02*
G03*
X260591Y17757I0J17717D01*
G01*
X17717Y107324D02*
G03*
X0Y89608I0J-17717D01*
G01*
Y17757D02*
G03*
X17717Y41I17717J0D01*
G01*
X242874D01*
X17717Y107324D02*
X242874D01*
X260591Y17757D02*
Y89608D01*
X0Y17757D02*
Y89608D01*
D11*
X240106Y46599D02*
X240506Y47399D01*
X240106Y48199D01*
X240905Y47799D01*
X241705Y48199D01*
X241305Y47399D01*
X241705Y46599D01*
X240905Y46999D01*
X240106Y46599D01*
Y56599D02*
X240506Y57399D01*
X240106Y58199D01*
X240905Y57799D01*
X241705Y58199D01*
X241305Y57399D01*
X241705Y56599D01*
X240905Y56999D01*
X240106Y56599D01*
X18885Y46600D02*
X19285Y47400D01*
X18885Y48200D01*
X19685Y47800D01*
X20485Y48200D01*
X20085Y47400D01*
X20485Y46600D01*
X19685Y47000D01*
X18885Y46600D01*
Y56600D02*
X19285Y57400D01*
X18885Y58200D01*
X19685Y57800D01*
X20485Y58200D01*
X20085Y57400D01*
X20485Y56600D01*
X19685Y57000D01*
X18885Y56600D01*
X184502Y93100D02*
Y94700D01*
X186102D01*
Y93100D01*
X184502D01*
X203399D02*
Y94700D01*
X204999D01*
Y93100D01*
X203399D01*
X222298D02*
Y94700D01*
X223898D01*
Y93100D01*
X222298D01*
X17717Y92704D02*
X16917Y94304D01*
X18517D01*
X17717Y92704D01*
X242874D02*
X242074Y94304D01*
X243674D01*
X242874Y92704D01*
Y12979D02*
X242074Y14580D01*
X243674D01*
X242874Y12979D01*
X17717D02*
X16917Y14580D01*
X18517D01*
X17717Y12979D01*
X4300Y78100D02*
X4700Y78500D01*
X5100D01*
X4700Y78900D01*
X5100Y79300D01*
X4700D01*
X4300Y79700D01*
X3900Y79300D01*
X3500D01*
X3900Y78900D01*
X3500Y78500D01*
X3900D01*
X4300Y78100D01*
X14300D02*
X14700Y78500D01*
X15100D01*
X14700Y78900D01*
X15100Y79300D01*
X14700D01*
X14300Y79700D01*
X13900Y79300D01*
X13500D01*
X13900Y78900D01*
X13500Y78500D01*
X13900D01*
X14300Y78100D01*
X242200Y27900D02*
X242600Y28300D01*
X243000D01*
X242600Y28700D01*
X243000Y29100D01*
X242600D01*
X242200Y29500D01*
X241800Y29100D01*
X241400D01*
X241800Y28700D01*
X241400Y28300D01*
X241800D01*
X242200Y27900D01*
X252200D02*
X252600Y28300D01*
X253000D01*
X252600Y28700D01*
X253000Y29100D01*
X252600D01*
X252200Y29500D01*
X251800Y29100D01*
X251400D01*
X251800Y28700D01*
X251400Y28300D01*
X251800D01*
X252200Y27900D01*
X185000Y50100D02*
X185400Y50500D01*
X185800D01*
X185400Y50900D01*
X185800Y51300D01*
X185400D01*
X185000Y51700D01*
X184600Y51300D01*
X184200D01*
X184600Y50900D01*
X184200Y50500D01*
X184600D01*
X185000Y50100D01*
X189500D02*
X189900Y50500D01*
X190300D01*
X189900Y50900D01*
X190300Y51300D01*
X189900D01*
X189500Y51700D01*
X189100Y51300D01*
X188700D01*
X189100Y50900D01*
X188700Y50500D01*
X189100D01*
X189500Y50100D01*
X194000D02*
X194400Y50500D01*
X194800D01*
X194400Y50900D01*
X194800Y51300D01*
X194400D01*
X194000Y51700D01*
X193600Y51300D01*
X193200D01*
X193600Y50900D01*
X193200Y50500D01*
X193600D01*
X194000Y50100D01*
X86300Y16600D02*
X86700Y17000D01*
X87100D01*
X86700Y17400D01*
X87100Y17800D01*
X86700D01*
X86300Y18200D01*
X85900Y17800D01*
X85500D01*
X85900Y17400D01*
X85500Y17000D01*
X85900D01*
X86300Y16600D01*
X84389Y18951D02*
X84789Y19351D01*
X85189D01*
X84789Y19751D01*
X85189Y20151D01*
X84789D01*
X84389Y20551D01*
X83988Y20151D01*
X83588D01*
X83988Y19751D01*
X83588Y19351D01*
X83988D01*
X84389Y18951D01*
X82394Y21192D02*
X82794Y21592D01*
X83194D01*
X82794Y21992D01*
X83194Y22392D01*
X82794D01*
X82394Y22792D01*
X81994Y22392D01*
X81594D01*
X81994Y21992D01*
X81594Y21592D01*
X81994D01*
X82394Y21192D01*
X126500Y60300D02*
X126900Y60700D01*
X127300D01*
X126900Y61100D01*
X127300Y61500D01*
X126900D01*
X126500Y61900D01*
X126100Y61500D01*
X125700D01*
X126100Y61100D01*
X125700Y60700D01*
X126100D01*
X126500Y60300D01*
X117200Y66800D02*
X117600Y67200D01*
X118000D01*
X117600Y67600D01*
X118000Y68000D01*
X117600D01*
X117200Y68400D01*
X116800Y68000D01*
X116400D01*
X116800Y67600D01*
X116400Y67200D01*
X116800D01*
X117200Y66800D01*
X137887Y59787D02*
X138287Y60187D01*
X138687D01*
X138287Y60587D01*
X138687Y60987D01*
X138287D01*
X137887Y61387D01*
X137487Y60987D01*
X137087D01*
X137487Y60587D01*
X137087Y60187D01*
X137487D01*
X137887Y59787D01*
X145950Y52800D02*
X146350Y53200D01*
X146750D01*
X146350Y53600D01*
X146750Y54000D01*
X146350D01*
X145950Y54400D01*
X145550Y54000D01*
X145150D01*
X145550Y53600D01*
X145150Y53200D01*
X145550D01*
X145950Y52800D01*
X130800Y22500D02*
X131200Y22900D01*
X131600D01*
X131200Y23300D01*
X131600Y23700D01*
X131200D01*
X130800Y24100D01*
X130400Y23700D01*
X130000D01*
X130400Y23300D01*
X130000Y22900D01*
X130400D01*
X130800Y22500D01*
X169800Y38400D02*
X170200Y38800D01*
X170600D01*
X170200Y39200D01*
X170600Y39600D01*
X170200D01*
X169800Y40000D01*
X169400Y39600D01*
X169000D01*
X169400Y39200D01*
X169000Y38800D01*
X169400D01*
X169800Y38400D01*
X131500Y71200D02*
X131900Y71600D01*
X132300D01*
X131900Y72000D01*
X132300Y72400D01*
X131900D01*
X131500Y72800D01*
X131100Y72400D01*
X130700D01*
X131100Y72000D01*
X130700Y71600D01*
X131100D01*
X131500Y71200D01*
X141100Y71100D02*
X141500Y71500D01*
X141900D01*
X141500Y71900D01*
X141900Y72300D01*
X141500D01*
X141100Y72700D01*
X140700Y72300D01*
X140300D01*
X140700Y71900D01*
X140300Y71500D01*
X140700D01*
X141100Y71100D01*
X163300Y76300D02*
X163700Y76700D01*
X164100D01*
X163700Y77100D01*
X164100Y77500D01*
X163700D01*
X163300Y77900D01*
X162900Y77500D01*
X162500D01*
X162900Y77100D01*
X162500Y76700D01*
X162900D01*
X163300Y76300D01*
Y69300D02*
X163700Y69700D01*
X164100D01*
X163700Y70100D01*
X164100Y70500D01*
X163700D01*
X163300Y70900D01*
X162900Y70500D01*
X162500D01*
X162900Y70100D01*
X162500Y69700D01*
X162900D01*
X163300Y69300D01*
X89700Y44900D02*
X90100Y45300D01*
X90500D01*
X90100Y45700D01*
X90500Y46100D01*
X90100D01*
X89700Y46500D01*
X89300Y46100D01*
X88900D01*
X89300Y45700D01*
X88900Y45300D01*
X89300D01*
X89700Y44900D01*
X97600Y63161D02*
X98000Y63561D01*
X98400D01*
X98000Y63961D01*
X98400Y64361D01*
X98000D01*
X97600Y64761D01*
X97200Y64361D01*
X96800D01*
X97200Y63961D01*
X96800Y63561D01*
X97200D01*
X97600Y63161D01*
X91644Y60456D02*
X92044Y60856D01*
X92444D01*
X92044Y61256D01*
X92444Y61656D01*
X92044D01*
X91644Y62056D01*
X91244Y61656D01*
X90844D01*
X91244Y61256D01*
X90844Y60856D01*
X91244D01*
X91644Y60456D01*
X129100Y73800D02*
X129500Y74200D01*
X129900D01*
X129500Y74600D01*
X129900Y75000D01*
X129500D01*
X129100Y75400D01*
X128700Y75000D01*
X128300D01*
X128700Y74600D01*
X128300Y74200D01*
X128700D01*
X129100Y73800D01*
X131200Y66000D02*
X131600Y66400D01*
X132000D01*
X131600Y66800D01*
X132000Y67200D01*
X131600D01*
X131200Y67600D01*
X130800Y67200D01*
X130400D01*
X130800Y66800D01*
X130400Y66400D01*
X130800D01*
X131200Y66000D01*
X146482Y14819D02*
X146881Y15219D01*
X147282D01*
X146881Y15619D01*
X147282Y16019D01*
X146881D01*
X146482Y16419D01*
X146081Y16019D01*
X145682D01*
X146081Y15619D01*
X145682Y15219D01*
X146081D01*
X146482Y14819D01*
X146621Y17816D02*
X147021Y18216D01*
X147421D01*
X147021Y18616D01*
X147421Y19016D01*
X147021D01*
X146621Y19416D01*
X146221Y19016D01*
X145821D01*
X146221Y18616D01*
X145821Y18216D01*
X146221D01*
X146621Y17816D01*
X61900Y70900D02*
X62300Y71300D01*
X62700D01*
X62300Y71700D01*
X62700Y72100D01*
X62300D01*
X61900Y72500D01*
X61500Y72100D01*
X61100D01*
X61500Y71700D01*
X61100Y71300D01*
X61500D01*
X61900Y70900D01*
X125137Y19900D02*
X125537Y20300D01*
X125937D01*
X125537Y20700D01*
X125937Y21100D01*
X125537D01*
X125137Y21500D01*
X124737Y21100D01*
X124337D01*
X124737Y20700D01*
X124337Y20300D01*
X124737D01*
X125137Y19900D01*
X119600Y61500D02*
X120000Y61900D01*
X120400D01*
X120000Y62300D01*
X120400Y62700D01*
X120000D01*
X119600Y63100D01*
X119200Y62700D01*
X118800D01*
X119200Y62300D01*
X118800Y61900D01*
X119200D01*
X119600Y61500D01*
X117200Y59200D02*
X117600Y59600D01*
X118000D01*
X117600Y60000D01*
X118000Y60400D01*
X117600D01*
X117200Y60800D01*
X116800Y60400D01*
X116400D01*
X116800Y60000D01*
X116400Y59600D01*
X116800D01*
X117200Y59200D01*
X110887Y78413D02*
X111287Y78813D01*
X111687D01*
X111287Y79213D01*
X111687Y79613D01*
X111287D01*
X110887Y80013D01*
X110487Y79613D01*
X110087D01*
X110487Y79213D01*
X110087Y78813D01*
X110487D01*
X110887Y78413D01*
X116200Y80800D02*
X116600Y81200D01*
X117000D01*
X116600Y81600D01*
X117000Y82000D01*
X116600D01*
X116200Y82400D01*
X115800Y82000D01*
X115400D01*
X115800Y81600D01*
X115400Y81200D01*
X115800D01*
X116200Y80800D01*
X152837Y63523D02*
X153237Y63923D01*
X153637D01*
X153237Y64323D01*
X153637Y64723D01*
X153237D01*
X152837Y65123D01*
X152437Y64723D01*
X152037D01*
X152437Y64323D01*
X152037Y63923D01*
X152437D01*
X152837Y63523D01*
X152660Y71200D02*
X153060Y71600D01*
X153460D01*
X153060Y72000D01*
X153460Y72400D01*
X153060D01*
X152660Y72800D01*
X152260Y72400D01*
X151860D01*
X152260Y72000D01*
X151860Y71600D01*
X152260D01*
X152660Y71200D01*
X59891Y12000D02*
X60291Y12400D01*
X60691D01*
X60291Y12800D01*
X60691Y13200D01*
X60291D01*
X59891Y13600D01*
X59491Y13200D01*
X59091D01*
X59491Y12800D01*
X59091Y12400D01*
X59491D01*
X59891Y12000D01*
X142439Y22600D02*
X142839Y23000D01*
X143239D01*
X142839Y23400D01*
X143239Y23800D01*
X142839D01*
X142439Y24200D01*
X142039Y23800D01*
X141639D01*
X142039Y23400D01*
X141639Y23000D01*
X142039D01*
X142439Y22600D01*
Y39560D02*
X142839Y39960D01*
X143239D01*
X142839Y40360D01*
X143239Y40760D01*
X142839D01*
X142439Y41160D01*
X142039Y40760D01*
X141639D01*
X142039Y40360D01*
X141639Y39960D01*
X142039D01*
X142439Y39560D01*
X117260Y43983D02*
X117660Y44383D01*
X118060D01*
X117660Y44783D01*
X118060Y45183D01*
X117660D01*
X117260Y45583D01*
X116860Y45183D01*
X116460D01*
X116860Y44783D01*
X116460Y44383D01*
X116860D01*
X117260Y43983D01*
X35590Y70825D02*
X35990Y71225D01*
X36390D01*
X35990Y71625D01*
X36390Y72025D01*
X35990D01*
X35590Y72425D01*
X35190Y72025D01*
X34790D01*
X35190Y71625D01*
X34790Y71225D01*
X35190D01*
X35590Y70825D01*
X126100Y26863D02*
X126500Y27263D01*
X126900D01*
X126500Y27663D01*
X126900Y28063D01*
X126500D01*
X126100Y28463D01*
X125700Y28063D01*
X125300D01*
X125700Y27663D01*
X125300Y27263D01*
X125700D01*
X126100Y26863D01*
X128700Y56442D02*
X129100Y56842D01*
X129500D01*
X129100Y57242D01*
X129500Y57642D01*
X129100D01*
X128700Y58042D01*
X128300Y57642D01*
X127900D01*
X128300Y57242D01*
X127900Y56842D01*
X128300D01*
X128700Y56442D01*
X163000Y18000D02*
X163400Y18400D01*
X163800D01*
X163400Y18800D01*
X163800Y19200D01*
X163400D01*
X163000Y19600D01*
X162600Y19200D01*
X162200D01*
X162600Y18800D01*
X162200Y18400D01*
X162600D01*
X163000Y18000D01*
X169656Y22144D02*
X170056Y22544D01*
X170456D01*
X170056Y22944D01*
X170456Y23344D01*
X170056D01*
X169656Y23744D01*
X169256Y23344D01*
X168856D01*
X169256Y22944D01*
X168856Y22544D01*
X169256D01*
X169656Y22144D01*
X167094Y25806D02*
X167494Y26206D01*
X167894D01*
X167494Y26606D01*
X167894Y27006D01*
X167494D01*
X167094Y27406D01*
X166694Y27006D01*
X166294D01*
X166694Y26606D01*
X166294Y26206D01*
X166694D01*
X167094Y25806D01*
X186200Y75500D02*
X186600Y75900D01*
X187000D01*
X186600Y76300D01*
X187000Y76700D01*
X186600D01*
X186200Y77100D01*
X185800Y76700D01*
X185400D01*
X185800Y76300D01*
X185400Y75900D01*
X185800D01*
X186200Y75500D01*
X184000Y72900D02*
X184400Y73300D01*
X184800D01*
X184400Y73700D01*
X184800Y74100D01*
X184400D01*
X184000Y74500D01*
X183600Y74100D01*
X183200D01*
X183600Y73700D01*
X183200Y73300D01*
X183600D01*
X184000Y72900D01*
X202800Y60100D02*
X203200Y60500D01*
X203600D01*
X203200Y60900D01*
X203600Y61300D01*
X203200D01*
X202800Y61700D01*
X202400Y61300D01*
X202000D01*
X202400Y60900D01*
X202000Y60500D01*
X202400D01*
X202800Y60100D01*
X95000Y57200D02*
X95400Y57600D01*
X95800D01*
X95400Y58000D01*
X95800Y58400D01*
X95400D01*
X95000Y58800D01*
X94600Y58400D01*
X94200D01*
X94600Y58000D01*
X94200Y57600D01*
X94600D01*
X95000Y57200D01*
X151100Y30800D02*
X151500Y31200D01*
X151900D01*
X151500Y31600D01*
X151900Y32000D01*
X151500D01*
X151100Y32400D01*
X150700Y32000D01*
X150300D01*
X150700Y31600D01*
X150300Y31200D01*
X150700D01*
X151100Y30800D01*
X155628D02*
X156028Y31200D01*
X156428D01*
X156028Y31600D01*
X156428Y32000D01*
X156028D01*
X155628Y32400D01*
X155228Y32000D01*
X154828D01*
X155228Y31600D01*
X154828Y31200D01*
X155228D01*
X155628Y30800D01*
X151100Y26272D02*
X151500Y26672D01*
X151900D01*
X151500Y27072D01*
X151900Y27472D01*
X151500D01*
X151100Y27872D01*
X150700Y27472D01*
X150300D01*
X150700Y27072D01*
X150300Y26672D01*
X150700D01*
X151100Y26272D01*
X146572Y30800D02*
X146972Y31200D01*
X147372D01*
X146972Y31600D01*
X147372Y32000D01*
X146972D01*
X146572Y32400D01*
X146172Y32000D01*
X145772D01*
X146172Y31600D01*
X145772Y31200D01*
X146172D01*
X146572Y30800D01*
X151100Y35328D02*
X151500Y35728D01*
X151900D01*
X151500Y36128D01*
X151900Y36528D01*
X151500D01*
X151100Y36928D01*
X150700Y36528D01*
X150300D01*
X150700Y36128D01*
X150300Y35728D01*
X150700D01*
X151100Y35328D01*
X108500Y47772D02*
X108900Y48172D01*
X109300D01*
X108900Y48572D01*
X109300Y48972D01*
X108900D01*
X108500Y49372D01*
X108100Y48972D01*
X107700D01*
X108100Y48572D01*
X107700Y48172D01*
X108100D01*
X108500Y47772D01*
X113028Y52300D02*
X113428Y52700D01*
X113828D01*
X113428Y53100D01*
X113828Y53500D01*
X113428D01*
X113028Y53900D01*
X112628Y53500D01*
X112228D01*
X112628Y53100D01*
X112228Y52700D01*
X112628D01*
X113028Y52300D01*
X108500Y56828D02*
X108900Y57228D01*
X109300D01*
X108900Y57628D01*
X109300Y58028D01*
X108900D01*
X108500Y58428D01*
X108100Y58028D01*
X107700D01*
X108100Y57628D01*
X107700Y57228D01*
X108100D01*
X108500Y56828D01*
X103972Y52300D02*
X104372Y52700D01*
X104772D01*
X104372Y53100D01*
X104772Y53500D01*
X104372D01*
X103972Y53900D01*
X103572Y53500D01*
X103172D01*
X103572Y53100D01*
X103172Y52700D01*
X103572D01*
X103972Y52300D01*
X108500D02*
X108900Y52700D01*
X109300D01*
X108900Y53100D01*
X109300Y53500D01*
X108900D01*
X108500Y53900D01*
X108100Y53500D01*
X107700D01*
X108100Y53100D01*
X107700Y52700D01*
X108100D01*
X108500Y52300D01*
X94500Y22600D02*
X94900Y23000D01*
X95300D01*
X94900Y23400D01*
X95300Y23800D01*
X94900D01*
X94500Y24200D01*
X94100Y23800D01*
X93700D01*
X94100Y23400D01*
X93700Y23000D01*
X94100D01*
X94500Y22600D01*
X194500Y92600D02*
X194900Y93000D01*
X195300D01*
X194900Y93400D01*
X195300Y93800D01*
X194900D01*
X194500Y94200D01*
X194100Y93800D01*
X193700D01*
X194100Y93400D01*
X193700Y93000D01*
X194100D01*
X194500Y92600D01*
X214500Y82600D02*
X214900Y83000D01*
X215300D01*
X214900Y83400D01*
X215300Y83800D01*
X214900D01*
X214500Y84200D01*
X214100Y83800D01*
X213700D01*
X214100Y83400D01*
X213700Y83000D01*
X214100D01*
X214500Y82600D01*
X224500D02*
X224900Y83000D01*
X225300D01*
X224900Y83400D01*
X225300Y83800D01*
X224900D01*
X224500Y84200D01*
X224100Y83800D01*
X223700D01*
X224100Y83400D01*
X223700Y83000D01*
X224100D01*
X224500Y82600D01*
X44500Y2600D02*
X44900Y3000D01*
X45300D01*
X44900Y3400D01*
X45300Y3800D01*
X44900D01*
X44500Y4200D01*
X44100Y3800D01*
X43700D01*
X44100Y3400D01*
X43700Y3000D01*
X44100D01*
X44500Y2600D01*
X224500D02*
X224900Y3000D01*
X225300D01*
X224900Y3400D01*
X225300Y3800D01*
X224900D01*
X224500Y4200D01*
X224100Y3800D01*
X223700D01*
X224100Y3400D01*
X223700Y3000D01*
X224100D01*
X224500Y2600D01*
X214500Y92600D02*
X214900Y93000D01*
X215300D01*
X214900Y93400D01*
X215300Y93800D01*
X214900D01*
X214500Y94200D01*
X214100Y93800D01*
X213700D01*
X214100Y93400D01*
X213700Y93000D01*
X214100D01*
X214500Y92600D01*
X84500Y72600D02*
X84900Y73000D01*
X85300D01*
X84900Y73400D01*
X85300Y73800D01*
X84900D01*
X84500Y74200D01*
X84100Y73800D01*
X83700D01*
X84100Y73400D01*
X83700Y73000D01*
X84100D01*
X84500Y72600D01*
X244500D02*
X244900Y73000D01*
X245300D01*
X244900Y73400D01*
X245300Y73800D01*
X244900D01*
X244500Y74200D01*
X244100Y73800D01*
X243700D01*
X244100Y73400D01*
X243700Y73000D01*
X244100D01*
X244500Y72600D01*
X204500Y12600D02*
X204900Y13000D01*
X205300D01*
X204900Y13400D01*
X205300Y13800D01*
X204900D01*
X204500Y14200D01*
X204100Y13800D01*
X203700D01*
X204100Y13400D01*
X203700Y13000D01*
X204100D01*
X204500Y12600D01*
X104500Y22600D02*
X104900Y23000D01*
X105300D01*
X104900Y23400D01*
X105300Y23800D01*
X104900D01*
X104500Y24200D01*
X104100Y23800D01*
X103700D01*
X104100Y23400D01*
X103700Y23000D01*
X104100D01*
X104500Y22600D01*
X204500Y2600D02*
X204900Y3000D01*
X205300D01*
X204900Y3400D01*
X205300Y3800D01*
X204900D01*
X204500Y4200D01*
X204100Y3800D01*
X203700D01*
X204100Y3400D01*
X203700Y3000D01*
X204100D01*
X204500Y2600D01*
X44500Y12600D02*
X44900Y13000D01*
X45300D01*
X44900Y13400D01*
X45300Y13800D01*
X44900D01*
X44500Y14200D01*
X44100Y13800D01*
X43700D01*
X44100Y13400D01*
X43700Y13000D01*
X44100D01*
X44500Y12600D01*
X234500Y72600D02*
X234900Y73000D01*
X235300D01*
X234900Y73400D01*
X235300Y73800D01*
X234900D01*
X234500Y74200D01*
X234100Y73800D01*
X233700D01*
X234100Y73400D01*
X233700Y73000D01*
X234100D01*
X234500Y72600D01*
X84500Y82600D02*
X84900Y83000D01*
X85300D01*
X84900Y83400D01*
X85300Y83800D01*
X84900D01*
X84500Y84200D01*
X84100Y83800D01*
X83700D01*
X84100Y83400D01*
X83700Y83000D01*
X84100D01*
X84500Y82600D01*
X114500Y92600D02*
X114900Y93000D01*
X115300D01*
X114900Y93400D01*
X115300Y93800D01*
X114900D01*
X114500Y94200D01*
X114100Y93800D01*
X113700D01*
X114100Y93400D01*
X113700Y93000D01*
X114100D01*
X114500Y92600D01*
X184500Y82600D02*
X184900Y83000D01*
X185300D01*
X184900Y83400D01*
X185300Y83800D01*
X184900D01*
X184500Y84200D01*
X184100Y83800D01*
X183700D01*
X184100Y83400D01*
X183700Y83000D01*
X184100D01*
X184500Y82600D01*
X44500D02*
X44900Y83000D01*
X45300D01*
X44900Y83400D01*
X45300Y83800D01*
X44900D01*
X44500Y84200D01*
X44100Y83800D01*
X43700D01*
X44100Y83400D01*
X43700Y83000D01*
X44100D01*
X44500Y82600D01*
X34500Y12600D02*
X34900Y13000D01*
X35300D01*
X34900Y13400D01*
X35300Y13800D01*
X34900D01*
X34500Y14200D01*
X34100Y13800D01*
X33700D01*
X34100Y13400D01*
X33700Y13000D01*
X34100D01*
X34500Y12600D01*
X54500Y82600D02*
X54900Y83000D01*
X55300D01*
X54900Y83400D01*
X55300Y83800D01*
X54900D01*
X54500Y84200D01*
X54100Y83800D01*
X53700D01*
X54100Y83400D01*
X53700Y83000D01*
X54100D01*
X54500Y82600D01*
X204500D02*
X204900Y83000D01*
X205300D01*
X204900Y83400D01*
X205300Y83800D01*
X204900D01*
X204500Y84200D01*
X204100Y83800D01*
X203700D01*
X204100Y83400D01*
X203700Y83000D01*
X204100D01*
X204500Y82600D01*
X34500D02*
X34900Y83000D01*
X35300D01*
X34900Y83400D01*
X35300Y83800D01*
X34900D01*
X34500Y84200D01*
X34100Y83800D01*
X33700D01*
X34100Y83400D01*
X33700Y83000D01*
X34100D01*
X34500Y82600D01*
X94500D02*
X94900Y83000D01*
X95300D01*
X94900Y83400D01*
X95300Y83800D01*
X94900D01*
X94500Y84200D01*
X94100Y83800D01*
X93700D01*
X94100Y83400D01*
X93700Y83000D01*
X94100D01*
X94500Y82600D01*
X194500D02*
X194900Y83000D01*
X195300D01*
X194900Y83400D01*
X195300Y83800D01*
X194900D01*
X194500Y84200D01*
X194100Y83800D01*
X193700D01*
X194100Y83400D01*
X193700Y83000D01*
X194100D01*
X194500Y82600D01*
X214500Y2600D02*
X214900Y3000D01*
X215300D01*
X214900Y3400D01*
X215300Y3800D01*
X214900D01*
X214500Y4200D01*
X214100Y3800D01*
X213700D01*
X214100Y3400D01*
X213700Y3000D01*
X214100D01*
X214500Y2600D01*
X104500Y82600D02*
X104900Y83000D01*
X105300D01*
X104900Y83400D01*
X105300Y83800D01*
X104900D01*
X104500Y84200D01*
X104100Y83800D01*
X103700D01*
X104100Y83400D01*
X103700Y83000D01*
X104100D01*
X104500Y82600D01*
X224500Y12600D02*
X224900Y13000D01*
X225300D01*
X224900Y13400D01*
X225300Y13800D01*
X224900D01*
X224500Y14200D01*
X224100Y13800D01*
X223700D01*
X224100Y13400D01*
X223700Y13000D01*
X224100D01*
X224500Y12600D01*
X254500Y72600D02*
X254900Y73000D01*
X255300D01*
X254900Y73400D01*
X255300Y73800D01*
X254900D01*
X254500Y74200D01*
X254100Y73800D01*
X253700D01*
X254100Y73400D01*
X253700Y73000D01*
X254100D01*
X254500Y72600D01*
X94500D02*
X94900Y73000D01*
X95300D01*
X94900Y73400D01*
X95300Y73800D01*
X94900D01*
X94500Y74200D01*
X94100Y73800D01*
X93700D01*
X94100Y73400D01*
X93700Y73000D01*
X94100D01*
X94500Y72600D01*
X34500Y92600D02*
X34900Y93000D01*
X35300D01*
X34900Y93400D01*
X35300Y93800D01*
X34900D01*
X34500Y94200D01*
X34100Y93800D01*
X33700D01*
X34100Y93400D01*
X33700Y93000D01*
X34100D01*
X34500Y92600D01*
X214500Y12600D02*
X214900Y13000D01*
X215300D01*
X214900Y13400D01*
X215300Y13800D01*
X214900D01*
X214500Y14200D01*
X214100Y13800D01*
X213700D01*
X214100Y13400D01*
X213700Y13000D01*
X214100D01*
X214500Y12600D01*
X74500Y57600D02*
X74900Y58000D01*
X75300D01*
X74900Y58400D01*
X75300Y58800D01*
X74900D01*
X74500Y59200D01*
X74100Y58800D01*
X73700D01*
X74100Y58400D01*
X73700Y58000D01*
X74100D01*
X74500Y57600D01*
X69500Y52600D02*
X69900Y53000D01*
X70300D01*
X69900Y53400D01*
X70300Y53800D01*
X69900D01*
X69500Y54200D01*
X69100Y53800D01*
X68700D01*
X69100Y53400D01*
X68700Y53000D01*
X69100D01*
X69500Y52600D01*
Y27600D02*
X69900Y28000D01*
X70300D01*
X69900Y28400D01*
X70300Y28800D01*
X69900D01*
X69500Y29200D01*
X69100Y28800D01*
X68700D01*
X69100Y28400D01*
X68700Y28000D01*
X69100D01*
X69500Y27600D01*
Y62600D02*
X69900Y63000D01*
X70300D01*
X69900Y63400D01*
X70300Y63800D01*
X69900D01*
X69500Y64200D01*
X69100Y63800D01*
X68700D01*
X69100Y63400D01*
X68700Y63000D01*
X69100D01*
X69500Y62600D01*
Y67600D02*
X69900Y68000D01*
X70300D01*
X69900Y68400D01*
X70300Y68800D01*
X69900D01*
X69500Y69200D01*
X69100Y68800D01*
X68700D01*
X69100Y68400D01*
X68700Y68000D01*
X69100D01*
X69500Y67600D01*
X74500D02*
X74900Y68000D01*
X75300D01*
X74900Y68400D01*
X75300Y68800D01*
X74900D01*
X74500Y69200D01*
X74100Y68800D01*
X73700D01*
X74100Y68400D01*
X73700Y68000D01*
X74100D01*
X74500Y67600D01*
X69500Y37600D02*
X69900Y38000D01*
X70300D01*
X69900Y38400D01*
X70300Y38800D01*
X69900D01*
X69500Y39200D01*
X69100Y38800D01*
X68700D01*
X69100Y38400D01*
X68700Y38000D01*
X69100D01*
X69500Y37600D01*
X74500Y27600D02*
X74900Y28000D01*
X75300D01*
X74900Y28400D01*
X75300Y28800D01*
X74900D01*
X74500Y29200D01*
X74100Y28800D01*
X73700D01*
X74100Y28400D01*
X73700Y28000D01*
X74100D01*
X74500Y27600D01*
X69500Y57600D02*
X69900Y58000D01*
X70300D01*
X69900Y58400D01*
X70300Y58800D01*
X69900D01*
X69500Y59200D01*
X69100Y58800D01*
X68700D01*
X69100Y58400D01*
X68700Y58000D01*
X69100D01*
X69500Y57600D01*
X74500Y32600D02*
X74900Y33000D01*
X75300D01*
X74900Y33400D01*
X75300Y33800D01*
X74900D01*
X74500Y34200D01*
X74100Y33800D01*
X73700D01*
X74100Y33400D01*
X73700Y33000D01*
X74100D01*
X74500Y32600D01*
Y62600D02*
X74900Y63000D01*
X75300D01*
X74900Y63400D01*
X75300Y63800D01*
X74900D01*
X74500Y64200D01*
X74100Y63800D01*
X73700D01*
X74100Y63400D01*
X73700Y63000D01*
X74100D01*
X74500Y62600D01*
Y52600D02*
X74900Y53000D01*
X75300D01*
X74900Y53400D01*
X75300Y53800D01*
X74900D01*
X74500Y54200D01*
X74100Y53800D01*
X73700D01*
X74100Y53400D01*
X73700Y53000D01*
X74100D01*
X74500Y52600D01*
X69500Y32600D02*
X69900Y33000D01*
X70300D01*
X69900Y33400D01*
X70300Y33800D01*
X69900D01*
X69500Y34200D01*
X69100Y33800D01*
X68700D01*
X69100Y33400D01*
X68700Y33000D01*
X69100D01*
X69500Y32600D01*
X74500Y37600D02*
X74900Y38000D01*
X75300D01*
X74900Y38400D01*
X75300Y38800D01*
X74900D01*
X74500Y39200D01*
X74100Y38800D01*
X73700D01*
X74100Y38400D01*
X73700Y38000D01*
X74100D01*
X74500Y37600D01*
X131000Y84600D02*
X131400Y85000D01*
X131800D01*
X131400Y85400D01*
X131800Y85800D01*
X131400D01*
X131000Y86200D01*
X130600Y85800D01*
X130200D01*
X130600Y85400D01*
X130200Y85000D01*
X130600D01*
X131000Y84600D01*
X132500Y87600D02*
X132900Y88000D01*
X133300D01*
X132900Y88400D01*
X133300Y88800D01*
X132900D01*
X132500Y89200D01*
X132100Y88800D01*
X131700D01*
X132100Y88400D01*
X131700Y88000D01*
X132100D01*
X132500Y87600D01*
X129500D02*
X129900Y88000D01*
X130300D01*
X129900Y88400D01*
X130300Y88800D01*
X129900D01*
X129500Y89200D01*
X129100Y88800D01*
X128700D01*
X129100Y88400D01*
X128700Y88000D01*
X129100D01*
X129500Y87600D01*
X189500Y27600D02*
X189900Y28000D01*
X190300D01*
X189900Y28400D01*
X190300Y28800D01*
X189900D01*
X189500Y29200D01*
X189100Y28800D01*
X188700D01*
X189100Y28400D01*
X188700Y28000D01*
X189100D01*
X189500Y27600D01*
Y36600D02*
X189900Y37000D01*
X190300D01*
X189900Y37400D01*
X190300Y37800D01*
X189900D01*
X189500Y38200D01*
X189100Y37800D01*
X188700D01*
X189100Y37400D01*
X188700Y37000D01*
X189100D01*
X189500Y36600D01*
X185000D02*
X185400Y37000D01*
X185800D01*
X185400Y37400D01*
X185800Y37800D01*
X185400D01*
X185000Y38200D01*
X184600Y37800D01*
X184200D01*
X184600Y37400D01*
X184200Y37000D01*
X184600D01*
X185000Y36600D01*
Y27600D02*
X185400Y28000D01*
X185800D01*
X185400Y28400D01*
X185800Y28800D01*
X185400D01*
X185000Y29200D01*
X184600Y28800D01*
X184200D01*
X184600Y28400D01*
X184200Y28000D01*
X184600D01*
X185000Y27600D01*
X189500Y41100D02*
X189900Y41500D01*
X190300D01*
X189900Y41900D01*
X190300Y42300D01*
X189900D01*
X189500Y42700D01*
X189100Y42300D01*
X188700D01*
X189100Y41900D01*
X188700Y41500D01*
X189100D01*
X189500Y41100D01*
X194000Y32100D02*
X194400Y32500D01*
X194800D01*
X194400Y32900D01*
X194800Y33300D01*
X194400D01*
X194000Y33700D01*
X193600Y33300D01*
X193200D01*
X193600Y32900D01*
X193200Y32500D01*
X193600D01*
X194000Y32100D01*
X189500D02*
X189900Y32500D01*
X190300D01*
X189900Y32900D01*
X190300Y33300D01*
X189900D01*
X189500Y33700D01*
X189100Y33300D01*
X188700D01*
X189100Y32900D01*
X188700Y32500D01*
X189100D01*
X189500Y32100D01*
X185000D02*
X185400Y32500D01*
X185800D01*
X185400Y32900D01*
X185800Y33300D01*
X185400D01*
X185000Y33700D01*
X184600Y33300D01*
X184200D01*
X184600Y32900D01*
X184200Y32500D01*
X184600D01*
X185000Y32100D01*
X194000Y41100D02*
X194400Y41500D01*
X194800D01*
X194400Y41900D01*
X194800Y42300D01*
X194400D01*
X194000Y42700D01*
X193600Y42300D01*
X193200D01*
X193600Y41900D01*
X193200Y41500D01*
X193600D01*
X194000Y41100D01*
Y36600D02*
X194400Y37000D01*
X194800D01*
X194400Y37400D01*
X194800Y37800D01*
X194400D01*
X194000Y38200D01*
X193600Y37800D01*
X193200D01*
X193600Y37400D01*
X193200Y37000D01*
X193600D01*
X194000Y36600D01*
X185000Y41100D02*
X185400Y41500D01*
X185800D01*
X185400Y41900D01*
X185800Y42300D01*
X185400D01*
X185000Y42700D01*
X184600Y42300D01*
X184200D01*
X184600Y41900D01*
X184200Y41500D01*
X184600D01*
X185000Y41100D01*
X194000Y27600D02*
X194400Y28000D01*
X194800D01*
X194400Y28400D01*
X194800Y28800D01*
X194400D01*
X194000Y29200D01*
X193600Y28800D01*
X193200D01*
X193600Y28400D01*
X193200Y28000D01*
X193600D01*
X194000Y27600D01*
X185000Y54600D02*
X185400Y55000D01*
X185800D01*
X185400Y55400D01*
X185800Y55800D01*
X185400D01*
X185000Y56200D01*
X184600Y55800D01*
X184200D01*
X184600Y55400D01*
X184200Y55000D01*
X184600D01*
X185000Y54600D01*
X189500Y59100D02*
X189900Y59500D01*
X190300D01*
X189900Y59900D01*
X190300Y60300D01*
X189900D01*
X189500Y60700D01*
X189100Y60300D01*
X188700D01*
X189100Y59900D01*
X188700Y59500D01*
X189100D01*
X189500Y59100D01*
X185000D02*
X185400Y59500D01*
X185800D01*
X185400Y59900D01*
X185800Y60300D01*
X185400D01*
X185000Y60700D01*
X184600Y60300D01*
X184200D01*
X184600Y59900D01*
X184200Y59500D01*
X184600D01*
X185000Y59100D01*
X194000Y63600D02*
X194400Y64000D01*
X194800D01*
X194400Y64400D01*
X194800Y64800D01*
X194400D01*
X194000Y65200D01*
X193600Y64800D01*
X193200D01*
X193600Y64400D01*
X193200Y64000D01*
X193600D01*
X194000Y63600D01*
Y54600D02*
X194400Y55000D01*
X194800D01*
X194400Y55400D01*
X194800Y55800D01*
X194400D01*
X194000Y56200D01*
X193600Y55800D01*
X193200D01*
X193600Y55400D01*
X193200Y55000D01*
X193600D01*
X194000Y54600D01*
X185000Y63600D02*
X185400Y64000D01*
X185800D01*
X185400Y64400D01*
X185800Y64800D01*
X185400D01*
X185000Y65200D01*
X184600Y64800D01*
X184200D01*
X184600Y64400D01*
X184200Y64000D01*
X184600D01*
X185000Y63600D01*
X194000Y59100D02*
X194400Y59500D01*
X194800D01*
X194400Y59900D01*
X194800Y60300D01*
X194400D01*
X194000Y60700D01*
X193600Y60300D01*
X193200D01*
X193600Y59900D01*
X193200Y59500D01*
X193600D01*
X194000Y59100D01*
X189500Y54600D02*
X189900Y55000D01*
X190300D01*
X189900Y55400D01*
X190300Y55800D01*
X189900D01*
X189500Y56200D01*
X189100Y55800D01*
X188700D01*
X189100Y55400D01*
X188700Y55000D01*
X189100D01*
X189500Y54600D01*
Y63600D02*
X189900Y64000D01*
X190300D01*
X189900Y64400D01*
X190300Y64800D01*
X189900D01*
X189500Y65200D01*
X189100Y64800D01*
X188700D01*
X189100Y64400D01*
X188700Y64000D01*
X189100D01*
X189500Y63600D01*
D12*
X108900Y95600D02*
G03*
X108900Y95600I-800J0D01*
G01*
X89215D02*
G03*
X89215Y95600I-800J0D01*
G01*
M02*
