G04*
G04 #@! TF.GenerationSoftware,Altium Limited,Altium Designer,22.7.1 (60)*
G04*
G04 Layer_Color=16711935*
%FSLAX25Y25*%
%MOIN*%
G70*
G04*
G04 #@! TF.SameCoordinates,D5FD8CF7-689A-4CA3-A305-E5C997A2AED7*
G04*
G04*
G04 #@! TF.FilePolarity,Positive*
G04*
G01*
G75*
%ADD79C,0.00394*%
D79*
X175237Y63669D02*
Y68669D01*
X167363Y63669D02*
Y68669D01*
Y63669D02*
X175237D01*
X167363Y68669D02*
X175237D01*
X167363Y76868D02*
X175237D01*
X167363Y71868D02*
X175237D01*
X167363D02*
Y76868D01*
X175237Y71868D02*
Y76868D01*
X131200Y57537D02*
X136200D01*
X131200Y49663D02*
X136200D01*
Y57537D01*
X131200Y49663D02*
Y57537D01*
X139700D02*
X144700D01*
X139700Y49663D02*
X144700D01*
Y57537D01*
X139700Y49663D02*
Y57537D01*
X123600Y27663D02*
X128600D01*
X123600Y35537D02*
X128600D01*
X123600Y27663D02*
Y35537D01*
X128600Y27663D02*
Y35537D01*
X115100Y27663D02*
X120100D01*
X115100Y35537D02*
X120100D01*
X115100Y27663D02*
Y35537D01*
X120100Y27663D02*
Y35537D01*
X121200Y64263D02*
X126200D01*
X121200Y72137D02*
X126200D01*
X121200Y64263D02*
Y72137D01*
X126200Y64263D02*
Y72137D01*
X121200Y79121D02*
Y86995D01*
X126200Y79121D02*
Y86995D01*
X121200Y79121D02*
X126200D01*
X121200Y86995D02*
X126200D01*
X117263Y23200D02*
X125137D01*
X117263Y18200D02*
X125137D01*
X117263D02*
Y23200D01*
X125137Y18200D02*
Y23200D01*
X135505Y15300D02*
X143379D01*
X135505Y10300D02*
X143379D01*
X135505D02*
Y15300D01*
X143379Y10300D02*
Y15300D01*
X75663D02*
X83537D01*
X75663Y10300D02*
X83537D01*
X75663D02*
Y15300D01*
X83537Y10300D02*
Y15300D01*
M02*
