M48
;Layer_Color=9474304
;FILE_FORMAT=2:5
INCH,LZ
;TYPE=PLATED
T1F00S00C0.01200
T2F00S00C0.03937
T3F00S00C0.04331
%
T01
X02422Y00287
X02522
X02545Y00734
X02445
X02345
X02245Y00834
X02145
Y00934
X01945
Y00834
X01845
X01862Y00763
X0184Y00737
X0185Y00644
Y00599
Y00554
Y00509
X01895
X0194
Y00554
Y00599
X01895
Y00554
Y00644
X0194
X02028Y00609
X02045Y00834
X01633Y00771
Y00701
X015266Y0072
X0152837Y0064323
X014595Y00536
X0137887Y0060587
X01265Y00611
X01287Y0057242
X01312Y00668
X01315Y0072
X01291Y00746
X0131Y00854
X01325Y00884
X01295
X01145Y00934
X01162Y00816
X0110887Y0079213
X01045Y00834
X00945
X00845
Y00734
X00945
X00976Y0063961
X0095Y0058
X0091644Y0061256
X00897Y00457
X01085Y0048572
Y00531
Y0057628
X0113028Y00531
X0103972
X01172Y006
X01196Y00623
X01172Y00676
X011726Y0044783
X01261Y0027663
X0125137Y00207
X01308Y00233
X0142439Y00234
X0146621Y0018616
X0146482Y0015619
X0146572Y00316
X01511
Y0027072
X0155628Y00316
X01511Y0036128
X0142439Y004036
X01698Y00392
X0167094Y0026606
X0169656Y0022944
X0163Y00188
X0185Y00284
X01895
Y00329
Y00374
X0185
Y00329
X0194
Y00374
Y00419
X01895
X0185
X0194Y00284
X02045Y00134
Y00034
X02145
X02245
Y00134
X02145
X01045Y00234
X00945
X0082394Y0021992
X0084389Y0019751
X00863Y00174
X00745Y00284
Y00334
Y00384
Y00534
Y00584
Y00634
Y00684
X01411Y00719
X00695Y00684
Y00634
Y00584
Y00534
Y00384
Y00334
Y00284
X0059891Y00128
X00445Y00134
Y00034
X00345Y00134
X003559Y0071625
X00345Y00834
X00445
X00545
X00619Y00717
X00345Y00934
X00143Y00789
X00043
T02
X0240905Y0047399
Y0057399
X0019685Y00574
Y00474
T03
X0088415Y00956
X01081
M30
