G04*
G04 #@! TF.GenerationSoftware,Altium Limited,Altium Designer,22.7.1 (60)*
G04*
G04 Layer_Color=32768*
%FSLAX25Y25*%
%MOIN*%
G70*
G04*
G04 #@! TF.SameCoordinates,D5FD8CF7-689A-4CA3-A305-E5C997A2AED7*
G04*
G04*
G04 #@! TF.FilePolarity,Positive*
G04*
G01*
G75*
%ADD79C,0.00394*%
%ADD81C,0.00200*%
G36*
X75004Y107428D02*
X75142Y107290D01*
Y107192D01*
Y107094D01*
X75004Y106956D01*
X74808D01*
X74670Y107094D01*
Y107192D01*
Y107290D01*
X74808Y107428D01*
X75004Y107428D01*
D02*
G37*
G36*
X128684Y96564D02*
X127896Y96564D01*
Y104438D01*
X128684Y104438D01*
Y96564D01*
D02*
G37*
G36*
X56400Y92921D02*
X46164D01*
Y95480D01*
X56400D01*
Y92921D01*
D02*
G37*
G36*
X75718Y92641D02*
X65482Y92641D01*
Y95200D01*
X75718D01*
Y92641D01*
D02*
G37*
G36*
X150732Y87077D02*
X149944D01*
Y91014D01*
X150732Y91014D01*
Y87077D01*
D02*
G37*
G36*
X145810D02*
X145022D01*
Y91014D01*
X145810D01*
Y87077D01*
D02*
G37*
G36*
X140888D02*
X140100D01*
Y91014D01*
X140888D01*
Y87077D01*
D02*
G37*
G36*
X135968Y91014D02*
Y87077D01*
X135180D01*
Y91014D01*
X135968Y91014D01*
D02*
G37*
G36*
X20079Y55825D02*
X19291D01*
Y58975D01*
X20079D01*
Y55825D01*
D02*
G37*
G36*
Y45825D02*
X19291D01*
Y48975D01*
X20079D01*
Y45825D01*
D02*
G37*
G36*
X84177Y36302D02*
Y36107D01*
X84039Y35969D01*
X83843D01*
X83705Y36107D01*
Y36302D01*
X83843Y36441D01*
X84039D01*
X84177Y36302D01*
D02*
G37*
G36*
X87140Y35122D02*
Y34197D01*
X85860D01*
Y35122D01*
Y36402D01*
X87140D01*
Y35122D01*
D02*
G37*
G36*
Y27012D02*
Y25772D01*
X85860D01*
Y27012D01*
Y27976D01*
X87140D01*
Y27012D01*
D02*
G37*
G36*
X173940Y50039D02*
Y48798D01*
X172660D01*
Y50039D01*
Y51003D01*
X173940D01*
Y50039D01*
D02*
G37*
G36*
Y58149D02*
Y57224D01*
X172660D01*
Y58149D01*
Y59428D01*
X173940D01*
Y58149D01*
D02*
G37*
G36*
X167857Y104438D02*
Y96564D01*
X167069Y96564D01*
Y104438D01*
X167857Y104438D01*
D02*
G37*
G36*
X160574Y91014D02*
Y87077D01*
X159786D01*
Y91014D01*
X160574Y91014D01*
D02*
G37*
G36*
X155653Y87077D02*
X154865D01*
Y91014D01*
X155653D01*
Y87077D01*
D02*
G37*
G36*
X169274Y87175D02*
Y87077D01*
Y86979D01*
X169136Y86841D01*
X168940D01*
X168802Y86979D01*
Y87077D01*
Y87175D01*
X168940Y87313D01*
X169136D01*
X169274Y87175D01*
D02*
G37*
G36*
X175859Y49231D02*
X175761D01*
X175623Y49093D01*
Y48898D01*
X175761Y48759D01*
X175859D01*
X175957D01*
X176095Y48898D01*
Y49093D01*
X175957Y49231D01*
X175859D01*
D01*
D01*
D02*
G37*
G36*
X186877Y91341D02*
X183728D01*
Y96459D01*
X186877D01*
Y91341D01*
D01*
D02*
G37*
G36*
X205774D02*
X202625D01*
Y96459D01*
X205774D01*
Y91341D01*
D01*
D02*
G37*
G36*
X224672D02*
X221523D01*
Y96459D01*
X224672D01*
Y91341D01*
D01*
D02*
G37*
G36*
X241299Y48974D02*
Y45824D01*
X240512D01*
Y48974D01*
X241299D01*
D01*
D02*
G37*
G36*
Y58974D02*
Y55824D01*
X240512D01*
Y58974D01*
X241299D01*
D01*
D02*
G37*
G36*
X228963Y107089D02*
Y106991D01*
X229102Y106853D01*
X229298D01*
X229436Y106991D01*
X229436Y107089D01*
X229436Y107187D01*
X229297Y107325D01*
X229102D01*
X228963Y107187D01*
Y107089D01*
D01*
D01*
D02*
G37*
D79*
X177894Y62527D02*
Y69810D01*
X164706Y62527D02*
Y69810D01*
Y62527D02*
X177894D01*
X164706Y69810D02*
X177894D01*
X169332Y66168D02*
X173268D01*
X171300Y64200D02*
Y68137D01*
Y72400D02*
Y76337D01*
X169332Y74369D02*
X173268D01*
X164706Y78010D02*
X177894D01*
X164706Y70727D02*
X177894D01*
X164706D02*
Y78010D01*
X177894Y70727D02*
Y78010D01*
X130058Y60194D02*
X137342D01*
X130058Y47006D02*
X137342D01*
Y60194D01*
X130058Y47006D02*
Y60194D01*
X133700Y51631D02*
Y55568D01*
X131731Y53600D02*
X135669D01*
X138558Y60194D02*
X145842D01*
X138558Y47006D02*
X145842D01*
Y60194D01*
X138558Y47006D02*
Y60194D01*
X142200Y51631D02*
Y55568D01*
X140232Y53600D02*
X144168D01*
X122458Y25005D02*
X129742D01*
X122458Y38195D02*
X129742D01*
X122458Y25005D02*
Y38195D01*
X129742Y25005D02*
Y38195D01*
X126100Y29632D02*
Y33569D01*
X124132Y31600D02*
X128068D01*
X113958Y25005D02*
X121242Y25005D01*
X113958Y38195D02*
X121242Y38195D01*
X113958Y25005D02*
Y38195D01*
X121242Y25005D02*
Y38195D01*
X117600Y29632D02*
Y33569D01*
X115631Y31600D02*
X119569D01*
X120058Y61606D02*
X127342D01*
X120058Y74795D02*
X127342D01*
X120058Y61606D02*
Y74795D01*
X127342Y61606D02*
Y74795D01*
X123700Y66232D02*
Y70169D01*
X121731Y68200D02*
X125669D01*
X121731Y83058D02*
X125669D01*
X123700Y81090D02*
Y85027D01*
X120058Y76464D02*
Y89653D01*
X127342Y76464D02*
Y89653D01*
X120058Y76464D02*
X127342D01*
X120058Y89653D02*
X127342D01*
X121200Y18732D02*
Y22669D01*
X119231Y20700D02*
X123169D01*
X114605Y24342D02*
X127795D01*
X114605Y17058D02*
X127795D01*
X114605D02*
Y24342D01*
X127795Y17058D02*
Y24342D01*
X139442Y10831D02*
Y14769D01*
X137473Y12800D02*
X141410D01*
X132847Y16442D02*
X146036D01*
X132847Y9158D02*
X146036D01*
X132847D02*
Y16442D01*
X146036Y9158D02*
Y16442D01*
X79600Y10831D02*
Y14769D01*
X77631Y12800D02*
X81568D01*
X73005Y16442D02*
X86194D01*
X73005Y9158D02*
X86194D01*
X73005D02*
Y16442D01*
X86194Y9158D02*
Y16442D01*
D81*
X126715Y106762D02*
X169038D01*
X126715Y90817D02*
Y106762D01*
Y90817D02*
X169038D01*
Y106762D01*
X179200Y107089D02*
X229200D01*
X179200Y80711D02*
Y107089D01*
Y80711D02*
X229200D01*
Y107089D01*
X170741Y50964D02*
X175859D01*
X170741D02*
Y57263D01*
X175859D01*
Y50964D02*
Y57263D01*
X83941Y27937D02*
Y34236D01*
Y27937D02*
X89059D01*
Y34236D01*
X83941D02*
X89059D01*
X47608Y81208D02*
Y107192D01*
X68395D01*
X73592Y101995D01*
Y86405D02*
Y101995D01*
X68395Y81208D02*
X73592Y86405D01*
X47608Y81208D02*
X68395D01*
M02*
