G04*
G04 #@! TF.GenerationSoftware,Altium Limited,Altium Designer,22.7.1 (60)*
G04*
G04 Layer_Color=8388736*
%FSLAX25Y25*%
%MOIN*%
G70*
G04*
G04 #@! TF.SameCoordinates,D5FD8CF7-689A-4CA3-A305-E5C997A2AED7*
G04*
G04*
G04 #@! TF.FilePolarity,Positive*
G04*
G01*
G75*
%ADD10C,0.01000*%
G36*
X51506Y93810D02*
X48387D01*
Y94590D01*
X51506D01*
Y93810D01*
D02*
G37*
G36*
X71663Y94590D02*
X72813D01*
Y93810D01*
X71663D01*
Y91602D01*
X70884D01*
Y93810D01*
X69695D01*
Y94590D01*
X70884D01*
Y96798D01*
X71663D01*
Y94590D01*
D02*
G37*
G36*
X195633Y99062D02*
X204292Y99062D01*
Y98900D01*
X213649D01*
Y89451D01*
X204277D01*
Y89425D01*
X203080Y89425D01*
Y89454D01*
X194653D01*
Y89462D01*
X194640D01*
Y99068D01*
X195037D01*
X195633Y99062D01*
D02*
G37*
G36*
X173550Y59114D02*
X174800Y59114D01*
Y58613D01*
X173550D01*
Y57363D01*
X173050D01*
Y58613D01*
X171800D01*
Y59113D01*
X173050Y59114D01*
Y60363D01*
X173550D01*
Y59114D01*
D02*
G37*
G36*
X173800Y50613D02*
Y47613D01*
X173300Y47613D01*
Y50613D01*
X173800Y50613D01*
D02*
G37*
G36*
X86500Y37587D02*
Y34587D01*
X86000Y34587D01*
Y37587D01*
X86500Y37587D01*
D02*
G37*
G36*
X86750Y26586D02*
X88000D01*
Y26087D01*
X86750Y26087D01*
Y24836D01*
X86250D01*
Y26087D01*
X85000Y26087D01*
Y26586D01*
X86250D01*
Y27836D01*
X86750D01*
Y26586D01*
D02*
G37*
%LPC*%
G36*
X203080Y97865D02*
X195837D01*
Y90650D01*
X203080D01*
X203080Y97865D01*
D02*
G37*
%LPD*%
D10*
X165392Y87950D02*
G03*
X165392Y87950I-500J0D01*
G01*
M02*
