G04*
G04 #@! TF.GenerationSoftware,Altium Limited,Altium Designer,22.7.1 (60)*
G04*
G04 Layer_Color=16711935*
%FSLAX25Y25*%
%MOIN*%
G70*
G04*
G04 #@! TF.SameCoordinates,D5FD8CF7-689A-4CA3-A305-E5C997A2AED7*
G04*
G04*
G04 #@! TF.FilePolarity,Positive*
G04*
G01*
G75*
%ADD79C,0.00394*%
%ADD80C,0.00500*%
D79*
X157202Y37407D02*
G03*
X157202Y37407I-1181J0D01*
G01*
X104760Y47293D02*
G03*
X104760Y47293I-1181J0D01*
G01*
X142931Y39769D02*
X159269D01*
X142931Y23431D02*
X159269Y23431D01*
Y39769D01*
X142931Y23431D02*
Y39769D01*
X116669Y44931D02*
Y61269D01*
X100331Y44931D02*
Y61269D01*
X116669Y61269D01*
X100331Y44931D02*
X116669D01*
D80*
X211972Y23901D02*
G03*
X211972Y23901I-1261J0D01*
G01*
X225949Y69238D02*
G03*
X225949Y69238I-1261J0D01*
G01*
X202399Y27712D02*
G03*
X202399Y27712I-1261J0D01*
G01*
X202399Y51612D02*
G03*
X202399Y51612I-1261J0D01*
G01*
X37372Y22601D02*
G03*
X37372Y22601I-1261J0D01*
G01*
X51339Y70163D02*
G03*
X51339Y70163I-1261J0D01*
G01*
X61192Y40588D02*
G03*
X61192Y40588I-1261J0D01*
G01*
X61082Y66513D02*
G03*
X61082Y66513I-1261J0D01*
G01*
X207661Y20653D02*
X227739Y20653D01*
X207661Y20653D02*
Y44689D01*
X227739D01*
X227739Y20653D02*
X227739Y44689D01*
X207661Y72486D02*
X227739Y72486D01*
Y48451D02*
Y72486D01*
X207661Y48451D02*
X227739D01*
X207661D02*
X207661Y72486D01*
X204386Y44739D02*
X204386Y24661D01*
X180351D02*
X204386D01*
X180351D02*
Y44739D01*
X204386Y44739D01*
Y48561D02*
X204386Y68639D01*
X180351Y48561D02*
X204386Y48561D01*
X180351Y48561D02*
Y68639D01*
X204386D01*
X33061Y19353D02*
X53139D01*
X33061D02*
Y43389D01*
X53139D01*
Y19353D02*
Y43389D01*
X33051Y49376D02*
X33051Y73411D01*
X33051Y49376D02*
X53130D01*
Y73411D01*
X33051Y73411D02*
X53130Y73411D01*
X56683Y43639D02*
X56683Y23561D01*
X56683Y43639D02*
X80719D01*
Y23561D02*
Y43639D01*
X56683Y23561D02*
X80719Y23561D01*
X56574Y49485D02*
Y69564D01*
X80609D01*
Y49485D02*
Y69564D01*
X56574Y49485D02*
X80609D01*
M02*
