G04*
G04 #@! TF.GenerationSoftware,Altium Limited,Altium Designer,22.7.1 (60)*
G04*
G04 Layer_Color=255*
%FSLAX25Y25*%
%MOIN*%
G70*
G04*
G04 #@! TF.SameCoordinates,D5FD8CF7-689A-4CA3-A305-E5C997A2AED7*
G04*
G04*
G04 #@! TF.FilePolarity,Positive*
G04*
G01*
G75*
%ADD25R,0.03937X0.11024*%
%ADD26R,0.02362X0.06693*%
%ADD27O,0.00945X0.04724*%
%ADD28O,0.04724X0.00945*%
%ADD29O,0.05906X0.01378*%
%ADD30R,0.05906X0.01378*%
%ADD31O,0.04528X0.05709*%
%ADD32O,0.05709X0.04528*%
%ADD33R,0.04724X0.04724*%
%ADD34R,0.02756X0.03543*%
%ADD35R,0.03937X0.03937*%
%ADD36R,0.03937X0.03937*%
%ADD37R,0.11811X0.04724*%
%ADD63R,0.11024X0.11024*%
%ADD64R,0.02795X0.05402*%
%ADD65R,0.02795X0.02323*%
%ADD66R,0.05402X0.02795*%
%ADD67R,0.02323X0.02795*%
%ADD73O,0.11811X0.07874*%
%ADD74O,0.06693X0.11417*%
%ADD75P,0.08523X8X292.5*%
%ADD76O,0.25591X0.17717*%
D25*
X128290Y100501D02*
D03*
X167463D02*
D03*
D26*
X135574Y88099D02*
D03*
X140494Y88099D02*
D03*
X160180Y88099D02*
D03*
X155259Y88099D02*
D03*
X150338Y88099D02*
D03*
X145416D02*
D03*
D27*
X150116Y40261D02*
D03*
X156021Y40261D02*
D03*
X156021Y22939D02*
D03*
X154053D02*
D03*
X152084Y22939D02*
D03*
X150116D02*
D03*
X148147Y22939D02*
D03*
X146179D02*
D03*
X146179Y40261D02*
D03*
X148147D02*
D03*
X152084Y40261D02*
D03*
X154053Y40261D02*
D03*
X103579Y44439D02*
D03*
X105547D02*
D03*
X107516Y44439D02*
D03*
X109484D02*
D03*
X111453Y44439D02*
D03*
X113421D02*
D03*
X113421Y61761D02*
D03*
X111453D02*
D03*
X109484Y61761D02*
D03*
X107516D02*
D03*
X105547Y61761D02*
D03*
X103579D02*
D03*
D28*
X159761Y36521D02*
D03*
Y34553D02*
D03*
Y32584D02*
D03*
Y30616D02*
D03*
Y28647D02*
D03*
Y26679D02*
D03*
X142439D02*
D03*
Y28647D02*
D03*
Y30616D02*
D03*
Y32584D02*
D03*
Y34553D02*
D03*
Y36521D02*
D03*
X117161Y48179D02*
D03*
Y50147D02*
D03*
Y52116D02*
D03*
Y54084D02*
D03*
Y56053D02*
D03*
Y58021D02*
D03*
X99839D02*
D03*
Y56053D02*
D03*
Y54084D02*
D03*
Y52116D02*
D03*
Y50147D02*
D03*
Y48179D02*
D03*
D29*
X158900Y64323D02*
D03*
Y66882D02*
D03*
Y69441D02*
D03*
Y72000D02*
D03*
Y74559D02*
D03*
Y77118D02*
D03*
Y79677D02*
D03*
X136853Y64323D02*
D03*
Y72000D02*
D03*
Y66882D02*
D03*
Y69441D02*
D03*
Y74559D02*
D03*
Y77118D02*
D03*
D30*
Y79677D02*
D03*
D31*
X174942Y66168D02*
D03*
X167658D02*
D03*
Y74369D02*
D03*
X174942D02*
D03*
X117558Y20700D02*
D03*
X124842D02*
D03*
X135800Y12800D02*
D03*
X143083D02*
D03*
X75958D02*
D03*
X83242D02*
D03*
D32*
X133700Y57242D02*
D03*
Y49958D02*
D03*
X142200Y57242D02*
D03*
Y49958D02*
D03*
X126100Y27958D02*
D03*
Y35242D02*
D03*
X117600Y27958D02*
D03*
X117600Y35242D02*
D03*
X123700Y64558D02*
D03*
Y71842D02*
D03*
Y86700D02*
D03*
Y79417D02*
D03*
D33*
X117558Y12800D02*
D03*
X125039Y12800D02*
D03*
X59891D02*
D03*
X67372D02*
D03*
D34*
X173300Y59231D02*
D03*
Y48995D02*
D03*
X86500Y25969D02*
D03*
Y36205D02*
D03*
D35*
X157750Y57755D02*
D03*
Y49881D02*
D03*
X165400Y49963D02*
D03*
Y57837D02*
D03*
X150100Y57737D02*
D03*
Y49863D02*
D03*
X135800Y35437D02*
D03*
Y27563D02*
D03*
X101832Y35319D02*
D03*
Y27445D02*
D03*
X94200Y27463D02*
D03*
Y35337D02*
D03*
X109465Y27445D02*
D03*
Y35319D02*
D03*
X123700Y49163D02*
D03*
Y57037D02*
D03*
D36*
X173274Y42600D02*
D03*
X165400D02*
D03*
X175237Y83700D02*
D03*
X167363D02*
D03*
X113737Y73600D02*
D03*
X105863D02*
D03*
X86263Y42600D02*
D03*
X94137Y42600D02*
D03*
D37*
X70600Y94200D02*
D03*
X50600D02*
D03*
D63*
X151100Y31600D02*
D03*
X108500Y53100D02*
D03*
D64*
X210200Y22439D02*
D03*
X215200D02*
D03*
X220200D02*
D03*
X225200D02*
D03*
X225200Y70700D02*
D03*
X220200D02*
D03*
X215200D02*
D03*
X210200D02*
D03*
X35600Y21139D02*
D03*
X40600Y21139D02*
D03*
X45600D02*
D03*
X50600Y21139D02*
D03*
X35590Y71625D02*
D03*
X40590D02*
D03*
X45590Y71625D02*
D03*
X50590D02*
D03*
D65*
X225200Y44300D02*
D03*
X220200D02*
D03*
X215200D02*
D03*
X210200D02*
D03*
X210200Y48839D02*
D03*
X215200D02*
D03*
X220200D02*
D03*
X225200D02*
D03*
X50600Y43000D02*
D03*
X45600D02*
D03*
X40600D02*
D03*
X35600D02*
D03*
X50590Y49764D02*
D03*
X45590D02*
D03*
X40590Y49764D02*
D03*
X35590D02*
D03*
D66*
X202600Y27200D02*
D03*
Y32200D02*
D03*
Y37200D02*
D03*
Y42200D02*
D03*
Y51100D02*
D03*
Y56100D02*
D03*
Y61100D02*
D03*
Y66100D02*
D03*
X58470Y41100D02*
D03*
Y36100D02*
D03*
X58470Y31100D02*
D03*
Y26100D02*
D03*
X58360Y67025D02*
D03*
X58360Y62025D02*
D03*
Y57025D02*
D03*
X58360Y52025D02*
D03*
D67*
X180739Y42200D02*
D03*
Y37200D02*
D03*
Y32200D02*
D03*
Y27200D02*
D03*
Y66100D02*
D03*
Y61100D02*
D03*
Y56100D02*
D03*
Y51100D02*
D03*
X80330Y26100D02*
D03*
Y31100D02*
D03*
X80330Y36100D02*
D03*
Y41100D02*
D03*
X80221Y52025D02*
D03*
Y57025D02*
D03*
Y62025D02*
D03*
Y67025D02*
D03*
D73*
X240905Y47399D02*
D03*
Y57399D02*
D03*
X19685Y47400D02*
D03*
Y57400D02*
D03*
D74*
X185302Y93900D02*
D03*
X204200D02*
D03*
X223097D02*
D03*
D75*
X108100Y95600D02*
D03*
X88415D02*
D03*
D76*
X17717Y93504D02*
D03*
X242874D02*
D03*
Y13780D02*
D03*
X17717D02*
D03*
M02*
