G04*
G04 #@! TF.GenerationSoftware,Altium Limited,Altium Designer,22.7.1 (60)*
G04*
G04 Layer_Physical_Order=1*
G04 Layer_Color=255*
%FSLAX25Y25*%
%MOIN*%
G70*
G04*
G04 #@! TF.SameCoordinates,D5FD8CF7-689A-4CA3-A305-E5C997A2AED7*
G04*
G04*
G04 #@! TF.FilePolarity,Positive*
G04*
G01*
G75*
%ADD10C,0.01000*%
%ADD25R,0.03937X0.11024*%
%ADD26R,0.02362X0.06693*%
%ADD27O,0.00945X0.04724*%
%ADD28O,0.04724X0.00945*%
%ADD29O,0.05906X0.01378*%
%ADD30R,0.05906X0.01378*%
%ADD31O,0.04528X0.05709*%
%ADD32O,0.05709X0.04528*%
%ADD33R,0.04724X0.04724*%
%ADD34R,0.02756X0.03543*%
%ADD35R,0.03937X0.03937*%
%ADD36R,0.03937X0.03937*%
%ADD37R,0.11811X0.04724*%
%ADD63R,0.11024X0.11024*%
%ADD64R,0.02795X0.05402*%
%ADD65R,0.02795X0.02323*%
%ADD66R,0.05402X0.02795*%
%ADD67R,0.02323X0.02795*%
%ADD68C,0.00800*%
%ADD69C,0.02000*%
%ADD70C,0.01500*%
%ADD71R,0.17795X0.15158*%
%ADD72R,0.15158X0.17795*%
%ADD73O,0.11811X0.07874*%
%ADD74O,0.06693X0.11417*%
%ADD75P,0.08523X8X292.5*%
%ADD76O,0.25591X0.17717*%
%ADD77C,0.02400*%
%ADD78C,0.02000*%
G36*
X229400Y101200D02*
Y95209D01*
X229232Y93504D01*
X229400Y91798D01*
Y89200D01*
X235000Y83600D01*
X257800D01*
X260900Y80500D01*
Y73900D01*
X258800Y71800D01*
X232347D01*
X231823Y71277D01*
X231823Y71277D01*
X231823Y71277D01*
X229400Y68853D01*
Y68853D01*
X226962Y66416D01*
X213046D01*
X212351Y67111D01*
X212198Y67399D01*
Y68599D01*
X212198Y72801D01*
X212198Y73740D01*
X212198Y74001D01*
X212003D01*
X211512Y74656D01*
X211430Y75068D01*
X211165Y75465D01*
X209465Y77165D01*
X209068Y77430D01*
X208600Y77523D01*
X187522D01*
X187220Y77826D01*
X186558Y78100D01*
X185842D01*
X185180Y77826D01*
X184674Y77320D01*
X184400Y76658D01*
Y76609D01*
X184374Y75927D01*
X183642Y75500D01*
X182980Y75226D01*
X182474Y74720D01*
X182200Y74058D01*
Y74041D01*
X182200Y74041D01*
Y68313D01*
X180869D01*
X180557Y68251D01*
X180327Y68098D01*
X178978D01*
Y64222D01*
X178978Y64102D01*
X178221Y63216D01*
X173891D01*
X172852Y64081D01*
Y82958D01*
X172732Y83563D01*
X172389Y84076D01*
X171820Y84645D01*
X171308Y84988D01*
X171207Y85008D01*
X170681Y85154D01*
X170138Y86308D01*
X170161Y90192D01*
X171444Y91474D01*
X181129D01*
X181263Y90455D01*
X181681Y89447D01*
X182345Y88581D01*
X183211Y87916D01*
X184220Y87498D01*
X185302Y87356D01*
X186385Y87498D01*
X187394Y87916D01*
X188260Y88581D01*
X188924Y89447D01*
X189342Y90455D01*
X189485Y91538D01*
Y96262D01*
X189342Y97345D01*
X188924Y98353D01*
X188260Y99220D01*
X187394Y99884D01*
X186385Y100302D01*
X185302Y100444D01*
X184220Y100302D01*
X183211Y99884D01*
X182345Y99220D01*
X181681Y98353D01*
X181263Y97345D01*
X181120Y96262D01*
Y94125D01*
X123200D01*
X122693Y94025D01*
X122263Y93737D01*
X118663Y90137D01*
X118375Y89707D01*
X118274Y89200D01*
Y89146D01*
X109868Y80739D01*
X109361Y80232D01*
X109087Y79571D01*
Y79418D01*
X108303Y78634D01*
X108038Y78237D01*
X107945Y77768D01*
Y70555D01*
X108038Y70086D01*
X108261Y69753D01*
Y63164D01*
X108205Y63109D01*
Y59183D01*
X107922Y58900D01*
X107086D01*
X106809Y59177D01*
Y63146D01*
X106771Y63184D01*
Y63690D01*
X106678Y64159D01*
X106613Y64256D01*
X106605Y64293D01*
X106340Y64690D01*
X105941Y65089D01*
X105916Y65126D01*
X105054Y65989D01*
X104657Y66254D01*
X104189Y66347D01*
X98869D01*
X98400Y66254D01*
X98004Y65989D01*
X97776Y65761D01*
X97242D01*
X96580Y65487D01*
X96074Y64981D01*
X95800Y64319D01*
Y63603D01*
X95387Y62985D01*
X92583D01*
X92306Y62930D01*
X92002Y63056D01*
X91286D01*
X90625Y62782D01*
X90118Y62275D01*
X89844Y61614D01*
Y60898D01*
X90118Y60236D01*
X90625Y59730D01*
X91286Y59456D01*
X92002D01*
X92548Y59682D01*
X92812Y59493D01*
X92975Y59349D01*
X93397Y58833D01*
X93200Y58358D01*
Y57642D01*
X93474Y56980D01*
X93980Y56474D01*
X94642Y56200D01*
X95358D01*
X96020Y56474D01*
X96322Y56776D01*
X99817D01*
X99957Y56804D01*
X102304D01*
X102604Y56504D01*
Y53704D01*
X102200Y53300D01*
X100036D01*
X99839Y53339D01*
X99760Y53324D01*
X84675D01*
X84316Y53252D01*
X84128Y53280D01*
X83116Y53922D01*
X83116Y85262D01*
X85438Y87584D01*
X90000D01*
X90312Y87646D01*
X90577Y87823D01*
X90577Y87823D01*
X94377Y91623D01*
X94554Y91888D01*
X94616Y92200D01*
X94616Y92200D01*
Y99100D01*
X94616Y99100D01*
X94554Y99412D01*
X94377Y99677D01*
X94377Y99677D01*
X90777Y103277D01*
X90512Y103454D01*
X90200Y103516D01*
X90200Y103516D01*
X67600D01*
X67600Y103516D01*
X67288Y103454D01*
X67023Y103277D01*
X67023Y103277D01*
X62723Y98977D01*
X62546Y98712D01*
X62484Y98400D01*
X62484Y98400D01*
Y77167D01*
X62484Y76400D01*
X62270Y75970D01*
X55816Y69516D01*
X54863Y69516D01*
X54657Y69475D01*
X54551Y69454D01*
X54551Y69454D01*
X54410Y69359D01*
X54287Y69277D01*
X54287Y69277D01*
X53125Y68116D01*
X38702D01*
X37588Y68324D01*
X37588Y69316D01*
Y74926D01*
X33593D01*
Y69316D01*
X33593Y68324D01*
X32479Y68116D01*
X31184D01*
X25200Y74100D01*
X24179D01*
X24100Y74116D01*
X24100Y74116D01*
X2600D01*
X2521Y74100D01*
X1600D01*
X-100Y75800D01*
Y82100D01*
X1300Y83500D01*
X25500D01*
X31300Y89300D01*
Y92910D01*
X31359Y93504D01*
X31300Y94098D01*
Y103900D01*
X34724Y107324D01*
X223276D01*
X229400Y101200D01*
D02*
G37*
G36*
X138713Y84153D02*
X139270D01*
Y83406D01*
X139364Y82938D01*
X139629Y82541D01*
X141376Y80793D01*
Y78342D01*
X139573D01*
X139117Y78432D01*
X134589D01*
X134133Y78342D01*
X128172D01*
X127179Y79417D01*
X127081Y80164D01*
X126792Y80861D01*
X126333Y81459D01*
X125735Y81918D01*
X125038Y82207D01*
X124291Y82305D01*
X123109D01*
X122362Y82207D01*
X122125Y82109D01*
X121082Y82663D01*
X120925Y82863D01*
Y88651D01*
X123749Y91474D01*
X138713D01*
Y84153D01*
D02*
G37*
G36*
X155707Y78748D02*
X156133Y78463D01*
X156636Y78363D01*
X158843D01*
X158900Y78352D01*
X165404D01*
X165812Y77152D01*
X165616Y77002D01*
X165157Y76403D01*
X164900Y75783D01*
X161620D01*
X161164Y75873D01*
X157139D01*
X156994Y75971D01*
X156526Y76064D01*
X156057Y75971D01*
X155776Y75783D01*
X155448D01*
X154323Y76907D01*
Y78823D01*
X154935Y79018D01*
X155524Y79022D01*
X155707Y78748D01*
D02*
G37*
G36*
X144192Y75965D02*
Y71023D01*
X143834Y70664D01*
X139573D01*
X139117Y70755D01*
X134589D01*
X134133Y70664D01*
X128497D01*
X127621Y71661D01*
X127652Y71998D01*
X128742Y72800D01*
X129458D01*
X130120Y73074D01*
X130381Y73336D01*
X134133D01*
X134589Y73245D01*
X139117D01*
X139620Y73345D01*
X140046Y73630D01*
X140331Y74056D01*
X140431Y74559D01*
X140404Y74695D01*
X140973Y75665D01*
X141218Y75895D01*
X141918D01*
X142386Y75988D01*
X142783Y76253D01*
X142992Y76462D01*
X144192Y75965D01*
D02*
G37*
G36*
X164868Y73030D02*
X165157Y72334D01*
X165616Y71736D01*
X166214Y71276D01*
X166911Y70988D01*
X167658Y70890D01*
X168188Y70268D01*
X167658Y69648D01*
X166911Y69549D01*
X166214Y69261D01*
X165616Y68801D01*
X165157Y68203D01*
X165116Y68105D01*
X161620D01*
X161164Y68196D01*
X156636D01*
X156271Y68124D01*
X152707D01*
X151561Y69269D01*
X152302Y70200D01*
X153018D01*
X153680Y70474D01*
X153982Y70776D01*
X156180D01*
X156636Y70686D01*
X161164D01*
X161667Y70786D01*
X162093Y71071D01*
X162378Y71497D01*
X162478Y72000D01*
X162451Y72136D01*
X163020Y73106D01*
X163265Y73336D01*
X164828D01*
X164868Y73030D01*
D02*
G37*
G36*
X120431Y72860D02*
X120319Y72589D01*
X120221Y71842D01*
X120319Y71094D01*
X120608Y70398D01*
X121067Y69799D01*
X121665Y69340D01*
X122362Y69052D01*
X123109Y68953D01*
X124291D01*
X124814Y69022D01*
X125260Y68576D01*
X125657Y68311D01*
X126126Y68217D01*
X128540D01*
X129400Y67158D01*
Y66442D01*
X129674Y65780D01*
X130180Y65274D01*
X130842Y65000D01*
X131558D01*
X132220Y65274D01*
X132604Y65658D01*
X134133D01*
X134589Y65568D01*
X139117D01*
X139620Y65668D01*
X140046Y65953D01*
X140331Y66379D01*
X140431Y66882D01*
X140404Y67017D01*
X140973Y67988D01*
X141218Y68217D01*
X143283D01*
X143300Y68200D01*
X149270Y68200D01*
X149473Y67897D01*
X151335Y66035D01*
X151311Y65342D01*
X151037Y64681D01*
Y63965D01*
X150628Y63353D01*
X143079D01*
X142474Y63233D01*
X141961Y62890D01*
X141083Y62012D01*
X140740Y61499D01*
X140620Y60894D01*
Y59931D01*
X140165Y59743D01*
X139567Y59284D01*
X139212Y58822D01*
X136688D01*
X136333Y59284D01*
X135735Y59743D01*
X135038Y60032D01*
X134291Y60130D01*
X133109D01*
X132362Y60032D01*
X131665Y59743D01*
X131067Y59284D01*
X130712Y58822D01*
X129588D01*
X129058Y59042D01*
X128342D01*
X127680Y58768D01*
X127174Y58261D01*
X126900Y57600D01*
Y56884D01*
X127110Y56376D01*
X126836Y55811D01*
X126415Y55300D01*
X126407Y55292D01*
X121381D01*
X121326Y55303D01*
Y61763D01*
X121400Y61942D01*
Y62658D01*
X121126Y63320D01*
X120620Y63826D01*
X119958Y64100D01*
X119242D01*
X118580Y63826D01*
X118388Y63633D01*
X114747D01*
Y71031D01*
X116305D01*
Y72275D01*
X117600D01*
X118107Y72375D01*
X118537Y72663D01*
X119414Y73540D01*
X120431Y72860D01*
D02*
G37*
G36*
X182200Y60500D02*
X182400Y60300D01*
Y57100D01*
X180500Y55200D01*
X170500D01*
X169400Y56300D01*
Y59500D01*
X172300Y62400D01*
X179600D01*
X182200Y60500D01*
D02*
G37*
G36*
X155182Y56917D02*
X153735Y55471D01*
X153470Y55074D01*
X153377Y54606D01*
Y53631D01*
X152177Y52436D01*
X144265Y52437D01*
X144235Y52460D01*
X143538Y52748D01*
X142791Y52847D01*
X141609D01*
X140862Y52748D01*
X140165Y52460D01*
X140135Y52437D01*
X135765Y52437D01*
X135735Y52460D01*
X135038Y52748D01*
X134291Y52847D01*
X133109D01*
X132362Y52748D01*
X131665Y52460D01*
X131635Y52437D01*
X129447Y52437D01*
X129399Y52677D01*
X129134Y53074D01*
X127868Y54339D01*
X128208Y55131D01*
X128463Y55442D01*
X129058D01*
X129588Y55661D01*
X130712D01*
X131067Y55199D01*
X131665Y54740D01*
X132362Y54452D01*
X133109Y54353D01*
X134291D01*
X135038Y54452D01*
X135735Y54740D01*
X136333Y55199D01*
X136688Y55661D01*
X139212D01*
X139567Y55199D01*
X140165Y54740D01*
X140862Y54452D01*
X141609Y54353D01*
X142791D01*
X143538Y54452D01*
X144235Y54740D01*
X144833Y55199D01*
X145292Y55797D01*
X145581Y56494D01*
X145679Y57242D01*
X145581Y57989D01*
X145292Y58686D01*
X145057Y58992D01*
X145396Y59961D01*
X145589Y60192D01*
X155182D01*
Y56917D01*
D02*
G37*
G36*
X93800Y99100D02*
Y92200D01*
X90000Y88400D01*
X85100D01*
X82300Y85600D01*
X82300Y51456D01*
X80544Y49700D01*
X65861Y49700D01*
X64900Y50661D01*
Y74800D01*
X63300Y76400D01*
Y98400D01*
X67600Y102700D01*
X90200D01*
X93800Y99100D01*
D02*
G37*
G36*
X30100Y67300D02*
X53463D01*
X54863Y68700D01*
X60900Y68700D01*
X61600Y68000D01*
X61600Y56564D01*
X60636Y55600D01*
X56000D01*
X54400Y54000D01*
Y50900D01*
X51500Y48000D01*
X30200D01*
X25234Y52966D01*
X2934D01*
X100Y55800D01*
Y70800D01*
X2600Y73300D01*
X24100D01*
X30100Y67300D01*
D02*
G37*
G36*
X259500Y68000D02*
Y54100D01*
X258208Y52808D01*
X234208D01*
X228484Y47084D01*
X206516D01*
X204300Y49300D01*
X200200D01*
X199300Y50200D01*
Y62000D01*
X200700Y63400D01*
X206300D01*
X208500Y65600D01*
X227300D01*
X232400Y70700D01*
X256800D01*
X259500Y68000D01*
D02*
G37*
G36*
X259700Y49700D02*
X259700Y36800D01*
X256900Y34000D01*
X231800D01*
X226815Y29015D01*
X208115D01*
X204900Y25800D01*
X200600D01*
X199600Y26800D01*
Y38300D01*
X200800Y39500D01*
X205600D01*
X207300Y41200D01*
Y43800D01*
X209769Y46269D01*
X228484D01*
X228484Y46269D01*
X228642Y46300D01*
X230400D01*
X235743Y51643D01*
X257757D01*
X259700Y49700D01*
D02*
G37*
G36*
X91402Y45755D02*
X89223Y43577D01*
X89046Y43312D01*
X88984Y43000D01*
X88984Y43000D01*
Y40738D01*
X88262Y40016D01*
X84800D01*
X84488Y39954D01*
X84223Y39777D01*
X84223Y39777D01*
X83223Y38777D01*
X82093Y39242D01*
X82092Y39243D01*
Y43098D01*
X82092Y43098D01*
X82092D01*
X82796Y43966D01*
X85786Y46955D01*
X90905D01*
X91402Y45755D01*
D02*
G37*
G36*
X175737Y52500D02*
X175737Y47000D01*
X174737Y46000D01*
X170937D01*
X169737Y44800D01*
Y42200D01*
X166437Y38900D01*
X156437D01*
X155937Y39400D01*
X156052Y42500D01*
X160037D01*
X164250Y46713D01*
X167250D01*
X168237Y47700D01*
Y51872D01*
X170478Y54113D01*
X174124D01*
X175737Y52500D01*
D02*
G37*
G36*
X174891Y44866D02*
X175277Y44068D01*
Y38407D01*
X174615Y37745D01*
X168132D01*
X167635Y38945D01*
X170314Y41623D01*
X170314Y41623D01*
X170491Y41888D01*
X170553Y42200D01*
X170553Y42200D01*
Y44462D01*
X171275Y45184D01*
X174149D01*
X174891Y44866D01*
D02*
G37*
G36*
X124065Y32740D02*
X124762Y32452D01*
X125509Y32353D01*
X126691D01*
X127438Y32452D01*
X128135Y32740D01*
X129277Y32472D01*
Y31800D01*
X129370Y31332D01*
X129635Y30935D01*
X130819Y29751D01*
X131216Y29485D01*
X131684Y29392D01*
X138423D01*
X139455Y28647D01*
X139539Y28229D01*
X139711Y27663D01*
X139539Y27097D01*
X139455Y26679D01*
X139539Y26260D01*
X139776Y25905D01*
X140130Y25668D01*
X140450Y25605D01*
X141047Y24554D01*
X140913Y24420D01*
X140639Y23758D01*
Y23042D01*
X140852Y22525D01*
X140610Y21884D01*
X140270Y21326D01*
X127726D01*
X127632Y22038D01*
X127343Y22735D01*
X126884Y23333D01*
X126286Y23792D01*
X126098Y23870D01*
X126337Y25070D01*
X126691D01*
X127438Y25168D01*
X128135Y25457D01*
X128733Y25916D01*
X129192Y26514D01*
X129481Y27211D01*
X129579Y27958D01*
X129481Y28706D01*
X129192Y29403D01*
X128733Y30001D01*
X128135Y30460D01*
X127438Y30748D01*
X126691Y30847D01*
X125509D01*
X124762Y30748D01*
X124065Y30460D01*
X123467Y30001D01*
X123112Y29539D01*
X120588D01*
X120233Y30001D01*
X119635Y30460D01*
X118938Y30748D01*
X118191Y30847D01*
X117009D01*
X116262Y30748D01*
X115565Y30460D01*
X114967Y30001D01*
X114508Y29403D01*
X114219Y28706D01*
X114121Y27958D01*
X114219Y27211D01*
X114508Y26514D01*
X114967Y25916D01*
X115565Y25457D01*
X116020Y25269D01*
Y23720D01*
X115516Y23333D01*
X115057Y22735D01*
X114768Y22038D01*
X114670Y21291D01*
Y20109D01*
X114768Y19362D01*
X115057Y18665D01*
X115516Y18067D01*
X116114Y17608D01*
X116811Y17319D01*
X117251Y17261D01*
X117750Y16501D01*
X117870Y16052D01*
X117668Y15762D01*
X114596D01*
Y9838D01*
X120142D01*
X126801Y9838D01*
X126862Y9838D01*
X128001Y9838D01*
X128001Y9985D01*
X128001Y9985D01*
Y11474D01*
X133008D01*
X133010Y11462D01*
X133298Y10765D01*
X133757Y10167D01*
X134356Y9708D01*
X135052Y9419D01*
X135800Y9321D01*
X136548Y9419D01*
X137244Y9708D01*
X137842Y10167D01*
X138302Y10765D01*
X138590Y11462D01*
X138677Y12121D01*
X138688Y12132D01*
Y12205D01*
X138688Y12209D01*
Y13390D01*
X138688Y13395D01*
Y18675D01*
X142291D01*
X142798Y18775D01*
X143228Y19063D01*
X143793Y19627D01*
X144774Y19004D01*
X144821Y18958D01*
Y18258D01*
X145095Y17596D01*
X145476Y17216D01*
X145462Y17145D01*
X144956Y16639D01*
X144682Y15977D01*
Y15261D01*
X144956Y14600D01*
X145462Y14093D01*
X146124Y13819D01*
X146840D01*
X147501Y14093D01*
X148008Y14600D01*
X148282Y15261D01*
Y15435D01*
X150981Y18134D01*
X151246Y18531D01*
X151339Y18999D01*
Y21536D01*
X151395Y21591D01*
Y25517D01*
X151678Y25800D01*
X152515D01*
X152791Y25523D01*
Y21554D01*
X152829Y21516D01*
Y19747D01*
X152922Y19279D01*
X153188Y18882D01*
X154135Y17935D01*
X154532Y17670D01*
X155000Y17576D01*
X161678D01*
X161980Y17274D01*
X162642Y17000D01*
X163358D01*
X164020Y17274D01*
X167942Y19803D01*
X170016Y21141D01*
X170675Y21418D01*
X171182Y21925D01*
X171456Y22586D01*
Y23302D01*
X171182Y23964D01*
X170675Y24470D01*
X170569Y24514D01*
Y24580D01*
X168894Y26255D01*
Y26964D01*
X168620Y27625D01*
X168114Y28132D01*
X167452Y28406D01*
X166736D01*
X166075Y28132D01*
X165845Y27902D01*
X159761D01*
X159728Y27896D01*
X157296D01*
X156996Y28196D01*
Y30996D01*
X157400Y31400D01*
X159564D01*
X159761Y31361D01*
X170509D01*
X179035Y22835D01*
X179432Y22570D01*
X179900Y22477D01*
X205948D01*
X206416Y22570D01*
X206813Y22835D01*
X209655Y25677D01*
X223202D01*
Y19139D01*
X227198D01*
Y25740D01*
X226234D01*
Y25872D01*
X226141Y26340D01*
X225875Y26737D01*
X225613Y26999D01*
X226110Y28199D01*
X226815D01*
X226815Y28199D01*
X227127Y28261D01*
X227392Y28438D01*
X227392Y28438D01*
X228291Y29338D01*
D01*
X231653Y32700D01*
X255000D01*
X257600Y30100D01*
Y25800D01*
X255375Y23575D01*
X234275D01*
X229400Y18700D01*
Y15485D01*
X229232Y13780D01*
X229400Y12074D01*
Y6100D01*
X223422Y122D01*
X36378D01*
X31300Y5200D01*
Y13185D01*
X31359Y13780D01*
X31300Y14374D01*
Y24884D01*
X47586D01*
X48602Y24440D01*
Y17839D01*
X52598D01*
Y19776D01*
X58331D01*
X61145Y16962D01*
X60648Y15762D01*
X56929D01*
Y9838D01*
X62853D01*
Y14926D01*
X63631Y15375D01*
X64410Y14926D01*
Y9838D01*
X70334D01*
Y11576D01*
X73153D01*
X73168Y11462D01*
X73457Y10765D01*
X73916Y10167D01*
X74514Y9708D01*
X75211Y9419D01*
X75958Y9321D01*
X76706Y9419D01*
X77403Y9708D01*
X78001Y10167D01*
X78460Y10765D01*
X78748Y11462D01*
X78847Y12209D01*
Y13390D01*
X78748Y14138D01*
X78460Y14835D01*
X78351Y14976D01*
X78930Y16176D01*
X84978D01*
X85280Y15874D01*
X85942Y15600D01*
X86658D01*
X87320Y15874D01*
X87826Y16380D01*
X88100Y17042D01*
Y17758D01*
X87826Y18420D01*
X87320Y18926D01*
X86658Y19200D01*
X86318D01*
X86189Y19393D01*
Y20109D01*
X85914Y20771D01*
X85408Y21277D01*
X84899Y21488D01*
X84773Y21784D01*
X85243Y22696D01*
X85640Y22984D01*
X90400D01*
X90400Y22984D01*
X90712Y23046D01*
X90977Y23223D01*
X91777Y24023D01*
X91954Y24288D01*
X92012Y24582D01*
X92131Y24616D01*
X93208Y24768D01*
X93216Y24768D01*
X103246Y24768D01*
X103246Y24768D01*
X103290Y24876D01*
X104401D01*
Y28283D01*
X106565Y30447D01*
X106830Y30844D01*
X106923Y31312D01*
Y32750D01*
X112033D01*
Y32763D01*
X115536D01*
X115565Y32740D01*
X116262Y32452D01*
X117009Y32353D01*
X118191D01*
X118938Y32452D01*
X119635Y32740D01*
X119664Y32763D01*
X124036D01*
X124065Y32740D01*
D02*
G37*
G36*
X103600Y45800D02*
X103485Y42700D01*
X99500D01*
X95287Y38487D01*
X92287D01*
X91300Y37500D01*
Y32963D01*
X89424Y31087D01*
X85413D01*
X83800Y32700D01*
Y38200D01*
X84800Y39200D01*
X88600D01*
X89800Y40400D01*
Y43000D01*
X93100Y46300D01*
X103100D01*
X103600Y45800D01*
D02*
G37*
G36*
X24100Y51600D02*
X29000Y46700D01*
X56700D01*
X63100Y40300D01*
Y29300D01*
X62400Y28600D01*
X54800D01*
X51900Y25700D01*
X5500D01*
X300Y30900D01*
Y48800D01*
X3100Y51600D01*
X24100Y51600D01*
D02*
G37*
G36*
X84000Y30000D02*
X89300D01*
X91200Y28100D01*
Y24600D01*
X90400Y23800D01*
X79500D01*
X78600Y24700D01*
Y31400D01*
X79700Y32500D01*
X81500D01*
X84000Y30000D01*
D02*
G37*
%LPC*%
G36*
X223097Y100444D02*
X222015Y100302D01*
X221006Y99884D01*
X220140Y99220D01*
X219476Y98353D01*
X219058Y97345D01*
X218915Y96262D01*
Y91538D01*
X219058Y90455D01*
X219476Y89447D01*
X220140Y88581D01*
X221006Y87916D01*
X222015Y87498D01*
X223097Y87356D01*
X224180Y87498D01*
X225189Y87916D01*
X226055Y88581D01*
X226719Y89447D01*
X227137Y90455D01*
X227280Y91538D01*
Y96262D01*
X227137Y97345D01*
X226719Y98353D01*
X226055Y99220D01*
X225189Y99884D01*
X224180Y100302D01*
X223097Y100444D01*
D02*
G37*
%LPD*%
D10*
X119421Y14984D02*
X125137Y20700D01*
X117558Y12800D02*
X119421Y14662D01*
Y14984D01*
X123200Y92800D02*
X184203D01*
X119600Y89200D02*
X123200Y92800D01*
X184203D02*
X185302Y93900D01*
X148147Y34553D02*
Y40261D01*
Y34553D02*
X151100Y31600D01*
X146151Y22473D02*
X146179Y22501D01*
X144764Y22473D02*
X146151D01*
X142291Y20000D02*
X144764Y22473D01*
X146179Y22501D02*
Y22939D01*
X125542Y20000D02*
X142291D01*
X108500Y53100D02*
X111453Y50147D01*
Y44439D02*
Y50147D01*
X119592Y62308D02*
X119600Y62300D01*
X113421Y62308D02*
X119592D01*
X117600Y73600D02*
X119600Y75600D01*
Y89200D01*
X113737Y73600D02*
X117600D01*
X113737Y73400D02*
Y73600D01*
X113421Y62308D02*
Y73084D01*
Y61761D02*
Y62308D01*
Y73084D02*
X113737Y73400D01*
X125039Y12800D02*
X135800D01*
X167317Y83654D02*
X167363Y83700D01*
X166177Y79677D02*
X167317Y80817D01*
X158900Y79677D02*
X166177D01*
X167317Y80817D02*
Y83654D01*
X167500Y83837D02*
Y87200D01*
X160180Y88099D02*
X166601D01*
X167500Y87200D01*
D25*
X128290Y100501D02*
D03*
X167463D02*
D03*
D26*
X135574Y88099D02*
D03*
X140494Y88099D02*
D03*
X160180Y88099D02*
D03*
X155259Y88099D02*
D03*
X150338Y88099D02*
D03*
X145416D02*
D03*
D27*
X150116Y40261D02*
D03*
X156021Y40261D02*
D03*
X156021Y22939D02*
D03*
X154053D02*
D03*
X152084Y22939D02*
D03*
X150116D02*
D03*
X148147Y22939D02*
D03*
X146179D02*
D03*
X146179Y40261D02*
D03*
X148147D02*
D03*
X152084Y40261D02*
D03*
X154053Y40261D02*
D03*
X103579Y44439D02*
D03*
X105547D02*
D03*
X107516Y44439D02*
D03*
X109484D02*
D03*
X111453Y44439D02*
D03*
X113421D02*
D03*
X113421Y61761D02*
D03*
X111453D02*
D03*
X109484Y61761D02*
D03*
X107516D02*
D03*
X105547Y61761D02*
D03*
X103579D02*
D03*
D28*
X159761Y36521D02*
D03*
Y34553D02*
D03*
Y32584D02*
D03*
Y30616D02*
D03*
Y28647D02*
D03*
Y26679D02*
D03*
X142439D02*
D03*
Y28647D02*
D03*
Y30616D02*
D03*
Y32584D02*
D03*
Y34553D02*
D03*
Y36521D02*
D03*
X117161Y48179D02*
D03*
Y50147D02*
D03*
Y52116D02*
D03*
Y54084D02*
D03*
Y56053D02*
D03*
Y58021D02*
D03*
X99839D02*
D03*
Y56053D02*
D03*
Y54084D02*
D03*
Y52116D02*
D03*
Y50147D02*
D03*
Y48179D02*
D03*
D29*
X158900Y64323D02*
D03*
Y66882D02*
D03*
Y69441D02*
D03*
Y72000D02*
D03*
Y74559D02*
D03*
Y77118D02*
D03*
Y79677D02*
D03*
X136853Y64323D02*
D03*
Y72000D02*
D03*
Y66882D02*
D03*
Y69441D02*
D03*
Y74559D02*
D03*
Y77118D02*
D03*
D30*
Y79677D02*
D03*
D31*
X174942Y66168D02*
D03*
X167658D02*
D03*
Y74369D02*
D03*
X174942D02*
D03*
X117558Y20700D02*
D03*
X124842D02*
D03*
X135800Y12800D02*
D03*
X143083D02*
D03*
X75958D02*
D03*
X83242D02*
D03*
D32*
X133700Y57242D02*
D03*
Y49958D02*
D03*
X142200Y57242D02*
D03*
Y49958D02*
D03*
X126100Y27958D02*
D03*
Y35242D02*
D03*
X117600Y27958D02*
D03*
X117600Y35242D02*
D03*
X123700Y64558D02*
D03*
Y71842D02*
D03*
Y86700D02*
D03*
Y79417D02*
D03*
D33*
X117558Y12800D02*
D03*
X125039Y12800D02*
D03*
X59891D02*
D03*
X67372D02*
D03*
D34*
X173300Y59231D02*
D03*
Y48995D02*
D03*
X86500Y25969D02*
D03*
Y36205D02*
D03*
D35*
X157750Y57755D02*
D03*
Y49881D02*
D03*
X165400Y49963D02*
D03*
Y57837D02*
D03*
X150100Y57737D02*
D03*
Y49863D02*
D03*
X135800Y35437D02*
D03*
Y27563D02*
D03*
X101832Y35319D02*
D03*
Y27445D02*
D03*
X94200Y27463D02*
D03*
Y35337D02*
D03*
X109465Y27445D02*
D03*
Y35319D02*
D03*
X123700Y49163D02*
D03*
Y57037D02*
D03*
D36*
X173274Y42600D02*
D03*
X165400D02*
D03*
X175237Y83700D02*
D03*
X167363D02*
D03*
X113737Y73600D02*
D03*
X105863D02*
D03*
X86263Y42600D02*
D03*
X94137Y42600D02*
D03*
D37*
X70600Y94200D02*
D03*
X50600D02*
D03*
D63*
X151100Y31600D02*
D03*
X108500Y53100D02*
D03*
D64*
X210200Y22439D02*
D03*
X215200D02*
D03*
X220200D02*
D03*
X225200D02*
D03*
X225200Y70700D02*
D03*
X220200D02*
D03*
X215200D02*
D03*
X210200D02*
D03*
X35600Y21139D02*
D03*
X40600Y21139D02*
D03*
X45600D02*
D03*
X50600Y21139D02*
D03*
X35590Y71625D02*
D03*
X40590D02*
D03*
X45590Y71625D02*
D03*
X50590D02*
D03*
D65*
X225200Y44300D02*
D03*
X220200D02*
D03*
X215200D02*
D03*
X210200D02*
D03*
X210200Y48839D02*
D03*
X215200D02*
D03*
X220200D02*
D03*
X225200D02*
D03*
X50600Y43000D02*
D03*
X45600D02*
D03*
X40600D02*
D03*
X35600D02*
D03*
X50590Y49764D02*
D03*
X45590D02*
D03*
X40590Y49764D02*
D03*
X35590D02*
D03*
D66*
X202600Y27200D02*
D03*
Y32200D02*
D03*
Y37200D02*
D03*
Y42200D02*
D03*
Y51100D02*
D03*
Y56100D02*
D03*
Y61100D02*
D03*
Y66100D02*
D03*
X58470Y41100D02*
D03*
Y36100D02*
D03*
X58470Y31100D02*
D03*
Y26100D02*
D03*
X58360Y67025D02*
D03*
X58360Y62025D02*
D03*
Y57025D02*
D03*
X58360Y52025D02*
D03*
D67*
X180739Y42200D02*
D03*
Y37200D02*
D03*
Y32200D02*
D03*
Y27200D02*
D03*
Y66100D02*
D03*
Y61100D02*
D03*
Y56100D02*
D03*
Y51100D02*
D03*
X80330Y26100D02*
D03*
Y31100D02*
D03*
X80330Y36100D02*
D03*
Y41100D02*
D03*
X80221Y52025D02*
D03*
Y57025D02*
D03*
Y62025D02*
D03*
Y67025D02*
D03*
D68*
X62437Y17400D02*
X86300D01*
X58837Y21000D02*
X62437Y17400D01*
X62349Y19751D02*
X84389D01*
X58470Y23630D02*
X62349Y19751D01*
X66059Y21992D02*
X82394D01*
X63843Y24208D02*
X66059Y21992D01*
X184000Y73700D02*
X198800D01*
X202600Y69900D01*
Y66100D02*
Y69900D01*
X121317Y54068D02*
X126409D01*
X128269Y52208D01*
Y43321D02*
Y52208D01*
X126669Y44031D02*
Y51546D01*
X126083Y52131D02*
X126669Y51546D01*
X121317Y52131D02*
X126083D01*
X98869Y65124D02*
X104189D01*
X97706Y63961D02*
X98869Y65124D01*
X97600Y63961D02*
X97706D01*
X91644Y61256D02*
X92077D01*
X92583Y61761D01*
X103579D01*
X131200Y66800D02*
X131282Y66882D01*
X136853D01*
X129100Y74600D02*
X129141Y74559D01*
X136853D01*
X146736Y15619D02*
X150116Y18999D01*
X146482Y15619D02*
X146736D01*
X150116Y18999D02*
Y22939D01*
X146621Y18616D02*
X148147Y20142D01*
Y22939D01*
X126100Y35242D02*
Y41152D01*
X128269Y43321D01*
X117879Y35242D02*
X126669Y44031D01*
X61900Y71700D02*
X63661Y69939D01*
Y50039D02*
Y69939D01*
X117200Y58060D02*
Y60000D01*
X117161Y58021D02*
X117200Y58060D01*
X109169Y77768D02*
X110613Y79213D01*
X110887D01*
X109169Y70555D02*
Y77768D01*
Y70555D02*
X109484Y70239D01*
X110768Y75983D02*
X116200Y81414D01*
Y81600D01*
X110768Y71217D02*
Y75983D01*
X109484Y61761D02*
Y70239D01*
X111453Y61761D02*
Y70533D01*
X110768Y71217D02*
X111453Y70533D01*
X123700Y71842D02*
X123725D01*
X126126Y69441D01*
X136853D01*
X152837Y64323D02*
X158900D01*
X152660Y72000D02*
X158900D01*
X67372Y12800D02*
X75990D01*
X142439Y40360D02*
Y44662D01*
Y36521D02*
Y40360D01*
Y23400D02*
Y26679D01*
X146179Y43279D02*
X149861Y46961D01*
Y49624D01*
X146179Y40261D02*
Y43279D01*
X142439Y44662D02*
X147400Y49624D01*
X149861D01*
X117161Y40061D02*
Y48179D01*
X109465Y35319D02*
X110119Y35973D01*
X112419Y35319D02*
X117161Y40061D01*
X109465Y35319D02*
X112419D01*
X59663Y57025D02*
X62061Y54627D01*
Y49339D02*
X65900Y45500D01*
X62061Y49339D02*
Y54627D01*
X58360Y57025D02*
X59663D01*
X58900Y31100D02*
X59898Y30102D01*
X60898D02*
X63843Y27157D01*
Y24208D02*
Y27157D01*
X59898Y30102D02*
X60898D01*
X63400Y43900D02*
X81000D01*
X58360Y48940D02*
Y52025D01*
Y48940D02*
X63400Y43900D01*
X65900Y45500D02*
X80337D01*
X63661Y50039D02*
X66000Y47700D01*
X80274D01*
X105475Y63763D02*
X105547Y63690D01*
Y61761D02*
Y63690D01*
X105475Y63763D02*
Y63825D01*
X105051Y64249D02*
X105475Y63825D01*
X104189Y65124D02*
X105051Y64261D01*
Y64249D02*
Y64261D01*
X84675Y52100D02*
X99823D01*
X80274Y47700D02*
X84675Y52100D01*
X85279Y48179D02*
X99839D01*
X81000Y43900D02*
X85279Y48179D01*
X84984Y50147D02*
X99839D01*
X80337Y45500D02*
X84984Y50147D01*
X159761Y32584D02*
X171016D01*
X179900Y23700D01*
X205948D02*
X209148Y26900D01*
X179900Y23700D02*
X205948D01*
X50739Y21000D02*
X58837D01*
X58470Y23630D02*
Y26100D01*
X99823Y52100D02*
X99839Y52116D01*
X223982Y26900D02*
X225010Y25872D01*
Y22629D02*
Y25872D01*
Y22629D02*
X225200Y22439D01*
X209148Y26900D02*
X223982D01*
X138320Y32605D02*
X142417D01*
X133417Y32469D02*
X138183D01*
X138320Y32605D01*
X132650Y33235D02*
Y40409D01*
Y33235D02*
X133417Y32469D01*
X131684Y30616D02*
X142439D01*
X117161Y52116D02*
X121301D01*
X121317Y52131D01*
X117161Y54084D02*
X121301D01*
X121317Y54068D01*
X122753Y50147D02*
X123700Y49200D01*
X117161Y50147D02*
X122753D01*
X136853Y69441D02*
X144341D01*
X126228Y77118D02*
X136853D01*
X123930Y79417D02*
X126228Y77118D01*
X123700Y79417D02*
X123930D01*
X150338Y68762D02*
Y88099D01*
X145416Y70516D02*
Y88099D01*
X153100Y80900D02*
X155259Y83059D01*
Y88099D01*
X140494Y83406D02*
Y88099D01*
Y83406D02*
X142600Y81300D01*
X153100Y76400D02*
Y80900D01*
X144341Y69441D02*
X145416Y70516D01*
X136853Y77118D02*
X141918D01*
X142600Y77800D01*
Y81300D01*
X117600Y35242D02*
X117879D01*
X155000Y18800D02*
X163000D01*
X154053Y19747D02*
X155000Y18800D01*
X169650Y22939D02*
X169656Y22944D01*
X156021Y22939D02*
X169650D01*
X159761Y26679D02*
X167021D01*
X167094Y26606D01*
X154053Y19747D02*
Y22939D01*
X210200Y70700D02*
X210300Y70800D01*
Y74600D01*
X186200Y76300D02*
X208600D01*
X210300Y74600D01*
X166945Y66882D02*
X167658Y66168D01*
X158900Y66882D02*
X166945D01*
X167468Y74559D02*
X167658Y74369D01*
X158900Y74559D02*
X167468D01*
X156793D02*
X158900D01*
X154941D02*
X156793D01*
X153100Y76400D02*
X154941Y74559D01*
X156526Y74826D02*
Y74840D01*
Y74826D02*
X156793Y74559D01*
X158882Y66900D02*
X158900Y66882D01*
X152200Y66900D02*
X158882D01*
X150338Y68762D02*
X152200Y66900D01*
X172322Y49973D02*
X173300Y48995D01*
X165400Y57837D02*
X172322Y50915D01*
Y49973D02*
Y50915D01*
X159761Y36521D02*
X175121D01*
X176500Y37900D02*
Y44700D01*
X175121Y36521D02*
X176500Y37900D01*
X178100Y37000D02*
Y43534D01*
X159761Y34553D02*
X175653D01*
X178100Y37000D01*
X150116Y40261D02*
Y44528D01*
X154600Y49012D01*
Y54606D01*
X157750Y57755D01*
X202600Y42200D02*
Y46031D01*
X176500Y44700D02*
X178300Y46500D01*
X202131D02*
X202600Y46031D01*
X178300Y46500D02*
X202131D01*
X178100Y43534D02*
X179466Y44900D01*
X196900D01*
X198100Y37800D02*
X198700Y37200D01*
X202600D01*
X196900Y44900D02*
X198100Y43700D01*
Y37800D02*
Y43700D01*
X202600Y37200D02*
X202600Y37200D01*
X130500Y31800D02*
X131684Y30616D01*
X130500Y31800D02*
Y40600D01*
X133700Y43800D01*
Y49958D01*
X132650Y40409D02*
X142200Y49958D01*
X142417Y32605D02*
X142439Y32584D01*
X135800Y35574D02*
X136821Y34553D01*
X142439D01*
X152084Y44215D02*
X157750Y49881D01*
X152084Y40261D02*
Y44215D01*
X154053Y40261D02*
Y43053D01*
X157100Y46100D01*
X161537D02*
X165400Y49963D01*
X157100Y46100D02*
X161537D01*
X50600Y21139D02*
X50739Y21000D01*
X95000Y58000D02*
X99817D01*
X99839Y58021D01*
X86500Y36205D02*
X87478Y35227D01*
Y34185D02*
X94200Y27463D01*
X87478Y34185D02*
Y35227D01*
X88609Y37072D02*
X94137Y42600D01*
X86500Y36205D02*
X87368Y37072D01*
X88609D01*
X95976Y44439D02*
X103579D01*
X94137Y42600D02*
X95976Y44439D01*
X103579Y43967D02*
Y44439D01*
X93574Y43837D02*
X93637Y43900D01*
X117161Y48179D02*
X117200Y48140D01*
X110119Y38019D02*
X113421Y41321D01*
Y44439D01*
X110119Y35973D02*
Y38019D01*
X105700Y36905D02*
X109484Y40690D01*
X107516Y41002D02*
Y44439D01*
X105700Y31312D02*
Y36905D01*
X101832Y35319D02*
X107516Y41002D01*
X109484Y40690D02*
Y44439D01*
X94200Y35337D02*
X98263Y39400D01*
X103600D02*
X105547Y41347D01*
X98263Y39400D02*
X103600D01*
X105547Y41347D02*
Y44439D01*
X101832Y27445D02*
X105700Y31312D01*
D69*
X174775Y61100D02*
X180739D01*
X173300Y59625D02*
X174775Y61100D01*
X173300Y59231D02*
Y59625D01*
X86369Y26100D02*
X86500Y25969D01*
D70*
X117600Y20000D02*
Y27958D01*
X125805D02*
X126100Y27663D01*
X117600Y27958D02*
X125805D01*
X128700Y57242D02*
X133700D01*
X142200D01*
X167500Y83837D02*
X167809Y83528D01*
X167363Y83700D02*
X168452Y82611D01*
X170703Y83528D02*
X171272Y82958D01*
X167809Y83528D02*
X170703D01*
X171272Y64081D02*
Y82958D01*
X143079Y61773D02*
X168964D01*
X171272Y64081D01*
X142200Y60894D02*
X143079Y61773D01*
X142200Y57242D02*
Y60894D01*
D71*
X217693Y36594D02*
D03*
X217687Y56548D02*
D03*
X43100Y35292D02*
D03*
X43099Y57472D02*
D03*
D72*
X188448Y34701D02*
D03*
X188447Y58600D02*
D03*
X72622Y33603D02*
D03*
X72512Y59525D02*
D03*
D73*
X240905Y47399D02*
D03*
Y57399D02*
D03*
X19685Y47400D02*
D03*
Y57400D02*
D03*
D74*
X185302Y93900D02*
D03*
X204200D02*
D03*
X223097D02*
D03*
D75*
X108100Y95600D02*
D03*
X88415D02*
D03*
D76*
X17717Y93504D02*
D03*
X242874D02*
D03*
Y13780D02*
D03*
X17717D02*
D03*
D77*
X4300Y78900D02*
D03*
X14300D02*
D03*
X242200Y28700D02*
D03*
X252200D02*
D03*
X185000Y50900D02*
D03*
X189500D02*
D03*
X194000D02*
D03*
X86300Y17400D02*
D03*
X84389Y19751D02*
D03*
X82394Y21992D02*
D03*
X126500Y61100D02*
D03*
X117200Y67600D02*
D03*
X137887Y60587D02*
D03*
X145950Y53600D02*
D03*
X130800Y23300D02*
D03*
X169800Y39200D02*
D03*
X131500Y72000D02*
D03*
X141100Y71900D02*
D03*
X163300Y77100D02*
D03*
Y70100D02*
D03*
X89700Y45700D02*
D03*
X97600Y63961D02*
D03*
X91644Y61256D02*
D03*
X129100Y74600D02*
D03*
X131200Y66800D02*
D03*
X146482Y15619D02*
D03*
X146621Y18616D02*
D03*
X61900Y71700D02*
D03*
X125137Y20700D02*
D03*
X119600Y62300D02*
D03*
X117200Y60000D02*
D03*
X110887Y79213D02*
D03*
X116200Y81600D02*
D03*
X152837Y64323D02*
D03*
X152660Y72000D02*
D03*
X59891Y12800D02*
D03*
X142439Y23400D02*
D03*
Y40360D02*
D03*
X117260Y44783D02*
D03*
X35590Y71625D02*
D03*
X126100Y27663D02*
D03*
X128700Y57242D02*
D03*
X163000Y18800D02*
D03*
X169656Y22944D02*
D03*
X167094Y26606D02*
D03*
X186200Y76300D02*
D03*
X184000Y73700D02*
D03*
X202800Y60900D02*
D03*
X95000Y58000D02*
D03*
X94500Y23400D02*
D03*
X194500Y93400D02*
D03*
X214500Y83400D02*
D03*
X224500D02*
D03*
X44500Y3400D02*
D03*
X224500D02*
D03*
X214500Y93400D02*
D03*
X84500Y73400D02*
D03*
X244500D02*
D03*
X204500Y13400D02*
D03*
X104500Y23400D02*
D03*
X204500Y3400D02*
D03*
X44500Y13400D02*
D03*
X234500Y73400D02*
D03*
X84500Y83400D02*
D03*
X114500Y93400D02*
D03*
X184500Y83400D02*
D03*
X44500D02*
D03*
X34500Y13400D02*
D03*
X54500Y83400D02*
D03*
X204500D02*
D03*
X34500D02*
D03*
X94500D02*
D03*
X194500D02*
D03*
X214500Y3400D02*
D03*
X104500Y83400D02*
D03*
X224500Y13400D02*
D03*
X254500Y73400D02*
D03*
X94500D02*
D03*
X34500Y93400D02*
D03*
X214500Y13400D02*
D03*
X74500Y58400D02*
D03*
X69500Y53400D02*
D03*
Y28400D02*
D03*
Y63400D02*
D03*
Y68400D02*
D03*
X74500D02*
D03*
X69500Y38400D02*
D03*
X74500Y28400D02*
D03*
X69500Y58400D02*
D03*
X74500Y33400D02*
D03*
Y63400D02*
D03*
Y53400D02*
D03*
X69500Y33400D02*
D03*
X74500Y38400D02*
D03*
X131000Y85400D02*
D03*
X132500Y88400D02*
D03*
X129500D02*
D03*
X189500Y28400D02*
D03*
Y37400D02*
D03*
X185000D02*
D03*
Y28400D02*
D03*
X189500Y41900D02*
D03*
X194000Y32900D02*
D03*
X189500D02*
D03*
X185000D02*
D03*
X194000Y41900D02*
D03*
Y37400D02*
D03*
X185000Y41900D02*
D03*
X194000Y28400D02*
D03*
X185000Y55400D02*
D03*
X189500Y59900D02*
D03*
X185000D02*
D03*
X194000Y64400D02*
D03*
Y55400D02*
D03*
X185000Y64400D02*
D03*
X194000Y59900D02*
D03*
X189500Y55400D02*
D03*
Y64400D02*
D03*
D78*
X151100Y31600D02*
D03*
X155628D02*
D03*
X151100Y27072D02*
D03*
X146572Y31600D02*
D03*
X151100Y36128D02*
D03*
X108500Y48572D02*
D03*
X113028Y53100D02*
D03*
X108500Y57628D02*
D03*
X103972Y53100D02*
D03*
X108500D02*
D03*
M02*
