;TYPE=PLATED
;Layer: PTH_Through
;EasyEDA Pro Client v2.1.21.9b64d12f.b3811b, 2024-04-08 20:46:49
;Gerber Generator version 0.3
M48
METRIC,LZ,000.000
;Hole size 1 = 0.305 METRIC
T01C0.305
;Hole size 2 = 1.050 METRIC
T02C1.050
;Hole size 3 = 1.100 METRIC
T03C1.100
%
G05
G90
T01
X001500Y000750
X001500Y-000750
X001500Y-003350
X001500Y-004850
X001500Y-007450
X001500Y-008950
X001500Y-011550
X001500Y-013050
X001500Y-015650
X001500Y-017150
X001500Y-019750
X001500Y-021250
X001500Y-023850
X001500Y-025350
X005600Y-003350
X005600Y000750
X005600Y-000750
X005600Y-004850
X005600Y-007450
X005600Y-017150
X005600Y-019750
X005600Y-011550
X005600Y-013050
X005600Y-008950
X005600Y-015650
X005600Y-023850
X005600Y-025350
X005600Y-021250
X009700Y-003350
X009700Y000750
X009700Y-000750
X009700Y-004850
X009700Y-007450
X009700Y-017150
X009700Y-019750
X009700Y-011550
X009700Y-013050
X009700Y-008950
X009700Y-015650
X009700Y-023850
X009700Y-025350
X009700Y-021250
X013800Y-003350
X013800Y000750
X013800Y-000750
X013800Y-004850
X013800Y-007450
X013800Y-017150
X013800Y-019750
X013800Y-011550
X013800Y-013050
X013800Y-008950
X013800Y-015650
X013800Y-023850
X013800Y-025350
X013800Y-021250
X017900Y-003350
X017900Y000750
X017900Y-000750
X017900Y-004850
X017900Y-007450
X017900Y-017150
X017900Y-019750
X017900Y-011550
X017900Y-013050
X017900Y-008950
X017900Y-015650
X017900Y-023850
X017900Y-025350
X017900Y-021250
X022000Y-003350
X022000Y000750
X022000Y-000750
X022000Y-004850
X022000Y-007450
X022000Y-017150
X022000Y-019750
X022000Y-011550
X022000Y-013050
X022000Y-008950
X022000Y-015650
X022000Y-023850
X022000Y-025350
X022000Y-021250
X026100Y-003350
X026100Y000750
X026100Y-000750
X026100Y-004850
X026100Y-007450
X026100Y-017150
X026100Y-019750
X026100Y-011550
X026100Y-013050
X026100Y-008950
X026100Y-015650
X026100Y-023850
X026100Y-025350
X026100Y-021250
X030200Y-003350
X030200Y000750
X030200Y-000750
X030200Y-004850
X030200Y-007450
X030200Y-017150
X030200Y-019750
X030200Y-011550
X030200Y-013050
X030200Y-008950
X030200Y-015650
X030200Y-023850
X030200Y-025350
X030200Y-021250
X034300Y-003350
X034300Y000750
X034300Y-000750
X034300Y-004850
X034300Y-007450
X034300Y-017150
X034300Y-019750
X034300Y-011550
X034300Y-013050
X034300Y-008950
X034300Y-015650
X034300Y-023850
X034300Y-025350
X034300Y-021250
X038400Y-003350
X038400Y000750
X038400Y-000750
X038400Y-004850
X038400Y-007450
X038400Y-017150
X038400Y-019750
X038400Y-011550
X038400Y-013050
X038400Y-008950
X038400Y-015650
X038400Y-023850
X038400Y-025350
X038400Y-021250
X042500Y-003350
X042500Y000750
X042500Y-000750
X042500Y-004850
X042500Y-007450
X042500Y-017150
X042500Y-019750
X042500Y-011550
X042500Y-013050
X042500Y-008950
X042500Y-015650
X042500Y-023850
X042500Y-025350
X042500Y-021250
X046600Y-003350
X046600Y000750
X046600Y-000750
X046600Y-004850
X046600Y-007450
X046600Y-017150
X046600Y-019750
X046600Y-011550
X046600Y-013050
X046600Y-008950
X046600Y-015650
X046600Y-023850
X046600Y-025350
X046600Y-021250
X050700Y-003350
X050700Y000750
X050700Y-000750
X050700Y-004850
X050700Y-007450
X050700Y-017150
X050700Y-019750
X050700Y-011550
X050700Y-013050
X050700Y-008950
X050700Y-015650
X050700Y-023850
X050700Y-025350
X050700Y-021250
X054800Y-003350
X054800Y000750
X054800Y-000750
X054800Y-004850
X054800Y-007450
X054800Y-017150
X054800Y-019750
X054800Y-011550
X054800Y-013050
X054800Y-008950
X054800Y-015650
X054800Y-023850
X054800Y-025350
X054800Y-021250
X058900Y-003350
X058900Y000750
X058900Y-000750
X058900Y-004850
X058900Y-007450
X058900Y-017150
X058900Y-019750
X058900Y-011550
X058900Y-013050
X058900Y-008950
X058900Y-015650
X058900Y-023850
X058900Y-025350
X058900Y-021250
T02
X046390Y-031369
X043850Y-031369
X041310Y-031369
X038770Y-031369
X036230Y-031369
X033690Y-031369
X031150Y-031369
X028610Y-031369
X026070Y-031369
X023530Y-031369
X020990Y-031369
X018450Y-031369
X015910Y-031369
X013370Y-031369
X010830Y-031369
T03
X062484Y-031242
X062484Y-028702
X062484Y-026162
X062484Y-023622
X062484Y-021082
X062484Y-018542
X062484Y-016002
X062484Y-013462
X062484Y-010922
X062484Y-008382
X062484Y-005842
X062484Y-003302
X062484Y-000762
X062484Y001778
M30