G04 Layer: TopSilkscreenLayer*
G04 EasyEDA Pro v2.1.21.9b64d12f.b3811b, 2024-04-08 20:46:48*
G04 Gerber Generator version 0.3*
G04 Scale: 100 percent, Rotated: No, Reflected: No*
G04 Dimensions in millimeters*
G04 Leading zeros omitted, absolute positions, 3 integers and 3 decimals*
%FSLAX33Y33*%
%MOMM*%
%ADD10C,0.152*%
%ADD11C,0.254*%
%ADD12C,0.152*%
G75*


G04 Image Start*
G36*
G01X4814Y-28925D02*
G01X4814Y-28925D01*
G01X4805Y-28938D01*
G01X4787Y-28943D01*
G01X4770Y-28949D01*
G01X4762Y-28960D01*
G01X4761Y-28979D01*
G01X4766Y-29008D01*
G01X4779Y-29062D01*
G01X4781Y-29075D01*
G01X4785Y-29111D01*
G01X4786Y-29133D01*
G01X4788Y-29173D01*
G01X4790Y-29190D01*
G01X4792Y-29201D01*
G01X4794Y-29216D01*
G01X4796Y-29306D01*
G01X4795Y-29396D01*
G01X4793Y-29410D01*
G01X4787Y-29438D01*
G01X4785Y-29457D01*
G01X4787Y-29478D01*
G01X4795Y-29543D01*
G01X4801Y-29591D01*
G01X4802Y-29600D01*
G01X4804Y-29620D01*
G01X4807Y-29652D01*
G01X4810Y-29688D01*
G01X4812Y-29705D01*
G01X4815Y-29720D01*
G01X4819Y-29734D01*
G01X4824Y-29748D01*
G01X4830Y-29762D01*
G01X4837Y-29776D01*
G01X4847Y-29797D01*
G01X4855Y-29817D01*
G01X4861Y-29835D01*
G01X4863Y-29847D01*
G01X4867Y-29861D01*
G01X4879Y-29888D01*
G01X4917Y-29980D01*
G01X4924Y-29998D01*
G01X4929Y-30012D01*
G01X4937Y-30027D01*
G01X4947Y-30049D01*
G01X4957Y-30078D01*
G01X4967Y-30105D01*
G01X4975Y-30125D01*
G01X4982Y-30143D01*
G01X4989Y-30167D01*
G01X4996Y-30190D01*
G01X5002Y-30206D01*
G01X5008Y-30219D01*
G01X5012Y-30237D01*
G01X5016Y-30258D01*
G01X5019Y-30282D01*
G01X5032Y-30436D01*
G01X5033Y-30462D01*
G01X5036Y-30516D01*
G01X5037Y-30526D01*
G01X5039Y-30544D01*
G01X5036Y-30570D01*
G01X5030Y-30612D01*
G01X5029Y-30625D01*
G01X5027Y-30647D01*
G01X5020Y-30674D01*
G01X4988Y-30772D01*
G01X4964Y-30845D01*
G01X4956Y-30868D01*
G01X4942Y-30888D01*
G01X4937Y-30897D01*
G01X4932Y-30908D01*
G01X4926Y-30922D01*
G01X4916Y-30940D01*
G01X4905Y-30958D01*
G01X4901Y-30973D01*
G01X4899Y-30985D01*
G01X4896Y-30993D01*
G01X4892Y-31001D01*
G01X4888Y-31013D01*
G01X4881Y-31029D01*
G01X4870Y-31045D01*
G01X4856Y-31066D01*
G01X4842Y-31091D01*
G01X4831Y-31111D01*
G01X4818Y-31129D01*
G01X4801Y-31148D01*
G01X4779Y-31169D01*
G01X4754Y-31193D01*
G01X4746Y-31202D01*
G01X4739Y-31211D01*
G01X4733Y-31218D01*
G01X4729Y-31226D01*
G01X4725Y-31234D01*
G01X4722Y-31243D01*
G01X4714Y-31261D01*
G01X4701Y-31271D01*
G01X4673Y-31289D01*
G01X4645Y-31310D01*
G01X4618Y-31334D01*
G01X4590Y-31361D01*
G01X4572Y-31378D01*
G01X4557Y-31389D01*
G01X4549Y-31396D01*
G01X4522Y-31422D01*
G01X4475Y-31470D01*
G01X4464Y-31482D01*
G01X4458Y-31490D01*
G01X4450Y-31503D01*
G01X4441Y-31512D01*
G01X4430Y-31520D01*
G01X4415Y-31525D01*
G01X4392Y-31535D01*
G01X4363Y-31553D01*
G01X4340Y-31568D01*
G01X4332Y-31572D01*
G01X4328Y-31574D01*
G01X4318Y-31577D01*
G01X4302Y-31585D01*
G01X4286Y-31595D01*
G01X4273Y-31605D01*
G01X4258Y-31618D01*
G01X4242Y-31628D01*
G01X4227Y-31639D01*
G01X4215Y-31650D01*
G01X4197Y-31670D01*
G01X4188Y-31677D01*
G01X4171Y-31687D01*
G01X4119Y-31711D01*
G01X4105Y-31717D01*
G01X4091Y-31725D01*
G01X4050Y-31754D01*
G01X4034Y-31765D01*
G01X4022Y-31772D01*
G01X4012Y-31778D01*
G01X4002Y-31785D01*
G01X3990Y-31793D01*
G01X3976Y-31800D01*
G01X3956Y-31814D01*
G01Y-31827D01*
G01X3974Y-31836D01*
G01X4009Y-31842D01*
G01X4052Y-31846D01*
G01X4067Y-31849D01*
G01X4078Y-31855D01*
G01X4087Y-31862D01*
G01X4095Y-31874D01*
G01X4102Y-31888D01*
G01X4110Y-31908D01*
G01X4115Y-31924D01*
G01X4116Y-31934D01*
G01X4115Y-31947D01*
G01Y-31961D01*
G01X4118Y-31977D01*
G01X4122Y-31993D01*
G01X4127Y-32008D01*
G01X4133Y-32021D01*
G01X4140Y-32031D01*
G01X4147Y-32038D01*
G01X4163Y-32045D01*
G01X4181Y-32050D01*
G01X4200Y-32051D01*
G01X4220Y-32050D01*
G01X4239Y-32046D01*
G01X4256Y-32040D01*
G01X4270Y-32031D01*
G01X4281Y-32021D01*
G01X4289Y-32010D01*
G01X4297Y-32002D01*
G01X4307Y-31992D01*
G01X4315Y-31980D01*
G01X4319Y-31965D01*
G01X4322Y-31946D01*
G01X4325Y-31910D01*
G01X4320Y-31894D01*
G01X4298Y-31881D01*
G01X4288Y-31878D01*
G01X4290Y-31842D01*
G01X4293Y-31793D01*
G01X4295Y-31784D01*
G01X4297Y-31778D01*
G01X4299Y-31774D01*
G01X4303Y-31771D01*
G01X4307Y-31769D01*
G01X4317Y-31765D01*
G01X4330Y-31757D01*
G01X4343Y-31747D01*
G01X4359Y-31734D01*
G01X4374Y-31722D01*
G01X4387Y-31717D01*
G01X4398Y-31714D01*
G01X4405Y-31707D01*
G01X4415Y-31695D01*
G01X4426Y-31686D01*
G01X4442Y-31676D01*
G01X4466Y-31664D01*
G01X4529Y-31632D01*
G01X4537Y-31626D01*
G01X4540Y-31624D01*
G01X4543Y-31622D01*
G01X4545Y-31620D01*
G01X4546Y-31618D01*
G01X4548Y-31616D01*
G01X4549Y-31614D01*
G01X4550Y-31612D01*
G01X4563Y-31596D01*
G01X4582Y-31585D01*
G01X4607Y-31579D01*
G01X4636Y-31578D01*
G01X4655D01*
G01X4668Y-31573D01*
G01X4675Y-31565D01*
G01X4677Y-31551D01*
G01X4678Y-31542D01*
G01X4680Y-31538D01*
G01X4692Y-31518D01*
G01X4707Y-31483D01*
G01X4717Y-31462D01*
G01X4732Y-31441D01*
G01X4752Y-31421D01*
G01X4777Y-31400D01*
G01X4793Y-31385D01*
G01X4807Y-31363D01*
G01X4817Y-31344D01*
G01X4825Y-31332D01*
G01X4834Y-31322D01*
G01X4845Y-31314D01*
G01X4857Y-31304D01*
G01X4864Y-31293D01*
G01X4871Y-31281D01*
G01X4880Y-31269D01*
G01X4894Y-31249D01*
G01X4907Y-31220D01*
G01X4926Y-31169D01*
G01X4932Y-31155D01*
G01X4938Y-31145D01*
G01X4949Y-31131D01*
G01X4969Y-31121D01*
G01X4976Y-31115D01*
G01X4981Y-31104D01*
G01X4987Y-31088D01*
G01X4994Y-31077D01*
G01X5004Y-31068D01*
G01X5018Y-31059D01*
G01X5041Y-31047D01*
G01X5043Y-31019D01*
G01X5045Y-30438D01*
G01X5044Y-29887D01*
G01X5035Y-29879D01*
G01X5025Y-29872D01*
G01X5011Y-29865D01*
G01X4996Y-29852D01*
G01X4982Y-29830D01*
G01X4968Y-29799D01*
G01X4956Y-29762D01*
G01X4948Y-29743D01*
G01X4935Y-29715D01*
G01X4928Y-29700D01*
G01X4922Y-29685D01*
G01X4917Y-29669D01*
G01X4912Y-29653D01*
G01X4908Y-29637D01*
G01X4906Y-29621D01*
G01X4904Y-29606D01*
G01X4903Y-29591D01*
G01X4900Y-29550D01*
G01X4891Y-29471D01*
G01X4882Y-29392D01*
G01X4878Y-29310D01*
G01X4875Y-29262D01*
G01Y-29255D01*
G01X4874Y-29250D01*
G01X4873Y-29246D01*
G01X4872Y-29243D01*
G01X4868Y-29228D01*
G01X4865Y-29200D01*
G01X4862Y-29167D01*
G01X4860Y-29153D01*
G01X4857Y-29142D01*
G01X4854Y-29128D01*
G01X4852Y-29112D01*
G01X4849Y-29052D01*
G01X4847Y-28994D01*
G01X4846Y-28982D01*
G01X4844Y-28971D01*
G01X4842Y-28961D01*
G01X4833Y-28938D01*
G01X4822Y-28917D01*
G01X4814Y-28925D01*
G37*
G36*
G01X611Y-27352D02*
G01X611Y-27352D01*
G01X586Y-27357D01*
G01X582Y-27367D01*
G01X579Y-27382D01*
G01X575Y-27394D01*
G01X570Y-27403D01*
G01X563Y-27412D01*
G01X553Y-27425D01*
G01X543Y-27443D01*
G01X534Y-27461D01*
G01X531Y-27472D01*
G01X517Y-27551D01*
G01X510Y-27582D01*
G01X504Y-27609D01*
G01X511Y-27620D01*
G01X514Y-27645D01*
G01X497Y-27686D01*
G01X489Y-27703D01*
G01X483Y-27718D01*
G01X478Y-27737D01*
G01X473Y-27765D01*
G01X458Y-27837D01*
G01X454Y-27857D01*
G01X453Y-27872D01*
G01X449Y-27925D01*
G01X444Y-27979D01*
G01X442Y-27994D01*
G01X437Y-28005D01*
G01X429Y-28020D01*
G01X424Y-28034D01*
G01X422Y-28057D01*
G01X421Y-28095D01*
G01X419Y-28158D01*
G01X404Y-28184D01*
G01X393Y-28206D01*
G01X386Y-28226D01*
G01X382Y-28247D01*
G01X380Y-28270D01*
G01X376Y-28323D01*
G01X368Y-28382D01*
G01X365Y-28472D01*
G01X364Y-28517D01*
G01X362Y-28615D01*
G01X361Y-28625D01*
G01X360Y-28628D01*
G01Y-28632D01*
G01X359Y-28634D01*
G01X357Y-28640D01*
G01X355Y-28642D01*
G01X349Y-28662D01*
G01X344Y-28689D01*
G01X337Y-28726D01*
G01X335Y-28734D01*
G01X327Y-28777D01*
G01X324Y-28792D01*
G01X320Y-28807D01*
G01X314Y-28823D01*
G01X306Y-28842D01*
G01X297Y-28863D01*
G01X292Y-28877D01*
G01X291Y-28887D01*
G01Y-28898D01*
G01Y-28918D01*
G01X281Y-28936D01*
G01X268Y-28958D01*
G01X256Y-28980D01*
G01X247Y-29000D01*
G01X244Y-29011D01*
G01X242Y-29027D01*
G01X236Y-29045D01*
G01X229Y-29062D01*
G01X221Y-29074D01*
G01X212Y-29085D01*
G01X206Y-29097D01*
G01X203Y-29108D01*
G01X198Y-29119D01*
G01X191Y-29134D01*
G01X186Y-29153D01*
G01X181Y-29175D01*
G01X176Y-29199D01*
G01X174Y-29223D01*
G01X172Y-29246D01*
G01Y-29267D01*
G01X174Y-29284D01*
G01X177Y-29299D01*
G01Y-29311D01*
G01Y-29321D01*
G01X175Y-29328D01*
G01X172Y-29332D01*
G01X167Y-29333D01*
G01X162Y-29331D01*
G01X155Y-29326D01*
G01X146Y-29321D01*
G01X142Y-29332D01*
G01X135Y-29347D01*
G01X121Y-29356D01*
G01X108Y-29364D01*
G01X97Y-29386D01*
G01X90Y-29418D01*
G01X87Y-29457D01*
G01Y-29476D01*
G01X86Y-29488D01*
G01X84Y-29495D01*
G01X80Y-29501D01*
G01X69Y-29519D01*
G01X56Y-29545D01*
G01X45Y-29570D01*
G01X40Y-29587D01*
G01X37Y-29598D01*
G01X33Y-29608D01*
G01X28Y-29617D01*
G01X23Y-29627D01*
G01X19Y-29639D01*
G01X18Y-29625D01*
G01X15Y-29609D01*
G01X8Y-29598D01*
G01X1Y-29594D01*
G01X-4Y-29600D01*
G01Y-29610D01*
G01X-5Y-29740D01*
G01X-4Y-29771D01*
G01X4Y-29785D01*
G01X16D01*
G01X20Y-29787D01*
G01X23Y-29803D01*
G01X26Y-29820D01*
G01X24Y-29831D01*
G01X19Y-29838D01*
G01X9Y-29840D01*
G01X-2Y-29845D01*
G01X-9Y-29862D01*
G01X-13Y-29901D01*
G01X-17Y-29968D01*
G01X-23Y-30049D01*
G01X-28Y-30099D01*
G01X-33Y-30253D01*
G01X-35Y-31025D01*
G01X-33Y-31270D01*
G01X-31Y-31301D01*
G01X-29Y-31314D01*
G01X-28Y-31323D01*
G01X-26Y-31330D01*
G01X-25Y-31334D01*
G01X-23Y-31337D01*
G01X-22Y-31340D01*
G01X-20Y-31343D01*
G01X-18Y-31346D01*
G01X-17Y-31348D01*
G01X-15Y-31350D01*
G01X-13Y-31351D01*
G01X-10Y-31353D01*
G01X-8Y-31355D01*
G01X4Y-31349D01*
G01X20Y-31330D01*
G01X35Y-31307D01*
G01X41Y-31287D01*
G01X51Y-31279D01*
G01X79Y-31267D01*
G01X101Y-31255D01*
G01X117Y-31241D01*
G01X127Y-31224D01*
G01X131Y-31205D01*
G01X130Y-31182D01*
G01X127Y-31156D01*
G01X122Y-31130D01*
G01X116Y-31103D01*
G01X108Y-31078D01*
G01X100Y-31055D01*
G01X92Y-31037D01*
G01X83Y-31023D01*
G01X73Y-31009D01*
G01X65Y-30992D01*
G01X59Y-30966D01*
G01X51Y-30923D01*
G01X38Y-30851D01*
G01X35Y-30548D01*
G01X36Y-30382D01*
G01X46Y-30263D01*
G01X54Y-30208D01*
G01X57Y-30194D01*
G01X58Y-30188D01*
G01X66Y-30158D01*
G01X68Y-30144D01*
G01X70Y-30132D01*
G01Y-30120D01*
G01Y-30111D01*
G01X68Y-30102D01*
G01X66Y-30096D01*
G01X62Y-30082D01*
G01X63Y-30065D01*
G01X67Y-30049D01*
G01X76Y-30035D01*
G01X84Y-30026D01*
G01X87Y-30019D01*
G01X95Y-29968D01*
G01X102Y-29898D01*
G01X103Y-29877D01*
G01X106Y-29838D01*
G01X111Y-29802D01*
G01X117Y-29773D01*
G01X120Y-29762D01*
G01X123Y-29753D01*
G01X130Y-29738D01*
G01X135Y-29719D01*
G01X141Y-29698D01*
G01X147Y-29679D01*
G01X164Y-29631D01*
G01X171Y-29607D01*
G01X173Y-29598D01*
G01X174Y-29589D01*
G01Y-29582D01*
G01X176Y-29561D01*
G01X182Y-29537D01*
G01X187Y-29514D01*
G01X189Y-29493D01*
G01X191Y-29473D01*
G01X198Y-29448D01*
G01X205Y-29424D01*
G01X209Y-29404D01*
G01X213Y-29389D01*
G01X219Y-29375D01*
G01X225Y-29363D01*
G01X230Y-29349D01*
G01X246Y-29303D01*
G01X256Y-29276D01*
G01X261Y-29256D01*
G01X276Y-29205D01*
G01X286Y-29171D01*
G01X287Y-29166D01*
G01X290Y-29158D01*
G01X295Y-29145D01*
G01X308Y-29113D01*
G01X315Y-29097D01*
G01X324Y-29080D01*
G01X329Y-29070D01*
G01X341Y-29040D01*
G01X347Y-29023D01*
G01X360Y-28985D01*
G01X366Y-28971D01*
G01X372Y-28960D01*
G01X380Y-28950D01*
G01X389Y-28942D01*
G01X400Y-28933D01*
G01X414Y-28924D01*
G01X430Y-28912D01*
G01X443Y-28902D01*
G01X453Y-28891D01*
G01X460Y-28878D01*
G01X465Y-28864D01*
G01X469Y-28846D01*
G01X471Y-28825D01*
G01X473Y-28800D01*
G01X475Y-28752D01*
G01X474Y-28748D01*
G01X472Y-28736D01*
G01X464Y-28636D01*
G01X459Y-28574D01*
G01X457Y-28563D01*
G01X455Y-28552D01*
G01X451Y-28460D01*
G01X448Y-28365D01*
G01X446Y-28349D01*
G01X445Y-28337D01*
G01X446Y-28302D01*
G01X448Y-28263D01*
G01X452Y-28232D01*
G01X455Y-28222D01*
G01X457Y-28208D01*
G01X458Y-28191D01*
G01X460Y-28170D01*
G01X463Y-28148D01*
G01X465Y-28136D01*
G01X467Y-28104D01*
G01Y-28087D01*
G01Y-28061D01*
G01X468Y-28052D01*
G01X469Y-28044D01*
G01X470Y-28039D01*
G01X472Y-28034D01*
G01X475Y-28031D01*
G01X478Y-28029D01*
G01X489Y-28010D01*
G01X503Y-27973D01*
G01X514Y-27931D01*
G01X519Y-27899D01*
G01X521Y-27891D01*
G01X526Y-27880D01*
G01X532Y-27867D01*
G01X535Y-27855D01*
G01X539Y-27844D01*
G01X545Y-27830D01*
G01X552Y-27814D01*
G01X558Y-27796D01*
G01X564Y-27775D01*
G01X569Y-27750D01*
G01X574Y-27724D01*
G01X580Y-27700D01*
G01X588Y-27679D01*
G01X596Y-27661D01*
G01X603Y-27643D01*
G01X606Y-27617D01*
G01X609Y-27592D01*
G01X613Y-27572D01*
G01X617Y-27555D01*
G01X619Y-27539D01*
G01X629Y-27472D01*
G01X632Y-27456D01*
G01X633Y-27452D01*
G01X636Y-27441D01*
G01X640Y-27426D01*
G01X647Y-27405D01*
G01X661Y-27382D01*
G01X674Y-27361D01*
G01Y-27355D01*
G01X663Y-27353D01*
G01X624Y-27351D01*
G01X611Y-27352D01*
G37*
G36*
G01X969Y-27355D02*
G01X969Y-27355D01*
G01X973Y-27366D01*
G01X994Y-27383D01*
G01X1022Y-27399D01*
G01X1046Y-27407D01*
G01X1066Y-27413D01*
G01X1080Y-27427D01*
G01X1090Y-27439D01*
G01X1106Y-27452D01*
G01X1143Y-27478D01*
G01X1220Y-27534D01*
G01X1234Y-27543D01*
G01X1247Y-27551D01*
G01X1259Y-27559D01*
G01X1275Y-27569D01*
G01X1301Y-27582D01*
G01X1318Y-27591D01*
G01X1328Y-27597D01*
G01X1334Y-27604D01*
G01X1339Y-27612D01*
G01X1352Y-27631D01*
G01X1368Y-27648D01*
G01X1385Y-27659D01*
G01X1400Y-27663D01*
G01X1422Y-27671D01*
G01X1439Y-27686D01*
G01X1446Y-27694D01*
G01X1456Y-27704D01*
G01X1465Y-27715D01*
G01X1467Y-27726D01*
G01X1474Y-27739D01*
G01X1489Y-27758D01*
G01X1509Y-27776D01*
G01X1529Y-27790D01*
G01X1546Y-27800D01*
G01X1559Y-27812D01*
G01X1571Y-27829D01*
G01X1584Y-27853D01*
G01X1596Y-27877D01*
G01X1602Y-27887D01*
G01X1609Y-27895D01*
G01X1617Y-27903D01*
G01X1626Y-27911D01*
G01X1650Y-27931D01*
G01X1663Y-27940D01*
G01X1670Y-27947D01*
G01X1675Y-27955D01*
G01X1679Y-27965D01*
G01X1692Y-27986D01*
G01X1713Y-28012D01*
G01X1737Y-28034D01*
G01X1756Y-28046D01*
G01X1770Y-28052D01*
G01X1789Y-28061D01*
G01X1805Y-28069D01*
G01X1822Y-28072D01*
G01X1844Y-28071D01*
G01X1878Y-28066D01*
G01X1994Y-28051D01*
G01X2014Y-28049D01*
G01X2073Y-28042D01*
G01X2081Y-28040D01*
G01X2095Y-28036D01*
G01X2115Y-28032D01*
G01X2164Y-28027D01*
G01X2213Y-28026D01*
G01X2232Y-28027D01*
G01X2245Y-28029D01*
G01X2262Y-28031D01*
G01X2289Y-28033D01*
G01X2310D01*
G01X2323Y-28035D01*
G01X2335Y-28039D01*
G01X2350Y-28046D01*
G01X2363Y-28052D01*
G01X2374Y-28056D01*
G01X2385Y-28059D01*
G01X2395Y-28060D01*
G01X2421Y-28065D01*
G01X2457Y-28074D01*
G01X2485Y-28081D01*
G01X2515Y-28087D01*
G01X2559Y-28093D01*
G01X2587Y-28094D01*
G01X2614Y-28095D01*
G01X2639Y-28093D01*
G01X2662Y-28090D01*
G01X2672Y-28088D01*
G01X2688Y-28086D01*
G01X2704D01*
G01X2722Y-28085D01*
G01X2746Y-28080D01*
G01X2775Y-28074D01*
G01X2807Y-28069D01*
G01X2824Y-28067D01*
G01X2835Y-28065D01*
G01X2843Y-28062D01*
G01X2849Y-28059D01*
G01X2860Y-28052D01*
G01X2873Y-28045D01*
G01X2888Y-28040D01*
G01X2905Y-28035D01*
G01X2924Y-28031D01*
G01X2968Y-28025D01*
G01X2993Y-28023D01*
G01X3055Y-28017D01*
G01X3071Y-28015D01*
G01X3089Y-28013D01*
G01X3104Y-28012D01*
G01X3148Y-28014D01*
G01X3216Y-28018D01*
G01X3285Y-28016D01*
G01X3331Y-28013D01*
G01X3369Y-28010D01*
G01X3384D01*
G01X3399Y-28011D01*
G01X3406Y-28012D01*
G01X3450Y-28018D01*
G01X3469Y-28023D01*
G01X3489Y-28031D01*
G01X3501Y-28036D01*
G01X3516Y-28039D01*
G01X3530Y-28042D01*
G01X3545Y-28043D01*
G01X3558Y-28044D01*
G01X3569Y-28042D01*
G01X3576Y-28040D01*
G01X3578Y-28036D01*
G01X3574Y-28020D01*
G01X3562Y-28004D01*
G01X3546Y-27990D01*
G01X3531Y-27982D01*
G01X3516Y-27977D01*
G01X3498Y-27968D01*
G01X3480Y-27958D01*
G01X3465Y-27951D01*
G01X3451Y-27947D01*
G01X3433Y-27943D01*
G01X3409Y-27937D01*
G01X3389Y-27932D01*
G01X3376Y-27926D01*
G01X3370Y-27921D01*
G01X3366Y-27909D01*
G01Y-27895D01*
G01X3370Y-27881D01*
G01X3377Y-27867D01*
G01X3387Y-27853D01*
G01X3400Y-27841D01*
G01X3415Y-27830D01*
G01X3432Y-27822D01*
G01X3450Y-27813D01*
G01X3466Y-27800D01*
G01X3480Y-27782D01*
G01X3496Y-27756D01*
G01X3512Y-27728D01*
G01X3519Y-27718D01*
G01X3527Y-27710D01*
G01X3537Y-27703D01*
G01X3549Y-27696D01*
G01X3586Y-27677D01*
G01X3604Y-27668D01*
G01X3612Y-27661D01*
G01X3619Y-27650D01*
G01X3633Y-27634D01*
G01X3665Y-27621D01*
G01X3686Y-27614D01*
G01X3704Y-27606D01*
G01X3720Y-27597D01*
G01X3732Y-27588D01*
G01X3741Y-27579D01*
G01X3748Y-27570D01*
G01X3751Y-27560D01*
G01Y-27550D01*
G01X3738Y-27530D01*
G01X3704Y-27531D01*
G01X3688Y-27534D01*
G01X3676Y-27536D01*
G01X3657Y-27538D01*
G01X3641Y-27545D01*
G01X3627Y-27557D01*
G01X3613Y-27577D01*
G01X3604Y-27588D01*
G01X3594Y-27592D01*
G01X3574Y-27596D01*
G01X3556Y-27601D01*
G01X3541Y-27606D01*
G01X3527Y-27612D01*
G01X3515Y-27618D01*
G01X3506Y-27626D01*
G01X3498Y-27634D01*
G01X3491Y-27643D01*
G01X3480Y-27660D01*
G01X3470Y-27671D01*
G01X3458Y-27678D01*
G01X3446Y-27682D01*
G01X3428Y-27685D01*
G01X3414Y-27692D01*
G01X3404Y-27701D01*
G01X3400Y-27712D01*
G01X3392Y-27727D01*
G01X3375Y-27745D01*
G01X3353Y-27764D01*
G01X3330Y-27779D01*
G01X3312Y-27789D01*
G01X3303Y-27795D01*
G01X3294Y-27808D01*
G01X3284Y-27827D01*
G01X3274Y-27847D01*
G01X3268Y-27863D01*
G01X3262Y-27878D01*
G01X3253Y-27890D01*
G01X3242Y-27899D01*
G01X3228Y-27907D01*
G01X3210Y-27912D01*
G01X3187Y-27916D01*
G01X3159Y-27918D01*
G01X3127D01*
G01X3080Y-27920D01*
G01X3061Y-27921D01*
G01X3046Y-27923D01*
G01X2972Y-27933D01*
G01X2903Y-27942D01*
G01X2870Y-27945D01*
G01X2782Y-27948D01*
G01X2742D01*
G01X2727Y-27949D01*
G01X2716Y-27952D01*
G01X2710Y-27958D01*
G01X2708Y-27967D01*
G01X2701Y-27982D01*
G01X2683Y-27988D01*
G01X2667Y-27990D01*
G01X2645Y-27995D01*
G01X2624Y-28000D01*
G01X2611Y-28002D01*
G01X2601Y-28001D01*
G01X2591Y-27997D01*
G01X2575Y-27992D01*
G01X2553Y-27988D01*
G01X2529Y-27983D01*
G01X2512Y-27977D01*
G01X2497Y-27970D01*
G01X2480Y-27963D01*
G01X2463Y-27957D01*
G01X2424Y-27947D01*
G01X2383Y-27941D01*
G01X2363Y-27939D01*
G01X2309Y-27934D01*
G01X2298Y-27932D01*
G01X2231Y-27920D01*
G01X2184Y-27914D01*
G01X2143Y-27912D01*
G01X2120D01*
G01X2099Y-27913D01*
G01X2091Y-27915D01*
G01X2083Y-27917D01*
G01X2064Y-27921D01*
G01X2042Y-27925D01*
G01X2021Y-27926D01*
G01X2005D01*
G01X1952Y-27922D01*
G01X1890Y-27915D01*
G01X1871Y-27912D01*
G01X1825Y-27905D01*
G01X1817Y-27904D01*
G01X1804Y-27901D01*
G01X1787Y-27894D01*
G01X1753Y-27878D01*
G01X1740Y-27872D01*
G01X1731Y-27863D01*
G01X1723Y-27850D01*
G01X1714Y-27830D01*
G01X1707Y-27815D01*
G01X1700Y-27803D01*
G01X1691Y-27792D01*
G01X1682Y-27783D01*
G01X1672Y-27776D01*
G01X1661Y-27770D01*
G01X1649Y-27766D01*
G01X1636Y-27764D01*
G01X1621Y-27759D01*
G01X1609Y-27752D01*
G01X1601Y-27741D01*
G01X1598Y-27728D01*
G01X1596Y-27714D01*
G01X1590Y-27702D01*
G01X1582Y-27692D01*
G01X1570Y-27686D01*
G01X1555Y-27680D01*
G01X1539Y-27672D01*
G01X1520Y-27665D01*
G01X1496Y-27663D01*
G01X1479D01*
G01X1470Y-27660D01*
G01X1465Y-27651D01*
G01X1460Y-27633D01*
G01X1455Y-27616D01*
G01X1449Y-27605D01*
G01X1425Y-27575D01*
G01X1413Y-27560D01*
G01X1401Y-27549D01*
G01X1388Y-27541D01*
G01X1374Y-27536D01*
G01X1356Y-27529D01*
G01X1338Y-27519D01*
G01X1322Y-27507D01*
G01X1311Y-27495D01*
G01X1299Y-27481D01*
G01X1285Y-27469D01*
G01X1270Y-27461D01*
G01X1257Y-27456D01*
G01X1237Y-27450D01*
G01X1219Y-27437D01*
G01X1200Y-27415D01*
G01X1180Y-27384D01*
G01X1171Y-27373D01*
G01X1158Y-27363D01*
G01X1144Y-27355D01*
G01X1059Y-27354D01*
G01X978Y-27355D01*
G01X972D01*
G01X969D01*
G37*
G36*
G01X4188Y-27353D02*
G01X4188Y-27353D01*
G01X4175Y-27358D01*
G01X4179Y-27379D01*
G01X4183Y-27397D01*
G01Y-27415D01*
G01X4182Y-27432D01*
G01X4177Y-27449D01*
G01X4174Y-27465D01*
G01Y-27486D01*
G01X4177Y-27509D01*
G01X4184Y-27537D01*
G01X4188Y-27552D01*
G01X4187Y-27563D01*
G01X4185Y-27582D01*
G01X4189Y-27601D01*
G01X4191Y-27614D01*
G01X4188Y-27634D01*
G01X4185Y-27667D01*
G01X4181Y-27715D01*
G01X4178Y-27764D01*
G01X4176Y-27780D01*
G01X4175Y-27786D01*
G01X4174Y-27791D01*
G01X4172Y-27803D01*
G01X4170Y-27819D01*
G01Y-27858D01*
G01X4173Y-27898D01*
G01X4175Y-27915D01*
G01X4179Y-27928D01*
G01X4185Y-27947D01*
G01X4179Y-27964D01*
G01X4174Y-27982D01*
G01X4171Y-28001D01*
G01X4168Y-28021D01*
G01X4164Y-28040D01*
G01X4160Y-28059D01*
G01X4158Y-28079D01*
G01X4157Y-28094D01*
G01X4154Y-28107D01*
G01X4149Y-28117D01*
G01X4140Y-28128D01*
G01X4132Y-28138D01*
G01X4126Y-28150D01*
G01X4123Y-28168D01*
G01X4121Y-28194D01*
G01X4119Y-28224D01*
G01X4117Y-28233D01*
G01X4114Y-28239D01*
G01X4110Y-28240D01*
G01X4105Y-28239D01*
G01X4099Y-28234D01*
G01X4091Y-28226D01*
G01X4077Y-28212D01*
G01Y-28177D01*
G01Y-28157D01*
G01X4078Y-28145D01*
G01X4080Y-28138D01*
G01X4085Y-28132D01*
G01X4090Y-28124D01*
G01Y-28117D01*
G01X4086Y-28103D01*
G01X4084Y-28090D01*
G01X4083Y-28076D01*
G01X4084Y-28059D01*
G01Y-28037D01*
G01X4082Y-28022D01*
G01X4076Y-28010D01*
G01X4067Y-28001D01*
G01X4057Y-27994D01*
G01X4052Y-28000D01*
G01X4046Y-28005D01*
G01X4039Y-28010D01*
G01X4031Y-28017D01*
G01X4025Y-28026D01*
G01X4018Y-28037D01*
G01X4013Y-28046D01*
G01X4006Y-28058D01*
G01X3996Y-28076D01*
G01X3976Y-28113D01*
G01X3967Y-28125D01*
G01X3959Y-28134D01*
G01X3950Y-28139D01*
G01X3939Y-28143D01*
G01X3927Y-28144D01*
G01X3913Y-28143D01*
G01X3895Y-28142D01*
G01X3885Y-28143D01*
G01X3880Y-28144D01*
G01X3878Y-28146D01*
G01X3880Y-28158D01*
G01X3889Y-28170D01*
G01X3896Y-28179D01*
G01X3905Y-28195D01*
G01X3912Y-28207D01*
G01X3922Y-28221D01*
G01X3935Y-28235D01*
G01X3949Y-28249D01*
G01X3964Y-28263D01*
G01X3980Y-28275D01*
G01X3994Y-28286D01*
G01X4008Y-28294D01*
G01X4036Y-28308D01*
G01X4045Y-28314D01*
G01X4052Y-28319D01*
G01X4057Y-28324D01*
G01X4062Y-28331D01*
G01X4072Y-28351D01*
G01X4087Y-28381D01*
G01X4125Y-28400D01*
G01X4159Y-28417D01*
G01X4172Y-28425D01*
G01X4183Y-28432D01*
G01X4194Y-28440D01*
G01X4215Y-28460D01*
G01X4227Y-28472D01*
G01X4250Y-28495D01*
G01X4260Y-28504D01*
G01X4271Y-28511D01*
G01X4281Y-28518D01*
G01X4292Y-28524D01*
G01X4303Y-28529D01*
G01X4316Y-28534D01*
G01X4332Y-28543D01*
G01X4351Y-28555D01*
G01X4369Y-28567D01*
G01X4383Y-28574D01*
G01X4400Y-28581D01*
G01X4447Y-28605D01*
G01X4458Y-28612D01*
G01X4470Y-28627D01*
G01X4492Y-28647D01*
G01X4514Y-28666D01*
G01X4529Y-28677D01*
G01X4545Y-28686D01*
G01X4560Y-28697D01*
G01X4649Y-28772D01*
G01X4672Y-28788D01*
G01X4679Y-28793D01*
G01X4695Y-28803D01*
G01X4703Y-28811D01*
G01X4707Y-28823D01*
G01X4708Y-28843D01*
G01X4710Y-28861D01*
G01X4713Y-28877D01*
G01X4717Y-28891D01*
G01X4722Y-28903D01*
G01X4729Y-28912D01*
G01X4736Y-28918D01*
G01X4744Y-28922D01*
G01X4754D01*
G01X4765Y-28916D01*
G01X4773Y-28903D01*
G01X4776Y-28886D01*
G01X4775Y-28865D01*
G01X4771Y-28844D01*
G01X4764Y-28824D01*
G01X4753Y-28808D01*
G01X4739Y-28797D01*
G01X4721Y-28784D01*
G01X4705Y-28766D01*
G01X4693Y-28746D01*
G01X4689Y-28729D01*
G01X4684Y-28715D01*
G01X4664Y-28692D01*
G01X4651Y-28675D01*
G01X4644Y-28658D01*
G01X4636Y-28638D01*
G01X4624Y-28623D01*
G01X4608Y-28612D01*
G01X4585Y-28604D01*
G01X4568Y-28597D01*
G01X4558Y-28582D01*
G01X4550Y-28574D01*
G01X4536Y-28566D01*
G01X4522Y-28558D01*
G01X4512Y-28551D01*
G01X4498Y-28543D01*
G01X4477Y-28533D01*
G01X4458Y-28524D01*
G01X4446Y-28517D01*
G01X4439Y-28509D01*
G01X4432Y-28498D01*
G01X4423Y-28485D01*
G01X4409Y-28476D01*
G01X4397Y-28470D01*
G01X4386Y-28463D01*
G01X4374Y-28455D01*
G01X4363Y-28447D01*
G01X4353Y-28438D01*
G01X4344Y-28429D01*
G01X4336Y-28421D01*
G01X4331Y-28413D01*
G01X4319Y-28400D01*
G01X4299Y-28397D01*
G01X4287Y-28394D01*
G01X4278Y-28380D01*
G01X4269Y-28365D01*
G01X4260Y-28352D01*
G01X4249Y-28336D01*
G01X4243Y-28323D01*
G01Y-28312D01*
G01X4248Y-28300D01*
G01X4252Y-28292D01*
G01X4254Y-28285D01*
G01X4257Y-28275D01*
G01X4263Y-28262D01*
G01X4269Y-28247D01*
G01X4271Y-28234D01*
G01X4270Y-28222D01*
G01X4264Y-28211D01*
G01X4254Y-28193D01*
G01X4245Y-28170D01*
G01X4238Y-28140D01*
G01X4233Y-28101D01*
G01X4226Y-27993D01*
G01X4224Y-27833D01*
G01Y-27702D01*
G01X4232Y-27665D01*
G01X4237Y-27637D01*
G01X4240Y-27609D01*
G01Y-27547D01*
G01Y-27515D01*
G01Y-27478D01*
G01X4241Y-27460D01*
G01X4246Y-27427D01*
G01X4253Y-27388D01*
G01X4254Y-27375D01*
G01X4253Y-27367D01*
G01X4251Y-27361D01*
G01X4246Y-27357D01*
G01X4239Y-27354D01*
G01X4229Y-27353D01*
G01X4207Y-27351D01*
G01X4188Y-27353D01*
G37*
G36*
G01X2353Y-28901D02*
G01X2353Y-28901D01*
G01X2328Y-28903D01*
G01X2278Y-28905D01*
G01X2206Y-28908D01*
G01X2176Y-28911D01*
G01X2102Y-28920D01*
G01X2048Y-28926D01*
G01X2034D01*
G01X2019Y-28924D01*
G01X2003Y-28923D01*
G01X1986Y-28925D01*
G01X1969Y-28930D01*
G01X1955Y-28937D01*
G01X1941Y-28944D01*
G01X1928Y-28950D01*
G01X1914Y-28952D01*
G01X1899Y-28953D01*
G01X1861Y-28955D01*
G01X1844Y-28957D01*
G01X1829Y-28960D01*
G01X1816Y-28964D01*
G01X1804Y-28968D01*
G01X1794Y-28973D01*
G01X1786Y-28979D01*
G01X1770Y-28991D01*
G01X1749Y-29002D01*
G01X1729Y-29011D01*
G01X1715Y-29014D01*
G01X1695Y-29024D01*
G01X1672Y-29053D01*
G01X1660Y-29070D01*
G01X1649Y-29081D01*
G01X1639Y-29088D01*
G01X1628Y-29091D01*
G01X1611Y-29095D01*
G01X1600Y-29106D01*
G01X1592Y-29126D01*
G01X1586Y-29157D01*
G01X1583Y-29175D01*
G01X1580Y-29185D01*
G01X1574Y-29193D01*
G01X1563Y-29200D01*
G01X1548Y-29214D01*
G01X1543Y-29249D01*
G01X1536Y-29307D01*
G01X1534Y-29320D01*
G01X1533Y-29333D01*
G01Y-29362D01*
G01X1536Y-29390D01*
G01X1539Y-29403D01*
G01X1541Y-29415D01*
G01X1543Y-29433D01*
G01X1539Y-29471D01*
G01X1533Y-29514D01*
G01X1540Y-29533D01*
G01X1545Y-29550D01*
G01X1549Y-29568D01*
G01X1551Y-29588D01*
G01X1553Y-29608D01*
G01X1555Y-29626D01*
G01X1559Y-29640D01*
G01X1570Y-29675D01*
G01X1578Y-29694D01*
G01X1587Y-29712D01*
G01X1597Y-29727D01*
G01X1608Y-29739D01*
G01X1620Y-29752D01*
G01X1634Y-29772D01*
G01X1643Y-29786D01*
G01X1651Y-29794D01*
G01X1659Y-29800D01*
G01X1670Y-29806D01*
G01X1686Y-29814D01*
G01X1697Y-29822D01*
G01X1710Y-29828D01*
G01X1719Y-29816D01*
G01X1721Y-29794D01*
G01X1715Y-29765D01*
G01X1706Y-29736D01*
G01X1694Y-29717D01*
G01X1685Y-29707D01*
G01X1678Y-29694D01*
G01X1670Y-29680D01*
G01X1661Y-29667D01*
G01X1651Y-29654D01*
G01X1644Y-29641D01*
G01X1639Y-29626D01*
G01X1636Y-29611D01*
G01X1633Y-29597D01*
G01X1627Y-29584D01*
G01X1615Y-29567D01*
G01X1594Y-29543D01*
G01X1583Y-29529D01*
G01X1577Y-29518D01*
G01X1576Y-29508D01*
G01X1579Y-29497D01*
G01X1582Y-29487D01*
G01X1583Y-29481D01*
G01X1586Y-29472D01*
G01X1592Y-29458D01*
G01X1599Y-29439D01*
G01X1600Y-29423D01*
G01X1593Y-29322D01*
G01X1592Y-29245D01*
G01Y-29223D01*
G01X1593Y-29215D01*
G01X1594Y-29209D01*
G01X1595Y-29206D01*
G01X1602Y-29199D01*
G01X1616Y-29191D01*
G01X1635Y-29181D01*
G01X1655Y-29169D01*
G01X1692Y-29143D01*
G01X1709Y-29130D01*
G01X1723Y-29116D01*
G01X1735Y-29104D01*
G01X1743Y-29092D01*
G01X1750Y-29085D01*
G01X1759Y-29084D01*
G01X1773Y-29081D01*
G01X1793Y-29075D01*
G01X1812Y-29067D01*
G01X1826Y-29058D01*
G01X1838Y-29051D01*
G01X1857Y-29045D01*
G01X1876Y-29039D01*
G01X1891Y-29037D01*
G01X1899Y-29035D01*
G01X1909Y-29030D01*
G01X1926Y-29023D01*
G01X1950Y-29016D01*
G01X1963Y-29012D01*
G01X1975Y-29007D01*
G01X1986Y-29003D01*
G01X1994Y-28998D01*
G01X2006Y-28991D01*
G01X2015Y-28987D01*
G01X2024Y-28983D01*
G01X2033Y-28977D01*
G01X2050Y-28966D01*
G01X2071Y-28968D01*
G01X2093Y-28970D01*
G01X2114Y-28967D01*
G01X2133Y-28963D01*
G01X2153Y-28962D01*
G01X2176Y-28963D01*
G01X2204Y-28966D01*
G01X2220Y-28969D01*
G01X2232D01*
G01X2240D01*
G01X2247Y-28968D01*
G01X2258Y-28965D01*
G01X2273D01*
G01X2292Y-28966D01*
G01X2334Y-28972D01*
G01X2378Y-28983D01*
G01X2398Y-28990D01*
G01X2424Y-28998D01*
G01X2449Y-29005D01*
G01X2475Y-29010D01*
G01X2503Y-29014D01*
G01X2519Y-29017D01*
G01X2535Y-29021D01*
G01X2554Y-29027D01*
G01X2577Y-29037D01*
G01X2591Y-29046D01*
G01X2611Y-29059D01*
G01X2628Y-29070D01*
G01X2637Y-29075D01*
G01X2652Y-29083D01*
G01X2666Y-29099D01*
G01X2675Y-29112D01*
G01X2713Y-29152D01*
G01X2732Y-29168D01*
G01X2745Y-29182D01*
G01X2758Y-29203D01*
G01X2770Y-29226D01*
G01X2771Y-29263D01*
G01X2773Y-29301D01*
G01X2779Y-29340D01*
G01X2786Y-29383D01*
G01X2790Y-29423D01*
G01X2792Y-29461D01*
G01Y-29494D01*
G01X2789Y-29524D01*
G01X2786Y-29536D01*
G01X2783Y-29548D01*
G01X2780Y-29557D01*
G01X2776Y-29565D01*
G01X2771Y-29572D01*
G01X2766Y-29576D01*
G01X2750Y-29593D01*
G01X2742Y-29630D01*
G01X2736Y-29659D01*
G01X2734Y-29670D01*
G01X2731Y-29678D01*
G01X2717Y-29711D01*
G01X2715Y-29719D01*
G01X2713Y-29726D01*
G01X2711Y-29733D01*
G01X2710Y-29740D01*
G01Y-29748D01*
G01X2709Y-29766D01*
G01X2713Y-29763D01*
G01X2720Y-29757D01*
G01X2728Y-29752D01*
G01X2738Y-29743D01*
G01X2751Y-29719D01*
G01X2757Y-29707D01*
G01X2764Y-29695D01*
G01X2771Y-29686D01*
G01X2777Y-29679D01*
G01X2786Y-29668D01*
G01X2795Y-29655D01*
G01X2802Y-29643D01*
G01X2804Y-29635D01*
G01X2809Y-29622D01*
G01X2821Y-29596D01*
G01X2849Y-29535D01*
G01X2860Y-29509D01*
G01X2854Y-29484D01*
G01X2844Y-29448D01*
G01X2841Y-29433D01*
G01Y-29413D01*
G01Y-29391D01*
G01X2838Y-29372D01*
G01X2833Y-29351D01*
G01X2831Y-29330D01*
G01X2832Y-29307D01*
G01X2836Y-29280D01*
G01X2840Y-29251D01*
G01X2841Y-29240D01*
G01X2842Y-29230D01*
G01X2841Y-29221D01*
G01X2840Y-29213D01*
G01X2838Y-29206D01*
G01X2835Y-29197D01*
G01X2829Y-29180D01*
G01X2825Y-29164D01*
G01X2820Y-29150D01*
G01X2813Y-29138D01*
G01X2805Y-29127D01*
G01X2799Y-29115D01*
G01X2791Y-29102D01*
G01X2781Y-29089D01*
G01X2770Y-29079D01*
G01X2761Y-29074D01*
G01X2753Y-29071D01*
G01X2744Y-29065D01*
G01X2733Y-29057D01*
G01X2721Y-29051D01*
G01X2707Y-29046D01*
G01X2691Y-29042D01*
G01X2674Y-29038D01*
G01X2665Y-29032D01*
G01X2644Y-29004D01*
G01X2630Y-28987D01*
G01X2615Y-28973D01*
G01X2596Y-28962D01*
G01X2571Y-28951D01*
G01X2518Y-28930D01*
G01X2496Y-28921D01*
G01X2479Y-28915D01*
G01X2462Y-28913D01*
G01X2439Y-28912D01*
G01X2417Y-28909D01*
G01X2401Y-28905D01*
G01X2390Y-28901D01*
G01X2376Y-28899D01*
G01X2363D01*
G01X2353Y-28901D01*
G37*
G36*
G01X3705Y-30088D02*
G01X3705Y-30088D01*
G01X3693Y-30091D01*
G01X3593Y-30106D01*
G01X3555Y-30111D01*
G01X3547Y-30113D01*
G01X3540Y-30115D01*
G01X3534Y-30117D01*
G01X3529Y-30120D01*
G01X3525Y-30123D01*
G01X3515Y-30129D01*
G01X3503Y-30136D01*
G01X3488Y-30145D01*
G01X3470Y-30156D01*
G01X3430Y-30184D01*
G01X3415Y-30195D01*
G01X3404Y-30208D01*
G01X3395Y-30221D01*
G01X3389Y-30237D01*
G01X3385Y-30255D01*
G01X3384Y-30276D01*
G01X3385Y-30299D01*
G01X3388Y-30326D01*
G01X3392Y-30342D01*
G01X3397Y-30358D01*
G01X3404Y-30373D01*
G01X3412Y-30387D01*
G01X3422Y-30400D01*
G01X3433Y-30410D01*
G01X3444Y-30418D01*
G01X3455Y-30423D01*
G01X3490Y-30438D01*
G01X3507Y-30446D01*
G01X3516Y-30449D01*
G01X3528Y-30458D01*
G01X3551Y-30487D01*
G01X3562Y-30500D01*
G01X3572Y-30511D01*
G01X3583Y-30521D01*
G01X3595Y-30529D01*
G01X3608Y-30537D01*
G01X3622Y-30543D01*
G01X3638Y-30549D01*
G01X3656Y-30554D01*
G01X3670Y-30558D01*
G01X3683Y-30563D01*
G01X3696Y-30568D01*
G01X3708Y-30574D01*
G01X3719Y-30581D01*
G01X3729Y-30587D01*
G01X3738Y-30595D01*
G01X3746Y-30603D01*
G01X3753Y-30611D01*
G01X3759Y-30619D01*
G01X3764Y-30627D01*
G01X3767Y-30636D01*
G01X3770Y-30645D01*
G01X3771Y-30653D01*
G01X3770Y-30662D01*
G01X3768Y-30671D01*
G01X3765Y-30686D01*
G01Y-30701D01*
G01X3768Y-30724D01*
G01Y-30739D01*
G01X3762Y-30754D01*
G01X3749Y-30776D01*
G01X3731Y-30806D01*
G01X3722Y-30816D01*
G01X3714Y-30825D01*
G01X3706Y-30831D01*
G01X3698Y-30835D01*
G01X3690Y-30837D01*
G01X3681Y-30838D01*
G01X3660Y-30846D01*
G01X3633Y-30868D01*
G01X3620Y-30881D01*
G01X3610Y-30889D01*
G01X3600Y-30894D01*
G01X3588Y-30897D01*
G01X3574Y-30900D01*
G01X3559Y-30905D01*
G01X3544Y-30911D01*
G01X3535Y-30916D01*
G01X3513Y-30928D01*
G01X3486Y-30940D01*
G01X3459Y-30950D01*
G01X3441Y-30954D01*
G01X3429Y-30955D01*
G01X3391Y-30965D01*
G01X3372Y-30971D01*
G01X3353Y-30979D01*
G01X3333Y-30991D01*
G01X3315Y-31002D01*
G01X3301Y-31009D01*
G01X3257Y-31027D01*
G01X3239Y-31034D01*
G01X3224Y-31039D01*
G01X3211Y-31042D01*
G01X3196Y-31044D01*
G01X3174Y-31046D01*
G01X3157Y-31049D01*
G01X3145Y-31053D01*
G01X3138Y-31057D01*
G01X3136Y-31061D01*
G01X3140Y-31065D01*
G01X3149Y-31069D01*
G01X3165Y-31071D01*
G01X3214Y-31079D01*
G01X3237Y-31084D01*
G01X3252Y-31088D01*
G01X3265Y-31093D01*
G01X3278Y-31095D01*
G01X3291Y-31094D01*
G01X3304Y-31090D01*
G01X3323Y-31085D01*
G01X3345Y-31081D01*
G01X3366Y-31078D01*
G01X3381Y-31074D01*
G01X3404Y-31071D01*
G01X3452Y-31070D01*
G01X3512D01*
G01X3531Y-31061D01*
G01X3550Y-31052D01*
G01X3571Y-31062D01*
G01X3588Y-31070D01*
G01X3601Y-31074D01*
G01X3612Y-31073D01*
G01X3627Y-31068D01*
G01X3645Y-31063D01*
G01X3663Y-31061D01*
G01X3681D01*
G01X3699Y-31064D01*
G01X3710Y-31065D01*
G01X3726Y-31062D01*
G01X3791Y-31041D01*
G01X3805Y-31037D01*
G01X3845Y-31028D01*
G01X3870Y-31025D01*
G01X3890Y-31027D01*
G01X3914Y-31039D01*
G01X3928Y-31045D01*
G01X3949Y-31048D01*
G01X3971D01*
G01X3987Y-31045D01*
G01X4003Y-31034D01*
G01X4025Y-31014D01*
G01X4040Y-31000D01*
G01X4050Y-30992D01*
G01X4058Y-30987D01*
G01X4063Y-30985D01*
G01X4076Y-30984D01*
G01X4091Y-30979D01*
G01X4107Y-30973D01*
G01X4122Y-30965D01*
G01X4136Y-30956D01*
G01X4148Y-30948D01*
G01X4155Y-30940D01*
G01X4156Y-30933D01*
G01X4144Y-30921D01*
G01X4122Y-30916D01*
G01X4098Y-30919D01*
G01X4081Y-30930D01*
G01X4072Y-30937D01*
G01X4056Y-30943D01*
G01X4034Y-30947D01*
G01X4009Y-30949D01*
G01X3993Y-30948D01*
G01X3980Y-30946D01*
G01X3969Y-30940D01*
G01X3959Y-30932D01*
G01X3940Y-30917D01*
G01X3913Y-30900D01*
G01X3898Y-30890D01*
G01X3887Y-30882D01*
G01X3878Y-30873D01*
G01X3873Y-30864D01*
G01X3870Y-30854D01*
G01Y-30843D01*
G01X3872Y-30829D01*
G01X3876Y-30813D01*
G01X3880Y-30798D01*
G01Y-30786D01*
G01X3878Y-30773D01*
G01X3873Y-30756D01*
G01X3869Y-30743D01*
G01X3867Y-30731D01*
G01X3866Y-30718D01*
G01Y-30706D01*
G01X3868Y-30694D01*
G01X3872Y-30682D01*
G01X3876Y-30671D01*
G01X3883Y-30660D01*
G01X3904Y-30626D01*
G01X3910Y-30614D01*
G01X3912Y-30608D01*
G01X3914Y-30603D01*
G01X3920Y-30596D01*
G01X3928Y-30586D01*
G01X3935Y-30573D01*
G01X3942Y-30561D01*
G01X3952Y-30553D01*
G01X3970Y-30547D01*
G01X3999Y-30540D01*
G01X4024Y-30534D01*
G01X4033Y-30531D01*
G01X4040Y-30527D01*
G01X4046Y-30521D01*
G01X4051Y-30513D01*
G01X4065Y-30488D01*
G01X4076Y-30469D01*
G01X4088Y-30454D01*
G01X4101Y-30442D01*
G01X4115Y-30433D01*
G01X4129Y-30425D01*
G01X4144Y-30414D01*
G01X4158Y-30403D01*
G01X4171Y-30397D01*
G01X4185Y-30388D01*
G01X4193Y-30365D01*
G01X4199Y-30318D01*
G01X4204Y-30238D01*
G01X4203Y-30222D01*
G01X4201Y-30208D01*
G01X4195Y-30195D01*
G01X4187Y-30184D01*
G01X4175Y-30174D01*
G01X4160Y-30165D01*
G01X4141Y-30155D01*
G01X4117Y-30147D01*
G01X4104Y-30140D01*
G01X4088Y-30132D01*
G01X4072Y-30122D01*
G01X4058Y-30115D01*
G01X4045Y-30111D01*
G01X4032Y-30108D01*
G01X3976Y-30099D01*
G01X3949Y-30095D01*
G01X3923Y-30093D01*
G01X3876Y-30092D01*
G01X3855Y-30093D01*
G01X3840Y-30092D01*
G01X3823Y-30089D01*
G01X3812Y-30087D01*
G01X3780Y-30084D01*
G01X3743D01*
G01X3727Y-30085D01*
G01X3714Y-30086D01*
G01X3705Y-30088D01*
G37*
G36*
G01X3844Y-28804D02*
G01X3844Y-28804D01*
G01X3802Y-28817D01*
G01X3770Y-28829D01*
G01X3759Y-28834D01*
G01X3752Y-28839D01*
G01X3722Y-28859D01*
G01X3708Y-28869D01*
G01X3699Y-28877D01*
G01X3681Y-28886D01*
G01X3648Y-28889D01*
G01X3635Y-28891D01*
G01X3618Y-28895D01*
G01X3577Y-28910D01*
G01X3533Y-28930D01*
G01X3512Y-28941D01*
G01X3493Y-28953D01*
G01X3467Y-28968D01*
G01X3455Y-28976D01*
G01X3446Y-28988D01*
G01X3436Y-29003D01*
G01X3422Y-29019D01*
G01X3415Y-29029D01*
G01X3408Y-29042D01*
G01X3393Y-29072D01*
G01X3380Y-29105D01*
G01X3376Y-29120D01*
G01X3373Y-29134D01*
G01X3370Y-29149D01*
G01X3366Y-29160D01*
G01X3360Y-29175D01*
G01X3352Y-29204D01*
G01X3343Y-29242D01*
G01X3344Y-29325D01*
G01X3348Y-29406D01*
G01X3349Y-29412D01*
G01Y-29416D01*
G01X3358Y-29464D01*
G01X3363Y-29495D01*
G01X3365Y-29506D01*
G01X3368Y-29514D01*
G01X3371Y-29521D01*
G01X3375Y-29527D01*
G01X3379Y-29531D01*
G01X3385Y-29536D01*
G01X3395Y-29544D01*
G01X3404Y-29554D01*
G01X3412Y-29565D01*
G01X3419Y-29577D01*
G01X3425Y-29590D01*
G01X3431Y-29604D01*
G01X3436Y-29620D01*
G01X3439Y-29636D01*
G01X3446Y-29668D01*
G01X3450Y-29678D01*
G01X3454Y-29687D01*
G01X3459Y-29693D01*
G01X3464Y-29696D01*
G01X3471Y-29699D01*
G01X3479Y-29700D01*
G01X3495Y-29701D01*
G01X3496Y-29704D01*
G01X3498Y-29711D01*
G01X3504Y-29728D01*
G01X3512Y-29742D01*
G01X3521Y-29752D01*
G01X3530Y-29756D01*
G01X3537Y-29758D01*
G01X3547Y-29764D01*
G01X3560Y-29770D01*
G01X3571Y-29771D01*
G01X3580Y-29767D01*
G01X3584Y-29758D01*
G01X3579Y-29738D01*
G01X3561Y-29725D01*
G01X3550Y-29720D01*
G01X3537Y-29712D01*
G01X3520Y-29704D01*
G01X3501Y-29701D01*
G01X3497Y-29684D01*
G01X3502Y-29652D01*
G01X3505Y-29631D01*
G01X3502Y-29609D01*
G01X3492Y-29585D01*
G01X3475Y-29556D01*
G01X3465Y-29538D01*
G01X3460Y-29522D01*
G01X3456Y-29509D01*
G01X3453Y-29497D01*
G01X3449Y-29474D01*
G01X3446Y-29426D01*
G01X3443Y-29360D01*
G01X3442Y-29348D01*
G01X3435Y-29291D01*
G01X3434Y-29257D01*
G01X3435Y-29228D01*
G01X3436Y-29214D01*
G01X3438Y-29201D01*
G01X3441Y-29189D01*
G01X3444Y-29178D01*
G01X3448Y-29168D01*
G01X3452Y-29158D01*
G01X3457Y-29149D01*
G01X3462Y-29142D01*
G01X3468Y-29134D01*
G01X3478Y-29123D01*
G01X3485Y-29113D01*
G01X3490Y-29104D01*
G01X3491Y-29096D01*
G01X3496Y-29079D01*
G01X3510Y-29060D01*
G01X3529Y-29041D01*
G01X3550Y-29027D01*
G01X3567Y-29017D01*
G01X3577Y-29002D01*
G01X3589Y-28983D01*
G01X3604Y-28967D01*
G01X3621Y-28954D01*
G01X3644Y-28941D01*
G01X3661Y-28931D01*
G01X3677Y-28917D01*
G01X3692Y-28901D01*
G01X3721D01*
G01X3738D01*
G01X3751Y-28900D01*
G01X3762Y-28896D01*
G01X3777Y-28891D01*
G01X3803Y-28880D01*
G01X3843Y-28882D01*
G01X3877D01*
G01X3888Y-28881D01*
G01X3897Y-28879D01*
G01X3915Y-28876D01*
G01X3977Y-28873D01*
G01X4051Y-28874D01*
G01X4110Y-28879D01*
G01X4126Y-28883D01*
G01X4136Y-28886D01*
G01X4171Y-28894D01*
G01X4194Y-28898D01*
G01X4206Y-28902D01*
G01X4216Y-28907D01*
G01X4226Y-28912D01*
G01X4241Y-28913D01*
G01X4257Y-28914D01*
G01X4267Y-28924D01*
G01X4283Y-28937D01*
G01X4301Y-28944D01*
G01X4317Y-28945D01*
G01X4325Y-28938D01*
G01X4324Y-28926D01*
G01X4313Y-28915D01*
G01X4294Y-28908D01*
G01X4270Y-28904D01*
G01X4260Y-28901D01*
G01X4246Y-28888D01*
G01X4231Y-28872D01*
G01X4186Y-28861D01*
G01X4148Y-28850D01*
G01X4137Y-28846D01*
G01X4129Y-28841D01*
G01X4112Y-28830D01*
G01X4105Y-28825D01*
G01X4098Y-28819D01*
G01X4085Y-28812D01*
G01X4071Y-28816D01*
G01X4059Y-28819D01*
G01X4038Y-28817D01*
G01X3905Y-28807D01*
G01X3863Y-28804D01*
G01X3850Y-28803D01*
G01X3844Y-28804D01*
G37*
G36*
G01X4539Y-29188D02*
G01X4539Y-29188D01*
G01X4535Y-29204D01*
G01Y-29236D01*
G01X4539Y-29270D01*
G01X4545Y-29291D01*
G01X4553Y-29308D01*
G01X4563Y-29333D01*
G01X4573Y-29363D01*
G01X4567Y-29381D01*
G01X4560Y-29408D01*
G01X4554Y-29436D01*
G01X4549Y-29465D01*
G01X4547Y-29497D01*
G01X4543Y-29549D01*
G01X4542Y-29556D01*
G01X4541Y-29561D01*
G01X4540Y-29566D01*
G01X4538Y-29569D01*
G01X4536Y-29572D01*
G01X4534Y-29575D01*
G01X4532Y-29577D01*
G01X4529Y-29578D01*
G01X4526Y-29580D01*
G01X4519Y-29582D01*
G01X4507Y-29589D01*
G01X4496Y-29599D01*
G01X4488Y-29614D01*
G01X4483Y-29631D01*
G01X4478Y-29651D01*
G01X4473Y-29668D01*
G01X4466Y-29682D01*
G01X4456Y-29698D01*
G01X4447Y-29711D01*
G01X4437Y-29721D01*
G01X4422Y-29731D01*
G01X4399Y-29745D01*
G01X4383Y-29756D01*
G01X4371Y-29769D01*
G01X4362Y-29781D01*
G01X4352Y-29790D01*
G01X4340Y-29797D01*
G01X4325Y-29802D01*
G01X4302Y-29810D01*
G01X4281Y-29820D01*
G01X4261Y-29830D01*
G01X4243Y-29841D01*
G01X4226Y-29851D01*
G01X4206Y-29860D01*
G01X4183Y-29868D01*
G01X4157Y-29875D01*
G01X4100Y-29887D01*
G01X4039Y-29894D01*
G01X3977Y-29897D01*
G01X3919Y-29894D01*
G01X3893Y-29891D01*
G01X3868Y-29887D01*
G01X3846Y-29881D01*
G01X3828Y-29874D01*
G01X3812Y-29870D01*
G01X3791Y-29868D01*
G01X3773Y-29867D01*
G01X3762Y-29864D01*
G01X3754Y-29861D01*
G01X3752Y-29868D01*
G01X3753Y-29873D01*
G01X3755Y-29875D01*
G01X3760Y-29878D01*
G01X3771Y-29885D01*
G01X3785Y-29894D01*
G01X3800Y-29900D01*
G01X3822Y-29908D01*
G01X3831Y-29916D01*
G01X3837Y-29924D01*
G01X3857Y-29931D01*
G01X3886Y-29936D01*
G01X3923Y-29939D01*
G01X3982Y-29944D01*
G01X4015Y-29948D01*
G01X4028Y-29951D01*
G01X4038Y-29954D01*
G01X4045Y-29956D01*
G01X4061Y-29959D01*
G01X4099Y-29960D01*
G01X4135D01*
G01X4147Y-29961D01*
G01X4153Y-29962D01*
G01X4174D01*
G01X4198Y-29952D01*
G01X4208Y-29947D01*
G01X4216Y-29944D01*
G01X4227Y-29938D01*
G01X4242Y-29928D01*
G01X4263Y-29914D01*
G01X4287Y-29902D01*
G01X4302Y-29896D01*
G01X4312Y-29890D01*
G01X4320Y-29882D01*
G01X4330Y-29871D01*
G01X4340Y-29860D01*
G01X4350Y-29851D01*
G01X4361Y-29842D01*
G01X4372Y-29834D01*
G01X4383Y-29828D01*
G01X4393Y-29824D01*
G01X4402Y-29821D01*
G01X4409D01*
G01X4425Y-29819D01*
G01X4443Y-29808D01*
G01X4460Y-29790D01*
G01X4474Y-29766D01*
G01X4488Y-29740D01*
G01X4500Y-29719D01*
G01X4507Y-29711D01*
G01X4513Y-29704D01*
G01X4519Y-29697D01*
G01X4526Y-29692D01*
G01X4540Y-29680D01*
G01X4549Y-29667D01*
G01X4553Y-29650D01*
G01X4556Y-29624D01*
G01X4559Y-29597D01*
G01X4560Y-29588D01*
G01X4562Y-29581D01*
G01X4565Y-29576D01*
G01X4569Y-29572D01*
G01X4573Y-29569D01*
G01X4579Y-29566D01*
G01X4593Y-29555D01*
G01X4604Y-29539D01*
G01X4610Y-29518D01*
G01X4612Y-29493D01*
G01X4611Y-29352D01*
G01X4610Y-29322D01*
G01X4606Y-29293D01*
G01X4601Y-29265D01*
G01X4594Y-29240D01*
G01X4591Y-29229D01*
G01X4586Y-29219D01*
G01X4582Y-29210D01*
G01X4578Y-29203D01*
G01X4573Y-29196D01*
G01X4568Y-29192D01*
G01X4564Y-29189D01*
G01X4559Y-29188D01*
G01X4554D01*
G01X4548Y-29187D01*
G01X4543Y-29186D01*
G01X4539Y-29188D01*
G37*
G36*
G01X796Y-27754D02*
G01X796Y-27754D01*
G01X791Y-27764D01*
G01X789Y-27771D01*
G01X787Y-27779D01*
G01X781Y-27793D01*
G01X772Y-27813D01*
G01X770Y-27830D01*
G01X774Y-27844D01*
G01X784Y-27857D01*
G01X791Y-27866D01*
G01X789Y-27876D01*
G01X787Y-27889D01*
G01X801Y-27891D01*
G01X817Y-27893D01*
G01X840Y-27899D01*
G01X862Y-27907D01*
G01X875Y-27913D01*
G01X878Y-27921D01*
G01X880Y-27935D01*
G01X882Y-27954D01*
G01X886Y-27972D01*
G01X892Y-27990D01*
G01X899Y-28007D01*
G01X905Y-28020D01*
G01X908Y-28028D01*
G01X910Y-28036D01*
G01X915Y-28047D01*
G01X926Y-28070D01*
G01X940Y-28110D01*
G01X946Y-28124D01*
G01X952Y-28133D01*
G01X960Y-28137D01*
G01X969D01*
G01X982D01*
G01X998Y-28139D01*
G01X1015Y-28143D01*
G01X1013Y-28161D01*
G01X1015Y-28185D01*
G01X1022Y-28217D01*
G01X1034Y-28253D01*
G01X1050Y-28291D01*
G01X1061Y-28316D01*
G01X1070Y-28340D01*
G01X1076Y-28363D01*
G01X1080Y-28391D01*
G01X1085Y-28412D01*
G01X1090Y-28428D01*
G01X1098Y-28440D01*
G01X1106Y-28448D01*
G01X1117Y-28451D01*
G01X1129Y-28450D01*
G01X1143Y-28445D01*
G01X1159Y-28436D01*
G01X1169Y-28426D01*
G01X1176Y-28413D01*
G01X1178Y-28398D01*
G01X1176Y-28383D01*
G01X1172Y-28367D01*
G01X1164Y-28353D01*
G01X1153Y-28341D01*
G01X1139Y-28332D01*
G01X1123Y-28318D01*
G01X1112Y-28290D01*
G01X1108Y-28275D01*
G01X1104Y-28265D01*
G01X1099Y-28254D01*
G01X1093Y-28236D01*
G01X1088Y-28218D01*
G01X1081Y-28203D01*
G01X1074Y-28189D01*
G01X1066Y-28179D01*
G01X1060Y-28172D01*
G01X1055Y-28164D01*
G01X1047Y-28157D01*
G01X1037Y-28150D01*
G01X1023Y-28141D01*
G01X1017Y-28117D01*
G01X1013Y-28100D01*
G01X1007Y-28082D01*
G01X1000Y-28063D01*
G01X992Y-28046D01*
G01X983Y-28029D01*
G01X974Y-28015D01*
G01X965Y-28004D01*
G01X957Y-27996D01*
G01X947Y-27984D01*
G01X943Y-27969D01*
G01X937Y-27947D01*
G01X913Y-27921D01*
G01X897Y-27905D01*
G01X890Y-27896D01*
G01X887Y-27890D01*
G01X879Y-27881D01*
G01X870Y-27870D01*
G01X866Y-27856D01*
G01X862Y-27841D01*
G01X854Y-27826D01*
G01X846Y-27811D01*
G01X844Y-27798D01*
G01X842Y-27785D01*
G01X838Y-27772D01*
G01X831Y-27760D01*
G01X821Y-27751D01*
G01X807Y-27742D01*
G01X796Y-27754D01*
G37*
G36*
G01X2516Y-30874D02*
G01X2516Y-30874D01*
G01X2497Y-30878D01*
G01X2488Y-30888D01*
G01X2483Y-30908D01*
G01X2492Y-30929D01*
G01X2517Y-30952D01*
G01X2558Y-30979D01*
G01X2607Y-31008D01*
G01X2629Y-31021D01*
G01X2639Y-31025D01*
G01X2648Y-31029D01*
G01X2656Y-31032D01*
G01X2664Y-31034D01*
G01X2671Y-31035D01*
G01X2679D01*
G01X2702Y-31037D01*
G01X2736Y-31045D01*
G01X2757Y-31050D01*
G01X2771Y-31053D01*
G01X2780D01*
G01X2788Y-31052D01*
G01X2802Y-31050D01*
G01X2817D01*
G01X2856Y-31056D01*
G01X2865Y-31058D01*
G01X2869Y-31061D01*
G01X2887Y-31075D01*
G01X2913Y-31087D01*
G01X2941Y-31095D01*
G01X2964D01*
G01X2988Y-31092D01*
G01X3020Y-31090D01*
G01X3035Y-31089D01*
G01X3048Y-31088D01*
G01X3059Y-31085D01*
G01X3068Y-31083D01*
G01X3074Y-31080D01*
G01X3079Y-31077D01*
G01X3082Y-31074D01*
G01X3083Y-31071D01*
G01X3082Y-31068D01*
G01X3078Y-31065D01*
G01X3073Y-31062D01*
G01X3066Y-31059D01*
G01X3057Y-31057D01*
G01X3046Y-31055D01*
G01X3032Y-31053D01*
G01X3017Y-31052D01*
G01X2986Y-31050D01*
G01X2963Y-31046D01*
G01X2947Y-31044D01*
G01X2934Y-31048D01*
G01X2919Y-31051D01*
G01X2893Y-31048D01*
G01X2875Y-31044D01*
G01X2861Y-31039D01*
G01X2848Y-31031D01*
G01X2832Y-31016D01*
G01X2820Y-31008D01*
G01X2803Y-30999D01*
G01X2784Y-30990D01*
G01X2765Y-30984D01*
G01X2745Y-30977D01*
G01X2723Y-30968D01*
G01X2685Y-30952D01*
G01X2669Y-30944D01*
G01X2649Y-30931D01*
G01X2625Y-30914D01*
G01X2605Y-30902D01*
G01X2585Y-30891D01*
G01X2564Y-30883D01*
G01X2548Y-30877D01*
G01X2537Y-30874D01*
G01X2528Y-30873D01*
G01X2516Y-30874D01*
G37*
G36*
G01X3960Y-27353D02*
G01X3960Y-27353D01*
G01X3939Y-27361D01*
G01X3917Y-27376D01*
G01X3899Y-27393D01*
G01X3892Y-27407D01*
G01X3884Y-27418D01*
G01X3865Y-27432D01*
G01X3840Y-27446D01*
G01X3815Y-27455D01*
G01X3792Y-27464D01*
G01X3772Y-27480D01*
G01X3759Y-27496D01*
G01X3757Y-27511D01*
G01X3770Y-27519D01*
G01X3793Y-27520D01*
G01X3820Y-27513D01*
G01X3843Y-27499D01*
G01X3856Y-27489D01*
G01X3868Y-27481D01*
G01X3879Y-27473D01*
G01X3889Y-27463D01*
G01X3897Y-27455D01*
G01X3904Y-27450D01*
G01X3914Y-27443D01*
G01X3930Y-27429D01*
G01X3950Y-27410D01*
G01X3966Y-27411D01*
G01X3981Y-27410D01*
G01X3996Y-27407D01*
G01X4008Y-27401D01*
G01X4017Y-27393D01*
G01X4036Y-27371D01*
G01X4045Y-27360D01*
G01Y-27355D01*
G01X4033Y-27352D01*
G01X4010Y-27351D01*
G01X3982D01*
G01X3960Y-27353D01*
G37*
G36*
G01X2603Y-29852D02*
G01X2603Y-29852D01*
G01X2595Y-29856D01*
G01X2579Y-29862D01*
G01X2569Y-29868D01*
G01X2538Y-29886D01*
G01X2522Y-29897D01*
G01X2471Y-29932D01*
G01X2454Y-29944D01*
G01X2433Y-29963D01*
G01X2421Y-29975D01*
G01X2412Y-29981D01*
G01X2406Y-29985D01*
G01X2400D01*
G01X2380Y-29991D01*
G01X2367Y-30003D01*
G01X2365Y-30016D01*
G01X2376Y-30025D01*
G01X2392Y-30023D01*
G01X2411Y-30009D01*
G01X2422Y-30001D01*
G01X2431D01*
G01X2445Y-30004D01*
G01X2459Y-30005D01*
G01X2471D01*
G01X2482Y-30004D01*
G01X2493Y-30001D01*
G01X2503Y-29998D01*
G01X2512Y-29993D01*
G01X2521Y-29986D01*
G01X2538Y-29973D01*
G01X2559Y-29959D01*
G01X2579Y-29944D01*
G01X2596Y-29926D01*
G01X2609Y-29906D01*
G01X2619Y-29885D01*
G01X2621Y-29869D01*
G01X2618Y-29856D01*
G01X2611Y-29849D01*
G01X2603Y-29852D01*
G37*
G36*
G01X4635Y-31898D02*
G01X4635Y-31898D01*
G01X4634Y-31912D01*
G01X4632Y-31938D01*
G01X4631Y-31954D01*
G01X4630Y-31966D01*
G01X4627Y-31974D01*
G01X4622Y-31980D01*
G01X4616Y-31983D01*
G01X4608Y-31982D01*
G01X4598Y-31980D01*
G01X4584Y-31975D01*
G01X4572Y-31965D01*
G01X4569Y-31931D01*
G01X4567Y-31911D01*
G01X4564Y-31901D01*
G01X4557Y-31896D01*
G01X4545Y-31897D01*
G01X4527Y-31903D01*
G01X4523Y-31926D01*
G01X4522Y-31949D01*
G01X4519Y-31964D01*
G01X4512Y-31972D01*
G01X4500Y-31977D01*
G01X4485Y-31982D01*
G01X4476Y-31994D01*
G01X4467Y-32007D01*
G01X4476Y-32014D01*
G01X4490Y-32020D01*
G01X4536D01*
G01X4589Y-32019D01*
G01X4606Y-32009D01*
G01X4624Y-31999D01*
G01X4687Y-31998D01*
G01X4775Y-31996D01*
G01X4793Y-31994D01*
G01X4797D01*
G01X4800Y-31993D01*
G01X4802Y-31992D01*
G01X4803D01*
G01Y-31991D01*
G01X4800Y-31989D01*
G01X4795Y-31988D01*
G01X4789D01*
G01X4786Y-31986D01*
G01X4771Y-31984D01*
G01X4738Y-31982D01*
G01X4706Y-31980D01*
G01X4695Y-31979D01*
G01X4687Y-31978D01*
G01X4681Y-31975D01*
G01X4676Y-31973D01*
G01X4673Y-31969D01*
G01X4671Y-31964D01*
G01X4669Y-31951D01*
G01X4668Y-31932D01*
G01X4669Y-31913D01*
G01X4671Y-31903D01*
G01X4670Y-31896D01*
G01X4652Y-31893D01*
G01X4640Y-31894D01*
G01X4635Y-31898D01*
G37*
G36*
G01X4356Y-28953D02*
G01X4356Y-28953D01*
G01X4354Y-28957D01*
G01X4359Y-28966D01*
G01X4365Y-28976D01*
G01X4369Y-28985D01*
G01X4381Y-29004D01*
G01X4412Y-29027D01*
G01X4430Y-29040D01*
G01X4442Y-29050D01*
G01X4449Y-29061D01*
G01X4453Y-29072D01*
G01X4459Y-29090D01*
G01X4471Y-29113D01*
G01X4485Y-29135D01*
G01X4496Y-29148D01*
G01X4504Y-29154D01*
G01X4508Y-29160D01*
G01X4515Y-29166D01*
G01X4523D01*
G01Y-29164D01*
G01X4520Y-29161D01*
G01X4516Y-29151D01*
G01X4514Y-29124D01*
G01X4512Y-29100D01*
G01X4509Y-29084D01*
G01X4501Y-29072D01*
G01X4487Y-29058D01*
G01X4476Y-29046D01*
G01X4468Y-29034D01*
G01X4463Y-29026D01*
G01X4460Y-29023D01*
G01X4449Y-29011D01*
G01X4441Y-28990D01*
G01X4429Y-28971D01*
G01X4405Y-28957D01*
G01X4378Y-28949D01*
G01X4356Y-28953D01*
G37*
G36*
G01X4189Y-29437D02*
G01X4189Y-29437D01*
G01X4177Y-29447D01*
G01X4167Y-29454D01*
G01X4158Y-29464D01*
G01X4150Y-29481D01*
G01X4144Y-29504D01*
G01X4140Y-29528D01*
G01X4144Y-29545D01*
G01X4155Y-29562D01*
G01X4172Y-29578D01*
G01X4193Y-29591D01*
G01X4216Y-29601D01*
G01X4241Y-29608D01*
G01X4264Y-29609D01*
G01X4285Y-29604D01*
G01X4300Y-29596D01*
G01X4313Y-29586D01*
G01X4322Y-29574D01*
G01X4329Y-29561D01*
G01X4333Y-29547D01*
G01X4335Y-29533D01*
G01X4334Y-29518D01*
G01X4330Y-29503D01*
G01X4325Y-29489D01*
G01X4317Y-29475D01*
G01X4307Y-29462D01*
G01X4295Y-29451D01*
G01X4281Y-29442D01*
G01X4266Y-29434D01*
G01X4248Y-29429D01*
G01X4230Y-29427D01*
G01X4202Y-29426D01*
G01X4189Y-29437D01*
G37*
G36*
G01X2462Y-29552D02*
G01X2462Y-29552D01*
G01X2441Y-29561D01*
G01X2423Y-29575D01*
G01X2411Y-29592D01*
G01X2408Y-29607D01*
G01X2412Y-29626D01*
G01X2419Y-29642D01*
G01X2428Y-29657D01*
G01X2438Y-29669D01*
G01X2449Y-29678D01*
G01X2462Y-29686D01*
G01X2475Y-29690D01*
G01X2488Y-29693D01*
G01X2502D01*
G01X2515Y-29690D01*
G01X2527Y-29685D01*
G01X2538Y-29678D01*
G01X2549Y-29667D01*
G01X2557Y-29655D01*
G01X2564Y-29639D01*
G01X2568Y-29621D01*
G01X2567Y-29606D01*
G01X2561Y-29592D01*
G01X2550Y-29578D01*
G01X2535Y-29567D01*
G01X2518Y-29557D01*
G01X2499Y-29551D01*
G01X2480Y-29549D01*
G01X2462Y-29552D01*
G37*
G36*
G01X799Y-28641D02*
G01X799Y-28641D01*
G01X788Y-28651D01*
G01X778Y-28663D01*
G01X767Y-28677D01*
G01X757Y-28691D01*
G01X749Y-28705D01*
G01X742Y-28718D01*
G01X738Y-28730D01*
G01X735Y-28740D01*
G01Y-28758D01*
G01X739Y-28773D01*
G01X746Y-28785D01*
G01X755Y-28793D01*
G01X766Y-28796D01*
G01X777Y-28795D01*
G01X788Y-28789D01*
G01X798Y-28776D01*
G01X820Y-28743D01*
G01X827Y-28733D01*
G01X833Y-28719D01*
G01X838Y-28703D01*
G01X843Y-28687D01*
G01X847Y-28670D01*
G01X849Y-28656D01*
G01Y-28645D01*
G01X847Y-28638D01*
G01X825Y-28631D01*
G01X799Y-28641D01*
G37*
G36*
G01X1850Y-29943D02*
G01X1850Y-29943D01*
G01X1857Y-29963D01*
G01X1873Y-29984D01*
G01X1892Y-29999D01*
G01X1910Y-30002D01*
G01X1922Y-30000D01*
G01X1939Y-30002D01*
G01X1960Y-30004D01*
G01X1971Y-30003D01*
G01X1975Y-29997D01*
G01X1972Y-29987D01*
G01X1960Y-29968D01*
G01X1944Y-29955D01*
G01X1921Y-29947D01*
G01X1894Y-29943D01*
G01X1861Y-29940D01*
G01X1852D01*
G01X1850Y-29943D01*
G37*
G36*
G01X1757Y-29834D02*
G01X1757Y-29834D01*
G01X1743Y-29840D01*
G01X1735Y-29847D01*
G01Y-29856D01*
G01X1740Y-29867D01*
G01X1759Y-29884D01*
G01X1788Y-29897D01*
G01X1817Y-29904D01*
G01X1832Y-29900D01*
G01X1831Y-29886D01*
G01X1823Y-29870D01*
G01X1808Y-29854D01*
G01X1788Y-29841D01*
G01X1769Y-29833D01*
G01X1757Y-29834D01*
G37*
G36*
G01X709Y-28587D02*
G01X709Y-28587D01*
G01X706Y-28595D01*
G01X710Y-28607D01*
G01X720Y-28624D01*
G01X727Y-28631D01*
G01X732Y-28627D01*
G01X734Y-28611D01*
G01X732Y-28593D01*
G01X726Y-28581D01*
G01X718Y-28579D01*
G01X709Y-28587D01*
G37*
G36*
G01X888Y-28582D02*
G01X888Y-28582D01*
G01X881Y-28604D01*
G01X882Y-28618D01*
G01X889Y-28623D01*
G01X900Y-28614D01*
G01X909Y-28599D01*
G01X908Y-28584D01*
G01X898Y-28573D01*
G01X888Y-28582D01*
G37*
G04 Image End*
G04 Image End*

G04 Text Start*
G54D10*
G01X66855Y2972D02*
G01X66205Y2972D01*
G01X66855Y2537D02*
G01X66205Y2537D01*
G01X66545Y2972D02*
G01X66545Y2537D01*
G01X66731Y2235D02*
G01X66764Y2174D01*
G01X66855Y2083D01*
G01X66205D01*
G01X49736Y-33942D02*
G01X49736Y-33477D01*
G01X49705Y-33386D01*
G01X49642Y-33323D01*
G01X49550Y-33292D01*
G01X49487D01*
G01X49395Y-33323D01*
G01X49334Y-33386D01*
G01X49301Y-33477D01*
G01Y-33942D01*
G01X48999Y-33818D02*
G01X48938Y-33851D01*
G01X48847Y-33942D01*
G01Y-33292D01*
G01X-769Y2475D02*
G01X-769Y1825D01*
G01X-769Y1825D02*
G01X-399Y1825D01*
G01X-96Y2475D02*
G01X-96Y1825D01*
G01X-96Y2475D02*
G01X305Y2475D01*
G01X-96Y2165D02*
G01X150Y2165D01*
G01X-96Y1825D02*
G01X305Y1825D01*
G01X607Y2475D02*
G01X607Y1825D01*
G01X607Y2475D02*
G01X823Y2475D01*
G01X915Y2445D01*
G01X978Y2384D01*
G01X1009Y2320D01*
G01X1039Y2229D01*
G01Y2074D01*
G01X1009Y1980D01*
G01X978Y1919D01*
G01X915Y1855D01*
G01X823Y1825D01*
G01X607D01*
G01X1341Y2351D02*
G01X1402Y2384D01*
G01X1494Y2475D01*
G01Y1825D01*
G01X15631Y2475D02*
G01X15631Y1825D01*
G01X15631Y1825D02*
G01X16001Y1825D01*
G01X16304Y2475D02*
G01X16304Y1825D01*
G01X16304Y2475D02*
G01X16705Y2475D01*
G01X16304Y2165D02*
G01X16550Y2165D01*
G01X16304Y1825D02*
G01X16705Y1825D01*
G01X17007Y2475D02*
G01X17007Y1825D01*
G01X17007Y2475D02*
G01X17223Y2475D01*
G01X17315Y2445D01*
G01X17378Y2384D01*
G01X17409Y2320D01*
G01X17439Y2229D01*
G01Y2074D01*
G01X17409Y1980D01*
G01X17378Y1919D01*
G01X17315Y1855D01*
G01X17223Y1825D01*
G01X17007D01*
G01X18112Y2475D02*
G01X17802Y2475D01*
G01X17772Y2198D01*
G01X17802Y2229D01*
G01X17894Y2259D01*
G01X17988D01*
G01X18082Y2229D01*
G01X18143Y2165D01*
G01X18173Y2074D01*
G01Y2010D01*
G01X18143Y1919D01*
G01X18082Y1855D01*
G01X17988Y1825D01*
G01X17894D01*
G01X17802Y1855D01*
G01X17772Y1888D01*
G01X17741Y1949D01*
G01X-769Y-22125D02*
G01X-769Y-22775D01*
G01X-769Y-22775D02*
G01X-399Y-22775D01*
G01X-96Y-22125D02*
G01X-96Y-22775D01*
G01X-96Y-22125D02*
G01X305Y-22125D01*
G01X-96Y-22435D02*
G01X150Y-22435D01*
G01X-96Y-22775D02*
G01X305Y-22775D01*
G01X607Y-22125D02*
G01X607Y-22775D01*
G01X607Y-22125D02*
G01X823Y-22125D01*
G01X915Y-22155D01*
G01X978Y-22216D01*
G01X1009Y-22280D01*
G01X1039Y-22371D01*
G01Y-22526D01*
G01X1009Y-22620D01*
G01X978Y-22681D01*
G01X915Y-22745D01*
G01X823Y-22775D01*
G01X607D01*
G01X1402Y-22125D02*
G01X1743Y-22125D01*
G01X1557Y-22371D01*
G01X1649D01*
G01X1712Y-22402D01*
G01X1743Y-22435D01*
G01X1773Y-22526D01*
G01Y-22590D01*
G01X1743Y-22681D01*
G01X1682Y-22745D01*
G01X1588Y-22775D01*
G01X1494D01*
G01X1402Y-22745D01*
G01X1372Y-22712D01*
G01X1341Y-22651D01*
G01X2075Y-22249D02*
G01X2136Y-22216D01*
G01X2228Y-22125D01*
G01Y-22775D01*
G01X15631Y-22125D02*
G01X15631Y-22775D01*
G01X15631Y-22775D02*
G01X16001Y-22775D01*
G01X16304Y-22125D02*
G01X16304Y-22775D01*
G01X16304Y-22125D02*
G01X16705Y-22125D01*
G01X16304Y-22435D02*
G01X16550Y-22435D01*
G01X16304Y-22775D02*
G01X16705Y-22775D01*
G01X17007Y-22125D02*
G01X17007Y-22775D01*
G01X17007Y-22125D02*
G01X17223Y-22125D01*
G01X17315Y-22155D01*
G01X17378Y-22216D01*
G01X17409Y-22280D01*
G01X17439Y-22371D01*
G01Y-22526D01*
G01X17409Y-22620D01*
G01X17378Y-22681D01*
G01X17315Y-22745D01*
G01X17223Y-22775D01*
G01X17007D01*
G01X17802Y-22125D02*
G01X18143Y-22125D01*
G01X17957Y-22371D01*
G01X18049D01*
G01X18112Y-22402D01*
G01X18143Y-22435D01*
G01X18173Y-22526D01*
G01Y-22590D01*
G01X18143Y-22681D01*
G01X18082Y-22745D01*
G01X17988Y-22775D01*
G01X17894D01*
G01X17802Y-22745D01*
G01X17772Y-22712D01*
G01X17741Y-22651D01*
G01X18846Y-22125D02*
G01X18536Y-22125D01*
G01X18506Y-22402D01*
G01X18536Y-22371D01*
G01X18628Y-22341D01*
G01X18722D01*
G01X18816Y-22371D01*
G01X18877Y-22435D01*
G01X18907Y-22526D01*
G01Y-22590D01*
G01X18877Y-22681D01*
G01X18816Y-22745D01*
G01X18722Y-22775D01*
G01X18628D01*
G01X18536Y-22745D01*
G01X18506Y-22712D01*
G01X18475Y-22651D01*
G01X19731Y2475D02*
G01X19731Y1825D01*
G01X19731Y1825D02*
G01X20101Y1825D01*
G01X20404Y2475D02*
G01X20404Y1825D01*
G01X20404Y2475D02*
G01X20805Y2475D01*
G01X20404Y2165D02*
G01X20650Y2165D01*
G01X20404Y1825D02*
G01X20805Y1825D01*
G01X21107Y2475D02*
G01X21107Y1825D01*
G01X21107Y2475D02*
G01X21323Y2475D01*
G01X21415Y2445D01*
G01X21478Y2384D01*
G01X21509Y2320D01*
G01X21539Y2229D01*
G01Y2074D01*
G01X21509Y1980D01*
G01X21478Y1919D01*
G01X21415Y1855D01*
G01X21323Y1825D01*
G01X21107D01*
G01X21902Y2475D02*
G01X22243Y2475D01*
G01X22057Y2229D01*
G01X22149D01*
G01X22212Y2198D01*
G01X22243Y2165D01*
G01X22273Y2074D01*
G01Y2010D01*
G01X22243Y1919D01*
G01X22182Y1855D01*
G01X22088Y1825D01*
G01X21994D01*
G01X21902Y1855D01*
G01X21872Y1888D01*
G01X21841Y1949D01*
G01X22946Y2384D02*
G01X22916Y2445D01*
G01X22822Y2475D01*
G01X22761D01*
G01X22667Y2445D01*
G01X22606Y2351D01*
G01X22575Y2198D01*
G01Y2043D01*
G01X22606Y1919D01*
G01X22667Y1855D01*
G01X22761Y1825D01*
G01X22791D01*
G01X22883Y1855D01*
G01X22946Y1919D01*
G01X22977Y2010D01*
G01Y2043D01*
G01X22946Y2135D01*
G01X22883Y2198D01*
G01X22791Y2229D01*
G01X22761D01*
G01X22667Y2198D01*
G01X22606Y2135D01*
G01X22575Y2043D01*
G01X36131Y2475D02*
G01X36131Y1825D01*
G01X36131Y1825D02*
G01X36501Y1825D01*
G01X36804Y2475D02*
G01X36804Y1825D01*
G01X36804Y2475D02*
G01X37205Y2475D01*
G01X36804Y2165D02*
G01X37050Y2165D01*
G01X36804Y1825D02*
G01X37205Y1825D01*
G01X37507Y2475D02*
G01X37507Y1825D01*
G01X37507Y2475D02*
G01X37723Y2475D01*
G01X37815Y2445D01*
G01X37878Y2384D01*
G01X37909Y2320D01*
G01X37939Y2229D01*
G01Y2074D01*
G01X37909Y1980D01*
G01X37878Y1919D01*
G01X37815Y1855D01*
G01X37723Y1825D01*
G01X37507D01*
G01X38549Y2475D02*
G01X38241Y2043D01*
G01X38704D01*
G01X38549Y2475D02*
G01X38549Y1825D01*
G01X39191Y2475D02*
G01X39097Y2445D01*
G01X39036Y2351D01*
G01X39006Y2198D01*
G01Y2104D01*
G01X39036Y1949D01*
G01X39097Y1855D01*
G01X39191Y1825D01*
G01X39252D01*
G01X39346Y1855D01*
G01X39407Y1949D01*
G01X39438Y2104D01*
G01Y2198D01*
G01X39407Y2351D01*
G01X39346Y2445D01*
G01X39252Y2475D01*
G01X39191D01*
G01X19731Y-22125D02*
G01X19731Y-22775D01*
G01X19731Y-22775D02*
G01X20101Y-22775D01*
G01X20404Y-22125D02*
G01X20404Y-22775D01*
G01X20404Y-22125D02*
G01X20805Y-22125D01*
G01X20404Y-22435D02*
G01X20650Y-22435D01*
G01X20404Y-22775D02*
G01X20805Y-22775D01*
G01X21107Y-22125D02*
G01X21107Y-22775D01*
G01X21107Y-22125D02*
G01X21323Y-22125D01*
G01X21415Y-22155D01*
G01X21478Y-22216D01*
G01X21509Y-22280D01*
G01X21539Y-22371D01*
G01Y-22526D01*
G01X21509Y-22620D01*
G01X21478Y-22681D01*
G01X21415Y-22745D01*
G01X21323Y-22775D01*
G01X21107D01*
G01X22212Y-22216D02*
G01X22182Y-22155D01*
G01X22088Y-22125D01*
G01X22027D01*
G01X21933Y-22155D01*
G01X21872Y-22249D01*
G01X21841Y-22402D01*
G01Y-22557D01*
G01X21872Y-22681D01*
G01X21933Y-22745D01*
G01X22027Y-22775D01*
G01X22057D01*
G01X22149Y-22745D01*
G01X22212Y-22681D01*
G01X22243Y-22590D01*
G01Y-22557D01*
G01X22212Y-22465D01*
G01X22149Y-22402D01*
G01X22057Y-22371D01*
G01X22027D01*
G01X21933Y-22402D01*
G01X21872Y-22465D01*
G01X21841Y-22557D01*
G01X22916Y-22216D02*
G01X22885Y-22155D01*
G01X22791Y-22125D01*
G01X22730D01*
G01X22636Y-22155D01*
G01X22575Y-22249D01*
G01X22545Y-22402D01*
G01Y-22557D01*
G01X22575Y-22681D01*
G01X22636Y-22745D01*
G01X22730Y-22775D01*
G01X22761D01*
G01X22852Y-22745D01*
G01X22916Y-22681D01*
G01X22946Y-22590D01*
G01Y-22557D01*
G01X22916Y-22465D01*
G01X22852Y-22402D01*
G01X22761Y-22371D01*
G01X22730D01*
G01X22636Y-22402D01*
G01X22575Y-22465D01*
G01X22545Y-22557D01*
G01X36131Y-22125D02*
G01X36131Y-22775D01*
G01X36131Y-22775D02*
G01X36501Y-22775D01*
G01X36804Y-22125D02*
G01X36804Y-22775D01*
G01X36804Y-22125D02*
G01X37205Y-22125D01*
G01X36804Y-22435D02*
G01X37050Y-22435D01*
G01X36804Y-22775D02*
G01X37205Y-22775D01*
G01X37507Y-22125D02*
G01X37507Y-22775D01*
G01X37507Y-22125D02*
G01X37723Y-22125D01*
G01X37815Y-22155D01*
G01X37878Y-22216D01*
G01X37909Y-22280D01*
G01X37939Y-22371D01*
G01Y-22526D01*
G01X37909Y-22620D01*
G01X37878Y-22681D01*
G01X37815Y-22745D01*
G01X37723Y-22775D01*
G01X37507D01*
G01X38673Y-22125D02*
G01X38363Y-22775D01*
G01X38241Y-22125D02*
G01X38673Y-22125D01*
G01X39161Y-22125D02*
G01X39067Y-22155D01*
G01X39006Y-22249D01*
G01X38975Y-22402D01*
G01Y-22496D01*
G01X39006Y-22651D01*
G01X39067Y-22745D01*
G01X39161Y-22775D01*
G01X39222D01*
G01X39316Y-22745D01*
G01X39377Y-22651D01*
G01X39407Y-22496D01*
G01Y-22402D01*
G01X39377Y-22249D01*
G01X39316Y-22155D01*
G01X39222Y-22125D01*
G01X39161D01*
G01X40231Y2475D02*
G01X40231Y1825D01*
G01X40231Y1825D02*
G01X40601Y1825D01*
G01X40904Y2475D02*
G01X40904Y1825D01*
G01X40904Y2475D02*
G01X41305Y2475D01*
G01X40904Y2165D02*
G01X41150Y2165D01*
G01X40904Y1825D02*
G01X41305Y1825D01*
G01X41607Y2475D02*
G01X41607Y1825D01*
G01X41607Y2475D02*
G01X41823Y2475D01*
G01X41915Y2445D01*
G01X41978Y2384D01*
G01X42009Y2320D01*
G01X42039Y2229D01*
G01Y2074D01*
G01X42009Y1980D01*
G01X41978Y1919D01*
G01X41915Y1855D01*
G01X41823Y1825D01*
G01X41607D01*
G01X42773Y2475D02*
G01X42463Y1825D01*
G01X42341Y2475D02*
G01X42773Y2475D01*
G01X43075Y2351D02*
G01X43136Y2384D01*
G01X43228Y2475D01*
G01Y1825D01*
G01X55702Y2466D02*
G01X55702Y1816D01*
G01X55702Y1816D02*
G01X56073Y1816D01*
G01X56375Y2466D02*
G01X56375Y1816D01*
G01X56375Y2466D02*
G01X56777Y2466D01*
G01X56375Y2156D02*
G01X56622Y2156D01*
G01X56375Y1816D02*
G01X56777Y1816D01*
G01X57079Y2466D02*
G01X57079Y1816D01*
G01X57079Y2466D02*
G01X57295Y2466D01*
G01X57386Y2436D01*
G01X57450Y2375D01*
G01X57480Y2311D01*
G01X57511Y2220D01*
G01Y2065D01*
G01X57480Y1971D01*
G01X57450Y1910D01*
G01X57386Y1847D01*
G01X57295Y1816D01*
G01X57079D01*
G01X58245Y2466D02*
G01X57935Y1816D01*
G01X57813Y2466D02*
G01X58245Y2466D01*
G01X58918Y2466D02*
G01X58608Y2466D01*
G01X58577Y2189D01*
G01X58608Y2220D01*
G01X58699Y2250D01*
G01X58793D01*
G01X58887Y2220D01*
G01X58948Y2156D01*
G01X58979Y2065D01*
G01Y2002D01*
G01X58948Y1910D01*
G01X58887Y1847D01*
G01X58793Y1816D01*
G01X58699D01*
G01X58608Y1847D01*
G01X58577Y1880D01*
G01X58547Y1941D01*
G01X40231Y-22125D02*
G01X40231Y-22775D01*
G01X40231Y-22775D02*
G01X40601Y-22775D01*
G01X40904Y-22125D02*
G01X40904Y-22775D01*
G01X40904Y-22125D02*
G01X41305Y-22125D01*
G01X40904Y-22435D02*
G01X41150Y-22435D01*
G01X40904Y-22775D02*
G01X41305Y-22775D01*
G01X41607Y-22125D02*
G01X41607Y-22775D01*
G01X41607Y-22125D02*
G01X41823Y-22125D01*
G01X41915Y-22155D01*
G01X41978Y-22216D01*
G01X42009Y-22280D01*
G01X42039Y-22371D01*
G01Y-22526D01*
G01X42009Y-22620D01*
G01X41978Y-22681D01*
G01X41915Y-22745D01*
G01X41823Y-22775D01*
G01X41607D01*
G01X42341Y-22249D02*
G01X42402Y-22216D01*
G01X42494Y-22125D01*
G01Y-22775D01*
G01X42981Y-22125D02*
G01X42887Y-22155D01*
G01X42826Y-22249D01*
G01X42796Y-22402D01*
G01Y-22496D01*
G01X42826Y-22651D01*
G01X42887Y-22745D01*
G01X42981Y-22775D01*
G01X43042D01*
G01X43136Y-22745D01*
G01X43197Y-22651D01*
G01X43228Y-22496D01*
G01Y-22402D01*
G01X43197Y-22249D01*
G01X43136Y-22155D01*
G01X43042Y-22125D01*
G01X42981D01*
G01X43530Y-22249D02*
G01X43591Y-22216D01*
G01X43682Y-22125D01*
G01Y-22775D01*
G01X55742Y-22125D02*
G01X55742Y-22775D01*
G01X55742Y-22775D02*
G01X56112Y-22775D01*
G01X56415Y-22125D02*
G01X56415Y-22775D01*
G01X56415Y-22125D02*
G01X56816Y-22125D01*
G01X56415Y-22435D02*
G01X56661Y-22435D01*
G01X56415Y-22775D02*
G01X56816Y-22775D01*
G01X57118Y-22125D02*
G01X57118Y-22775D01*
G01X57118Y-22125D02*
G01X57334Y-22125D01*
G01X57426Y-22155D01*
G01X57489Y-22216D01*
G01X57520Y-22280D01*
G01X57550Y-22371D01*
G01Y-22526D01*
G01X57520Y-22620D01*
G01X57489Y-22681D01*
G01X57426Y-22745D01*
G01X57334Y-22775D01*
G01X57118D01*
G01X57852Y-22249D02*
G01X57913Y-22216D01*
G01X58005Y-22125D01*
G01Y-22775D01*
G01X58492Y-22125D02*
G01X58398Y-22155D01*
G01X58337Y-22249D01*
G01X58307Y-22402D01*
G01Y-22496D01*
G01X58337Y-22651D01*
G01X58398Y-22745D01*
G01X58492Y-22775D01*
G01X58553D01*
G01X58647Y-22745D01*
G01X58708Y-22651D01*
G01X58739Y-22496D01*
G01Y-22402D01*
G01X58708Y-22249D01*
G01X58647Y-22155D01*
G01X58553Y-22125D01*
G01X58492D01*
G01X59412Y-22125D02*
G01X59102Y-22125D01*
G01X59072Y-22402D01*
G01X59102Y-22371D01*
G01X59193Y-22341D01*
G01X59287D01*
G01X59381Y-22371D01*
G01X59442Y-22435D01*
G01X59473Y-22526D01*
G01Y-22590D01*
G01X59442Y-22681D01*
G01X59381Y-22745D01*
G01X59287Y-22775D01*
G01X59193D01*
G01X59102Y-22745D01*
G01X59072Y-22712D01*
G01X59041Y-22651D01*
G01X10569Y-29079D02*
G01X10539Y-29015D01*
G01X10476Y-28954D01*
G01X10415Y-28924D01*
G01X10290D01*
G01X10229Y-28954D01*
G01X10166Y-29015D01*
G01X10135Y-29079D01*
G01X10105Y-29170D01*
G01Y-29325D01*
G01X10135Y-29419D01*
G01X10166Y-29480D01*
G01X10229Y-29543D01*
G01X10290Y-29574D01*
G01X10415D01*
G01X10476Y-29543D01*
G01X10539Y-29480D01*
G01X10569Y-29419D01*
G01X11057Y-28924D02*
G01X10963Y-28954D01*
G01X10902Y-29048D01*
G01X10872Y-29200D01*
G01Y-29294D01*
G01X10902Y-29449D01*
G01X10963Y-29543D01*
G01X11057Y-29574D01*
G01X11118D01*
G01X11212Y-29543D01*
G01X11273Y-29449D01*
G01X11304Y-29294D01*
G01Y-29200D01*
G01X11273Y-29048D01*
G01X11212Y-28954D01*
G01X11118Y-28924D01*
G01X11057D01*
G01X13013Y-29079D02*
G01X12982Y-29015D01*
G01X12919Y-28954D01*
G01X12858Y-28924D01*
G01X12734D01*
G01X12673Y-28954D01*
G01X12609Y-29015D01*
G01X12579Y-29079D01*
G01X12548Y-29170D01*
G01Y-29325D01*
G01X12579Y-29419D01*
G01X12609Y-29480D01*
G01X12673Y-29543D01*
G01X12734Y-29574D01*
G01X12858D01*
G01X12919Y-29543D01*
G01X12982Y-29480D01*
G01X13013Y-29419D01*
G01X13315Y-29048D02*
G01X13376Y-29015D01*
G01X13468Y-28924D01*
G01Y-29574D01*
G01X15177Y-29079D02*
G01X15146Y-29015D01*
G01X15083Y-28954D01*
G01X15022Y-28924D01*
G01X14898D01*
G01X14837Y-28954D01*
G01X14773Y-29015D01*
G01X14743Y-29079D01*
G01X14712Y-29170D01*
G01Y-29325D01*
G01X14743Y-29419D01*
G01X14773Y-29480D01*
G01X14837Y-29543D01*
G01X14898Y-29574D01*
G01X15022D01*
G01X15083Y-29543D01*
G01X15146Y-29480D01*
G01X15177Y-29419D01*
G01X15510Y-29079D02*
G01X15510Y-29048D01*
G01X15540Y-28985D01*
G01X15571Y-28954D01*
G01X15632Y-28924D01*
G01X15756D01*
G01X15820Y-28954D01*
G01X15850Y-28985D01*
G01X15881Y-29048D01*
G01Y-29109D01*
G01X15850Y-29170D01*
G01X15787Y-29264D01*
G01X15479Y-29574D01*
G01X15911D01*
G01X17620Y-29079D02*
G01X17590Y-29015D01*
G01X17526Y-28954D01*
G01X17465Y-28924D01*
G01X17341D01*
G01X17280Y-28954D01*
G01X17217Y-29015D01*
G01X17186Y-29079D01*
G01X17156Y-29170D01*
G01Y-29325D01*
G01X17186Y-29419D01*
G01X17217Y-29480D01*
G01X17280Y-29543D01*
G01X17341Y-29574D01*
G01X17465D01*
G01X17526Y-29543D01*
G01X17590Y-29480D01*
G01X17620Y-29419D01*
G01X17984Y-28924D02*
G01X18324Y-28924D01*
G01X18139Y-29170D01*
G01X18230D01*
G01X18294Y-29200D01*
G01X18324Y-29233D01*
G01X18354Y-29325D01*
G01Y-29388D01*
G01X18324Y-29480D01*
G01X18263Y-29543D01*
G01X18169Y-29574D01*
G01X18075D01*
G01X17984Y-29543D01*
G01X17953Y-29510D01*
G01X17923Y-29449D01*
G01X20064Y-29079D02*
G01X20033Y-29015D01*
G01X19970Y-28954D01*
G01X19909Y-28924D01*
G01X19784D01*
G01X19723Y-28954D01*
G01X19660Y-29015D01*
G01X19630Y-29079D01*
G01X19599Y-29170D01*
G01Y-29325D01*
G01X19630Y-29419D01*
G01X19660Y-29480D01*
G01X19723Y-29543D01*
G01X19784Y-29574D01*
G01X19909D01*
G01X19970Y-29543D01*
G01X20033Y-29480D01*
G01X20064Y-29419D01*
G01X20673Y-28924D02*
G01X20366Y-29355D01*
G01X20828D01*
G01X20673Y-28924D02*
G01X20673Y-29574D01*
G01X22538Y-29079D02*
G01X22507Y-29015D01*
G01X22444Y-28954D01*
G01X22383Y-28924D01*
G01X22258D01*
G01X22197Y-28954D01*
G01X22134Y-29015D01*
G01X22103Y-29079D01*
G01X22073Y-29170D01*
G01Y-29325D01*
G01X22103Y-29419D01*
G01X22134Y-29480D01*
G01X22197Y-29543D01*
G01X22258Y-29574D01*
G01X22383D01*
G01X22444Y-29543D01*
G01X22507Y-29480D01*
G01X22538Y-29419D01*
G01X23211Y-28924D02*
G01X22901Y-28924D01*
G01X22871Y-29200D01*
G01X22901Y-29170D01*
G01X22992Y-29139D01*
G01X23086D01*
G01X23180Y-29170D01*
G01X23241Y-29233D01*
G01X23272Y-29325D01*
G01Y-29388D01*
G01X23241Y-29480D01*
G01X23180Y-29543D01*
G01X23086Y-29574D01*
G01X22992D01*
G01X22901Y-29543D01*
G01X22871Y-29510D01*
G01X22840Y-29449D01*
G01X24981Y-29079D02*
G01X24951Y-29015D01*
G01X24887Y-28954D01*
G01X24826Y-28924D01*
G01X24702D01*
G01X24641Y-28954D01*
G01X24577Y-29015D01*
G01X24547Y-29079D01*
G01X24516Y-29170D01*
G01Y-29325D01*
G01X24547Y-29419D01*
G01X24577Y-29480D01*
G01X24641Y-29543D01*
G01X24702Y-29574D01*
G01X24826D01*
G01X24887Y-29543D01*
G01X24951Y-29480D01*
G01X24981Y-29419D01*
G01X25654Y-29015D02*
G01X25624Y-28954D01*
G01X25530Y-28924D01*
G01X25469D01*
G01X25375Y-28954D01*
G01X25314Y-29048D01*
G01X25283Y-29200D01*
G01Y-29355D01*
G01X25314Y-29480D01*
G01X25375Y-29543D01*
G01X25469Y-29574D01*
G01X25499D01*
G01X25591Y-29543D01*
G01X25654Y-29480D01*
G01X25685Y-29388D01*
G01Y-29355D01*
G01X25654Y-29264D01*
G01X25591Y-29200D01*
G01X25499Y-29170D01*
G01X25469D01*
G01X25375Y-29200D01*
G01X25314Y-29264D01*
G01X25283Y-29355D01*
G01X27394Y-29079D02*
G01X27364Y-29015D01*
G01X27300Y-28954D01*
G01X27239Y-28924D01*
G01X27115D01*
G01X27054Y-28954D01*
G01X26990Y-29015D01*
G01X26960Y-29079D01*
G01X26929Y-29170D01*
G01Y-29325D01*
G01X26960Y-29419D01*
G01X26990Y-29480D01*
G01X27054Y-29543D01*
G01X27115Y-29574D01*
G01X27239D01*
G01X27300Y-29543D01*
G01X27364Y-29480D01*
G01X27394Y-29419D01*
G01X28128Y-28924D02*
G01X27818Y-29574D01*
G01X27696Y-28924D02*
G01X28128Y-28924D01*
G01X29838Y-29079D02*
G01X29807Y-29015D01*
G01X29744Y-28954D01*
G01X29683Y-28924D01*
G01X29558D01*
G01X29497Y-28954D01*
G01X29434Y-29015D01*
G01X29403Y-29079D01*
G01X29373Y-29170D01*
G01Y-29325D01*
G01X29403Y-29419D01*
G01X29434Y-29480D01*
G01X29497Y-29543D01*
G01X29558Y-29574D01*
G01X29683D01*
G01X29744Y-29543D01*
G01X29807Y-29480D01*
G01X29838Y-29419D01*
G01X30292Y-28924D02*
G01X30201Y-28954D01*
G01X30170Y-29015D01*
G01Y-29079D01*
G01X30201Y-29139D01*
G01X30262Y-29170D01*
G01X30386Y-29200D01*
G01X30480Y-29233D01*
G01X30541Y-29294D01*
G01X30572Y-29355D01*
G01Y-29449D01*
G01X30541Y-29510D01*
G01X30511Y-29543D01*
G01X30417Y-29574D01*
G01X30292D01*
G01X30201Y-29543D01*
G01X30170Y-29510D01*
G01X30140Y-29449D01*
G01Y-29355D01*
G01X30170Y-29294D01*
G01X30231Y-29233D01*
G01X30325Y-29200D01*
G01X30447Y-29170D01*
G01X30511Y-29139D01*
G01X30541Y-29079D01*
G01Y-29015D01*
G01X30511Y-28954D01*
G01X30417Y-28924D01*
G01X30292D01*
G01X32281Y-29079D02*
G01X32251Y-29015D01*
G01X32187Y-28954D01*
G01X32126Y-28924D01*
G01X32002D01*
G01X31941Y-28954D01*
G01X31877Y-29015D01*
G01X31847Y-29079D01*
G01X31816Y-29170D01*
G01Y-29325D01*
G01X31847Y-29419D01*
G01X31877Y-29480D01*
G01X31941Y-29543D01*
G01X32002Y-29574D01*
G01X32126D01*
G01X32187Y-29543D01*
G01X32251Y-29480D01*
G01X32281Y-29419D01*
G01X32985Y-29139D02*
G01X32954Y-29233D01*
G01X32891Y-29294D01*
G01X32799Y-29325D01*
G01X32769D01*
G01X32675Y-29294D01*
G01X32614Y-29233D01*
G01X32583Y-29139D01*
G01Y-29109D01*
G01X32614Y-29015D01*
G01X32675Y-28954D01*
G01X32769Y-28924D01*
G01X32799D01*
G01X32891Y-28954D01*
G01X32954Y-29015D01*
G01X32985Y-29139D01*
G01Y-29294D01*
G01X32954Y-29449D01*
G01X32891Y-29543D01*
G01X32799Y-29574D01*
G01X32736D01*
G01X32644Y-29543D01*
G01X32614Y-29480D01*
G01X34694Y-29079D02*
G01X34664Y-29015D01*
G01X34600Y-28954D01*
G01X34539Y-28924D01*
G01X34415D01*
G01X34354Y-28954D01*
G01X34290Y-29015D01*
G01X34260Y-29079D01*
G01X34229Y-29170D01*
G01Y-29325D01*
G01X34260Y-29419D01*
G01X34290Y-29480D01*
G01X34354Y-29543D01*
G01X34415Y-29574D01*
G01X34539D01*
G01X34600Y-29543D01*
G01X34664Y-29480D01*
G01X34694Y-29419D01*
G01X34996Y-29048D02*
G01X35057Y-29015D01*
G01X35149Y-28924D01*
G01Y-29574D01*
G01X35636Y-28924D02*
G01X35542Y-28954D01*
G01X35481Y-29048D01*
G01X35451Y-29200D01*
G01Y-29294D01*
G01X35481Y-29449D01*
G01X35542Y-29543D01*
G01X35636Y-29574D01*
G01X35697D01*
G01X35791Y-29543D01*
G01X35852Y-29449D01*
G01X35883Y-29294D01*
G01Y-29200D01*
G01X35852Y-29048D01*
G01X35791Y-28954D01*
G01X35697Y-28924D01*
G01X35636D01*
G01X37592Y-29079D02*
G01X37562Y-29015D01*
G01X37498Y-28954D01*
G01X37437Y-28924D01*
G01X37313D01*
G01X37252Y-28954D01*
G01X37188Y-29015D01*
G01X37158Y-29079D01*
G01X37127Y-29170D01*
G01Y-29325D01*
G01X37158Y-29419D01*
G01X37188Y-29480D01*
G01X37252Y-29543D01*
G01X37313Y-29574D01*
G01X37437D01*
G01X37498Y-29543D01*
G01X37562Y-29480D01*
G01X37592Y-29419D01*
G01X37894Y-29048D02*
G01X37955Y-29015D01*
G01X38047Y-28924D01*
G01Y-29574D01*
G01X38349Y-29048D02*
G01X38410Y-29015D01*
G01X38501Y-28924D01*
G01Y-29574D01*
G01X40211Y-29079D02*
G01X40180Y-29015D01*
G01X40117Y-28954D01*
G01X40056Y-28924D01*
G01X39931D01*
G01X39870Y-28954D01*
G01X39807Y-29015D01*
G01X39776Y-29079D01*
G01X39746Y-29170D01*
G01Y-29325D01*
G01X39776Y-29419D01*
G01X39807Y-29480D01*
G01X39870Y-29543D01*
G01X39931Y-29574D01*
G01X40056D01*
G01X40117Y-29543D01*
G01X40180Y-29480D01*
G01X40211Y-29419D01*
G01X40513Y-29048D02*
G01X40574Y-29015D01*
G01X40665Y-28924D01*
G01Y-29574D01*
G01X40998Y-29079D02*
G01X40998Y-29048D01*
G01X41029Y-28985D01*
G01X41059Y-28954D01*
G01X41120Y-28924D01*
G01X41245D01*
G01X41308Y-28954D01*
G01X41339Y-28985D01*
G01X41369Y-29048D01*
G01Y-29109D01*
G01X41339Y-29170D01*
G01X41275Y-29264D01*
G01X40968Y-29574D01*
G01X41400D01*
G01X43109Y-29079D02*
G01X43078Y-29015D01*
G01X43015Y-28954D01*
G01X42954Y-28924D01*
G01X42830D01*
G01X42769Y-28954D01*
G01X42705Y-29015D01*
G01X42675Y-29079D01*
G01X42644Y-29170D01*
G01Y-29325D01*
G01X42675Y-29419D01*
G01X42705Y-29480D01*
G01X42769Y-29543D01*
G01X42830Y-29574D01*
G01X42954D01*
G01X43015Y-29543D01*
G01X43078Y-29480D01*
G01X43109Y-29419D01*
G01X43411Y-29048D02*
G01X43472Y-29015D01*
G01X43564Y-28924D01*
G01Y-29574D01*
G01X43927Y-28924D02*
G01X44267Y-28924D01*
G01X44082Y-29170D01*
G01X44173D01*
G01X44237Y-29200D01*
G01X44267Y-29233D01*
G01X44298Y-29325D01*
G01Y-29388D01*
G01X44267Y-29480D01*
G01X44206Y-29543D01*
G01X44112Y-29574D01*
G01X44018D01*
G01X43927Y-29543D01*
G01X43896Y-29510D01*
G01X43866Y-29449D01*
G01X46007Y-29079D02*
G01X45977Y-29015D01*
G01X45913Y-28954D01*
G01X45852Y-28924D01*
G01X45728D01*
G01X45667Y-28954D01*
G01X45603Y-29015D01*
G01X45573Y-29079D01*
G01X45542Y-29170D01*
G01Y-29325D01*
G01X45573Y-29419D01*
G01X45603Y-29480D01*
G01X45667Y-29543D01*
G01X45728Y-29574D01*
G01X45852D01*
G01X45913Y-29543D01*
G01X45977Y-29480D01*
G01X46007Y-29419D01*
G01X46309Y-29048D02*
G01X46370Y-29015D01*
G01X46462Y-28924D01*
G01Y-29574D01*
G01X47071Y-28924D02*
G01X46764Y-29355D01*
G01X47226D01*
G01X47071Y-28924D02*
G01X47071Y-29574D01*
G01X60018Y965D02*
G01X60668Y965D01*
G01X60018Y965D02*
G01X60018Y1245D01*
G01X60048Y1336D01*
G01X60079Y1367D01*
G01X60142Y1400D01*
G01X60203D01*
G01X60264Y1367D01*
G01X60295Y1336D01*
G01X60328Y1245D01*
G01Y965D01*
G01X60328Y1181D02*
G01X60668Y1400D01*
G01X60018Y1887D02*
G01X60048Y1793D01*
G01X60142Y1732D01*
G01X60295Y1702D01*
G01X60389D01*
G01X60543Y1732D01*
G01X60637Y1793D01*
G01X60668Y1887D01*
G01Y1948D01*
G01X60637Y2042D01*
G01X60543Y2103D01*
G01X60389Y2134D01*
G01X60295D01*
G01X60142Y2103D01*
G01X60048Y2042D01*
G01X60018Y1948D01*
G01Y1887D01*
G01X60018Y-3861D02*
G01X60668Y-3861D01*
G01X60018Y-3861D02*
G01X60018Y-3581D01*
G01X60048Y-3490D01*
G01X60079Y-3459D01*
G01X60142Y-3426D01*
G01X60203D01*
G01X60264Y-3459D01*
G01X60295Y-3490D01*
G01X60328Y-3581D01*
G01Y-3861D01*
G01X60328Y-3645D02*
G01X60668Y-3426D01*
G01X60142Y-3124D02*
G01X60109Y-3063D01*
G01X60018Y-2972D01*
G01X60668D01*
G01X60018Y-8874D02*
G01X60668Y-8874D01*
G01X60018Y-8874D02*
G01X60018Y-8594D01*
G01X60048Y-8503D01*
G01X60079Y-8473D01*
G01X60142Y-8440D01*
G01X60203D01*
G01X60264Y-8473D01*
G01X60295Y-8503D01*
G01X60328Y-8594D01*
G01Y-8874D01*
G01X60328Y-8658D02*
G01X60668Y-8440D01*
G01X60173Y-8107D02*
G01X60142Y-8107D01*
G01X60079Y-8076D01*
G01X60048Y-8046D01*
G01X60018Y-7985D01*
G01Y-7860D01*
G01X60048Y-7797D01*
G01X60079Y-7766D01*
G01X60142Y-7736D01*
G01X60203D01*
G01X60264Y-7766D01*
G01X60358Y-7830D01*
G01X60668Y-8137D01*
G01Y-7705D01*
G01X60018Y-14200D02*
G01X60668Y-14200D01*
G01X60018Y-14200D02*
G01X60018Y-13921D01*
G01X60048Y-13829D01*
G01X60079Y-13799D01*
G01X60142Y-13766D01*
G01X60203D01*
G01X60264Y-13799D01*
G01X60295Y-13829D01*
G01X60328Y-13921D01*
G01Y-14200D01*
G01X60328Y-13984D02*
G01X60668Y-13766D01*
G01X60018Y-13402D02*
G01X60018Y-13062D01*
G01X60264Y-13248D01*
G01Y-13156D01*
G01X60295Y-13093D01*
G01X60328Y-13062D01*
G01X60419Y-13032D01*
G01X60482D01*
G01X60574Y-13062D01*
G01X60637Y-13123D01*
G01X60668Y-13217D01*
G01Y-13311D01*
G01X60637Y-13402D01*
G01X60604Y-13433D01*
G01X60543Y-13463D01*
G01X60018Y-19228D02*
G01X60668Y-19228D01*
G01X60018Y-19228D02*
G01X60018Y-18948D01*
G01X60048Y-18857D01*
G01X60079Y-18826D01*
G01X60142Y-18793D01*
G01X60203D01*
G01X60264Y-18826D01*
G01X60295Y-18857D01*
G01X60328Y-18948D01*
G01Y-19228D01*
G01X60328Y-19012D02*
G01X60668Y-18793D01*
G01X60018Y-18184D02*
G01X60449Y-18491D01*
G01Y-18029D01*
G01X60018Y-18184D02*
G01X60668Y-18184D01*
G01X60018Y-24435D02*
G01X60668Y-24435D01*
G01X60018Y-24435D02*
G01X60018Y-24155D01*
G01X60048Y-24064D01*
G01X60079Y-24033D01*
G01X60142Y-24000D01*
G01X60203D01*
G01X60264Y-24033D01*
G01X60295Y-24064D01*
G01X60328Y-24155D01*
G01Y-24435D01*
G01X60328Y-24219D02*
G01X60668Y-24000D01*
G01X60018Y-23327D02*
G01X60018Y-23637D01*
G01X60295Y-23668D01*
G01X60264Y-23637D01*
G01X60234Y-23546D01*
G01Y-23452D01*
G01X60264Y-23358D01*
G01X60328Y-23297D01*
G01X60419Y-23266D01*
G01X60482D01*
G01X60574Y-23297D01*
G01X60637Y-23358D01*
G01X60668Y-23452D01*
G01Y-23546D01*
G01X60637Y-23637D01*
G01X60604Y-23668D01*
G01X60543Y-23698D01*
G01X60018Y-29261D02*
G01X60668Y-29261D01*
G01X60018Y-29261D02*
G01X60018Y-28981D01*
G01X60048Y-28890D01*
G01X60079Y-28859D01*
G01X60142Y-28826D01*
G01X60203D01*
G01X60264Y-28859D01*
G01X60295Y-28890D01*
G01X60328Y-28981D01*
G01Y-29261D01*
G01X60328Y-29045D02*
G01X60668Y-28826D01*
G01X60109Y-28153D02*
G01X60048Y-28184D01*
G01X60018Y-28278D01*
G01Y-28339D01*
G01X60048Y-28433D01*
G01X60142Y-28494D01*
G01X60295Y-28524D01*
G01X60449D01*
G01X60574Y-28494D01*
G01X60637Y-28433D01*
G01X60668Y-28339D01*
G01Y-28308D01*
G01X60637Y-28217D01*
G01X60574Y-28153D01*
G01X60482Y-28123D01*
G01X60449D01*
G01X60358Y-28153D01*
G01X60295Y-28217D01*
G01X60264Y-28308D01*
G01Y-28339D01*
G01X60295Y-28433D01*
G01X60358Y-28494D01*
G01X60449Y-28524D01*
G36*
G01X59817Y-508D02*
G01X59817Y-799D01*
G01X60008D01*
G01Y-778D01*
G01X60009Y-768D01*
G01X60010Y-759D01*
G01X60011Y-755D01*
G01X60018Y-733D01*
G01X60021Y-724D01*
G01X60025Y-717D01*
G01X60039Y-695D01*
G01X60046Y-686D01*
G01X60049Y-682D01*
G01X60056Y-673D01*
G01X60060Y-668D01*
G01X60065Y-664D01*
G01X60072Y-659D01*
G01X60077Y-653D01*
G01X60085Y-648D01*
G01X60096Y-640D01*
G01X60104Y-633D01*
G01X60108Y-631D01*
G01X60118Y-626D01*
G01X60125Y-621D01*
G01X60131Y-618D01*
G01X60145Y-612D01*
G01X60153Y-608D01*
G01X60160Y-604D01*
G01X60167Y-601D01*
G01X60188Y-594D01*
G01X60210Y-588D01*
G01X60227Y-583D01*
G01X60235Y-581D01*
G01X60253Y-578D01*
G01X60263Y-577D01*
G01X60271Y-574D01*
G01X60281D01*
G01X60287Y-573D01*
G01X60293Y-571D01*
G01X60300Y-570D01*
G01X60311D01*
G01X60323D01*
G01X60328Y-569D01*
G01X60332Y-568D01*
G01X60333D01*
G01X60340Y-567D01*
G01X60389D01*
G01X60435D01*
G01X60444Y-568D01*
G01X60447Y-569D01*
G01X60451Y-570D01*
G01X60467D01*
G01X60484Y-572D01*
G01X60511Y-576D01*
G01X60532Y-579D01*
G01X60550Y-583D01*
G01X60557Y-584D01*
G01X60570Y-588D01*
G01X60584Y-590D01*
G01X60589Y-591D01*
G01X60593Y-593D01*
G01X60600Y-596D01*
G01X60607Y-599D01*
G01X60616Y-601D01*
G01X60620Y-602D01*
G01X60623Y-604D01*
G01X60627Y-606D01*
G01X60634Y-609D01*
G01X60651Y-615D01*
G01X60654Y-617D01*
G01X60662Y-622D01*
G01X60672Y-627D01*
G01X60678Y-631D01*
G01X60688Y-639D01*
G01X60706Y-650D01*
G01X60709Y-652D01*
G01X60713Y-655D01*
G01X60719Y-660D01*
G01X60724Y-664D01*
G01X60730Y-672D01*
G01X60734Y-676D01*
G01X60738Y-679D01*
G01X60742Y-682D01*
G01X60745Y-686D01*
G01X60749Y-690D01*
G01X60755Y-698D01*
G01X60757Y-702D01*
G01X60761Y-709D01*
G01X60770Y-725D01*
G01X60773Y-730D01*
G01X60777Y-740D01*
G01X60782Y-755D01*
G01Y-757D01*
G01X60783Y-767D01*
G01Y-796D01*
G01Y-822D01*
G01X60782Y-830D01*
G01Y-832D01*
G01Y-834D01*
G01X60780Y-837D01*
G01X60776Y-850D01*
G01X60770Y-867D01*
G01X60767Y-871D01*
G01X60764Y-877D01*
G01X60761Y-884D01*
G01X60756Y-891D01*
G01X60754Y-894D01*
G01X60751Y-897D01*
G01X60747Y-902D01*
G01X60741Y-912D01*
G01X60739Y-915D01*
G01X60736Y-918D01*
G01X60733Y-920D01*
G01X60728Y-924D01*
G01X60723Y-931D01*
G01X60718Y-936D01*
G01X60713Y-939D01*
G01X60706Y-945D01*
G01X60701Y-949D01*
G01X60687Y-958D01*
G01X60676Y-966D01*
G01X60671Y-969D01*
G01X60659Y-975D01*
G01X60652Y-980D01*
G01X60646Y-983D01*
G01X60639Y-986D01*
G01X60620Y-994D01*
G01X60603Y-1000D01*
G01X60581Y-1007D01*
G01X60563Y-1012D01*
G01X60557Y-1013D01*
G01X60540Y-1017D01*
G01X60532Y-1018D01*
G01X60523Y-1020D01*
G01X60513Y-1021D01*
G01X60507Y-1022D01*
G01X60501Y-1023D01*
G01X60495Y-1024D01*
G01X60477Y-1025D01*
G01X60473D01*
G01X60470Y-1026D01*
G01X60469D01*
G01X60461Y-1027D01*
G01X60401Y-1028D01*
G01X60343Y-1027D01*
G01X60334Y-1026D01*
G01X60329Y-1025D01*
G01X60322Y-1024D01*
G01X60311D01*
G01X60300Y-1023D01*
G01X60276Y-1019D01*
G01X60255Y-1015D01*
G01X60247Y-1013D01*
G01X60235Y-1010D01*
G01X60216Y-1007D01*
G01X60211Y-1006D01*
G01X60207Y-1004D01*
G01X60197Y-1000D01*
G01X60185Y-997D01*
G01X60177Y-995D01*
G01X60170Y-991D01*
G01X60150Y-982D01*
G01X60143Y-978D01*
G01X60137Y-975D01*
G01X60126Y-970D01*
G01X60120Y-967D01*
G01X60113Y-964D01*
G01X60105Y-958D01*
G01X60097Y-953D01*
G01X60083Y-943D01*
G01X60075Y-936D01*
G01X60068Y-931D01*
G01X60063Y-927D01*
G01X60058Y-919D01*
G01X60053Y-915D01*
G01X60050Y-912D01*
G01X60047Y-910D01*
G01X60043Y-905D01*
G01X60035Y-893D01*
G01X60027Y-882D01*
G01X60025Y-878D01*
G01X60023Y-874D01*
G01X60021Y-868D01*
G01X60015Y-851D01*
G01X60009Y-835D01*
G01Y-834D01*
G01X60008Y-824D01*
G01Y-799D01*
G01X59817D01*
G01Y-1616D01*
G01X60015D01*
G01Y-1474D01*
G01X60016Y-1327D01*
G01Y-1317D01*
G01X60017Y-1310D01*
G01X60019Y-1299D01*
G01X60021Y-1289D01*
G01X60025Y-1271D01*
G01X60026Y-1265D01*
G01X60027Y-1261D01*
G01X60031Y-1253D01*
G01X60034Y-1243D01*
G01X60037Y-1236D01*
G01X60042Y-1228D01*
G01X60047Y-1218D01*
G01X60051Y-1213D01*
G01X60053Y-1210D01*
G01X60057Y-1205D01*
G01X60064Y-1195D01*
G01X60069Y-1189D01*
G01X60075Y-1185D01*
G01X60090Y-1173D01*
G01X60094Y-1170D01*
G01X60098Y-1168D01*
G01X60109Y-1163D01*
G01X60122Y-1158D01*
G01X60130Y-1155D01*
G01X60142Y-1152D01*
G01X60150Y-1150D01*
G01X60159Y-1149D01*
G01X60188D01*
G01X60221Y-1150D01*
G01X60228D01*
G01X60231Y-1151D01*
G01X60257Y-1156D01*
G01X60286Y-1166D01*
G01X60295Y-1170D01*
G01X60299Y-1172D01*
G01X60314Y-1184D01*
G01X60321Y-1189D01*
G01X60327Y-1194D01*
G01X60334Y-1199D01*
G01X60338Y-1203D01*
G01X60342Y-1209D01*
G01X60349Y-1217D01*
G01X60354Y-1223D01*
G01X60373Y-1254D01*
G01X60375Y-1260D01*
G01X60378Y-1270D01*
G01X60382Y-1279D01*
G01X60384Y-1282D01*
G01X60385Y-1290D01*
G01Y-1296D01*
G01X60386Y-1299D01*
G01X60388Y-1301D01*
G01X60390Y-1303D01*
G01X60392D01*
G01X60393Y-1304D01*
G01X60395D01*
G01X60398Y-1303D01*
G01X60402Y-1302D01*
G01X60473Y-1274D01*
G01X60479Y-1271D01*
G01X60497Y-1263D01*
G01X60506Y-1260D01*
G01X60518Y-1255D01*
G01X60531Y-1249D01*
G01X60541Y-1246D01*
G01X60553Y-1242D01*
G01X60566Y-1235D01*
G01X60575Y-1232D01*
G01X60587Y-1227D01*
G01X60601Y-1222D01*
G01X60610Y-1218D01*
G01X60622Y-1214D01*
G01X60631Y-1210D01*
G01X60643Y-1204D01*
G01X60713Y-1177D01*
G01X60717Y-1174D01*
G01X60723Y-1171D01*
G01X60730Y-1168D01*
G01X60737Y-1163D01*
G01X60740Y-1160D01*
G01X60742Y-1157D01*
G01X60745Y-1152D01*
G01X60749Y-1146D01*
G01X60750Y-1142D01*
G01X60751Y-1137D01*
G01X60752Y-1121D01*
G01Y-1104D01*
G01X60777D01*
G01Y-1163D01*
G01X60776Y-1215D01*
G01X60775Y-1225D01*
G01Y-1227D01*
G01X60774Y-1228D01*
G01Y-1229D01*
G01X60773Y-1230D01*
G01X60768Y-1233D01*
G01X60762Y-1236D01*
G01X60745Y-1242D01*
G01X60733Y-1247D01*
G01X60721Y-1252D01*
G01X60711Y-1255D01*
G01X60703Y-1258D01*
G01X60692Y-1263D01*
G01X60664Y-1274D01*
G01X60645Y-1281D01*
G01X60627Y-1287D01*
G01X60616Y-1292D01*
G01X60603Y-1297D01*
G01X60593Y-1300D01*
G01X60586Y-1303D01*
G01X60574Y-1308D01*
G01X60563Y-1313D01*
G01X60546Y-1318D01*
G01X60527Y-1326D01*
G01X60510Y-1332D01*
G01X60498Y-1337D01*
G01X60485Y-1343D01*
G01X60472Y-1347D01*
G01X60454Y-1354D01*
G01X60437Y-1360D01*
G01X60426Y-1364D01*
G01X60412Y-1371D01*
G01X60402Y-1374D01*
G01X60392Y-1377D01*
G01Y-1478D01*
G01X60553D01*
G01X60695Y-1477D01*
G01X60721Y-1476D01*
G01X60723D01*
G01X60727Y-1475D01*
G01X60730Y-1474D01*
G01X60734Y-1473D01*
G01X60736Y-1471D01*
G01X60738Y-1470D01*
G01X60741Y-1468D01*
G01X60745Y-1463D01*
G01X60747Y-1459D01*
G01X60748Y-1456D01*
G01X60750Y-1451D01*
G01X60751Y-1444D01*
G01X60752Y-1438D01*
G01Y-1412D01*
G01X60777D01*
G01Y-1616D01*
G01X60752D01*
G01Y-1601D01*
G01Y-1593D01*
G01X60751Y-1586D01*
G01X60750Y-1579D01*
G01X60749Y-1573D01*
G01X60748Y-1570D01*
G01X60746Y-1565D01*
G01X60743Y-1561D01*
G01X60741Y-1559D01*
G01X60736Y-1555D01*
G01X60735D01*
G01X60730Y-1554D01*
G01X60717Y-1553D01*
G01X60399Y-1550D01*
G01X60085Y-1552D01*
G01X60062Y-1553D01*
G01X60059Y-1554D01*
G01X60055Y-1556D01*
G01X60051Y-1558D01*
G01X60048Y-1560D01*
G01X60046Y-1563D01*
G01X60043Y-1568D01*
G01X60041Y-1573D01*
G01X60040Y-1575D01*
G01X60039Y-1583D01*
G01X60038Y-1597D01*
G01Y-1616D01*
G01X60015D01*
G01X59817D01*
G01Y-1651D01*
G01X60960D01*
G01Y-508D01*
G37*
G36*
G01X60399Y-653D02*
G01X60343Y-654D01*
G01X60334Y-655D01*
G01X60332D01*
G01X60331D01*
G01X60326Y-656D01*
G01X60320Y-657D01*
G01X60309D01*
G01X60295D01*
G01X60289Y-658D01*
G01X60280Y-660D01*
G01X60268D01*
G01X60262Y-661D01*
G01X60214Y-669D01*
G01X60206Y-671D01*
G01X60193Y-674D01*
G01X60174Y-678D01*
G01X60169Y-679D01*
G01X60165Y-680D01*
G01X60156Y-684D01*
G01X60144Y-687D01*
G01X60136Y-690D01*
G01X60128Y-693D01*
G01X60112Y-701D01*
G01X60106Y-704D01*
G01X60099Y-707D01*
G01X60092Y-712D01*
G01X60089Y-714D01*
G01X60086Y-717D01*
G01X60083Y-719D01*
G01X60074Y-724D01*
G01X60070Y-726D01*
G01X60066Y-732D01*
G01X60055Y-747D01*
G01X60052Y-753D01*
G01X60049Y-761D01*
G01X60045Y-770D01*
G01X60043Y-778D01*
G01X60042Y-785D01*
G01X60043Y-796D01*
G01X60044Y-808D01*
G01X60045Y-813D01*
G01X60046Y-818D01*
G01X60048Y-822D01*
G01X60051Y-828D01*
G01X60053Y-834D01*
G01X60055Y-840D01*
G01X60057Y-843D01*
G01X60059Y-845D01*
G01X60064Y-849D01*
G01X60068Y-853D01*
G01X60071Y-858D01*
G01X60075Y-862D01*
G01X60078Y-865D01*
G01X60082Y-868D01*
G01X60090Y-874D01*
G01X60094Y-877D01*
G01X60101Y-880D01*
G01X60106Y-884D01*
G01X60109Y-886D01*
G01X60111Y-888D01*
G01X60116Y-891D01*
G01X60126Y-895D01*
G01X60143Y-902D01*
G01X60153Y-906D01*
G01X60159Y-908D01*
G01X60163Y-911D01*
G01X60166Y-912D01*
G01X60172Y-914D01*
G01X60180Y-916D01*
G01X60196Y-920D01*
G01X60214Y-926D01*
G01X60221Y-927D01*
G01X60239Y-930D01*
G01X60249Y-932D01*
G01X60257Y-934D01*
G01X60267D01*
G01X60273Y-935D01*
G01X60279Y-937D01*
G01X60285D01*
G01X60304Y-938D01*
G01X60308D01*
G01X60311Y-939D01*
G01X60312D01*
G01X60319Y-940D01*
G01X60389Y-941D01*
G01X60453Y-940D01*
G01X60464D01*
G01X60466Y-939D01*
G01X60470Y-938D01*
G01X60476D01*
G01X60497Y-937D01*
G01X60501D01*
G01X60504Y-936D01*
G01X60510Y-934D01*
G01X60517D01*
G01X60526Y-933D01*
G01X60553Y-929D01*
G01X60559Y-928D01*
G01X60567Y-926D01*
G01X60577Y-924D01*
G01X60596Y-920D01*
G01X60601Y-919D01*
G01X60605Y-917D01*
G01X60614Y-914D01*
G01X60627Y-910D01*
G01X60634Y-908D01*
G01X60641Y-905D01*
G01X60661Y-896D01*
G01X60669Y-892D01*
G01X60675Y-888D01*
G01X60685Y-884D01*
G01X60691Y-880D01*
G01X60694Y-878D01*
G01X60698Y-875D01*
G01X60707Y-870D01*
G01X60712Y-866D01*
G01X60716Y-861D01*
G01X60720Y-856D01*
G01X60727Y-850D01*
G01X60731Y-846D01*
G01X60736Y-839D01*
G01X60739Y-836D01*
G01X60740Y-835D01*
G01X60741Y-834D01*
G01X60742Y-830D01*
G01X60745Y-818D01*
G01X60746Y-812D01*
G01X60747Y-811D01*
G01Y-810D01*
G01X60748Y-808D01*
G01X60749Y-804D01*
G01Y-789D01*
G01X60748Y-782D01*
G01X60747Y-777D01*
G01X60745Y-771D01*
G01X60744Y-766D01*
G01X60742Y-761D01*
G01X60739Y-756D01*
G01X60736Y-752D01*
G01X60732Y-745D01*
G01X60730Y-742D01*
G01X60724Y-736D01*
G01X60719Y-729D01*
G01X60715Y-724D01*
G01X60697Y-712D01*
G01X60692Y-708D01*
G01X60680Y-702D01*
G01X60673Y-697D01*
G01X60666Y-694D01*
G01X60659Y-691D01*
G01X60601Y-673D01*
G01X60595Y-671D01*
G01X60578Y-668D01*
G01X60570Y-666D01*
G01X60561Y-664D01*
G01X60552D01*
G01X60545Y-663D01*
G01X60540Y-661D01*
G01X60533Y-660D01*
G01X60521D01*
G01X60515Y-659D01*
G01X60512Y-658D01*
G01X60505Y-657D01*
G01X60486D01*
G01X60475Y-656D01*
G01X60468D01*
G01X60465Y-655D01*
G01X60458Y-654D01*
G37*
G36*
G01X60207Y-1225D02*
G01X60186Y-1225D01*
G01X60177Y-1226D01*
G01X60173Y-1227D01*
G01X60167Y-1228D01*
G01X60157Y-1229D01*
G01X60153Y-1230D01*
G01X60144Y-1232D01*
G01X60133Y-1235D01*
G01X60123Y-1239D01*
G01X60116Y-1242D01*
G01X60113Y-1244D01*
G01X60104Y-1249D01*
G01X60094Y-1255D01*
G01X60091Y-1257D01*
G01X60089Y-1259D01*
G01X60087Y-1261D01*
G01X60083Y-1266D01*
G01X60076Y-1272D01*
G01X60072Y-1276D01*
G01X60068Y-1281D01*
G01X60062Y-1288D01*
G01X60060Y-1291D01*
G01X60058Y-1295D01*
G01X60055Y-1301D01*
G01X60049Y-1318D01*
G01X60044Y-1334D01*
G01X60043Y-1340D01*
G01X60042Y-1350D01*
G01X60041Y-1356D01*
G01X60040Y-1360D01*
G01X60039Y-1370D01*
G01X60038Y-1398D01*
G01X60039Y-1414D01*
G01X60040Y-1438D01*
G01X60041Y-1445D01*
G01X60042Y-1451D01*
G01X60043Y-1456D01*
G01X60047Y-1464D01*
G01X60053Y-1470D01*
G01X60058Y-1474D01*
G01Y-1475D01*
G01X60059D01*
G01X60063D01*
G01X60074Y-1476D01*
G01X60214Y-1478D01*
G01X60363Y-1476D01*
G01X60366D01*
G01X60367Y-1474D01*
G01Y-1467D01*
G01X60368Y-1427D01*
G01X60367Y-1385D01*
G01X60366Y-1378D01*
G01Y-1376D01*
G01X60365Y-1373D01*
G01X60364Y-1365D01*
G01Y-1355D01*
G01Y-1349D01*
G01X60362Y-1344D01*
G01X60361Y-1338D01*
G01X60354Y-1315D01*
G01X60350Y-1305D01*
G01X60348Y-1300D01*
G01X60345Y-1296D01*
G01X60340Y-1289D01*
G01X60338Y-1286D01*
G01X60333Y-1280D01*
G01X60328Y-1270D01*
G01X60323Y-1265D01*
G01X60318Y-1261D01*
G01X60303Y-1250D01*
G01X60299Y-1247D01*
G01X60294Y-1244D01*
G01X60283Y-1240D01*
G01X60272Y-1234D01*
G01X60266Y-1232D01*
G01X60261Y-1231D01*
G01X60249Y-1229D01*
G01X60241Y-1227D01*
G01X60235Y-1226D01*
G01X60227Y-1225D01*
G37*
G36*
G01X59817Y-5334D02*
G01X59817Y-5593D01*
G01X60004D01*
G01Y-5580D01*
G01X60349D01*
G01X60678Y-5578D01*
G01X60701Y-5577D01*
G01X60703Y-5576D01*
G01X60709Y-5575D01*
G01X60714Y-5573D01*
G01X60723Y-5568D01*
G01X60727Y-5565D01*
G01X60733Y-5560D01*
G01X60735Y-5558D01*
G01X60743Y-5546D01*
G01X60744Y-5543D01*
G01X60746Y-5537D01*
G01X60749Y-5526D01*
G01X60751Y-5517D01*
G01X60752Y-5509D01*
G01Y-5483D01*
G01Y-5452D01*
G01X60777D01*
G01Y-5777D01*
G01X60752D01*
G01Y-5753D01*
G01Y-5734D01*
G01X60751Y-5725D01*
G01X60750Y-5721D01*
G01X60749Y-5715D01*
G01Y-5708D01*
G01X60748Y-5705D01*
G01X60747Y-5701D01*
G01X60737Y-5680D01*
G01X60735Y-5676D01*
G01X60732Y-5672D01*
G01X60728Y-5668D01*
G01X60722Y-5663D01*
G01X60718Y-5661D01*
G01X60714Y-5659D01*
G01X60711Y-5658D01*
G01X60698Y-5655D01*
G01X60695Y-5654D01*
G01X60419Y-5653D01*
G01X60140Y-5654D01*
G01X60138Y-5655D01*
G01X60133Y-5656D01*
G01X60126Y-5657D01*
G01X60120Y-5660D01*
G01X60116Y-5662D01*
G01X60112Y-5664D01*
G01X60109Y-5668D01*
G01X60106Y-5672D01*
G01Y-5673D01*
G01X60105Y-5676D01*
G01X60103Y-5682D01*
G01X60102Y-5689D01*
G01X60101Y-5700D01*
G01Y-5729D01*
G01Y-5777D01*
G01X60074D01*
G01X60073Y-5737D01*
G01Y-5714D01*
G01X60072Y-5708D01*
G01Y-5706D01*
G01X60070Y-5699D01*
G01X60067Y-5683D01*
G01X60066Y-5678D01*
G01X60064Y-5673D01*
G01X60063Y-5668D01*
G01X60060Y-5662D01*
G01X60056Y-5653D01*
G01X60054Y-5649D01*
G01X60051Y-5644D01*
G01X60038Y-5626D01*
G01X60034Y-5621D01*
G01X60030Y-5618D01*
G01X60027Y-5614D01*
G01X60018Y-5608D01*
G01X60015Y-5606D01*
G01X60010Y-5603D01*
G01X60008Y-5602D01*
G01X60006Y-5599D01*
G01X60005Y-5597D01*
G01X60004Y-5595D01*
G01Y-5593D01*
G01X59817D01*
G01Y-6442D01*
G01X60015D01*
G01Y-6300D01*
G01X60016Y-6153D01*
G01Y-6143D01*
G01X60017Y-6136D01*
G01X60019Y-6125D01*
G01X60021Y-6115D01*
G01X60025Y-6097D01*
G01X60026Y-6091D01*
G01X60027Y-6087D01*
G01X60031Y-6079D01*
G01X60034Y-6069D01*
G01X60037Y-6062D01*
G01X60042Y-6054D01*
G01X60047Y-6044D01*
G01X60051Y-6039D01*
G01X60053Y-6036D01*
G01X60057Y-6031D01*
G01X60064Y-6021D01*
G01X60069Y-6015D01*
G01X60075Y-6011D01*
G01X60090Y-5999D01*
G01X60094Y-5996D01*
G01X60098Y-5994D01*
G01X60109Y-5989D01*
G01X60122Y-5984D01*
G01X60130Y-5981D01*
G01X60142Y-5978D01*
G01X60150Y-5976D01*
G01X60159Y-5975D01*
G01X60188D01*
G01X60221Y-5976D01*
G01X60228D01*
G01X60231Y-5977D01*
G01X60257Y-5982D01*
G01X60286Y-5992D01*
G01X60295Y-5996D01*
G01X60299Y-5998D01*
G01X60314Y-6010D01*
G01X60321Y-6015D01*
G01X60327Y-6020D01*
G01X60334Y-6025D01*
G01X60338Y-6029D01*
G01X60342Y-6035D01*
G01X60349Y-6043D01*
G01X60354Y-6049D01*
G01X60373Y-6080D01*
G01X60375Y-6086D01*
G01X60378Y-6096D01*
G01X60382Y-6105D01*
G01X60384Y-6108D01*
G01X60385Y-6116D01*
G01Y-6122D01*
G01X60386Y-6125D01*
G01X60388Y-6127D01*
G01X60390Y-6129D01*
G01X60392D01*
G01X60393Y-6130D01*
G01X60395D01*
G01X60398Y-6129D01*
G01X60402Y-6128D01*
G01X60473Y-6100D01*
G01X60479Y-6097D01*
G01X60497Y-6089D01*
G01X60506Y-6086D01*
G01X60518Y-6081D01*
G01X60531Y-6075D01*
G01X60541Y-6072D01*
G01X60553Y-6068D01*
G01X60566Y-6061D01*
G01X60575Y-6058D01*
G01X60587Y-6053D01*
G01X60601Y-6048D01*
G01X60610Y-6044D01*
G01X60622Y-6040D01*
G01X60631Y-6036D01*
G01X60643Y-6030D01*
G01X60713Y-6003D01*
G01X60717Y-6000D01*
G01X60723Y-5997D01*
G01X60730Y-5994D01*
G01X60737Y-5989D01*
G01X60740Y-5986D01*
G01X60742Y-5983D01*
G01X60745Y-5978D01*
G01X60749Y-5972D01*
G01X60750Y-5968D01*
G01X60751Y-5963D01*
G01X60752Y-5947D01*
G01Y-5930D01*
G01X60777D01*
G01Y-5989D01*
G01X60776Y-6041D01*
G01X60775Y-6051D01*
G01Y-6053D01*
G01X60774Y-6054D01*
G01Y-6055D01*
G01X60773Y-6056D01*
G01X60768Y-6059D01*
G01X60762Y-6062D01*
G01X60745Y-6068D01*
G01X60733Y-6073D01*
G01X60721Y-6078D01*
G01X60711Y-6081D01*
G01X60703Y-6084D01*
G01X60692Y-6089D01*
G01X60664Y-6100D01*
G01X60645Y-6107D01*
G01X60627Y-6113D01*
G01X60616Y-6118D01*
G01X60603Y-6123D01*
G01X60593Y-6126D01*
G01X60586Y-6129D01*
G01X60574Y-6134D01*
G01X60563Y-6139D01*
G01X60546Y-6144D01*
G01X60527Y-6152D01*
G01X60510Y-6158D01*
G01X60498Y-6163D01*
G01X60485Y-6169D01*
G01X60472Y-6173D01*
G01X60454Y-6180D01*
G01X60437Y-6186D01*
G01X60426Y-6190D01*
G01X60412Y-6197D01*
G01X60402Y-6200D01*
G01X60392Y-6203D01*
G01Y-6304D01*
G01X60553D01*
G01X60695Y-6303D01*
G01X60721Y-6302D01*
G01X60723D01*
G01X60727Y-6301D01*
G01X60730Y-6300D01*
G01X60734Y-6299D01*
G01X60736Y-6297D01*
G01X60738Y-6296D01*
G01X60741Y-6294D01*
G01X60745Y-6289D01*
G01X60747Y-6285D01*
G01X60748Y-6282D01*
G01X60750Y-6277D01*
G01X60751Y-6270D01*
G01X60752Y-6264D01*
G01Y-6238D01*
G01X60777D01*
G01Y-6442D01*
G01X60752D01*
G01Y-6427D01*
G01Y-6419D01*
G01X60751Y-6412D01*
G01X60750Y-6405D01*
G01X60749Y-6399D01*
G01X60748Y-6396D01*
G01X60746Y-6391D01*
G01X60743Y-6387D01*
G01X60741Y-6385D01*
G01X60736Y-6381D01*
G01X60735D01*
G01X60730Y-6380D01*
G01X60717Y-6379D01*
G01X60399Y-6376D01*
G01X60085Y-6378D01*
G01X60062Y-6379D01*
G01X60059Y-6380D01*
G01X60055Y-6382D01*
G01X60051Y-6384D01*
G01X60048Y-6386D01*
G01X60046Y-6389D01*
G01X60043Y-6394D01*
G01X60041Y-6399D01*
G01X60040Y-6401D01*
G01X60039Y-6409D01*
G01X60038Y-6423D01*
G01Y-6442D01*
G01X60015D01*
G01X59817D01*
G01Y-6477D01*
G01X60960D01*
G01Y-5334D01*
G37*
G36*
G01X60207Y-6051D02*
G01X60186Y-6051D01*
G01X60177Y-6052D01*
G01X60173Y-6053D01*
G01X60167Y-6054D01*
G01X60157Y-6055D01*
G01X60153Y-6056D01*
G01X60144Y-6058D01*
G01X60133Y-6061D01*
G01X60123Y-6065D01*
G01X60116Y-6068D01*
G01X60113Y-6070D01*
G01X60104Y-6075D01*
G01X60094Y-6081D01*
G01X60091Y-6083D01*
G01X60089Y-6085D01*
G01X60087Y-6087D01*
G01X60083Y-6092D01*
G01X60076Y-6098D01*
G01X60072Y-6102D01*
G01X60068Y-6107D01*
G01X60062Y-6114D01*
G01X60060Y-6117D01*
G01X60058Y-6121D01*
G01X60055Y-6127D01*
G01X60049Y-6144D01*
G01X60044Y-6160D01*
G01X60043Y-6166D01*
G01X60042Y-6176D01*
G01X60041Y-6182D01*
G01X60040Y-6186D01*
G01X60039Y-6196D01*
G01X60038Y-6224D01*
G01X60039Y-6240D01*
G01X60040Y-6264D01*
G01X60041Y-6271D01*
G01X60042Y-6277D01*
G01X60043Y-6282D01*
G01X60047Y-6290D01*
G01X60053Y-6296D01*
G01X60058Y-6300D01*
G01Y-6301D01*
G01X60059D01*
G01X60063D01*
G01X60074Y-6302D01*
G01X60214Y-6304D01*
G01X60363Y-6302D01*
G01X60366D01*
G01X60367Y-6300D01*
G01Y-6293D01*
G01X60368Y-6253D01*
G01X60367Y-6211D01*
G01X60366Y-6204D01*
G01Y-6202D01*
G01X60365Y-6199D01*
G01X60364Y-6191D01*
G01Y-6181D01*
G01Y-6175D01*
G01X60362Y-6170D01*
G01X60361Y-6164D01*
G01X60354Y-6141D01*
G01X60350Y-6131D01*
G01X60348Y-6126D01*
G01X60345Y-6122D01*
G01X60340Y-6115D01*
G01X60338Y-6112D01*
G01X60333Y-6106D01*
G01X60328Y-6096D01*
G01X60323Y-6091D01*
G01X60318Y-6087D01*
G01X60303Y-6076D01*
G01X60299Y-6073D01*
G01X60294Y-6070D01*
G01X60283Y-6066D01*
G01X60272Y-6060D01*
G01X60266Y-6058D01*
G01X60261Y-6057D01*
G01X60249Y-6055D01*
G01X60241Y-6053D01*
G01X60235Y-6052D01*
G01X60227Y-6051D01*
G37*
G36*
G01X59817Y-10347D02*
G01X59817Y-10643D01*
G01X60008D01*
G01Y-10639D01*
G01X60009Y-10606D01*
G01Y-10595D01*
G01X60010Y-10588D01*
G01X60012Y-10577D01*
G01X60015Y-10567D01*
G01X60017Y-10553D01*
G01X60018Y-10549D01*
G01X60020Y-10545D01*
G01X60023Y-10537D01*
G01X60032Y-10518D01*
G01X60044Y-10498D01*
G01X60047Y-10494D01*
G01X60049Y-10490D01*
G01X60052Y-10488D01*
G01X60054Y-10486D01*
G01X60059Y-10482D01*
G01X60065Y-10474D01*
G01X60069Y-10470D01*
G01X60087Y-10457D01*
G01X60092Y-10454D01*
G01X60112Y-10444D01*
G01X60115Y-10442D01*
G01X60122Y-10440D01*
G01X60130Y-10437D01*
G01X60150Y-10431D01*
G01X60156Y-10430D01*
G01X60168D01*
G01X60185Y-10428D01*
G01X60193D01*
G01X60196D01*
G01X60200Y-10429D01*
G01X60206Y-10430D01*
G01X60224Y-10431D01*
G01X60228D01*
G01X60231Y-10432D01*
G01X60238Y-10434D01*
G01X60252Y-10436D01*
G01X60259Y-10438D01*
G01X60270Y-10441D01*
G01X60286Y-10448D01*
G01X60292Y-10450D01*
G01X60302Y-10455D01*
G01X60319Y-10463D01*
G01X60332Y-10470D01*
G01X60339Y-10475D01*
G01X60341Y-10477D01*
G01X60344Y-10480D01*
G01X60348Y-10482D01*
G01X60357Y-10488D01*
G01X60360Y-10490D01*
G01X60362Y-10492D01*
G01X60365Y-10496D01*
G01X60368Y-10498D01*
G01X60372Y-10502D01*
G01X60380Y-10507D01*
G01X60384Y-10510D01*
G01X60386Y-10513D01*
G01X60391Y-10518D01*
G01X60395Y-10522D01*
G01X60400Y-10526D01*
G01X60402Y-10528D01*
G01X60403Y-10530D01*
G01X60405Y-10535D01*
G01X60407Y-10537D01*
G01X60409Y-10539D01*
G01X60418Y-10547D01*
G01X60424Y-10554D01*
G01X60431Y-10560D01*
G01X60435Y-10564D01*
G01X60441Y-10572D01*
G01X60448Y-10578D01*
G01X60453Y-10582D01*
G01X60458Y-10589D01*
G01X60465Y-10595D01*
G01X60470Y-10599D01*
G01X60475Y-10607D01*
G01X60483Y-10612D01*
G01X60487Y-10617D01*
G01X60493Y-10624D01*
G01X60500Y-10629D01*
G01X60504Y-10634D01*
G01X60510Y-10641D01*
G01X60518Y-10647D01*
G01X60522Y-10651D01*
G01X60528Y-10658D01*
G01X60535Y-10664D01*
G01X60539Y-10669D01*
G01X60542Y-10672D01*
G01X60544Y-10675D01*
G01X60549Y-10679D01*
G01X60557Y-10684D01*
G01X60560Y-10686D01*
G01X60563Y-10689D01*
G01X60565Y-10692D01*
G01X60569Y-10696D01*
G01X60576Y-10702D01*
G01X60581Y-10707D01*
G01X60586Y-10714D01*
G01X60591Y-10718D01*
G01X60598Y-10723D01*
G01X60604Y-10728D01*
G01X60611Y-10734D01*
G01X60615Y-10738D01*
G01X60619Y-10743D01*
G01X60622Y-10745D01*
G01X60624Y-10747D01*
G01X60631Y-10751D01*
G01X60636Y-10755D01*
G01X60640Y-10760D01*
G01X60642Y-10762D01*
G01X60644Y-10764D01*
G01X60649Y-10766D01*
G01X60651Y-10767D01*
G01X60655Y-10771D01*
G01X60659Y-10776D01*
G01X60664Y-10780D01*
G01X60670Y-10785D01*
G01X60677Y-10790D01*
G01X60679Y-10791D01*
G01X60684Y-10793D01*
G01X60686Y-10794D01*
G01X60688Y-10797D01*
G01X60691Y-10800D01*
G01X60692Y-10802D01*
G01X60693Y-10803D01*
G01X60696Y-10804D01*
G01X60700Y-10806D01*
G01X60711Y-10808D01*
G01Y-10673D01*
G01X60710Y-10578D01*
G01X60709Y-10534D01*
G01X60708Y-10527D01*
G01X60705Y-10520D01*
G01X60703Y-10515D01*
G01X60702Y-10511D01*
G01X60693Y-10498D01*
G01X60691Y-10495D01*
G01X60687Y-10491D01*
G01X60680Y-10485D01*
G01X60676Y-10481D01*
G01X60674Y-10478D01*
G01X60671Y-10475D01*
G01X60668Y-10473D01*
G01X60656Y-10468D01*
G01X60649Y-10464D01*
G01X60634Y-10458D01*
G01X60619Y-10453D01*
G01X60612Y-10451D01*
G01X60600Y-10449D01*
G01X60594Y-10448D01*
G01X60591Y-10447D01*
G01X60589Y-10446D01*
G01X60588Y-10444D01*
G01X60587Y-10443D01*
G01X60586Y-10441D01*
G01Y-10431D01*
G01X60588Y-10425D01*
G01X60589Y-10423D01*
G01X60590Y-10422D01*
G01X60592Y-10421D01*
G01X60595Y-10422D01*
G01X60596D01*
G01X60601Y-10423D01*
G01X60613D01*
G01X60620Y-10424D01*
G01X60628Y-10426D01*
G01X60638Y-10427D01*
G01X60644Y-10428D01*
G01X60652Y-10430D01*
G01X60662D01*
G01X60668Y-10431D01*
G01X60677Y-10433D01*
G01X60686Y-10434D01*
G01X60692Y-10435D01*
G01X60700Y-10437D01*
G01X60711D01*
G01X60717Y-10438D01*
G01X60725Y-10440D01*
G01X60735Y-10441D01*
G01X60741D01*
G01X60747Y-10443D01*
G01X60753Y-10444D01*
G01X60777D01*
G01Y-10863D01*
G01X60749D01*
G01X60736D01*
G01X60726Y-10862D01*
G01X60722Y-10861D01*
G01X60715Y-10859D01*
G01X60713Y-10858D01*
G01X60686Y-10842D01*
G01X60678Y-10836D01*
G01X60673Y-10832D01*
G01X60664Y-10825D01*
G01X60657Y-10820D01*
G01X60653Y-10816D01*
G01X60651Y-10815D01*
G01X60649Y-10814D01*
G01X60644Y-10812D01*
G01X60642Y-10810D01*
G01X60640Y-10808D01*
G01X60636Y-10804D01*
G01X60634Y-10802D01*
G01X60632Y-10800D01*
G01X60627Y-10798D01*
G01X60624Y-10797D01*
G01X60622Y-10794D01*
G01X60620Y-10791D01*
G01X60617Y-10788D01*
G01X60613Y-10784D01*
G01X60604Y-10779D01*
G01X60601Y-10777D01*
G01X60598Y-10774D01*
G01X60596Y-10771D01*
G01X60594Y-10769D01*
G01X60592Y-10767D01*
G01X60589Y-10765D01*
G01X60583Y-10761D01*
G01X60580Y-10759D01*
G01X60577Y-10756D01*
G01X60575Y-10754D01*
G01X60572Y-10749D01*
G01X60564Y-10744D01*
G01X60560Y-10739D01*
G01X60557Y-10736D01*
G01X60555Y-10733D01*
G01X60550Y-10729D01*
G01X60542Y-10724D01*
G01X60539Y-10721D01*
G01X60536Y-10718D01*
G01X60534Y-10716D01*
G01X60530Y-10711D01*
G01X60523Y-10706D01*
G01X60519Y-10701D01*
G01X60513Y-10694D01*
G01X60505Y-10688D01*
G01X60501Y-10684D01*
G01X60496Y-10677D01*
G01X60488Y-10671D01*
G01X60484Y-10666D01*
G01X60478Y-10659D01*
G01X60471Y-10653D01*
G01X60467Y-10649D01*
G01X60464Y-10645D01*
G01X60460Y-10641D01*
G01X60457Y-10638D01*
G01X60448Y-10631D01*
G01X60439Y-10624D01*
G01X60434Y-10620D01*
G01X60428Y-10613D01*
G01X60424Y-10609D01*
G01X60419Y-10605D01*
G01X60411Y-10598D01*
G01X60404Y-10593D01*
G01X60397Y-10588D01*
G01X60392Y-10583D01*
G01X60369Y-10566D01*
G01X60359Y-10560D01*
G01X60342Y-10550D01*
G01X60327Y-10540D01*
G01X60320Y-10537D01*
G01X60308Y-10531D01*
G01X60295Y-10526D01*
G01X60288Y-10523D01*
G01X60278Y-10520D01*
G01X60267Y-10515D01*
G01X60263Y-10514D01*
G01X60258Y-10513D01*
G01X60249Y-10511D01*
G01X60241Y-10509D01*
G01X60238Y-10508D01*
G01X60236Y-10507D01*
G01X60226D01*
G01X60203Y-10506D01*
G01X60180Y-10507D01*
G01X60170D01*
G01X60168Y-10508D01*
G01X60161Y-10510D01*
G01X60141Y-10513D01*
G01X60135Y-10514D01*
G01X60129Y-10515D01*
G01X60122Y-10519D01*
G01X60106Y-10526D01*
G01X60099Y-10529D01*
G01X60092Y-10532D01*
G01X60085Y-10537D01*
G01X60082Y-10539D01*
G01X60079Y-10543D01*
G01X60070Y-10549D01*
G01X60067Y-10551D01*
G01X60064Y-10556D01*
G01X60061Y-10560D01*
G01X60052Y-10576D01*
G01X60048Y-10583D01*
G01X60046Y-10590D01*
G01X60040Y-10608D01*
G01X60039Y-10614D01*
G01X60038Y-10624D01*
G01X60036Y-10632D01*
G01X60035Y-10638D01*
G01Y-10645D01*
G01X60036Y-10651D01*
G01X60037Y-10656D01*
G01X60038Y-10663D01*
G01X60039Y-10672D01*
G01X60040Y-10677D01*
G01X60041Y-10682D01*
G01X60042Y-10688D01*
G01X60046Y-10699D01*
G01X60049Y-10709D01*
G01X60051Y-10713D01*
G01X60058Y-10726D01*
G01X60062Y-10734D01*
G01X60064Y-10737D01*
G01X60070Y-10742D01*
G01X60074Y-10748D01*
G01X60078Y-10753D01*
G01X60082Y-10756D01*
G01X60085Y-10759D01*
G01X60090Y-10762D01*
G01X60094Y-10766D01*
G01X60103Y-10770D01*
G01X60117Y-10775D01*
G01X60120Y-10776D01*
G01X60126D01*
G01X60136Y-10777D01*
G01X60149Y-10776D01*
G01X60154Y-10775D01*
G01X60160Y-10773D01*
G01X60164Y-10771D01*
G01X60169Y-10770D01*
G01X60172Y-10768D01*
G01X60175Y-10765D01*
G01X60180Y-10761D01*
G01X60186Y-10757D01*
G01X60192Y-10754D01*
G01X60202Y-10749D01*
G01X60205Y-10747D01*
G01X60208Y-10746D01*
G01X60215Y-10745D01*
G01X60224Y-10746D01*
G01X60231Y-10747D01*
G01X60235Y-10748D01*
G01X60243Y-10751D01*
G01X60248Y-10753D01*
G01X60254Y-10758D01*
G01X60257Y-10762D01*
G01X60259Y-10766D01*
G01X60262Y-10771D01*
G01X60263Y-10777D01*
G01X60264Y-10784D01*
G01Y-10790D01*
G01Y-10799D01*
G01X60263Y-10805D01*
G01X60262Y-10811D01*
G01X60260Y-10815D01*
G01X60253Y-10829D01*
G01X60249Y-10835D01*
G01X60246Y-10837D01*
G01X60243Y-10839D01*
G01X60228Y-10846D01*
G01X60225Y-10847D01*
G01X60217Y-10849D01*
G01X60211D01*
G01X60202D01*
G01X60187D01*
G01X60177Y-10848D01*
G01X60172Y-10847D01*
G01X60151Y-10844D01*
G01X60143Y-10843D01*
G01X60138Y-10841D01*
G01X60128Y-10837D01*
G01X60109Y-10829D01*
G01X60106Y-10827D01*
G01X60097Y-10821D01*
G01X60087Y-10816D01*
G01X60085Y-10814D01*
G01X60082Y-10812D01*
G01X60079Y-10807D01*
G01X60074Y-10803D01*
G01X60070Y-10800D01*
G01X60066Y-10796D01*
G01X60063Y-10792D01*
G01X60056Y-10784D01*
G01X60049Y-10775D01*
G01X60031Y-10746D01*
G01X60027Y-10739D01*
G01X60025Y-10731D01*
G01X60021Y-10720D01*
G01X60016Y-10711D01*
G01X60015Y-10707D01*
G01X60014Y-10702D01*
G01X60012Y-10692D01*
G01X60010Y-10684D01*
G01X60009Y-10680D01*
G01X60008Y-10671D01*
G01Y-10643D01*
G01X59817D01*
G01Y-11455D01*
G01X60015D01*
G01Y-11314D01*
G01X60016Y-11166D01*
G01Y-11156D01*
G01X60017Y-11149D01*
G01X60019Y-11138D01*
G01X60021Y-11128D01*
G01X60025Y-11109D01*
G01X60026Y-11104D01*
G01X60027Y-11100D01*
G01X60031Y-11092D01*
G01X60034Y-11082D01*
G01X60037Y-11075D01*
G01X60042Y-11067D01*
G01X60047Y-11057D01*
G01X60051Y-11052D01*
G01X60053Y-11049D01*
G01X60057Y-11044D01*
G01X60064Y-11034D01*
G01X60066Y-11031D01*
G01X60069Y-11028D01*
G01X60075Y-11024D01*
G01X60090Y-11012D01*
G01X60094Y-11009D01*
G01X60098Y-11007D01*
G01X60109Y-11003D01*
G01X60122Y-10997D01*
G01X60130Y-10994D01*
G01X60142Y-10991D01*
G01X60150Y-10989D01*
G01X60159D01*
G01X60188Y-10988D01*
G01X60221Y-10989D01*
G01X60228D01*
G01X60231Y-10990D01*
G01X60257Y-10995D01*
G01X60270Y-10999D01*
G01X60286Y-11005D01*
G01X60290Y-11007D01*
G01X60295Y-11009D01*
G01X60299Y-11011D01*
G01X60314Y-11023D01*
G01X60321Y-11028D01*
G01X60327Y-11033D01*
G01X60334Y-11038D01*
G01X60338Y-11042D01*
G01X60342Y-11047D01*
G01X60349Y-11056D01*
G01X60354Y-11062D01*
G01X60373Y-11093D01*
G01X60375Y-11099D01*
G01X60378Y-11109D01*
G01X60382Y-11118D01*
G01X60384Y-11122D01*
G01Y-11125D01*
G01X60385Y-11129D01*
G01Y-11135D01*
G01X60386Y-11138D01*
G01X60388Y-11140D01*
G01X60390Y-11142D01*
G01X60392D01*
G01X60395D01*
G01X60398D01*
G01X60402Y-11141D01*
G01X60473Y-11112D01*
G01X60479Y-11110D01*
G01X60497Y-11102D01*
G01X60506Y-11099D01*
G01X60518Y-11094D01*
G01X60531Y-11088D01*
G01X60541Y-11085D01*
G01X60553Y-11080D01*
G01X60566Y-11074D01*
G01X60575Y-11071D01*
G01X60587Y-11067D01*
G01X60601Y-11061D01*
G01X60610Y-11057D01*
G01X60622Y-11053D01*
G01X60631Y-11048D01*
G01X60643Y-11043D01*
G01X60713Y-11015D01*
G01X60717Y-11014D01*
G01X60730Y-11007D01*
G01X60737Y-11002D01*
G01X60740Y-10999D01*
G01X60742Y-10997D01*
G01X60745Y-10991D01*
G01X60749Y-10984D01*
G01X60750Y-10981D01*
G01X60751Y-10976D01*
G01X60752Y-10960D01*
G01Y-10943D01*
G01X60777D01*
G01Y-11002D01*
G01X60776Y-11054D01*
G01X60775Y-11064D01*
G01Y-11066D01*
G01X60774Y-11067D01*
G01Y-11068D01*
G01X60773Y-11069D01*
G01X60768Y-11072D01*
G01X60762Y-11075D01*
G01X60745Y-11082D01*
G01X60733Y-11086D01*
G01X60721Y-11091D01*
G01X60711Y-11094D01*
G01X60703Y-11097D01*
G01X60692Y-11102D01*
G01X60680Y-11106D01*
G01X60664Y-11112D01*
G01X60645Y-11120D01*
G01X60627Y-11126D01*
G01X60616Y-11131D01*
G01X60603Y-11136D01*
G01X60593Y-11139D01*
G01X60586Y-11142D01*
G01X60574Y-11147D01*
G01X60563Y-11152D01*
G01X60546Y-11158D01*
G01X60527Y-11165D01*
G01X60510Y-11171D01*
G01X60498Y-11175D01*
G01X60485Y-11182D01*
G01X60472Y-11186D01*
G01X60454Y-11193D01*
G01X60437Y-11199D01*
G01X60426Y-11203D01*
G01X60412Y-11210D01*
G01X60402Y-11213D01*
G01X60392Y-11217D01*
G01Y-11317D01*
G01X60553D01*
G01X60695Y-11316D01*
G01X60721Y-11315D01*
G01X60723D01*
G01X60727Y-11314D01*
G01X60730Y-11313D01*
G01X60734Y-11312D01*
G01X60736Y-11310D01*
G01X60738Y-11309D01*
G01X60741Y-11307D01*
G01X60745Y-11302D01*
G01X60747Y-11298D01*
G01X60748Y-11295D01*
G01X60750Y-11290D01*
G01X60751Y-11283D01*
G01X60752Y-11277D01*
G01Y-11251D01*
G01X60777D01*
G01Y-11455D01*
G01X60752D01*
G01Y-11440D01*
G01Y-11432D01*
G01X60751Y-11425D01*
G01X60750Y-11418D01*
G01X60749Y-11412D01*
G01X60748Y-11409D01*
G01X60746Y-11404D01*
G01X60743Y-11400D01*
G01X60741Y-11398D01*
G01X60739Y-11396D01*
G01X60736Y-11395D01*
G01Y-11394D01*
G01X60735D01*
G01X60730D01*
G01X60717Y-11393D01*
G01X60399Y-11390D01*
G01X60085Y-11391D01*
G01X60062Y-11392D01*
G01X60059Y-11393D01*
G01X60055Y-11395D01*
G01X60051Y-11397D01*
G01X60048Y-11399D01*
G01X60046Y-11402D01*
G01X60043Y-11407D01*
G01X60041Y-11412D01*
G01X60040Y-11415D01*
G01X60039Y-11422D01*
G01X60038Y-11437D01*
G01Y-11455D01*
G01X60015D01*
G01X59817D01*
G01Y-11490D01*
G01X60960D01*
G01Y-10347D01*
G37*
G36*
G01X60186Y-11064D02*
G01X60177Y-11065D01*
G01X60173Y-11066D01*
G01X60167Y-11067D01*
G01X60157Y-11068D01*
G01X60153Y-11069D01*
G01X60144Y-11071D01*
G01X60133Y-11074D01*
G01X60123Y-11078D01*
G01X60116Y-11082D01*
G01X60113Y-11083D01*
G01X60104Y-11088D01*
G01X60094Y-11094D01*
G01X60091Y-11096D01*
G01X60089Y-11098D01*
G01X60083Y-11105D01*
G01X60076Y-11111D01*
G01X60072Y-11115D01*
G01X60068Y-11120D01*
G01X60062Y-11127D01*
G01X60060Y-11130D01*
G01X60058Y-11134D01*
G01X60055Y-11140D01*
G01X60049Y-11158D01*
G01X60044Y-11173D01*
G01X60043Y-11179D01*
G01X60042Y-11189D01*
G01X60041Y-11195D01*
G01X60040Y-11199D01*
G01X60039Y-11209D01*
G01X60038Y-11237D01*
G01X60039Y-11253D01*
G01X60040Y-11277D01*
G01X60041Y-11284D01*
G01X60042Y-11290D01*
G01X60043Y-11295D01*
G01X60045Y-11299D01*
G01X60047Y-11303D01*
G01X60053Y-11309D01*
G01X60058Y-11314D01*
G01X60059D01*
G01X60063Y-11315D01*
G01X60074D01*
G01X60214Y-11317D01*
G01X60363Y-11316D01*
G01X60366Y-11315D01*
G01X60367Y-11314D01*
G01Y-11307D01*
G01X60368Y-11266D01*
G01X60367Y-11224D01*
G01X60366Y-11217D01*
G01Y-11215D01*
G01X60365Y-11212D01*
G01X60364Y-11204D01*
G01Y-11194D01*
G01Y-11188D01*
G01X60362Y-11183D01*
G01X60361Y-11177D01*
G01X60354Y-11154D01*
G01X60350Y-11144D01*
G01X60348Y-11139D01*
G01X60345Y-11135D01*
G01X60340Y-11128D01*
G01X60338Y-11125D01*
G01X60336Y-11122D01*
G01X60333Y-11119D01*
G01X60328Y-11109D01*
G01X60326Y-11106D01*
G01X60323Y-11104D01*
G01X60318Y-11100D01*
G01X60303Y-11089D01*
G01X60299Y-11086D01*
G01X60294Y-11084D01*
G01X60283Y-11079D01*
G01X60272Y-11073D01*
G01X60266Y-11071D01*
G01X60261Y-11070D01*
G01X60249Y-11068D01*
G01X60241Y-11067D01*
G01X60235Y-11065D01*
G01X60227Y-11064D01*
G37*
G36*
G01X59817Y-15673D02*
G01X59817Y-15982D01*
G01X60008D01*
G01Y-15948D01*
G01X60009Y-15941D01*
G01Y-15938D01*
G01X60015Y-15912D01*
G01X60019Y-15899D01*
G01X60025Y-15883D01*
G01X60028Y-15875D01*
G01X60030Y-15872D01*
G01X60035Y-15863D01*
G01X60041Y-15854D01*
G01X60043Y-15851D01*
G01X60045Y-15849D01*
G01X60050Y-15845D01*
G01X60052Y-15842D01*
G01X60053Y-15840D01*
G01X60055Y-15836D01*
G01Y-15835D01*
G01X60056Y-15834D01*
G01X60057Y-15833D01*
G01X60060Y-15831D01*
G01X60066Y-15827D01*
G01X60069Y-15825D01*
G01X60072Y-15823D01*
G01X60075Y-15818D01*
G01X60080Y-15814D01*
G01X60084Y-15810D01*
G01X60092Y-15804D01*
G01X60094Y-15802D01*
G01X60099Y-15800D01*
G01X60111Y-15794D01*
G01X60118Y-15790D01*
G01X60125Y-15787D01*
G01X60132Y-15784D01*
G01X60148Y-15779D01*
G01X60150Y-15778D01*
G01X60158Y-15777D01*
G01X60174D01*
G01X60179D01*
G01X60196Y-15778D01*
G01X60207Y-15779D01*
G01X60212Y-15780D01*
G01X60221Y-15782D01*
G01X60231Y-15784D01*
G01X60244Y-15787D01*
G01X60249Y-15788D01*
G01X60252Y-15789D01*
G01X60256Y-15792D01*
G01X60263Y-15795D01*
G01X60277Y-15801D01*
G01X60283Y-15805D01*
G01X60294Y-15812D01*
G01X60300Y-15817D01*
G01X60306Y-15822D01*
G01X60313Y-15827D01*
G01X60317Y-15832D01*
G01X60321Y-15837D01*
G01X60327Y-15844D01*
G01X60330Y-15847D01*
G01X60337Y-15860D01*
G01X60342Y-15868D01*
G01X60344Y-15873D01*
G01X60347Y-15881D01*
G01X60351Y-15888D01*
G01X60353Y-15891D01*
G01X60354Y-15896D01*
G01X60356Y-15903D01*
G01X60358Y-15906D01*
G01X60360D01*
G01X60363Y-15905D01*
G01X60366Y-15902D01*
G01X60368Y-15899D01*
G01X60370Y-15895D01*
G01X60378Y-15876D01*
G01X60380Y-15871D01*
G01X60383Y-15865D01*
G01X60387Y-15859D01*
G01X60397Y-15842D01*
G01X60400Y-15837D01*
G01X60402Y-15832D01*
G01X60403Y-15830D01*
G01X60405Y-15827D01*
G01X60409Y-15825D01*
G01X60411Y-15822D01*
G01X60415Y-15818D01*
G01X60421Y-15809D01*
G01X60428Y-15801D01*
G01X60432Y-15798D01*
G01X60448Y-15786D01*
G01X60455Y-15780D01*
G01X60458Y-15778D01*
G01X60463Y-15775D01*
G01X60474Y-15770D01*
G01X60483Y-15765D01*
G01X60489Y-15763D01*
G01X60499Y-15759D01*
G01X60510Y-15755D01*
G01X60518Y-15752D01*
G01X60530Y-15750D01*
G01X60538Y-15747D01*
G01X60548Y-15746D01*
G01X60565D01*
G01X60585D01*
G01X60593Y-15747D01*
G01X60597Y-15749D01*
G01X60604Y-15750D01*
G01X60613D01*
G01X60621Y-15752D01*
G01X60628Y-15755D01*
G01X60635Y-15757D01*
G01X60648Y-15760D01*
G01X60651Y-15762D01*
G01X60655Y-15764D01*
G01X60661Y-15768D01*
G01X60671Y-15772D01*
G01X60676Y-15774D01*
G01X60680Y-15776D01*
G01X60695Y-15788D01*
G01X60702Y-15793D01*
G01X60708Y-15798D01*
G01X60715Y-15803D01*
G01X60719Y-15807D01*
G01X60725Y-15815D01*
G01X60732Y-15821D01*
G01X60736Y-15825D01*
G01X60750Y-15843D01*
G01X60753Y-15848D01*
G01X60759Y-15860D01*
G01X60763Y-15867D01*
G01X60765Y-15870D01*
G01X60767Y-15875D01*
G01X60768Y-15880D01*
G01X60770Y-15888D01*
G01X60774Y-15897D01*
G01X60776Y-15903D01*
G01X60777Y-15908D01*
G01X60779Y-15920D01*
G01X60781Y-15928D01*
G01X60782Y-15932D01*
G01Y-15933D01*
G01X60783Y-15942D01*
G01Y-15982D01*
G01Y-16010D01*
G01X60782Y-16026D01*
G01Y-16028D01*
G01Y-16030D01*
G01X60780Y-16034D01*
G01X60777Y-16045D01*
G01X60774Y-16057D01*
G01X60771Y-16064D01*
G01X60768Y-16072D01*
G01X60761Y-16088D01*
G01X60758Y-16094D01*
G01X60754Y-16101D01*
G01X60749Y-16109D01*
G01X60735Y-16128D01*
G01X60731Y-16134D01*
G01X60724Y-16139D01*
G01X60719Y-16144D01*
G01X60714Y-16151D01*
G01X60709Y-16155D01*
G01X60693Y-16166D01*
G01X60681Y-16172D01*
G01X60666Y-16177D01*
G01X60662Y-16178D01*
G01X60656Y-16179D01*
G01X60645D01*
G01X60630Y-16178D01*
G01X60626D01*
G01X60622Y-16177D01*
G01X60608Y-16172D01*
G01X60604Y-16170D01*
G01X60598Y-16167D01*
G01X60586Y-16157D01*
G01X60584Y-16155D01*
G01X60580Y-16150D01*
G01X60577Y-16146D01*
G01X60575Y-16142D01*
G01X60573Y-16138D01*
G01X60572Y-16134D01*
G01Y-16131D01*
G01X60573Y-16121D01*
G01X60574Y-16115D01*
G01X60575Y-16111D01*
G01X60577Y-16103D01*
G01X60580Y-16098D01*
G01X60583Y-16094D01*
G01X60586Y-16091D01*
G01X60589Y-16088D01*
G01X60596Y-16085D01*
G01X60600Y-16082D01*
G01X60605Y-16080D01*
G01X60613Y-16078D01*
G01X60618Y-16077D01*
G01X60624Y-16076D01*
G01X60630D01*
G01X60638Y-16078D01*
G01X60644Y-16079D01*
G01X60649Y-16080D01*
G01X60654Y-16082D01*
G01X60661Y-16085D01*
G01X60664Y-16087D01*
G01X60669Y-16090D01*
G01X60670D01*
G01X60674Y-16091D01*
G01X60688Y-16092D01*
G01X60695D01*
G01X60701Y-16091D01*
G01X60705Y-16090D01*
G01X60708D01*
G01X60709Y-16089D01*
G01X60724Y-16078D01*
G01X60728Y-16073D01*
G01X60733Y-16067D01*
G01X60736Y-16062D01*
G01X60738Y-16060D01*
G01X60739Y-16057D01*
G01X60742Y-16047D01*
G01X60745Y-16041D01*
G01X60748Y-16033D01*
G01X60751Y-16025D01*
G01X60754Y-16004D01*
G01X60755Y-15998D01*
G01Y-15986D01*
G01X60754Y-15980D01*
G01X60750Y-15948D01*
G01X60748Y-15938D01*
G01X60747Y-15931D01*
G01X60745Y-15926D01*
G01X60742Y-15917D01*
G01X60736Y-15908D01*
G01X60734Y-15902D01*
G01X60732Y-15895D01*
G01X60730Y-15892D01*
G01X60728Y-15890D01*
G01X60724Y-15886D01*
G01X60722Y-15884D01*
G01X60720Y-15882D01*
G01X60718Y-15877D01*
G01X60717Y-15875D01*
G01X60715Y-15873D01*
G01X60710Y-15871D01*
G01X60708Y-15870D01*
G01X60705Y-15868D01*
G01X60703Y-15865D01*
G01X60702Y-15863D01*
G01X60699Y-15861D01*
G01X60696Y-15859D01*
G01X60687Y-15853D01*
G01X60679Y-15848D01*
G01X60672Y-15846D01*
G01X60662Y-15842D01*
G01X60653Y-15838D01*
G01X60647Y-15836D01*
G01X60642Y-15835D01*
G01X60630Y-15833D01*
G01X60622Y-15832D01*
G01X60617Y-15830D01*
G01X60608D01*
G01X60572Y-15829D01*
G01X60534Y-15830D01*
G01X60527D01*
G01X60525Y-15831D01*
G01X60519Y-15832D01*
G01X60502Y-15835D01*
G01X60497Y-15836D01*
G01X60492Y-15838D01*
G01X60487Y-15839D01*
G01X60470Y-15847D01*
G01X60462Y-15850D01*
G01X60459Y-15852D01*
G01X60450Y-15857D01*
G01X60441Y-15862D01*
G01X60438Y-15864D01*
G01X60435Y-15866D01*
G01X60432Y-15871D01*
G01X60427Y-15876D01*
G01X60424Y-15879D01*
G01X60421Y-15881D01*
G01X60417Y-15886D01*
G01X60414Y-15890D01*
G01X60404Y-15906D01*
G01X60402Y-15913D01*
G01X60399Y-15923D01*
G01X60395Y-15931D01*
G01X60393Y-15938D01*
G01X60391Y-15943D01*
G01X60390Y-15954D01*
G01X60387Y-15963D01*
G01X60386Y-15969D01*
G01X60385Y-15976D01*
G01X60384Y-15997D01*
G01Y-16001D01*
G01X60383Y-16004D01*
G01X60382Y-16007D01*
G01Y-16015D01*
G01X60381Y-16030D01*
G01X60364D01*
G01X60360Y-16029D01*
G01X60357Y-16028D01*
G01X60355Y-16026D01*
G01X60354Y-16023D01*
G01X60352Y-16018D01*
G01X60351Y-16012D01*
G01X60350Y-16000D01*
G01X60349Y-15983D01*
G01X60348Y-15980D01*
G01X60346Y-15969D01*
G01X60345Y-15963D01*
G01X60343Y-15955D01*
G01X60337Y-15938D01*
G01X60333Y-15930D01*
G01X60332Y-15927D01*
G01X60326Y-15919D01*
G01X60321Y-15909D01*
G01X60319Y-15906D01*
G01X60314Y-15902D01*
G01X60309Y-15898D01*
G01X60304Y-15891D01*
G01X60299Y-15886D01*
G01X60294Y-15883D01*
G01X60287Y-15877D01*
G01X60285Y-15875D01*
G01X60280Y-15872D01*
G01X60274Y-15870D01*
G01X60257Y-15864D01*
G01X60241Y-15859D01*
G01X60236Y-15857D01*
G01X60226D01*
G01X60220Y-15856D01*
G01X60214Y-15854D01*
G01X60208D01*
G01X60200Y-15853D01*
G01X60188Y-15854D01*
G01X60183D01*
G01X60174Y-15856D01*
G01X60147Y-15860D01*
G01X60141Y-15861D01*
G01X60134Y-15863D01*
G01X60124Y-15867D01*
G01X60110Y-15872D01*
G01X60106Y-15874D01*
G01X60101Y-15877D01*
G01X60094Y-15882D01*
G01X60088Y-15885D01*
G01X60083Y-15887D01*
G01X60081Y-15889D01*
G01X60079Y-15891D01*
G01X60075Y-15896D01*
G01X60070Y-15900D01*
G01X60063Y-15906D01*
G01X60059Y-15911D01*
G01X60053Y-15921D01*
G01X60051Y-15924D01*
G01X60048Y-15930D01*
G01X60045Y-15940D01*
G01X60042Y-15949D01*
G01X60040Y-15952D01*
G01X60039Y-15956D01*
G01X60038Y-15960D01*
G01Y-15971D01*
G01X60036Y-15978D01*
G01Y-15981D01*
G01Y-15988D01*
G01X60037Y-15994D01*
G01X60041Y-16018D01*
G01X60042Y-16024D01*
G01X60043Y-16032D01*
G01X60046Y-16041D01*
G01X60049Y-16049D01*
G01X60051Y-16053D01*
G01X60053Y-16057D01*
G01X60057Y-16064D01*
G01X60061Y-16074D01*
G01X60063Y-16077D01*
G01X60065Y-16080D01*
G01X60068Y-16082D01*
G01X60080Y-16090D01*
G01X60082D01*
G01X60085Y-16091D01*
G01X60099Y-16092D01*
G01X60115D01*
G01X60130Y-16090D01*
G01X60138Y-16089D01*
G01X60143Y-16088D01*
G01X60147Y-16086D01*
G01X60150Y-16084D01*
G01Y-16082D01*
G01X60155Y-16079D01*
G01X60161Y-16077D01*
G01X60168Y-16076D01*
G01X60173D01*
G01X60176D01*
G01X60179Y-16077D01*
G01X60185Y-16079D01*
G01X60194Y-16080D01*
G01X60200Y-16082D01*
G01X60204Y-16084D01*
G01X60208Y-16087D01*
G01X60212Y-16090D01*
G01X60215Y-16095D01*
G01X60217Y-16101D01*
G01X60218Y-16108D01*
G01X60219Y-16115D01*
G01X60218Y-16122D01*
G01Y-16128D01*
G01X60217Y-16133D01*
G01X60216Y-16134D01*
G01X60214Y-16138D01*
G01X60211Y-16143D01*
G01X60209Y-16148D01*
G01X60208Y-16151D01*
G01X60206Y-16153D01*
G01X60203Y-16155D01*
G01X60197Y-16158D01*
G01X60191Y-16162D01*
G01X60189Y-16163D01*
G01X60184Y-16164D01*
G01X60174Y-16165D01*
G01X60161D01*
G01X60147D01*
G01X60136Y-16164D01*
G01X60130D01*
G01X60121Y-16161D01*
G01X60112Y-16158D01*
G01X60102Y-16155D01*
G01X60096Y-16151D01*
G01X60082Y-16143D01*
G01X60078Y-16140D01*
G01X60075Y-16137D01*
G01X60072Y-16135D01*
G01X60070Y-16132D01*
G01X60066Y-16127D01*
G01X60059Y-16122D01*
G01X60054Y-16117D01*
G01X60042Y-16099D01*
G01X60038Y-16094D01*
G01X60032Y-16082D01*
G01X60027Y-16074D01*
G01X60024Y-16068D01*
G01X60021Y-16058D01*
G01X60016Y-16047D01*
G01X60014Y-16040D01*
G01X60011Y-16027D01*
G01X60009Y-16020D01*
G01X60008Y-16010D01*
G01Y-15982D01*
G01X59817D01*
G01Y-16782D01*
G01X60015D01*
G01Y-16640D01*
G01X60016Y-16492D01*
G01Y-16482D01*
G01X60019Y-16464D01*
G01X60021Y-16454D01*
G01X60025Y-16435D01*
G01X60026Y-16431D01*
G01X60027Y-16427D01*
G01X60031Y-16418D01*
G01X60034Y-16408D01*
G01X60037Y-16402D01*
G01X60042Y-16393D01*
G01X60047Y-16384D01*
G01X60051Y-16378D01*
G01X60053Y-16375D01*
G01X60057Y-16370D01*
G01X60064Y-16360D01*
G01X60069Y-16354D01*
G01X60075Y-16350D01*
G01X60090Y-16338D01*
G01X60094Y-16336D01*
G01X60098Y-16333D01*
G01X60109Y-16329D01*
G01X60122Y-16323D01*
G01X60130Y-16320D01*
G01X60142Y-16317D01*
G01X60150Y-16315D01*
G01X60159Y-16314D01*
G01X60188D01*
G01X60221Y-16315D01*
G01X60228D01*
G01X60231Y-16316D01*
G01X60257Y-16322D01*
G01X60270Y-16325D01*
G01X60286Y-16331D01*
G01X60299Y-16337D01*
G01X60314Y-16348D01*
G01X60321Y-16354D01*
G01X60327Y-16359D01*
G01X60334Y-16364D01*
G01X60338Y-16369D01*
G01X60342Y-16374D01*
G01X60349Y-16381D01*
G01X60354Y-16389D01*
G01X60373Y-16419D01*
G01X60375Y-16425D01*
G01X60378Y-16435D01*
G01X60382Y-16444D01*
G01X60384Y-16448D01*
G01X60385Y-16456D01*
G01Y-16462D01*
G01X60386Y-16465D01*
G01X60388Y-16467D01*
G01X60390Y-16468D01*
G01X60392D01*
G01X60393Y-16469D01*
G01X60395D01*
G01X60398Y-16468D01*
G01X60402Y-16467D01*
G01X60473Y-16439D01*
G01X60479Y-16436D01*
G01X60497Y-16428D01*
G01X60506Y-16425D01*
G01X60518Y-16421D01*
G01X60531Y-16414D01*
G01X60541Y-16411D01*
G01X60553Y-16407D01*
G01X60566Y-16401D01*
G01X60575Y-16397D01*
G01X60587Y-16393D01*
G01X60601Y-16387D01*
G01X60610Y-16384D01*
G01X60622Y-16379D01*
G01X60631Y-16375D01*
G01X60643Y-16369D01*
G01X60713Y-16342D01*
G01X60717Y-16340D01*
G01X60723Y-16337D01*
G01X60730Y-16333D01*
G01X60733Y-16331D01*
G01X60737Y-16328D01*
G01X60740Y-16325D01*
G01X60742Y-16323D01*
G01X60745Y-16317D01*
G01X60749Y-16310D01*
G01X60750Y-16308D01*
G01X60751Y-16303D01*
G01X60752Y-16294D01*
G01Y-16286D01*
G01Y-16269D01*
G01X60777D01*
G01Y-16328D01*
G01X60776Y-16380D01*
G01X60775Y-16390D01*
G01Y-16392D01*
G01X60774Y-16393D01*
G01Y-16395D01*
G01X60773Y-16396D01*
G01X60768Y-16399D01*
G01X60762Y-16401D01*
G01X60745Y-16407D01*
G01X60733Y-16412D01*
G01X60721Y-16418D01*
G01X60711Y-16421D01*
G01X60703Y-16423D01*
G01X60692Y-16428D01*
G01X60664Y-16439D01*
G01X60645Y-16446D01*
G01X60627Y-16453D01*
G01X60616Y-16457D01*
G01X60603Y-16463D01*
G01X60593Y-16466D01*
G01X60586Y-16468D01*
G01X60574Y-16473D01*
G01X60563Y-16477D01*
G01X60546Y-16484D01*
G01X60527Y-16492D01*
G01X60510Y-16498D01*
G01X60498Y-16502D01*
G01X60485Y-16508D01*
G01X60472Y-16513D01*
G01X60454Y-16519D01*
G01X60437Y-16525D01*
G01X60426Y-16530D01*
G01X60412Y-16536D01*
G01X60402Y-16539D01*
G01X60392Y-16543D01*
G01Y-16643D01*
G01X60553D01*
G01X60695D01*
G01X60721Y-16642D01*
G01X60723D01*
G01X60727Y-16641D01*
G01X60730Y-16639D01*
G01X60734Y-16638D01*
G01X60736Y-16636D01*
G01X60738Y-16635D01*
G01X60741Y-16633D01*
G01X60745Y-16628D01*
G01X60747Y-16624D01*
G01X60748Y-16622D01*
G01X60750Y-16616D01*
G01X60751Y-16609D01*
G01X60752Y-16603D01*
G01Y-16577D01*
G01X60777D01*
G01Y-16782D01*
G01X60752D01*
G01Y-16766D01*
G01Y-16758D01*
G01X60751Y-16751D01*
G01X60750Y-16745D01*
G01X60749Y-16738D01*
G01X60748Y-16736D01*
G01X60746Y-16730D01*
G01X60743Y-16726D01*
G01X60741Y-16724D01*
G01X60736Y-16721D01*
G01X60735Y-16720D01*
G01X60730D01*
G01X60717Y-16719D01*
G01X60399Y-16716D01*
G01X60085Y-16718D01*
G01X60062Y-16719D01*
G01X60059D01*
G01X60055Y-16721D01*
G01X60051Y-16723D01*
G01X60048Y-16725D01*
G01X60046Y-16728D01*
G01X60043Y-16733D01*
G01X60041Y-16738D01*
G01X60040Y-16741D01*
G01X60039Y-16749D01*
G01X60038Y-16762D01*
G01Y-16782D01*
G01X60015D01*
G01X59817D01*
G01Y-16816D01*
G01X60960D01*
G01Y-15673D01*
G37*
G36*
G01X60207Y-16390D02*
G01X60186Y-16391D01*
G01X60177Y-16392D01*
G01X60173Y-16393D01*
G01X60167Y-16394D01*
G01X60157D01*
G01X60153Y-16395D01*
G01X60144Y-16397D01*
G01X60133Y-16401D01*
G01X60123Y-16404D01*
G01X60116Y-16407D01*
G01X60113Y-16409D01*
G01X60104Y-16414D01*
G01X60094Y-16420D01*
G01X60091Y-16422D01*
G01X60087Y-16427D01*
G01X60083Y-16431D01*
G01X60076Y-16437D01*
G01X60072Y-16441D01*
G01X60068Y-16446D01*
G01X60062Y-16454D01*
G01X60060Y-16456D01*
G01X60058Y-16461D01*
G01X60055Y-16467D01*
G01X60049Y-16484D01*
G01X60044Y-16499D01*
G01X60043Y-16505D01*
G01X60042Y-16515D01*
G01X60041Y-16521D01*
G01X60040Y-16525D01*
G01X60039Y-16535D01*
G01X60038Y-16563D01*
G01X60039Y-16579D01*
G01X60040Y-16602D01*
G01X60041Y-16610D01*
G01X60042Y-16616D01*
G01X60043Y-16621D01*
G01X60045Y-16625D01*
G01X60047Y-16629D01*
G01X60053Y-16635D01*
G01X60058Y-16640D01*
G01X60059D01*
G01X60063Y-16641D01*
G01X60074Y-16642D01*
G01X60214Y-16643D01*
G01X60363Y-16642D01*
G01X60366D01*
G01Y-16641D01*
G01X60367Y-16640D01*
G01Y-16632D01*
G01X60368Y-16593D01*
G01X60367Y-16551D01*
G01X60366Y-16543D01*
G01Y-16541D01*
G01X60365Y-16538D01*
G01X60364Y-16530D01*
G01Y-16520D01*
G01Y-16515D01*
G01X60362Y-16509D01*
G01X60361Y-16503D01*
G01X60354Y-16480D01*
G01X60352Y-16475D01*
G01X60348Y-16466D01*
G01X60345Y-16461D01*
G01X60340Y-16454D01*
G01X60338Y-16451D01*
G01X60333Y-16445D01*
G01X60328Y-16435D01*
G01X60323Y-16430D01*
G01X60318Y-16426D01*
G01X60303Y-16414D01*
G01X60299Y-16412D01*
G01X60294Y-16409D01*
G01X60283Y-16405D01*
G01X60272Y-16400D01*
G01X60266Y-16398D01*
G01X60261Y-16396D01*
G01X60249Y-16395D01*
G01X60241Y-16393D01*
G01X60235Y-16391D01*
G01X60227D01*
G37*
G36*
G01X59817Y-20701D02*
G01X59817Y-20897D01*
G01X60008D01*
G01Y-20864D01*
G01X60520D01*
G01Y-20743D01*
G01X60544D01*
G01Y-20864D01*
G01X60614D01*
G01X60687Y-20863D01*
G01X60698Y-20862D01*
G01X60706Y-20861D01*
G01X60713Y-20860D01*
G01X60718Y-20858D01*
G01X60725Y-20856D01*
G01X60729Y-20853D01*
G01X60733Y-20850D01*
G01X60736Y-20847D01*
G01X60742Y-20841D01*
G01X60745Y-20835D01*
G01X60747Y-20831D01*
G01X60748Y-20826D01*
G01X60751Y-20815D01*
G01X60752Y-20806D01*
G01Y-20784D01*
G01Y-20756D01*
G01X60777D01*
G01Y-21051D01*
G01X60752D01*
G01Y-21015D01*
G01X60751Y-20997D01*
G01Y-20990D01*
G01X60750Y-20984D01*
G01X60748Y-20976D01*
G01X60742Y-20959D01*
G01X60740Y-20955D01*
G01X60738Y-20951D01*
G01X60735Y-20949D01*
G01X60733Y-20947D01*
G01X60727Y-20943D01*
G01X60721Y-20940D01*
G01X60719Y-20939D01*
G01X60714D01*
G01X60701Y-20938D01*
G01X60629Y-20937D01*
G01X60544D01*
G01Y-21234D01*
G01X60534D01*
G01X60529D01*
G01X60522Y-21232D01*
G01X60513Y-21227D01*
G01X60494Y-21215D01*
G01X60477Y-21205D01*
G01X60469Y-21200D01*
G01X60458Y-21192D01*
G01X60453Y-21189D01*
G01X60444Y-21184D01*
G01X60439Y-21181D01*
G01X60430Y-21175D01*
G01X60425Y-21171D01*
G01X60416Y-21167D01*
G01X60411Y-21164D01*
G01X60402Y-21158D01*
G01X60397Y-21154D01*
G01X60389Y-21150D01*
G01X60383Y-21147D01*
G01X60375Y-21140D01*
G01X60370Y-21137D01*
G01X60361Y-21132D01*
G01X60355Y-21129D01*
G01X60345Y-21122D01*
G01X60335Y-21115D01*
G01X60252Y-21063D01*
G01X60226Y-21047D01*
G01X60215Y-21040D01*
G01X60210Y-21036D01*
G01X60202Y-21032D01*
G01X60196Y-21029D01*
G01X60188Y-21023D01*
G01X60182Y-21019D01*
G01X60174Y-21014D01*
G01X60169Y-21011D01*
G01X60160Y-21005D01*
G01X60155Y-21002D01*
G01X60146Y-20997D01*
G01X60141Y-20994D01*
G01X60132Y-20988D01*
G01X60127Y-20984D01*
G01X60118Y-20980D01*
G01X60113Y-20976D01*
G01X60102Y-20969D01*
G01X60092Y-20963D01*
G01X60021Y-20917D01*
G01X60015Y-20915D01*
G01X60012Y-20914D01*
G01Y-20913D01*
G01X60011Y-20912D01*
G01X60010Y-20911D01*
G01X60009Y-20908D01*
G01X60008Y-20903D01*
G01Y-20897D01*
G01X59817D01*
G01Y-21809D01*
G01X60015D01*
G01Y-21667D01*
G01X60016Y-21520D01*
G01Y-21510D01*
G01X60017Y-21503D01*
G01X60019Y-21492D01*
G01X60021Y-21482D01*
G01X60025Y-21464D01*
G01X60026Y-21458D01*
G01X60027Y-21454D01*
G01X60031Y-21446D01*
G01X60034Y-21436D01*
G01X60037Y-21429D01*
G01X60042Y-21421D01*
G01X60047Y-21411D01*
G01X60051Y-21406D01*
G01X60053Y-21403D01*
G01X60057Y-21398D01*
G01X60064Y-21388D01*
G01X60069Y-21382D01*
G01X60075Y-21378D01*
G01X60090Y-21366D01*
G01X60094Y-21363D01*
G01X60098Y-21361D01*
G01X60109Y-21356D01*
G01X60122Y-21351D01*
G01X60130Y-21348D01*
G01X60142Y-21345D01*
G01X60150Y-21343D01*
G01X60159Y-21342D01*
G01X60188D01*
G01X60221Y-21343D01*
G01X60228D01*
G01X60231Y-21344D01*
G01X60257Y-21349D01*
G01X60286Y-21359D01*
G01X60295Y-21363D01*
G01X60299Y-21365D01*
G01X60314Y-21377D01*
G01X60321Y-21382D01*
G01X60327Y-21387D01*
G01X60334Y-21392D01*
G01X60338Y-21396D01*
G01X60342Y-21402D01*
G01X60349Y-21410D01*
G01X60354Y-21416D01*
G01X60373Y-21447D01*
G01X60375Y-21453D01*
G01X60378Y-21463D01*
G01X60382Y-21472D01*
G01X60384Y-21475D01*
G01X60385Y-21483D01*
G01Y-21489D01*
G01X60386Y-21492D01*
G01X60388Y-21494D01*
G01X60390Y-21496D01*
G01X60392D01*
G01X60393Y-21497D01*
G01X60395D01*
G01X60398Y-21496D01*
G01X60402Y-21495D01*
G01X60473Y-21467D01*
G01X60479Y-21464D01*
G01X60497Y-21456D01*
G01X60506Y-21453D01*
G01X60518Y-21448D01*
G01X60531Y-21442D01*
G01X60541Y-21439D01*
G01X60553Y-21435D01*
G01X60566Y-21428D01*
G01X60575Y-21425D01*
G01X60587Y-21420D01*
G01X60601Y-21415D01*
G01X60610Y-21411D01*
G01X60622Y-21407D01*
G01X60631Y-21403D01*
G01X60643Y-21397D01*
G01X60713Y-21370D01*
G01X60717Y-21367D01*
G01X60723Y-21364D01*
G01X60730Y-21361D01*
G01X60737Y-21356D01*
G01X60740Y-21353D01*
G01X60742Y-21350D01*
G01X60745Y-21345D01*
G01X60749Y-21339D01*
G01X60750Y-21335D01*
G01X60751Y-21330D01*
G01X60752Y-21314D01*
G01Y-21297D01*
G01X60777D01*
G01Y-21356D01*
G01X60776Y-21408D01*
G01X60775Y-21418D01*
G01Y-21420D01*
G01X60774Y-21421D01*
G01Y-21422D01*
G01X60773Y-21423D01*
G01X60768Y-21426D01*
G01X60762Y-21429D01*
G01X60745Y-21435D01*
G01X60733Y-21440D01*
G01X60721Y-21445D01*
G01X60711Y-21448D01*
G01X60703Y-21451D01*
G01X60692Y-21456D01*
G01X60664Y-21467D01*
G01X60645Y-21474D01*
G01X60627Y-21480D01*
G01X60616Y-21485D01*
G01X60603Y-21490D01*
G01X60593Y-21493D01*
G01X60586Y-21496D01*
G01X60574Y-21501D01*
G01X60563Y-21506D01*
G01X60546Y-21511D01*
G01X60527Y-21519D01*
G01X60510Y-21525D01*
G01X60498Y-21530D01*
G01X60485Y-21536D01*
G01X60472Y-21540D01*
G01X60454Y-21547D01*
G01X60437Y-21553D01*
G01X60426Y-21557D01*
G01X60412Y-21564D01*
G01X60402Y-21567D01*
G01X60392Y-21570D01*
G01Y-21671D01*
G01X60553D01*
G01X60695Y-21670D01*
G01X60721Y-21669D01*
G01X60723D01*
G01X60727Y-21668D01*
G01X60730Y-21667D01*
G01X60734Y-21666D01*
G01X60736Y-21664D01*
G01X60738Y-21663D01*
G01X60741Y-21661D01*
G01X60745Y-21656D01*
G01X60747Y-21652D01*
G01X60748Y-21649D01*
G01X60750Y-21644D01*
G01X60751Y-21637D01*
G01X60752Y-21631D01*
G01Y-21605D01*
G01X60777D01*
G01Y-21809D01*
G01X60752D01*
G01Y-21794D01*
G01Y-21786D01*
G01X60751Y-21779D01*
G01X60750Y-21772D01*
G01X60749Y-21766D01*
G01X60748Y-21763D01*
G01X60746Y-21758D01*
G01X60743Y-21754D01*
G01X60741Y-21752D01*
G01X60736Y-21748D01*
G01X60735D01*
G01X60730Y-21747D01*
G01X60717Y-21746D01*
G01X60399Y-21743D01*
G01X60085Y-21745D01*
G01X60062Y-21746D01*
G01X60059Y-21747D01*
G01X60055Y-21749D01*
G01X60051Y-21751D01*
G01X60048Y-21753D01*
G01X60046Y-21756D01*
G01X60043Y-21761D01*
G01X60041Y-21766D01*
G01X60040Y-21768D01*
G01X60039Y-21776D01*
G01X60038Y-21790D01*
G01Y-21809D01*
G01X60015D01*
G01X59817D01*
G01Y-21844D01*
G01X60960D01*
G01Y-20701D01*
G37*
G36*
G01X60232Y-20937D02*
G01X60133Y-20939D01*
G01X60124Y-20940D01*
G01X60122Y-20942D01*
G01X60123Y-20943D01*
G01X60125Y-20946D01*
G01X60130Y-20949D01*
G01X60134Y-20952D01*
G01X60217Y-21004D01*
G01X60235Y-21014D01*
G01X60243Y-21020D01*
G01X60253Y-21027D01*
G01X60258Y-21031D01*
G01X60267Y-21035D01*
G01X60273Y-21038D01*
G01X60281Y-21044D01*
G01X60286Y-21048D01*
G01X60295Y-21053D01*
G01X60300Y-21056D01*
G01X60309Y-21062D01*
G01X60314Y-21065D01*
G01X60322Y-21070D01*
G01X60328Y-21073D01*
G01X60337Y-21079D01*
G01X60342Y-21083D01*
G01X60350Y-21087D01*
G01X60355Y-21091D01*
G01X60364Y-21097D01*
G01X60370Y-21100D01*
G01X60378Y-21105D01*
G01X60383Y-21108D01*
G01X60394Y-21116D01*
G01X60404Y-21122D01*
G01X60506Y-21186D01*
G01X60511Y-21188D01*
G01X60516Y-21189D01*
G01X60519Y-21188D01*
G01Y-21187D01*
G01Y-21182D01*
G01X60520Y-21061D01*
G01Y-20937D01*
G37*
G36*
G01X60207Y-21418D02*
G01X60186Y-21418D01*
G01X60177Y-21419D01*
G01X60173Y-21420D01*
G01X60167Y-21421D01*
G01X60157Y-21422D01*
G01X60153Y-21423D01*
G01X60144Y-21425D01*
G01X60133Y-21428D01*
G01X60123Y-21432D01*
G01X60116Y-21435D01*
G01X60113Y-21437D01*
G01X60104Y-21442D01*
G01X60094Y-21448D01*
G01X60091Y-21450D01*
G01X60089Y-21452D01*
G01X60087Y-21454D01*
G01X60083Y-21459D01*
G01X60076Y-21465D01*
G01X60072Y-21469D01*
G01X60068Y-21474D01*
G01X60062Y-21481D01*
G01X60060Y-21484D01*
G01X60058Y-21488D01*
G01X60055Y-21494D01*
G01X60049Y-21511D01*
G01X60044Y-21527D01*
G01X60043Y-21533D01*
G01X60042Y-21543D01*
G01X60041Y-21549D01*
G01X60040Y-21553D01*
G01X60039Y-21563D01*
G01X60038Y-21591D01*
G01X60039Y-21607D01*
G01X60040Y-21631D01*
G01X60041Y-21638D01*
G01X60042Y-21644D01*
G01X60043Y-21649D01*
G01X60047Y-21657D01*
G01X60053Y-21663D01*
G01X60058Y-21667D01*
G01Y-21668D01*
G01X60059D01*
G01X60063D01*
G01X60074Y-21669D01*
G01X60214Y-21671D01*
G01X60363Y-21669D01*
G01X60366D01*
G01X60367Y-21667D01*
G01Y-21660D01*
G01X60368Y-21620D01*
G01X60367Y-21578D01*
G01X60366Y-21571D01*
G01Y-21569D01*
G01X60365Y-21566D01*
G01X60364Y-21558D01*
G01Y-21548D01*
G01Y-21542D01*
G01X60362Y-21537D01*
G01X60361Y-21531D01*
G01X60354Y-21508D01*
G01X60350Y-21498D01*
G01X60348Y-21493D01*
G01X60345Y-21489D01*
G01X60340Y-21482D01*
G01X60338Y-21479D01*
G01X60333Y-21473D01*
G01X60328Y-21463D01*
G01X60323Y-21458D01*
G01X60318Y-21454D01*
G01X60303Y-21443D01*
G01X60299Y-21440D01*
G01X60294Y-21437D01*
G01X60283Y-21433D01*
G01X60272Y-21427D01*
G01X60266Y-21425D01*
G01X60261Y-21424D01*
G01X60249Y-21422D01*
G01X60241Y-21420D01*
G01X60235Y-21419D01*
G01X60227Y-21418D01*
G37*
G36*
G01X59817Y-25908D02*
G01X59817Y-26362D01*
G01X60015D01*
G01Y-25994D01*
G01X60021Y-25996D01*
G01X60037Y-26000D01*
G01X60080Y-26009D01*
G01Y-26161D01*
G01X60081Y-26302D01*
G01X60082Y-26320D01*
G01X60084Y-26331D01*
G01X60108D01*
G01X60127D01*
G01X60133Y-26332D01*
G01X60138D01*
G01X60140Y-26333D01*
G01X60149Y-26334D01*
G01X60183D01*
G01X60189Y-26335D01*
G01X60193Y-26336D01*
G01X60195D01*
G01X60205Y-26337D01*
G01X60242Y-26338D01*
G01X60248D01*
G01X60252Y-26339D01*
G01X60254Y-26340D01*
G01X60263Y-26341D01*
G01X60298D01*
G01X60304Y-26342D01*
G01X60307Y-26343D01*
G01X60310D01*
G01X60317Y-26344D01*
G01X60332D01*
G01X60336D01*
G01X60347D01*
G01X60352Y-26343D01*
G01X60355D01*
G01X60359Y-26340D01*
G01X60358Y-26337D01*
G01X60354Y-26334D01*
G01X60348Y-26327D01*
G01X60346Y-26324D01*
G01X60343Y-26322D01*
G01X60337Y-26318D01*
G01X60334Y-26316D01*
G01X60332Y-26314D01*
G01X60328Y-26309D01*
G01X60321Y-26301D01*
G01X60316Y-26294D01*
G01X60308Y-26282D01*
G01X60305Y-26276D01*
G01X60302Y-26270D01*
G01X60299Y-26263D01*
G01X60295Y-26249D01*
G01X60289Y-26229D01*
G01X60288Y-26222D01*
G01X60287Y-26210D01*
G01X60286Y-26204D01*
G01Y-26202D01*
G01X60285Y-26194D01*
G01X60284Y-26180D01*
G01X60285Y-26175D01*
G01Y-26165D01*
G01X60286Y-26157D01*
G01Y-26155D01*
G01X60288Y-26148D01*
G01X60291Y-26127D01*
G01X60292Y-26121D01*
G01X60294Y-26116D01*
G01X60297Y-26109D01*
G01X60305Y-26089D01*
G01X60310Y-26080D01*
G01X60315Y-26070D01*
G01X60317Y-26068D01*
G01X60318Y-26065D01*
G01X60323Y-26062D01*
G01X60326Y-26060D01*
G01X60327Y-26058D01*
G01X60329Y-26054D01*
G01X60330Y-26051D01*
G01X60333Y-26048D01*
G01X60338Y-26043D01*
G01X60355Y-26029D01*
G01X60367Y-26021D01*
G01X60388Y-26008D01*
G01X60395Y-26004D01*
G01X60402Y-26001D01*
G01X60414Y-25997D01*
G01X60424Y-25993D01*
G01X60428Y-25991D01*
G01X60432Y-25990D01*
G01X60442Y-25989D01*
G01X60449Y-25987D01*
G01X60453Y-25986D01*
G01X60458Y-25985D01*
G01X60468Y-25984D01*
G01X60474Y-25983D01*
G01X60478Y-25982D01*
G01X60488Y-25981D01*
G01X60520D01*
G01X60555Y-25982D01*
G01X60562D01*
G01X60563Y-25983D01*
G01X60569Y-25984D01*
G01X60579D01*
G01X60585Y-25985D01*
G01X60595Y-25988D01*
G01X60611Y-25990D01*
G01X60629Y-25994D01*
G01X60640Y-25998D01*
G01X60650Y-26001D01*
G01X60667Y-26009D01*
G01X60671Y-26010D01*
G01X60685Y-26017D01*
G01X60693Y-26022D01*
G01X60713Y-26036D01*
G01X60719Y-26041D01*
G01X60725Y-26047D01*
G01X60732Y-26052D01*
G01X60736Y-26056D01*
G01X60750Y-26074D01*
G01X60753Y-26079D01*
G01X60759Y-26091D01*
G01X60764Y-26100D01*
G01X60767Y-26106D01*
G01X60770Y-26116D01*
G01X60775Y-26126D01*
G01X60776Y-26131D01*
G01X60777Y-26135D01*
G01X60779Y-26145D01*
G01X60781Y-26153D01*
G01X60782Y-26157D01*
G01X60783Y-26167D01*
G01Y-26206D01*
G01Y-26234D01*
G01X60782Y-26250D01*
G01Y-26253D01*
G01Y-26254D01*
G01X60780Y-26258D01*
G01X60778Y-26263D01*
G01X60777Y-26270D01*
G01X60774Y-26283D01*
G01X60773Y-26287D01*
G01X60771Y-26291D01*
G01X60770Y-26294D01*
G01X60766Y-26300D01*
G01X60763Y-26310D01*
G01X60762Y-26314D01*
G01X60760Y-26317D01*
G01X60757Y-26322D01*
G01X60749Y-26336D01*
G01X60742Y-26346D01*
G01X60736Y-26353D01*
G01X60731Y-26359D01*
G01X60726Y-26366D01*
G01X60722Y-26371D01*
G01X60718Y-26375D01*
G01X60710Y-26382D01*
G01X60702Y-26390D01*
G01X60694Y-26396D01*
G01X60690Y-26398D01*
G01X60683Y-26402D01*
G01X60671Y-26407D01*
G01X60657Y-26412D01*
G01X60654D01*
G01X60646Y-26413D01*
G01X60621D01*
G01X60613D01*
G01X60605Y-26412D01*
G01X60595Y-26408D01*
G01X60590Y-26406D01*
G01X60585Y-26404D01*
G01X60581Y-26402D01*
G01X60577Y-26399D01*
G01X60573Y-26396D01*
G01X60571Y-26394D01*
G01X60569Y-26391D01*
G01X60561Y-26379D01*
G01X60560Y-26376D01*
G01X60559Y-26372D01*
G01X60558Y-26365D01*
G01X60559Y-26355D01*
G01X60560Y-26343D01*
G01X60561Y-26340D01*
G01X60562Y-26334D01*
G01X60565Y-26330D01*
G01X60566Y-26328D01*
G01X60570Y-26324D01*
G01X60580Y-26317D01*
G01X60584Y-26315D01*
G01X60592Y-26312D01*
G01X60597Y-26311D01*
G01X60603D01*
G01X60609D01*
G01X60618Y-26312D01*
G01X60623Y-26314D01*
G01X60628Y-26315D01*
G01X60633Y-26317D01*
G01X60637Y-26318D01*
G01X60641Y-26321D01*
G01X60646Y-26324D01*
G01X60652Y-26329D01*
G01X60657Y-26332D01*
G01X60661Y-26334D01*
G01X60666Y-26335D01*
G01X60675Y-26336D01*
G01X60680Y-26337D01*
G01X60686Y-26336D01*
G01X60694Y-26335D01*
G01X60700Y-26334D01*
G01X60705Y-26332D01*
G01X60710Y-26329D01*
G01X60717Y-26324D01*
G01X60721Y-26320D01*
G01X60724Y-26316D01*
G01X60728Y-26311D01*
G01X60731Y-26307D01*
G01X60734Y-26301D01*
G01X60736Y-26298D01*
G01X60739Y-26289D01*
G01X60744Y-26278D01*
G01X60746Y-26271D01*
G01X60749Y-26259D01*
G01X60751Y-26251D01*
G01X60752Y-26246D01*
G01Y-26232D01*
G01X60753Y-26224D01*
G01X60754Y-26220D01*
G01X60755Y-26216D01*
G01Y-26209D01*
G01X60754Y-26201D01*
G01X60752Y-26187D01*
G01X60751Y-26176D01*
G01X60749Y-26169D01*
G01X60742Y-26149D01*
G01X60739Y-26141D01*
G01X60735Y-26135D01*
G01X60728Y-26124D01*
G01X60724Y-26120D01*
G01X60717Y-26114D01*
G01X60713Y-26110D01*
G01X60710Y-26106D01*
G01X60708Y-26103D01*
G01X60702Y-26100D01*
G01X60698Y-26097D01*
G01X60683Y-26087D01*
G01X60677Y-26084D01*
G01X60668Y-26080D01*
G01X60652Y-26074D01*
G01X60636Y-26069D01*
G01X60629Y-26068D01*
G01X60613Y-26065D01*
G01X60604Y-26063D01*
G01X60598Y-26061D01*
G01X60592Y-26060D01*
G01X60571D01*
G01X60566Y-26059D01*
G01X60563D01*
G01X60561Y-26058D01*
G01X60553Y-26057D01*
G01X60537D01*
G01X60521D01*
G01X60513Y-26058D01*
G01X60508Y-26059D01*
G01X60502Y-26060D01*
G01X60484Y-26061D01*
G01X60480D01*
G01X60470Y-26064D01*
G01X60454Y-26066D01*
G01X60445Y-26068D01*
G01X60436Y-26071D01*
G01X60424Y-26074D01*
G01X60421Y-26075D01*
G01X60417Y-26076D01*
G01X60413Y-26079D01*
G01X60407Y-26082D01*
G01X60393Y-26088D01*
G01X60384Y-26093D01*
G01X60379Y-26096D01*
G01X60374Y-26098D01*
G01X60372Y-26100D01*
G01X60370Y-26102D01*
G01X60362Y-26111D01*
G01X60354Y-26116D01*
G01X60350Y-26121D01*
G01X60343Y-26133D01*
G01X60339Y-26139D01*
G01X60337Y-26145D01*
G01X60332Y-26159D01*
G01X60331Y-26161D01*
G01X60330Y-26171D01*
G01Y-26188D01*
G01Y-26208D01*
G01X60331Y-26216D01*
G01X60333Y-26225D01*
G01X60336Y-26244D01*
G01X60337Y-26249D01*
G01X60338Y-26254D01*
G01X60342Y-26262D01*
G01X60349Y-26277D01*
G01X60352Y-26283D01*
G01X60354Y-26285D01*
G01X60358Y-26290D01*
G01X60364Y-26298D01*
G01X60370Y-26305D01*
G01X60374Y-26309D01*
G01X60383Y-26317D01*
G01X60387Y-26320D01*
G01X60397Y-26327D01*
G01X60415Y-26338D01*
G01X60418Y-26340D01*
G01X60420Y-26342D01*
G01X60422Y-26344D01*
G01Y-26346D01*
G01Y-26350D01*
G01X60421Y-26356D01*
G01X60420Y-26362D01*
G01X60419Y-26370D01*
G01Y-26382D01*
G01X60397D01*
G01X60379D01*
G01X60373Y-26381D01*
G01X60370D01*
G01X60367Y-26380D01*
G01X60359Y-26379D01*
G01X60317Y-26378D01*
G01X60311D01*
G01X60307Y-26377D01*
G01X60305D01*
G01X60297Y-26376D01*
G01X60255Y-26375D01*
G01X60246Y-26374D01*
G01X60243Y-26373D01*
G01X60234Y-26372D01*
G01X60190D01*
G01X60183Y-26371D01*
G01X60179Y-26370D01*
G01X60176D01*
G01X60169Y-26369D01*
G01X60127Y-26368D01*
G01X60120D01*
G01X60117Y-26367D01*
G01X60114Y-26366D01*
G01X60106D01*
G01X60065Y-26365D01*
G01X60056Y-26364D01*
G01X60054Y-26363D01*
G01X60049D01*
G01X60043Y-26362D01*
G01X60032D01*
G01X60015D01*
G01X59817D01*
G01Y-27016D01*
G01X60015D01*
G01Y-26874D01*
G01X60016Y-26727D01*
G01Y-26717D01*
G01X60017Y-26710D01*
G01X60019Y-26699D01*
G01X60021Y-26689D01*
G01X60025Y-26671D01*
G01X60026Y-26665D01*
G01X60027Y-26661D01*
G01X60031Y-26653D01*
G01X60034Y-26643D01*
G01X60037Y-26636D01*
G01X60042Y-26628D01*
G01X60047Y-26618D01*
G01X60051Y-26613D01*
G01X60053Y-26610D01*
G01X60057Y-26605D01*
G01X60064Y-26595D01*
G01X60069Y-26589D01*
G01X60075Y-26585D01*
G01X60090Y-26573D01*
G01X60094Y-26570D01*
G01X60098Y-26568D01*
G01X60109Y-26563D01*
G01X60122Y-26558D01*
G01X60130Y-26555D01*
G01X60142Y-26552D01*
G01X60150Y-26550D01*
G01X60159Y-26549D01*
G01X60188D01*
G01X60221Y-26550D01*
G01X60228D01*
G01X60231Y-26551D01*
G01X60257Y-26556D01*
G01X60286Y-26566D01*
G01X60295Y-26570D01*
G01X60299Y-26572D01*
G01X60314Y-26584D01*
G01X60321Y-26589D01*
G01X60327Y-26594D01*
G01X60334Y-26599D01*
G01X60338Y-26603D01*
G01X60342Y-26609D01*
G01X60349Y-26617D01*
G01X60354Y-26623D01*
G01X60373Y-26654D01*
G01X60375Y-26660D01*
G01X60378Y-26670D01*
G01X60382Y-26679D01*
G01X60384Y-26682D01*
G01X60385Y-26690D01*
G01Y-26696D01*
G01X60386Y-26699D01*
G01X60388Y-26701D01*
G01X60390Y-26703D01*
G01X60392D01*
G01X60393Y-26704D01*
G01X60395D01*
G01X60398Y-26703D01*
G01X60402Y-26702D01*
G01X60473Y-26674D01*
G01X60479Y-26671D01*
G01X60497Y-26663D01*
G01X60506Y-26660D01*
G01X60518Y-26655D01*
G01X60531Y-26649D01*
G01X60541Y-26646D01*
G01X60553Y-26642D01*
G01X60566Y-26635D01*
G01X60575Y-26632D01*
G01X60587Y-26627D01*
G01X60601Y-26622D01*
G01X60610Y-26618D01*
G01X60622Y-26614D01*
G01X60631Y-26610D01*
G01X60643Y-26604D01*
G01X60713Y-26577D01*
G01X60717Y-26574D01*
G01X60723Y-26571D01*
G01X60730Y-26568D01*
G01X60737Y-26563D01*
G01X60740Y-26560D01*
G01X60742Y-26557D01*
G01X60745Y-26552D01*
G01X60749Y-26546D01*
G01X60750Y-26542D01*
G01X60751Y-26537D01*
G01X60752Y-26521D01*
G01Y-26504D01*
G01X60777D01*
G01Y-26563D01*
G01X60776Y-26615D01*
G01X60775Y-26625D01*
G01Y-26627D01*
G01X60774Y-26628D01*
G01Y-26629D01*
G01X60773Y-26630D01*
G01X60768Y-26633D01*
G01X60762Y-26636D01*
G01X60745Y-26642D01*
G01X60733Y-26647D01*
G01X60721Y-26652D01*
G01X60711Y-26655D01*
G01X60703Y-26658D01*
G01X60692Y-26663D01*
G01X60664Y-26674D01*
G01X60645Y-26681D01*
G01X60627Y-26687D01*
G01X60616Y-26692D01*
G01X60603Y-26697D01*
G01X60593Y-26700D01*
G01X60586Y-26703D01*
G01X60574Y-26708D01*
G01X60563Y-26713D01*
G01X60546Y-26718D01*
G01X60527Y-26726D01*
G01X60510Y-26732D01*
G01X60498Y-26737D01*
G01X60485Y-26743D01*
G01X60472Y-26747D01*
G01X60454Y-26754D01*
G01X60437Y-26760D01*
G01X60426Y-26764D01*
G01X60412Y-26771D01*
G01X60402Y-26774D01*
G01X60392Y-26777D01*
G01Y-26878D01*
G01X60553D01*
G01X60695Y-26877D01*
G01X60721Y-26876D01*
G01X60723D01*
G01X60727Y-26875D01*
G01X60730Y-26874D01*
G01X60734Y-26873D01*
G01X60736Y-26871D01*
G01X60738Y-26870D01*
G01X60741Y-26868D01*
G01X60745Y-26863D01*
G01X60747Y-26859D01*
G01X60748Y-26856D01*
G01X60750Y-26851D01*
G01X60751Y-26844D01*
G01X60752Y-26838D01*
G01Y-26812D01*
G01X60777D01*
G01Y-27016D01*
G01X60752D01*
G01Y-27001D01*
G01Y-26993D01*
G01X60751Y-26986D01*
G01X60750Y-26979D01*
G01X60749Y-26973D01*
G01X60748Y-26970D01*
G01X60746Y-26965D01*
G01X60743Y-26961D01*
G01X60741Y-26959D01*
G01X60736Y-26955D01*
G01X60735D01*
G01X60730Y-26954D01*
G01X60717Y-26953D01*
G01X60399Y-26950D01*
G01X60085Y-26952D01*
G01X60062Y-26953D01*
G01X60059Y-26954D01*
G01X60055Y-26956D01*
G01X60051Y-26958D01*
G01X60048Y-26960D01*
G01X60046Y-26963D01*
G01X60043Y-26968D01*
G01X60041Y-26973D01*
G01X60040Y-26975D01*
G01X60039Y-26983D01*
G01X60038Y-26997D01*
G01Y-27016D01*
G01X60015D01*
G01X59817D01*
G01Y-27051D01*
G01X60960D01*
G01Y-25908D01*
G37*
G36*
G01X60207Y-26625D02*
G01X60186Y-26625D01*
G01X60177Y-26626D01*
G01X60173Y-26627D01*
G01X60167Y-26628D01*
G01X60157Y-26629D01*
G01X60153Y-26630D01*
G01X60144Y-26632D01*
G01X60133Y-26635D01*
G01X60123Y-26639D01*
G01X60116Y-26642D01*
G01X60113Y-26644D01*
G01X60104Y-26649D01*
G01X60094Y-26655D01*
G01X60091Y-26657D01*
G01X60089Y-26659D01*
G01X60087Y-26661D01*
G01X60083Y-26666D01*
G01X60076Y-26672D01*
G01X60072Y-26676D01*
G01X60068Y-26681D01*
G01X60062Y-26688D01*
G01X60060Y-26691D01*
G01X60058Y-26695D01*
G01X60055Y-26701D01*
G01X60049Y-26718D01*
G01X60044Y-26734D01*
G01X60043Y-26740D01*
G01X60042Y-26750D01*
G01X60041Y-26756D01*
G01X60040Y-26760D01*
G01X60039Y-26770D01*
G01X60038Y-26798D01*
G01X60039Y-26814D01*
G01X60040Y-26838D01*
G01X60041Y-26845D01*
G01X60042Y-26851D01*
G01X60043Y-26856D01*
G01X60047Y-26864D01*
G01X60053Y-26870D01*
G01X60058Y-26874D01*
G01Y-26875D01*
G01X60059D01*
G01X60063D01*
G01X60074Y-26876D01*
G01X60214Y-26878D01*
G01X60363Y-26876D01*
G01X60366D01*
G01X60367Y-26874D01*
G01Y-26867D01*
G01X60368Y-26827D01*
G01X60367Y-26785D01*
G01X60366Y-26778D01*
G01Y-26776D01*
G01X60365Y-26773D01*
G01X60364Y-26765D01*
G01Y-26755D01*
G01Y-26749D01*
G01X60362Y-26744D01*
G01X60361Y-26738D01*
G01X60354Y-26715D01*
G01X60350Y-26705D01*
G01X60348Y-26700D01*
G01X60345Y-26696D01*
G01X60340Y-26689D01*
G01X60338Y-26686D01*
G01X60333Y-26680D01*
G01X60328Y-26670D01*
G01X60323Y-26665D01*
G01X60318Y-26661D01*
G01X60303Y-26650D01*
G01X60299Y-26647D01*
G01X60294Y-26644D01*
G01X60283Y-26640D01*
G01X60272Y-26634D01*
G01X60266Y-26632D01*
G01X60261Y-26631D01*
G01X60249Y-26629D01*
G01X60241Y-26627D01*
G01X60235Y-26626D01*
G01X60227Y-26625D01*
G37*
G36*
G01X59817Y-30734D02*
G01X59817Y-30985D01*
G01X60008D01*
G01Y-30954D01*
G01X60009Y-30940D01*
G01X60010Y-30933D01*
G01X60012Y-30927D01*
G01X60013Y-30921D01*
G01X60016Y-30914D01*
G01X60023Y-30898D01*
G01X60025Y-30894D01*
G01X60027Y-30890D01*
G01X60038Y-30874D01*
G01X60043Y-30870D01*
G01X60050Y-30864D01*
G01X60054Y-30859D01*
G01X60057Y-30855D01*
G01X60059Y-30853D01*
G01X60064Y-30849D01*
G01X60068Y-30847D01*
G01X60083Y-30837D01*
G01X60085D01*
G01X60088Y-30836D01*
G01X60095Y-30835D01*
G01X60103D01*
G01X60116D01*
G01X60120Y-30836D01*
G01X60123D01*
G01X60138Y-30841D01*
G01X60142Y-30843D01*
G01X60145Y-30846D01*
G01X60148Y-30849D01*
G01X60151Y-30853D01*
G01X60152Y-30856D01*
G01X60154Y-30862D01*
G01X60156Y-30869D01*
G01Y-30874D01*
G01Y-30886D01*
G01Y-30894D01*
G01X60154Y-30901D01*
G01X60152Y-30907D01*
G01X60150Y-30911D01*
G01X60147Y-30915D01*
G01X60144Y-30918D01*
G01X60140Y-30921D01*
G01X60135Y-30924D01*
G01X60131Y-30926D01*
G01X60126Y-30927D01*
G01X60122Y-30928D01*
G01X60116D01*
G01X60109Y-30927D01*
G01X60106Y-30926D01*
G01X60100Y-30925D01*
G01X60095Y-30924D01*
G01X60080D01*
G01X60072Y-30925D01*
G01X60068Y-30926D01*
G01X60062Y-30928D01*
G01X60058Y-30930D01*
G01X60054Y-30933D01*
G01X60050Y-30936D01*
G01X60047Y-30939D01*
G01X60044Y-30943D01*
G01X60042Y-30948D01*
G01X60040Y-30954D01*
G01X60037Y-30962D01*
G01Y-30968D01*
G01X60036Y-30975D01*
G01Y-30981D01*
G01Y-30985D01*
G01X60037Y-30992D01*
G01X60038Y-30998D01*
G01X60039Y-31007D01*
G01X60040Y-31012D01*
G01X60041Y-31017D01*
G01X60042Y-31023D01*
G01X60046Y-31034D01*
G01X60049Y-31044D01*
G01X60051Y-31048D01*
G01X60054Y-31055D01*
G01X60058Y-31061D01*
G01X60062Y-31069D01*
G01X60064Y-31071D01*
G01X60067Y-31074D01*
G01X60072Y-31080D01*
G01X60078Y-31090D01*
G01X60085Y-31098D01*
G01X60089Y-31101D01*
G01X60106Y-31115D01*
G01X60115Y-31121D01*
G01X60122Y-31125D01*
G01X60144Y-31136D01*
G01X60153Y-31139D01*
G01X60176Y-31146D01*
G01X60193Y-31152D01*
G01X60201Y-31153D01*
G01X60221Y-31156D01*
G01X60231Y-31158D01*
G01X60236Y-31159D01*
G01X60241Y-31160D01*
G01X60252D01*
G01X60263Y-31162D01*
G01X60268Y-31163D01*
G01X60273D01*
G01X60284D01*
G01X60299Y-31164D01*
G01X60304D01*
G01X60307Y-31165D01*
G01X60309Y-31166D01*
G01X60317D01*
G01X60352Y-31167D01*
G01X60381Y-31166D01*
G01X60389Y-31165D01*
G01X60390Y-31163D01*
G01X60388Y-31161D01*
G01X60385Y-31157D01*
G01X60378Y-31153D01*
G01X60372Y-31149D01*
G01X60367Y-31147D01*
G01X60365Y-31145D01*
G01X60363Y-31143D01*
G01X60361Y-31141D01*
G01X60359Y-31138D01*
G01X60356Y-31136D01*
G01X60347Y-31130D01*
G01X60345Y-31128D01*
G01X60343Y-31126D01*
G01X60341Y-31121D01*
G01X60339Y-31119D01*
G01X60337Y-31117D01*
G01X60334Y-31114D01*
G01X60331Y-31111D01*
G01X60327Y-31107D01*
G01X60324Y-31103D01*
G01X60315Y-31088D01*
G01X60311Y-31081D01*
G01X60306Y-31069D01*
G01X60300Y-31056D01*
G01X60299Y-31052D01*
G01X60298Y-31047D01*
G01X60296Y-31037D01*
G01X60294Y-31030D01*
G01X60292Y-31024D01*
G01Y-31015D01*
G01X60291Y-30999D01*
G01X60292Y-30984D01*
G01Y-30973D01*
G01X60294Y-30968D01*
G01X60298Y-30941D01*
G01X60300Y-30932D01*
G01X60302Y-30923D01*
G01X60304Y-30917D01*
G01X60305Y-30912D01*
G01X60307Y-30908D01*
G01X60310Y-30904D01*
G01X60313Y-30898D01*
G01X60317Y-30887D01*
G01X60321Y-30881D01*
G01X60323Y-30878D01*
G01X60328Y-30873D01*
G01X60334Y-30864D01*
G01X60337Y-30860D01*
G01X60339Y-30857D01*
G01X60344Y-30853D01*
G01X60351Y-30847D01*
G01X60357Y-30843D01*
G01X60363Y-30840D01*
G01X60382Y-30827D01*
G01X60389Y-30824D01*
G01X60410Y-30814D01*
G01X60419Y-30810D01*
G01X60442Y-30803D01*
G01X60460Y-30798D01*
G01X60465Y-30797D01*
G01X60475Y-30796D01*
G01X60481Y-30795D01*
G01X60486Y-30794D01*
G01X60495Y-30793D01*
G01X60517D01*
G01X60546D01*
G01X60560Y-30794D01*
G01X60588Y-30798D01*
G01X60593Y-30799D01*
G01X60602Y-30801D01*
G01X60612Y-30803D01*
G01X60631Y-30807D01*
G01X60635Y-30808D01*
G01X60645Y-30812D01*
G01X60657Y-30817D01*
G01X60663Y-30820D01*
G01X60672Y-30824D01*
G01X60679Y-30827D01*
G01X60687Y-30833D01*
G01X60692Y-30835D01*
G01X60697Y-30837D01*
G01X60700Y-30839D01*
G01X60702Y-30841D01*
G01X60704Y-30844D01*
G01X60707Y-30847D01*
G01X60712Y-30851D01*
G01X60720Y-30856D01*
G01X60723Y-30859D01*
G01X60726Y-30862D01*
G01X60730Y-30869D01*
G01X60732Y-30872D01*
G01X60734Y-30874D01*
G01X60738Y-30877D01*
G01X60741Y-30879D01*
G01X60745Y-30884D01*
G01X60752Y-30896D01*
G01X60756Y-30901D01*
G01X60758Y-30904D01*
G01X60761Y-30908D01*
G01X60765Y-30918D01*
G01X60771Y-30932D01*
G01X60774Y-30939D01*
G01X60777Y-30947D01*
G01X60782Y-30965D01*
G01Y-30966D01*
G01X60783Y-30975D01*
G01Y-31011D01*
G01Y-31029D01*
G01X60782Y-31051D01*
G01Y-31055D01*
G01X60781D01*
G01Y-31056D01*
G01X60780Y-31061D01*
G01X60777Y-31076D01*
G01X60775Y-31081D01*
G01X60774Y-31086D01*
G01X60770Y-31094D01*
G01X60766Y-31105D01*
G01X60765Y-31108D01*
G01X60763Y-31112D01*
G01X60761Y-31117D01*
G01X60751Y-31134D01*
G01X60746Y-31141D01*
G01X60744Y-31144D01*
G01X60739Y-31150D01*
G01X60733Y-31157D01*
G01X60729Y-31162D01*
G01X60721Y-31167D01*
G01X60716Y-31174D01*
G01X60712Y-31179D01*
G01X60707Y-31183D01*
G01X60699Y-31189D01*
G01X60696Y-31191D01*
G01X60686Y-31196D01*
G01X60681Y-31200D01*
G01X60672Y-31206D01*
G01X60668Y-31208D01*
G01X60665Y-31210D01*
G01X60654Y-31215D01*
G01X60637Y-31222D01*
G01X60627Y-31226D01*
G01X60591Y-31238D01*
G01X60584Y-31239D01*
G01X60568Y-31243D01*
G01X60560Y-31244D01*
G01X60551Y-31246D01*
G01X60541Y-31247D01*
G01X60535Y-31248D01*
G01X60531Y-31249D01*
G01X60526Y-31250D01*
G01X60512D01*
G01X60504Y-31251D01*
G01X60500Y-31252D01*
G01X60492Y-31253D01*
G01X60432Y-31254D01*
G01X60375Y-31253D01*
G01X60365Y-31252D01*
G01X60363D01*
G01X60360Y-31251D01*
G01X60352Y-31250D01*
G01X60336D01*
G01X60324Y-31248D01*
G01X60300Y-31245D01*
G01X60295Y-31244D01*
G01X60286Y-31243D01*
G01X60276Y-31239D01*
G01X60260Y-31237D01*
G01X60251Y-31236D01*
G01X60245Y-31234D01*
G01X60240Y-31233D01*
G01X60218Y-31226D01*
G01X60206Y-31223D01*
G01X60198Y-31221D01*
G01X60191Y-31217D01*
G01X60179Y-31212D01*
G01X60161Y-31205D01*
G01X60157Y-31203D01*
G01X60144Y-31196D01*
G01X60127Y-31186D01*
G01X60120Y-31181D01*
G01X60113Y-31176D01*
G01X60111Y-31174D01*
G01X60109Y-31173D01*
G01X60104Y-31171D01*
G01X60099Y-31168D01*
G01X60096Y-31163D01*
G01X60094Y-31161D01*
G01X60091Y-31159D01*
G01X60086Y-31157D01*
G01X60084Y-31156D01*
G01X60082Y-31154D01*
G01X60079Y-31149D01*
G01X60074Y-31144D01*
G01X60069Y-31141D01*
G01X60067Y-31139D01*
G01X60066Y-31136D01*
G01X60063Y-31132D01*
G01X60062Y-31129D01*
G01X60060Y-31127D01*
G01X60056Y-31125D01*
G01X60054Y-31122D01*
G01X60050Y-31117D01*
G01X60047Y-31113D01*
G01X60037Y-31096D01*
G01X60033Y-31090D01*
G01X60028Y-31080D01*
G01X60027Y-31077D01*
G01X60024Y-31070D01*
G01X60021Y-31060D01*
G01X60016Y-31049D01*
G01X60015Y-31045D01*
G01X60014Y-31040D01*
G01X60012Y-31031D01*
G01X60010Y-31023D01*
G01X60009Y-31019D01*
G01Y-31017D01*
G01X60008Y-31008D01*
G01Y-30985D01*
G01X59817D01*
G01Y-31842D01*
G01X60015D01*
G01Y-31700D01*
G01X60016Y-31553D01*
G01Y-31543D01*
G01X60017Y-31536D01*
G01X60019Y-31525D01*
G01X60021Y-31515D01*
G01X60025Y-31497D01*
G01X60026Y-31491D01*
G01X60027Y-31487D01*
G01X60031Y-31479D01*
G01X60034Y-31469D01*
G01X60037Y-31462D01*
G01X60042Y-31454D01*
G01X60047Y-31444D01*
G01X60051Y-31439D01*
G01X60053Y-31436D01*
G01X60057Y-31431D01*
G01X60064Y-31421D01*
G01X60069Y-31415D01*
G01X60075Y-31411D01*
G01X60090Y-31399D01*
G01X60094Y-31396D01*
G01X60098Y-31394D01*
G01X60109Y-31389D01*
G01X60122Y-31384D01*
G01X60130Y-31381D01*
G01X60142Y-31378D01*
G01X60150Y-31376D01*
G01X60159Y-31375D01*
G01X60188D01*
G01X60221Y-31376D01*
G01X60228D01*
G01X60231Y-31377D01*
G01X60257Y-31382D01*
G01X60286Y-31392D01*
G01X60295Y-31396D01*
G01X60299Y-31398D01*
G01X60314Y-31410D01*
G01X60321Y-31415D01*
G01X60327Y-31420D01*
G01X60334Y-31425D01*
G01X60338Y-31429D01*
G01X60342Y-31435D01*
G01X60349Y-31443D01*
G01X60354Y-31449D01*
G01X60373Y-31480D01*
G01X60375Y-31486D01*
G01X60378Y-31496D01*
G01X60382Y-31505D01*
G01X60384Y-31508D01*
G01X60385Y-31516D01*
G01Y-31522D01*
G01X60386Y-31525D01*
G01X60388Y-31527D01*
G01X60390Y-31529D01*
G01X60392D01*
G01X60393Y-31530D01*
G01X60395D01*
G01X60398Y-31529D01*
G01X60402Y-31528D01*
G01X60473Y-31500D01*
G01X60479Y-31497D01*
G01X60497Y-31489D01*
G01X60506Y-31486D01*
G01X60518Y-31481D01*
G01X60531Y-31475D01*
G01X60541Y-31472D01*
G01X60553Y-31468D01*
G01X60566Y-31461D01*
G01X60575Y-31458D01*
G01X60587Y-31453D01*
G01X60601Y-31448D01*
G01X60610Y-31444D01*
G01X60622Y-31440D01*
G01X60631Y-31436D01*
G01X60643Y-31430D01*
G01X60713Y-31403D01*
G01X60717Y-31400D01*
G01X60723Y-31397D01*
G01X60730Y-31394D01*
G01X60737Y-31389D01*
G01X60740Y-31386D01*
G01X60742Y-31383D01*
G01X60745Y-31378D01*
G01X60749Y-31372D01*
G01X60750Y-31368D01*
G01X60751Y-31363D01*
G01X60752Y-31347D01*
G01Y-31330D01*
G01X60777D01*
G01Y-31389D01*
G01X60776Y-31441D01*
G01X60775Y-31451D01*
G01Y-31453D01*
G01X60774Y-31454D01*
G01Y-31455D01*
G01X60773Y-31456D01*
G01X60768Y-31459D01*
G01X60762Y-31462D01*
G01X60745Y-31468D01*
G01X60733Y-31473D01*
G01X60721Y-31478D01*
G01X60711Y-31481D01*
G01X60703Y-31484D01*
G01X60692Y-31489D01*
G01X60664Y-31500D01*
G01X60645Y-31507D01*
G01X60627Y-31513D01*
G01X60616Y-31518D01*
G01X60603Y-31523D01*
G01X60593Y-31526D01*
G01X60586Y-31529D01*
G01X60574Y-31534D01*
G01X60563Y-31539D01*
G01X60546Y-31544D01*
G01X60527Y-31552D01*
G01X60510Y-31558D01*
G01X60498Y-31563D01*
G01X60485Y-31569D01*
G01X60472Y-31573D01*
G01X60454Y-31580D01*
G01X60437Y-31586D01*
G01X60426Y-31590D01*
G01X60412Y-31597D01*
G01X60402Y-31600D01*
G01X60392Y-31603D01*
G01Y-31704D01*
G01X60553D01*
G01X60695Y-31703D01*
G01X60721Y-31702D01*
G01X60723D01*
G01X60727Y-31701D01*
G01X60730Y-31700D01*
G01X60734Y-31699D01*
G01X60736Y-31697D01*
G01X60738Y-31696D01*
G01X60741Y-31694D01*
G01X60745Y-31689D01*
G01X60747Y-31685D01*
G01X60748Y-31682D01*
G01X60750Y-31677D01*
G01X60751Y-31670D01*
G01X60752Y-31664D01*
G01Y-31638D01*
G01X60777D01*
G01Y-31842D01*
G01X60752D01*
G01Y-31827D01*
G01Y-31819D01*
G01X60751Y-31812D01*
G01X60750Y-31805D01*
G01X60749Y-31799D01*
G01X60748Y-31796D01*
G01X60746Y-31791D01*
G01X60743Y-31787D01*
G01X60741Y-31785D01*
G01X60736Y-31781D01*
G01X60735D01*
G01X60730Y-31780D01*
G01X60717Y-31779D01*
G01X60399Y-31776D01*
G01X60085Y-31778D01*
G01X60062Y-31779D01*
G01X60059Y-31780D01*
G01X60055Y-31782D01*
G01X60051Y-31784D01*
G01X60048Y-31786D01*
G01X60046Y-31789D01*
G01X60043Y-31794D01*
G01X60041Y-31799D01*
G01X60040Y-31801D01*
G01X60039Y-31809D01*
G01X60038Y-31823D01*
G01Y-31842D01*
G01X60015D01*
G01X59817D01*
G01Y-31877D01*
G01X60960D01*
G01Y-30734D01*
G37*
G36*
G01X60532Y-30869D02*
G01X60522Y-30870D01*
G01X60518D01*
G01X60509Y-30872D01*
G01X60494Y-30873D01*
G01X60477Y-30874D01*
G01X60459Y-30877D01*
G01X60450Y-30879D01*
G01X60438Y-30882D01*
G01X60430Y-30885D01*
G01X60423Y-30888D01*
G01X60403Y-30897D01*
G01X60397Y-30900D01*
G01X60387Y-30907D01*
G01X60380Y-30912D01*
G01X60374Y-30917D01*
G01X60367Y-30923D01*
G01X60363Y-30927D01*
G01X60359Y-30932D01*
G01X60353Y-30939D01*
G01X60351Y-30942D01*
G01X60349Y-30946D01*
G01X60344Y-30957D01*
G01X60340Y-30967D01*
G01X60339Y-30969D01*
G01X60338Y-30974D01*
G01X60337Y-30983D01*
G01Y-30997D01*
G01Y-31013D01*
G01X60338Y-31023D01*
G01X60339Y-31029D01*
G01X60341Y-31038D01*
G01X60344Y-31048D01*
G01X60350Y-31065D01*
G01X60356Y-31077D01*
G01X60362Y-31084D01*
G01X60365Y-31090D01*
G01X60367Y-31095D01*
G01X60369Y-31097D01*
G01X60371Y-31099D01*
G01X60375Y-31103D01*
G01X60380Y-31107D01*
G01X60382Y-31111D01*
G01X60386Y-31116D01*
G01X60390Y-31119D01*
G01X60398Y-31125D01*
G01X60408Y-31132D01*
G01X60437Y-31151D01*
G01X60443Y-31154D01*
G01X60457Y-31160D01*
G01X60464Y-31164D01*
G01X60465D01*
G01X60473Y-31166D01*
G01X60479Y-31167D01*
G01X60504D01*
G01X60522Y-31166D01*
G01X60529Y-31165D01*
G01X60564Y-31161D01*
G01X60574Y-31159D01*
G01X60584Y-31157D01*
G01X60604Y-31153D01*
G01X60616Y-31150D01*
G01X60624Y-31147D01*
G01X60631Y-31144D01*
G01X60641Y-31140D01*
G01X60652Y-31136D01*
G01X60656Y-31135D01*
G01X60664Y-31131D01*
G01X60681Y-31120D01*
G01X60689Y-31116D01*
G01X60695Y-31110D01*
G01X60697Y-31108D01*
G01X60699Y-31107D01*
G01X60704Y-31105D01*
G01X60707Y-31104D01*
G01X60709Y-31102D01*
G01X60713Y-31097D01*
G01X60717Y-31093D01*
G01X60721Y-31090D01*
G01X60723Y-31088D01*
G01X60727Y-31082D01*
G01X60734Y-31071D01*
G01X60736Y-31069D01*
G01X60740Y-31065D01*
G01X60742Y-31062D01*
G01X60743Y-31059D01*
G01X60746Y-31049D01*
G01X60750Y-31040D01*
G01X60751Y-31037D01*
G01X60752Y-31033D01*
G01Y-31029D01*
G01X60753Y-31019D01*
G01Y-31017D01*
G01X60755Y-31014D01*
G01Y-31007D01*
G01X60753Y-30994D01*
G01X60751Y-30978D01*
G01X60748Y-30969D01*
G01X60745Y-30959D01*
G01X60742Y-30950D01*
G01X60739Y-30943D01*
G01X60730Y-30930D01*
G01X60724Y-30921D01*
G01X60712Y-30911D01*
G01X60702Y-30904D01*
G01X60692Y-30897D01*
G01X60689Y-30895D01*
G01X60683Y-30892D01*
G01X60672Y-30889D01*
G01X60664Y-30885D01*
G01X60657Y-30883D01*
G01X60652Y-30882D01*
G01X60641Y-30880D01*
G01X60632Y-30879D01*
G01X60624Y-30876D01*
G01X60614D01*
G01X60607Y-30875D01*
G01X60602Y-30874D01*
G01X60594Y-30873D01*
G01X60559Y-30872D01*
G01X60551Y-30871D01*
G01X60546Y-30870D01*
G01X60540Y-30869D01*
G37*
G36*
G01X60207Y-31451D02*
G01X60186Y-31451D01*
G01X60177Y-31452D01*
G01X60173Y-31453D01*
G01X60167Y-31454D01*
G01X60157Y-31455D01*
G01X60153Y-31456D01*
G01X60144Y-31458D01*
G01X60133Y-31461D01*
G01X60123Y-31465D01*
G01X60116Y-31468D01*
G01X60113Y-31470D01*
G01X60104Y-31475D01*
G01X60094Y-31481D01*
G01X60091Y-31483D01*
G01X60089Y-31485D01*
G01X60087Y-31487D01*
G01X60083Y-31492D01*
G01X60076Y-31498D01*
G01X60072Y-31502D01*
G01X60068Y-31507D01*
G01X60062Y-31514D01*
G01X60060Y-31517D01*
G01X60058Y-31521D01*
G01X60055Y-31527D01*
G01X60049Y-31544D01*
G01X60044Y-31560D01*
G01X60043Y-31566D01*
G01X60042Y-31576D01*
G01X60041Y-31582D01*
G01X60040Y-31586D01*
G01X60039Y-31596D01*
G01X60038Y-31624D01*
G01X60039Y-31640D01*
G01X60040Y-31664D01*
G01X60041Y-31671D01*
G01X60042Y-31677D01*
G01X60043Y-31682D01*
G01X60047Y-31690D01*
G01X60053Y-31696D01*
G01X60058Y-31700D01*
G01Y-31701D01*
G01X60059D01*
G01X60063D01*
G01X60074Y-31702D01*
G01X60214Y-31704D01*
G01X60363Y-31702D01*
G01X60366D01*
G01X60367Y-31700D01*
G01Y-31693D01*
G01X60368Y-31653D01*
G01X60367Y-31611D01*
G01X60366Y-31604D01*
G01Y-31602D01*
G01X60365Y-31599D01*
G01X60364Y-31591D01*
G01Y-31581D01*
G01Y-31575D01*
G01X60362Y-31570D01*
G01X60361Y-31564D01*
G01X60354Y-31541D01*
G01X60350Y-31531D01*
G01X60348Y-31526D01*
G01X60345Y-31522D01*
G01X60340Y-31515D01*
G01X60338Y-31512D01*
G01X60333Y-31506D01*
G01X60328Y-31496D01*
G01X60323Y-31491D01*
G01X60318Y-31487D01*
G01X60303Y-31476D01*
G01X60299Y-31473D01*
G01X60294Y-31470D01*
G01X60283Y-31466D01*
G01X60272Y-31460D01*
G01X60266Y-31458D01*
G01X60261Y-31457D01*
G01X60249Y-31455D01*
G01X60241Y-31453D01*
G01X60235Y-31452D01*
G01X60227Y-31451D01*
G37*
G04 Text End*

G04 PolygonModel Start*
G54D11*
G01X63754Y-32512D02*
G01X61214Y-32512D01*
G01X63754Y3048D02*
G01X63754Y-32512D01*
G01X61214Y3048D02*
G01X61214Y-32512D01*
G01X63754Y3048D02*
G01X61214Y3048D01*
G01X9680Y-32619D02*
G01X9680Y-30119D01*
G01X47780Y-30119D02*
G01X9680Y-30119D01*
G01X47780Y-32619D02*
G01X9680Y-32619D01*
G01X45212Y-32619D02*
G01X45212Y-30119D01*
G01X47780Y-30119D02*
G01X47780Y-32619D01*
G54D12*
G01X-1582Y2201D02*
G01X-1582Y1573D01*
G01X-1582Y1573D02*
G01X-952Y2201D01*
G36*
G01X-1510Y1744D02*
G01X-1010Y2244D01*
G01X-1510D01*
G01Y1744D01*
G37*
G01X18935Y2200D02*
G01X18935Y1572D01*
G01X18935Y1572D02*
G01X19565Y2200D01*
G36*
G01X19007Y1743D02*
G01X19507Y2243D01*
G01X19007D01*
G01Y1743D01*
G37*
G01X39435Y2200D02*
G01X39435Y1572D01*
G01X39435Y1572D02*
G01X40065Y2200D01*
G36*
G01X39507Y1743D02*
G01X40007Y2243D01*
G01X39507D01*
G01Y1743D01*
G37*
G01X-1600Y1330D02*
G01X-1600Y1400D01*
G01X-1600Y-170D02*
G01X-1600Y170D01*
G01X1600Y-1330D02*
G01X1600Y-1400D01*
G01X1600Y-1400D02*
G01X-1600Y-1400D01*
G01X-1600Y-1400D02*
G01X-1600Y-1330D01*
G01X1600Y170D02*
G01X1600Y-170D01*
G01X-1600Y1400D02*
G01X1600Y1400D01*
G01X1600Y1400D02*
G01X1600Y1330D01*
G01X2500Y1330D02*
G01X2500Y1400D01*
G01X2500Y-170D02*
G01X2500Y170D01*
G01X5700Y-1330D02*
G01X5700Y-1400D01*
G01X5700Y-1400D02*
G01X2500Y-1400D01*
G01X2500Y-1400D02*
G01X2500Y-1330D01*
G01X5700Y170D02*
G01X5700Y-170D01*
G01X2500Y1400D02*
G01X5700Y1400D01*
G01X5700Y1400D02*
G01X5700Y1330D01*
G01X6600Y1330D02*
G01X6600Y1400D01*
G01X6600Y-170D02*
G01X6600Y170D01*
G01X9800Y-1330D02*
G01X9800Y-1400D01*
G01X9800Y-1400D02*
G01X6600Y-1400D01*
G01X6600Y-1400D02*
G01X6600Y-1330D01*
G01X9800Y170D02*
G01X9800Y-170D01*
G01X6600Y1400D02*
G01X9800Y1400D01*
G01X9800Y1400D02*
G01X9800Y1330D01*
G01X10700Y1330D02*
G01X10700Y1400D01*
G01X10700Y-170D02*
G01X10700Y170D01*
G01X13900Y-1330D02*
G01X13900Y-1400D01*
G01X13900Y-1400D02*
G01X10700Y-1400D01*
G01X10700Y-1400D02*
G01X10700Y-1330D01*
G01X13900Y170D02*
G01X13900Y-170D01*
G01X10700Y1400D02*
G01X13900Y1400D01*
G01X13900Y1400D02*
G01X13900Y1330D01*
G01X14800Y1330D02*
G01X14800Y1400D01*
G01X14800Y-170D02*
G01X14800Y170D01*
G01X18000Y-1330D02*
G01X18000Y-1400D01*
G01X18000Y-1400D02*
G01X14800Y-1400D01*
G01X14800Y-1400D02*
G01X14800Y-1330D01*
G01X18000Y170D02*
G01X18000Y-170D01*
G01X14800Y1400D02*
G01X18000Y1400D01*
G01X18000Y1400D02*
G01X18000Y1330D01*
G01X-1600Y-2770D02*
G01X-1600Y-2700D01*
G01X-1600Y-4270D02*
G01X-1600Y-3930D01*
G01X1600Y-5430D02*
G01X1600Y-5500D01*
G01X1600Y-5500D02*
G01X-1600Y-5500D01*
G01X-1600Y-5500D02*
G01X-1600Y-5430D01*
G01X1600Y-3930D02*
G01X1600Y-4270D01*
G01X-1600Y-2700D02*
G01X1600Y-2700D01*
G01X1600Y-2700D02*
G01X1600Y-2770D01*
G01X2500Y-2770D02*
G01X2500Y-2700D01*
G01X2500Y-4270D02*
G01X2500Y-3930D01*
G01X5700Y-5430D02*
G01X5700Y-5500D01*
G01X5700Y-5500D02*
G01X2500Y-5500D01*
G01X2500Y-5500D02*
G01X2500Y-5430D01*
G01X5700Y-3930D02*
G01X5700Y-4270D01*
G01X2500Y-2700D02*
G01X5700Y-2700D01*
G01X5700Y-2700D02*
G01X5700Y-2770D01*
G01X6600Y-2770D02*
G01X6600Y-2700D01*
G01X6600Y-4270D02*
G01X6600Y-3930D01*
G01X9800Y-5430D02*
G01X9800Y-5500D01*
G01X9800Y-5500D02*
G01X6600Y-5500D01*
G01X6600Y-5500D02*
G01X6600Y-5430D01*
G01X9800Y-3930D02*
G01X9800Y-4270D01*
G01X6600Y-2700D02*
G01X9800Y-2700D01*
G01X9800Y-2700D02*
G01X9800Y-2770D01*
G01X10700Y-2770D02*
G01X10700Y-2700D01*
G01X10700Y-4270D02*
G01X10700Y-3930D01*
G01X13900Y-5430D02*
G01X13900Y-5500D01*
G01X13900Y-5500D02*
G01X10700Y-5500D01*
G01X10700Y-5500D02*
G01X10700Y-5430D01*
G01X13900Y-3930D02*
G01X13900Y-4270D01*
G01X10700Y-2700D02*
G01X13900Y-2700D01*
G01X13900Y-2700D02*
G01X13900Y-2770D01*
G01X14800Y-2770D02*
G01X14800Y-2700D01*
G01X14800Y-4270D02*
G01X14800Y-3930D01*
G01X18000Y-5430D02*
G01X18000Y-5500D01*
G01X18000Y-5500D02*
G01X14800Y-5500D01*
G01X14800Y-5500D02*
G01X14800Y-5430D01*
G01X18000Y-3930D02*
G01X18000Y-4270D01*
G01X14800Y-2700D02*
G01X18000Y-2700D01*
G01X18000Y-2700D02*
G01X18000Y-2770D01*
G01X-1600Y-6870D02*
G01X-1600Y-6800D01*
G01X-1600Y-8370D02*
G01X-1600Y-8030D01*
G01X1600Y-9530D02*
G01X1600Y-9600D01*
G01X1600Y-9600D02*
G01X-1600Y-9600D01*
G01X-1600Y-9600D02*
G01X-1600Y-9530D01*
G01X1600Y-8030D02*
G01X1600Y-8370D01*
G01X-1600Y-6800D02*
G01X1600Y-6800D01*
G01X1600Y-6800D02*
G01X1600Y-6870D01*
G01X2500Y-6870D02*
G01X2500Y-6800D01*
G01X2500Y-8370D02*
G01X2500Y-8030D01*
G01X5700Y-9530D02*
G01X5700Y-9600D01*
G01X5700Y-9600D02*
G01X2500Y-9600D01*
G01X2500Y-9600D02*
G01X2500Y-9530D01*
G01X5700Y-8030D02*
G01X5700Y-8370D01*
G01X2500Y-6800D02*
G01X5700Y-6800D01*
G01X5700Y-6800D02*
G01X5700Y-6870D01*
G01X6600Y-6870D02*
G01X6600Y-6800D01*
G01X6600Y-8370D02*
G01X6600Y-8030D01*
G01X9800Y-9530D02*
G01X9800Y-9600D01*
G01X9800Y-9600D02*
G01X6600Y-9600D01*
G01X6600Y-9600D02*
G01X6600Y-9530D01*
G01X9800Y-8030D02*
G01X9800Y-8370D01*
G01X6600Y-6800D02*
G01X9800Y-6800D01*
G01X9800Y-6800D02*
G01X9800Y-6870D01*
G01X10700Y-6870D02*
G01X10700Y-6800D01*
G01X10700Y-8370D02*
G01X10700Y-8030D01*
G01X13900Y-9530D02*
G01X13900Y-9600D01*
G01X13900Y-9600D02*
G01X10700Y-9600D01*
G01X10700Y-9600D02*
G01X10700Y-9530D01*
G01X13900Y-8030D02*
G01X13900Y-8370D01*
G01X10700Y-6800D02*
G01X13900Y-6800D01*
G01X13900Y-6800D02*
G01X13900Y-6870D01*
G01X14800Y-6870D02*
G01X14800Y-6800D01*
G01X14800Y-8370D02*
G01X14800Y-8030D01*
G01X18000Y-9530D02*
G01X18000Y-9600D01*
G01X18000Y-9600D02*
G01X14800Y-9600D01*
G01X14800Y-9600D02*
G01X14800Y-9530D01*
G01X18000Y-8030D02*
G01X18000Y-8370D01*
G01X14800Y-6800D02*
G01X18000Y-6800D01*
G01X18000Y-6800D02*
G01X18000Y-6870D01*
G01X-1600Y-10970D02*
G01X-1600Y-10900D01*
G01X-1600Y-12470D02*
G01X-1600Y-12130D01*
G01X1600Y-13630D02*
G01X1600Y-13700D01*
G01X1600Y-13700D02*
G01X-1600Y-13700D01*
G01X-1600Y-13700D02*
G01X-1600Y-13630D01*
G01X1600Y-12130D02*
G01X1600Y-12470D01*
G01X-1600Y-10900D02*
G01X1600Y-10900D01*
G01X1600Y-10900D02*
G01X1600Y-10970D01*
G01X2500Y-10970D02*
G01X2500Y-10900D01*
G01X2500Y-12470D02*
G01X2500Y-12130D01*
G01X5700Y-13630D02*
G01X5700Y-13700D01*
G01X5700Y-13700D02*
G01X2500Y-13700D01*
G01X2500Y-13700D02*
G01X2500Y-13630D01*
G01X5700Y-12130D02*
G01X5700Y-12470D01*
G01X2500Y-10900D02*
G01X5700Y-10900D01*
G01X5700Y-10900D02*
G01X5700Y-10970D01*
G01X6600Y-10970D02*
G01X6600Y-10900D01*
G01X6600Y-12470D02*
G01X6600Y-12130D01*
G01X9800Y-13630D02*
G01X9800Y-13700D01*
G01X9800Y-13700D02*
G01X6600Y-13700D01*
G01X6600Y-13700D02*
G01X6600Y-13630D01*
G01X9800Y-12130D02*
G01X9800Y-12470D01*
G01X6600Y-10900D02*
G01X9800Y-10900D01*
G01X9800Y-10900D02*
G01X9800Y-10970D01*
G01X10700Y-10970D02*
G01X10700Y-10900D01*
G01X10700Y-12470D02*
G01X10700Y-12130D01*
G01X13900Y-13630D02*
G01X13900Y-13700D01*
G01X13900Y-13700D02*
G01X10700Y-13700D01*
G01X10700Y-13700D02*
G01X10700Y-13630D01*
G01X13900Y-12130D02*
G01X13900Y-12470D01*
G01X10700Y-10900D02*
G01X13900Y-10900D01*
G01X13900Y-10900D02*
G01X13900Y-10970D01*
G01X14800Y-10970D02*
G01X14800Y-10900D01*
G01X14800Y-12470D02*
G01X14800Y-12130D01*
G01X18000Y-13630D02*
G01X18000Y-13700D01*
G01X18000Y-13700D02*
G01X14800Y-13700D01*
G01X14800Y-13700D02*
G01X14800Y-13630D01*
G01X18000Y-12130D02*
G01X18000Y-12470D01*
G01X14800Y-10900D02*
G01X18000Y-10900D01*
G01X18000Y-10900D02*
G01X18000Y-10970D01*
G01X-1600Y-15070D02*
G01X-1600Y-15000D01*
G01X-1600Y-16570D02*
G01X-1600Y-16230D01*
G01X1600Y-17730D02*
G01X1600Y-17800D01*
G01X1600Y-17800D02*
G01X-1600Y-17800D01*
G01X-1600Y-17800D02*
G01X-1600Y-17730D01*
G01X1600Y-16230D02*
G01X1600Y-16570D01*
G01X-1600Y-15000D02*
G01X1600Y-15000D01*
G01X1600Y-15000D02*
G01X1600Y-15070D01*
G01X2500Y-15070D02*
G01X2500Y-15000D01*
G01X2500Y-16570D02*
G01X2500Y-16230D01*
G01X5700Y-17730D02*
G01X5700Y-17800D01*
G01X5700Y-17800D02*
G01X2500Y-17800D01*
G01X2500Y-17800D02*
G01X2500Y-17730D01*
G01X5700Y-16230D02*
G01X5700Y-16570D01*
G01X2500Y-15000D02*
G01X5700Y-15000D01*
G01X5700Y-15000D02*
G01X5700Y-15070D01*
G01X6600Y-15070D02*
G01X6600Y-15000D01*
G01X6600Y-16570D02*
G01X6600Y-16230D01*
G01X9800Y-17730D02*
G01X9800Y-17800D01*
G01X9800Y-17800D02*
G01X6600Y-17800D01*
G01X6600Y-17800D02*
G01X6600Y-17730D01*
G01X9800Y-16230D02*
G01X9800Y-16570D01*
G01X6600Y-15000D02*
G01X9800Y-15000D01*
G01X9800Y-15000D02*
G01X9800Y-15070D01*
G01X10700Y-15070D02*
G01X10700Y-15000D01*
G01X10700Y-16570D02*
G01X10700Y-16230D01*
G01X13900Y-17730D02*
G01X13900Y-17800D01*
G01X13900Y-17800D02*
G01X10700Y-17800D01*
G01X10700Y-17800D02*
G01X10700Y-17730D01*
G01X13900Y-16230D02*
G01X13900Y-16570D01*
G01X10700Y-15000D02*
G01X13900Y-15000D01*
G01X13900Y-15000D02*
G01X13900Y-15070D01*
G01X14800Y-15070D02*
G01X14800Y-15000D01*
G01X14800Y-16570D02*
G01X14800Y-16230D01*
G01X18000Y-17730D02*
G01X18000Y-17800D01*
G01X18000Y-17800D02*
G01X14800Y-17800D01*
G01X14800Y-17800D02*
G01X14800Y-17730D01*
G01X18000Y-16230D02*
G01X18000Y-16570D01*
G01X14800Y-15000D02*
G01X18000Y-15000D01*
G01X18000Y-15000D02*
G01X18000Y-15070D01*
G01X-1600Y-19170D02*
G01X-1600Y-19100D01*
G01X-1600Y-20670D02*
G01X-1600Y-20330D01*
G01X1600Y-21830D02*
G01X1600Y-21900D01*
G01X1600Y-21900D02*
G01X-1600Y-21900D01*
G01X-1600Y-21900D02*
G01X-1600Y-21830D01*
G01X1600Y-20330D02*
G01X1600Y-20670D01*
G01X-1600Y-19100D02*
G01X1600Y-19100D01*
G01X1600Y-19100D02*
G01X1600Y-19170D01*
G01X2500Y-19170D02*
G01X2500Y-19100D01*
G01X2500Y-20670D02*
G01X2500Y-20330D01*
G01X5700Y-21830D02*
G01X5700Y-21900D01*
G01X5700Y-21900D02*
G01X2500Y-21900D01*
G01X2500Y-21900D02*
G01X2500Y-21830D01*
G01X5700Y-20330D02*
G01X5700Y-20670D01*
G01X2500Y-19100D02*
G01X5700Y-19100D01*
G01X5700Y-19100D02*
G01X5700Y-19170D01*
G01X6600Y-19170D02*
G01X6600Y-19100D01*
G01X6600Y-20670D02*
G01X6600Y-20330D01*
G01X9800Y-21830D02*
G01X9800Y-21900D01*
G01X9800Y-21900D02*
G01X6600Y-21900D01*
G01X6600Y-21900D02*
G01X6600Y-21830D01*
G01X9800Y-20330D02*
G01X9800Y-20670D01*
G01X6600Y-19100D02*
G01X9800Y-19100D01*
G01X9800Y-19100D02*
G01X9800Y-19170D01*
G01X10700Y-19170D02*
G01X10700Y-19100D01*
G01X10700Y-20670D02*
G01X10700Y-20330D01*
G01X13900Y-21830D02*
G01X13900Y-21900D01*
G01X13900Y-21900D02*
G01X10700Y-21900D01*
G01X10700Y-21900D02*
G01X10700Y-21830D01*
G01X13900Y-20330D02*
G01X13900Y-20670D01*
G01X10700Y-19100D02*
G01X13900Y-19100D01*
G01X13900Y-19100D02*
G01X13900Y-19170D01*
G01X14800Y-19170D02*
G01X14800Y-19100D01*
G01X14800Y-20670D02*
G01X14800Y-20330D01*
G01X18000Y-21830D02*
G01X18000Y-21900D01*
G01X18000Y-21900D02*
G01X14800Y-21900D01*
G01X14800Y-21900D02*
G01X14800Y-21830D01*
G01X18000Y-20330D02*
G01X18000Y-20670D01*
G01X14800Y-19100D02*
G01X18000Y-19100D01*
G01X18000Y-19100D02*
G01X18000Y-19170D01*
G01X-1600Y-23270D02*
G01X-1600Y-23200D01*
G01X-1600Y-24770D02*
G01X-1600Y-24430D01*
G01X1600Y-25930D02*
G01X1600Y-26000D01*
G01X1600Y-26000D02*
G01X-1600Y-26000D01*
G01X-1600Y-26000D02*
G01X-1600Y-25930D01*
G01X1600Y-24430D02*
G01X1600Y-24770D01*
G01X-1600Y-23200D02*
G01X1600Y-23200D01*
G01X1600Y-23200D02*
G01X1600Y-23270D01*
G01X2500Y-23270D02*
G01X2500Y-23200D01*
G01X2500Y-24770D02*
G01X2500Y-24430D01*
G01X5700Y-25930D02*
G01X5700Y-26000D01*
G01X5700Y-26000D02*
G01X2500Y-26000D01*
G01X2500Y-26000D02*
G01X2500Y-25930D01*
G01X5700Y-24430D02*
G01X5700Y-24770D01*
G01X2500Y-23200D02*
G01X5700Y-23200D01*
G01X5700Y-23200D02*
G01X5700Y-23270D01*
G01X6600Y-23270D02*
G01X6600Y-23200D01*
G01X6600Y-24770D02*
G01X6600Y-24430D01*
G01X9800Y-25930D02*
G01X9800Y-26000D01*
G01X9800Y-26000D02*
G01X6600Y-26000D01*
G01X6600Y-26000D02*
G01X6600Y-25930D01*
G01X9800Y-24430D02*
G01X9800Y-24770D01*
G01X6600Y-23200D02*
G01X9800Y-23200D01*
G01X9800Y-23200D02*
G01X9800Y-23270D01*
G01X10700Y-23270D02*
G01X10700Y-23200D01*
G01X10700Y-24770D02*
G01X10700Y-24430D01*
G01X13900Y-25930D02*
G01X13900Y-26000D01*
G01X13900Y-26000D02*
G01X10700Y-26000D01*
G01X10700Y-26000D02*
G01X10700Y-25930D01*
G01X13900Y-24430D02*
G01X13900Y-24770D01*
G01X10700Y-23200D02*
G01X13900Y-23200D01*
G01X13900Y-23200D02*
G01X13900Y-23270D01*
G01X14800Y-23270D02*
G01X14800Y-23200D01*
G01X14800Y-24770D02*
G01X14800Y-24430D01*
G01X18000Y-25930D02*
G01X18000Y-26000D01*
G01X18000Y-26000D02*
G01X14800Y-26000D01*
G01X14800Y-26000D02*
G01X14800Y-25930D01*
G01X18000Y-24430D02*
G01X18000Y-24770D01*
G01X14800Y-23200D02*
G01X18000Y-23200D01*
G01X18000Y-23200D02*
G01X18000Y-23270D01*
G01X18900Y1330D02*
G01X18900Y1400D01*
G01X18900Y-170D02*
G01X18900Y170D01*
G01X22100Y-1330D02*
G01X22100Y-1400D01*
G01X22100Y-1400D02*
G01X18900Y-1400D01*
G01X18900Y-1400D02*
G01X18900Y-1330D01*
G01X22100Y170D02*
G01X22100Y-170D01*
G01X18900Y1400D02*
G01X22100Y1400D01*
G01X22100Y1400D02*
G01X22100Y1330D01*
G01X23000Y1330D02*
G01X23000Y1400D01*
G01X23000Y-170D02*
G01X23000Y170D01*
G01X26200Y-1330D02*
G01X26200Y-1400D01*
G01X26200Y-1400D02*
G01X23000Y-1400D01*
G01X23000Y-1400D02*
G01X23000Y-1330D01*
G01X26200Y170D02*
G01X26200Y-170D01*
G01X23000Y1400D02*
G01X26200Y1400D01*
G01X26200Y1400D02*
G01X26200Y1330D01*
G01X27100Y1330D02*
G01X27100Y1400D01*
G01X27100Y-170D02*
G01X27100Y170D01*
G01X30300Y-1330D02*
G01X30300Y-1400D01*
G01X30300Y-1400D02*
G01X27100Y-1400D01*
G01X27100Y-1400D02*
G01X27100Y-1330D01*
G01X30300Y170D02*
G01X30300Y-170D01*
G01X27100Y1400D02*
G01X30300Y1400D01*
G01X30300Y1400D02*
G01X30300Y1330D01*
G01X31200Y1330D02*
G01X31200Y1400D01*
G01X31200Y-170D02*
G01X31200Y170D01*
G01X34400Y-1330D02*
G01X34400Y-1400D01*
G01X34400Y-1400D02*
G01X31200Y-1400D01*
G01X31200Y-1400D02*
G01X31200Y-1330D01*
G01X34400Y170D02*
G01X34400Y-170D01*
G01X31200Y1400D02*
G01X34400Y1400D01*
G01X34400Y1400D02*
G01X34400Y1330D01*
G01X35300Y1330D02*
G01X35300Y1400D01*
G01X35300Y-170D02*
G01X35300Y170D01*
G01X38500Y-1330D02*
G01X38500Y-1400D01*
G01X38500Y-1400D02*
G01X35300Y-1400D01*
G01X35300Y-1400D02*
G01X35300Y-1330D01*
G01X38500Y170D02*
G01X38500Y-170D01*
G01X35300Y1400D02*
G01X38500Y1400D01*
G01X38500Y1400D02*
G01X38500Y1330D01*
G01X18900Y-2770D02*
G01X18900Y-2700D01*
G01X18900Y-4270D02*
G01X18900Y-3930D01*
G01X22100Y-5430D02*
G01X22100Y-5500D01*
G01X22100Y-5500D02*
G01X18900Y-5500D01*
G01X18900Y-5500D02*
G01X18900Y-5430D01*
G01X22100Y-3930D02*
G01X22100Y-4270D01*
G01X18900Y-2700D02*
G01X22100Y-2700D01*
G01X22100Y-2700D02*
G01X22100Y-2770D01*
G01X23000Y-2770D02*
G01X23000Y-2700D01*
G01X23000Y-4270D02*
G01X23000Y-3930D01*
G01X26200Y-5430D02*
G01X26200Y-5500D01*
G01X26200Y-5500D02*
G01X23000Y-5500D01*
G01X23000Y-5500D02*
G01X23000Y-5430D01*
G01X26200Y-3930D02*
G01X26200Y-4270D01*
G01X23000Y-2700D02*
G01X26200Y-2700D01*
G01X26200Y-2700D02*
G01X26200Y-2770D01*
G01X27100Y-2770D02*
G01X27100Y-2700D01*
G01X27100Y-4270D02*
G01X27100Y-3930D01*
G01X30300Y-5430D02*
G01X30300Y-5500D01*
G01X30300Y-5500D02*
G01X27100Y-5500D01*
G01X27100Y-5500D02*
G01X27100Y-5430D01*
G01X30300Y-3930D02*
G01X30300Y-4270D01*
G01X27100Y-2700D02*
G01X30300Y-2700D01*
G01X30300Y-2700D02*
G01X30300Y-2770D01*
G01X31200Y-2770D02*
G01X31200Y-2700D01*
G01X31200Y-4270D02*
G01X31200Y-3930D01*
G01X34400Y-5430D02*
G01X34400Y-5500D01*
G01X34400Y-5500D02*
G01X31200Y-5500D01*
G01X31200Y-5500D02*
G01X31200Y-5430D01*
G01X34400Y-3930D02*
G01X34400Y-4270D01*
G01X31200Y-2700D02*
G01X34400Y-2700D01*
G01X34400Y-2700D02*
G01X34400Y-2770D01*
G01X35300Y-2770D02*
G01X35300Y-2700D01*
G01X35300Y-4270D02*
G01X35300Y-3930D01*
G01X38500Y-5430D02*
G01X38500Y-5500D01*
G01X38500Y-5500D02*
G01X35300Y-5500D01*
G01X35300Y-5500D02*
G01X35300Y-5430D01*
G01X38500Y-3930D02*
G01X38500Y-4270D01*
G01X35300Y-2700D02*
G01X38500Y-2700D01*
G01X38500Y-2700D02*
G01X38500Y-2770D01*
G01X18900Y-6870D02*
G01X18900Y-6800D01*
G01X18900Y-8370D02*
G01X18900Y-8030D01*
G01X22100Y-9530D02*
G01X22100Y-9600D01*
G01X22100Y-9600D02*
G01X18900Y-9600D01*
G01X18900Y-9600D02*
G01X18900Y-9530D01*
G01X22100Y-8030D02*
G01X22100Y-8370D01*
G01X18900Y-6800D02*
G01X22100Y-6800D01*
G01X22100Y-6800D02*
G01X22100Y-6870D01*
G01X23000Y-6870D02*
G01X23000Y-6800D01*
G01X23000Y-8370D02*
G01X23000Y-8030D01*
G01X26200Y-9530D02*
G01X26200Y-9600D01*
G01X26200Y-9600D02*
G01X23000Y-9600D01*
G01X23000Y-9600D02*
G01X23000Y-9530D01*
G01X26200Y-8030D02*
G01X26200Y-8370D01*
G01X23000Y-6800D02*
G01X26200Y-6800D01*
G01X26200Y-6800D02*
G01X26200Y-6870D01*
G01X27100Y-6870D02*
G01X27100Y-6800D01*
G01X27100Y-8370D02*
G01X27100Y-8030D01*
G01X30300Y-9530D02*
G01X30300Y-9600D01*
G01X30300Y-9600D02*
G01X27100Y-9600D01*
G01X27100Y-9600D02*
G01X27100Y-9530D01*
G01X30300Y-8030D02*
G01X30300Y-8370D01*
G01X27100Y-6800D02*
G01X30300Y-6800D01*
G01X30300Y-6800D02*
G01X30300Y-6870D01*
G01X31200Y-6870D02*
G01X31200Y-6800D01*
G01X31200Y-8370D02*
G01X31200Y-8030D01*
G01X34400Y-9530D02*
G01X34400Y-9600D01*
G01X34400Y-9600D02*
G01X31200Y-9600D01*
G01X31200Y-9600D02*
G01X31200Y-9530D01*
G01X34400Y-8030D02*
G01X34400Y-8370D01*
G01X31200Y-6800D02*
G01X34400Y-6800D01*
G01X34400Y-6800D02*
G01X34400Y-6870D01*
G01X35300Y-6870D02*
G01X35300Y-6800D01*
G01X35300Y-8370D02*
G01X35300Y-8030D01*
G01X38500Y-9530D02*
G01X38500Y-9600D01*
G01X38500Y-9600D02*
G01X35300Y-9600D01*
G01X35300Y-9600D02*
G01X35300Y-9530D01*
G01X38500Y-8030D02*
G01X38500Y-8370D01*
G01X35300Y-6800D02*
G01X38500Y-6800D01*
G01X38500Y-6800D02*
G01X38500Y-6870D01*
G01X18900Y-10970D02*
G01X18900Y-10900D01*
G01X18900Y-12470D02*
G01X18900Y-12130D01*
G01X22100Y-13630D02*
G01X22100Y-13700D01*
G01X22100Y-13700D02*
G01X18900Y-13700D01*
G01X18900Y-13700D02*
G01X18900Y-13630D01*
G01X22100Y-12130D02*
G01X22100Y-12470D01*
G01X18900Y-10900D02*
G01X22100Y-10900D01*
G01X22100Y-10900D02*
G01X22100Y-10970D01*
G01X23000Y-10970D02*
G01X23000Y-10900D01*
G01X23000Y-12470D02*
G01X23000Y-12130D01*
G01X26200Y-13630D02*
G01X26200Y-13700D01*
G01X26200Y-13700D02*
G01X23000Y-13700D01*
G01X23000Y-13700D02*
G01X23000Y-13630D01*
G01X26200Y-12130D02*
G01X26200Y-12470D01*
G01X23000Y-10900D02*
G01X26200Y-10900D01*
G01X26200Y-10900D02*
G01X26200Y-10970D01*
G01X27100Y-10970D02*
G01X27100Y-10900D01*
G01X27100Y-12470D02*
G01X27100Y-12130D01*
G01X30300Y-13630D02*
G01X30300Y-13700D01*
G01X30300Y-13700D02*
G01X27100Y-13700D01*
G01X27100Y-13700D02*
G01X27100Y-13630D01*
G01X30300Y-12130D02*
G01X30300Y-12470D01*
G01X27100Y-10900D02*
G01X30300Y-10900D01*
G01X30300Y-10900D02*
G01X30300Y-10970D01*
G01X31200Y-10970D02*
G01X31200Y-10900D01*
G01X31200Y-12470D02*
G01X31200Y-12130D01*
G01X34400Y-13630D02*
G01X34400Y-13700D01*
G01X34400Y-13700D02*
G01X31200Y-13700D01*
G01X31200Y-13700D02*
G01X31200Y-13630D01*
G01X34400Y-12130D02*
G01X34400Y-12470D01*
G01X31200Y-10900D02*
G01X34400Y-10900D01*
G01X34400Y-10900D02*
G01X34400Y-10970D01*
G01X35300Y-10970D02*
G01X35300Y-10900D01*
G01X35300Y-12470D02*
G01X35300Y-12130D01*
G01X38500Y-13630D02*
G01X38500Y-13700D01*
G01X38500Y-13700D02*
G01X35300Y-13700D01*
G01X35300Y-13700D02*
G01X35300Y-13630D01*
G01X38500Y-12130D02*
G01X38500Y-12470D01*
G01X35300Y-10900D02*
G01X38500Y-10900D01*
G01X38500Y-10900D02*
G01X38500Y-10970D01*
G01X18900Y-15070D02*
G01X18900Y-15000D01*
G01X18900Y-16570D02*
G01X18900Y-16230D01*
G01X22100Y-17730D02*
G01X22100Y-17800D01*
G01X22100Y-17800D02*
G01X18900Y-17800D01*
G01X18900Y-17800D02*
G01X18900Y-17730D01*
G01X22100Y-16230D02*
G01X22100Y-16570D01*
G01X18900Y-15000D02*
G01X22100Y-15000D01*
G01X22100Y-15000D02*
G01X22100Y-15070D01*
G01X23000Y-15070D02*
G01X23000Y-15000D01*
G01X23000Y-16570D02*
G01X23000Y-16230D01*
G01X26200Y-17730D02*
G01X26200Y-17800D01*
G01X26200Y-17800D02*
G01X23000Y-17800D01*
G01X23000Y-17800D02*
G01X23000Y-17730D01*
G01X26200Y-16230D02*
G01X26200Y-16570D01*
G01X23000Y-15000D02*
G01X26200Y-15000D01*
G01X26200Y-15000D02*
G01X26200Y-15070D01*
G01X27100Y-15070D02*
G01X27100Y-15000D01*
G01X27100Y-16570D02*
G01X27100Y-16230D01*
G01X30300Y-17730D02*
G01X30300Y-17800D01*
G01X30300Y-17800D02*
G01X27100Y-17800D01*
G01X27100Y-17800D02*
G01X27100Y-17730D01*
G01X30300Y-16230D02*
G01X30300Y-16570D01*
G01X27100Y-15000D02*
G01X30300Y-15000D01*
G01X30300Y-15000D02*
G01X30300Y-15070D01*
G01X31200Y-15070D02*
G01X31200Y-15000D01*
G01X31200Y-16570D02*
G01X31200Y-16230D01*
G01X34400Y-17730D02*
G01X34400Y-17800D01*
G01X34400Y-17800D02*
G01X31200Y-17800D01*
G01X31200Y-17800D02*
G01X31200Y-17730D01*
G01X34400Y-16230D02*
G01X34400Y-16570D01*
G01X31200Y-15000D02*
G01X34400Y-15000D01*
G01X34400Y-15000D02*
G01X34400Y-15070D01*
G01X35300Y-15070D02*
G01X35300Y-15000D01*
G01X35300Y-16570D02*
G01X35300Y-16230D01*
G01X38500Y-17730D02*
G01X38500Y-17800D01*
G01X38500Y-17800D02*
G01X35300Y-17800D01*
G01X35300Y-17800D02*
G01X35300Y-17730D01*
G01X38500Y-16230D02*
G01X38500Y-16570D01*
G01X35300Y-15000D02*
G01X38500Y-15000D01*
G01X38500Y-15000D02*
G01X38500Y-15070D01*
G01X18900Y-19170D02*
G01X18900Y-19100D01*
G01X18900Y-20670D02*
G01X18900Y-20330D01*
G01X22100Y-21830D02*
G01X22100Y-21900D01*
G01X22100Y-21900D02*
G01X18900Y-21900D01*
G01X18900Y-21900D02*
G01X18900Y-21830D01*
G01X22100Y-20330D02*
G01X22100Y-20670D01*
G01X18900Y-19100D02*
G01X22100Y-19100D01*
G01X22100Y-19100D02*
G01X22100Y-19170D01*
G01X23000Y-19170D02*
G01X23000Y-19100D01*
G01X23000Y-20670D02*
G01X23000Y-20330D01*
G01X26200Y-21830D02*
G01X26200Y-21900D01*
G01X26200Y-21900D02*
G01X23000Y-21900D01*
G01X23000Y-21900D02*
G01X23000Y-21830D01*
G01X26200Y-20330D02*
G01X26200Y-20670D01*
G01X23000Y-19100D02*
G01X26200Y-19100D01*
G01X26200Y-19100D02*
G01X26200Y-19170D01*
G01X27100Y-19170D02*
G01X27100Y-19100D01*
G01X27100Y-20670D02*
G01X27100Y-20330D01*
G01X30300Y-21830D02*
G01X30300Y-21900D01*
G01X30300Y-21900D02*
G01X27100Y-21900D01*
G01X27100Y-21900D02*
G01X27100Y-21830D01*
G01X30300Y-20330D02*
G01X30300Y-20670D01*
G01X27100Y-19100D02*
G01X30300Y-19100D01*
G01X30300Y-19100D02*
G01X30300Y-19170D01*
G01X31200Y-19170D02*
G01X31200Y-19100D01*
G01X31200Y-20670D02*
G01X31200Y-20330D01*
G01X34400Y-21830D02*
G01X34400Y-21900D01*
G01X34400Y-21900D02*
G01X31200Y-21900D01*
G01X31200Y-21900D02*
G01X31200Y-21830D01*
G01X34400Y-20330D02*
G01X34400Y-20670D01*
G01X31200Y-19100D02*
G01X34400Y-19100D01*
G01X34400Y-19100D02*
G01X34400Y-19170D01*
G01X35300Y-19170D02*
G01X35300Y-19100D01*
G01X35300Y-20670D02*
G01X35300Y-20330D01*
G01X38500Y-21830D02*
G01X38500Y-21900D01*
G01X38500Y-21900D02*
G01X35300Y-21900D01*
G01X35300Y-21900D02*
G01X35300Y-21830D01*
G01X38500Y-20330D02*
G01X38500Y-20670D01*
G01X35300Y-19100D02*
G01X38500Y-19100D01*
G01X38500Y-19100D02*
G01X38500Y-19170D01*
G01X18900Y-23270D02*
G01X18900Y-23200D01*
G01X18900Y-24770D02*
G01X18900Y-24430D01*
G01X22100Y-25930D02*
G01X22100Y-26000D01*
G01X22100Y-26000D02*
G01X18900Y-26000D01*
G01X18900Y-26000D02*
G01X18900Y-25930D01*
G01X22100Y-24430D02*
G01X22100Y-24770D01*
G01X18900Y-23200D02*
G01X22100Y-23200D01*
G01X22100Y-23200D02*
G01X22100Y-23270D01*
G01X23000Y-23270D02*
G01X23000Y-23200D01*
G01X23000Y-24770D02*
G01X23000Y-24430D01*
G01X26200Y-25930D02*
G01X26200Y-26000D01*
G01X26200Y-26000D02*
G01X23000Y-26000D01*
G01X23000Y-26000D02*
G01X23000Y-25930D01*
G01X26200Y-24430D02*
G01X26200Y-24770D01*
G01X23000Y-23200D02*
G01X26200Y-23200D01*
G01X26200Y-23200D02*
G01X26200Y-23270D01*
G01X27100Y-23270D02*
G01X27100Y-23200D01*
G01X27100Y-24770D02*
G01X27100Y-24430D01*
G01X30300Y-25930D02*
G01X30300Y-26000D01*
G01X30300Y-26000D02*
G01X27100Y-26000D01*
G01X27100Y-26000D02*
G01X27100Y-25930D01*
G01X30300Y-24430D02*
G01X30300Y-24770D01*
G01X27100Y-23200D02*
G01X30300Y-23200D01*
G01X30300Y-23200D02*
G01X30300Y-23270D01*
G01X31200Y-23270D02*
G01X31200Y-23200D01*
G01X31200Y-24770D02*
G01X31200Y-24430D01*
G01X34400Y-25930D02*
G01X34400Y-26000D01*
G01X34400Y-26000D02*
G01X31200Y-26000D01*
G01X31200Y-26000D02*
G01X31200Y-25930D01*
G01X34400Y-24430D02*
G01X34400Y-24770D01*
G01X31200Y-23200D02*
G01X34400Y-23200D01*
G01X34400Y-23200D02*
G01X34400Y-23270D01*
G01X35300Y-23270D02*
G01X35300Y-23200D01*
G01X35300Y-24770D02*
G01X35300Y-24430D01*
G01X38500Y-25930D02*
G01X38500Y-26000D01*
G01X38500Y-26000D02*
G01X35300Y-26000D01*
G01X35300Y-26000D02*
G01X35300Y-25930D01*
G01X38500Y-24430D02*
G01X38500Y-24770D01*
G01X35300Y-23200D02*
G01X38500Y-23200D01*
G01X38500Y-23200D02*
G01X38500Y-23270D01*
G01X39400Y1330D02*
G01X39400Y1400D01*
G01X39400Y-170D02*
G01X39400Y170D01*
G01X42600Y-1330D02*
G01X42600Y-1400D01*
G01X42600Y-1400D02*
G01X39400Y-1400D01*
G01X39400Y-1400D02*
G01X39400Y-1330D01*
G01X42600Y170D02*
G01X42600Y-170D01*
G01X39400Y1400D02*
G01X42600Y1400D01*
G01X42600Y1400D02*
G01X42600Y1330D01*
G01X43500Y1330D02*
G01X43500Y1400D01*
G01X43500Y-170D02*
G01X43500Y170D01*
G01X46700Y-1330D02*
G01X46700Y-1400D01*
G01X46700Y-1400D02*
G01X43500Y-1400D01*
G01X43500Y-1400D02*
G01X43500Y-1330D01*
G01X46700Y170D02*
G01X46700Y-170D01*
G01X43500Y1400D02*
G01X46700Y1400D01*
G01X46700Y1400D02*
G01X46700Y1330D01*
G01X47600Y1330D02*
G01X47600Y1400D01*
G01X47600Y-170D02*
G01X47600Y170D01*
G01X50800Y-1330D02*
G01X50800Y-1400D01*
G01X50800Y-1400D02*
G01X47600Y-1400D01*
G01X47600Y-1400D02*
G01X47600Y-1330D01*
G01X50800Y170D02*
G01X50800Y-170D01*
G01X47600Y1400D02*
G01X50800Y1400D01*
G01X50800Y1400D02*
G01X50800Y1330D01*
G01X51700Y1330D02*
G01X51700Y1400D01*
G01X51700Y-170D02*
G01X51700Y170D01*
G01X54900Y-1330D02*
G01X54900Y-1400D01*
G01X54900Y-1400D02*
G01X51700Y-1400D01*
G01X51700Y-1400D02*
G01X51700Y-1330D01*
G01X54900Y170D02*
G01X54900Y-170D01*
G01X51700Y1400D02*
G01X54900Y1400D01*
G01X54900Y1400D02*
G01X54900Y1330D01*
G01X55800Y1330D02*
G01X55800Y1400D01*
G01X55800Y-170D02*
G01X55800Y170D01*
G01X59000Y-1330D02*
G01X59000Y-1400D01*
G01X59000Y-1400D02*
G01X55800Y-1400D01*
G01X55800Y-1400D02*
G01X55800Y-1330D01*
G01X59000Y170D02*
G01X59000Y-170D01*
G01X55800Y1400D02*
G01X59000Y1400D01*
G01X59000Y1400D02*
G01X59000Y1330D01*
G01X39400Y-2770D02*
G01X39400Y-2700D01*
G01X39400Y-4270D02*
G01X39400Y-3930D01*
G01X42600Y-5430D02*
G01X42600Y-5500D01*
G01X42600Y-5500D02*
G01X39400Y-5500D01*
G01X39400Y-5500D02*
G01X39400Y-5430D01*
G01X42600Y-3930D02*
G01X42600Y-4270D01*
G01X39400Y-2700D02*
G01X42600Y-2700D01*
G01X42600Y-2700D02*
G01X42600Y-2770D01*
G01X43500Y-2770D02*
G01X43500Y-2700D01*
G01X43500Y-4270D02*
G01X43500Y-3930D01*
G01X46700Y-5430D02*
G01X46700Y-5500D01*
G01X46700Y-5500D02*
G01X43500Y-5500D01*
G01X43500Y-5500D02*
G01X43500Y-5430D01*
G01X46700Y-3930D02*
G01X46700Y-4270D01*
G01X43500Y-2700D02*
G01X46700Y-2700D01*
G01X46700Y-2700D02*
G01X46700Y-2770D01*
G01X47600Y-2770D02*
G01X47600Y-2700D01*
G01X47600Y-4270D02*
G01X47600Y-3930D01*
G01X50800Y-5430D02*
G01X50800Y-5500D01*
G01X50800Y-5500D02*
G01X47600Y-5500D01*
G01X47600Y-5500D02*
G01X47600Y-5430D01*
G01X50800Y-3930D02*
G01X50800Y-4270D01*
G01X47600Y-2700D02*
G01X50800Y-2700D01*
G01X50800Y-2700D02*
G01X50800Y-2770D01*
G01X51700Y-2770D02*
G01X51700Y-2700D01*
G01X51700Y-4270D02*
G01X51700Y-3930D01*
G01X54900Y-5430D02*
G01X54900Y-5500D01*
G01X54900Y-5500D02*
G01X51700Y-5500D01*
G01X51700Y-5500D02*
G01X51700Y-5430D01*
G01X54900Y-3930D02*
G01X54900Y-4270D01*
G01X51700Y-2700D02*
G01X54900Y-2700D01*
G01X54900Y-2700D02*
G01X54900Y-2770D01*
G01X55800Y-2770D02*
G01X55800Y-2700D01*
G01X55800Y-4270D02*
G01X55800Y-3930D01*
G01X59000Y-5430D02*
G01X59000Y-5500D01*
G01X59000Y-5500D02*
G01X55800Y-5500D01*
G01X55800Y-5500D02*
G01X55800Y-5430D01*
G01X59000Y-3930D02*
G01X59000Y-4270D01*
G01X55800Y-2700D02*
G01X59000Y-2700D01*
G01X59000Y-2700D02*
G01X59000Y-2770D01*
G01X39400Y-6870D02*
G01X39400Y-6800D01*
G01X39400Y-8370D02*
G01X39400Y-8030D01*
G01X42600Y-9530D02*
G01X42600Y-9600D01*
G01X42600Y-9600D02*
G01X39400Y-9600D01*
G01X39400Y-9600D02*
G01X39400Y-9530D01*
G01X42600Y-8030D02*
G01X42600Y-8370D01*
G01X39400Y-6800D02*
G01X42600Y-6800D01*
G01X42600Y-6800D02*
G01X42600Y-6870D01*
G01X43500Y-6870D02*
G01X43500Y-6800D01*
G01X43500Y-8370D02*
G01X43500Y-8030D01*
G01X46700Y-9530D02*
G01X46700Y-9600D01*
G01X46700Y-9600D02*
G01X43500Y-9600D01*
G01X43500Y-9600D02*
G01X43500Y-9530D01*
G01X46700Y-8030D02*
G01X46700Y-8370D01*
G01X43500Y-6800D02*
G01X46700Y-6800D01*
G01X46700Y-6800D02*
G01X46700Y-6870D01*
G01X47600Y-6870D02*
G01X47600Y-6800D01*
G01X47600Y-8370D02*
G01X47600Y-8030D01*
G01X50800Y-9530D02*
G01X50800Y-9600D01*
G01X50800Y-9600D02*
G01X47600Y-9600D01*
G01X47600Y-9600D02*
G01X47600Y-9530D01*
G01X50800Y-8030D02*
G01X50800Y-8370D01*
G01X47600Y-6800D02*
G01X50800Y-6800D01*
G01X50800Y-6800D02*
G01X50800Y-6870D01*
G01X51700Y-6870D02*
G01X51700Y-6800D01*
G01X51700Y-8370D02*
G01X51700Y-8030D01*
G01X54900Y-9530D02*
G01X54900Y-9600D01*
G01X54900Y-9600D02*
G01X51700Y-9600D01*
G01X51700Y-9600D02*
G01X51700Y-9530D01*
G01X54900Y-8030D02*
G01X54900Y-8370D01*
G01X51700Y-6800D02*
G01X54900Y-6800D01*
G01X54900Y-6800D02*
G01X54900Y-6870D01*
G01X55800Y-6870D02*
G01X55800Y-6800D01*
G01X55800Y-8370D02*
G01X55800Y-8030D01*
G01X59000Y-9530D02*
G01X59000Y-9600D01*
G01X59000Y-9600D02*
G01X55800Y-9600D01*
G01X55800Y-9600D02*
G01X55800Y-9530D01*
G01X59000Y-8030D02*
G01X59000Y-8370D01*
G01X55800Y-6800D02*
G01X59000Y-6800D01*
G01X59000Y-6800D02*
G01X59000Y-6870D01*
G01X39400Y-10970D02*
G01X39400Y-10900D01*
G01X39400Y-12470D02*
G01X39400Y-12130D01*
G01X42600Y-13630D02*
G01X42600Y-13700D01*
G01X42600Y-13700D02*
G01X39400Y-13700D01*
G01X39400Y-13700D02*
G01X39400Y-13630D01*
G01X42600Y-12130D02*
G01X42600Y-12470D01*
G01X39400Y-10900D02*
G01X42600Y-10900D01*
G01X42600Y-10900D02*
G01X42600Y-10970D01*
G01X43500Y-10970D02*
G01X43500Y-10900D01*
G01X43500Y-12470D02*
G01X43500Y-12130D01*
G01X46700Y-13630D02*
G01X46700Y-13700D01*
G01X46700Y-13700D02*
G01X43500Y-13700D01*
G01X43500Y-13700D02*
G01X43500Y-13630D01*
G01X46700Y-12130D02*
G01X46700Y-12470D01*
G01X43500Y-10900D02*
G01X46700Y-10900D01*
G01X46700Y-10900D02*
G01X46700Y-10970D01*
G01X47600Y-10970D02*
G01X47600Y-10900D01*
G01X47600Y-12470D02*
G01X47600Y-12130D01*
G01X50800Y-13630D02*
G01X50800Y-13700D01*
G01X50800Y-13700D02*
G01X47600Y-13700D01*
G01X47600Y-13700D02*
G01X47600Y-13630D01*
G01X50800Y-12130D02*
G01X50800Y-12470D01*
G01X47600Y-10900D02*
G01X50800Y-10900D01*
G01X50800Y-10900D02*
G01X50800Y-10970D01*
G01X51700Y-10970D02*
G01X51700Y-10900D01*
G01X51700Y-12470D02*
G01X51700Y-12130D01*
G01X54900Y-13630D02*
G01X54900Y-13700D01*
G01X54900Y-13700D02*
G01X51700Y-13700D01*
G01X51700Y-13700D02*
G01X51700Y-13630D01*
G01X54900Y-12130D02*
G01X54900Y-12470D01*
G01X51700Y-10900D02*
G01X54900Y-10900D01*
G01X54900Y-10900D02*
G01X54900Y-10970D01*
G01X55800Y-10970D02*
G01X55800Y-10900D01*
G01X55800Y-12470D02*
G01X55800Y-12130D01*
G01X59000Y-13630D02*
G01X59000Y-13700D01*
G01X59000Y-13700D02*
G01X55800Y-13700D01*
G01X55800Y-13700D02*
G01X55800Y-13630D01*
G01X59000Y-12130D02*
G01X59000Y-12470D01*
G01X55800Y-10900D02*
G01X59000Y-10900D01*
G01X59000Y-10900D02*
G01X59000Y-10970D01*
G01X39400Y-15070D02*
G01X39400Y-15000D01*
G01X39400Y-16570D02*
G01X39400Y-16230D01*
G01X42600Y-17730D02*
G01X42600Y-17800D01*
G01X42600Y-17800D02*
G01X39400Y-17800D01*
G01X39400Y-17800D02*
G01X39400Y-17730D01*
G01X42600Y-16230D02*
G01X42600Y-16570D01*
G01X39400Y-15000D02*
G01X42600Y-15000D01*
G01X42600Y-15000D02*
G01X42600Y-15070D01*
G01X43500Y-15070D02*
G01X43500Y-15000D01*
G01X43500Y-16570D02*
G01X43500Y-16230D01*
G01X46700Y-17730D02*
G01X46700Y-17800D01*
G01X46700Y-17800D02*
G01X43500Y-17800D01*
G01X43500Y-17800D02*
G01X43500Y-17730D01*
G01X46700Y-16230D02*
G01X46700Y-16570D01*
G01X43500Y-15000D02*
G01X46700Y-15000D01*
G01X46700Y-15000D02*
G01X46700Y-15070D01*
G01X47600Y-15070D02*
G01X47600Y-15000D01*
G01X47600Y-16570D02*
G01X47600Y-16230D01*
G01X50800Y-17730D02*
G01X50800Y-17800D01*
G01X50800Y-17800D02*
G01X47600Y-17800D01*
G01X47600Y-17800D02*
G01X47600Y-17730D01*
G01X50800Y-16230D02*
G01X50800Y-16570D01*
G01X47600Y-15000D02*
G01X50800Y-15000D01*
G01X50800Y-15000D02*
G01X50800Y-15070D01*
G01X51700Y-15070D02*
G01X51700Y-15000D01*
G01X51700Y-16570D02*
G01X51700Y-16230D01*
G01X54900Y-17730D02*
G01X54900Y-17800D01*
G01X54900Y-17800D02*
G01X51700Y-17800D01*
G01X51700Y-17800D02*
G01X51700Y-17730D01*
G01X54900Y-16230D02*
G01X54900Y-16570D01*
G01X51700Y-15000D02*
G01X54900Y-15000D01*
G01X54900Y-15000D02*
G01X54900Y-15070D01*
G01X55800Y-15070D02*
G01X55800Y-15000D01*
G01X55800Y-16570D02*
G01X55800Y-16230D01*
G01X59000Y-17730D02*
G01X59000Y-17800D01*
G01X59000Y-17800D02*
G01X55800Y-17800D01*
G01X55800Y-17800D02*
G01X55800Y-17730D01*
G01X59000Y-16230D02*
G01X59000Y-16570D01*
G01X55800Y-15000D02*
G01X59000Y-15000D01*
G01X59000Y-15000D02*
G01X59000Y-15070D01*
G01X39400Y-19170D02*
G01X39400Y-19100D01*
G01X39400Y-20670D02*
G01X39400Y-20330D01*
G01X42600Y-21830D02*
G01X42600Y-21900D01*
G01X42600Y-21900D02*
G01X39400Y-21900D01*
G01X39400Y-21900D02*
G01X39400Y-21830D01*
G01X42600Y-20330D02*
G01X42600Y-20670D01*
G01X39400Y-19100D02*
G01X42600Y-19100D01*
G01X42600Y-19100D02*
G01X42600Y-19170D01*
G01X43500Y-19170D02*
G01X43500Y-19100D01*
G01X43500Y-20670D02*
G01X43500Y-20330D01*
G01X46700Y-21830D02*
G01X46700Y-21900D01*
G01X46700Y-21900D02*
G01X43500Y-21900D01*
G01X43500Y-21900D02*
G01X43500Y-21830D01*
G01X46700Y-20330D02*
G01X46700Y-20670D01*
G01X43500Y-19100D02*
G01X46700Y-19100D01*
G01X46700Y-19100D02*
G01X46700Y-19170D01*
G01X47600Y-19170D02*
G01X47600Y-19100D01*
G01X47600Y-20670D02*
G01X47600Y-20330D01*
G01X50800Y-21830D02*
G01X50800Y-21900D01*
G01X50800Y-21900D02*
G01X47600Y-21900D01*
G01X47600Y-21900D02*
G01X47600Y-21830D01*
G01X50800Y-20330D02*
G01X50800Y-20670D01*
G01X47600Y-19100D02*
G01X50800Y-19100D01*
G01X50800Y-19100D02*
G01X50800Y-19170D01*
G01X51700Y-19170D02*
G01X51700Y-19100D01*
G01X51700Y-20670D02*
G01X51700Y-20330D01*
G01X54900Y-21830D02*
G01X54900Y-21900D01*
G01X54900Y-21900D02*
G01X51700Y-21900D01*
G01X51700Y-21900D02*
G01X51700Y-21830D01*
G01X54900Y-20330D02*
G01X54900Y-20670D01*
G01X51700Y-19100D02*
G01X54900Y-19100D01*
G01X54900Y-19100D02*
G01X54900Y-19170D01*
G01X55800Y-19170D02*
G01X55800Y-19100D01*
G01X55800Y-20670D02*
G01X55800Y-20330D01*
G01X59000Y-21830D02*
G01X59000Y-21900D01*
G01X59000Y-21900D02*
G01X55800Y-21900D01*
G01X55800Y-21900D02*
G01X55800Y-21830D01*
G01X59000Y-20330D02*
G01X59000Y-20670D01*
G01X55800Y-19100D02*
G01X59000Y-19100D01*
G01X59000Y-19100D02*
G01X59000Y-19170D01*
G01X39400Y-23270D02*
G01X39400Y-23200D01*
G01X39400Y-24770D02*
G01X39400Y-24430D01*
G01X42600Y-25930D02*
G01X42600Y-26000D01*
G01X42600Y-26000D02*
G01X39400Y-26000D01*
G01X39400Y-26000D02*
G01X39400Y-25930D01*
G01X42600Y-24430D02*
G01X42600Y-24770D01*
G01X39400Y-23200D02*
G01X42600Y-23200D01*
G01X42600Y-23200D02*
G01X42600Y-23270D01*
G01X43500Y-23270D02*
G01X43500Y-23200D01*
G01X43500Y-24770D02*
G01X43500Y-24430D01*
G01X46700Y-25930D02*
G01X46700Y-26000D01*
G01X46700Y-26000D02*
G01X43500Y-26000D01*
G01X43500Y-26000D02*
G01X43500Y-25930D01*
G01X46700Y-24430D02*
G01X46700Y-24770D01*
G01X43500Y-23200D02*
G01X46700Y-23200D01*
G01X46700Y-23200D02*
G01X46700Y-23270D01*
G01X47600Y-23270D02*
G01X47600Y-23200D01*
G01X47600Y-24770D02*
G01X47600Y-24430D01*
G01X50800Y-25930D02*
G01X50800Y-26000D01*
G01X50800Y-26000D02*
G01X47600Y-26000D01*
G01X47600Y-26000D02*
G01X47600Y-25930D01*
G01X50800Y-24430D02*
G01X50800Y-24770D01*
G01X47600Y-23200D02*
G01X50800Y-23200D01*
G01X50800Y-23200D02*
G01X50800Y-23270D01*
G01X51700Y-23270D02*
G01X51700Y-23200D01*
G01X51700Y-24770D02*
G01X51700Y-24430D01*
G01X54900Y-25930D02*
G01X54900Y-26000D01*
G01X54900Y-26000D02*
G01X51700Y-26000D01*
G01X51700Y-26000D02*
G01X51700Y-25930D01*
G01X54900Y-24430D02*
G01X54900Y-24770D01*
G01X51700Y-23200D02*
G01X54900Y-23200D01*
G01X54900Y-23200D02*
G01X54900Y-23270D01*
G01X55800Y-23270D02*
G01X55800Y-23200D01*
G01X55800Y-24770D02*
G01X55800Y-24430D01*
G01X59000Y-25930D02*
G01X59000Y-26000D01*
G01X59000Y-26000D02*
G01X55800Y-26000D01*
G01X55800Y-26000D02*
G01X55800Y-25930D01*
G01X59000Y-24430D02*
G01X59000Y-24770D01*
G01X55800Y-23200D02*
G01X59000Y-23200D01*
G01X59000Y-23200D02*
G01X59000Y-23270D01*
G54D10*
G01X-2032Y-27051D02*
G01X-2032Y-26074D01*
G01X18468Y-27051D02*
G01X18468Y-26111D01*
G01X38968Y-27051D02*
G01X38968Y-26111D01*
G01X-2032Y-27051D02*
G01X18161Y-27051D01*
G01X18161Y-27051D02*
G01X18161Y-26111D01*
G01X18468Y-27051D02*
G01X38661Y-27051D01*
G01X38661Y-27051D02*
G01X38661Y-26111D01*
G01X38968Y-27051D02*
G01X59161Y-27051D01*
G01X59161Y-27051D02*
G01X59161Y-26111D01*
G04 PolygonModel End*

G04 Circle Start*
G54D11*
G01X-669Y0D02*
G03X709Y0I689J0D01*
G03X-669I-689J0D01*
G01X3431Y0D02*
G03X4809Y0I689J0D01*
G03X3431I-689J0D01*
G01X7531Y0D02*
G03X8909Y0I689J0D01*
G03X7531I-689J0D01*
G01X11631Y0D02*
G03X13009Y0I689J0D01*
G03X11631I-689J0D01*
G01X15731Y0D02*
G03X17109Y0I689J0D01*
G03X15731I-689J0D01*
G01X-669Y-4100D02*
G03X709Y-4100I689J0D01*
G03X-669I-689J0D01*
G01X3431Y-4100D02*
G03X4809Y-4100I689J0D01*
G03X3431I-689J0D01*
G01X7531Y-4100D02*
G03X8909Y-4100I689J0D01*
G03X7531I-689J0D01*
G01X11631Y-4100D02*
G03X13009Y-4100I689J0D01*
G03X11631I-689J0D01*
G01X15731Y-4100D02*
G03X17109Y-4100I689J0D01*
G03X15731I-689J0D01*
G01X-669Y-8200D02*
G03X709Y-8200I689J0D01*
G03X-669I-689J0D01*
G01X3431Y-8200D02*
G03X4809Y-8200I689J0D01*
G03X3431I-689J0D01*
G01X7531Y-8200D02*
G03X8909Y-8200I689J0D01*
G03X7531I-689J0D01*
G01X11631Y-8200D02*
G03X13009Y-8200I689J0D01*
G03X11631I-689J0D01*
G01X15731Y-8200D02*
G03X17109Y-8200I689J0D01*
G03X15731I-689J0D01*
G01X-669Y-12300D02*
G03X709Y-12300I689J0D01*
G03X-669I-689J0D01*
G01X3431Y-12300D02*
G03X4809Y-12300I689J0D01*
G03X3431I-689J0D01*
G01X7531Y-12300D02*
G03X8909Y-12300I689J0D01*
G03X7531I-689J0D01*
G01X11631Y-12300D02*
G03X13009Y-12300I689J0D01*
G03X11631I-689J0D01*
G01X15731Y-12300D02*
G03X17109Y-12300I689J0D01*
G03X15731I-689J0D01*
G01X-669Y-16400D02*
G03X709Y-16400I689J0D01*
G03X-669I-689J0D01*
G01X3431Y-16400D02*
G03X4809Y-16400I689J0D01*
G03X3431I-689J0D01*
G01X7531Y-16400D02*
G03X8909Y-16400I689J0D01*
G03X7531I-689J0D01*
G01X11631Y-16400D02*
G03X13009Y-16400I689J0D01*
G03X11631I-689J0D01*
G01X15731Y-16400D02*
G03X17109Y-16400I689J0D01*
G03X15731I-689J0D01*
G01X-669Y-20500D02*
G03X709Y-20500I689J0D01*
G03X-669I-689J0D01*
G01X3431Y-20500D02*
G03X4809Y-20500I689J0D01*
G03X3431I-689J0D01*
G01X7531Y-20500D02*
G03X8909Y-20500I689J0D01*
G03X7531I-689J0D01*
G01X11631Y-20500D02*
G03X13009Y-20500I689J0D01*
G03X11631I-689J0D01*
G01X15731Y-20500D02*
G03X17109Y-20500I689J0D01*
G03X15731I-689J0D01*
G01X-669Y-24600D02*
G03X709Y-24600I689J0D01*
G03X-669I-689J0D01*
G01X3431Y-24600D02*
G03X4809Y-24600I689J0D01*
G03X3431I-689J0D01*
G01X7531Y-24600D02*
G03X8909Y-24600I689J0D01*
G03X7531I-689J0D01*
G01X11631Y-24600D02*
G03X13009Y-24600I689J0D01*
G03X11631I-689J0D01*
G01X15731Y-24600D02*
G03X17109Y-24600I689J0D01*
G03X15731I-689J0D01*
G01X19831Y0D02*
G03X21209Y0I689J0D01*
G03X19831I-689J0D01*
G01X23931Y0D02*
G03X25309Y0I689J0D01*
G03X23931I-689J0D01*
G01X28031Y0D02*
G03X29409Y0I689J0D01*
G03X28031I-689J0D01*
G01X32131Y0D02*
G03X33509Y0I689J0D01*
G03X32131I-689J0D01*
G01X36231Y0D02*
G03X37609Y0I689J0D01*
G03X36231I-689J0D01*
G01X19831Y-4100D02*
G03X21209Y-4100I689J0D01*
G03X19831I-689J0D01*
G01X23931Y-4100D02*
G03X25309Y-4100I689J0D01*
G03X23931I-689J0D01*
G01X28031Y-4100D02*
G03X29409Y-4100I689J0D01*
G03X28031I-689J0D01*
G01X32131Y-4100D02*
G03X33509Y-4100I689J0D01*
G03X32131I-689J0D01*
G01X36231Y-4100D02*
G03X37609Y-4100I689J0D01*
G03X36231I-689J0D01*
G01X19831Y-8200D02*
G03X21209Y-8200I689J0D01*
G03X19831I-689J0D01*
G01X23931Y-8200D02*
G03X25309Y-8200I689J0D01*
G03X23931I-689J0D01*
G01X28031Y-8200D02*
G03X29409Y-8200I689J0D01*
G03X28031I-689J0D01*
G01X32131Y-8200D02*
G03X33509Y-8200I689J0D01*
G03X32131I-689J0D01*
G01X36231Y-8200D02*
G03X37609Y-8200I689J0D01*
G03X36231I-689J0D01*
G01X19831Y-12300D02*
G03X21209Y-12300I689J0D01*
G03X19831I-689J0D01*
G01X23931Y-12300D02*
G03X25309Y-12300I689J0D01*
G03X23931I-689J0D01*
G01X28031Y-12300D02*
G03X29409Y-12300I689J0D01*
G03X28031I-689J0D01*
G01X32131Y-12300D02*
G03X33509Y-12300I689J0D01*
G03X32131I-689J0D01*
G01X36231Y-12300D02*
G03X37609Y-12300I689J0D01*
G03X36231I-689J0D01*
G01X19831Y-16400D02*
G03X21209Y-16400I689J0D01*
G03X19831I-689J0D01*
G01X23931Y-16400D02*
G03X25309Y-16400I689J0D01*
G03X23931I-689J0D01*
G01X28031Y-16400D02*
G03X29409Y-16400I689J0D01*
G03X28031I-689J0D01*
G01X32131Y-16400D02*
G03X33509Y-16400I689J0D01*
G03X32131I-689J0D01*
G01X36231Y-16400D02*
G03X37609Y-16400I689J0D01*
G03X36231I-689J0D01*
G01X19831Y-20500D02*
G03X21209Y-20500I689J0D01*
G03X19831I-689J0D01*
G01X23931Y-20500D02*
G03X25309Y-20500I689J0D01*
G03X23931I-689J0D01*
G01X28031Y-20500D02*
G03X29409Y-20500I689J0D01*
G03X28031I-689J0D01*
G01X32131Y-20500D02*
G03X33509Y-20500I689J0D01*
G03X32131I-689J0D01*
G01X36231Y-20500D02*
G03X37609Y-20500I689J0D01*
G03X36231I-689J0D01*
G01X19831Y-24600D02*
G03X21209Y-24600I689J0D01*
G03X19831I-689J0D01*
G01X23931Y-24600D02*
G03X25309Y-24600I689J0D01*
G03X23931I-689J0D01*
G01X28031Y-24600D02*
G03X29409Y-24600I689J0D01*
G03X28031I-689J0D01*
G01X32131Y-24600D02*
G03X33509Y-24600I689J0D01*
G03X32131I-689J0D01*
G01X36231Y-24600D02*
G03X37609Y-24600I689J0D01*
G03X36231I-689J0D01*
G01X40331Y0D02*
G03X41709Y0I689J0D01*
G03X40331I-689J0D01*
G01X44431Y0D02*
G03X45809Y0I689J0D01*
G03X44431I-689J0D01*
G01X48531Y0D02*
G03X49909Y0I689J0D01*
G03X48531I-689J0D01*
G01X52631Y0D02*
G03X54009Y0I689J0D01*
G03X52631I-689J0D01*
G01X56731Y0D02*
G03X58109Y0I689J0D01*
G03X56731I-689J0D01*
G01X40331Y-4100D02*
G03X41709Y-4100I689J0D01*
G03X40331I-689J0D01*
G01X44431Y-4100D02*
G03X45809Y-4100I689J0D01*
G03X44431I-689J0D01*
G01X48531Y-4100D02*
G03X49909Y-4100I689J0D01*
G03X48531I-689J0D01*
G01X52631Y-4100D02*
G03X54009Y-4100I689J0D01*
G03X52631I-689J0D01*
G01X56731Y-4100D02*
G03X58109Y-4100I689J0D01*
G03X56731I-689J0D01*
G01X40331Y-8200D02*
G03X41709Y-8200I689J0D01*
G03X40331I-689J0D01*
G01X44431Y-8200D02*
G03X45809Y-8200I689J0D01*
G03X44431I-689J0D01*
G01X48531Y-8200D02*
G03X49909Y-8200I689J0D01*
G03X48531I-689J0D01*
G01X52631Y-8200D02*
G03X54009Y-8200I689J0D01*
G03X52631I-689J0D01*
G01X56731Y-8200D02*
G03X58109Y-8200I689J0D01*
G03X56731I-689J0D01*
G01X40331Y-12300D02*
G03X41709Y-12300I689J0D01*
G03X40331I-689J0D01*
G01X44431Y-12300D02*
G03X45809Y-12300I689J0D01*
G03X44431I-689J0D01*
G01X48531Y-12300D02*
G03X49909Y-12300I689J0D01*
G03X48531I-689J0D01*
G01X52631Y-12300D02*
G03X54009Y-12300I689J0D01*
G03X52631I-689J0D01*
G01X56731Y-12300D02*
G03X58109Y-12300I689J0D01*
G03X56731I-689J0D01*
G01X40331Y-16400D02*
G03X41709Y-16400I689J0D01*
G03X40331I-689J0D01*
G01X44431Y-16400D02*
G03X45809Y-16400I689J0D01*
G03X44431I-689J0D01*
G01X48531Y-16400D02*
G03X49909Y-16400I689J0D01*
G03X48531I-689J0D01*
G01X52631Y-16400D02*
G03X54009Y-16400I689J0D01*
G03X52631I-689J0D01*
G01X56731Y-16400D02*
G03X58109Y-16400I689J0D01*
G03X56731I-689J0D01*
G01X40331Y-20500D02*
G03X41709Y-20500I689J0D01*
G03X40331I-689J0D01*
G01X44431Y-20500D02*
G03X45809Y-20500I689J0D01*
G03X44431I-689J0D01*
G01X48531Y-20500D02*
G03X49909Y-20500I689J0D01*
G03X48531I-689J0D01*
G01X52631Y-20500D02*
G03X54009Y-20500I689J0D01*
G03X52631I-689J0D01*
G01X56731Y-20500D02*
G03X58109Y-20500I689J0D01*
G03X56731I-689J0D01*
G01X40331Y-24600D02*
G03X41709Y-24600I689J0D01*
G03X40331I-689J0D01*
G01X44431Y-24600D02*
G03X45809Y-24600I689J0D01*
G03X44431I-689J0D01*
G01X48531Y-24600D02*
G03X49909Y-24600I689J0D01*
G03X48531I-689J0D01*
G01X52631Y-24600D02*
G03X54009Y-24600I689J0D01*
G03X52631I-689J0D01*
G01X56731Y-24600D02*
G03X58109Y-24600I689J0D01*
G03X56731I-689J0D01*
G04 Circle End*

M02*
