G04 Layer: DrillDrawingLayer*
G04 EasyEDA Pro v2.1.21.9b64d12f.b3811b, 2024-04-08 20:46:48*
G04 Gerber Generator version 0.3*
G04 Scale: 100 percent, Rotated: No, Reflected: No*
G04 Dimensions in millimeters*
G04 Leading zeros omitted, absolute positions, 3 integers and 3 decimals*
%FSLAX33Y33*%
%MOMM*%
%ADD10C,0.254*%
G75*


G04 Image Start*
G36*
G01X62284Y-31042D02*
G01X62284Y-31079D01*
G01X62321D01*
G01X62647D01*
G01Y-31405D01*
G01X62321D01*
G01Y-31079D01*
G01X62284D01*
G01Y-31441D01*
G01X62684D01*
G01Y-31042D01*
G37*
G36*
G01X62284Y-28502D02*
G01X62284Y-28539D01*
G01X62321D01*
G01X62647D01*
G01Y-28865D01*
G01X62321D01*
G01Y-28539D01*
G01X62284D01*
G01Y-28901D01*
G01X62684D01*
G01Y-28502D01*
G37*
G36*
G01X62284Y-25962D02*
G01X62284Y-25999D01*
G01X62321D01*
G01X62647D01*
G01Y-26325D01*
G01X62321D01*
G01Y-25999D01*
G01X62284D01*
G01Y-26361D01*
G01X62684D01*
G01Y-25962D01*
G37*
G36*
G01X62284Y-23422D02*
G01X62284Y-23459D01*
G01X62321D01*
G01X62647D01*
G01Y-23785D01*
G01X62321D01*
G01Y-23459D01*
G01X62284D01*
G01Y-23821D01*
G01X62684D01*
G01Y-23422D01*
G37*
G36*
G01X62284Y-20882D02*
G01X62284Y-20919D01*
G01X62321D01*
G01X62647D01*
G01Y-21245D01*
G01X62321D01*
G01Y-20919D01*
G01X62284D01*
G01Y-21281D01*
G01X62684D01*
G01Y-20882D01*
G37*
G36*
G01X62284Y-18342D02*
G01X62284Y-18379D01*
G01X62321D01*
G01X62647D01*
G01Y-18705D01*
G01X62321D01*
G01Y-18379D01*
G01X62284D01*
G01Y-18741D01*
G01X62684D01*
G01Y-18342D01*
G37*
G36*
G01X62284Y-15802D02*
G01X62284Y-15839D01*
G01X62321D01*
G01X62647D01*
G01Y-16165D01*
G01X62321D01*
G01Y-15839D01*
G01X62284D01*
G01Y-16202D01*
G01X62684D01*
G01Y-15802D01*
G37*
G36*
G01X62284Y-13262D02*
G01X62284Y-13299D01*
G01X62321D01*
G01X62647D01*
G01Y-13625D01*
G01X62321D01*
G01Y-13299D01*
G01X62284D01*
G01Y-13662D01*
G01X62684D01*
G01Y-13262D01*
G37*
G36*
G01X62284Y-10722D02*
G01X62284Y-10759D01*
G01X62321D01*
G01X62647D01*
G01Y-11085D01*
G01X62321D01*
G01Y-10759D01*
G01X62284D01*
G01Y-11122D01*
G01X62684D01*
G01Y-10722D01*
G37*
G36*
G01X62284Y-8183D02*
G01X62284Y-8219D01*
G01X62321D01*
G01X62647D01*
G01Y-8545D01*
G01X62321D01*
G01Y-8219D01*
G01X62284D01*
G01Y-8582D01*
G01X62684D01*
G01Y-8183D01*
G37*
G36*
G01X62284Y-5642D02*
G01X62284Y-5679D01*
G01X62321D01*
G01X62647D01*
G01Y-6005D01*
G01X62321D01*
G01Y-5679D01*
G01X62284D01*
G01Y-6041D01*
G01X62684D01*
G01Y-5642D01*
G37*
G36*
G01X62284Y-3102D02*
G01X62284Y-3139D01*
G01X62321D01*
G01X62647D01*
G01Y-3465D01*
G01X62321D01*
G01Y-3139D01*
G01X62284D01*
G01Y-3501D01*
G01X62684D01*
G01Y-3102D01*
G37*
G36*
G01X62284Y-562D02*
G01X62284Y-599D01*
G01X62321D01*
G01X62647D01*
G01Y-925D01*
G01X62321D01*
G01Y-599D01*
G01X62284D01*
G01Y-961D01*
G01X62684D01*
G01Y-562D01*
G37*
G36*
G01X62284Y1978D02*
G01X62284Y1941D01*
G01X62321D01*
G01X62647D01*
G01Y1615D01*
G01X62321D01*
G01Y1941D01*
G01X62284D01*
G01Y1579D01*
G01X62684D01*
G01Y1978D01*
G37*
G36*
G01X46390Y-31170D02*
G01X46370Y-31171D01*
G01X46350Y-31173D01*
G01X46331Y-31178D01*
G01X46312Y-31185D01*
G01X46295Y-31194D01*
G01X46278Y-31204D01*
G01X46263Y-31215D01*
G01X46249Y-31228D01*
G01X46236Y-31242D01*
G01X46224Y-31258D01*
G01X46215Y-31274D01*
G01X46206Y-31291D01*
G01X46200Y-31310D01*
G01X46194Y-31329D01*
G01X46191Y-31349D01*
G01X46190Y-31369D01*
G01X46224D01*
G01Y-31352D01*
G01X46227Y-31335D01*
G01X46231Y-31320D01*
G01X46237Y-31304D01*
G01X46244Y-31290D01*
G01X46252Y-31276D01*
G01X46262Y-31263D01*
G01X46272Y-31252D01*
G01X46284Y-31241D01*
G01X46297Y-31231D01*
G01X46311Y-31223D01*
G01X46325Y-31216D01*
G01X46341Y-31211D01*
G01X46357Y-31206D01*
G01X46373Y-31204D01*
G01X46390Y-31203D01*
G01X46407Y-31204D01*
G01X46423Y-31206D01*
G01X46439Y-31211D01*
G01X46455Y-31216D01*
G01X46469Y-31223D01*
G01X46483Y-31231D01*
G01X46496Y-31241D01*
G01X46507Y-31252D01*
G01X46518Y-31263D01*
G01X46528Y-31276D01*
G01X46536Y-31290D01*
G01X46543Y-31304D01*
G01X46549Y-31320D01*
G01X46553Y-31335D01*
G01X46555Y-31352D01*
G01X46556Y-31369D01*
G01X46555Y-31386D01*
G01X46553Y-31403D01*
G01X46549Y-31418D01*
G01X46543Y-31434D01*
G01X46536Y-31448D01*
G01X46528Y-31462D01*
G01X46518Y-31475D01*
G01X46507Y-31486D01*
G01X46496Y-31497D01*
G01X46483Y-31507D01*
G01X46469Y-31515D01*
G01X46455Y-31522D01*
G01X46439Y-31527D01*
G01X46423Y-31532D01*
G01X46407Y-31534D01*
G01X46390Y-31535D01*
G01X46373Y-31534D01*
G01X46357Y-31532D01*
G01X46341Y-31527D01*
G01X46325Y-31522D01*
G01X46311Y-31515D01*
G01X46297Y-31507D01*
G01X46284Y-31497D01*
G01X46272Y-31486D01*
G01X46262Y-31475D01*
G01X46252Y-31462D01*
G01X46244Y-31448D01*
G01X46237Y-31434D01*
G01X46231Y-31418D01*
G01X46227Y-31403D01*
G01X46224Y-31386D01*
G01Y-31369D01*
G01X46190D01*
G01X46191Y-31389D01*
G01X46194Y-31409D01*
G01X46200Y-31428D01*
G01X46206Y-31447D01*
G01X46215Y-31464D01*
G01X46224Y-31480D01*
G01X46236Y-31496D01*
G01X46249Y-31510D01*
G01X46263Y-31523D01*
G01X46278Y-31534D01*
G01X46295Y-31544D01*
G01X46312Y-31553D01*
G01X46331Y-31559D01*
G01X46350Y-31565D01*
G01X46370Y-31567D01*
G01X46390Y-31569D01*
G01X46410Y-31567D01*
G01X46430Y-31565D01*
G01X46449Y-31559D01*
G01X46467Y-31553D01*
G01X46485Y-31544D01*
G01X46501Y-31534D01*
G01X46517Y-31523D01*
G01X46531Y-31510D01*
G01X46544Y-31496D01*
G01X46555Y-31480D01*
G01X46565Y-31464D01*
G01X46573Y-31447D01*
G01X46581Y-31428D01*
G01X46585Y-31409D01*
G01X46588Y-31389D01*
G01X46589Y-31369D01*
G01X46588Y-31349D01*
G01X46585Y-31329D01*
G01X46581Y-31310D01*
G01X46573Y-31291D01*
G01X46565Y-31274D01*
G01X46555Y-31258D01*
G01X46544Y-31242D01*
G01X46531Y-31228D01*
G01X46517Y-31215D01*
G01X46501Y-31204D01*
G01X46485Y-31194D01*
G01X46467Y-31185D01*
G01X46449Y-31178D01*
G01X46430Y-31173D01*
G01X46410Y-31171D01*
G37*
G36*
G01X43850Y-31170D02*
G01X43830Y-31171D01*
G01X43810Y-31173D01*
G01X43791Y-31178D01*
G01X43772Y-31185D01*
G01X43755Y-31194D01*
G01X43738Y-31204D01*
G01X43723Y-31215D01*
G01X43709Y-31228D01*
G01X43696Y-31242D01*
G01X43684Y-31258D01*
G01X43675Y-31274D01*
G01X43666Y-31291D01*
G01X43660Y-31310D01*
G01X43654Y-31329D01*
G01X43651Y-31349D01*
G01X43650Y-31369D01*
G01X43684D01*
G01Y-31352D01*
G01X43687Y-31335D01*
G01X43691Y-31320D01*
G01X43697Y-31304D01*
G01X43704Y-31290D01*
G01X43712Y-31276D01*
G01X43722Y-31263D01*
G01X43732Y-31252D01*
G01X43744Y-31241D01*
G01X43757Y-31231D01*
G01X43771Y-31223D01*
G01X43785Y-31216D01*
G01X43801Y-31211D01*
G01X43817Y-31206D01*
G01X43833Y-31204D01*
G01X43850Y-31203D01*
G01X43867Y-31204D01*
G01X43883Y-31206D01*
G01X43899Y-31211D01*
G01X43915Y-31216D01*
G01X43929Y-31223D01*
G01X43943Y-31231D01*
G01X43956Y-31241D01*
G01X43967Y-31252D01*
G01X43978Y-31263D01*
G01X43988Y-31276D01*
G01X43996Y-31290D01*
G01X44003Y-31304D01*
G01X44009Y-31320D01*
G01X44013Y-31335D01*
G01X44015Y-31352D01*
G01X44016Y-31369D01*
G01X44015Y-31386D01*
G01X44013Y-31403D01*
G01X44009Y-31418D01*
G01X44003Y-31434D01*
G01X43996Y-31448D01*
G01X43988Y-31462D01*
G01X43978Y-31475D01*
G01X43967Y-31486D01*
G01X43956Y-31497D01*
G01X43943Y-31507D01*
G01X43929Y-31515D01*
G01X43915Y-31522D01*
G01X43899Y-31527D01*
G01X43883Y-31532D01*
G01X43867Y-31534D01*
G01X43850Y-31535D01*
G01X43833Y-31534D01*
G01X43817Y-31532D01*
G01X43801Y-31527D01*
G01X43785Y-31522D01*
G01X43771Y-31515D01*
G01X43757Y-31507D01*
G01X43744Y-31497D01*
G01X43732Y-31486D01*
G01X43722Y-31475D01*
G01X43712Y-31462D01*
G01X43704Y-31448D01*
G01X43697Y-31434D01*
G01X43691Y-31418D01*
G01X43687Y-31403D01*
G01X43684Y-31386D01*
G01Y-31369D01*
G01X43650D01*
G01X43651Y-31389D01*
G01X43654Y-31409D01*
G01X43660Y-31428D01*
G01X43666Y-31447D01*
G01X43675Y-31464D01*
G01X43684Y-31480D01*
G01X43696Y-31496D01*
G01X43709Y-31510D01*
G01X43723Y-31523D01*
G01X43738Y-31534D01*
G01X43755Y-31544D01*
G01X43772Y-31553D01*
G01X43791Y-31559D01*
G01X43810Y-31565D01*
G01X43830Y-31567D01*
G01X43850Y-31569D01*
G01X43870Y-31567D01*
G01X43890Y-31565D01*
G01X43909Y-31559D01*
G01X43927Y-31553D01*
G01X43945Y-31544D01*
G01X43961Y-31534D01*
G01X43977Y-31523D01*
G01X43991Y-31510D01*
G01X44004Y-31496D01*
G01X44015Y-31480D01*
G01X44025Y-31464D01*
G01X44033Y-31447D01*
G01X44041Y-31428D01*
G01X44045Y-31409D01*
G01X44048Y-31389D01*
G01X44049Y-31369D01*
G01X44048Y-31349D01*
G01X44045Y-31329D01*
G01X44041Y-31310D01*
G01X44033Y-31291D01*
G01X44025Y-31274D01*
G01X44015Y-31258D01*
G01X44004Y-31242D01*
G01X43991Y-31228D01*
G01X43977Y-31215D01*
G01X43961Y-31204D01*
G01X43945Y-31194D01*
G01X43927Y-31185D01*
G01X43909Y-31178D01*
G01X43890Y-31173D01*
G01X43870Y-31171D01*
G37*
G36*
G01X41310Y-31169D02*
G01X41290Y-31171D01*
G01X41270Y-31173D01*
G01X41251Y-31178D01*
G01X41232Y-31185D01*
G01X41215Y-31194D01*
G01X41198Y-31204D01*
G01X41183Y-31215D01*
G01X41169Y-31228D01*
G01X41156Y-31242D01*
G01X41144Y-31258D01*
G01X41135Y-31274D01*
G01X41126Y-31291D01*
G01X41120Y-31310D01*
G01X41114Y-31329D01*
G01X41111Y-31349D01*
G01X41110Y-31369D01*
G01X41144D01*
G01Y-31352D01*
G01X41147Y-31335D01*
G01X41151Y-31320D01*
G01X41157Y-31304D01*
G01X41164Y-31290D01*
G01X41172Y-31276D01*
G01X41182Y-31263D01*
G01X41192Y-31252D01*
G01X41204Y-31241D01*
G01X41217Y-31231D01*
G01X41231Y-31223D01*
G01X41245Y-31216D01*
G01X41261Y-31211D01*
G01X41277Y-31206D01*
G01X41293Y-31204D01*
G01X41310Y-31203D01*
G01X41327Y-31204D01*
G01X41343Y-31206D01*
G01X41359Y-31211D01*
G01X41375Y-31216D01*
G01X41389Y-31223D01*
G01X41403Y-31231D01*
G01X41416Y-31241D01*
G01X41427Y-31252D01*
G01X41438Y-31263D01*
G01X41448Y-31276D01*
G01X41456Y-31290D01*
G01X41463Y-31304D01*
G01X41469Y-31320D01*
G01X41473Y-31335D01*
G01X41475Y-31352D01*
G01X41476Y-31369D01*
G01X41475Y-31386D01*
G01X41473Y-31403D01*
G01X41469Y-31418D01*
G01X41463Y-31434D01*
G01X41456Y-31448D01*
G01X41448Y-31462D01*
G01X41438Y-31475D01*
G01X41427Y-31486D01*
G01X41416Y-31497D01*
G01X41403Y-31507D01*
G01X41389Y-31515D01*
G01X41375Y-31522D01*
G01X41359Y-31527D01*
G01X41343Y-31532D01*
G01X41327Y-31534D01*
G01X41310Y-31535D01*
G01X41293Y-31534D01*
G01X41277Y-31532D01*
G01X41261Y-31527D01*
G01X41245Y-31522D01*
G01X41231Y-31515D01*
G01X41217Y-31507D01*
G01X41204Y-31497D01*
G01X41192Y-31486D01*
G01X41182Y-31475D01*
G01X41172Y-31462D01*
G01X41164Y-31448D01*
G01X41157Y-31434D01*
G01X41151Y-31418D01*
G01X41147Y-31403D01*
G01X41144Y-31386D01*
G01Y-31369D01*
G01X41110D01*
G01X41111Y-31389D01*
G01X41114Y-31409D01*
G01X41120Y-31428D01*
G01X41126Y-31447D01*
G01X41135Y-31464D01*
G01X41144Y-31480D01*
G01X41156Y-31496D01*
G01X41169Y-31510D01*
G01X41183Y-31523D01*
G01X41198Y-31534D01*
G01X41215Y-31544D01*
G01X41232Y-31553D01*
G01X41251Y-31559D01*
G01X41270Y-31565D01*
G01X41290Y-31567D01*
G01X41310Y-31568D01*
G01X41330Y-31567D01*
G01X41350Y-31565D01*
G01X41369Y-31559D01*
G01X41387Y-31553D01*
G01X41405Y-31544D01*
G01X41421Y-31534D01*
G01X41437Y-31523D01*
G01X41451Y-31510D01*
G01X41464Y-31496D01*
G01X41475Y-31480D01*
G01X41485Y-31464D01*
G01X41493Y-31447D01*
G01X41501Y-31428D01*
G01X41505Y-31409D01*
G01X41508Y-31389D01*
G01X41509Y-31369D01*
G01X41508Y-31349D01*
G01X41505Y-31329D01*
G01X41501Y-31310D01*
G01X41493Y-31291D01*
G01X41485Y-31274D01*
G01X41475Y-31258D01*
G01X41464Y-31242D01*
G01X41451Y-31228D01*
G01X41437Y-31215D01*
G01X41421Y-31204D01*
G01X41405Y-31194D01*
G01X41387Y-31185D01*
G01X41369Y-31178D01*
G01X41350Y-31173D01*
G01X41330Y-31171D01*
G37*
G36*
G01X38770Y-31169D02*
G01X38750Y-31171D01*
G01X38730Y-31173D01*
G01X38711Y-31178D01*
G01X38692Y-31185D01*
G01X38675Y-31194D01*
G01X38658Y-31204D01*
G01X38643Y-31215D01*
G01X38629Y-31228D01*
G01X38616Y-31242D01*
G01X38604Y-31258D01*
G01X38595Y-31274D01*
G01X38586Y-31291D01*
G01X38580Y-31310D01*
G01X38574Y-31329D01*
G01X38571Y-31349D01*
G01X38570Y-31369D01*
G01X38604D01*
G01Y-31352D01*
G01X38607Y-31335D01*
G01X38611Y-31320D01*
G01X38617Y-31304D01*
G01X38624Y-31290D01*
G01X38632Y-31276D01*
G01X38642Y-31263D01*
G01X38652Y-31252D01*
G01X38664Y-31241D01*
G01X38677Y-31231D01*
G01X38691Y-31223D01*
G01X38705Y-31216D01*
G01X38721Y-31211D01*
G01X38737Y-31206D01*
G01X38753Y-31204D01*
G01X38770Y-31203D01*
G01X38787Y-31204D01*
G01X38803Y-31206D01*
G01X38819Y-31211D01*
G01X38835Y-31216D01*
G01X38849Y-31223D01*
G01X38863Y-31231D01*
G01X38876Y-31241D01*
G01X38887Y-31252D01*
G01X38898Y-31263D01*
G01X38908Y-31276D01*
G01X38916Y-31290D01*
G01X38923Y-31304D01*
G01X38929Y-31320D01*
G01X38933Y-31335D01*
G01X38935Y-31352D01*
G01X38936Y-31369D01*
G01X38935Y-31386D01*
G01X38933Y-31403D01*
G01X38929Y-31418D01*
G01X38923Y-31434D01*
G01X38916Y-31448D01*
G01X38908Y-31462D01*
G01X38898Y-31475D01*
G01X38887Y-31486D01*
G01X38876Y-31497D01*
G01X38863Y-31507D01*
G01X38849Y-31515D01*
G01X38835Y-31522D01*
G01X38819Y-31527D01*
G01X38803Y-31532D01*
G01X38787Y-31534D01*
G01X38770Y-31535D01*
G01X38753Y-31534D01*
G01X38737Y-31532D01*
G01X38721Y-31527D01*
G01X38705Y-31522D01*
G01X38691Y-31515D01*
G01X38677Y-31507D01*
G01X38664Y-31497D01*
G01X38652Y-31486D01*
G01X38642Y-31475D01*
G01X38632Y-31462D01*
G01X38624Y-31448D01*
G01X38617Y-31434D01*
G01X38611Y-31418D01*
G01X38607Y-31403D01*
G01X38604Y-31386D01*
G01Y-31369D01*
G01X38570D01*
G01X38571Y-31389D01*
G01X38574Y-31409D01*
G01X38580Y-31428D01*
G01X38586Y-31447D01*
G01X38595Y-31464D01*
G01X38604Y-31480D01*
G01X38616Y-31496D01*
G01X38629Y-31510D01*
G01X38643Y-31523D01*
G01X38658Y-31534D01*
G01X38675Y-31544D01*
G01X38692Y-31553D01*
G01X38711Y-31559D01*
G01X38730Y-31565D01*
G01X38750Y-31567D01*
G01X38770Y-31568D01*
G01X38790Y-31567D01*
G01X38810Y-31565D01*
G01X38829Y-31559D01*
G01X38847Y-31553D01*
G01X38865Y-31544D01*
G01X38881Y-31534D01*
G01X38897Y-31523D01*
G01X38911Y-31510D01*
G01X38924Y-31496D01*
G01X38935Y-31480D01*
G01X38945Y-31464D01*
G01X38953Y-31447D01*
G01X38961Y-31428D01*
G01X38965Y-31409D01*
G01X38968Y-31389D01*
G01X38969Y-31369D01*
G01X38968Y-31349D01*
G01X38965Y-31329D01*
G01X38961Y-31310D01*
G01X38953Y-31291D01*
G01X38945Y-31274D01*
G01X38935Y-31258D01*
G01X38924Y-31242D01*
G01X38911Y-31228D01*
G01X38897Y-31215D01*
G01X38881Y-31204D01*
G01X38865Y-31194D01*
G01X38847Y-31185D01*
G01X38829Y-31178D01*
G01X38810Y-31173D01*
G01X38790Y-31171D01*
G37*
G36*
G01X36230Y-31169D02*
G01X36210Y-31171D01*
G01X36190Y-31173D01*
G01X36171Y-31178D01*
G01X36152Y-31185D01*
G01X36135Y-31194D01*
G01X36118Y-31204D01*
G01X36103Y-31215D01*
G01X36089Y-31228D01*
G01X36076Y-31242D01*
G01X36064Y-31258D01*
G01X36055Y-31274D01*
G01X36046Y-31291D01*
G01X36040Y-31310D01*
G01X36034Y-31329D01*
G01X36031Y-31349D01*
G01X36030Y-31369D01*
G01X36064D01*
G01Y-31352D01*
G01X36067Y-31335D01*
G01X36071Y-31320D01*
G01X36077Y-31304D01*
G01X36084Y-31290D01*
G01X36092Y-31276D01*
G01X36102Y-31263D01*
G01X36112Y-31252D01*
G01X36124Y-31241D01*
G01X36137Y-31231D01*
G01X36151Y-31223D01*
G01X36165Y-31216D01*
G01X36181Y-31211D01*
G01X36197Y-31206D01*
G01X36213Y-31204D01*
G01X36230Y-31203D01*
G01X36247Y-31204D01*
G01X36263Y-31206D01*
G01X36279Y-31211D01*
G01X36295Y-31216D01*
G01X36309Y-31223D01*
G01X36323Y-31231D01*
G01X36336Y-31241D01*
G01X36347Y-31252D01*
G01X36358Y-31263D01*
G01X36368Y-31276D01*
G01X36376Y-31290D01*
G01X36383Y-31304D01*
G01X36389Y-31320D01*
G01X36393Y-31335D01*
G01X36395Y-31352D01*
G01X36396Y-31369D01*
G01X36395Y-31386D01*
G01X36393Y-31403D01*
G01X36389Y-31418D01*
G01X36383Y-31434D01*
G01X36376Y-31448D01*
G01X36368Y-31462D01*
G01X36358Y-31475D01*
G01X36347Y-31486D01*
G01X36336Y-31497D01*
G01X36323Y-31507D01*
G01X36309Y-31515D01*
G01X36295Y-31522D01*
G01X36279Y-31527D01*
G01X36263Y-31532D01*
G01X36247Y-31534D01*
G01X36230Y-31535D01*
G01X36213Y-31534D01*
G01X36197Y-31532D01*
G01X36181Y-31527D01*
G01X36165Y-31522D01*
G01X36151Y-31515D01*
G01X36137Y-31507D01*
G01X36124Y-31497D01*
G01X36112Y-31486D01*
G01X36102Y-31475D01*
G01X36092Y-31462D01*
G01X36084Y-31448D01*
G01X36077Y-31434D01*
G01X36071Y-31418D01*
G01X36067Y-31403D01*
G01X36064Y-31386D01*
G01Y-31369D01*
G01X36030D01*
G01X36031Y-31389D01*
G01X36034Y-31409D01*
G01X36040Y-31428D01*
G01X36046Y-31447D01*
G01X36055Y-31464D01*
G01X36064Y-31480D01*
G01X36076Y-31496D01*
G01X36089Y-31510D01*
G01X36103Y-31523D01*
G01X36118Y-31534D01*
G01X36135Y-31544D01*
G01X36152Y-31553D01*
G01X36171Y-31559D01*
G01X36190Y-31565D01*
G01X36210Y-31567D01*
G01X36230Y-31568D01*
G01X36250Y-31567D01*
G01X36270Y-31565D01*
G01X36289Y-31559D01*
G01X36307Y-31553D01*
G01X36325Y-31544D01*
G01X36341Y-31534D01*
G01X36357Y-31523D01*
G01X36371Y-31510D01*
G01X36384Y-31496D01*
G01X36395Y-31480D01*
G01X36405Y-31464D01*
G01X36413Y-31447D01*
G01X36421Y-31428D01*
G01X36425Y-31409D01*
G01X36428Y-31389D01*
G01X36429Y-31369D01*
G01X36428Y-31349D01*
G01X36425Y-31329D01*
G01X36421Y-31310D01*
G01X36413Y-31291D01*
G01X36405Y-31274D01*
G01X36395Y-31258D01*
G01X36384Y-31242D01*
G01X36371Y-31228D01*
G01X36357Y-31215D01*
G01X36341Y-31204D01*
G01X36325Y-31194D01*
G01X36307Y-31185D01*
G01X36289Y-31178D01*
G01X36270Y-31173D01*
G01X36250Y-31171D01*
G37*
G36*
G01X33690Y-31169D02*
G01X33670Y-31171D01*
G01X33650Y-31173D01*
G01X33631Y-31178D01*
G01X33612Y-31185D01*
G01X33595Y-31194D01*
G01X33578Y-31204D01*
G01X33563Y-31215D01*
G01X33549Y-31228D01*
G01X33536Y-31242D01*
G01X33524Y-31258D01*
G01X33515Y-31274D01*
G01X33506Y-31291D01*
G01X33500Y-31310D01*
G01X33494Y-31329D01*
G01X33491Y-31349D01*
G01X33490Y-31369D01*
G01X33524D01*
G01Y-31352D01*
G01X33527Y-31335D01*
G01X33531Y-31320D01*
G01X33537Y-31304D01*
G01X33544Y-31290D01*
G01X33552Y-31276D01*
G01X33562Y-31263D01*
G01X33572Y-31252D01*
G01X33584Y-31241D01*
G01X33597Y-31231D01*
G01X33611Y-31223D01*
G01X33625Y-31216D01*
G01X33641Y-31211D01*
G01X33657Y-31206D01*
G01X33673Y-31204D01*
G01X33690Y-31203D01*
G01X33707Y-31204D01*
G01X33723Y-31206D01*
G01X33739Y-31211D01*
G01X33755Y-31216D01*
G01X33769Y-31223D01*
G01X33783Y-31231D01*
G01X33796Y-31241D01*
G01X33807Y-31252D01*
G01X33818Y-31263D01*
G01X33828Y-31276D01*
G01X33836Y-31290D01*
G01X33843Y-31304D01*
G01X33849Y-31320D01*
G01X33853Y-31335D01*
G01X33855Y-31352D01*
G01X33856Y-31369D01*
G01X33855Y-31386D01*
G01X33853Y-31403D01*
G01X33849Y-31418D01*
G01X33843Y-31434D01*
G01X33836Y-31448D01*
G01X33828Y-31462D01*
G01X33818Y-31475D01*
G01X33807Y-31486D01*
G01X33796Y-31497D01*
G01X33783Y-31507D01*
G01X33769Y-31515D01*
G01X33755Y-31522D01*
G01X33739Y-31527D01*
G01X33723Y-31532D01*
G01X33707Y-31534D01*
G01X33690Y-31535D01*
G01X33673Y-31534D01*
G01X33657Y-31532D01*
G01X33641Y-31527D01*
G01X33625Y-31522D01*
G01X33611Y-31515D01*
G01X33597Y-31507D01*
G01X33584Y-31497D01*
G01X33572Y-31486D01*
G01X33562Y-31475D01*
G01X33552Y-31462D01*
G01X33544Y-31448D01*
G01X33537Y-31434D01*
G01X33531Y-31418D01*
G01X33527Y-31403D01*
G01X33524Y-31386D01*
G01Y-31369D01*
G01X33490D01*
G01X33491Y-31389D01*
G01X33494Y-31409D01*
G01X33500Y-31428D01*
G01X33506Y-31447D01*
G01X33515Y-31464D01*
G01X33524Y-31480D01*
G01X33536Y-31496D01*
G01X33549Y-31510D01*
G01X33563Y-31523D01*
G01X33578Y-31534D01*
G01X33595Y-31544D01*
G01X33612Y-31553D01*
G01X33631Y-31559D01*
G01X33650Y-31565D01*
G01X33670Y-31567D01*
G01X33690Y-31568D01*
G01X33710Y-31567D01*
G01X33730Y-31565D01*
G01X33749Y-31559D01*
G01X33767Y-31553D01*
G01X33785Y-31544D01*
G01X33801Y-31534D01*
G01X33817Y-31523D01*
G01X33831Y-31510D01*
G01X33844Y-31496D01*
G01X33855Y-31480D01*
G01X33865Y-31464D01*
G01X33873Y-31447D01*
G01X33881Y-31428D01*
G01X33885Y-31409D01*
G01X33888Y-31389D01*
G01X33889Y-31369D01*
G01X33888Y-31349D01*
G01X33885Y-31329D01*
G01X33881Y-31310D01*
G01X33873Y-31291D01*
G01X33865Y-31274D01*
G01X33855Y-31258D01*
G01X33844Y-31242D01*
G01X33831Y-31228D01*
G01X33817Y-31215D01*
G01X33801Y-31204D01*
G01X33785Y-31194D01*
G01X33767Y-31185D01*
G01X33749Y-31178D01*
G01X33730Y-31173D01*
G01X33710Y-31171D01*
G37*
G36*
G01X31150Y-31169D02*
G01X31130Y-31171D01*
G01X31110Y-31173D01*
G01X31091Y-31178D01*
G01X31072Y-31185D01*
G01X31055Y-31194D01*
G01X31038Y-31204D01*
G01X31023Y-31215D01*
G01X31009Y-31228D01*
G01X30996Y-31242D01*
G01X30984Y-31258D01*
G01X30975Y-31274D01*
G01X30966Y-31291D01*
G01X30960Y-31310D01*
G01X30954Y-31329D01*
G01X30951Y-31349D01*
G01X30950Y-31369D01*
G01X30984D01*
G01Y-31352D01*
G01X30987Y-31335D01*
G01X30991Y-31320D01*
G01X30997Y-31304D01*
G01X31004Y-31290D01*
G01X31012Y-31276D01*
G01X31022Y-31263D01*
G01X31032Y-31252D01*
G01X31044Y-31241D01*
G01X31057Y-31231D01*
G01X31071Y-31223D01*
G01X31085Y-31216D01*
G01X31101Y-31211D01*
G01X31117Y-31206D01*
G01X31133Y-31204D01*
G01X31150Y-31203D01*
G01X31167Y-31204D01*
G01X31183Y-31206D01*
G01X31199Y-31211D01*
G01X31215Y-31216D01*
G01X31229Y-31223D01*
G01X31243Y-31231D01*
G01X31256Y-31241D01*
G01X31267Y-31252D01*
G01X31278Y-31263D01*
G01X31288Y-31276D01*
G01X31296Y-31290D01*
G01X31303Y-31304D01*
G01X31309Y-31320D01*
G01X31313Y-31335D01*
G01X31315Y-31352D01*
G01X31316Y-31369D01*
G01X31315Y-31386D01*
G01X31313Y-31403D01*
G01X31309Y-31418D01*
G01X31303Y-31434D01*
G01X31296Y-31448D01*
G01X31288Y-31462D01*
G01X31278Y-31475D01*
G01X31267Y-31486D01*
G01X31256Y-31497D01*
G01X31243Y-31507D01*
G01X31229Y-31515D01*
G01X31215Y-31522D01*
G01X31199Y-31527D01*
G01X31183Y-31532D01*
G01X31167Y-31534D01*
G01X31150Y-31535D01*
G01X31133Y-31534D01*
G01X31117Y-31532D01*
G01X31101Y-31527D01*
G01X31085Y-31522D01*
G01X31071Y-31515D01*
G01X31057Y-31507D01*
G01X31044Y-31497D01*
G01X31032Y-31486D01*
G01X31022Y-31475D01*
G01X31012Y-31462D01*
G01X31004Y-31448D01*
G01X30997Y-31434D01*
G01X30991Y-31418D01*
G01X30987Y-31403D01*
G01X30984Y-31386D01*
G01Y-31369D01*
G01X30950D01*
G01X30951Y-31389D01*
G01X30954Y-31409D01*
G01X30960Y-31428D01*
G01X30966Y-31447D01*
G01X30975Y-31464D01*
G01X30984Y-31480D01*
G01X30996Y-31496D01*
G01X31009Y-31510D01*
G01X31023Y-31523D01*
G01X31038Y-31534D01*
G01X31055Y-31544D01*
G01X31072Y-31553D01*
G01X31091Y-31559D01*
G01X31110Y-31565D01*
G01X31130Y-31567D01*
G01X31150Y-31568D01*
G01X31170Y-31567D01*
G01X31190Y-31565D01*
G01X31209Y-31559D01*
G01X31227Y-31553D01*
G01X31245Y-31544D01*
G01X31261Y-31534D01*
G01X31277Y-31523D01*
G01X31291Y-31510D01*
G01X31304Y-31496D01*
G01X31315Y-31480D01*
G01X31325Y-31464D01*
G01X31333Y-31447D01*
G01X31341Y-31428D01*
G01X31345Y-31409D01*
G01X31348Y-31389D01*
G01X31349Y-31369D01*
G01X31348Y-31349D01*
G01X31345Y-31329D01*
G01X31341Y-31310D01*
G01X31333Y-31291D01*
G01X31325Y-31274D01*
G01X31315Y-31258D01*
G01X31304Y-31242D01*
G01X31291Y-31228D01*
G01X31277Y-31215D01*
G01X31261Y-31204D01*
G01X31245Y-31194D01*
G01X31227Y-31185D01*
G01X31209Y-31178D01*
G01X31190Y-31173D01*
G01X31170Y-31171D01*
G37*
G36*
G01X28610Y-31169D02*
G01X28590Y-31171D01*
G01X28570Y-31173D01*
G01X28551Y-31178D01*
G01X28532Y-31185D01*
G01X28515Y-31194D01*
G01X28498Y-31204D01*
G01X28483Y-31215D01*
G01X28469Y-31228D01*
G01X28456Y-31242D01*
G01X28444Y-31258D01*
G01X28435Y-31274D01*
G01X28426Y-31291D01*
G01X28420Y-31310D01*
G01X28414Y-31329D01*
G01X28411Y-31349D01*
G01X28410Y-31369D01*
G01X28444D01*
G01Y-31352D01*
G01X28447Y-31335D01*
G01X28451Y-31320D01*
G01X28457Y-31304D01*
G01X28464Y-31290D01*
G01X28472Y-31276D01*
G01X28482Y-31263D01*
G01X28492Y-31252D01*
G01X28504Y-31241D01*
G01X28517Y-31231D01*
G01X28531Y-31223D01*
G01X28545Y-31216D01*
G01X28561Y-31211D01*
G01X28577Y-31206D01*
G01X28593Y-31204D01*
G01X28610Y-31203D01*
G01X28627Y-31204D01*
G01X28643Y-31206D01*
G01X28659Y-31211D01*
G01X28675Y-31216D01*
G01X28689Y-31223D01*
G01X28703Y-31231D01*
G01X28716Y-31241D01*
G01X28727Y-31252D01*
G01X28738Y-31263D01*
G01X28748Y-31276D01*
G01X28756Y-31290D01*
G01X28763Y-31304D01*
G01X28769Y-31320D01*
G01X28773Y-31335D01*
G01X28775Y-31352D01*
G01X28776Y-31369D01*
G01X28775Y-31386D01*
G01X28773Y-31403D01*
G01X28769Y-31418D01*
G01X28763Y-31434D01*
G01X28756Y-31448D01*
G01X28748Y-31462D01*
G01X28738Y-31475D01*
G01X28727Y-31486D01*
G01X28716Y-31497D01*
G01X28703Y-31507D01*
G01X28689Y-31515D01*
G01X28675Y-31522D01*
G01X28659Y-31527D01*
G01X28643Y-31532D01*
G01X28627Y-31534D01*
G01X28610Y-31535D01*
G01X28593Y-31534D01*
G01X28577Y-31532D01*
G01X28561Y-31527D01*
G01X28545Y-31522D01*
G01X28531Y-31515D01*
G01X28517Y-31507D01*
G01X28504Y-31497D01*
G01X28492Y-31486D01*
G01X28482Y-31475D01*
G01X28472Y-31462D01*
G01X28464Y-31448D01*
G01X28457Y-31434D01*
G01X28451Y-31418D01*
G01X28447Y-31403D01*
G01X28444Y-31386D01*
G01Y-31369D01*
G01X28410D01*
G01X28411Y-31389D01*
G01X28414Y-31409D01*
G01X28420Y-31428D01*
G01X28426Y-31447D01*
G01X28435Y-31464D01*
G01X28444Y-31480D01*
G01X28456Y-31496D01*
G01X28469Y-31510D01*
G01X28483Y-31523D01*
G01X28498Y-31534D01*
G01X28515Y-31544D01*
G01X28532Y-31553D01*
G01X28551Y-31559D01*
G01X28570Y-31565D01*
G01X28590Y-31567D01*
G01X28610Y-31568D01*
G01X28630Y-31567D01*
G01X28650Y-31565D01*
G01X28669Y-31559D01*
G01X28687Y-31553D01*
G01X28705Y-31544D01*
G01X28721Y-31534D01*
G01X28737Y-31523D01*
G01X28751Y-31510D01*
G01X28764Y-31496D01*
G01X28775Y-31480D01*
G01X28785Y-31464D01*
G01X28793Y-31447D01*
G01X28801Y-31428D01*
G01X28805Y-31409D01*
G01X28808Y-31389D01*
G01X28809Y-31369D01*
G01X28808Y-31349D01*
G01X28805Y-31329D01*
G01X28801Y-31310D01*
G01X28793Y-31291D01*
G01X28785Y-31274D01*
G01X28775Y-31258D01*
G01X28764Y-31242D01*
G01X28751Y-31228D01*
G01X28737Y-31215D01*
G01X28721Y-31204D01*
G01X28705Y-31194D01*
G01X28687Y-31185D01*
G01X28669Y-31178D01*
G01X28650Y-31173D01*
G01X28630Y-31171D01*
G37*
G36*
G01X26070Y-31169D02*
G01X26050Y-31171D01*
G01X26030Y-31173D01*
G01X26011Y-31178D01*
G01X25992Y-31185D01*
G01X25975Y-31194D01*
G01X25958Y-31204D01*
G01X25943Y-31215D01*
G01X25929Y-31228D01*
G01X25916Y-31242D01*
G01X25904Y-31258D01*
G01X25895Y-31274D01*
G01X25886Y-31291D01*
G01X25880Y-31310D01*
G01X25874Y-31329D01*
G01X25871Y-31349D01*
G01X25870Y-31369D01*
G01X25904D01*
G01Y-31352D01*
G01X25907Y-31335D01*
G01X25911Y-31320D01*
G01X25917Y-31304D01*
G01X25924Y-31290D01*
G01X25932Y-31276D01*
G01X25942Y-31263D01*
G01X25952Y-31252D01*
G01X25964Y-31241D01*
G01X25977Y-31231D01*
G01X25991Y-31223D01*
G01X26005Y-31216D01*
G01X26021Y-31211D01*
G01X26037Y-31206D01*
G01X26053Y-31204D01*
G01X26070Y-31203D01*
G01X26087Y-31204D01*
G01X26103Y-31206D01*
G01X26119Y-31211D01*
G01X26135Y-31216D01*
G01X26149Y-31223D01*
G01X26163Y-31231D01*
G01X26176Y-31241D01*
G01X26187Y-31252D01*
G01X26198Y-31263D01*
G01X26208Y-31276D01*
G01X26216Y-31290D01*
G01X26223Y-31304D01*
G01X26229Y-31320D01*
G01X26233Y-31335D01*
G01X26235Y-31352D01*
G01X26236Y-31369D01*
G01X26235Y-31386D01*
G01X26233Y-31403D01*
G01X26229Y-31418D01*
G01X26223Y-31434D01*
G01X26216Y-31448D01*
G01X26208Y-31462D01*
G01X26198Y-31475D01*
G01X26187Y-31486D01*
G01X26176Y-31497D01*
G01X26163Y-31507D01*
G01X26149Y-31515D01*
G01X26135Y-31522D01*
G01X26119Y-31527D01*
G01X26103Y-31532D01*
G01X26087Y-31534D01*
G01X26070Y-31535D01*
G01X26053Y-31534D01*
G01X26037Y-31532D01*
G01X26021Y-31527D01*
G01X26005Y-31522D01*
G01X25991Y-31515D01*
G01X25977Y-31507D01*
G01X25964Y-31497D01*
G01X25952Y-31486D01*
G01X25942Y-31475D01*
G01X25932Y-31462D01*
G01X25924Y-31448D01*
G01X25917Y-31434D01*
G01X25911Y-31418D01*
G01X25907Y-31403D01*
G01X25904Y-31386D01*
G01Y-31369D01*
G01X25870D01*
G01X25871Y-31389D01*
G01X25874Y-31409D01*
G01X25880Y-31428D01*
G01X25886Y-31447D01*
G01X25895Y-31464D01*
G01X25904Y-31480D01*
G01X25916Y-31496D01*
G01X25929Y-31510D01*
G01X25943Y-31523D01*
G01X25958Y-31534D01*
G01X25975Y-31544D01*
G01X25992Y-31553D01*
G01X26011Y-31559D01*
G01X26030Y-31565D01*
G01X26050Y-31567D01*
G01X26070Y-31568D01*
G01X26090Y-31567D01*
G01X26110Y-31565D01*
G01X26129Y-31559D01*
G01X26147Y-31553D01*
G01X26165Y-31544D01*
G01X26181Y-31534D01*
G01X26197Y-31523D01*
G01X26211Y-31510D01*
G01X26224Y-31496D01*
G01X26235Y-31480D01*
G01X26245Y-31464D01*
G01X26253Y-31447D01*
G01X26261Y-31428D01*
G01X26265Y-31409D01*
G01X26268Y-31389D01*
G01X26269Y-31369D01*
G01X26268Y-31349D01*
G01X26265Y-31329D01*
G01X26261Y-31310D01*
G01X26253Y-31291D01*
G01X26245Y-31274D01*
G01X26235Y-31258D01*
G01X26224Y-31242D01*
G01X26211Y-31228D01*
G01X26197Y-31215D01*
G01X26181Y-31204D01*
G01X26165Y-31194D01*
G01X26147Y-31185D01*
G01X26129Y-31178D01*
G01X26110Y-31173D01*
G01X26090Y-31171D01*
G37*
G36*
G01X23530Y-31169D02*
G01X23510Y-31171D01*
G01X23490Y-31173D01*
G01X23471Y-31178D01*
G01X23452Y-31185D01*
G01X23435Y-31194D01*
G01X23418Y-31204D01*
G01X23403Y-31215D01*
G01X23389Y-31228D01*
G01X23376Y-31242D01*
G01X23364Y-31258D01*
G01X23355Y-31274D01*
G01X23346Y-31291D01*
G01X23340Y-31310D01*
G01X23334Y-31329D01*
G01X23331Y-31349D01*
G01X23330Y-31369D01*
G01X23364D01*
G01Y-31352D01*
G01X23367Y-31335D01*
G01X23371Y-31320D01*
G01X23377Y-31304D01*
G01X23384Y-31290D01*
G01X23392Y-31276D01*
G01X23402Y-31263D01*
G01X23412Y-31252D01*
G01X23424Y-31241D01*
G01X23437Y-31231D01*
G01X23451Y-31223D01*
G01X23465Y-31216D01*
G01X23481Y-31211D01*
G01X23497Y-31206D01*
G01X23513Y-31204D01*
G01X23530Y-31203D01*
G01X23547Y-31204D01*
G01X23563Y-31206D01*
G01X23579Y-31211D01*
G01X23595Y-31216D01*
G01X23609Y-31223D01*
G01X23623Y-31231D01*
G01X23636Y-31241D01*
G01X23647Y-31252D01*
G01X23658Y-31263D01*
G01X23668Y-31276D01*
G01X23676Y-31290D01*
G01X23683Y-31304D01*
G01X23689Y-31320D01*
G01X23693Y-31335D01*
G01X23695Y-31352D01*
G01X23696Y-31369D01*
G01X23695Y-31386D01*
G01X23693Y-31403D01*
G01X23689Y-31418D01*
G01X23683Y-31434D01*
G01X23676Y-31448D01*
G01X23668Y-31462D01*
G01X23658Y-31475D01*
G01X23647Y-31486D01*
G01X23636Y-31497D01*
G01X23623Y-31507D01*
G01X23609Y-31515D01*
G01X23595Y-31522D01*
G01X23579Y-31527D01*
G01X23563Y-31532D01*
G01X23547Y-31534D01*
G01X23530Y-31535D01*
G01X23513Y-31534D01*
G01X23497Y-31532D01*
G01X23481Y-31527D01*
G01X23465Y-31522D01*
G01X23451Y-31515D01*
G01X23437Y-31507D01*
G01X23424Y-31497D01*
G01X23412Y-31486D01*
G01X23402Y-31475D01*
G01X23392Y-31462D01*
G01X23384Y-31448D01*
G01X23377Y-31434D01*
G01X23371Y-31418D01*
G01X23367Y-31403D01*
G01X23364Y-31386D01*
G01Y-31369D01*
G01X23330D01*
G01X23331Y-31389D01*
G01X23334Y-31409D01*
G01X23340Y-31428D01*
G01X23346Y-31447D01*
G01X23355Y-31464D01*
G01X23364Y-31480D01*
G01X23376Y-31496D01*
G01X23389Y-31510D01*
G01X23403Y-31523D01*
G01X23418Y-31534D01*
G01X23435Y-31544D01*
G01X23452Y-31553D01*
G01X23471Y-31559D01*
G01X23490Y-31565D01*
G01X23510Y-31567D01*
G01X23530Y-31568D01*
G01X23550Y-31567D01*
G01X23570Y-31565D01*
G01X23589Y-31559D01*
G01X23607Y-31553D01*
G01X23625Y-31544D01*
G01X23641Y-31534D01*
G01X23657Y-31523D01*
G01X23671Y-31510D01*
G01X23684Y-31496D01*
G01X23695Y-31480D01*
G01X23705Y-31464D01*
G01X23713Y-31447D01*
G01X23721Y-31428D01*
G01X23725Y-31409D01*
G01X23728Y-31389D01*
G01X23729Y-31369D01*
G01X23728Y-31349D01*
G01X23725Y-31329D01*
G01X23721Y-31310D01*
G01X23713Y-31291D01*
G01X23705Y-31274D01*
G01X23695Y-31258D01*
G01X23684Y-31242D01*
G01X23671Y-31228D01*
G01X23657Y-31215D01*
G01X23641Y-31204D01*
G01X23625Y-31194D01*
G01X23607Y-31185D01*
G01X23589Y-31178D01*
G01X23570Y-31173D01*
G01X23550Y-31171D01*
G37*
G36*
G01X20990Y-31169D02*
G01X20970Y-31171D01*
G01X20950Y-31173D01*
G01X20931Y-31178D01*
G01X20912Y-31185D01*
G01X20895Y-31194D01*
G01X20878Y-31204D01*
G01X20863Y-31215D01*
G01X20849Y-31228D01*
G01X20836Y-31242D01*
G01X20824Y-31258D01*
G01X20815Y-31274D01*
G01X20806Y-31291D01*
G01X20800Y-31310D01*
G01X20794Y-31329D01*
G01X20791Y-31349D01*
G01X20790Y-31369D01*
G01X20824D01*
G01Y-31352D01*
G01X20827Y-31335D01*
G01X20831Y-31320D01*
G01X20837Y-31304D01*
G01X20844Y-31290D01*
G01X20852Y-31276D01*
G01X20862Y-31263D01*
G01X20872Y-31252D01*
G01X20884Y-31241D01*
G01X20897Y-31231D01*
G01X20911Y-31223D01*
G01X20925Y-31216D01*
G01X20941Y-31211D01*
G01X20957Y-31206D01*
G01X20973Y-31204D01*
G01X20990Y-31203D01*
G01X21007Y-31204D01*
G01X21023Y-31206D01*
G01X21039Y-31211D01*
G01X21055Y-31216D01*
G01X21069Y-31223D01*
G01X21083Y-31231D01*
G01X21096Y-31241D01*
G01X21107Y-31252D01*
G01X21118Y-31263D01*
G01X21128Y-31276D01*
G01X21136Y-31290D01*
G01X21143Y-31304D01*
G01X21149Y-31320D01*
G01X21153Y-31335D01*
G01X21155Y-31352D01*
G01X21156Y-31369D01*
G01X21155Y-31386D01*
G01X21153Y-31403D01*
G01X21149Y-31418D01*
G01X21143Y-31434D01*
G01X21136Y-31448D01*
G01X21128Y-31462D01*
G01X21118Y-31475D01*
G01X21107Y-31486D01*
G01X21096Y-31497D01*
G01X21083Y-31507D01*
G01X21069Y-31515D01*
G01X21055Y-31522D01*
G01X21039Y-31527D01*
G01X21023Y-31532D01*
G01X21007Y-31534D01*
G01X20990Y-31535D01*
G01X20973Y-31534D01*
G01X20957Y-31532D01*
G01X20941Y-31527D01*
G01X20925Y-31522D01*
G01X20911Y-31515D01*
G01X20897Y-31507D01*
G01X20884Y-31497D01*
G01X20872Y-31486D01*
G01X20862Y-31475D01*
G01X20852Y-31462D01*
G01X20844Y-31448D01*
G01X20837Y-31434D01*
G01X20831Y-31418D01*
G01X20827Y-31403D01*
G01X20824Y-31386D01*
G01Y-31369D01*
G01X20790D01*
G01X20791Y-31389D01*
G01X20794Y-31409D01*
G01X20800Y-31428D01*
G01X20806Y-31447D01*
G01X20815Y-31464D01*
G01X20824Y-31480D01*
G01X20836Y-31496D01*
G01X20849Y-31510D01*
G01X20863Y-31523D01*
G01X20878Y-31534D01*
G01X20895Y-31544D01*
G01X20912Y-31553D01*
G01X20931Y-31559D01*
G01X20950Y-31565D01*
G01X20970Y-31567D01*
G01X20990Y-31568D01*
G01X21010Y-31567D01*
G01X21030Y-31565D01*
G01X21049Y-31559D01*
G01X21067Y-31553D01*
G01X21085Y-31544D01*
G01X21101Y-31534D01*
G01X21117Y-31523D01*
G01X21131Y-31510D01*
G01X21144Y-31496D01*
G01X21155Y-31480D01*
G01X21165Y-31464D01*
G01X21173Y-31447D01*
G01X21181Y-31428D01*
G01X21185Y-31409D01*
G01X21188Y-31389D01*
G01X21189Y-31369D01*
G01X21188Y-31349D01*
G01X21185Y-31329D01*
G01X21181Y-31310D01*
G01X21173Y-31291D01*
G01X21165Y-31274D01*
G01X21155Y-31258D01*
G01X21144Y-31242D01*
G01X21131Y-31228D01*
G01X21117Y-31215D01*
G01X21101Y-31204D01*
G01X21085Y-31194D01*
G01X21067Y-31185D01*
G01X21049Y-31178D01*
G01X21030Y-31173D01*
G01X21010Y-31171D01*
G37*
G36*
G01X18450Y-31169D02*
G01X18430Y-31171D01*
G01X18410Y-31173D01*
G01X18391Y-31178D01*
G01X18372Y-31185D01*
G01X18355Y-31194D01*
G01X18338Y-31204D01*
G01X18323Y-31215D01*
G01X18309Y-31228D01*
G01X18296Y-31242D01*
G01X18284Y-31258D01*
G01X18275Y-31274D01*
G01X18266Y-31291D01*
G01X18260Y-31310D01*
G01X18254Y-31329D01*
G01X18251Y-31349D01*
G01X18250Y-31369D01*
G01X18284D01*
G01Y-31352D01*
G01X18287Y-31335D01*
G01X18291Y-31320D01*
G01X18297Y-31304D01*
G01X18304Y-31290D01*
G01X18312Y-31276D01*
G01X18322Y-31263D01*
G01X18332Y-31252D01*
G01X18344Y-31241D01*
G01X18357Y-31231D01*
G01X18371Y-31223D01*
G01X18385Y-31216D01*
G01X18401Y-31211D01*
G01X18417Y-31206D01*
G01X18433Y-31204D01*
G01X18450Y-31203D01*
G01X18467Y-31204D01*
G01X18483Y-31206D01*
G01X18499Y-31211D01*
G01X18515Y-31216D01*
G01X18529Y-31223D01*
G01X18543Y-31231D01*
G01X18556Y-31241D01*
G01X18567Y-31252D01*
G01X18578Y-31263D01*
G01X18588Y-31276D01*
G01X18596Y-31290D01*
G01X18603Y-31304D01*
G01X18609Y-31320D01*
G01X18613Y-31335D01*
G01X18615Y-31352D01*
G01X18616Y-31369D01*
G01X18615Y-31386D01*
G01X18613Y-31403D01*
G01X18609Y-31418D01*
G01X18603Y-31434D01*
G01X18596Y-31448D01*
G01X18588Y-31462D01*
G01X18578Y-31475D01*
G01X18567Y-31486D01*
G01X18556Y-31497D01*
G01X18543Y-31507D01*
G01X18529Y-31515D01*
G01X18515Y-31522D01*
G01X18499Y-31527D01*
G01X18483Y-31532D01*
G01X18467Y-31534D01*
G01X18450Y-31535D01*
G01X18433Y-31534D01*
G01X18417Y-31532D01*
G01X18401Y-31527D01*
G01X18385Y-31522D01*
G01X18371Y-31515D01*
G01X18357Y-31507D01*
G01X18344Y-31497D01*
G01X18332Y-31486D01*
G01X18322Y-31475D01*
G01X18312Y-31462D01*
G01X18304Y-31448D01*
G01X18297Y-31434D01*
G01X18291Y-31418D01*
G01X18287Y-31403D01*
G01X18284Y-31386D01*
G01Y-31369D01*
G01X18250D01*
G01X18251Y-31389D01*
G01X18254Y-31409D01*
G01X18260Y-31428D01*
G01X18266Y-31447D01*
G01X18275Y-31464D01*
G01X18284Y-31480D01*
G01X18296Y-31496D01*
G01X18309Y-31510D01*
G01X18323Y-31523D01*
G01X18338Y-31534D01*
G01X18355Y-31544D01*
G01X18372Y-31553D01*
G01X18391Y-31559D01*
G01X18410Y-31565D01*
G01X18430Y-31567D01*
G01X18450Y-31568D01*
G01X18470Y-31567D01*
G01X18490Y-31565D01*
G01X18509Y-31559D01*
G01X18527Y-31553D01*
G01X18545Y-31544D01*
G01X18561Y-31534D01*
G01X18577Y-31523D01*
G01X18591Y-31510D01*
G01X18604Y-31496D01*
G01X18615Y-31480D01*
G01X18625Y-31464D01*
G01X18633Y-31447D01*
G01X18641Y-31428D01*
G01X18645Y-31409D01*
G01X18648Y-31389D01*
G01X18649Y-31369D01*
G01X18648Y-31349D01*
G01X18645Y-31329D01*
G01X18641Y-31310D01*
G01X18633Y-31291D01*
G01X18625Y-31274D01*
G01X18615Y-31258D01*
G01X18604Y-31242D01*
G01X18591Y-31228D01*
G01X18577Y-31215D01*
G01X18561Y-31204D01*
G01X18545Y-31194D01*
G01X18527Y-31185D01*
G01X18509Y-31178D01*
G01X18490Y-31173D01*
G01X18470Y-31171D01*
G37*
G36*
G01X15910Y-31169D02*
G01X15890Y-31171D01*
G01X15870Y-31173D01*
G01X15851Y-31178D01*
G01X15832Y-31185D01*
G01X15815Y-31194D01*
G01X15798Y-31204D01*
G01X15783Y-31215D01*
G01X15769Y-31228D01*
G01X15756Y-31242D01*
G01X15744Y-31258D01*
G01X15735Y-31274D01*
G01X15726Y-31291D01*
G01X15720Y-31310D01*
G01X15714Y-31329D01*
G01X15711Y-31349D01*
G01X15710Y-31369D01*
G01X15744D01*
G01Y-31352D01*
G01X15747Y-31335D01*
G01X15751Y-31320D01*
G01X15757Y-31304D01*
G01X15764Y-31290D01*
G01X15772Y-31276D01*
G01X15782Y-31263D01*
G01X15792Y-31252D01*
G01X15804Y-31241D01*
G01X15817Y-31231D01*
G01X15831Y-31223D01*
G01X15845Y-31216D01*
G01X15861Y-31211D01*
G01X15877Y-31206D01*
G01X15893Y-31204D01*
G01X15910Y-31203D01*
G01X15927Y-31204D01*
G01X15943Y-31206D01*
G01X15959Y-31211D01*
G01X15975Y-31216D01*
G01X15989Y-31223D01*
G01X16003Y-31231D01*
G01X16016Y-31241D01*
G01X16027Y-31252D01*
G01X16038Y-31263D01*
G01X16048Y-31276D01*
G01X16056Y-31290D01*
G01X16063Y-31304D01*
G01X16069Y-31320D01*
G01X16073Y-31335D01*
G01X16075Y-31352D01*
G01X16076Y-31369D01*
G01X16075Y-31386D01*
G01X16073Y-31403D01*
G01X16069Y-31418D01*
G01X16063Y-31434D01*
G01X16056Y-31448D01*
G01X16048Y-31462D01*
G01X16038Y-31475D01*
G01X16027Y-31486D01*
G01X16016Y-31497D01*
G01X16003Y-31507D01*
G01X15989Y-31515D01*
G01X15975Y-31522D01*
G01X15959Y-31527D01*
G01X15943Y-31532D01*
G01X15927Y-31534D01*
G01X15910Y-31535D01*
G01X15893Y-31534D01*
G01X15877Y-31532D01*
G01X15861Y-31527D01*
G01X15845Y-31522D01*
G01X15831Y-31515D01*
G01X15817Y-31507D01*
G01X15804Y-31497D01*
G01X15792Y-31486D01*
G01X15782Y-31475D01*
G01X15772Y-31462D01*
G01X15764Y-31448D01*
G01X15757Y-31434D01*
G01X15751Y-31418D01*
G01X15747Y-31403D01*
G01X15744Y-31386D01*
G01Y-31369D01*
G01X15710D01*
G01X15711Y-31389D01*
G01X15714Y-31409D01*
G01X15720Y-31428D01*
G01X15726Y-31447D01*
G01X15735Y-31464D01*
G01X15744Y-31480D01*
G01X15756Y-31496D01*
G01X15769Y-31510D01*
G01X15783Y-31523D01*
G01X15798Y-31534D01*
G01X15815Y-31544D01*
G01X15832Y-31553D01*
G01X15851Y-31559D01*
G01X15870Y-31565D01*
G01X15890Y-31567D01*
G01X15910Y-31568D01*
G01X15930Y-31567D01*
G01X15950Y-31565D01*
G01X15969Y-31559D01*
G01X15987Y-31553D01*
G01X16005Y-31544D01*
G01X16021Y-31534D01*
G01X16037Y-31523D01*
G01X16051Y-31510D01*
G01X16064Y-31496D01*
G01X16075Y-31480D01*
G01X16085Y-31464D01*
G01X16093Y-31447D01*
G01X16101Y-31428D01*
G01X16105Y-31409D01*
G01X16108Y-31389D01*
G01X16109Y-31369D01*
G01X16108Y-31349D01*
G01X16105Y-31329D01*
G01X16101Y-31310D01*
G01X16093Y-31291D01*
G01X16085Y-31274D01*
G01X16075Y-31258D01*
G01X16064Y-31242D01*
G01X16051Y-31228D01*
G01X16037Y-31215D01*
G01X16021Y-31204D01*
G01X16005Y-31194D01*
G01X15987Y-31185D01*
G01X15969Y-31178D01*
G01X15950Y-31173D01*
G01X15930Y-31171D01*
G37*
G36*
G01X13370Y-31169D02*
G01X13350Y-31171D01*
G01X13330Y-31173D01*
G01X13311Y-31178D01*
G01X13292Y-31185D01*
G01X13275Y-31194D01*
G01X13258Y-31204D01*
G01X13243Y-31215D01*
G01X13229Y-31228D01*
G01X13216Y-31242D01*
G01X13204Y-31258D01*
G01X13195Y-31274D01*
G01X13186Y-31291D01*
G01X13180Y-31310D01*
G01X13174Y-31329D01*
G01X13171Y-31349D01*
G01X13170Y-31369D01*
G01X13204D01*
G01Y-31352D01*
G01X13207Y-31335D01*
G01X13211Y-31320D01*
G01X13217Y-31304D01*
G01X13224Y-31290D01*
G01X13232Y-31276D01*
G01X13242Y-31263D01*
G01X13252Y-31252D01*
G01X13264Y-31241D01*
G01X13277Y-31231D01*
G01X13291Y-31223D01*
G01X13305Y-31216D01*
G01X13321Y-31211D01*
G01X13337Y-31206D01*
G01X13353Y-31204D01*
G01X13370Y-31203D01*
G01X13387Y-31204D01*
G01X13403Y-31206D01*
G01X13419Y-31211D01*
G01X13435Y-31216D01*
G01X13449Y-31223D01*
G01X13463Y-31231D01*
G01X13476Y-31241D01*
G01X13487Y-31252D01*
G01X13498Y-31263D01*
G01X13508Y-31276D01*
G01X13516Y-31290D01*
G01X13523Y-31304D01*
G01X13529Y-31320D01*
G01X13533Y-31335D01*
G01X13535Y-31352D01*
G01X13536Y-31369D01*
G01X13535Y-31386D01*
G01X13533Y-31403D01*
G01X13529Y-31418D01*
G01X13523Y-31434D01*
G01X13516Y-31448D01*
G01X13508Y-31462D01*
G01X13498Y-31475D01*
G01X13487Y-31486D01*
G01X13476Y-31497D01*
G01X13463Y-31507D01*
G01X13449Y-31515D01*
G01X13435Y-31522D01*
G01X13419Y-31527D01*
G01X13403Y-31532D01*
G01X13387Y-31534D01*
G01X13370Y-31535D01*
G01X13353Y-31534D01*
G01X13337Y-31532D01*
G01X13321Y-31527D01*
G01X13305Y-31522D01*
G01X13291Y-31515D01*
G01X13277Y-31507D01*
G01X13264Y-31497D01*
G01X13252Y-31486D01*
G01X13242Y-31475D01*
G01X13232Y-31462D01*
G01X13224Y-31448D01*
G01X13217Y-31434D01*
G01X13211Y-31418D01*
G01X13207Y-31403D01*
G01X13204Y-31386D01*
G01Y-31369D01*
G01X13170D01*
G01X13171Y-31389D01*
G01X13174Y-31409D01*
G01X13180Y-31428D01*
G01X13186Y-31447D01*
G01X13195Y-31464D01*
G01X13204Y-31480D01*
G01X13216Y-31496D01*
G01X13229Y-31510D01*
G01X13243Y-31523D01*
G01X13258Y-31534D01*
G01X13275Y-31544D01*
G01X13292Y-31553D01*
G01X13311Y-31559D01*
G01X13330Y-31565D01*
G01X13350Y-31567D01*
G01X13370Y-31568D01*
G01X13390Y-31567D01*
G01X13410Y-31565D01*
G01X13429Y-31559D01*
G01X13447Y-31553D01*
G01X13465Y-31544D01*
G01X13481Y-31534D01*
G01X13497Y-31523D01*
G01X13511Y-31510D01*
G01X13524Y-31496D01*
G01X13535Y-31480D01*
G01X13545Y-31464D01*
G01X13553Y-31447D01*
G01X13561Y-31428D01*
G01X13565Y-31409D01*
G01X13568Y-31389D01*
G01X13569Y-31369D01*
G01X13568Y-31349D01*
G01X13565Y-31329D01*
G01X13561Y-31310D01*
G01X13553Y-31291D01*
G01X13545Y-31274D01*
G01X13535Y-31258D01*
G01X13524Y-31242D01*
G01X13511Y-31228D01*
G01X13497Y-31215D01*
G01X13481Y-31204D01*
G01X13465Y-31194D01*
G01X13447Y-31185D01*
G01X13429Y-31178D01*
G01X13410Y-31173D01*
G01X13390Y-31171D01*
G37*
G36*
G01X10830Y-31169D02*
G01X10810Y-31171D01*
G01X10790Y-31173D01*
G01X10771Y-31178D01*
G01X10752Y-31185D01*
G01X10735Y-31194D01*
G01X10718Y-31204D01*
G01X10703Y-31215D01*
G01X10689Y-31228D01*
G01X10676Y-31242D01*
G01X10664Y-31258D01*
G01X10655Y-31274D01*
G01X10646Y-31291D01*
G01X10640Y-31310D01*
G01X10634Y-31329D01*
G01X10631Y-31349D01*
G01X10630Y-31369D01*
G01X10664D01*
G01Y-31352D01*
G01X10667Y-31335D01*
G01X10671Y-31320D01*
G01X10677Y-31304D01*
G01X10684Y-31290D01*
G01X10692Y-31276D01*
G01X10702Y-31263D01*
G01X10712Y-31252D01*
G01X10724Y-31241D01*
G01X10737Y-31231D01*
G01X10751Y-31223D01*
G01X10765Y-31216D01*
G01X10781Y-31211D01*
G01X10797Y-31206D01*
G01X10813Y-31204D01*
G01X10830Y-31203D01*
G01X10847Y-31204D01*
G01X10863Y-31206D01*
G01X10879Y-31211D01*
G01X10895Y-31216D01*
G01X10909Y-31223D01*
G01X10923Y-31231D01*
G01X10936Y-31241D01*
G01X10947Y-31252D01*
G01X10958Y-31263D01*
G01X10968Y-31276D01*
G01X10976Y-31290D01*
G01X10983Y-31304D01*
G01X10989Y-31320D01*
G01X10993Y-31335D01*
G01X10995Y-31352D01*
G01X10996Y-31369D01*
G01X10995Y-31386D01*
G01X10993Y-31403D01*
G01X10989Y-31418D01*
G01X10983Y-31434D01*
G01X10976Y-31448D01*
G01X10968Y-31462D01*
G01X10958Y-31475D01*
G01X10947Y-31486D01*
G01X10936Y-31497D01*
G01X10923Y-31507D01*
G01X10909Y-31515D01*
G01X10895Y-31522D01*
G01X10879Y-31527D01*
G01X10863Y-31532D01*
G01X10847Y-31534D01*
G01X10830Y-31535D01*
G01X10813Y-31534D01*
G01X10797Y-31532D01*
G01X10781Y-31527D01*
G01X10765Y-31522D01*
G01X10751Y-31515D01*
G01X10737Y-31507D01*
G01X10724Y-31497D01*
G01X10712Y-31486D01*
G01X10702Y-31475D01*
G01X10692Y-31462D01*
G01X10684Y-31448D01*
G01X10677Y-31434D01*
G01X10671Y-31418D01*
G01X10667Y-31403D01*
G01X10664Y-31386D01*
G01Y-31369D01*
G01X10630D01*
G01X10631Y-31389D01*
G01X10634Y-31409D01*
G01X10640Y-31428D01*
G01X10646Y-31447D01*
G01X10655Y-31464D01*
G01X10664Y-31480D01*
G01X10676Y-31496D01*
G01X10689Y-31510D01*
G01X10703Y-31523D01*
G01X10718Y-31534D01*
G01X10735Y-31544D01*
G01X10752Y-31553D01*
G01X10771Y-31559D01*
G01X10790Y-31565D01*
G01X10810Y-31567D01*
G01X10830Y-31568D01*
G01X10850Y-31567D01*
G01X10870Y-31565D01*
G01X10889Y-31559D01*
G01X10907Y-31553D01*
G01X10925Y-31544D01*
G01X10941Y-31534D01*
G01X10957Y-31523D01*
G01X10971Y-31510D01*
G01X10984Y-31496D01*
G01X10995Y-31480D01*
G01X11005Y-31464D01*
G01X11013Y-31447D01*
G01X11021Y-31428D01*
G01X11025Y-31409D01*
G01X11028Y-31389D01*
G01X11029Y-31369D01*
G01X11028Y-31349D01*
G01X11025Y-31329D01*
G01X11021Y-31310D01*
G01X11013Y-31291D01*
G01X11005Y-31274D01*
G01X10995Y-31258D01*
G01X10984Y-31242D01*
G01X10971Y-31228D01*
G01X10957Y-31215D01*
G01X10941Y-31204D01*
G01X10925Y-31194D01*
G01X10907Y-31185D01*
G01X10889Y-31178D01*
G01X10870Y-31173D01*
G01X10850Y-31171D01*
G37*
G36*
G01X1301Y923D02*
G01X1320Y890D01*
G01X1358D01*
G01X1642D01*
G01X1571Y767D01*
G01X1500Y644D01*
G01X1429Y767D01*
G01X1358Y890D01*
G01X1320D01*
G01X1401Y750D01*
G01X1500Y578D01*
G01X1600Y750D01*
G01X1700Y923D01*
G37*
G36*
G01X1301Y-578D02*
G01X1320Y-611D01*
G01X1358D01*
G01X1642D01*
G01X1571Y-734D01*
G01X1500Y-856D01*
G01X1429Y-734D01*
G01X1358Y-611D01*
G01X1320D01*
G01X1401Y-750D01*
G01X1500Y-923D01*
G01X1600Y-750D01*
G01X1700Y-578D01*
G37*
G36*
G01X1301Y-3177D02*
G01X1320Y-3211D01*
G01X1358D01*
G01X1642D01*
G01X1571Y-3333D01*
G01X1500Y-3456D01*
G01X1429Y-3333D01*
G01X1358Y-3211D01*
G01X1320D01*
G01X1500Y-3522D01*
G01X1600Y-3350D01*
G01X1700Y-3177D01*
G37*
G36*
G01X1301Y-4677D02*
G01X1320Y-4711D01*
G01X1358D01*
G01X1642D01*
G01X1571Y-4834D01*
G01X1500Y-4956D01*
G01X1429Y-4834D01*
G01X1358Y-4711D01*
G01X1320D01*
G01X1500Y-5023D01*
G01X1600Y-4850D01*
G01X1700Y-4677D01*
G37*
G36*
G01X1301Y-7277D02*
G01X1320Y-7311D01*
G01X1358D01*
G01X1642D01*
G01X1571Y-7434D01*
G01X1500Y-7556D01*
G01X1429Y-7434D01*
G01X1358Y-7311D01*
G01X1320D01*
G01X1500Y-7623D01*
G01X1600Y-7450D01*
G01X1700Y-7277D01*
G37*
G36*
G01X1301Y-8777D02*
G01X1320Y-8811D01*
G01X1358D01*
G01X1642D01*
G01X1571Y-8934D01*
G01X1500Y-9056D01*
G01X1429Y-8934D01*
G01X1358Y-8811D01*
G01X1320D01*
G01X1500Y-9123D01*
G01X1600Y-8950D01*
G01X1700Y-8777D01*
G37*
G36*
G01X1301Y-11377D02*
G01X1320Y-11411D01*
G01X1358D01*
G01X1642D01*
G01X1571Y-11533D01*
G01X1500Y-11656D01*
G01X1429Y-11533D01*
G01X1358Y-11411D01*
G01X1320D01*
G01X1500Y-11723D01*
G01X1600Y-11550D01*
G01X1700Y-11377D01*
G37*
G36*
G01X1301Y-12877D02*
G01X1320Y-12911D01*
G01X1358D01*
G01X1642D01*
G01X1571Y-13033D01*
G01X1500Y-13156D01*
G01X1429Y-13033D01*
G01X1358Y-12911D01*
G01X1320D01*
G01X1500Y-13223D01*
G01X1600Y-13050D01*
G01X1700Y-12877D01*
G37*
G36*
G01X1301Y-15477D02*
G01X1320Y-15510D01*
G01X1358D01*
G01X1642D01*
G01X1571Y-15633D01*
G01X1500Y-15756D01*
G01X1429Y-15633D01*
G01X1358Y-15510D01*
G01X1320D01*
G01X1500Y-15823D01*
G01X1600Y-15650D01*
G01X1700Y-15477D01*
G37*
G36*
G01X1301Y-16977D02*
G01X1320Y-17010D01*
G01X1358D01*
G01X1642D01*
G01X1571Y-17133D01*
G01X1500Y-17256D01*
G01X1429Y-17133D01*
G01X1358Y-17010D01*
G01X1320D01*
G01X1500Y-17323D01*
G01X1600Y-17150D01*
G01X1700Y-16977D01*
G37*
G36*
G01X1301Y-19577D02*
G01X1320Y-19610D01*
G01X1358D01*
G01X1642D01*
G01X1571Y-19733D01*
G01X1500Y-19856D01*
G01X1429Y-19733D01*
G01X1358Y-19610D01*
G01X1320D01*
G01X1500Y-19923D01*
G01X1600Y-19750D01*
G01X1700Y-19577D01*
G37*
G36*
G01X1301Y-21077D02*
G01X1320Y-21110D01*
G01X1358D01*
G01X1642D01*
G01X1571Y-21233D01*
G01X1500Y-21356D01*
G01X1429Y-21233D01*
G01X1358Y-21110D01*
G01X1320D01*
G01X1500Y-21423D01*
G01X1600Y-21250D01*
G01X1700Y-21077D01*
G37*
G36*
G01X1301Y-23677D02*
G01X1320Y-23710D01*
G01X1358D01*
G01X1642D01*
G01X1571Y-23833D01*
G01X1500Y-23956D01*
G01X1429Y-23833D01*
G01X1358Y-23710D01*
G01X1320D01*
G01X1500Y-24023D01*
G01X1600Y-23850D01*
G01X1700Y-23677D01*
G37*
G36*
G01X1301Y-25177D02*
G01X1320Y-25211D01*
G01X1358D01*
G01X1642D01*
G01X1571Y-25333D01*
G01X1500Y-25456D01*
G01X1429Y-25333D01*
G01X1358Y-25211D01*
G01X1320D01*
G01X1500Y-25523D01*
G01X1600Y-25350D01*
G01X1700Y-25177D01*
G37*
G36*
G01X5401Y-3177D02*
G01X5420Y-3211D01*
G01X5458D01*
G01X5742D01*
G01X5671Y-3333D01*
G01X5600Y-3456D01*
G01X5529Y-3333D01*
G01X5458Y-3211D01*
G01X5420D01*
G01X5501Y-3350D01*
G01X5600Y-3522D01*
G01X5799Y-3177D01*
G37*
G36*
G01X5401Y923D02*
G01X5420Y890D01*
G01X5458D01*
G01X5742D01*
G01X5671Y767D01*
G01X5600Y644D01*
G01X5529Y767D01*
G01X5458Y890D01*
G01X5420D01*
G01X5501Y750D01*
G01X5600Y578D01*
G01X5700Y750D01*
G01X5799Y923D01*
G37*
G36*
G01X5401Y-578D02*
G01X5420Y-611D01*
G01X5458D01*
G01X5742D01*
G01X5671Y-734D01*
G01X5600Y-856D01*
G01X5529Y-734D01*
G01X5458Y-611D01*
G01X5420D01*
G01X5501Y-750D01*
G01X5600Y-923D01*
G01X5700Y-750D01*
G01X5799Y-578D01*
G37*
G36*
G01X5401Y-4677D02*
G01X5420Y-4711D01*
G01X5458D01*
G01X5742D01*
G01X5671Y-4834D01*
G01X5600Y-4956D01*
G01X5529Y-4834D01*
G01X5458Y-4711D01*
G01X5420D01*
G01X5501Y-4850D01*
G01X5600Y-5023D01*
G01X5799Y-4677D01*
G37*
G36*
G01X5401Y-7277D02*
G01X5420Y-7311D01*
G01X5458D01*
G01X5742D01*
G01X5671Y-7434D01*
G01X5600Y-7556D01*
G01X5529Y-7434D01*
G01X5458Y-7311D01*
G01X5420D01*
G01X5501Y-7450D01*
G01X5600Y-7623D01*
G01X5799Y-7277D01*
G37*
G36*
G01X5401Y-16977D02*
G01X5420Y-17010D01*
G01X5458D01*
G01X5742D01*
G01X5671Y-17133D01*
G01X5600Y-17256D01*
G01X5529Y-17133D01*
G01X5458Y-17010D01*
G01X5420D01*
G01X5501Y-17150D01*
G01X5600Y-17323D01*
G01X5799Y-16977D01*
G37*
G36*
G01X5401Y-19577D02*
G01X5420Y-19610D01*
G01X5458D01*
G01X5742D01*
G01X5671Y-19733D01*
G01X5600Y-19856D01*
G01X5529Y-19733D01*
G01X5458Y-19610D01*
G01X5420D01*
G01X5501Y-19750D01*
G01X5600Y-19923D01*
G01X5799Y-19577D01*
G37*
G36*
G01X5401Y-11377D02*
G01X5420Y-11411D01*
G01X5458D01*
G01X5742D01*
G01X5671Y-11533D01*
G01X5600Y-11656D01*
G01X5529Y-11533D01*
G01X5458Y-11411D01*
G01X5420D01*
G01X5501Y-11550D01*
G01X5600Y-11723D01*
G01X5799Y-11377D01*
G37*
G36*
G01X5401Y-12877D02*
G01X5420Y-12911D01*
G01X5458D01*
G01X5742D01*
G01X5671Y-13033D01*
G01X5600Y-13156D01*
G01X5529Y-13033D01*
G01X5458Y-12911D01*
G01X5420D01*
G01X5501Y-13050D01*
G01X5600Y-13223D01*
G01X5799Y-12877D01*
G37*
G36*
G01X5401Y-8777D02*
G01X5420Y-8811D01*
G01X5458D01*
G01X5742D01*
G01X5671Y-8934D01*
G01X5600Y-9056D01*
G01X5529Y-8934D01*
G01X5458Y-8811D01*
G01X5420D01*
G01X5501Y-8950D01*
G01X5600Y-9123D01*
G01X5799Y-8777D01*
G37*
G36*
G01X5401Y-15477D02*
G01X5420Y-15510D01*
G01X5458D01*
G01X5742D01*
G01X5671Y-15633D01*
G01X5600Y-15756D01*
G01X5529Y-15633D01*
G01X5458Y-15510D01*
G01X5420D01*
G01X5501Y-15650D01*
G01X5600Y-15823D01*
G01X5799Y-15477D01*
G37*
G36*
G01X5401Y-23677D02*
G01X5420Y-23710D01*
G01X5458D01*
G01X5742D01*
G01X5671Y-23833D01*
G01X5600Y-23956D01*
G01X5529Y-23833D01*
G01X5458Y-23710D01*
G01X5420D01*
G01X5501Y-23850D01*
G01X5600Y-24023D01*
G01X5799Y-23677D01*
G37*
G36*
G01X5401Y-25177D02*
G01X5420Y-25211D01*
G01X5458D01*
G01X5742D01*
G01X5671Y-25333D01*
G01X5600Y-25456D01*
G01X5529Y-25333D01*
G01X5458Y-25211D01*
G01X5420D01*
G01X5501Y-25350D01*
G01X5600Y-25523D01*
G01X5799Y-25177D01*
G37*
G36*
G01X5401Y-21077D02*
G01X5420Y-21110D01*
G01X5458D01*
G01X5742D01*
G01X5671Y-21233D01*
G01X5600Y-21356D01*
G01X5529Y-21233D01*
G01X5458Y-21110D01*
G01X5420D01*
G01X5501Y-21250D01*
G01X5600Y-21423D01*
G01X5799Y-21077D01*
G37*
G36*
G01X9501Y-3177D02*
G01X9520Y-3211D01*
G01X9559D01*
G01X9842D01*
G01X9771Y-3333D01*
G01X9700Y-3456D01*
G01X9629Y-3333D01*
G01X9559Y-3211D01*
G01X9520D01*
G01X9600Y-3350D01*
G01X9700Y-3522D01*
G01X9899Y-3177D01*
G37*
G36*
G01X9501Y923D02*
G01X9520Y890D01*
G01X9559D01*
G01X9842D01*
G01X9771Y767D01*
G01X9700Y644D01*
G01X9629Y767D01*
G01X9559Y890D01*
G01X9520D01*
G01X9600Y750D01*
G01X9700Y578D01*
G01X9800Y750D01*
G01X9899Y923D01*
G37*
G36*
G01X9501Y-578D02*
G01X9519Y-611D01*
G01X9559D01*
G01X9842D01*
G01X9771Y-734D01*
G01X9700Y-856D01*
G01X9629Y-734D01*
G01X9559Y-611D01*
G01X9519D01*
G01X9600Y-750D01*
G01X9700Y-923D01*
G01X9800Y-750D01*
G01X9899Y-578D01*
G37*
G36*
G01X9501Y-4677D02*
G01X9520Y-4711D01*
G01X9559D01*
G01X9842D01*
G01X9771Y-4834D01*
G01X9700Y-4956D01*
G01X9629Y-4834D01*
G01X9559Y-4711D01*
G01X9520D01*
G01X9600Y-4850D01*
G01X9700Y-5023D01*
G01X9899Y-4677D01*
G37*
G36*
G01X9501Y-7277D02*
G01X9520Y-7311D01*
G01X9559D01*
G01X9842D01*
G01X9771Y-7434D01*
G01X9700Y-7556D01*
G01X9629Y-7434D01*
G01X9559Y-7311D01*
G01X9520D01*
G01X9600Y-7450D01*
G01X9700Y-7623D01*
G01X9899Y-7277D01*
G37*
G36*
G01X9501Y-16977D02*
G01X9519Y-17010D01*
G01X9559D01*
G01X9842D01*
G01X9771Y-17133D01*
G01X9700Y-17256D01*
G01X9629Y-17133D01*
G01X9559Y-17010D01*
G01X9519D01*
G01X9600Y-17150D01*
G01X9700Y-17323D01*
G01X9899Y-16977D01*
G37*
G36*
G01X9501Y-19577D02*
G01X9519Y-19610D01*
G01X9559D01*
G01X9842D01*
G01X9771Y-19733D01*
G01X9700Y-19856D01*
G01X9629Y-19733D01*
G01X9559Y-19610D01*
G01X9519D01*
G01X9600Y-19750D01*
G01X9700Y-19923D01*
G01X9899Y-19577D01*
G37*
G36*
G01X9501Y-11377D02*
G01X9520Y-11411D01*
G01X9559D01*
G01X9842D01*
G01X9771Y-11533D01*
G01X9700Y-11656D01*
G01X9629Y-11533D01*
G01X9559Y-11411D01*
G01X9520D01*
G01X9600Y-11550D01*
G01X9700Y-11723D01*
G01X9899Y-11377D01*
G37*
G36*
G01X9501Y-12877D02*
G01X9520Y-12911D01*
G01X9559D01*
G01X9842D01*
G01X9771Y-13033D01*
G01X9700Y-13156D01*
G01X9629Y-13033D01*
G01X9559Y-12911D01*
G01X9520D01*
G01X9600Y-13050D01*
G01X9700Y-13223D01*
G01X9899Y-12877D01*
G37*
G36*
G01X9501Y-8777D02*
G01X9520Y-8811D01*
G01X9559D01*
G01X9842D01*
G01X9771Y-8934D01*
G01X9700Y-9056D01*
G01X9629Y-8934D01*
G01X9559Y-8811D01*
G01X9520D01*
G01X9600Y-8950D01*
G01X9700Y-9123D01*
G01X9899Y-8777D01*
G37*
G36*
G01X9501Y-15477D02*
G01X9519Y-15510D01*
G01X9559D01*
G01X9842D01*
G01X9771Y-15633D01*
G01X9700Y-15756D01*
G01X9629Y-15633D01*
G01X9559Y-15510D01*
G01X9519D01*
G01X9600Y-15650D01*
G01X9700Y-15823D01*
G01X9899Y-15477D01*
G37*
G36*
G01X9501Y-23677D02*
G01X9519Y-23710D01*
G01X9559D01*
G01X9842D01*
G01X9771Y-23833D01*
G01X9700Y-23956D01*
G01X9629Y-23833D01*
G01X9559Y-23710D01*
G01X9519D01*
G01X9600Y-23850D01*
G01X9700Y-24023D01*
G01X9899Y-23677D01*
G37*
G36*
G01X9501Y-25177D02*
G01X9519Y-25211D01*
G01X9559D01*
G01X9842D01*
G01X9771Y-25333D01*
G01X9700Y-25456D01*
G01X9629Y-25333D01*
G01X9559Y-25211D01*
G01X9519D01*
G01X9600Y-25350D01*
G01X9700Y-25523D01*
G01X9899Y-25177D01*
G37*
G36*
G01X9501Y-21077D02*
G01X9519Y-21110D01*
G01X9559D01*
G01X9842D01*
G01X9771Y-21233D01*
G01X9700Y-21356D01*
G01X9629Y-21233D01*
G01X9559Y-21110D01*
G01X9519D01*
G01X9600Y-21250D01*
G01X9700Y-21423D01*
G01X9899Y-21077D01*
G37*
G36*
G01X13601Y-3177D02*
G01X13620Y-3211D01*
G01X13658D01*
G01X13942D01*
G01X13871Y-3333D01*
G01X13800Y-3456D01*
G01X13729Y-3333D01*
G01X13658Y-3211D01*
G01X13620D01*
G01X13700Y-3350D01*
G01X13800Y-3522D01*
G01X13999Y-3177D01*
G37*
G36*
G01X13601Y923D02*
G01X13620Y890D01*
G01X13658D01*
G01X13942D01*
G01X13871Y767D01*
G01X13800Y644D01*
G01X13658Y890D01*
G01X13620D01*
G01X13700Y750D01*
G01X13800Y578D01*
G01X13900Y750D01*
G01X13999Y923D01*
G37*
G36*
G01X13601Y-578D02*
G01X13619Y-611D01*
G01X13658D01*
G01X13942D01*
G01X13871Y-734D01*
G01X13800Y-856D01*
G01X13658Y-611D01*
G01X13619D01*
G01X13700Y-750D01*
G01X13800Y-923D01*
G01X13900Y-750D01*
G01X13999Y-578D01*
G37*
G36*
G01X13601Y-4677D02*
G01X13620Y-4711D01*
G01X13658D01*
G01X13942D01*
G01X13871Y-4834D01*
G01X13800Y-4956D01*
G01X13729Y-4834D01*
G01X13658Y-4711D01*
G01X13620D01*
G01X13700Y-4850D01*
G01X13800Y-5023D01*
G01X13999Y-4677D01*
G37*
G36*
G01X13601Y-7277D02*
G01X13620Y-7311D01*
G01X13658D01*
G01X13942D01*
G01X13871Y-7434D01*
G01X13800Y-7556D01*
G01X13729Y-7434D01*
G01X13658Y-7311D01*
G01X13620D01*
G01X13700Y-7450D01*
G01X13800Y-7623D01*
G01X13999Y-7277D01*
G37*
G36*
G01X13601Y-16977D02*
G01X13619Y-17010D01*
G01X13658D01*
G01X13942D01*
G01X13871Y-17133D01*
G01X13800Y-17256D01*
G01X13658Y-17010D01*
G01X13619D01*
G01X13700Y-17150D01*
G01X13800Y-17323D01*
G01X13999Y-16977D01*
G37*
G36*
G01X13601Y-19577D02*
G01X13619Y-19610D01*
G01X13658D01*
G01X13942D01*
G01X13871Y-19733D01*
G01X13800Y-19856D01*
G01X13658Y-19610D01*
G01X13619D01*
G01X13700Y-19750D01*
G01X13800Y-19923D01*
G01X13999Y-19577D01*
G37*
G36*
G01X13601Y-11377D02*
G01X13620Y-11411D01*
G01X13658D01*
G01X13942D01*
G01X13871Y-11533D01*
G01X13800Y-11656D01*
G01X13729Y-11533D01*
G01X13658Y-11411D01*
G01X13620D01*
G01X13700Y-11550D01*
G01X13800Y-11723D01*
G01X13999Y-11377D01*
G37*
G36*
G01X13601Y-12877D02*
G01X13620Y-12911D01*
G01X13658D01*
G01X13942D01*
G01X13871Y-13033D01*
G01X13800Y-13156D01*
G01X13729Y-13033D01*
G01X13658Y-12911D01*
G01X13620D01*
G01X13700Y-13050D01*
G01X13800Y-13223D01*
G01X13999Y-12877D01*
G37*
G36*
G01X13601Y-8777D02*
G01X13620Y-8811D01*
G01X13658D01*
G01X13942D01*
G01X13871Y-8934D01*
G01X13800Y-9056D01*
G01X13729Y-8934D01*
G01X13658Y-8811D01*
G01X13620D01*
G01X13700Y-8950D01*
G01X13800Y-9123D01*
G01X13999Y-8777D01*
G37*
G36*
G01X13601Y-15477D02*
G01X13619Y-15510D01*
G01X13658D01*
G01X13942D01*
G01X13871Y-15633D01*
G01X13800Y-15756D01*
G01X13658Y-15510D01*
G01X13619D01*
G01X13700Y-15650D01*
G01X13800Y-15823D01*
G01X13999Y-15477D01*
G37*
G36*
G01X13601Y-23677D02*
G01X13619Y-23710D01*
G01X13658D01*
G01X13942D01*
G01X13871Y-23833D01*
G01X13800Y-23956D01*
G01X13658Y-23710D01*
G01X13619D01*
G01X13700Y-23850D01*
G01X13800Y-24023D01*
G01X13999Y-23677D01*
G37*
G36*
G01X13601Y-25177D02*
G01X13619Y-25211D01*
G01X13658D01*
G01X13942D01*
G01X13871Y-25333D01*
G01X13800Y-25456D01*
G01X13658Y-25211D01*
G01X13619D01*
G01X13700Y-25350D01*
G01X13800Y-25523D01*
G01X13999Y-25177D01*
G37*
G36*
G01X13601Y-21077D02*
G01X13619Y-21110D01*
G01X13658D01*
G01X13942D01*
G01X13871Y-21233D01*
G01X13800Y-21356D01*
G01X13658Y-21110D01*
G01X13619D01*
G01X13700Y-21250D01*
G01X13800Y-21423D01*
G01X13999Y-21077D01*
G37*
G36*
G01X17701Y-3177D02*
G01X17720Y-3211D01*
G01X17758D01*
G01X18042D01*
G01X17971Y-3333D01*
G01X17900Y-3456D01*
G01X17829Y-3333D01*
G01X17758Y-3211D01*
G01X17720D01*
G01X17900Y-3522D01*
G01X18000Y-3350D01*
G01X18100Y-3177D01*
G37*
G36*
G01X17701Y923D02*
G01X17720Y890D01*
G01X17758D01*
G01X18042D01*
G01X17900Y644D01*
G01X17829Y767D01*
G01X17758Y890D01*
G01X17720D01*
G01X17800Y750D01*
G01X17900Y578D01*
G01X18000Y750D01*
G01X18100Y923D01*
G37*
G36*
G01X17701Y-578D02*
G01X17720Y-611D01*
G01X17758D01*
G01X18042D01*
G01X17900Y-856D01*
G01X17829Y-734D01*
G01X17758Y-611D01*
G01X17720D01*
G01X17800Y-750D01*
G01X17900Y-923D01*
G01X18000Y-750D01*
G01X18100Y-578D01*
G37*
G36*
G01X17701Y-4677D02*
G01X17720Y-4711D01*
G01X17758D01*
G01X18042D01*
G01X17971Y-4834D01*
G01X17900Y-4956D01*
G01X17829Y-4834D01*
G01X17758Y-4711D01*
G01X17720D01*
G01X17900Y-5023D01*
G01X18000Y-4850D01*
G01X18100Y-4677D01*
G37*
G36*
G01X17701Y-7277D02*
G01X17720Y-7311D01*
G01X17758D01*
G01X18042D01*
G01X17971Y-7434D01*
G01X17900Y-7556D01*
G01X17829Y-7434D01*
G01X17758Y-7311D01*
G01X17720D01*
G01X17900Y-7623D01*
G01X18000Y-7450D01*
G01X18100Y-7277D01*
G37*
G36*
G01X17701Y-16977D02*
G01X17720Y-17010D01*
G01X17758D01*
G01X18042D01*
G01X17900Y-17256D01*
G01X17829Y-17133D01*
G01X17758Y-17010D01*
G01X17720D01*
G01X17900Y-17323D01*
G01X18000Y-17150D01*
G01X18100Y-16977D01*
G37*
G36*
G01X17701Y-19577D02*
G01X17720Y-19610D01*
G01X17758D01*
G01X18042D01*
G01X17900Y-19856D01*
G01X17829Y-19733D01*
G01X17758Y-19610D01*
G01X17720D01*
G01X17900Y-19923D01*
G01X18000Y-19750D01*
G01X18100Y-19577D01*
G37*
G36*
G01X17701Y-11377D02*
G01X17720Y-11411D01*
G01X17758D01*
G01X18042D01*
G01X17971Y-11533D01*
G01X17900Y-11656D01*
G01X17829Y-11533D01*
G01X17758Y-11411D01*
G01X17720D01*
G01X17900Y-11723D01*
G01X18000Y-11550D01*
G01X18100Y-11377D01*
G37*
G36*
G01X17701Y-12877D02*
G01X17720Y-12911D01*
G01X17758D01*
G01X18042D01*
G01X17971Y-13033D01*
G01X17900Y-13156D01*
G01X17829Y-13033D01*
G01X17758Y-12911D01*
G01X17720D01*
G01X17900Y-13223D01*
G01X18000Y-13050D01*
G01X18100Y-12877D01*
G37*
G36*
G01X17701Y-8777D02*
G01X17720Y-8811D01*
G01X17758D01*
G01X18042D01*
G01X17971Y-8934D01*
G01X17900Y-9056D01*
G01X17829Y-8934D01*
G01X17758Y-8811D01*
G01X17720D01*
G01X17900Y-9123D01*
G01X18000Y-8950D01*
G01X18100Y-8777D01*
G37*
G36*
G01X17701Y-15477D02*
G01X17720Y-15510D01*
G01X17758D01*
G01X18042D01*
G01X17900Y-15756D01*
G01X17829Y-15633D01*
G01X17758Y-15510D01*
G01X17720D01*
G01X17900Y-15823D01*
G01X18000Y-15650D01*
G01X18100Y-15477D01*
G37*
G36*
G01X17701Y-23677D02*
G01X17720Y-23710D01*
G01X17758D01*
G01X18042D01*
G01X17900Y-23956D01*
G01X17829Y-23833D01*
G01X17758Y-23710D01*
G01X17720D01*
G01X17900Y-24023D01*
G01X18000Y-23850D01*
G01X18100Y-23677D01*
G37*
G36*
G01X17701Y-25177D02*
G01X17720Y-25211D01*
G01X17758D01*
G01X18042D01*
G01X17900Y-25456D01*
G01X17829Y-25333D01*
G01X17758Y-25211D01*
G01X17720D01*
G01X17900Y-25523D01*
G01X18000Y-25350D01*
G01X18100Y-25177D01*
G37*
G36*
G01X17701Y-21077D02*
G01X17720Y-21110D01*
G01X17758D01*
G01X18042D01*
G01X17900Y-21356D01*
G01X17829Y-21233D01*
G01X17758Y-21110D01*
G01X17720D01*
G01X17900Y-21423D01*
G01X18000Y-21250D01*
G01X18100Y-21077D01*
G37*
G36*
G01X21801Y-3177D02*
G01X21820Y-3211D01*
G01X21858D01*
G01X22142D01*
G01X22071Y-3333D01*
G01X22000Y-3456D01*
G01X21929Y-3333D01*
G01X21858Y-3211D01*
G01X21820D01*
G01X22000Y-3522D01*
G01X22100Y-3350D01*
G01X22200Y-3177D01*
G37*
G36*
G01X21801Y923D02*
G01X21820Y890D01*
G01X21858D01*
G01X22142D01*
G01X22000Y644D01*
G01X21929Y767D01*
G01X21858Y890D01*
G01X21820D01*
G01X21900Y750D01*
G01X22000Y578D01*
G01X22100Y750D01*
G01X22200Y923D01*
G37*
G36*
G01X21801Y-578D02*
G01X21820Y-611D01*
G01X21858D01*
G01X22142D01*
G01X22000Y-856D01*
G01X21929Y-734D01*
G01X21858Y-611D01*
G01X21820D01*
G01X21900Y-750D01*
G01X22000Y-923D01*
G01X22100Y-750D01*
G01X22200Y-578D01*
G37*
G36*
G01X21801Y-4677D02*
G01X21820Y-4711D01*
G01X21858D01*
G01X22142D01*
G01X22071Y-4834D01*
G01X22000Y-4956D01*
G01X21929Y-4834D01*
G01X21858Y-4711D01*
G01X21820D01*
G01X22000Y-5023D01*
G01X22100Y-4850D01*
G01X22200Y-4677D01*
G37*
G36*
G01X21801Y-7277D02*
G01X21820Y-7311D01*
G01X21858D01*
G01X22142D01*
G01X22071Y-7434D01*
G01X22000Y-7556D01*
G01X21929Y-7434D01*
G01X21858Y-7311D01*
G01X21820D01*
G01X22000Y-7623D01*
G01X22100Y-7450D01*
G01X22200Y-7277D01*
G37*
G36*
G01X21801Y-16977D02*
G01X21820Y-17010D01*
G01X21858D01*
G01X22142D01*
G01X22000Y-17256D01*
G01X21929Y-17133D01*
G01X21858Y-17010D01*
G01X21820D01*
G01X22000Y-17323D01*
G01X22100Y-17150D01*
G01X22200Y-16977D01*
G37*
G36*
G01X21801Y-19577D02*
G01X21820Y-19610D01*
G01X21858D01*
G01X22142D01*
G01X22000Y-19856D01*
G01X21929Y-19733D01*
G01X21858Y-19610D01*
G01X21820D01*
G01X22000Y-19923D01*
G01X22100Y-19750D01*
G01X22200Y-19577D01*
G37*
G36*
G01X21801Y-11377D02*
G01X21820Y-11411D01*
G01X21858D01*
G01X22142D01*
G01X22071Y-11533D01*
G01X22000Y-11656D01*
G01X21929Y-11533D01*
G01X21858Y-11411D01*
G01X21820D01*
G01X22000Y-11723D01*
G01X22100Y-11550D01*
G01X22200Y-11377D01*
G37*
G36*
G01X21801Y-12877D02*
G01X21820Y-12911D01*
G01X21858D01*
G01X22142D01*
G01X22071Y-13033D01*
G01X22000Y-13156D01*
G01X21929Y-13033D01*
G01X21858Y-12911D01*
G01X21820D01*
G01X22000Y-13223D01*
G01X22100Y-13050D01*
G01X22200Y-12877D01*
G37*
G36*
G01X21801Y-8777D02*
G01X21820Y-8811D01*
G01X21858D01*
G01X22142D01*
G01X22071Y-8934D01*
G01X22000Y-9056D01*
G01X21929Y-8934D01*
G01X21858Y-8811D01*
G01X21820D01*
G01X22000Y-9123D01*
G01X22100Y-8950D01*
G01X22200Y-8777D01*
G37*
G36*
G01X21801Y-15477D02*
G01X21820Y-15510D01*
G01X21858D01*
G01X22142D01*
G01X22000Y-15756D01*
G01X21929Y-15633D01*
G01X21858Y-15510D01*
G01X21820D01*
G01X22000Y-15823D01*
G01X22100Y-15650D01*
G01X22200Y-15477D01*
G37*
G36*
G01X21801Y-23677D02*
G01X21820Y-23710D01*
G01X21858D01*
G01X22142D01*
G01X22000Y-23956D01*
G01X21929Y-23833D01*
G01X21858Y-23710D01*
G01X21820D01*
G01X22000Y-24023D01*
G01X22100Y-23850D01*
G01X22200Y-23677D01*
G37*
G36*
G01X21801Y-25177D02*
G01X21820Y-25211D01*
G01X21858D01*
G01X22142D01*
G01X22000Y-25456D01*
G01X21929Y-25333D01*
G01X21858Y-25211D01*
G01X21820D01*
G01X22000Y-25523D01*
G01X22100Y-25350D01*
G01X22200Y-25177D01*
G37*
G36*
G01X21801Y-21077D02*
G01X21820Y-21110D01*
G01X21858D01*
G01X22142D01*
G01X22000Y-21356D01*
G01X21929Y-21233D01*
G01X21858Y-21110D01*
G01X21820D01*
G01X22000Y-21423D01*
G01X22100Y-21250D01*
G01X22200Y-21077D01*
G37*
G36*
G01X25901Y-3177D02*
G01X25920Y-3211D01*
G01X25958D01*
G01X26242D01*
G01X26171Y-3333D01*
G01X26100Y-3456D01*
G01X26029Y-3333D01*
G01X25958Y-3211D01*
G01X25920D01*
G01X26100Y-3522D01*
G01X26200Y-3350D01*
G01X26300Y-3177D01*
G37*
G36*
G01X25901Y923D02*
G01X25920Y890D01*
G01X25958D01*
G01X26242D01*
G01X26171Y767D01*
G01X26100Y644D01*
G01X26029Y767D01*
G01X25958Y890D01*
G01X25920D01*
G01X26000Y750D01*
G01X26100Y578D01*
G01X26200Y750D01*
G01X26300Y923D01*
G37*
G36*
G01X25901Y-578D02*
G01X25920Y-611D01*
G01X25958D01*
G01X26242D01*
G01X26171Y-734D01*
G01X26100Y-856D01*
G01X26029Y-734D01*
G01X25958Y-611D01*
G01X25920D01*
G01X26000Y-750D01*
G01X26100Y-923D01*
G01X26200Y-750D01*
G01X26300Y-578D01*
G37*
G36*
G01X25901Y-4677D02*
G01X25920Y-4711D01*
G01X25958D01*
G01X26242D01*
G01X26171Y-4834D01*
G01X26100Y-4956D01*
G01X26029Y-4834D01*
G01X25958Y-4711D01*
G01X25920D01*
G01X26100Y-5023D01*
G01X26200Y-4850D01*
G01X26300Y-4677D01*
G37*
G36*
G01X25901Y-7277D02*
G01X25920Y-7311D01*
G01X25958D01*
G01X26242D01*
G01X26171Y-7434D01*
G01X26100Y-7556D01*
G01X26029Y-7434D01*
G01X25958Y-7311D01*
G01X25920D01*
G01X26100Y-7623D01*
G01X26200Y-7450D01*
G01X26300Y-7277D01*
G37*
G36*
G01X25901Y-16977D02*
G01X25920Y-17010D01*
G01X25958D01*
G01X26242D01*
G01X26171Y-17133D01*
G01X26100Y-17256D01*
G01X26029Y-17133D01*
G01X25958Y-17010D01*
G01X25920D01*
G01X26100Y-17323D01*
G01X26200Y-17150D01*
G01X26300Y-16977D01*
G37*
G36*
G01X25901Y-19577D02*
G01X25920Y-19610D01*
G01X25958D01*
G01X26242D01*
G01X26171Y-19733D01*
G01X26100Y-19856D01*
G01X26029Y-19733D01*
G01X25958Y-19610D01*
G01X25920D01*
G01X26100Y-19923D01*
G01X26200Y-19750D01*
G01X26300Y-19577D01*
G37*
G36*
G01X25901Y-11377D02*
G01X25920Y-11411D01*
G01X25958D01*
G01X26242D01*
G01X26171Y-11533D01*
G01X26100Y-11656D01*
G01X26029Y-11533D01*
G01X25958Y-11411D01*
G01X25920D01*
G01X26100Y-11723D01*
G01X26200Y-11550D01*
G01X26300Y-11377D01*
G37*
G36*
G01X25901Y-12877D02*
G01X25920Y-12911D01*
G01X25958D01*
G01X26242D01*
G01X26171Y-13033D01*
G01X26100Y-13156D01*
G01X26029Y-13033D01*
G01X25958Y-12911D01*
G01X25920D01*
G01X26100Y-13223D01*
G01X26200Y-13050D01*
G01X26300Y-12877D01*
G37*
G36*
G01X25901Y-8777D02*
G01X25920Y-8811D01*
G01X25958D01*
G01X26242D01*
G01X26171Y-8934D01*
G01X26100Y-9056D01*
G01X26029Y-8934D01*
G01X25958Y-8811D01*
G01X25920D01*
G01X26100Y-9123D01*
G01X26200Y-8950D01*
G01X26300Y-8777D01*
G37*
G36*
G01X25901Y-15477D02*
G01X25920Y-15510D01*
G01X25958D01*
G01X26242D01*
G01X26171Y-15633D01*
G01X26100Y-15756D01*
G01X26029Y-15633D01*
G01X25958Y-15510D01*
G01X25920D01*
G01X26100Y-15823D01*
G01X26200Y-15650D01*
G01X26300Y-15477D01*
G37*
G36*
G01X25901Y-23677D02*
G01X25920Y-23710D01*
G01X25958D01*
G01X26242D01*
G01X26171Y-23833D01*
G01X26100Y-23956D01*
G01X26029Y-23833D01*
G01X25958Y-23710D01*
G01X25920D01*
G01X26100Y-24023D01*
G01X26200Y-23850D01*
G01X26300Y-23677D01*
G37*
G36*
G01X25901Y-25177D02*
G01X25920Y-25211D01*
G01X25958D01*
G01X26242D01*
G01X26171Y-25333D01*
G01X26100Y-25456D01*
G01X26029Y-25333D01*
G01X25958Y-25211D01*
G01X25920D01*
G01X26100Y-25523D01*
G01X26200Y-25350D01*
G01X26300Y-25177D01*
G37*
G36*
G01X25901Y-21077D02*
G01X25920Y-21110D01*
G01X25958D01*
G01X26242D01*
G01X26171Y-21233D01*
G01X26100Y-21356D01*
G01X26029Y-21233D01*
G01X25958Y-21110D01*
G01X25920D01*
G01X26100Y-21423D01*
G01X26200Y-21250D01*
G01X26300Y-21077D01*
G37*
G36*
G01X30001Y-3177D02*
G01X30020Y-3211D01*
G01X30058D01*
G01X30342D01*
G01X30271Y-3333D01*
G01X30200Y-3456D01*
G01X30129Y-3333D01*
G01X30058Y-3211D01*
G01X30020D01*
G01X30200Y-3522D01*
G01X30300Y-3350D01*
G01X30400Y-3177D01*
G37*
G36*
G01X30001Y923D02*
G01X30020Y890D01*
G01X30058D01*
G01X30342D01*
G01X30271Y767D01*
G01X30200Y644D01*
G01X30129Y767D01*
G01X30058Y890D01*
G01X30020D01*
G01X30101Y750D01*
G01X30200Y578D01*
G01X30300Y750D01*
G01X30400Y923D01*
G37*
G36*
G01X30001Y-578D02*
G01X30020Y-611D01*
G01X30058D01*
G01X30342D01*
G01X30271Y-734D01*
G01X30200Y-856D01*
G01X30129Y-734D01*
G01X30058Y-611D01*
G01X30020D01*
G01X30101Y-750D01*
G01X30200Y-923D01*
G01X30300Y-750D01*
G01X30400Y-578D01*
G37*
G36*
G01X30001Y-4677D02*
G01X30020Y-4711D01*
G01X30058D01*
G01X30342D01*
G01X30271Y-4834D01*
G01X30200Y-4956D01*
G01X30129Y-4834D01*
G01X30058Y-4711D01*
G01X30020D01*
G01X30200Y-5023D01*
G01X30300Y-4850D01*
G01X30400Y-4677D01*
G37*
G36*
G01X30001Y-7277D02*
G01X30020Y-7311D01*
G01X30058D01*
G01X30342D01*
G01X30271Y-7434D01*
G01X30200Y-7556D01*
G01X30129Y-7434D01*
G01X30058Y-7311D01*
G01X30020D01*
G01X30200Y-7623D01*
G01X30300Y-7450D01*
G01X30400Y-7277D01*
G37*
G36*
G01X30001Y-16977D02*
G01X30020Y-17010D01*
G01X30058D01*
G01X30342D01*
G01X30271Y-17133D01*
G01X30200Y-17256D01*
G01X30129Y-17133D01*
G01X30058Y-17010D01*
G01X30020D01*
G01X30200Y-17323D01*
G01X30300Y-17150D01*
G01X30400Y-16977D01*
G37*
G36*
G01X30001Y-19577D02*
G01X30020Y-19610D01*
G01X30058D01*
G01X30342D01*
G01X30271Y-19733D01*
G01X30200Y-19856D01*
G01X30129Y-19733D01*
G01X30058Y-19610D01*
G01X30020D01*
G01X30200Y-19923D01*
G01X30300Y-19750D01*
G01X30400Y-19577D01*
G37*
G36*
G01X30001Y-11377D02*
G01X30020Y-11411D01*
G01X30058D01*
G01X30342D01*
G01X30271Y-11533D01*
G01X30200Y-11656D01*
G01X30129Y-11533D01*
G01X30058Y-11411D01*
G01X30020D01*
G01X30200Y-11723D01*
G01X30300Y-11550D01*
G01X30400Y-11377D01*
G37*
G36*
G01X30001Y-12877D02*
G01X30020Y-12911D01*
G01X30058D01*
G01X30342D01*
G01X30271Y-13033D01*
G01X30200Y-13156D01*
G01X30129Y-13033D01*
G01X30058Y-12911D01*
G01X30020D01*
G01X30200Y-13223D01*
G01X30300Y-13050D01*
G01X30400Y-12877D01*
G37*
G36*
G01X30001Y-8777D02*
G01X30020Y-8811D01*
G01X30058D01*
G01X30342D01*
G01X30271Y-8934D01*
G01X30200Y-9056D01*
G01X30129Y-8934D01*
G01X30058Y-8811D01*
G01X30020D01*
G01X30200Y-9123D01*
G01X30300Y-8950D01*
G01X30400Y-8777D01*
G37*
G36*
G01X30001Y-15477D02*
G01X30020Y-15510D01*
G01X30058D01*
G01X30342D01*
G01X30271Y-15633D01*
G01X30200Y-15756D01*
G01X30129Y-15633D01*
G01X30058Y-15510D01*
G01X30020D01*
G01X30200Y-15823D01*
G01X30300Y-15650D01*
G01X30400Y-15477D01*
G37*
G36*
G01X30001Y-23677D02*
G01X30020Y-23710D01*
G01X30058D01*
G01X30342D01*
G01X30271Y-23833D01*
G01X30200Y-23956D01*
G01X30129Y-23833D01*
G01X30058Y-23710D01*
G01X30020D01*
G01X30200Y-24023D01*
G01X30300Y-23850D01*
G01X30400Y-23677D01*
G37*
G36*
G01X30001Y-25177D02*
G01X30020Y-25211D01*
G01X30058D01*
G01X30342D01*
G01X30271Y-25333D01*
G01X30200Y-25456D01*
G01X30129Y-25333D01*
G01X30058Y-25211D01*
G01X30020D01*
G01X30200Y-25523D01*
G01X30300Y-25350D01*
G01X30400Y-25177D01*
G37*
G36*
G01X30001Y-21077D02*
G01X30020Y-21110D01*
G01X30058D01*
G01X30342D01*
G01X30271Y-21233D01*
G01X30200Y-21356D01*
G01X30129Y-21233D01*
G01X30058Y-21110D01*
G01X30020D01*
G01X30200Y-21423D01*
G01X30300Y-21250D01*
G01X30400Y-21077D01*
G37*
G36*
G01X34101Y-3177D02*
G01X34120Y-3211D01*
G01X34158D01*
G01X34442D01*
G01X34371Y-3333D01*
G01X34300Y-3456D01*
G01X34229Y-3333D01*
G01X34158Y-3211D01*
G01X34120D01*
G01X34201Y-3350D01*
G01X34300Y-3522D01*
G01X34499Y-3177D01*
G37*
G36*
G01X34101Y923D02*
G01X34120Y890D01*
G01X34158D01*
G01X34442D01*
G01X34371Y767D01*
G01X34300Y644D01*
G01X34229Y767D01*
G01X34158Y890D01*
G01X34120D01*
G01X34201Y750D01*
G01X34300Y578D01*
G01X34400Y750D01*
G01X34499Y923D01*
G37*
G36*
G01X34101Y-578D02*
G01X34120Y-611D01*
G01X34158D01*
G01X34442D01*
G01X34371Y-734D01*
G01X34300Y-856D01*
G01X34229Y-734D01*
G01X34158Y-611D01*
G01X34120D01*
G01X34201Y-750D01*
G01X34300Y-923D01*
G01X34400Y-750D01*
G01X34499Y-578D01*
G37*
G36*
G01X34101Y-4677D02*
G01X34120Y-4711D01*
G01X34158D01*
G01X34442D01*
G01X34371Y-4834D01*
G01X34300Y-4956D01*
G01X34229Y-4834D01*
G01X34158Y-4711D01*
G01X34120D01*
G01X34201Y-4850D01*
G01X34300Y-5023D01*
G01X34499Y-4677D01*
G37*
G36*
G01X34101Y-7277D02*
G01X34120Y-7311D01*
G01X34158D01*
G01X34442D01*
G01X34371Y-7434D01*
G01X34300Y-7556D01*
G01X34229Y-7434D01*
G01X34158Y-7311D01*
G01X34120D01*
G01X34201Y-7450D01*
G01X34300Y-7623D01*
G01X34499Y-7277D01*
G37*
G36*
G01X34101Y-16977D02*
G01X34120Y-17010D01*
G01X34158D01*
G01X34442D01*
G01X34371Y-17133D01*
G01X34300Y-17256D01*
G01X34229Y-17133D01*
G01X34158Y-17010D01*
G01X34120D01*
G01X34201Y-17150D01*
G01X34300Y-17323D01*
G01X34499Y-16977D01*
G37*
G36*
G01X34101Y-19577D02*
G01X34120Y-19610D01*
G01X34158D01*
G01X34442D01*
G01X34371Y-19733D01*
G01X34300Y-19856D01*
G01X34229Y-19733D01*
G01X34158Y-19610D01*
G01X34120D01*
G01X34201Y-19750D01*
G01X34300Y-19923D01*
G01X34499Y-19577D01*
G37*
G36*
G01X34101Y-11377D02*
G01X34120Y-11411D01*
G01X34158D01*
G01X34442D01*
G01X34371Y-11533D01*
G01X34300Y-11656D01*
G01X34229Y-11533D01*
G01X34158Y-11411D01*
G01X34120D01*
G01X34201Y-11550D01*
G01X34300Y-11723D01*
G01X34499Y-11377D01*
G37*
G36*
G01X34101Y-12877D02*
G01X34120Y-12911D01*
G01X34158D01*
G01X34442D01*
G01X34371Y-13033D01*
G01X34300Y-13156D01*
G01X34229Y-13033D01*
G01X34158Y-12911D01*
G01X34120D01*
G01X34201Y-13050D01*
G01X34300Y-13223D01*
G01X34499Y-12877D01*
G37*
G36*
G01X34101Y-8777D02*
G01X34120Y-8811D01*
G01X34158D01*
G01X34442D01*
G01X34371Y-8934D01*
G01X34300Y-9056D01*
G01X34229Y-8934D01*
G01X34158Y-8811D01*
G01X34120D01*
G01X34201Y-8950D01*
G01X34300Y-9123D01*
G01X34499Y-8777D01*
G37*
G36*
G01X34101Y-15477D02*
G01X34120Y-15510D01*
G01X34158D01*
G01X34442D01*
G01X34371Y-15633D01*
G01X34300Y-15756D01*
G01X34229Y-15633D01*
G01X34158Y-15510D01*
G01X34120D01*
G01X34201Y-15650D01*
G01X34300Y-15823D01*
G01X34499Y-15477D01*
G37*
G36*
G01X34101Y-23677D02*
G01X34120Y-23710D01*
G01X34158D01*
G01X34442D01*
G01X34371Y-23833D01*
G01X34300Y-23956D01*
G01X34229Y-23833D01*
G01X34158Y-23710D01*
G01X34120D01*
G01X34201Y-23850D01*
G01X34300Y-24023D01*
G01X34499Y-23677D01*
G37*
G36*
G01X34101Y-25177D02*
G01X34120Y-25211D01*
G01X34158D01*
G01X34442D01*
G01X34371Y-25333D01*
G01X34300Y-25456D01*
G01X34229Y-25333D01*
G01X34158Y-25211D01*
G01X34120D01*
G01X34201Y-25350D01*
G01X34300Y-25523D01*
G01X34499Y-25177D01*
G37*
G36*
G01X34101Y-21077D02*
G01X34120Y-21110D01*
G01X34158D01*
G01X34442D01*
G01X34371Y-21233D01*
G01X34300Y-21356D01*
G01X34229Y-21233D01*
G01X34158Y-21110D01*
G01X34120D01*
G01X34201Y-21250D01*
G01X34300Y-21423D01*
G01X34499Y-21077D01*
G37*
G36*
G01X38201Y-3177D02*
G01X38220Y-3211D01*
G01X38258D01*
G01X38542D01*
G01X38471Y-3333D01*
G01X38400Y-3456D01*
G01X38329Y-3333D01*
G01X38258Y-3211D01*
G01X38220D01*
G01X38301Y-3350D01*
G01X38400Y-3522D01*
G01X38599Y-3177D01*
G37*
G36*
G01X38201Y923D02*
G01X38220Y890D01*
G01X38258D01*
G01X38542D01*
G01X38471Y767D01*
G01X38400Y644D01*
G01X38329Y767D01*
G01X38258Y890D01*
G01X38220D01*
G01X38301Y750D01*
G01X38400Y578D01*
G01X38500Y750D01*
G01X38599Y923D01*
G37*
G36*
G01X38201Y-578D02*
G01X38220Y-611D01*
G01X38258D01*
G01X38542D01*
G01X38471Y-734D01*
G01X38400Y-856D01*
G01X38329Y-734D01*
G01X38258Y-611D01*
G01X38220D01*
G01X38301Y-750D01*
G01X38400Y-923D01*
G01X38500Y-750D01*
G01X38599Y-578D01*
G37*
G36*
G01X38201Y-4677D02*
G01X38220Y-4711D01*
G01X38258D01*
G01X38542D01*
G01X38471Y-4834D01*
G01X38400Y-4956D01*
G01X38329Y-4834D01*
G01X38258Y-4711D01*
G01X38220D01*
G01X38301Y-4850D01*
G01X38400Y-5023D01*
G01X38599Y-4677D01*
G37*
G36*
G01X38201Y-7277D02*
G01X38220Y-7311D01*
G01X38258D01*
G01X38542D01*
G01X38471Y-7434D01*
G01X38400Y-7556D01*
G01X38329Y-7434D01*
G01X38258Y-7311D01*
G01X38220D01*
G01X38301Y-7450D01*
G01X38400Y-7623D01*
G01X38599Y-7277D01*
G37*
G36*
G01X38201Y-16977D02*
G01X38220Y-17010D01*
G01X38258D01*
G01X38542D01*
G01X38471Y-17133D01*
G01X38400Y-17256D01*
G01X38329Y-17133D01*
G01X38258Y-17010D01*
G01X38220D01*
G01X38301Y-17150D01*
G01X38400Y-17323D01*
G01X38599Y-16977D01*
G37*
G36*
G01X38201Y-19577D02*
G01X38220Y-19610D01*
G01X38258D01*
G01X38542D01*
G01X38471Y-19733D01*
G01X38400Y-19856D01*
G01X38329Y-19733D01*
G01X38258Y-19610D01*
G01X38220D01*
G01X38301Y-19750D01*
G01X38400Y-19923D01*
G01X38599Y-19577D01*
G37*
G36*
G01X38201Y-11377D02*
G01X38220Y-11411D01*
G01X38258D01*
G01X38542D01*
G01X38471Y-11533D01*
G01X38400Y-11656D01*
G01X38329Y-11533D01*
G01X38258Y-11411D01*
G01X38220D01*
G01X38301Y-11550D01*
G01X38400Y-11723D01*
G01X38599Y-11377D01*
G37*
G36*
G01X38201Y-12877D02*
G01X38220Y-12911D01*
G01X38258D01*
G01X38542D01*
G01X38471Y-13033D01*
G01X38400Y-13156D01*
G01X38329Y-13033D01*
G01X38258Y-12911D01*
G01X38220D01*
G01X38301Y-13050D01*
G01X38400Y-13223D01*
G01X38599Y-12877D01*
G37*
G36*
G01X38201Y-8777D02*
G01X38220Y-8811D01*
G01X38258D01*
G01X38542D01*
G01X38471Y-8934D01*
G01X38400Y-9056D01*
G01X38329Y-8934D01*
G01X38258Y-8811D01*
G01X38220D01*
G01X38301Y-8950D01*
G01X38400Y-9123D01*
G01X38599Y-8777D01*
G37*
G36*
G01X38201Y-15477D02*
G01X38220Y-15510D01*
G01X38258D01*
G01X38542D01*
G01X38471Y-15633D01*
G01X38400Y-15756D01*
G01X38329Y-15633D01*
G01X38258Y-15510D01*
G01X38220D01*
G01X38301Y-15650D01*
G01X38400Y-15823D01*
G01X38599Y-15477D01*
G37*
G36*
G01X38201Y-23677D02*
G01X38220Y-23710D01*
G01X38258D01*
G01X38542D01*
G01X38471Y-23833D01*
G01X38400Y-23956D01*
G01X38329Y-23833D01*
G01X38258Y-23710D01*
G01X38220D01*
G01X38301Y-23850D01*
G01X38400Y-24023D01*
G01X38599Y-23677D01*
G37*
G36*
G01X38201Y-25177D02*
G01X38220Y-25211D01*
G01X38258D01*
G01X38542D01*
G01X38471Y-25333D01*
G01X38400Y-25456D01*
G01X38329Y-25333D01*
G01X38258Y-25211D01*
G01X38220D01*
G01X38301Y-25350D01*
G01X38400Y-25523D01*
G01X38599Y-25177D01*
G37*
G36*
G01X38201Y-21077D02*
G01X38220Y-21110D01*
G01X38258D01*
G01X38542D01*
G01X38471Y-21233D01*
G01X38400Y-21356D01*
G01X38329Y-21233D01*
G01X38258Y-21110D01*
G01X38220D01*
G01X38301Y-21250D01*
G01X38400Y-21423D01*
G01X38599Y-21077D01*
G37*
G36*
G01X42301Y-3177D02*
G01X42320Y-3211D01*
G01X42358D01*
G01X42642D01*
G01X42571Y-3333D01*
G01X42500Y-3456D01*
G01X42429Y-3333D01*
G01X42358Y-3211D01*
G01X42320D01*
G01X42400Y-3350D01*
G01X42500Y-3522D01*
G01X42699Y-3177D01*
G37*
G36*
G01X42301Y923D02*
G01X42320Y890D01*
G01X42358D01*
G01X42642D01*
G01X42571Y767D01*
G01X42500Y644D01*
G01X42358Y890D01*
G01X42320D01*
G01X42400Y750D01*
G01X42500Y578D01*
G01X42600Y750D01*
G01X42699Y923D01*
G37*
G36*
G01X42301Y-578D02*
G01X42319Y-611D01*
G01X42358D01*
G01X42642D01*
G01X42571Y-734D01*
G01X42500Y-856D01*
G01X42358Y-611D01*
G01X42319D01*
G01X42400Y-750D01*
G01X42500Y-923D01*
G01X42600Y-750D01*
G01X42699Y-578D01*
G37*
G36*
G01X42301Y-4677D02*
G01X42320Y-4711D01*
G01X42358D01*
G01X42642D01*
G01X42571Y-4834D01*
G01X42500Y-4956D01*
G01X42429Y-4834D01*
G01X42358Y-4711D01*
G01X42320D01*
G01X42400Y-4850D01*
G01X42500Y-5023D01*
G01X42699Y-4677D01*
G37*
G36*
G01X42301Y-7277D02*
G01X42320Y-7311D01*
G01X42358D01*
G01X42642D01*
G01X42571Y-7434D01*
G01X42500Y-7556D01*
G01X42429Y-7434D01*
G01X42358Y-7311D01*
G01X42320D01*
G01X42400Y-7450D01*
G01X42500Y-7623D01*
G01X42699Y-7277D01*
G37*
G36*
G01X42301Y-16977D02*
G01X42319Y-17010D01*
G01X42358D01*
G01X42642D01*
G01X42571Y-17133D01*
G01X42500Y-17256D01*
G01X42358Y-17010D01*
G01X42319D01*
G01X42400Y-17150D01*
G01X42500Y-17323D01*
G01X42699Y-16977D01*
G37*
G36*
G01X42301Y-19577D02*
G01X42319Y-19610D01*
G01X42358D01*
G01X42642D01*
G01X42571Y-19733D01*
G01X42500Y-19856D01*
G01X42358Y-19610D01*
G01X42319D01*
G01X42400Y-19750D01*
G01X42500Y-19923D01*
G01X42699Y-19577D01*
G37*
G36*
G01X42301Y-11377D02*
G01X42320Y-11411D01*
G01X42358D01*
G01X42642D01*
G01X42571Y-11533D01*
G01X42500Y-11656D01*
G01X42429Y-11533D01*
G01X42358Y-11411D01*
G01X42320D01*
G01X42400Y-11550D01*
G01X42500Y-11723D01*
G01X42699Y-11377D01*
G37*
G36*
G01X42301Y-12877D02*
G01X42320Y-12911D01*
G01X42358D01*
G01X42642D01*
G01X42571Y-13033D01*
G01X42500Y-13156D01*
G01X42429Y-13033D01*
G01X42358Y-12911D01*
G01X42320D01*
G01X42400Y-13050D01*
G01X42500Y-13223D01*
G01X42699Y-12877D01*
G37*
G36*
G01X42301Y-8777D02*
G01X42320Y-8811D01*
G01X42358D01*
G01X42642D01*
G01X42571Y-8934D01*
G01X42500Y-9056D01*
G01X42429Y-8934D01*
G01X42358Y-8811D01*
G01X42320D01*
G01X42400Y-8950D01*
G01X42500Y-9123D01*
G01X42699Y-8777D01*
G37*
G36*
G01X42301Y-15477D02*
G01X42319Y-15510D01*
G01X42358D01*
G01X42642D01*
G01X42571Y-15633D01*
G01X42500Y-15756D01*
G01X42358Y-15510D01*
G01X42319D01*
G01X42400Y-15650D01*
G01X42500Y-15823D01*
G01X42699Y-15477D01*
G37*
G36*
G01X42301Y-23677D02*
G01X42319Y-23710D01*
G01X42358D01*
G01X42642D01*
G01X42571Y-23833D01*
G01X42500Y-23956D01*
G01X42358Y-23710D01*
G01X42319D01*
G01X42400Y-23850D01*
G01X42500Y-24023D01*
G01X42699Y-23677D01*
G37*
G36*
G01X42301Y-25177D02*
G01X42319Y-25211D01*
G01X42358D01*
G01X42642D01*
G01X42571Y-25333D01*
G01X42500Y-25456D01*
G01X42358Y-25211D01*
G01X42319D01*
G01X42400Y-25350D01*
G01X42500Y-25523D01*
G01X42699Y-25177D01*
G37*
G36*
G01X42301Y-21077D02*
G01X42319Y-21110D01*
G01X42358D01*
G01X42642D01*
G01X42571Y-21233D01*
G01X42500Y-21356D01*
G01X42358Y-21110D01*
G01X42319D01*
G01X42400Y-21250D01*
G01X42500Y-21423D01*
G01X42699Y-21077D01*
G37*
G36*
G01X46401Y-3177D02*
G01X46420Y-3211D01*
G01X46458D01*
G01X46742D01*
G01X46671Y-3333D01*
G01X46600Y-3456D01*
G01X46529Y-3333D01*
G01X46458Y-3211D01*
G01X46420D01*
G01X46500Y-3350D01*
G01X46600Y-3522D01*
G01X46800Y-3177D01*
G37*
G36*
G01X46401Y923D02*
G01X46420Y890D01*
G01X46458D01*
G01X46742D01*
G01X46671Y767D01*
G01X46600Y644D01*
G01X46458Y890D01*
G01X46420D01*
G01X46500Y750D01*
G01X46600Y578D01*
G01X46700Y750D01*
G01X46800Y923D01*
G37*
G36*
G01X46401Y-578D02*
G01X46420Y-611D01*
G01X46458D01*
G01X46742D01*
G01X46671Y-734D01*
G01X46600Y-856D01*
G01X46458Y-611D01*
G01X46420D01*
G01X46500Y-750D01*
G01X46600Y-923D01*
G01X46700Y-750D01*
G01X46800Y-578D01*
G37*
G36*
G01X46401Y-4677D02*
G01X46420Y-4711D01*
G01X46458D01*
G01X46742D01*
G01X46671Y-4834D01*
G01X46600Y-4956D01*
G01X46529Y-4834D01*
G01X46458Y-4711D01*
G01X46420D01*
G01X46500Y-4850D01*
G01X46600Y-5023D01*
G01X46800Y-4677D01*
G37*
G36*
G01X46401Y-7277D02*
G01X46420Y-7311D01*
G01X46458D01*
G01X46742D01*
G01X46671Y-7434D01*
G01X46600Y-7556D01*
G01X46529Y-7434D01*
G01X46458Y-7311D01*
G01X46420D01*
G01X46500Y-7450D01*
G01X46600Y-7623D01*
G01X46800Y-7277D01*
G37*
G36*
G01X46401Y-16977D02*
G01X46420Y-17010D01*
G01X46458D01*
G01X46742D01*
G01X46671Y-17133D01*
G01X46600Y-17256D01*
G01X46458Y-17010D01*
G01X46420D01*
G01X46500Y-17150D01*
G01X46600Y-17323D01*
G01X46800Y-16977D01*
G37*
G36*
G01X46401Y-19577D02*
G01X46420Y-19610D01*
G01X46458D01*
G01X46742D01*
G01X46671Y-19733D01*
G01X46600Y-19856D01*
G01X46458Y-19610D01*
G01X46420D01*
G01X46500Y-19750D01*
G01X46600Y-19923D01*
G01X46800Y-19577D01*
G37*
G36*
G01X46401Y-11377D02*
G01X46420Y-11411D01*
G01X46458D01*
G01X46742D01*
G01X46671Y-11533D01*
G01X46600Y-11656D01*
G01X46529Y-11533D01*
G01X46458Y-11411D01*
G01X46420D01*
G01X46500Y-11550D01*
G01X46600Y-11723D01*
G01X46800Y-11377D01*
G37*
G36*
G01X46401Y-12877D02*
G01X46420Y-12911D01*
G01X46458D01*
G01X46742D01*
G01X46671Y-13033D01*
G01X46600Y-13156D01*
G01X46529Y-13033D01*
G01X46458Y-12911D01*
G01X46420D01*
G01X46500Y-13050D01*
G01X46600Y-13223D01*
G01X46800Y-12877D01*
G37*
G36*
G01X46401Y-8777D02*
G01X46420Y-8811D01*
G01X46458D01*
G01X46742D01*
G01X46671Y-8934D01*
G01X46600Y-9056D01*
G01X46529Y-8934D01*
G01X46458Y-8811D01*
G01X46420D01*
G01X46500Y-8950D01*
G01X46600Y-9123D01*
G01X46800Y-8777D01*
G37*
G36*
G01X46401Y-15477D02*
G01X46420Y-15510D01*
G01X46458D01*
G01X46742D01*
G01X46671Y-15633D01*
G01X46600Y-15756D01*
G01X46458Y-15510D01*
G01X46420D01*
G01X46500Y-15650D01*
G01X46600Y-15823D01*
G01X46800Y-15477D01*
G37*
G36*
G01X46401Y-23677D02*
G01X46420Y-23710D01*
G01X46458D01*
G01X46742D01*
G01X46671Y-23833D01*
G01X46600Y-23956D01*
G01X46458Y-23710D01*
G01X46420D01*
G01X46500Y-23850D01*
G01X46600Y-24023D01*
G01X46800Y-23677D01*
G37*
G36*
G01X46401Y-25177D02*
G01X46420Y-25211D01*
G01X46458D01*
G01X46742D01*
G01X46671Y-25333D01*
G01X46600Y-25456D01*
G01X46458Y-25211D01*
G01X46420D01*
G01X46500Y-25350D01*
G01X46600Y-25523D01*
G01X46800Y-25177D01*
G37*
G36*
G01X46401Y-21077D02*
G01X46420Y-21110D01*
G01X46458D01*
G01X46742D01*
G01X46671Y-21233D01*
G01X46600Y-21356D01*
G01X46458Y-21110D01*
G01X46420D01*
G01X46500Y-21250D01*
G01X46600Y-21423D01*
G01X46800Y-21077D01*
G37*
G36*
G01X50501Y-3177D02*
G01X50520Y-3211D01*
G01X50558D01*
G01X50842D01*
G01X50771Y-3333D01*
G01X50700Y-3456D01*
G01X50629Y-3333D01*
G01X50558Y-3211D01*
G01X50520D01*
G01X50700Y-3522D01*
G01X50800Y-3350D01*
G01X50900Y-3177D01*
G37*
G36*
G01X50501Y923D02*
G01X50520Y890D01*
G01X50558D01*
G01X50842D01*
G01X50700Y644D01*
G01X50629Y767D01*
G01X50558Y890D01*
G01X50520D01*
G01X50600Y750D01*
G01X50700Y578D01*
G01X50800Y750D01*
G01X50900Y923D01*
G37*
G36*
G01X50501Y-578D02*
G01X50520Y-611D01*
G01X50558D01*
G01X50842D01*
G01X50700Y-856D01*
G01X50629Y-734D01*
G01X50558Y-611D01*
G01X50520D01*
G01X50600Y-750D01*
G01X50700Y-923D01*
G01X50800Y-750D01*
G01X50900Y-578D01*
G37*
G36*
G01X50501Y-4677D02*
G01X50520Y-4711D01*
G01X50558D01*
G01X50842D01*
G01X50771Y-4834D01*
G01X50700Y-4956D01*
G01X50629Y-4834D01*
G01X50558Y-4711D01*
G01X50520D01*
G01X50700Y-5023D01*
G01X50800Y-4850D01*
G01X50900Y-4677D01*
G37*
G36*
G01X50501Y-7277D02*
G01X50520Y-7311D01*
G01X50558D01*
G01X50842D01*
G01X50771Y-7434D01*
G01X50700Y-7556D01*
G01X50629Y-7434D01*
G01X50558Y-7311D01*
G01X50520D01*
G01X50700Y-7623D01*
G01X50800Y-7450D01*
G01X50900Y-7277D01*
G37*
G36*
G01X50501Y-16977D02*
G01X50520Y-17010D01*
G01X50558D01*
G01X50842D01*
G01X50700Y-17256D01*
G01X50629Y-17133D01*
G01X50558Y-17010D01*
G01X50520D01*
G01X50700Y-17323D01*
G01X50800Y-17150D01*
G01X50900Y-16977D01*
G37*
G36*
G01X50501Y-19577D02*
G01X50520Y-19610D01*
G01X50558D01*
G01X50842D01*
G01X50700Y-19856D01*
G01X50629Y-19733D01*
G01X50558Y-19610D01*
G01X50520D01*
G01X50700Y-19923D01*
G01X50800Y-19750D01*
G01X50900Y-19577D01*
G37*
G36*
G01X50501Y-11377D02*
G01X50520Y-11411D01*
G01X50558D01*
G01X50842D01*
G01X50771Y-11533D01*
G01X50700Y-11656D01*
G01X50629Y-11533D01*
G01X50558Y-11411D01*
G01X50520D01*
G01X50700Y-11723D01*
G01X50800Y-11550D01*
G01X50900Y-11377D01*
G37*
G36*
G01X50501Y-12877D02*
G01X50520Y-12911D01*
G01X50558D01*
G01X50842D01*
G01X50771Y-13033D01*
G01X50700Y-13156D01*
G01X50629Y-13033D01*
G01X50558Y-12911D01*
G01X50520D01*
G01X50700Y-13223D01*
G01X50800Y-13050D01*
G01X50900Y-12877D01*
G37*
G36*
G01X50501Y-8777D02*
G01X50520Y-8811D01*
G01X50558D01*
G01X50842D01*
G01X50771Y-8934D01*
G01X50700Y-9056D01*
G01X50629Y-8934D01*
G01X50558Y-8811D01*
G01X50520D01*
G01X50700Y-9123D01*
G01X50800Y-8950D01*
G01X50900Y-8777D01*
G37*
G36*
G01X50501Y-15477D02*
G01X50520Y-15510D01*
G01X50558D01*
G01X50842D01*
G01X50700Y-15756D01*
G01X50629Y-15633D01*
G01X50558Y-15510D01*
G01X50520D01*
G01X50700Y-15823D01*
G01X50800Y-15650D01*
G01X50900Y-15477D01*
G37*
G36*
G01X50501Y-23677D02*
G01X50520Y-23710D01*
G01X50558D01*
G01X50842D01*
G01X50700Y-23956D01*
G01X50629Y-23833D01*
G01X50558Y-23710D01*
G01X50520D01*
G01X50700Y-24023D01*
G01X50800Y-23850D01*
G01X50900Y-23677D01*
G37*
G36*
G01X50501Y-25177D02*
G01X50520Y-25211D01*
G01X50558D01*
G01X50842D01*
G01X50700Y-25456D01*
G01X50629Y-25333D01*
G01X50558Y-25211D01*
G01X50520D01*
G01X50700Y-25523D01*
G01X50800Y-25350D01*
G01X50900Y-25177D01*
G37*
G36*
G01X50501Y-21077D02*
G01X50520Y-21110D01*
G01X50558D01*
G01X50842D01*
G01X50700Y-21356D01*
G01X50629Y-21233D01*
G01X50558Y-21110D01*
G01X50520D01*
G01X50700Y-21423D01*
G01X50800Y-21250D01*
G01X50900Y-21077D01*
G37*
G36*
G01X54601Y-3177D02*
G01X54620Y-3211D01*
G01X54658D01*
G01X54942D01*
G01X54871Y-3333D01*
G01X54800Y-3456D01*
G01X54729Y-3333D01*
G01X54658Y-3211D01*
G01X54620D01*
G01X54800Y-3522D01*
G01X54900Y-3350D01*
G01X55000Y-3177D01*
G37*
G36*
G01X54601Y923D02*
G01X54620Y890D01*
G01X54658D01*
G01X54942D01*
G01X54871Y767D01*
G01X54800Y644D01*
G01X54729Y767D01*
G01X54658Y890D01*
G01X54620D01*
G01X54700Y750D01*
G01X54800Y578D01*
G01X54900Y750D01*
G01X55000Y923D01*
G37*
G36*
G01X54601Y-578D02*
G01X54620Y-611D01*
G01X54658D01*
G01X54942D01*
G01X54871Y-734D01*
G01X54800Y-856D01*
G01X54729Y-734D01*
G01X54658Y-611D01*
G01X54620D01*
G01X54700Y-750D01*
G01X54800Y-923D01*
G01X54900Y-750D01*
G01X55000Y-578D01*
G37*
G36*
G01X54601Y-4677D02*
G01X54620Y-4711D01*
G01X54658D01*
G01X54942D01*
G01X54871Y-4834D01*
G01X54800Y-4956D01*
G01X54729Y-4834D01*
G01X54658Y-4711D01*
G01X54620D01*
G01X54800Y-5023D01*
G01X54900Y-4850D01*
G01X55000Y-4677D01*
G37*
G36*
G01X54601Y-7277D02*
G01X54620Y-7311D01*
G01X54658D01*
G01X54942D01*
G01X54871Y-7434D01*
G01X54800Y-7556D01*
G01X54729Y-7434D01*
G01X54658Y-7311D01*
G01X54620D01*
G01X54800Y-7623D01*
G01X54900Y-7450D01*
G01X55000Y-7277D01*
G37*
G36*
G01X54601Y-16977D02*
G01X54620Y-17010D01*
G01X54658D01*
G01X54942D01*
G01X54871Y-17133D01*
G01X54800Y-17256D01*
G01X54729Y-17133D01*
G01X54658Y-17010D01*
G01X54620D01*
G01X54800Y-17323D01*
G01X54900Y-17150D01*
G01X55000Y-16977D01*
G37*
G36*
G01X54601Y-19577D02*
G01X54620Y-19610D01*
G01X54658D01*
G01X54942D01*
G01X54871Y-19733D01*
G01X54800Y-19856D01*
G01X54729Y-19733D01*
G01X54658Y-19610D01*
G01X54620D01*
G01X54800Y-19923D01*
G01X54900Y-19750D01*
G01X55000Y-19577D01*
G37*
G36*
G01X54601Y-11377D02*
G01X54620Y-11411D01*
G01X54658D01*
G01X54942D01*
G01X54871Y-11533D01*
G01X54800Y-11656D01*
G01X54729Y-11533D01*
G01X54658Y-11411D01*
G01X54620D01*
G01X54800Y-11723D01*
G01X54900Y-11550D01*
G01X55000Y-11377D01*
G37*
G36*
G01X54601Y-12877D02*
G01X54620Y-12911D01*
G01X54658D01*
G01X54942D01*
G01X54871Y-13033D01*
G01X54800Y-13156D01*
G01X54729Y-13033D01*
G01X54658Y-12911D01*
G01X54620D01*
G01X54800Y-13223D01*
G01X54900Y-13050D01*
G01X55000Y-12877D01*
G37*
G36*
G01X54601Y-8777D02*
G01X54620Y-8811D01*
G01X54658D01*
G01X54942D01*
G01X54871Y-8934D01*
G01X54800Y-9056D01*
G01X54729Y-8934D01*
G01X54658Y-8811D01*
G01X54620D01*
G01X54800Y-9123D01*
G01X54900Y-8950D01*
G01X55000Y-8777D01*
G37*
G36*
G01X54601Y-15477D02*
G01X54620Y-15510D01*
G01X54658D01*
G01X54942D01*
G01X54871Y-15633D01*
G01X54800Y-15756D01*
G01X54729Y-15633D01*
G01X54658Y-15510D01*
G01X54620D01*
G01X54800Y-15823D01*
G01X54900Y-15650D01*
G01X55000Y-15477D01*
G37*
G36*
G01X54601Y-23677D02*
G01X54620Y-23710D01*
G01X54658D01*
G01X54942D01*
G01X54871Y-23833D01*
G01X54800Y-23956D01*
G01X54729Y-23833D01*
G01X54658Y-23710D01*
G01X54620D01*
G01X54800Y-24023D01*
G01X54900Y-23850D01*
G01X55000Y-23677D01*
G37*
G36*
G01X54601Y-25177D02*
G01X54620Y-25211D01*
G01X54658D01*
G01X54942D01*
G01X54871Y-25333D01*
G01X54800Y-25456D01*
G01X54729Y-25333D01*
G01X54658Y-25211D01*
G01X54620D01*
G01X54800Y-25523D01*
G01X54900Y-25350D01*
G01X55000Y-25177D01*
G37*
G36*
G01X54601Y-21077D02*
G01X54620Y-21110D01*
G01X54658D01*
G01X54942D01*
G01X54871Y-21233D01*
G01X54800Y-21356D01*
G01X54729Y-21233D01*
G01X54658Y-21110D01*
G01X54620D01*
G01X54800Y-21423D01*
G01X54900Y-21250D01*
G01X55000Y-21077D01*
G37*
G36*
G01X58701Y-3177D02*
G01X58720Y-3211D01*
G01X58758D01*
G01X59042D01*
G01X58971Y-3333D01*
G01X58900Y-3456D01*
G01X58829Y-3333D01*
G01X58758Y-3211D01*
G01X58720D01*
G01X58900Y-3522D01*
G01X59000Y-3350D01*
G01X59100Y-3177D01*
G37*
G36*
G01X58701Y923D02*
G01X58720Y890D01*
G01X58758D01*
G01X59042D01*
G01X58971Y767D01*
G01X58900Y644D01*
G01X58829Y767D01*
G01X58758Y890D01*
G01X58720D01*
G01X58800Y750D01*
G01X58900Y578D01*
G01X59000Y750D01*
G01X59100Y923D01*
G37*
G36*
G01X58701Y-578D02*
G01X58720Y-611D01*
G01X58758D01*
G01X59042D01*
G01X58971Y-734D01*
G01X58900Y-856D01*
G01X58829Y-734D01*
G01X58758Y-611D01*
G01X58720D01*
G01X58800Y-750D01*
G01X58900Y-923D01*
G01X59000Y-750D01*
G01X59100Y-578D01*
G37*
G36*
G01X58701Y-4677D02*
G01X58720Y-4711D01*
G01X58758D01*
G01X59042D01*
G01X58971Y-4834D01*
G01X58900Y-4956D01*
G01X58829Y-4834D01*
G01X58758Y-4711D01*
G01X58720D01*
G01X58900Y-5023D01*
G01X59000Y-4850D01*
G01X59100Y-4677D01*
G37*
G36*
G01X58701Y-7277D02*
G01X58720Y-7311D01*
G01X58758D01*
G01X59042D01*
G01X58971Y-7434D01*
G01X58900Y-7556D01*
G01X58829Y-7434D01*
G01X58758Y-7311D01*
G01X58720D01*
G01X58900Y-7623D01*
G01X59000Y-7450D01*
G01X59100Y-7277D01*
G37*
G36*
G01X58701Y-16977D02*
G01X58720Y-17010D01*
G01X58758D01*
G01X59042D01*
G01X58971Y-17133D01*
G01X58900Y-17256D01*
G01X58829Y-17133D01*
G01X58758Y-17010D01*
G01X58720D01*
G01X58900Y-17323D01*
G01X59000Y-17150D01*
G01X59100Y-16977D01*
G37*
G36*
G01X58701Y-19577D02*
G01X58720Y-19610D01*
G01X58758D01*
G01X59042D01*
G01X58971Y-19733D01*
G01X58900Y-19856D01*
G01X58829Y-19733D01*
G01X58758Y-19610D01*
G01X58720D01*
G01X58900Y-19923D01*
G01X59000Y-19750D01*
G01X59100Y-19577D01*
G37*
G36*
G01X58701Y-11377D02*
G01X58720Y-11411D01*
G01X58758D01*
G01X59042D01*
G01X58971Y-11533D01*
G01X58900Y-11656D01*
G01X58829Y-11533D01*
G01X58758Y-11411D01*
G01X58720D01*
G01X58900Y-11723D01*
G01X59000Y-11550D01*
G01X59100Y-11377D01*
G37*
G36*
G01X58701Y-12877D02*
G01X58720Y-12911D01*
G01X58758D01*
G01X59042D01*
G01X58971Y-13033D01*
G01X58900Y-13156D01*
G01X58829Y-13033D01*
G01X58758Y-12911D01*
G01X58720D01*
G01X58900Y-13223D01*
G01X59000Y-13050D01*
G01X59100Y-12877D01*
G37*
G36*
G01X58701Y-8777D02*
G01X58720Y-8811D01*
G01X58758D01*
G01X59042D01*
G01X58971Y-8934D01*
G01X58900Y-9056D01*
G01X58829Y-8934D01*
G01X58758Y-8811D01*
G01X58720D01*
G01X58900Y-9123D01*
G01X59000Y-8950D01*
G01X59100Y-8777D01*
G37*
G36*
G01X58701Y-15477D02*
G01X58720Y-15510D01*
G01X58758D01*
G01X59042D01*
G01X58971Y-15633D01*
G01X58900Y-15756D01*
G01X58829Y-15633D01*
G01X58758Y-15510D01*
G01X58720D01*
G01X58900Y-15823D01*
G01X59000Y-15650D01*
G01X59100Y-15477D01*
G37*
G36*
G01X58701Y-23677D02*
G01X58720Y-23710D01*
G01X58758D01*
G01X59042D01*
G01X58971Y-23833D01*
G01X58900Y-23956D01*
G01X58829Y-23833D01*
G01X58758Y-23710D01*
G01X58720D01*
G01X58900Y-24023D01*
G01X59000Y-23850D01*
G01X59100Y-23677D01*
G37*
G36*
G01X58701Y-25177D02*
G01X58720Y-25211D01*
G01X58758D01*
G01X59042D01*
G01X58971Y-25333D01*
G01X58900Y-25456D01*
G01X58829Y-25333D01*
G01X58758Y-25211D01*
G01X58720D01*
G01X58900Y-25523D01*
G01X59000Y-25350D01*
G01X59100Y-25177D01*
G37*
G36*
G01X58701Y-21077D02*
G01X58720Y-21110D01*
G01X58758D01*
G01X59042D01*
G01X58971Y-21233D01*
G01X58900Y-21356D01*
G01X58829Y-21233D01*
G01X58758Y-21110D01*
G01X58720D01*
G01X58900Y-21423D01*
G01X59000Y-21250D01*
G01X59100Y-21077D01*
G37*
G04 Image End*
G54D10*

M02*
