G04 Layer: TopSolderMaskLayer*
G04 EasyEDA Pro v2.1.21.9b64d12f.b3811b, 2024-04-08 20:46:48*
G04 Gerber Generator version 0.3*
G04 Scale: 100 percent, Rotated: No, Reflected: No*
G04 Dimensions in millimeters*
G04 Leading zeros omitted, absolute positions, 3 integers and 3 decimals*
%FSLAX33Y33*%
%MOMM*%
%AMRoundRect*1,1,$1,$2,$3*1,1,$1,$4,$5*1,1,$1,0-$2,0-$3*1,1,$1,0-$4,0-$5*20,1,$1,$2,$3,$4,$5,0*20,1,$1,$4,$5,0-$2,0-$3,0*20,1,$1,0-$2,0-$3,0-$4,0-$5,0*20,1,$1,0-$4,0-$5,$2,$3,0*4,1,4,$2,$3,$4,$5,0-$2,0-$3,0-$4,0-$5,$2,$3,0*%
%ADD10C,1.902*%
%ADD11RoundRect,0.096X0.903X0.903X0.903X-0.903*%
%ADD12RoundRect,0.094X0.803X-0.803X-0.803X-0.803*%
%ADD13C,1.7*%
%ADD14RoundRect,0.091X-0.455X-0.455X-0.455X0.455*%
G75*


G04 Pad Start*
G54D10*
G01X62484Y-31242D03*
G01X62484Y-28702D03*
G01X62484Y-26162D03*
G01X62484Y-23622D03*
G01X62484Y-21082D03*
G01X62484Y-18542D03*
G01X62484Y-16002D03*
G01X62484Y-13462D03*
G01X62484Y-10922D03*
G01X62484Y-8382D03*
G01X62484Y-5842D03*
G01X62484Y-3302D03*
G01X62484Y-762D03*
G54D11*
G01X62484Y1778D03*
G54D12*
G01X46390Y-31369D03*
G54D13*
G01X43850Y-31369D03*
G01X41310Y-31369D03*
G01X38770Y-31369D03*
G01X36230Y-31369D03*
G01X33690Y-31369D03*
G01X31150Y-31369D03*
G01X28610Y-31369D03*
G01X26070Y-31369D03*
G01X23530Y-31369D03*
G01X20990Y-31369D03*
G01X18450Y-31369D03*
G01X15910Y-31369D03*
G01X13370Y-31369D03*
G01X10830Y-31369D03*
G54D14*
G01X1500Y-750D03*
G01X-1500Y-750D03*
G01X-1500Y750D03*
G01X1500Y750D03*
G01X5600Y-750D03*
G01X2600Y-750D03*
G01X2600Y750D03*
G01X5600Y750D03*
G01X9700Y-750D03*
G01X6700Y-750D03*
G01X6700Y750D03*
G01X9700Y750D03*
G01X13800Y-750D03*
G01X10800Y-750D03*
G01X10800Y750D03*
G01X13800Y750D03*
G01X17900Y-750D03*
G01X14900Y-750D03*
G01X14900Y750D03*
G01X17900Y750D03*
G01X1500Y-4850D03*
G01X-1500Y-4850D03*
G01X-1500Y-3350D03*
G01X1500Y-3350D03*
G01X5600Y-4850D03*
G01X2600Y-4850D03*
G01X2600Y-3350D03*
G01X5600Y-3350D03*
G01X9700Y-4850D03*
G01X6700Y-4850D03*
G01X6700Y-3350D03*
G01X9700Y-3350D03*
G01X13800Y-4850D03*
G01X10800Y-4850D03*
G01X10800Y-3350D03*
G01X13800Y-3350D03*
G01X17900Y-4850D03*
G01X14900Y-4850D03*
G01X14900Y-3350D03*
G01X17900Y-3350D03*
G01X1500Y-8950D03*
G01X-1500Y-8950D03*
G01X-1500Y-7450D03*
G01X1500Y-7450D03*
G01X5600Y-8950D03*
G01X2600Y-8950D03*
G01X2600Y-7450D03*
G01X5600Y-7450D03*
G01X9700Y-8950D03*
G01X6700Y-8950D03*
G01X6700Y-7450D03*
G01X9700Y-7450D03*
G01X13800Y-8950D03*
G01X10800Y-8950D03*
G01X10800Y-7450D03*
G01X13800Y-7450D03*
G01X17900Y-8950D03*
G01X14900Y-8950D03*
G01X14900Y-7450D03*
G01X17900Y-7450D03*
G01X1500Y-13050D03*
G01X-1500Y-13050D03*
G01X-1500Y-11550D03*
G01X1500Y-11550D03*
G01X5600Y-13050D03*
G01X2600Y-13050D03*
G01X2600Y-11550D03*
G01X5600Y-11550D03*
G01X9700Y-13050D03*
G01X6700Y-13050D03*
G01X6700Y-11550D03*
G01X9700Y-11550D03*
G01X13800Y-13050D03*
G01X10800Y-13050D03*
G01X10800Y-11550D03*
G01X13800Y-11550D03*
G01X17900Y-13050D03*
G01X14900Y-13050D03*
G01X14900Y-11550D03*
G01X17900Y-11550D03*
G01X1500Y-17150D03*
G01X-1500Y-17150D03*
G01X-1500Y-15650D03*
G01X1500Y-15650D03*
G01X5600Y-17150D03*
G01X2600Y-17150D03*
G01X2600Y-15650D03*
G01X5600Y-15650D03*
G01X9700Y-17150D03*
G01X6700Y-17150D03*
G01X6700Y-15650D03*
G01X9700Y-15650D03*
G01X13800Y-17150D03*
G01X10800Y-17150D03*
G01X10800Y-15650D03*
G01X13800Y-15650D03*
G01X17900Y-17150D03*
G01X14900Y-17150D03*
G01X14900Y-15650D03*
G01X17900Y-15650D03*
G01X1500Y-21250D03*
G01X-1500Y-21250D03*
G01X-1500Y-19750D03*
G01X1500Y-19750D03*
G01X5600Y-21250D03*
G01X2600Y-21250D03*
G01X2600Y-19750D03*
G01X5600Y-19750D03*
G01X9700Y-21250D03*
G01X6700Y-21250D03*
G01X6700Y-19750D03*
G01X9700Y-19750D03*
G01X13800Y-21250D03*
G01X10800Y-21250D03*
G01X10800Y-19750D03*
G01X13800Y-19750D03*
G01X17900Y-21250D03*
G01X14900Y-21250D03*
G01X14900Y-19750D03*
G01X17900Y-19750D03*
G01X1500Y-25350D03*
G01X-1500Y-25350D03*
G01X-1500Y-23850D03*
G01X1500Y-23850D03*
G01X5600Y-25350D03*
G01X2600Y-25350D03*
G01X2600Y-23850D03*
G01X5600Y-23850D03*
G01X9700Y-25350D03*
G01X6700Y-25350D03*
G01X6700Y-23850D03*
G01X9700Y-23850D03*
G01X13800Y-25350D03*
G01X10800Y-25350D03*
G01X10800Y-23850D03*
G01X13800Y-23850D03*
G01X17900Y-25350D03*
G01X14900Y-25350D03*
G01X14900Y-23850D03*
G01X17900Y-23850D03*
G01X22000Y-750D03*
G01X19000Y-750D03*
G01X19000Y750D03*
G01X22000Y750D03*
G01X26100Y-750D03*
G01X23100Y-750D03*
G01X23100Y750D03*
G01X26100Y750D03*
G01X30200Y-750D03*
G01X27200Y-750D03*
G01X27200Y750D03*
G01X30200Y750D03*
G01X34300Y-750D03*
G01X31300Y-750D03*
G01X31300Y750D03*
G01X34300Y750D03*
G01X38400Y-750D03*
G01X35400Y-750D03*
G01X35400Y750D03*
G01X38400Y750D03*
G01X22000Y-4850D03*
G01X19000Y-4850D03*
G01X19000Y-3350D03*
G01X22000Y-3350D03*
G01X26100Y-4850D03*
G01X23100Y-4850D03*
G01X23100Y-3350D03*
G01X26100Y-3350D03*
G01X30200Y-4850D03*
G01X27200Y-4850D03*
G01X27200Y-3350D03*
G01X30200Y-3350D03*
G01X34300Y-4850D03*
G01X31300Y-4850D03*
G01X31300Y-3350D03*
G01X34300Y-3350D03*
G01X38400Y-4850D03*
G01X35400Y-4850D03*
G01X35400Y-3350D03*
G01X38400Y-3350D03*
G01X22000Y-8950D03*
G01X19000Y-8950D03*
G01X19000Y-7450D03*
G01X22000Y-7450D03*
G01X26100Y-8950D03*
G01X23100Y-8950D03*
G01X23100Y-7450D03*
G01X26100Y-7450D03*
G01X30200Y-8950D03*
G01X27200Y-8950D03*
G01X27200Y-7450D03*
G01X30200Y-7450D03*
G01X34300Y-8950D03*
G01X31300Y-8950D03*
G01X31300Y-7450D03*
G01X34300Y-7450D03*
G01X38400Y-8950D03*
G01X35400Y-8950D03*
G01X35400Y-7450D03*
G01X38400Y-7450D03*
G01X22000Y-13050D03*
G01X19000Y-13050D03*
G01X19000Y-11550D03*
G01X22000Y-11550D03*
G01X26100Y-13050D03*
G01X23100Y-13050D03*
G01X23100Y-11550D03*
G01X26100Y-11550D03*
G01X30200Y-13050D03*
G01X27200Y-13050D03*
G01X27200Y-11550D03*
G01X30200Y-11550D03*
G01X34300Y-13050D03*
G01X31300Y-13050D03*
G01X31300Y-11550D03*
G01X34300Y-11550D03*
G01X38400Y-13050D03*
G01X35400Y-13050D03*
G01X35400Y-11550D03*
G01X38400Y-11550D03*
G01X22000Y-17150D03*
G01X19000Y-17150D03*
G01X19000Y-15650D03*
G01X22000Y-15650D03*
G01X26100Y-17150D03*
G01X23100Y-17150D03*
G01X23100Y-15650D03*
G01X26100Y-15650D03*
G01X30200Y-17150D03*
G01X27200Y-17150D03*
G01X27200Y-15650D03*
G01X30200Y-15650D03*
G01X34300Y-17150D03*
G01X31300Y-17150D03*
G01X31300Y-15650D03*
G01X34300Y-15650D03*
G01X38400Y-17150D03*
G01X35400Y-17150D03*
G01X35400Y-15650D03*
G01X38400Y-15650D03*
G01X22000Y-21250D03*
G01X19000Y-21250D03*
G01X19000Y-19750D03*
G01X22000Y-19750D03*
G01X26100Y-21250D03*
G01X23100Y-21250D03*
G01X23100Y-19750D03*
G01X26100Y-19750D03*
G01X30200Y-21250D03*
G01X27200Y-21250D03*
G01X27200Y-19750D03*
G01X30200Y-19750D03*
G01X34300Y-21250D03*
G01X31300Y-21250D03*
G01X31300Y-19750D03*
G01X34300Y-19750D03*
G01X38400Y-21250D03*
G01X35400Y-21250D03*
G01X35400Y-19750D03*
G01X38400Y-19750D03*
G01X22000Y-25350D03*
G01X19000Y-25350D03*
G01X19000Y-23850D03*
G01X22000Y-23850D03*
G01X26100Y-25350D03*
G01X23100Y-25350D03*
G01X23100Y-23850D03*
G01X26100Y-23850D03*
G01X30200Y-25350D03*
G01X27200Y-25350D03*
G01X27200Y-23850D03*
G01X30200Y-23850D03*
G01X34300Y-25350D03*
G01X31300Y-25350D03*
G01X31300Y-23850D03*
G01X34300Y-23850D03*
G01X38400Y-25350D03*
G01X35400Y-25350D03*
G01X35400Y-23850D03*
G01X38400Y-23850D03*
G01X42500Y-750D03*
G01X39500Y-750D03*
G01X39500Y750D03*
G01X42500Y750D03*
G01X46600Y-750D03*
G01X43600Y-750D03*
G01X43600Y750D03*
G01X46600Y750D03*
G01X50700Y-750D03*
G01X47700Y-750D03*
G01X47700Y750D03*
G01X50700Y750D03*
G01X54800Y-750D03*
G01X51800Y-750D03*
G01X51800Y750D03*
G01X54800Y750D03*
G01X58900Y-750D03*
G01X55900Y-750D03*
G01X55900Y750D03*
G01X58900Y750D03*
G01X42500Y-4850D03*
G01X39500Y-4850D03*
G01X39500Y-3350D03*
G01X42500Y-3350D03*
G01X46600Y-4850D03*
G01X43600Y-4850D03*
G01X43600Y-3350D03*
G01X46600Y-3350D03*
G01X50700Y-4850D03*
G01X47700Y-4850D03*
G01X47700Y-3350D03*
G01X50700Y-3350D03*
G01X54800Y-4850D03*
G01X51800Y-4850D03*
G01X51800Y-3350D03*
G01X54800Y-3350D03*
G01X58900Y-4850D03*
G01X55900Y-4850D03*
G01X55900Y-3350D03*
G01X58900Y-3350D03*
G01X42500Y-8950D03*
G01X39500Y-8950D03*
G01X39500Y-7450D03*
G01X42500Y-7450D03*
G01X46600Y-8950D03*
G01X43600Y-8950D03*
G01X43600Y-7450D03*
G01X46600Y-7450D03*
G01X50700Y-8950D03*
G01X47700Y-8950D03*
G01X47700Y-7450D03*
G01X50700Y-7450D03*
G01X54800Y-8950D03*
G01X51800Y-8950D03*
G01X51800Y-7450D03*
G01X54800Y-7450D03*
G01X58900Y-8950D03*
G01X55900Y-8950D03*
G01X55900Y-7450D03*
G01X58900Y-7450D03*
G01X42500Y-13050D03*
G01X39500Y-13050D03*
G01X39500Y-11550D03*
G01X42500Y-11550D03*
G01X46600Y-13050D03*
G01X43600Y-13050D03*
G01X43600Y-11550D03*
G01X46600Y-11550D03*
G01X50700Y-13050D03*
G01X47700Y-13050D03*
G01X47700Y-11550D03*
G01X50700Y-11550D03*
G01X54800Y-13050D03*
G01X51800Y-13050D03*
G01X51800Y-11550D03*
G01X54800Y-11550D03*
G01X58900Y-13050D03*
G01X55900Y-13050D03*
G01X55900Y-11550D03*
G01X58900Y-11550D03*
G01X42500Y-17150D03*
G01X39500Y-17150D03*
G01X39500Y-15650D03*
G01X42500Y-15650D03*
G01X46600Y-17150D03*
G01X43600Y-17150D03*
G01X43600Y-15650D03*
G01X46600Y-15650D03*
G01X50700Y-17150D03*
G01X47700Y-17150D03*
G01X47700Y-15650D03*
G01X50700Y-15650D03*
G01X54800Y-17150D03*
G01X51800Y-17150D03*
G01X51800Y-15650D03*
G01X54800Y-15650D03*
G01X58900Y-17150D03*
G01X55900Y-17150D03*
G01X55900Y-15650D03*
G01X58900Y-15650D03*
G01X42500Y-21250D03*
G01X39500Y-21250D03*
G01X39500Y-19750D03*
G01X42500Y-19750D03*
G01X46600Y-21250D03*
G01X43600Y-21250D03*
G01X43600Y-19750D03*
G01X46600Y-19750D03*
G01X50700Y-21250D03*
G01X47700Y-21250D03*
G01X47700Y-19750D03*
G01X50700Y-19750D03*
G01X54800Y-21250D03*
G01X51800Y-21250D03*
G01X51800Y-19750D03*
G01X54800Y-19750D03*
G01X58900Y-21250D03*
G01X55900Y-21250D03*
G01X55900Y-19750D03*
G01X58900Y-19750D03*
G01X42500Y-25350D03*
G01X39500Y-25350D03*
G01X39500Y-23850D03*
G01X42500Y-23850D03*
G01X46600Y-25350D03*
G01X43600Y-25350D03*
G01X43600Y-23850D03*
G01X46600Y-23850D03*
G01X50700Y-25350D03*
G01X47700Y-25350D03*
G01X47700Y-23850D03*
G01X50700Y-23850D03*
G01X54800Y-25350D03*
G01X51800Y-25350D03*
G01X51800Y-23850D03*
G01X54800Y-23850D03*
G01X58900Y-25350D03*
G01X55900Y-25350D03*
G01X55900Y-23850D03*
G01X58900Y-23850D03*
G04 Pad End*

M02*
