G04*
G04 #@! TF.GenerationSoftware,Altium Limited,Altium Designer,22.7.1 (60)*
G04*
G04 Layer_Physical_Order=2*
G04 Layer_Color=16711680*
%FSLAX25Y25*%
%MOIN*%
G70*
G04*
G04 #@! TF.SameCoordinates,3EC980D0-7658-4EA3-A3E4-A41FBE6F1EC8*
G04*
G04*
G04 #@! TF.FilePolarity,Positive*
G04*
G01*
G75*
%ADD16C,0.01000*%
%ADD17C,0.01200*%
%ADD18C,0.05906*%
%ADD19R,0.07087X0.07087*%
%ADD20C,0.07087*%
%ADD21C,0.06299*%
%ADD22R,0.06299X0.06299*%
%ADD23C,0.01575*%
%ADD24O,0.05709X0.04528*%
%ADD25R,0.04134X0.02559*%
%ADD26R,0.03937X0.03937*%
%ADD27R,0.03937X0.03937*%
%ADD28R,0.05906X0.01181*%
%ADD29R,0.10906X0.25197*%
%ADD30R,0.02559X0.04134*%
%ADD31R,0.02362X0.04331*%
%ADD32O,0.04528X0.05709*%
%ADD33C,0.03000*%
%ADD34C,0.02500*%
%ADD35C,0.02000*%
G36*
X39000Y133500D02*
Y124500D01*
X38000Y123500D01*
X25000Y123500D01*
X24000Y124500D01*
Y133500D01*
X25500Y135000D01*
X37500Y135000D01*
X39000Y133500D01*
D02*
G37*
G36*
X178000Y143000D02*
Y123500D01*
X176000Y121500D01*
X171500D01*
X169743Y123257D01*
Y136257D01*
X166000Y140000D01*
X97500D01*
X96500Y139000D01*
Y124500D01*
X94500Y122500D01*
X91000D01*
X87500Y126000D01*
Y140500D01*
X93000Y146000D01*
X175000D01*
X178000Y143000D01*
D02*
G37*
G36*
X39000Y114000D02*
Y105000D01*
X38000Y104000D01*
X25000Y104000D01*
X24000Y105000D01*
Y114000D01*
X25500Y115500D01*
X37500Y115500D01*
X39000Y114000D01*
D02*
G37*
G36*
Y94000D02*
Y85000D01*
X38000Y84000D01*
X25000Y84000D01*
X24000Y85000D01*
Y94000D01*
X25500Y95500D01*
X37500Y95500D01*
X39000Y94000D01*
D02*
G37*
G36*
X139500Y99500D02*
Y78500D01*
X137000Y76000D01*
X128159D01*
X125500Y78659D01*
Y79500D01*
Y91000D01*
X126000Y91500D01*
X131500D01*
X134000Y94000D01*
Y99500D01*
X135000Y100500D01*
X138500D01*
X139500Y99500D01*
D02*
G37*
G36*
X39000Y74000D02*
Y65000D01*
X38000Y64000D01*
X25000Y64000D01*
X24000Y65000D01*
Y74000D01*
X25500Y75500D01*
X37500Y75500D01*
X39000Y74000D01*
D02*
G37*
G36*
Y54000D02*
Y45000D01*
X38000Y44000D01*
X25000Y44000D01*
X24000Y45000D01*
Y54000D01*
X25500Y55500D01*
X37500Y55500D01*
X39000Y54000D01*
D02*
G37*
G36*
Y34000D02*
Y25000D01*
X38000Y24000D01*
X25000Y24000D01*
X24000Y25000D01*
Y34000D01*
X25500Y35500D01*
X37500Y35500D01*
X39000Y34000D01*
D02*
G37*
G36*
Y14000D02*
Y5000D01*
X38000Y4000D01*
X25000Y4000D01*
X24000Y5000D01*
Y14000D01*
X25500Y15500D01*
X37500Y15500D01*
X39000Y14000D01*
D02*
G37*
D16*
X66500Y118500D02*
X72603Y112397D01*
X73390D01*
X73500Y112287D01*
X66500Y118500D02*
Y136500D01*
X204500Y82858D02*
X205000Y83358D01*
X204500Y70500D02*
Y82858D01*
X165024Y68317D02*
X202317D01*
X204500Y70500D01*
X188845Y74500D02*
Y82845D01*
X189000Y75000D02*
X189500Y74500D01*
X114769Y88731D02*
X116500Y87000D01*
Y77000D02*
Y87000D01*
Y77000D02*
X117451Y76049D01*
X121050D02*
X121083Y76016D01*
X117451Y76049D02*
X121050D01*
X128457Y73457D02*
X128500Y73500D01*
X101500Y74221D02*
X102425D01*
X158000Y101000D02*
X165358D01*
X155000Y101000D02*
X158000D01*
X165500Y96564D02*
Y101000D01*
X137500Y118500D02*
X155000Y101000D01*
X137500Y118500D02*
Y127914D01*
X149500Y77500D02*
Y101500D01*
X127500Y123500D02*
X149500Y101500D01*
X59000Y139500D02*
X63500D01*
X66500Y136500D01*
X36220Y21000D02*
X48000D01*
X33279Y20078D02*
X33955Y20753D01*
X35973D01*
X36220Y21000D01*
Y41000D02*
X48000D01*
X35973Y40753D02*
X36220Y41000D01*
X33279Y40078D02*
X33955Y40753D01*
X35973D01*
X32578Y60078D02*
X32929Y60429D01*
X35612Y60865D02*
X47780D01*
X34747Y60000D02*
X35612Y60865D01*
X33500Y60000D02*
X34747D01*
X35612Y80865D02*
X47780D01*
X34747Y80000D02*
X35612Y80865D01*
X33500Y80000D02*
X34747D01*
X35612Y100865D02*
X47780D01*
X35247Y100500D02*
X35612Y100865D01*
X34000Y100500D02*
X35247D01*
X35973Y120753D02*
X36220Y121000D01*
X47500D01*
X33280Y120078D02*
X33955Y120753D01*
X35973D01*
X32740Y139740D02*
X33000Y140000D01*
X35940Y140500D02*
X47500D01*
X33000Y139740D02*
X33675Y140415D01*
X35855D01*
X35940Y140500D01*
X51710Y12000D02*
X57500D01*
X51520Y11810D02*
X51710Y12000D01*
X51520Y31810D02*
X57810D01*
X58000Y32000D01*
X58690Y51810D02*
X59000Y51500D01*
X51520Y51810D02*
X58690D01*
X51520Y71810D02*
X56310D01*
X56500Y72000D01*
X57310Y91810D02*
X57500Y92000D01*
X51520Y91810D02*
X57310D01*
X57310Y111810D02*
X57500Y112000D01*
X51520Y111810D02*
X57310D01*
X51520Y131472D02*
X56349D01*
X57376Y132500D01*
X58000D01*
X26028Y120078D02*
X33280D01*
X26028Y100078D02*
X32422D01*
X32500Y100000D01*
X33279Y80078D02*
X33422D01*
X26028D02*
X33279D01*
X33422D02*
X33500Y80000D01*
X26028Y60078D02*
X32578D01*
X26028Y40078D02*
X32922D01*
X33000Y40000D01*
X26028Y20078D02*
X33279D01*
X26028Y139740D02*
X32740D01*
X121083Y78575D02*
Y97417D01*
X120858Y97000D02*
Y116142D01*
X119500Y117500D02*
X120858Y116142D01*
X110500Y96142D02*
Y113000D01*
X123000Y125500D01*
X144500Y84500D02*
Y97000D01*
X102500Y126000D02*
X103000Y125500D01*
Y87500D02*
Y125500D01*
X114080Y68326D02*
X114093Y68339D01*
X121083D01*
X127392Y131108D02*
X134307D01*
X123000Y135500D02*
X127392Y131108D01*
X125063Y130437D02*
X127500Y128000D01*
X123000Y130437D02*
X125063D01*
X127500Y123500D02*
Y128000D01*
X134307Y131108D02*
X137500Y127914D01*
X165500Y96564D02*
X168564Y93500D01*
X171500D01*
Y93505D02*
X173528D01*
X112677Y125984D02*
X117193Y130500D01*
X123000D01*
X148016Y76016D02*
X149500Y77500D01*
X143917Y76016D02*
X148016D01*
X105500Y90500D02*
Y107500D01*
X106864Y89136D02*
X110222D01*
X105500Y90500D02*
X106864Y89136D01*
X110222D02*
X110500Y88858D01*
X105500Y107500D02*
X108224Y110224D01*
X110500Y88858D02*
X110627Y88731D01*
X108224Y131724D02*
X112500Y136000D01*
X108224Y110224D02*
Y131724D01*
X189500Y74500D02*
X196626D01*
X110627Y88731D02*
X114769D01*
X143917Y73457D02*
X148957D01*
X149000Y73500D01*
X143917Y78575D02*
Y83917D01*
X144500Y84500D01*
X189000Y74500D02*
X189500D01*
X189000Y74500D02*
X189000Y74500D01*
X173133Y83367D02*
X173500Y83000D01*
X165500Y83367D02*
X173133D01*
X165500Y74500D02*
Y83000D01*
X165500Y83000D02*
X165500Y83000D01*
X181000Y83500D02*
X181133Y83367D01*
X188845D01*
Y82845D02*
X189000Y83000D01*
D17*
X210142Y7142D02*
Y15969D01*
X158132Y67980D02*
X210142Y15969D01*
X143917Y68339D02*
X157536D01*
X157895Y67980D01*
X158132D01*
X143917Y65780D02*
X157220D01*
X200204Y16796D02*
Y22796D01*
X157220Y65780D02*
X200204Y22796D01*
X113550Y73667D02*
X116320Y70898D01*
X121083D01*
X110833Y73667D02*
X113550D01*
X110500Y74000D02*
X110833Y73667D01*
X121083Y73457D02*
X128457D01*
X143917Y70898D02*
X149325D01*
X110142Y51000D02*
X114685Y55543D01*
X121083D01*
X115000Y51500D02*
X116484Y52984D01*
X121083D01*
X90142Y39142D02*
X111661Y60661D01*
X121083D01*
X110721Y63221D02*
X121083D01*
X80000Y32500D02*
X110721Y63221D01*
X114000Y76328D02*
X116872Y73457D01*
X121083D01*
X110500Y82000D02*
X113414D01*
X190142Y15732D02*
Y26888D01*
X153810Y63221D02*
X190142Y26888D01*
X143917Y63221D02*
X153810D01*
X143571Y60571D02*
X151929D01*
X180142Y15732D02*
Y32358D01*
X151929Y60571D02*
X180142Y32358D01*
X170142Y34500D02*
Y38858D01*
X150898Y58102D02*
X170142Y38858D01*
X143917Y58102D02*
X150898D01*
X160142Y30500D02*
Y45358D01*
X143917Y55543D02*
X149957D01*
X160142Y45358D01*
X130500Y16500D02*
Y46186D01*
X126261Y50425D02*
X130500Y46186D01*
X121083Y50425D02*
X126261D01*
X70000Y16000D02*
Y26000D01*
X109780Y65780D01*
X121083D01*
X80000Y15500D02*
Y32500D01*
X90142Y15732D02*
Y39142D01*
X100142Y45642D02*
X112602Y58102D01*
X121083D01*
X100142Y15732D02*
Y45642D01*
X140142Y15732D02*
Y49749D01*
X143827Y50335D02*
X143917Y50425D01*
X140728Y50335D02*
X143827D01*
X140142Y49749D02*
X140728Y50335D01*
X140142Y7358D02*
Y15732D01*
X150142Y7642D02*
Y15732D01*
X143917Y52984D02*
X148658D01*
X150142Y15732D02*
Y51500D01*
X148658Y52984D02*
X150142Y51500D01*
X115000Y20875D02*
Y51500D01*
Y20875D02*
X120142Y15732D01*
X160142D02*
Y30500D01*
X170142Y8037D02*
Y15732D01*
Y34500D01*
X200204Y16796D02*
X201000Y16000D01*
X110142Y15732D02*
Y51000D01*
Y8142D02*
Y15732D01*
X210000Y7000D02*
X210142Y7142D01*
X199500Y6500D02*
X200142Y7142D01*
Y15732D01*
X190142Y5732D02*
Y15732D01*
Y4642D02*
Y5732D01*
X190000Y4500D02*
X190142Y4642D01*
X180187Y15687D02*
X180500Y15374D01*
X180142Y15732D02*
X180187Y15687D01*
X180500Y5000D02*
Y15374D01*
X160142Y6858D02*
Y15732D01*
Y6858D02*
X160500Y6500D01*
X149000D02*
X150142Y7642D01*
X140142Y7358D02*
X140500Y7000D01*
X120000D02*
Y15590D01*
X130142Y6358D02*
X130500Y6000D01*
X130142Y6358D02*
Y15732D01*
X109000Y7000D02*
X110142Y8142D01*
X100142Y6358D02*
X101000Y5500D01*
X100142Y6358D02*
Y15732D01*
X90142Y5858D02*
X91000Y5000D01*
X90142Y5858D02*
Y15732D01*
X80142Y6358D02*
X80500Y6000D01*
X80142Y6358D02*
Y15732D01*
X70142Y5858D02*
X70500Y5500D01*
X70142Y5858D02*
Y15732D01*
X114000Y76328D02*
Y81414D01*
X113414Y82000D02*
X114000Y81414D01*
D18*
X82677Y125984D02*
D03*
X82677Y135984D02*
D03*
X92677Y125984D02*
D03*
Y135984D02*
D03*
X102677Y125984D02*
D03*
X102677Y135984D02*
D03*
X112677Y125984D02*
D03*
X112677Y135984D02*
D03*
X122677Y125984D02*
D03*
Y135984D02*
D03*
X132677Y125984D02*
D03*
X132677Y135984D02*
D03*
X142677Y125984D02*
D03*
X142677Y135984D02*
D03*
X152677Y125984D02*
D03*
X152677Y135984D02*
D03*
X162677Y125984D02*
D03*
X162677Y135984D02*
D03*
X172677Y125984D02*
D03*
X172677Y135984D02*
D03*
X182677Y125984D02*
D03*
Y135984D02*
D03*
D19*
X6780Y136232D02*
D03*
D20*
X6780Y126232D02*
D03*
X6780Y116232D02*
D03*
Y106232D02*
D03*
Y96232D02*
D03*
Y86232D02*
D03*
X6780Y76232D02*
D03*
X6780Y66232D02*
D03*
Y56232D02*
D03*
Y46232D02*
D03*
Y36232D02*
D03*
Y26232D02*
D03*
Y16232D02*
D03*
Y6232D02*
D03*
D21*
X210142Y5732D02*
D03*
X200142D02*
D03*
X160142D02*
D03*
X150142D02*
D03*
X140142D02*
D03*
X130142D02*
D03*
X120142D02*
D03*
X110142D02*
D03*
X100142D02*
D03*
X90142D02*
D03*
X80142D02*
D03*
X190142D02*
D03*
X180142D02*
D03*
X170142D02*
D03*
X210142Y15732D02*
D03*
X200142D02*
D03*
X190142D02*
D03*
X180142D02*
D03*
X170142D02*
D03*
X160142D02*
D03*
X150142D02*
D03*
X140142D02*
D03*
X130142D02*
D03*
X120142D02*
D03*
X110142D02*
D03*
X100142D02*
D03*
X90142D02*
D03*
X80142D02*
D03*
D22*
X70142Y5732D02*
D03*
Y15732D02*
D03*
D23*
X73500Y112287D02*
D03*
X137000Y66000D02*
D03*
X128000D02*
D03*
X137000Y59500D02*
D03*
X128000D02*
D03*
X137000Y53000D02*
D03*
X128000D02*
D03*
X177353Y83143D02*
D03*
X182000Y74500D02*
D03*
X172500D02*
D03*
X165000Y68323D02*
D03*
X189000Y101000D02*
D03*
X149358Y70911D02*
D03*
X44000Y12000D02*
D03*
Y31500D02*
D03*
Y51500D02*
D03*
Y71500D02*
D03*
Y92000D02*
D03*
Y111500D02*
D03*
Y131500D02*
D03*
X26000Y6000D02*
D03*
X31000D02*
D03*
X36000D02*
D03*
X26000Y26000D02*
D03*
X31000D02*
D03*
X36000D02*
D03*
X26000Y46000D02*
D03*
X31000D02*
D03*
X36000D02*
D03*
X26000Y66000D02*
D03*
X31000D02*
D03*
X36000D02*
D03*
X26000Y86000D02*
D03*
X31000D02*
D03*
X36000D02*
D03*
X26000Y106000D02*
D03*
X31000D02*
D03*
X36000D02*
D03*
Y125500D02*
D03*
X31000D02*
D03*
X26000D02*
D03*
X119500Y117500D02*
D03*
X144500Y97000D02*
D03*
X128500D02*
D03*
X103000Y87500D02*
D03*
X94000Y66500D02*
D03*
X114080Y68326D02*
D03*
X59000Y19500D02*
D03*
Y40000D02*
D03*
Y59500D02*
D03*
Y79500D02*
D03*
Y99500D02*
D03*
X58500Y119000D02*
D03*
X149000Y73500D02*
D03*
D24*
X58780Y12091D02*
D03*
Y19374D02*
D03*
Y39374D02*
D03*
Y32091D02*
D03*
Y52091D02*
D03*
Y59374D02*
D03*
Y79374D02*
D03*
Y72091D02*
D03*
Y92091D02*
D03*
Y99374D02*
D03*
Y119374D02*
D03*
X58780Y112091D02*
D03*
X33279Y32794D02*
D03*
Y40078D02*
D03*
Y60078D02*
D03*
Y52794D02*
D03*
Y72795D02*
D03*
Y80078D02*
D03*
Y100078D02*
D03*
Y92795D02*
D03*
X58780Y132358D02*
D03*
X58780Y139641D02*
D03*
X33279Y12795D02*
D03*
Y20078D02*
D03*
X33280Y120078D02*
D03*
X33279Y112794D02*
D03*
X33000Y139740D02*
D03*
Y132457D02*
D03*
X110500Y88858D02*
D03*
Y96142D02*
D03*
X165500Y90650D02*
D03*
Y83367D02*
D03*
X188845Y90650D02*
D03*
Y83367D02*
D03*
X94000Y66358D02*
D03*
Y73642D02*
D03*
X205000Y90642D02*
D03*
X205000Y83358D02*
D03*
D25*
X16972Y36338D02*
D03*
X26028Y32598D02*
D03*
Y40078D02*
D03*
Y60078D02*
D03*
Y52598D02*
D03*
X16972Y56338D02*
D03*
X26028Y100078D02*
D03*
X26028Y92598D02*
D03*
X16972Y96338D02*
D03*
Y76338D02*
D03*
X26028Y72598D02*
D03*
X26028Y80078D02*
D03*
X16972Y116338D02*
D03*
X26028Y112598D02*
D03*
Y120078D02*
D03*
X16972Y16338D02*
D03*
X26028Y12598D02*
D03*
Y20078D02*
D03*
X26028Y139740D02*
D03*
Y132260D02*
D03*
X16972Y136000D02*
D03*
D26*
X102000Y73843D02*
D03*
Y81717D02*
D03*
X110268D02*
D03*
X110268Y73843D02*
D03*
D27*
X204500Y74500D02*
D03*
X196626Y74500D02*
D03*
X136563Y97000D02*
D03*
X144437D02*
D03*
X136563Y88000D02*
D03*
X144437Y88000D02*
D03*
X188882Y101000D02*
D03*
X181008Y101000D02*
D03*
D28*
X121083Y78575D02*
D03*
X121083Y76016D02*
D03*
X121083Y73457D02*
D03*
X121083Y70898D02*
D03*
X121083Y68339D02*
D03*
X121083Y65780D02*
D03*
X121083Y63221D02*
D03*
X121083Y60661D02*
D03*
X121083Y58102D02*
D03*
X121083Y55543D02*
D03*
X121083Y52984D02*
D03*
X121083Y50425D02*
D03*
X143917D02*
D03*
X143917Y52984D02*
D03*
X143917Y55543D02*
D03*
X143917Y58102D02*
D03*
X143917Y60661D02*
D03*
X143917Y63221D02*
D03*
X143917Y65780D02*
D03*
X143917Y70898D02*
D03*
Y73457D02*
D03*
Y76016D02*
D03*
X143917Y78575D02*
D03*
X143917Y68339D02*
D03*
D29*
X132500Y64500D02*
D03*
D30*
X47780Y60865D02*
D03*
X44039Y51810D02*
D03*
X51520D02*
D03*
Y31810D02*
D03*
X44039D02*
D03*
X47780Y40865D02*
D03*
Y20865D02*
D03*
X44039Y11810D02*
D03*
X51520D02*
D03*
Y131472D02*
D03*
X44039D02*
D03*
X47780Y140527D02*
D03*
X47780Y100865D02*
D03*
X44039Y91810D02*
D03*
X51520Y91810D02*
D03*
Y71810D02*
D03*
X44039Y71810D02*
D03*
X47780Y80865D02*
D03*
X51520Y111810D02*
D03*
X44039D02*
D03*
X47780Y120865D02*
D03*
D31*
X173528Y93505D02*
D03*
X173528Y83268D02*
D03*
X177268D02*
D03*
X181008Y83268D02*
D03*
Y93505D02*
D03*
D32*
X120858Y97000D02*
D03*
X128142Y97000D02*
D03*
X128142Y88500D02*
D03*
X120858D02*
D03*
X165500Y74500D02*
D03*
X172783Y74500D02*
D03*
X181562Y74500D02*
D03*
X188845Y74500D02*
D03*
X172642Y101000D02*
D03*
X165358Y101000D02*
D03*
D33*
X102500Y81717D02*
X110268D01*
X97309D02*
X102500D01*
X92677Y86348D02*
X97309Y81717D01*
X92677Y125984D02*
Y135984D01*
Y86348D02*
Y125984D01*
X6000Y116500D02*
X6162Y116338D01*
D34*
X82677Y78323D02*
Y125984D01*
Y135984D02*
X83329Y136636D01*
X82677Y125984D02*
Y135984D01*
X182026Y137557D02*
X183083Y136500D01*
X183500D01*
X182677Y125984D02*
Y135984D01*
Y119823D02*
Y125984D01*
X205000Y91000D02*
Y97500D01*
X182677Y119823D02*
X205000Y97500D01*
X102925Y74000D02*
X110500D01*
X102768Y73843D02*
X102925Y74000D01*
X87358Y73642D02*
X94000D01*
X82677Y78323D02*
X87358Y73642D01*
X94000D02*
X94201Y73843D01*
X102768D01*
X32902Y12598D02*
X33000Y12500D01*
X26028Y32598D02*
X33902D01*
X26028Y112598D02*
X33402D01*
X32902Y72598D02*
X33000Y72500D01*
X32902Y92598D02*
X33000Y92500D01*
X26028Y52598D02*
X33598D01*
X32740Y132260D02*
X33000Y132000D01*
X26028Y12598D02*
X32902D01*
X33902Y32598D02*
X34000Y32500D01*
X33598Y52598D02*
X34000Y53000D01*
X26028Y72598D02*
X32902D01*
X26028Y92598D02*
X32902D01*
X33402Y112598D02*
X33500Y112500D01*
X26028Y132260D02*
X32740D01*
X6500Y136000D02*
X16972D01*
X16972Y136000D01*
X6662Y116338D02*
X16972D01*
X6500Y116500D02*
X6662Y116338D01*
X7500Y17000D02*
X8162Y16338D01*
X16972D01*
X6885Y36338D02*
X16972D01*
X6162Y56338D02*
X16972D01*
X6000Y56500D02*
X6162Y56338D01*
X6500Y77000D02*
X7162Y76338D01*
X16972D01*
X6338Y96338D02*
X16972D01*
X5500Y95500D02*
X6338Y96338D01*
D35*
X172642Y101000D02*
X175000D01*
X167630Y120370D02*
Y131032D01*
X172642Y101000D02*
Y115358D01*
X167630Y120370D02*
X172642Y115358D01*
X175000Y101000D02*
X176604D01*
X171518Y89339D02*
X175537D01*
X165500Y90650D02*
X170207D01*
X171518Y89339D01*
X175537D02*
X177000Y90802D01*
Y100500D01*
X176604Y101000D02*
X181000D01*
X188324Y91000D02*
X189000D01*
X181008Y93505D02*
X185819D01*
X188324Y91000D01*
X181008Y93505D02*
X181189Y93324D01*
X181008Y93508D02*
Y101000D01*
X181000Y101000D02*
X181000Y101000D01*
X162677Y135984D02*
X167630Y131032D01*
M02*
