G04*
G04 #@! TF.GenerationSoftware,Altium Limited,Altium Designer,22.7.1 (60)*
G04*
G04 Layer_Color=255*
%FSLAX25Y25*%
%MOIN*%
G70*
G04*
G04 #@! TF.SameCoordinates,3EC980D0-7658-4EA3-A3E4-A41FBE6F1EC8*
G04*
G04*
G04 #@! TF.FilePolarity,Positive*
G04*
G01*
G75*
%ADD18C,0.05906*%
%ADD19R,0.07087X0.07087*%
%ADD20C,0.07087*%
%ADD21C,0.06299*%
%ADD22R,0.06299X0.06299*%
D18*
X82677Y125984D02*
D03*
X82677Y135984D02*
D03*
X92677Y125984D02*
D03*
Y135984D02*
D03*
X102677Y125984D02*
D03*
X102677Y135984D02*
D03*
X112677Y125984D02*
D03*
X112677Y135984D02*
D03*
X122677Y125984D02*
D03*
Y135984D02*
D03*
X132677Y125984D02*
D03*
X132677Y135984D02*
D03*
X142677Y125984D02*
D03*
X142677Y135984D02*
D03*
X152677Y125984D02*
D03*
X152677Y135984D02*
D03*
X162677Y125984D02*
D03*
X162677Y135984D02*
D03*
X172677Y125984D02*
D03*
X172677Y135984D02*
D03*
X182677Y125984D02*
D03*
Y135984D02*
D03*
D19*
X6780Y136232D02*
D03*
D20*
X6780Y126232D02*
D03*
X6780Y116232D02*
D03*
Y106232D02*
D03*
Y96232D02*
D03*
Y86232D02*
D03*
X6780Y76232D02*
D03*
X6780Y66232D02*
D03*
Y56232D02*
D03*
Y46232D02*
D03*
Y36232D02*
D03*
Y26232D02*
D03*
Y16232D02*
D03*
Y6232D02*
D03*
D21*
X210142Y5732D02*
D03*
X200142D02*
D03*
X160142D02*
D03*
X150142D02*
D03*
X140142D02*
D03*
X130142D02*
D03*
X120142D02*
D03*
X110142D02*
D03*
X100142D02*
D03*
X90142D02*
D03*
X80142D02*
D03*
X190142D02*
D03*
X180142D02*
D03*
X170142D02*
D03*
X210142Y15732D02*
D03*
X200142D02*
D03*
X190142D02*
D03*
X180142D02*
D03*
X170142D02*
D03*
X160142D02*
D03*
X150142D02*
D03*
X140142D02*
D03*
X130142D02*
D03*
X120142D02*
D03*
X110142D02*
D03*
X100142D02*
D03*
X90142D02*
D03*
X80142D02*
D03*
D22*
X70142Y5732D02*
D03*
Y15732D02*
D03*
M02*
