G04*
G04 #@! TF.GenerationSoftware,Altium Limited,Altium Designer,22.7.1 (60)*
G04*
G04 Layer_Color=65535*
%FSLAX25Y25*%
%MOIN*%
G70*
G04*
G04 #@! TF.SameCoordinates,3EC980D0-7658-4EA3-A3E4-A41FBE6F1EC8*
G04*
G04*
G04 #@! TF.FilePolarity,Positive*
G04*
G01*
G75*
%ADD10C,0.00787*%
G36*
X17502Y137226D02*
X17498Y137181D01*
Y137135D01*
X17494Y137081D01*
X17490Y137019D01*
X17477Y136894D01*
X17456Y136765D01*
X17431Y136640D01*
X17415Y136586D01*
X17398Y136532D01*
Y136528D01*
X17394Y136519D01*
X17386Y136507D01*
X17377Y136486D01*
X17352Y136436D01*
X17315Y136378D01*
X17265Y136307D01*
X17198Y136236D01*
X17123Y136166D01*
X17032Y136103D01*
X17028D01*
X17019Y136095D01*
X17007Y136087D01*
X16986Y136078D01*
X16961Y136066D01*
X16932Y136053D01*
X16899Y136037D01*
X16861Y136020D01*
X16774Y135991D01*
X16678Y135966D01*
X16570Y135949D01*
X16454Y135941D01*
X16450D01*
X16437D01*
X16412D01*
X16387Y135945D01*
X16350Y135949D01*
X16308Y135953D01*
X16262Y135962D01*
X16213Y135974D01*
X16104Y136008D01*
X16046Y136028D01*
X15988Y136053D01*
X15930Y136082D01*
X15871Y136120D01*
X15817Y136162D01*
X15763Y136207D01*
X15759Y136212D01*
X15751Y136220D01*
X15738Y136236D01*
X15717Y136257D01*
X15697Y136286D01*
X15672Y136320D01*
X15643Y136361D01*
X15613Y136411D01*
X15584Y136465D01*
X15555Y136523D01*
X15526Y136590D01*
X15497Y136665D01*
X15472Y136744D01*
X15447Y136831D01*
X15426Y136927D01*
X15410Y137027D01*
Y137023D01*
X15405Y137019D01*
X15393Y136994D01*
X15372Y136956D01*
X15347Y136910D01*
X15318Y136860D01*
X15289Y136811D01*
X15251Y136761D01*
X15218Y136719D01*
X15214Y136715D01*
X15210Y136711D01*
X15198Y136698D01*
X15181Y136681D01*
X15160Y136661D01*
X15135Y136636D01*
X15077Y136582D01*
X15002Y136519D01*
X14915Y136449D01*
X14815Y136374D01*
X14707Y136299D01*
X13662Y135633D01*
Y136270D01*
X14461Y136777D01*
X14465Y136781D01*
X14478Y136785D01*
X14494Y136798D01*
X14519Y136815D01*
X14548Y136831D01*
X14582Y136856D01*
X14657Y136906D01*
X14744Y136964D01*
X14831Y137023D01*
X14915Y137085D01*
X14989Y137143D01*
X14994D01*
X14998Y137152D01*
X15019Y137168D01*
X15052Y137193D01*
X15089Y137231D01*
X15131Y137268D01*
X15172Y137314D01*
X15214Y137360D01*
X15243Y137401D01*
X15247Y137405D01*
X15256Y137422D01*
X15268Y137443D01*
X15285Y137472D01*
X15301Y137509D01*
X15318Y137547D01*
X15335Y137588D01*
X15347Y137634D01*
Y137638D01*
X15351Y137651D01*
X15356Y137672D01*
X15360Y137701D01*
Y137742D01*
X15364Y137792D01*
X15368Y137850D01*
Y138504D01*
X13662D01*
Y139011D01*
X17502D01*
Y137226D01*
D02*
G37*
G36*
X15667Y135329D02*
X15726D01*
X15792Y135325D01*
X15867Y135321D01*
X15946Y135317D01*
X16034Y135309D01*
X16121Y135300D01*
X16304Y135275D01*
X16483Y135242D01*
X16570Y135221D01*
X16649Y135196D01*
X16654D01*
X16666Y135188D01*
X16691Y135180D01*
X16720Y135171D01*
X16753Y135155D01*
X16795Y135138D01*
X16837Y135117D01*
X16886Y135092D01*
X16990Y135034D01*
X17094Y134959D01*
X17198Y134876D01*
X17244Y134830D01*
X17290Y134780D01*
X17294Y134776D01*
X17298Y134768D01*
X17311Y134751D01*
X17323Y134731D01*
X17344Y134705D01*
X17361Y134672D01*
X17381Y134635D01*
X17402Y134589D01*
X17423Y134543D01*
X17444Y134489D01*
X17465Y134431D01*
X17481Y134373D01*
X17494Y134306D01*
X17506Y134236D01*
X17510Y134161D01*
X17515Y134086D01*
Y134036D01*
X17510Y134007D01*
X17506Y133977D01*
X17498Y133903D01*
X17485Y133819D01*
X17460Y133728D01*
X17431Y133636D01*
X17390Y133545D01*
Y133541D01*
X17386Y133532D01*
X17377Y133520D01*
X17365Y133503D01*
X17340Y133462D01*
X17298Y133408D01*
X17248Y133345D01*
X17186Y133283D01*
X17111Y133216D01*
X17028Y133158D01*
X17024D01*
X17015Y133150D01*
X17003Y133146D01*
X16986Y133133D01*
X16965Y133121D01*
X16936Y133104D01*
X16903Y133091D01*
X16870Y133071D01*
X16787Y133033D01*
X16691Y132996D01*
X16579Y132954D01*
X16458Y132921D01*
X16454D01*
X16441Y132917D01*
X16425Y132913D01*
X16396Y132908D01*
X16362Y132900D01*
X16321Y132892D01*
X16275Y132884D01*
X16221Y132875D01*
X16158Y132871D01*
X16092Y132863D01*
X16017Y132854D01*
X15938Y132846D01*
X15851Y132842D01*
X15759Y132838D01*
X15659Y132834D01*
X15555D01*
X15547D01*
X15526D01*
X15489D01*
X15443D01*
X15385Y132838D01*
X15322Y132842D01*
X15247Y132846D01*
X15168Y132850D01*
X15081Y132859D01*
X14994Y132867D01*
X14811Y132892D01*
X14632Y132929D01*
X14544Y132950D01*
X14465Y132975D01*
X14461D01*
X14449Y132983D01*
X14424Y132987D01*
X14399Y133000D01*
X14361Y133017D01*
X14324Y133033D01*
X14278Y133054D01*
X14228Y133079D01*
X14124Y133137D01*
X14020Y133208D01*
X13916Y133291D01*
X13870Y133341D01*
X13825Y133391D01*
X13821Y133395D01*
X13816Y133404D01*
X13804Y133420D01*
X13791Y133441D01*
X13775Y133466D01*
X13754Y133499D01*
X13733Y133537D01*
X13712Y133582D01*
X13691Y133628D01*
X13671Y133682D01*
X13654Y133736D01*
X13633Y133799D01*
X13621Y133865D01*
X13608Y133936D01*
X13604Y134007D01*
X13600Y134086D01*
Y134111D01*
X13604Y134140D01*
X13608Y134177D01*
X13612Y134223D01*
X13621Y134277D01*
X13633Y134335D01*
X13650Y134402D01*
X13671Y134468D01*
X13696Y134539D01*
X13729Y134614D01*
X13766Y134685D01*
X13812Y134756D01*
X13866Y134826D01*
X13925Y134893D01*
X13995Y134955D01*
X13999Y134959D01*
X14016Y134972D01*
X14045Y134988D01*
X14087Y135013D01*
X14141Y135043D01*
X14203Y135076D01*
X14282Y135109D01*
X14370Y135142D01*
X14474Y135180D01*
X14586Y135213D01*
X14715Y135246D01*
X14856Y135275D01*
X15010Y135300D01*
X15177Y135317D01*
X15360Y135329D01*
X15555Y135334D01*
X15563D01*
X15584D01*
X15622D01*
X15667Y135329D01*
D02*
G37*
G36*
X17440Y118227D02*
X17436Y118181D01*
Y118135D01*
X17431Y118081D01*
X17427Y118018D01*
X17415Y117894D01*
X17394Y117765D01*
X17369Y117640D01*
X17352Y117586D01*
X17336Y117532D01*
Y117528D01*
X17332Y117519D01*
X17323Y117507D01*
X17315Y117486D01*
X17290Y117436D01*
X17253Y117378D01*
X17203Y117307D01*
X17136Y117236D01*
X17061Y117166D01*
X16970Y117103D01*
X16965D01*
X16957Y117095D01*
X16945Y117087D01*
X16924Y117078D01*
X16899Y117066D01*
X16870Y117053D01*
X16837Y117037D01*
X16799Y117020D01*
X16712Y116991D01*
X16616Y116966D01*
X16508Y116949D01*
X16391Y116941D01*
X16387D01*
X16375D01*
X16350D01*
X16325Y116945D01*
X16287Y116949D01*
X16246Y116954D01*
X16200Y116962D01*
X16150Y116974D01*
X16042Y117008D01*
X15984Y117028D01*
X15925Y117053D01*
X15867Y117083D01*
X15809Y117120D01*
X15755Y117162D01*
X15701Y117207D01*
X15697Y117211D01*
X15688Y117220D01*
X15676Y117236D01*
X15655Y117257D01*
X15634Y117286D01*
X15609Y117320D01*
X15580Y117361D01*
X15551Y117411D01*
X15522Y117465D01*
X15493Y117524D01*
X15464Y117590D01*
X15435Y117665D01*
X15410Y117744D01*
X15385Y117831D01*
X15364Y117927D01*
X15347Y118027D01*
Y118023D01*
X15343Y118018D01*
X15331Y117994D01*
X15310Y117956D01*
X15285Y117910D01*
X15256Y117860D01*
X15227Y117810D01*
X15189Y117761D01*
X15156Y117719D01*
X15152Y117715D01*
X15147Y117711D01*
X15135Y117698D01*
X15118Y117682D01*
X15098Y117661D01*
X15073Y117636D01*
X15014Y117582D01*
X14940Y117519D01*
X14852Y117449D01*
X14752Y117374D01*
X14644Y117299D01*
X13600Y116633D01*
Y117270D01*
X14399Y117777D01*
X14403Y117781D01*
X14415Y117786D01*
X14432Y117798D01*
X14457Y117815D01*
X14486Y117831D01*
X14519Y117856D01*
X14594Y117906D01*
X14682Y117964D01*
X14769Y118023D01*
X14852Y118085D01*
X14927Y118143D01*
X14931D01*
X14935Y118152D01*
X14956Y118168D01*
X14989Y118193D01*
X15027Y118231D01*
X15068Y118268D01*
X15110Y118314D01*
X15152Y118360D01*
X15181Y118401D01*
X15185Y118405D01*
X15193Y118422D01*
X15206Y118443D01*
X15222Y118472D01*
X15239Y118509D01*
X15256Y118547D01*
X15272Y118588D01*
X15285Y118634D01*
Y118638D01*
X15289Y118651D01*
X15293Y118672D01*
X15297Y118701D01*
Y118742D01*
X15301Y118792D01*
X15306Y118851D01*
Y119504D01*
X13600D01*
Y120011D01*
X17440D01*
Y118227D01*
D02*
G37*
G36*
X16491Y115972D02*
X16495Y115959D01*
X16508Y115938D01*
X16520Y115909D01*
X16537Y115876D01*
X16562Y115834D01*
X16587Y115789D01*
X16612Y115743D01*
X16678Y115635D01*
X16758Y115518D01*
X16841Y115398D01*
X16936Y115285D01*
X16940Y115281D01*
X16949Y115273D01*
X16961Y115256D01*
X16982Y115235D01*
X17007Y115215D01*
X17032Y115185D01*
X17103Y115123D01*
X17178Y115052D01*
X17265Y114982D01*
X17357Y114919D01*
X17452Y114865D01*
Y114562D01*
X13600D01*
Y115032D01*
X16599D01*
X16591Y115040D01*
X16570Y115061D01*
X16541Y115098D01*
X16499Y115152D01*
X16450Y115215D01*
X16396Y115294D01*
X16337Y115381D01*
X16275Y115481D01*
Y115485D01*
X16267Y115493D01*
X16258Y115506D01*
X16250Y115527D01*
X16233Y115552D01*
X16221Y115581D01*
X16183Y115647D01*
X16146Y115722D01*
X16104Y115805D01*
X16067Y115893D01*
X16034Y115976D01*
X16487D01*
X16491Y115972D01*
D02*
G37*
G36*
X17440Y98490D02*
X17436Y98444D01*
Y98399D01*
X17431Y98344D01*
X17427Y98282D01*
X17415Y98157D01*
X17394Y98028D01*
X17369Y97904D01*
X17352Y97849D01*
X17336Y97795D01*
Y97791D01*
X17332Y97783D01*
X17323Y97770D01*
X17315Y97750D01*
X17290Y97700D01*
X17253Y97641D01*
X17203Y97571D01*
X17136Y97500D01*
X17061Y97429D01*
X16970Y97367D01*
X16965D01*
X16957Y97359D01*
X16945Y97350D01*
X16924Y97342D01*
X16899Y97329D01*
X16870Y97317D01*
X16837Y97300D01*
X16799Y97284D01*
X16712Y97255D01*
X16616Y97230D01*
X16508Y97213D01*
X16391Y97205D01*
X16387D01*
X16375D01*
X16350D01*
X16325Y97209D01*
X16287Y97213D01*
X16246Y97217D01*
X16200Y97225D01*
X16150Y97238D01*
X16042Y97271D01*
X15984Y97292D01*
X15925Y97317D01*
X15867Y97346D01*
X15809Y97383D01*
X15755Y97425D01*
X15701Y97471D01*
X15697Y97475D01*
X15688Y97483D01*
X15676Y97500D01*
X15655Y97521D01*
X15634Y97550D01*
X15609Y97583D01*
X15580Y97625D01*
X15551Y97675D01*
X15522Y97729D01*
X15493Y97787D01*
X15464Y97854D01*
X15435Y97928D01*
X15410Y98008D01*
X15385Y98095D01*
X15364Y98190D01*
X15347Y98290D01*
Y98286D01*
X15343Y98282D01*
X15331Y98257D01*
X15310Y98220D01*
X15285Y98174D01*
X15256Y98124D01*
X15227Y98074D01*
X15189Y98024D01*
X15156Y97983D01*
X15152Y97978D01*
X15147Y97974D01*
X15135Y97962D01*
X15118Y97945D01*
X15098Y97924D01*
X15073Y97899D01*
X15014Y97845D01*
X14940Y97783D01*
X14852Y97712D01*
X14752Y97637D01*
X14644Y97562D01*
X13600Y96897D01*
Y97533D01*
X14399Y98041D01*
X14403Y98045D01*
X14415Y98049D01*
X14432Y98062D01*
X14457Y98078D01*
X14486Y98095D01*
X14519Y98120D01*
X14594Y98170D01*
X14682Y98228D01*
X14769Y98286D01*
X14852Y98349D01*
X14927Y98407D01*
X14931D01*
X14935Y98415D01*
X14956Y98432D01*
X14989Y98457D01*
X15027Y98494D01*
X15068Y98532D01*
X15110Y98577D01*
X15152Y98623D01*
X15181Y98665D01*
X15185Y98669D01*
X15193Y98686D01*
X15206Y98706D01*
X15222Y98735D01*
X15239Y98773D01*
X15256Y98810D01*
X15272Y98852D01*
X15285Y98898D01*
Y98902D01*
X15289Y98914D01*
X15293Y98935D01*
X15297Y98964D01*
Y99006D01*
X15301Y99056D01*
X15306Y99114D01*
Y99767D01*
X13600D01*
Y100275D01*
X17440D01*
Y98490D01*
D02*
G37*
G36*
X13704Y96660D02*
X13754Y96655D01*
X13808Y96643D01*
X13866Y96631D01*
X13925Y96610D01*
X13929D01*
X13937Y96606D01*
X13949Y96601D01*
X13970Y96593D01*
X13991Y96581D01*
X14020Y96568D01*
X14087Y96535D01*
X14166Y96493D01*
X14253Y96439D01*
X14345Y96377D01*
X14436Y96302D01*
X14440Y96298D01*
X14449Y96294D01*
X14461Y96281D01*
X14482Y96260D01*
X14503Y96240D01*
X14532Y96210D01*
X14565Y96181D01*
X14603Y96144D01*
X14644Y96102D01*
X14686Y96056D01*
X14736Y96007D01*
X14786Y95948D01*
X14840Y95890D01*
X14894Y95824D01*
X14952Y95757D01*
X15014Y95682D01*
X15019Y95674D01*
X15039Y95653D01*
X15064Y95624D01*
X15102Y95582D01*
X15143Y95532D01*
X15193Y95474D01*
X15247Y95407D01*
X15310Y95341D01*
X15439Y95200D01*
X15576Y95062D01*
X15643Y94996D01*
X15709Y94933D01*
X15771Y94879D01*
X15830Y94833D01*
X15834Y94829D01*
X15842Y94825D01*
X15859Y94813D01*
X15880Y94800D01*
X15909Y94779D01*
X15938Y94763D01*
X16013Y94721D01*
X16100Y94679D01*
X16196Y94642D01*
X16296Y94617D01*
X16346Y94613D01*
X16396Y94609D01*
X16400D01*
X16408D01*
X16425D01*
X16441Y94613D01*
X16466D01*
X16495Y94621D01*
X16558Y94634D01*
X16633Y94659D01*
X16712Y94696D01*
X16753Y94717D01*
X16791Y94746D01*
X16828Y94775D01*
X16866Y94813D01*
X16870Y94817D01*
X16874Y94821D01*
X16882Y94833D01*
X16895Y94850D01*
X16911Y94871D01*
X16928Y94896D01*
X16965Y94954D01*
X16999Y95033D01*
X17032Y95121D01*
X17053Y95224D01*
X17061Y95283D01*
Y95374D01*
X17057Y95399D01*
Y95428D01*
X17049Y95462D01*
X17036Y95537D01*
X17011Y95624D01*
X16974Y95715D01*
X16949Y95761D01*
X16924Y95807D01*
X16891Y95849D01*
X16853Y95890D01*
X16849Y95894D01*
X16845Y95898D01*
X16832Y95907D01*
X16816Y95923D01*
X16795Y95936D01*
X16770Y95952D01*
X16741Y95973D01*
X16707Y95990D01*
X16670Y96011D01*
X16628Y96027D01*
X16529Y96061D01*
X16420Y96086D01*
X16358Y96090D01*
X16292Y96094D01*
X16341Y96576D01*
X16350D01*
X16366Y96572D01*
X16391Y96568D01*
X16429Y96564D01*
X16475Y96556D01*
X16529Y96543D01*
X16587Y96531D01*
X16649Y96510D01*
X16712Y96489D01*
X16782Y96464D01*
X16849Y96431D01*
X16916Y96398D01*
X16986Y96356D01*
X17049Y96310D01*
X17111Y96260D01*
X17165Y96202D01*
X17169Y96198D01*
X17178Y96185D01*
X17190Y96169D01*
X17211Y96144D01*
X17232Y96110D01*
X17257Y96069D01*
X17282Y96023D01*
X17311Y95969D01*
X17336Y95911D01*
X17361Y95844D01*
X17386Y95774D01*
X17406Y95695D01*
X17427Y95611D01*
X17440Y95524D01*
X17448Y95428D01*
X17452Y95328D01*
Y95274D01*
X17448Y95237D01*
X17444Y95191D01*
X17436Y95137D01*
X17427Y95075D01*
X17415Y95012D01*
X17398Y94942D01*
X17377Y94871D01*
X17352Y94796D01*
X17323Y94725D01*
X17286Y94650D01*
X17244Y94580D01*
X17198Y94513D01*
X17144Y94451D01*
X17140Y94446D01*
X17132Y94438D01*
X17111Y94422D01*
X17090Y94401D01*
X17061Y94376D01*
X17024Y94347D01*
X16982Y94318D01*
X16932Y94288D01*
X16882Y94259D01*
X16824Y94230D01*
X16762Y94201D01*
X16695Y94176D01*
X16620Y94155D01*
X16545Y94139D01*
X16466Y94130D01*
X16383Y94126D01*
X16379D01*
X16375D01*
X16362D01*
X16346D01*
X16300Y94130D01*
X16242Y94139D01*
X16171Y94151D01*
X16096Y94168D01*
X16013Y94189D01*
X15930Y94222D01*
X15925D01*
X15921Y94226D01*
X15909Y94230D01*
X15892Y94239D01*
X15846Y94263D01*
X15788Y94297D01*
X15717Y94342D01*
X15638Y94397D01*
X15555Y94459D01*
X15464Y94538D01*
X15460Y94542D01*
X15451Y94546D01*
X15439Y94563D01*
X15418Y94580D01*
X15393Y94605D01*
X15364Y94634D01*
X15326Y94667D01*
X15289Y94709D01*
X15243Y94758D01*
X15193Y94813D01*
X15135Y94871D01*
X15077Y94937D01*
X15010Y95008D01*
X14944Y95087D01*
X14869Y95174D01*
X14790Y95266D01*
X14786Y95270D01*
X14773Y95283D01*
X14757Y95308D01*
X14731Y95333D01*
X14702Y95370D01*
X14669Y95407D01*
X14594Y95495D01*
X14515Y95586D01*
X14432Y95674D01*
X14395Y95715D01*
X14361Y95753D01*
X14328Y95786D01*
X14303Y95811D01*
X14299Y95815D01*
X14282Y95832D01*
X14257Y95853D01*
X14224Y95882D01*
X14187Y95915D01*
X14145Y95948D01*
X14053Y96015D01*
Y94122D01*
X13600D01*
Y96664D01*
X13608D01*
X13629D01*
X13662D01*
X13704Y96660D01*
D02*
G37*
G36*
X17506Y77521D02*
X17502Y77475D01*
Y77429D01*
X17498Y77375D01*
X17494Y77313D01*
X17481Y77188D01*
X17460Y77059D01*
X17436Y76934D01*
X17419Y76880D01*
X17402Y76826D01*
Y76822D01*
X17398Y76814D01*
X17390Y76801D01*
X17381Y76780D01*
X17357Y76730D01*
X17319Y76672D01*
X17269Y76601D01*
X17203Y76531D01*
X17128Y76460D01*
X17036Y76398D01*
X17032D01*
X17024Y76389D01*
X17011Y76381D01*
X16990Y76373D01*
X16965Y76360D01*
X16936Y76348D01*
X16903Y76331D01*
X16866Y76314D01*
X16778Y76285D01*
X16683Y76260D01*
X16574Y76244D01*
X16458Y76235D01*
X16454D01*
X16441D01*
X16416D01*
X16391Y76240D01*
X16354Y76244D01*
X16312Y76248D01*
X16267Y76256D01*
X16217Y76269D01*
X16108Y76302D01*
X16050Y76323D01*
X15992Y76348D01*
X15934Y76377D01*
X15876Y76414D01*
X15821Y76456D01*
X15767Y76502D01*
X15763Y76506D01*
X15755Y76514D01*
X15742Y76531D01*
X15722Y76552D01*
X15701Y76581D01*
X15676Y76614D01*
X15647Y76656D01*
X15618Y76705D01*
X15588Y76759D01*
X15559Y76818D01*
X15530Y76884D01*
X15501Y76959D01*
X15476Y77038D01*
X15451Y77126D01*
X15430Y77221D01*
X15414Y77321D01*
Y77317D01*
X15410Y77313D01*
X15397Y77288D01*
X15376Y77250D01*
X15351Y77205D01*
X15322Y77155D01*
X15293Y77105D01*
X15256Y77055D01*
X15222Y77013D01*
X15218Y77009D01*
X15214Y77005D01*
X15202Y76992D01*
X15185Y76976D01*
X15164Y76955D01*
X15139Y76930D01*
X15081Y76876D01*
X15006Y76814D01*
X14919Y76743D01*
X14819Y76668D01*
X14711Y76593D01*
X13667Y75928D01*
Y76564D01*
X14465Y77071D01*
X14469Y77076D01*
X14482Y77080D01*
X14499Y77092D01*
X14524Y77109D01*
X14553Y77126D01*
X14586Y77151D01*
X14661Y77201D01*
X14748Y77259D01*
X14836Y77317D01*
X14919Y77379D01*
X14994Y77438D01*
X14998D01*
X15002Y77446D01*
X15023Y77463D01*
X15056Y77487D01*
X15093Y77525D01*
X15135Y77562D01*
X15177Y77608D01*
X15218Y77654D01*
X15247Y77696D01*
X15251Y77700D01*
X15260Y77716D01*
X15272Y77737D01*
X15289Y77766D01*
X15306Y77804D01*
X15322Y77841D01*
X15339Y77883D01*
X15351Y77929D01*
Y77933D01*
X15356Y77945D01*
X15360Y77966D01*
X15364Y77995D01*
Y78037D01*
X15368Y78087D01*
X15372Y78145D01*
Y78798D01*
X13667D01*
Y79305D01*
X17506D01*
Y77521D01*
D02*
G37*
G36*
X14744Y75158D02*
X14740D01*
X14727Y75154D01*
X14707Y75150D01*
X14677Y75141D01*
X14644Y75133D01*
X14607Y75125D01*
X14519Y75095D01*
X14424Y75058D01*
X14328Y75012D01*
X14241Y74954D01*
X14203Y74921D01*
X14166Y74888D01*
Y74883D01*
X14157Y74879D01*
X14149Y74867D01*
X14137Y74854D01*
X14112Y74813D01*
X14078Y74754D01*
X14045Y74684D01*
X14020Y74605D01*
X13999Y74509D01*
X13991Y74409D01*
Y74376D01*
X13995Y74351D01*
X13999Y74326D01*
X14004Y74288D01*
X14020Y74214D01*
X14045Y74122D01*
X14087Y74026D01*
X14116Y73981D01*
X14145Y73935D01*
X14178Y73889D01*
X14220Y73843D01*
X14224Y73839D01*
X14232Y73835D01*
X14245Y73823D01*
X14261Y73806D01*
X14282Y73789D01*
X14311Y73773D01*
X14341Y73752D01*
X14378Y73727D01*
X14461Y73685D01*
X14557Y73652D01*
X14669Y73623D01*
X14727Y73619D01*
X14790Y73615D01*
X14794D01*
X14802D01*
X14823D01*
X14844Y73619D01*
X14873Y73623D01*
X14902Y73627D01*
X14977Y73640D01*
X15064Y73669D01*
X15152Y73706D01*
X15198Y73731D01*
X15239Y73760D01*
X15281Y73793D01*
X15322Y73831D01*
X15326Y73835D01*
X15331Y73839D01*
X15343Y73852D01*
X15356Y73868D01*
X15372Y73889D01*
X15389Y73914D01*
X15430Y73976D01*
X15468Y74055D01*
X15501Y74147D01*
X15526Y74251D01*
X15530Y74309D01*
X15534Y74367D01*
Y74392D01*
X15530Y74422D01*
Y74459D01*
X15522Y74509D01*
X15514Y74563D01*
X15501Y74630D01*
X15484Y74700D01*
X15896Y74650D01*
Y74642D01*
X15892Y74621D01*
X15888Y74596D01*
Y74542D01*
X15892Y74521D01*
Y74492D01*
X15896Y74463D01*
X15909Y74392D01*
X15925Y74309D01*
X15955Y74218D01*
X15992Y74122D01*
X16046Y74031D01*
Y74026D01*
X16054Y74018D01*
X16063Y74010D01*
X16075Y73993D01*
X16113Y73952D01*
X16167Y73906D01*
X16233Y73864D01*
X16317Y73823D01*
X16362Y73806D01*
X16416Y73798D01*
X16470Y73789D01*
X16529Y73785D01*
X16533D01*
X16541D01*
X16554D01*
X16574Y73789D01*
X16620Y73793D01*
X16683Y73806D01*
X16749Y73827D01*
X16820Y73860D01*
X16895Y73906D01*
X16928Y73931D01*
X16961Y73964D01*
X16970Y73972D01*
X16986Y73997D01*
X17015Y74035D01*
X17049Y74085D01*
X17078Y74151D01*
X17107Y74230D01*
X17123Y74318D01*
X17132Y74417D01*
Y74442D01*
X17128Y74463D01*
Y74488D01*
X17123Y74513D01*
X17111Y74580D01*
X17090Y74650D01*
X17057Y74729D01*
X17015Y74804D01*
X16957Y74879D01*
X16949Y74888D01*
X16924Y74908D01*
X16886Y74942D01*
X16828Y74975D01*
X16758Y75016D01*
X16666Y75054D01*
X16562Y75087D01*
X16441Y75112D01*
X16524Y75582D01*
X16529D01*
X16545Y75578D01*
X16570Y75574D01*
X16603Y75566D01*
X16641Y75553D01*
X16687Y75541D01*
X16737Y75524D01*
X16791Y75503D01*
X16911Y75449D01*
X16970Y75420D01*
X17032Y75383D01*
X17090Y75341D01*
X17149Y75295D01*
X17207Y75245D01*
X17257Y75191D01*
X17261Y75187D01*
X17269Y75179D01*
X17282Y75158D01*
X17298Y75137D01*
X17319Y75104D01*
X17340Y75071D01*
X17365Y75029D01*
X17390Y74979D01*
X17411Y74929D01*
X17436Y74871D01*
X17456Y74809D01*
X17477Y74742D01*
X17494Y74667D01*
X17506Y74592D01*
X17515Y74513D01*
X17519Y74430D01*
Y74376D01*
X17515Y74347D01*
X17510Y74318D01*
X17502Y74239D01*
X17485Y74151D01*
X17460Y74051D01*
X17427Y73952D01*
X17381Y73852D01*
Y73848D01*
X17377Y73839D01*
X17369Y73827D01*
X17357Y73806D01*
X17327Y73760D01*
X17286Y73702D01*
X17232Y73635D01*
X17169Y73569D01*
X17099Y73502D01*
X17015Y73444D01*
X17011D01*
X17007Y73440D01*
X16990Y73431D01*
X16974Y73423D01*
X16953Y73411D01*
X16928Y73398D01*
X16866Y73373D01*
X16791Y73348D01*
X16707Y73323D01*
X16616Y73307D01*
X16520Y73303D01*
X16516D01*
X16508D01*
X16495D01*
X16479D01*
X16429Y73311D01*
X16371Y73319D01*
X16300Y73336D01*
X16225Y73361D01*
X16146Y73394D01*
X16067Y73440D01*
X16063D01*
X16059Y73444D01*
X16034Y73465D01*
X15996Y73494D01*
X15950Y73540D01*
X15896Y73594D01*
X15842Y73664D01*
X15792Y73743D01*
X15742Y73835D01*
Y73831D01*
X15738Y73818D01*
X15734Y73802D01*
X15726Y73777D01*
X15717Y73752D01*
X15705Y73719D01*
X15672Y73640D01*
X15626Y73556D01*
X15572Y73469D01*
X15501Y73382D01*
X15414Y73307D01*
X15410Y73303D01*
X15401Y73298D01*
X15389Y73290D01*
X15368Y73278D01*
X15347Y73261D01*
X15318Y73244D01*
X15285Y73228D01*
X15243Y73211D01*
X15202Y73194D01*
X15156Y73178D01*
X15052Y73145D01*
X14931Y73124D01*
X14865Y73115D01*
X14798D01*
X14794D01*
X14777D01*
X14748Y73119D01*
X14715D01*
X14669Y73128D01*
X14619Y73136D01*
X14565Y73145D01*
X14503Y73161D01*
X14436Y73182D01*
X14370Y73207D01*
X14299Y73236D01*
X14228Y73273D01*
X14153Y73315D01*
X14083Y73365D01*
X14012Y73419D01*
X13945Y73486D01*
X13941Y73490D01*
X13929Y73502D01*
X13912Y73523D01*
X13891Y73552D01*
X13866Y73585D01*
X13837Y73631D01*
X13804Y73681D01*
X13775Y73739D01*
X13742Y73802D01*
X13708Y73873D01*
X13679Y73947D01*
X13654Y74031D01*
X13633Y74118D01*
X13617Y74209D01*
X13604Y74305D01*
X13600Y74409D01*
Y74430D01*
X13604Y74459D01*
Y74492D01*
X13608Y74538D01*
X13617Y74588D01*
X13625Y74642D01*
X13637Y74704D01*
X13654Y74771D01*
X13675Y74838D01*
X13696Y74908D01*
X13725Y74979D01*
X13762Y75050D01*
X13800Y75116D01*
X13845Y75187D01*
X13900Y75249D01*
X13904Y75254D01*
X13912Y75262D01*
X13929Y75279D01*
X13954Y75304D01*
X13983Y75328D01*
X14020Y75358D01*
X14062Y75387D01*
X14112Y75420D01*
X14162Y75453D01*
X14224Y75487D01*
X14286Y75520D01*
X14357Y75549D01*
X14432Y75574D01*
X14511Y75599D01*
X14594Y75616D01*
X14682Y75628D01*
X14744Y75158D01*
D02*
G37*
G36*
X17440Y57727D02*
X17436Y57681D01*
Y57635D01*
X17431Y57581D01*
X17427Y57519D01*
X17415Y57394D01*
X17394Y57265D01*
X17369Y57140D01*
X17352Y57086D01*
X17336Y57032D01*
Y57028D01*
X17332Y57019D01*
X17323Y57007D01*
X17315Y56986D01*
X17290Y56936D01*
X17253Y56878D01*
X17203Y56807D01*
X17136Y56736D01*
X17061Y56666D01*
X16970Y56603D01*
X16965D01*
X16957Y56595D01*
X16945Y56587D01*
X16924Y56578D01*
X16899Y56566D01*
X16870Y56553D01*
X16837Y56537D01*
X16799Y56520D01*
X16712Y56491D01*
X16616Y56466D01*
X16508Y56449D01*
X16391Y56441D01*
X16387D01*
X16375D01*
X16350D01*
X16325Y56445D01*
X16287Y56449D01*
X16246Y56454D01*
X16200Y56462D01*
X16150Y56474D01*
X16042Y56508D01*
X15984Y56528D01*
X15925Y56553D01*
X15867Y56582D01*
X15809Y56620D01*
X15755Y56661D01*
X15701Y56707D01*
X15697Y56712D01*
X15688Y56720D01*
X15676Y56736D01*
X15655Y56757D01*
X15634Y56786D01*
X15609Y56820D01*
X15580Y56861D01*
X15551Y56911D01*
X15522Y56965D01*
X15493Y57024D01*
X15464Y57090D01*
X15435Y57165D01*
X15410Y57244D01*
X15385Y57331D01*
X15364Y57427D01*
X15347Y57527D01*
Y57523D01*
X15343Y57519D01*
X15331Y57494D01*
X15310Y57456D01*
X15285Y57410D01*
X15256Y57360D01*
X15227Y57310D01*
X15189Y57261D01*
X15156Y57219D01*
X15152Y57215D01*
X15147Y57211D01*
X15135Y57198D01*
X15118Y57182D01*
X15098Y57161D01*
X15073Y57136D01*
X15014Y57082D01*
X14940Y57019D01*
X14852Y56949D01*
X14752Y56874D01*
X14644Y56799D01*
X13600Y56133D01*
Y56770D01*
X14399Y57277D01*
X14403Y57281D01*
X14415Y57286D01*
X14432Y57298D01*
X14457Y57315D01*
X14486Y57331D01*
X14519Y57356D01*
X14594Y57406D01*
X14682Y57464D01*
X14769Y57523D01*
X14852Y57585D01*
X14927Y57643D01*
X14931D01*
X14935Y57652D01*
X14956Y57668D01*
X14989Y57693D01*
X15027Y57731D01*
X15068Y57768D01*
X15110Y57814D01*
X15152Y57860D01*
X15181Y57901D01*
X15185Y57905D01*
X15193Y57922D01*
X15206Y57943D01*
X15222Y57972D01*
X15239Y58009D01*
X15256Y58047D01*
X15272Y58088D01*
X15285Y58134D01*
Y58138D01*
X15289Y58151D01*
X15293Y58172D01*
X15297Y58201D01*
Y58242D01*
X15301Y58292D01*
X15306Y58350D01*
Y59004D01*
X13600D01*
Y59511D01*
X17440D01*
Y57727D01*
D02*
G37*
G36*
Y54240D02*
Y53853D01*
X14952D01*
Y53334D01*
X14519D01*
Y53853D01*
X13600D01*
Y54324D01*
X14519D01*
Y55996D01*
X14952D01*
X17440Y54240D01*
D02*
G37*
G36*
X17502Y37227D02*
X17498Y37181D01*
Y37135D01*
X17494Y37081D01*
X17490Y37018D01*
X17477Y36894D01*
X17456Y36765D01*
X17431Y36640D01*
X17415Y36586D01*
X17398Y36532D01*
Y36528D01*
X17394Y36519D01*
X17386Y36507D01*
X17377Y36486D01*
X17352Y36436D01*
X17315Y36378D01*
X17265Y36307D01*
X17198Y36236D01*
X17123Y36166D01*
X17032Y36103D01*
X17028D01*
X17019Y36095D01*
X17007Y36087D01*
X16986Y36078D01*
X16961Y36066D01*
X16932Y36053D01*
X16899Y36037D01*
X16861Y36020D01*
X16774Y35991D01*
X16678Y35966D01*
X16570Y35949D01*
X16454Y35941D01*
X16450D01*
X16437D01*
X16412D01*
X16387Y35945D01*
X16350Y35949D01*
X16308Y35954D01*
X16262Y35962D01*
X16213Y35974D01*
X16104Y36008D01*
X16046Y36028D01*
X15988Y36053D01*
X15930Y36083D01*
X15871Y36120D01*
X15817Y36162D01*
X15763Y36207D01*
X15759Y36211D01*
X15751Y36220D01*
X15738Y36236D01*
X15717Y36257D01*
X15697Y36286D01*
X15672Y36320D01*
X15643Y36361D01*
X15613Y36411D01*
X15584Y36465D01*
X15555Y36524D01*
X15526Y36590D01*
X15497Y36665D01*
X15472Y36744D01*
X15447Y36831D01*
X15426Y36927D01*
X15410Y37027D01*
Y37023D01*
X15405Y37018D01*
X15393Y36994D01*
X15372Y36956D01*
X15347Y36910D01*
X15318Y36860D01*
X15289Y36810D01*
X15251Y36761D01*
X15218Y36719D01*
X15214Y36715D01*
X15210Y36711D01*
X15198Y36698D01*
X15181Y36682D01*
X15160Y36661D01*
X15135Y36636D01*
X15077Y36582D01*
X15002Y36519D01*
X14915Y36449D01*
X14815Y36374D01*
X14707Y36299D01*
X13662Y35633D01*
Y36270D01*
X14461Y36777D01*
X14465Y36781D01*
X14478Y36786D01*
X14494Y36798D01*
X14519Y36815D01*
X14548Y36831D01*
X14582Y36856D01*
X14657Y36906D01*
X14744Y36964D01*
X14831Y37023D01*
X14915Y37085D01*
X14989Y37143D01*
X14994D01*
X14998Y37152D01*
X15019Y37168D01*
X15052Y37193D01*
X15089Y37231D01*
X15131Y37268D01*
X15172Y37314D01*
X15214Y37360D01*
X15243Y37401D01*
X15247Y37405D01*
X15256Y37422D01*
X15268Y37443D01*
X15285Y37472D01*
X15301Y37509D01*
X15318Y37547D01*
X15335Y37588D01*
X15347Y37634D01*
Y37638D01*
X15351Y37651D01*
X15356Y37672D01*
X15360Y37701D01*
Y37742D01*
X15364Y37792D01*
X15368Y37850D01*
Y38504D01*
X13662D01*
Y39011D01*
X17502D01*
Y37227D01*
D02*
G37*
G36*
X14707Y34839D02*
X14702D01*
X14690Y34835D01*
X14673Y34830D01*
X14648Y34826D01*
X14619Y34822D01*
X14582Y34810D01*
X14503Y34789D01*
X14415Y34756D01*
X14324Y34710D01*
X14241Y34656D01*
X14203Y34622D01*
X14166Y34589D01*
Y34585D01*
X14157Y34581D01*
X14149Y34568D01*
X14137Y34552D01*
X14108Y34510D01*
X14078Y34452D01*
X14045Y34381D01*
X14016Y34298D01*
X13995Y34206D01*
X13991Y34156D01*
X13987Y34102D01*
Y34069D01*
X13991Y34044D01*
X13995Y34015D01*
X13999Y33982D01*
X14020Y33903D01*
X14049Y33811D01*
X14070Y33765D01*
X14095Y33716D01*
X14124Y33666D01*
X14157Y33620D01*
X14195Y33574D01*
X14241Y33528D01*
X14245Y33524D01*
X14253Y33520D01*
X14266Y33507D01*
X14286Y33491D01*
X14315Y33474D01*
X14345Y33453D01*
X14382Y33433D01*
X14424Y33408D01*
X14469Y33387D01*
X14519Y33366D01*
X14578Y33345D01*
X14636Y33329D01*
X14702Y33312D01*
X14773Y33299D01*
X14844Y33295D01*
X14923Y33291D01*
X14927D01*
X14940D01*
X14960D01*
X14989Y33295D01*
X15023Y33299D01*
X15064Y33304D01*
X15106Y33312D01*
X15156Y33320D01*
X15256Y33345D01*
X15364Y33387D01*
X15414Y33412D01*
X15464Y33445D01*
X15514Y33478D01*
X15559Y33520D01*
X15563Y33524D01*
X15568Y33528D01*
X15580Y33545D01*
X15597Y33562D01*
X15613Y33582D01*
X15634Y33612D01*
X15655Y33641D01*
X15680Y33678D01*
X15701Y33720D01*
X15722Y33761D01*
X15759Y33865D01*
X15776Y33919D01*
X15788Y33982D01*
X15792Y34044D01*
X15797Y34111D01*
Y34148D01*
X15792Y34194D01*
X15784Y34248D01*
X15771Y34315D01*
X15751Y34385D01*
X15726Y34456D01*
X15688Y34527D01*
X15684Y34535D01*
X15672Y34556D01*
X15647Y34589D01*
X15618Y34631D01*
X15576Y34672D01*
X15530Y34722D01*
X15476Y34768D01*
X15418Y34810D01*
X15480Y35250D01*
X17452Y34880D01*
Y32971D01*
X17003D01*
Y34506D01*
X15971Y34710D01*
X15975Y34705D01*
X15984Y34693D01*
X15992Y34676D01*
X16009Y34651D01*
X16025Y34618D01*
X16046Y34581D01*
X16071Y34539D01*
X16092Y34489D01*
X16113Y34439D01*
X16138Y34381D01*
X16175Y34260D01*
X16192Y34194D01*
X16204Y34127D01*
X16208Y34057D01*
X16213Y33986D01*
Y33965D01*
X16208Y33936D01*
Y33903D01*
X16200Y33861D01*
X16196Y33811D01*
X16183Y33753D01*
X16171Y33695D01*
X16150Y33628D01*
X16129Y33562D01*
X16100Y33491D01*
X16067Y33420D01*
X16025Y33349D01*
X15980Y33279D01*
X15925Y33208D01*
X15863Y33141D01*
X15859Y33137D01*
X15846Y33125D01*
X15826Y33108D01*
X15801Y33087D01*
X15767Y33058D01*
X15722Y33029D01*
X15676Y33000D01*
X15622Y32967D01*
X15559Y32933D01*
X15489Y32904D01*
X15418Y32871D01*
X15335Y32846D01*
X15251Y32825D01*
X15160Y32809D01*
X15064Y32796D01*
X14965Y32792D01*
X14960D01*
X14940D01*
X14915D01*
X14877Y32796D01*
X14831Y32800D01*
X14782Y32809D01*
X14723Y32817D01*
X14657Y32829D01*
X14590Y32846D01*
X14515Y32867D01*
X14440Y32892D01*
X14366Y32921D01*
X14291Y32954D01*
X14211Y32996D01*
X14137Y33042D01*
X14066Y33096D01*
X14062Y33100D01*
X14045Y33112D01*
X14024Y33133D01*
X13995Y33162D01*
X13958Y33200D01*
X13920Y33245D01*
X13875Y33299D01*
X13833Y33362D01*
X13791Y33428D01*
X13746Y33503D01*
X13708Y33586D01*
X13675Y33678D01*
X13642Y33774D01*
X13621Y33878D01*
X13604Y33986D01*
X13600Y34102D01*
Y34152D01*
X13604Y34190D01*
X13608Y34236D01*
X13617Y34285D01*
X13625Y34344D01*
X13637Y34406D01*
X13650Y34473D01*
X13671Y34543D01*
X13696Y34614D01*
X13725Y34685D01*
X13758Y34756D01*
X13795Y34826D01*
X13841Y34893D01*
X13891Y34959D01*
X13895Y34964D01*
X13904Y34972D01*
X13920Y34988D01*
X13945Y35009D01*
X13974Y35038D01*
X14008Y35067D01*
X14049Y35097D01*
X14099Y35130D01*
X14149Y35163D01*
X14207Y35196D01*
X14274Y35225D01*
X14341Y35255D01*
X14415Y35284D01*
X14494Y35305D01*
X14582Y35321D01*
X14669Y35334D01*
X14707Y34839D01*
D02*
G37*
G36*
X17502Y18226D02*
X17498Y18181D01*
Y18135D01*
X17494Y18081D01*
X17490Y18019D01*
X17477Y17894D01*
X17456Y17765D01*
X17431Y17640D01*
X17415Y17586D01*
X17398Y17532D01*
Y17528D01*
X17394Y17519D01*
X17386Y17507D01*
X17377Y17486D01*
X17352Y17436D01*
X17315Y17378D01*
X17265Y17307D01*
X17198Y17236D01*
X17123Y17166D01*
X17032Y17103D01*
X17028D01*
X17019Y17095D01*
X17007Y17087D01*
X16986Y17078D01*
X16961Y17066D01*
X16932Y17053D01*
X16899Y17037D01*
X16861Y17020D01*
X16774Y16991D01*
X16678Y16966D01*
X16570Y16949D01*
X16454Y16941D01*
X16450D01*
X16437D01*
X16412D01*
X16387Y16945D01*
X16350Y16949D01*
X16308Y16954D01*
X16262Y16962D01*
X16213Y16974D01*
X16104Y17008D01*
X16046Y17028D01*
X15988Y17053D01*
X15930Y17083D01*
X15871Y17120D01*
X15817Y17162D01*
X15763Y17207D01*
X15759Y17211D01*
X15751Y17220D01*
X15738Y17236D01*
X15717Y17257D01*
X15697Y17286D01*
X15672Y17320D01*
X15643Y17361D01*
X15613Y17411D01*
X15584Y17465D01*
X15555Y17524D01*
X15526Y17590D01*
X15497Y17665D01*
X15472Y17744D01*
X15447Y17831D01*
X15426Y17927D01*
X15410Y18027D01*
Y18023D01*
X15405Y18019D01*
X15393Y17993D01*
X15372Y17956D01*
X15347Y17910D01*
X15318Y17860D01*
X15289Y17810D01*
X15251Y17761D01*
X15218Y17719D01*
X15214Y17715D01*
X15210Y17711D01*
X15198Y17698D01*
X15181Y17682D01*
X15160Y17661D01*
X15135Y17636D01*
X15077Y17582D01*
X15002Y17519D01*
X14915Y17449D01*
X14815Y17374D01*
X14707Y17299D01*
X13662Y16633D01*
Y17270D01*
X14461Y17777D01*
X14465Y17781D01*
X14478Y17786D01*
X14494Y17798D01*
X14519Y17815D01*
X14548Y17831D01*
X14582Y17856D01*
X14657Y17906D01*
X14744Y17964D01*
X14831Y18023D01*
X14915Y18085D01*
X14989Y18143D01*
X14994D01*
X14998Y18152D01*
X15019Y18168D01*
X15052Y18193D01*
X15089Y18231D01*
X15131Y18268D01*
X15172Y18314D01*
X15214Y18360D01*
X15243Y18401D01*
X15247Y18405D01*
X15256Y18422D01*
X15268Y18443D01*
X15285Y18472D01*
X15301Y18509D01*
X15318Y18547D01*
X15335Y18588D01*
X15347Y18634D01*
Y18638D01*
X15351Y18651D01*
X15356Y18672D01*
X15360Y18701D01*
Y18742D01*
X15364Y18792D01*
X15368Y18850D01*
Y19504D01*
X13662D01*
Y20011D01*
X17502D01*
Y18226D01*
D02*
G37*
G36*
X15563Y16354D02*
X15597D01*
X15638Y16350D01*
X15730Y16346D01*
X15834Y16338D01*
X15950Y16325D01*
X16075Y16309D01*
X16208Y16284D01*
X16341Y16259D01*
X16475Y16226D01*
X16608Y16184D01*
X16737Y16138D01*
X16861Y16084D01*
X16974Y16017D01*
X17074Y15947D01*
X17078Y15943D01*
X17094Y15930D01*
X17115Y15909D01*
X17144Y15880D01*
X17178Y15847D01*
X17215Y15801D01*
X17253Y15751D01*
X17294Y15693D01*
X17336Y15627D01*
X17373Y15552D01*
X17411Y15473D01*
X17444Y15385D01*
X17473Y15294D01*
X17494Y15194D01*
X17510Y15090D01*
X17515Y14977D01*
Y14932D01*
X17510Y14903D01*
X17506Y14865D01*
X17502Y14819D01*
X17494Y14770D01*
X17481Y14716D01*
X17452Y14595D01*
X17431Y14537D01*
X17406Y14470D01*
X17377Y14408D01*
X17340Y14349D01*
X17302Y14291D01*
X17257Y14233D01*
X17253Y14229D01*
X17244Y14220D01*
X17232Y14204D01*
X17211Y14187D01*
X17186Y14162D01*
X17153Y14137D01*
X17115Y14108D01*
X17074Y14079D01*
X17028Y14050D01*
X16974Y14021D01*
X16916Y13992D01*
X16853Y13962D01*
X16787Y13938D01*
X16716Y13917D01*
X16641Y13896D01*
X16558Y13883D01*
X16520Y14354D01*
X16524D01*
X16533Y14358D01*
X16545Y14362D01*
X16566Y14366D01*
X16616Y14378D01*
X16674Y14399D01*
X16741Y14424D01*
X16807Y14458D01*
X16870Y14491D01*
X16924Y14532D01*
X16928Y14537D01*
X16932Y14541D01*
X16945Y14553D01*
X16957Y14566D01*
X16990Y14607D01*
X17028Y14665D01*
X17065Y14732D01*
X17094Y14815D01*
X17119Y14907D01*
X17123Y14957D01*
X17128Y15007D01*
Y15044D01*
X17119Y15090D01*
X17111Y15144D01*
X17094Y15206D01*
X17074Y15273D01*
X17040Y15339D01*
X16999Y15406D01*
Y15410D01*
X16990Y15414D01*
X16982Y15427D01*
X16970Y15443D01*
X16932Y15481D01*
X16878Y15531D01*
X16812Y15589D01*
X16728Y15647D01*
X16633Y15701D01*
X16524Y15755D01*
X16520D01*
X16512Y15760D01*
X16491Y15768D01*
X16466Y15776D01*
X16437Y15785D01*
X16396Y15797D01*
X16350Y15810D01*
X16300Y15822D01*
X16242Y15834D01*
X16175Y15843D01*
X16100Y15855D01*
X16021Y15868D01*
X15938Y15876D01*
X15846Y15880D01*
X15747Y15884D01*
X15647Y15888D01*
X15655Y15880D01*
X15667Y15872D01*
X15684Y15859D01*
X15730Y15822D01*
X15788Y15776D01*
X15851Y15714D01*
X15913Y15643D01*
X15971Y15564D01*
X16025Y15477D01*
Y15473D01*
X16029Y15464D01*
X16038Y15452D01*
X16046Y15435D01*
X16054Y15410D01*
X16067Y15385D01*
X16092Y15319D01*
X16113Y15240D01*
X16133Y15152D01*
X16150Y15057D01*
X16154Y14957D01*
Y14936D01*
X16150Y14911D01*
Y14878D01*
X16142Y14836D01*
X16138Y14790D01*
X16125Y14736D01*
X16113Y14678D01*
X16092Y14620D01*
X16071Y14553D01*
X16042Y14487D01*
X16009Y14420D01*
X15967Y14349D01*
X15921Y14283D01*
X15867Y14216D01*
X15805Y14154D01*
X15801Y14150D01*
X15788Y14141D01*
X15771Y14125D01*
X15742Y14100D01*
X15709Y14075D01*
X15667Y14050D01*
X15618Y14017D01*
X15563Y13987D01*
X15501Y13958D01*
X15435Y13925D01*
X15360Y13900D01*
X15281Y13871D01*
X15198Y13850D01*
X15106Y13834D01*
X15010Y13825D01*
X14910Y13821D01*
X14906D01*
X14894D01*
X14877D01*
X14848Y13825D01*
X14819D01*
X14782Y13829D01*
X14736Y13834D01*
X14690Y13842D01*
X14586Y13859D01*
X14474Y13888D01*
X14357Y13925D01*
X14236Y13979D01*
X14232D01*
X14224Y13987D01*
X14207Y13996D01*
X14187Y14008D01*
X14162Y14025D01*
X14132Y14042D01*
X14062Y14092D01*
X13987Y14150D01*
X13908Y14225D01*
X13829Y14312D01*
X13762Y14408D01*
Y14412D01*
X13754Y14420D01*
X13746Y14437D01*
X13737Y14458D01*
X13725Y14482D01*
X13712Y14512D01*
X13696Y14549D01*
X13683Y14586D01*
X13650Y14678D01*
X13625Y14786D01*
X13608Y14903D01*
X13600Y15028D01*
Y15052D01*
X13604Y15086D01*
X13608Y15127D01*
X13612Y15177D01*
X13625Y15236D01*
X13637Y15298D01*
X13654Y15369D01*
X13679Y15443D01*
X13704Y15522D01*
X13742Y15602D01*
X13783Y15681D01*
X13833Y15764D01*
X13891Y15839D01*
X13958Y15918D01*
X14033Y15988D01*
X14037Y15993D01*
X14053Y16005D01*
X14078Y16022D01*
X14116Y16047D01*
X14162Y16076D01*
X14220Y16105D01*
X14291Y16138D01*
X14374Y16172D01*
X14465Y16209D01*
X14569Y16242D01*
X14686Y16271D01*
X14815Y16300D01*
X14956Y16325D01*
X15110Y16342D01*
X15277Y16354D01*
X15455Y16359D01*
X15460D01*
X15468D01*
X15484D01*
X15505D01*
X15530D01*
X15563Y16354D01*
D02*
G37*
G36*
X17502Y128215D02*
X17498Y128178D01*
Y128132D01*
X17494Y128086D01*
X17485Y128032D01*
X17473Y127924D01*
X17452Y127804D01*
X17423Y127691D01*
X17381Y127583D01*
Y127579D01*
X17377Y127570D01*
X17369Y127558D01*
X17361Y127537D01*
X17332Y127491D01*
X17294Y127429D01*
X17244Y127363D01*
X17182Y127296D01*
X17107Y127229D01*
X17024Y127167D01*
X17019D01*
X17011Y127159D01*
X16999Y127155D01*
X16982Y127142D01*
X16961Y127130D01*
X16932Y127117D01*
X16870Y127088D01*
X16795Y127063D01*
X16707Y127038D01*
X16616Y127021D01*
X16516Y127013D01*
X16512D01*
X16504D01*
X16491D01*
X16475D01*
X16429Y127021D01*
X16366Y127030D01*
X16296Y127046D01*
X16217Y127071D01*
X16138Y127105D01*
X16054Y127150D01*
X16050D01*
X16046Y127155D01*
X16034Y127163D01*
X16017Y127175D01*
X15980Y127204D01*
X15930Y127250D01*
X15876Y127304D01*
X15817Y127375D01*
X15759Y127454D01*
X15705Y127550D01*
Y127546D01*
X15701Y127533D01*
X15692Y127516D01*
X15684Y127491D01*
X15672Y127462D01*
X15659Y127429D01*
X15622Y127354D01*
X15576Y127267D01*
X15514Y127180D01*
X15443Y127092D01*
X15356Y127017D01*
X15351Y127013D01*
X15343Y127009D01*
X15331Y127001D01*
X15314Y126988D01*
X15289Y126971D01*
X15260Y126955D01*
X15227Y126938D01*
X15189Y126922D01*
X15106Y126888D01*
X15006Y126855D01*
X14894Y126834D01*
X14836Y126826D01*
X14773D01*
X14769D01*
X14761D01*
X14748D01*
X14727D01*
X14702Y126830D01*
X14677D01*
X14611Y126838D01*
X14532Y126855D01*
X14449Y126876D01*
X14357Y126905D01*
X14270Y126942D01*
X14266D01*
X14261Y126946D01*
X14249Y126955D01*
X14232Y126963D01*
X14191Y126988D01*
X14141Y127021D01*
X14083Y127059D01*
X14024Y127109D01*
X13966Y127163D01*
X13912Y127225D01*
X13908Y127234D01*
X13891Y127254D01*
X13870Y127292D01*
X13841Y127342D01*
X13812Y127400D01*
X13779Y127471D01*
X13750Y127554D01*
X13725Y127645D01*
Y127650D01*
X13721Y127658D01*
Y127670D01*
X13716Y127691D01*
X13712Y127716D01*
X13704Y127745D01*
X13700Y127778D01*
X13696Y127816D01*
X13687Y127858D01*
X13683Y127908D01*
X13671Y128012D01*
X13667Y128132D01*
X13662Y128265D01*
Y129725D01*
X17502D01*
Y128215D01*
D02*
G37*
G36*
X15667Y126310D02*
X15726D01*
X15792Y126306D01*
X15867Y126302D01*
X15946Y126298D01*
X16034Y126289D01*
X16121Y126281D01*
X16304Y126256D01*
X16483Y126223D01*
X16570Y126202D01*
X16649Y126177D01*
X16654D01*
X16666Y126169D01*
X16691Y126160D01*
X16720Y126152D01*
X16753Y126135D01*
X16795Y126119D01*
X16837Y126098D01*
X16886Y126073D01*
X16990Y126015D01*
X17094Y125940D01*
X17198Y125857D01*
X17244Y125811D01*
X17290Y125761D01*
X17294Y125757D01*
X17298Y125749D01*
X17311Y125732D01*
X17323Y125711D01*
X17344Y125686D01*
X17361Y125653D01*
X17381Y125615D01*
X17402Y125570D01*
X17423Y125524D01*
X17444Y125470D01*
X17465Y125411D01*
X17481Y125353D01*
X17494Y125287D01*
X17506Y125216D01*
X17510Y125141D01*
X17515Y125066D01*
Y125016D01*
X17510Y124987D01*
X17506Y124958D01*
X17498Y124883D01*
X17485Y124800D01*
X17460Y124708D01*
X17431Y124617D01*
X17390Y124525D01*
Y124521D01*
X17386Y124513D01*
X17377Y124501D01*
X17365Y124484D01*
X17340Y124442D01*
X17298Y124388D01*
X17248Y124326D01*
X17186Y124263D01*
X17111Y124197D01*
X17028Y124138D01*
X17024D01*
X17015Y124130D01*
X17003Y124126D01*
X16986Y124114D01*
X16965Y124101D01*
X16936Y124084D01*
X16903Y124072D01*
X16870Y124051D01*
X16787Y124014D01*
X16691Y123976D01*
X16579Y123935D01*
X16458Y123901D01*
X16454D01*
X16441Y123897D01*
X16425Y123893D01*
X16396Y123889D01*
X16362Y123881D01*
X16321Y123872D01*
X16275Y123864D01*
X16221Y123856D01*
X16158Y123852D01*
X16092Y123843D01*
X16017Y123835D01*
X15938Y123827D01*
X15851Y123822D01*
X15759Y123818D01*
X15659Y123814D01*
X15555D01*
X15547D01*
X15526D01*
X15489D01*
X15443D01*
X15385Y123818D01*
X15322Y123822D01*
X15247Y123827D01*
X15168Y123831D01*
X15081Y123839D01*
X14994Y123847D01*
X14811Y123872D01*
X14632Y123910D01*
X14544Y123931D01*
X14465Y123956D01*
X14461D01*
X14449Y123964D01*
X14424Y123968D01*
X14399Y123980D01*
X14361Y123997D01*
X14324Y124014D01*
X14278Y124035D01*
X14228Y124059D01*
X14124Y124118D01*
X14020Y124188D01*
X13916Y124272D01*
X13870Y124322D01*
X13825Y124372D01*
X13821Y124376D01*
X13816Y124384D01*
X13804Y124401D01*
X13791Y124421D01*
X13775Y124446D01*
X13754Y124480D01*
X13733Y124517D01*
X13712Y124563D01*
X13691Y124609D01*
X13671Y124663D01*
X13654Y124717D01*
X13633Y124779D01*
X13621Y124846D01*
X13608Y124917D01*
X13604Y124987D01*
X13600Y125066D01*
Y125091D01*
X13604Y125120D01*
X13608Y125158D01*
X13612Y125204D01*
X13621Y125258D01*
X13633Y125316D01*
X13650Y125382D01*
X13671Y125449D01*
X13696Y125520D01*
X13729Y125594D01*
X13766Y125665D01*
X13812Y125736D01*
X13866Y125807D01*
X13925Y125873D01*
X13995Y125936D01*
X13999Y125940D01*
X14016Y125952D01*
X14045Y125969D01*
X14087Y125994D01*
X14141Y126023D01*
X14203Y126056D01*
X14282Y126090D01*
X14370Y126123D01*
X14474Y126160D01*
X14586Y126194D01*
X14715Y126227D01*
X14856Y126256D01*
X15010Y126281D01*
X15177Y126298D01*
X15360Y126310D01*
X15555Y126314D01*
X15563D01*
X15584D01*
X15622D01*
X15667Y126310D01*
D02*
G37*
G36*
X17440Y109215D02*
X17436Y109178D01*
Y109132D01*
X17431Y109086D01*
X17423Y109032D01*
X17411Y108924D01*
X17390Y108803D01*
X17361Y108691D01*
X17319Y108583D01*
Y108579D01*
X17315Y108571D01*
X17307Y108558D01*
X17298Y108537D01*
X17269Y108492D01*
X17232Y108429D01*
X17182Y108362D01*
X17119Y108296D01*
X17044Y108229D01*
X16961Y108167D01*
X16957D01*
X16949Y108159D01*
X16936Y108154D01*
X16920Y108142D01*
X16899Y108130D01*
X16870Y108117D01*
X16807Y108088D01*
X16733Y108063D01*
X16645Y108038D01*
X16554Y108021D01*
X16454Y108013D01*
X16450D01*
X16441D01*
X16429D01*
X16412D01*
X16366Y108021D01*
X16304Y108030D01*
X16233Y108046D01*
X16154Y108071D01*
X16075Y108105D01*
X15992Y108150D01*
X15988D01*
X15984Y108154D01*
X15971Y108163D01*
X15955Y108175D01*
X15917Y108204D01*
X15867Y108250D01*
X15813Y108304D01*
X15755Y108375D01*
X15697Y108454D01*
X15643Y108550D01*
Y108546D01*
X15638Y108533D01*
X15630Y108517D01*
X15622Y108492D01*
X15609Y108462D01*
X15597Y108429D01*
X15559Y108354D01*
X15514Y108267D01*
X15451Y108179D01*
X15381Y108092D01*
X15293Y108017D01*
X15289Y108013D01*
X15281Y108009D01*
X15268Y108001D01*
X15251Y107988D01*
X15227Y107972D01*
X15198Y107955D01*
X15164Y107938D01*
X15127Y107922D01*
X15044Y107888D01*
X14944Y107855D01*
X14831Y107834D01*
X14773Y107826D01*
X14711D01*
X14707D01*
X14698D01*
X14686D01*
X14665D01*
X14640Y107830D01*
X14615D01*
X14548Y107838D01*
X14469Y107855D01*
X14386Y107876D01*
X14295Y107905D01*
X14207Y107942D01*
X14203D01*
X14199Y107947D01*
X14187Y107955D01*
X14170Y107963D01*
X14128Y107988D01*
X14078Y108021D01*
X14020Y108059D01*
X13962Y108109D01*
X13904Y108163D01*
X13850Y108225D01*
X13845Y108234D01*
X13829Y108254D01*
X13808Y108292D01*
X13779Y108342D01*
X13750Y108400D01*
X13716Y108471D01*
X13687Y108554D01*
X13662Y108645D01*
Y108650D01*
X13658Y108658D01*
Y108670D01*
X13654Y108691D01*
X13650Y108716D01*
X13642Y108745D01*
X13637Y108779D01*
X13633Y108816D01*
X13625Y108858D01*
X13621Y108907D01*
X13608Y109011D01*
X13604Y109132D01*
X13600Y109265D01*
Y110725D01*
X17440D01*
Y109215D01*
D02*
G37*
G36*
X16491Y106952D02*
X16495Y106940D01*
X16508Y106919D01*
X16520Y106890D01*
X16537Y106857D01*
X16562Y106815D01*
X16587Y106769D01*
X16612Y106723D01*
X16678Y106615D01*
X16758Y106499D01*
X16841Y106378D01*
X16936Y106266D01*
X16940Y106262D01*
X16949Y106253D01*
X16961Y106237D01*
X16982Y106216D01*
X17007Y106195D01*
X17032Y106166D01*
X17103Y106104D01*
X17178Y106033D01*
X17265Y105962D01*
X17357Y105900D01*
X17452Y105846D01*
Y105542D01*
X13600D01*
Y106012D01*
X16599D01*
X16591Y106020D01*
X16570Y106041D01*
X16541Y106079D01*
X16499Y106133D01*
X16450Y106195D01*
X16396Y106274D01*
X16337Y106362D01*
X16275Y106461D01*
Y106466D01*
X16267Y106474D01*
X16258Y106486D01*
X16250Y106507D01*
X16233Y106532D01*
X16221Y106561D01*
X16183Y106628D01*
X16146Y106703D01*
X16104Y106786D01*
X16067Y106873D01*
X16034Y106956D01*
X16487D01*
X16491Y106952D01*
D02*
G37*
G36*
X17440Y89479D02*
X17436Y89441D01*
Y89396D01*
X17431Y89350D01*
X17423Y89296D01*
X17411Y89188D01*
X17390Y89067D01*
X17361Y88955D01*
X17319Y88847D01*
Y88842D01*
X17315Y88834D01*
X17307Y88822D01*
X17298Y88801D01*
X17269Y88755D01*
X17232Y88693D01*
X17182Y88626D01*
X17119Y88560D01*
X17044Y88493D01*
X16961Y88431D01*
X16957D01*
X16949Y88422D01*
X16936Y88418D01*
X16920Y88406D01*
X16899Y88393D01*
X16870Y88381D01*
X16807Y88352D01*
X16733Y88327D01*
X16645Y88302D01*
X16554Y88285D01*
X16454Y88277D01*
X16450D01*
X16441D01*
X16429D01*
X16412D01*
X16366Y88285D01*
X16304Y88293D01*
X16233Y88310D01*
X16154Y88335D01*
X16075Y88368D01*
X15992Y88414D01*
X15988D01*
X15984Y88418D01*
X15971Y88426D01*
X15955Y88439D01*
X15917Y88468D01*
X15867Y88514D01*
X15813Y88568D01*
X15755Y88639D01*
X15697Y88718D01*
X15643Y88813D01*
Y88809D01*
X15638Y88797D01*
X15630Y88780D01*
X15622Y88755D01*
X15609Y88726D01*
X15597Y88693D01*
X15559Y88618D01*
X15514Y88530D01*
X15451Y88443D01*
X15381Y88356D01*
X15293Y88281D01*
X15289Y88277D01*
X15281Y88273D01*
X15268Y88264D01*
X15251Y88252D01*
X15227Y88235D01*
X15198Y88218D01*
X15164Y88202D01*
X15127Y88185D01*
X15044Y88152D01*
X14944Y88119D01*
X14831Y88098D01*
X14773Y88089D01*
X14711D01*
X14707D01*
X14698D01*
X14686D01*
X14665D01*
X14640Y88094D01*
X14615D01*
X14548Y88102D01*
X14469Y88119D01*
X14386Y88139D01*
X14295Y88169D01*
X14207Y88206D01*
X14203D01*
X14199Y88210D01*
X14187Y88218D01*
X14170Y88227D01*
X14128Y88252D01*
X14078Y88285D01*
X14020Y88322D01*
X13962Y88372D01*
X13904Y88426D01*
X13850Y88489D01*
X13845Y88497D01*
X13829Y88518D01*
X13808Y88555D01*
X13779Y88605D01*
X13750Y88664D01*
X13716Y88734D01*
X13687Y88817D01*
X13662Y88909D01*
Y88913D01*
X13658Y88921D01*
Y88934D01*
X13654Y88955D01*
X13650Y88980D01*
X13642Y89009D01*
X13637Y89042D01*
X13633Y89079D01*
X13625Y89121D01*
X13621Y89171D01*
X13608Y89275D01*
X13604Y89396D01*
X13600Y89529D01*
Y90989D01*
X17440D01*
Y89479D01*
D02*
G37*
G36*
X13704Y87640D02*
X13754Y87636D01*
X13808Y87624D01*
X13866Y87611D01*
X13925Y87590D01*
X13929D01*
X13937Y87586D01*
X13949Y87582D01*
X13970Y87574D01*
X13991Y87561D01*
X14020Y87549D01*
X14087Y87515D01*
X14166Y87474D01*
X14253Y87420D01*
X14345Y87357D01*
X14436Y87282D01*
X14440Y87278D01*
X14449Y87274D01*
X14461Y87262D01*
X14482Y87241D01*
X14503Y87220D01*
X14532Y87191D01*
X14565Y87162D01*
X14603Y87124D01*
X14644Y87083D01*
X14686Y87037D01*
X14736Y86987D01*
X14786Y86929D01*
X14840Y86871D01*
X14894Y86804D01*
X14952Y86737D01*
X15014Y86663D01*
X15019Y86654D01*
X15039Y86633D01*
X15064Y86604D01*
X15102Y86563D01*
X15143Y86513D01*
X15193Y86454D01*
X15247Y86388D01*
X15310Y86321D01*
X15439Y86180D01*
X15576Y86043D01*
X15643Y85976D01*
X15709Y85914D01*
X15771Y85860D01*
X15830Y85814D01*
X15834Y85810D01*
X15842Y85806D01*
X15859Y85793D01*
X15880Y85781D01*
X15909Y85760D01*
X15938Y85743D01*
X16013Y85702D01*
X16100Y85660D01*
X16196Y85623D01*
X16296Y85598D01*
X16346Y85593D01*
X16396Y85589D01*
X16400D01*
X16408D01*
X16425D01*
X16441Y85593D01*
X16466D01*
X16495Y85602D01*
X16558Y85614D01*
X16633Y85639D01*
X16712Y85677D01*
X16753Y85697D01*
X16791Y85726D01*
X16828Y85756D01*
X16866Y85793D01*
X16870Y85797D01*
X16874Y85801D01*
X16882Y85814D01*
X16895Y85831D01*
X16911Y85851D01*
X16928Y85876D01*
X16965Y85935D01*
X16999Y86014D01*
X17032Y86101D01*
X17053Y86205D01*
X17061Y86263D01*
Y86355D01*
X17057Y86380D01*
Y86409D01*
X17049Y86442D01*
X17036Y86517D01*
X17011Y86604D01*
X16974Y86696D01*
X16949Y86742D01*
X16924Y86787D01*
X16891Y86829D01*
X16853Y86871D01*
X16849Y86875D01*
X16845Y86879D01*
X16832Y86887D01*
X16816Y86904D01*
X16795Y86916D01*
X16770Y86933D01*
X16741Y86954D01*
X16707Y86970D01*
X16670Y86991D01*
X16628Y87008D01*
X16529Y87041D01*
X16420Y87066D01*
X16358Y87070D01*
X16292Y87074D01*
X16341Y87557D01*
X16350D01*
X16366Y87553D01*
X16391Y87549D01*
X16429Y87545D01*
X16475Y87536D01*
X16529Y87524D01*
X16587Y87511D01*
X16649Y87490D01*
X16712Y87470D01*
X16782Y87445D01*
X16849Y87411D01*
X16916Y87378D01*
X16986Y87336D01*
X17049Y87291D01*
X17111Y87241D01*
X17165Y87183D01*
X17169Y87178D01*
X17178Y87166D01*
X17190Y87149D01*
X17211Y87124D01*
X17232Y87091D01*
X17257Y87049D01*
X17282Y87004D01*
X17311Y86950D01*
X17336Y86891D01*
X17361Y86825D01*
X17386Y86754D01*
X17406Y86675D01*
X17427Y86592D01*
X17440Y86505D01*
X17448Y86409D01*
X17452Y86309D01*
Y86255D01*
X17448Y86217D01*
X17444Y86172D01*
X17436Y86118D01*
X17427Y86055D01*
X17415Y85993D01*
X17398Y85922D01*
X17377Y85851D01*
X17352Y85777D01*
X17323Y85706D01*
X17286Y85631D01*
X17244Y85560D01*
X17198Y85494D01*
X17144Y85431D01*
X17140Y85427D01*
X17132Y85419D01*
X17111Y85402D01*
X17090Y85381D01*
X17061Y85356D01*
X17024Y85327D01*
X16982Y85298D01*
X16932Y85269D01*
X16882Y85240D01*
X16824Y85211D01*
X16762Y85182D01*
X16695Y85157D01*
X16620Y85136D01*
X16545Y85119D01*
X16466Y85111D01*
X16383Y85107D01*
X16379D01*
X16375D01*
X16362D01*
X16346D01*
X16300Y85111D01*
X16242Y85119D01*
X16171Y85132D01*
X16096Y85148D01*
X16013Y85169D01*
X15930Y85202D01*
X15925D01*
X15921Y85207D01*
X15909Y85211D01*
X15892Y85219D01*
X15846Y85244D01*
X15788Y85277D01*
X15717Y85323D01*
X15638Y85377D01*
X15555Y85439D01*
X15464Y85519D01*
X15460Y85523D01*
X15451Y85527D01*
X15439Y85544D01*
X15418Y85560D01*
X15393Y85585D01*
X15364Y85614D01*
X15326Y85647D01*
X15289Y85689D01*
X15243Y85739D01*
X15193Y85793D01*
X15135Y85851D01*
X15077Y85918D01*
X15010Y85989D01*
X14944Y86068D01*
X14869Y86155D01*
X14790Y86247D01*
X14786Y86251D01*
X14773Y86263D01*
X14757Y86288D01*
X14731Y86313D01*
X14702Y86351D01*
X14669Y86388D01*
X14594Y86475D01*
X14515Y86567D01*
X14432Y86654D01*
X14395Y86696D01*
X14361Y86733D01*
X14328Y86766D01*
X14303Y86791D01*
X14299Y86796D01*
X14282Y86812D01*
X14257Y86833D01*
X14224Y86862D01*
X14187Y86896D01*
X14145Y86929D01*
X14053Y86995D01*
Y85102D01*
X13600D01*
Y87644D01*
X13608D01*
X13629D01*
X13662D01*
X13704Y87640D01*
D02*
G37*
G36*
X17506Y68510D02*
X17502Y68472D01*
Y68426D01*
X17498Y68381D01*
X17490Y68327D01*
X17477Y68218D01*
X17456Y68098D01*
X17427Y67985D01*
X17386Y67877D01*
Y67873D01*
X17381Y67865D01*
X17373Y67852D01*
X17365Y67832D01*
X17336Y67786D01*
X17298Y67723D01*
X17248Y67657D01*
X17186Y67590D01*
X17111Y67524D01*
X17028Y67461D01*
X17024D01*
X17015Y67453D01*
X17003Y67449D01*
X16986Y67436D01*
X16965Y67424D01*
X16936Y67411D01*
X16874Y67382D01*
X16799Y67357D01*
X16712Y67332D01*
X16620Y67316D01*
X16520Y67307D01*
X16516D01*
X16508D01*
X16495D01*
X16479D01*
X16433Y67316D01*
X16371Y67324D01*
X16300Y67341D01*
X16221Y67366D01*
X16142Y67399D01*
X16059Y67445D01*
X16054D01*
X16050Y67449D01*
X16038Y67457D01*
X16021Y67470D01*
X15984Y67499D01*
X15934Y67545D01*
X15880Y67599D01*
X15821Y67669D01*
X15763Y67748D01*
X15709Y67844D01*
Y67840D01*
X15705Y67827D01*
X15697Y67811D01*
X15688Y67786D01*
X15676Y67757D01*
X15663Y67723D01*
X15626Y67649D01*
X15580Y67561D01*
X15518Y67474D01*
X15447Y67386D01*
X15360Y67312D01*
X15356Y67307D01*
X15347Y67303D01*
X15335Y67295D01*
X15318Y67282D01*
X15293Y67266D01*
X15264Y67249D01*
X15231Y67233D01*
X15193Y67216D01*
X15110Y67183D01*
X15010Y67149D01*
X14898Y67128D01*
X14840Y67120D01*
X14777D01*
X14773D01*
X14765D01*
X14752D01*
X14731D01*
X14707Y67124D01*
X14682D01*
X14615Y67133D01*
X14536Y67149D01*
X14453Y67170D01*
X14361Y67199D01*
X14274Y67237D01*
X14270D01*
X14266Y67241D01*
X14253Y67249D01*
X14236Y67257D01*
X14195Y67282D01*
X14145Y67316D01*
X14087Y67353D01*
X14029Y67403D01*
X13970Y67457D01*
X13916Y67520D01*
X13912Y67528D01*
X13895Y67549D01*
X13875Y67586D01*
X13845Y67636D01*
X13816Y67694D01*
X13783Y67765D01*
X13754Y67848D01*
X13729Y67940D01*
Y67944D01*
X13725Y67952D01*
Y67965D01*
X13721Y67985D01*
X13716Y68010D01*
X13708Y68040D01*
X13704Y68073D01*
X13700Y68110D01*
X13691Y68152D01*
X13687Y68202D01*
X13675Y68306D01*
X13671Y68426D01*
X13667Y68560D01*
Y70020D01*
X17506D01*
Y68510D01*
D02*
G37*
G36*
X14744Y66138D02*
X14740D01*
X14727Y66134D01*
X14707Y66130D01*
X14677Y66122D01*
X14644Y66114D01*
X14607Y66105D01*
X14519Y66076D01*
X14424Y66039D01*
X14328Y65993D01*
X14241Y65935D01*
X14203Y65901D01*
X14166Y65868D01*
Y65864D01*
X14157Y65860D01*
X14149Y65847D01*
X14137Y65835D01*
X14112Y65793D01*
X14078Y65735D01*
X14045Y65664D01*
X14020Y65585D01*
X13999Y65490D01*
X13991Y65390D01*
Y65356D01*
X13995Y65331D01*
X13999Y65306D01*
X14004Y65269D01*
X14020Y65194D01*
X14045Y65103D01*
X14087Y65007D01*
X14116Y64961D01*
X14145Y64915D01*
X14178Y64870D01*
X14220Y64824D01*
X14224Y64820D01*
X14232Y64815D01*
X14245Y64803D01*
X14261Y64786D01*
X14282Y64770D01*
X14311Y64753D01*
X14341Y64732D01*
X14378Y64707D01*
X14461Y64666D01*
X14557Y64632D01*
X14669Y64603D01*
X14727Y64599D01*
X14790Y64595D01*
X14794D01*
X14802D01*
X14823D01*
X14844Y64599D01*
X14873Y64603D01*
X14902Y64608D01*
X14977Y64620D01*
X15064Y64649D01*
X15152Y64687D01*
X15198Y64711D01*
X15239Y64741D01*
X15281Y64774D01*
X15322Y64811D01*
X15326Y64815D01*
X15331Y64820D01*
X15343Y64832D01*
X15356Y64849D01*
X15372Y64870D01*
X15389Y64895D01*
X15430Y64957D01*
X15468Y65036D01*
X15501Y65127D01*
X15526Y65232D01*
X15530Y65290D01*
X15534Y65348D01*
Y65373D01*
X15530Y65402D01*
Y65439D01*
X15522Y65490D01*
X15514Y65544D01*
X15501Y65610D01*
X15484Y65681D01*
X15896Y65631D01*
Y65623D01*
X15892Y65602D01*
X15888Y65577D01*
Y65523D01*
X15892Y65502D01*
Y65473D01*
X15896Y65444D01*
X15909Y65373D01*
X15925Y65290D01*
X15955Y65198D01*
X15992Y65103D01*
X16046Y65011D01*
Y65007D01*
X16054Y64999D01*
X16063Y64990D01*
X16075Y64974D01*
X16113Y64932D01*
X16167Y64886D01*
X16233Y64845D01*
X16317Y64803D01*
X16362Y64786D01*
X16416Y64778D01*
X16470Y64770D01*
X16529Y64766D01*
X16533D01*
X16541D01*
X16554D01*
X16574Y64770D01*
X16620Y64774D01*
X16683Y64786D01*
X16749Y64807D01*
X16820Y64841D01*
X16895Y64886D01*
X16928Y64911D01*
X16961Y64944D01*
X16970Y64953D01*
X16986Y64978D01*
X17015Y65015D01*
X17049Y65065D01*
X17078Y65132D01*
X17107Y65211D01*
X17123Y65298D01*
X17132Y65398D01*
Y65423D01*
X17128Y65444D01*
Y65469D01*
X17123Y65494D01*
X17111Y65560D01*
X17090Y65631D01*
X17057Y65710D01*
X17015Y65785D01*
X16957Y65860D01*
X16949Y65868D01*
X16924Y65889D01*
X16886Y65922D01*
X16828Y65955D01*
X16758Y65997D01*
X16666Y66034D01*
X16562Y66068D01*
X16441Y66093D01*
X16524Y66563D01*
X16529D01*
X16545Y66559D01*
X16570Y66554D01*
X16603Y66546D01*
X16641Y66534D01*
X16687Y66521D01*
X16737Y66505D01*
X16791Y66484D01*
X16911Y66430D01*
X16970Y66400D01*
X17032Y66363D01*
X17090Y66321D01*
X17149Y66276D01*
X17207Y66226D01*
X17257Y66172D01*
X17261Y66168D01*
X17269Y66159D01*
X17282Y66138D01*
X17298Y66118D01*
X17319Y66084D01*
X17340Y66051D01*
X17365Y66009D01*
X17390Y65960D01*
X17411Y65910D01*
X17436Y65851D01*
X17456Y65789D01*
X17477Y65722D01*
X17494Y65648D01*
X17506Y65573D01*
X17515Y65494D01*
X17519Y65410D01*
Y65356D01*
X17515Y65327D01*
X17510Y65298D01*
X17502Y65219D01*
X17485Y65132D01*
X17460Y65032D01*
X17427Y64932D01*
X17381Y64832D01*
Y64828D01*
X17377Y64820D01*
X17369Y64807D01*
X17357Y64786D01*
X17327Y64741D01*
X17286Y64682D01*
X17232Y64616D01*
X17169Y64549D01*
X17099Y64483D01*
X17015Y64425D01*
X17011D01*
X17007Y64420D01*
X16990Y64412D01*
X16974Y64404D01*
X16953Y64391D01*
X16928Y64379D01*
X16866Y64354D01*
X16791Y64329D01*
X16707Y64304D01*
X16616Y64287D01*
X16520Y64283D01*
X16516D01*
X16508D01*
X16495D01*
X16479D01*
X16429Y64291D01*
X16371Y64300D01*
X16300Y64316D01*
X16225Y64341D01*
X16146Y64375D01*
X16067Y64420D01*
X16063D01*
X16059Y64425D01*
X16034Y64445D01*
X15996Y64474D01*
X15950Y64520D01*
X15896Y64574D01*
X15842Y64645D01*
X15792Y64724D01*
X15742Y64815D01*
Y64811D01*
X15738Y64799D01*
X15734Y64782D01*
X15726Y64757D01*
X15717Y64732D01*
X15705Y64699D01*
X15672Y64620D01*
X15626Y64537D01*
X15572Y64450D01*
X15501Y64362D01*
X15414Y64287D01*
X15410Y64283D01*
X15401Y64279D01*
X15389Y64271D01*
X15368Y64258D01*
X15347Y64241D01*
X15318Y64225D01*
X15285Y64208D01*
X15243Y64192D01*
X15202Y64175D01*
X15156Y64158D01*
X15052Y64125D01*
X14931Y64104D01*
X14865Y64096D01*
X14798D01*
X14794D01*
X14777D01*
X14748Y64100D01*
X14715D01*
X14669Y64108D01*
X14619Y64117D01*
X14565Y64125D01*
X14503Y64142D01*
X14436Y64162D01*
X14370Y64187D01*
X14299Y64217D01*
X14228Y64254D01*
X14153Y64296D01*
X14083Y64346D01*
X14012Y64399D01*
X13945Y64466D01*
X13941Y64470D01*
X13929Y64483D01*
X13912Y64504D01*
X13891Y64533D01*
X13866Y64566D01*
X13837Y64612D01*
X13804Y64662D01*
X13775Y64720D01*
X13742Y64782D01*
X13708Y64853D01*
X13679Y64928D01*
X13654Y65011D01*
X13633Y65098D01*
X13617Y65190D01*
X13604Y65286D01*
X13600Y65390D01*
Y65410D01*
X13604Y65439D01*
Y65473D01*
X13608Y65519D01*
X13617Y65569D01*
X13625Y65623D01*
X13637Y65685D01*
X13654Y65751D01*
X13675Y65818D01*
X13696Y65889D01*
X13725Y65960D01*
X13762Y66030D01*
X13800Y66097D01*
X13845Y66168D01*
X13900Y66230D01*
X13904Y66234D01*
X13912Y66242D01*
X13929Y66259D01*
X13954Y66284D01*
X13983Y66309D01*
X14020Y66338D01*
X14062Y66367D01*
X14112Y66400D01*
X14162Y66434D01*
X14224Y66467D01*
X14286Y66500D01*
X14357Y66530D01*
X14432Y66554D01*
X14511Y66579D01*
X14594Y66596D01*
X14682Y66609D01*
X14744Y66138D01*
D02*
G37*
G36*
X17440Y48715D02*
X17436Y48678D01*
Y48632D01*
X17431Y48586D01*
X17423Y48532D01*
X17411Y48424D01*
X17390Y48303D01*
X17361Y48191D01*
X17319Y48083D01*
Y48079D01*
X17315Y48070D01*
X17307Y48058D01*
X17298Y48037D01*
X17269Y47991D01*
X17232Y47929D01*
X17182Y47862D01*
X17119Y47796D01*
X17044Y47729D01*
X16961Y47667D01*
X16957D01*
X16949Y47659D01*
X16936Y47655D01*
X16920Y47642D01*
X16899Y47630D01*
X16870Y47617D01*
X16807Y47588D01*
X16733Y47563D01*
X16645Y47538D01*
X16554Y47521D01*
X16454Y47513D01*
X16450D01*
X16441D01*
X16429D01*
X16412D01*
X16366Y47521D01*
X16304Y47530D01*
X16233Y47546D01*
X16154Y47571D01*
X16075Y47605D01*
X15992Y47650D01*
X15988D01*
X15984Y47655D01*
X15971Y47663D01*
X15955Y47675D01*
X15917Y47704D01*
X15867Y47750D01*
X15813Y47804D01*
X15755Y47875D01*
X15697Y47954D01*
X15643Y48050D01*
Y48046D01*
X15638Y48033D01*
X15630Y48016D01*
X15622Y47991D01*
X15609Y47962D01*
X15597Y47929D01*
X15559Y47854D01*
X15514Y47767D01*
X15451Y47679D01*
X15381Y47592D01*
X15293Y47517D01*
X15289Y47513D01*
X15281Y47509D01*
X15268Y47501D01*
X15251Y47488D01*
X15227Y47471D01*
X15197Y47455D01*
X15164Y47438D01*
X15127Y47422D01*
X15044Y47388D01*
X14944Y47355D01*
X14831Y47334D01*
X14773Y47326D01*
X14711D01*
X14707D01*
X14698D01*
X14686D01*
X14665D01*
X14640Y47330D01*
X14615D01*
X14548Y47338D01*
X14469Y47355D01*
X14386Y47376D01*
X14295Y47405D01*
X14207Y47442D01*
X14203D01*
X14199Y47447D01*
X14187Y47455D01*
X14170Y47463D01*
X14128Y47488D01*
X14078Y47521D01*
X14020Y47559D01*
X13962Y47609D01*
X13904Y47663D01*
X13850Y47725D01*
X13845Y47734D01*
X13829Y47754D01*
X13808Y47792D01*
X13779Y47842D01*
X13750Y47900D01*
X13716Y47971D01*
X13687Y48054D01*
X13662Y48145D01*
Y48149D01*
X13658Y48158D01*
Y48170D01*
X13654Y48191D01*
X13650Y48216D01*
X13642Y48245D01*
X13637Y48278D01*
X13633Y48316D01*
X13625Y48357D01*
X13621Y48408D01*
X13608Y48511D01*
X13604Y48632D01*
X13600Y48765D01*
Y50225D01*
X17440D01*
Y48715D01*
D02*
G37*
G36*
Y45221D02*
Y44834D01*
X14952D01*
Y44314D01*
X14519D01*
Y44834D01*
X13600D01*
Y45304D01*
X14519D01*
Y46976D01*
X14952D01*
X17440Y45221D01*
D02*
G37*
G36*
X17502Y28215D02*
X17498Y28178D01*
Y28132D01*
X17494Y28086D01*
X17485Y28032D01*
X17473Y27924D01*
X17452Y27804D01*
X17423Y27691D01*
X17381Y27583D01*
Y27579D01*
X17377Y27571D01*
X17369Y27558D01*
X17361Y27537D01*
X17332Y27492D01*
X17294Y27429D01*
X17244Y27362D01*
X17182Y27296D01*
X17107Y27229D01*
X17024Y27167D01*
X17019D01*
X17011Y27159D01*
X16999Y27154D01*
X16982Y27142D01*
X16961Y27130D01*
X16932Y27117D01*
X16870Y27088D01*
X16795Y27063D01*
X16707Y27038D01*
X16616Y27021D01*
X16516Y27013D01*
X16512D01*
X16504D01*
X16491D01*
X16475D01*
X16429Y27021D01*
X16366Y27030D01*
X16296Y27046D01*
X16217Y27071D01*
X16138Y27105D01*
X16054Y27150D01*
X16050D01*
X16046Y27154D01*
X16034Y27163D01*
X16017Y27175D01*
X15980Y27204D01*
X15930Y27250D01*
X15876Y27304D01*
X15817Y27375D01*
X15759Y27454D01*
X15705Y27550D01*
Y27546D01*
X15701Y27533D01*
X15692Y27516D01*
X15684Y27492D01*
X15672Y27462D01*
X15659Y27429D01*
X15622Y27354D01*
X15576Y27267D01*
X15514Y27180D01*
X15443Y27092D01*
X15356Y27017D01*
X15351Y27013D01*
X15343Y27009D01*
X15331Y27001D01*
X15314Y26988D01*
X15289Y26972D01*
X15260Y26955D01*
X15227Y26938D01*
X15189Y26922D01*
X15106Y26888D01*
X15006Y26855D01*
X14894Y26834D01*
X14836Y26826D01*
X14773D01*
X14769D01*
X14761D01*
X14748D01*
X14727D01*
X14702Y26830D01*
X14677D01*
X14611Y26838D01*
X14532Y26855D01*
X14449Y26876D01*
X14357Y26905D01*
X14270Y26942D01*
X14266D01*
X14261Y26946D01*
X14249Y26955D01*
X14232Y26963D01*
X14191Y26988D01*
X14141Y27021D01*
X14083Y27059D01*
X14024Y27109D01*
X13966Y27163D01*
X13912Y27225D01*
X13908Y27234D01*
X13891Y27254D01*
X13870Y27292D01*
X13841Y27342D01*
X13812Y27400D01*
X13779Y27471D01*
X13750Y27554D01*
X13725Y27645D01*
Y27650D01*
X13721Y27658D01*
Y27670D01*
X13716Y27691D01*
X13712Y27716D01*
X13704Y27745D01*
X13700Y27779D01*
X13696Y27816D01*
X13687Y27858D01*
X13683Y27907D01*
X13671Y28012D01*
X13667Y28132D01*
X13662Y28265D01*
Y29725D01*
X17502D01*
Y28215D01*
D02*
G37*
G36*
X14707Y25819D02*
X14702D01*
X14690Y25815D01*
X14673Y25811D01*
X14648Y25807D01*
X14619Y25802D01*
X14582Y25790D01*
X14503Y25769D01*
X14415Y25736D01*
X14324Y25690D01*
X14241Y25636D01*
X14203Y25603D01*
X14166Y25570D01*
Y25565D01*
X14157Y25561D01*
X14149Y25549D01*
X14137Y25532D01*
X14108Y25490D01*
X14078Y25432D01*
X14045Y25362D01*
X14016Y25278D01*
X13995Y25187D01*
X13991Y25137D01*
X13987Y25083D01*
Y25050D01*
X13991Y25025D01*
X13995Y24995D01*
X13999Y24962D01*
X14020Y24883D01*
X14049Y24792D01*
X14070Y24746D01*
X14095Y24696D01*
X14124Y24646D01*
X14157Y24600D01*
X14195Y24554D01*
X14241Y24509D01*
X14245Y24505D01*
X14253Y24500D01*
X14266Y24488D01*
X14286Y24471D01*
X14315Y24455D01*
X14345Y24434D01*
X14382Y24413D01*
X14424Y24388D01*
X14469Y24367D01*
X14519Y24347D01*
X14578Y24326D01*
X14636Y24309D01*
X14702Y24292D01*
X14773Y24280D01*
X14844Y24276D01*
X14923Y24272D01*
X14927D01*
X14940D01*
X14960D01*
X14989Y24276D01*
X15023Y24280D01*
X15064Y24284D01*
X15106Y24292D01*
X15156Y24301D01*
X15256Y24326D01*
X15364Y24367D01*
X15414Y24392D01*
X15464Y24426D01*
X15514Y24459D01*
X15559Y24500D01*
X15563Y24505D01*
X15568Y24509D01*
X15580Y24525D01*
X15597Y24542D01*
X15613Y24563D01*
X15634Y24592D01*
X15655Y24621D01*
X15680Y24658D01*
X15701Y24700D01*
X15722Y24742D01*
X15759Y24846D01*
X15776Y24900D01*
X15788Y24962D01*
X15792Y25025D01*
X15797Y25091D01*
Y25129D01*
X15792Y25174D01*
X15784Y25229D01*
X15771Y25295D01*
X15751Y25366D01*
X15726Y25436D01*
X15688Y25507D01*
X15684Y25515D01*
X15672Y25536D01*
X15647Y25570D01*
X15618Y25611D01*
X15576Y25653D01*
X15530Y25703D01*
X15476Y25749D01*
X15418Y25790D01*
X15480Y26231D01*
X17452Y25861D01*
Y23951D01*
X17003D01*
Y25486D01*
X15971Y25690D01*
X15975Y25686D01*
X15984Y25674D01*
X15992Y25657D01*
X16009Y25632D01*
X16025Y25599D01*
X16046Y25561D01*
X16071Y25520D01*
X16092Y25470D01*
X16113Y25420D01*
X16138Y25362D01*
X16175Y25241D01*
X16192Y25174D01*
X16204Y25108D01*
X16208Y25037D01*
X16213Y24966D01*
Y24946D01*
X16208Y24916D01*
Y24883D01*
X16200Y24842D01*
X16196Y24792D01*
X16183Y24733D01*
X16171Y24675D01*
X16150Y24609D01*
X16129Y24542D01*
X16100Y24471D01*
X16067Y24401D01*
X16025Y24330D01*
X15980Y24259D01*
X15925Y24189D01*
X15863Y24122D01*
X15859Y24118D01*
X15846Y24105D01*
X15826Y24089D01*
X15801Y24068D01*
X15767Y24039D01*
X15722Y24010D01*
X15676Y23980D01*
X15622Y23947D01*
X15559Y23914D01*
X15489Y23885D01*
X15418Y23852D01*
X15335Y23826D01*
X15251Y23806D01*
X15160Y23789D01*
X15064Y23777D01*
X14965Y23773D01*
X14960D01*
X14940D01*
X14915D01*
X14877Y23777D01*
X14831Y23781D01*
X14782Y23789D01*
X14723Y23797D01*
X14657Y23810D01*
X14590Y23826D01*
X14515Y23847D01*
X14440Y23872D01*
X14366Y23901D01*
X14291Y23935D01*
X14211Y23976D01*
X14137Y24022D01*
X14066Y24076D01*
X14062Y24080D01*
X14045Y24093D01*
X14024Y24114D01*
X13995Y24143D01*
X13958Y24180D01*
X13920Y24226D01*
X13875Y24280D01*
X13833Y24342D01*
X13791Y24409D01*
X13746Y24484D01*
X13708Y24567D01*
X13675Y24658D01*
X13642Y24754D01*
X13621Y24858D01*
X13604Y24966D01*
X13600Y25083D01*
Y25133D01*
X13604Y25170D01*
X13608Y25216D01*
X13617Y25266D01*
X13625Y25324D01*
X13637Y25387D01*
X13650Y25453D01*
X13671Y25524D01*
X13696Y25594D01*
X13725Y25665D01*
X13758Y25736D01*
X13795Y25807D01*
X13841Y25873D01*
X13891Y25940D01*
X13895Y25944D01*
X13904Y25952D01*
X13920Y25969D01*
X13945Y25990D01*
X13974Y26019D01*
X14008Y26048D01*
X14049Y26077D01*
X14099Y26110D01*
X14149Y26144D01*
X14207Y26177D01*
X14274Y26206D01*
X14341Y26235D01*
X14415Y26264D01*
X14494Y26285D01*
X14582Y26302D01*
X14669Y26314D01*
X14707Y25819D01*
D02*
G37*
G36*
X17502Y9215D02*
X17498Y9178D01*
Y9132D01*
X17494Y9086D01*
X17485Y9032D01*
X17473Y8924D01*
X17452Y8804D01*
X17423Y8691D01*
X17381Y8583D01*
Y8579D01*
X17377Y8570D01*
X17369Y8558D01*
X17361Y8537D01*
X17332Y8491D01*
X17294Y8429D01*
X17244Y8363D01*
X17182Y8296D01*
X17107Y8229D01*
X17024Y8167D01*
X17019D01*
X17011Y8159D01*
X16999Y8155D01*
X16982Y8142D01*
X16961Y8130D01*
X16932Y8117D01*
X16870Y8088D01*
X16795Y8063D01*
X16707Y8038D01*
X16616Y8021D01*
X16516Y8013D01*
X16512D01*
X16504D01*
X16491D01*
X16475D01*
X16429Y8021D01*
X16366Y8030D01*
X16296Y8046D01*
X16217Y8071D01*
X16138Y8105D01*
X16054Y8150D01*
X16050D01*
X16046Y8155D01*
X16034Y8163D01*
X16017Y8175D01*
X15980Y8204D01*
X15930Y8250D01*
X15876Y8304D01*
X15817Y8375D01*
X15759Y8454D01*
X15705Y8550D01*
Y8546D01*
X15701Y8533D01*
X15692Y8517D01*
X15684Y8491D01*
X15672Y8462D01*
X15659Y8429D01*
X15622Y8354D01*
X15576Y8267D01*
X15514Y8179D01*
X15443Y8092D01*
X15356Y8017D01*
X15351Y8013D01*
X15343Y8009D01*
X15331Y8001D01*
X15314Y7988D01*
X15289Y7971D01*
X15260Y7955D01*
X15227Y7938D01*
X15189Y7922D01*
X15106Y7888D01*
X15006Y7855D01*
X14894Y7834D01*
X14836Y7826D01*
X14773D01*
X14769D01*
X14761D01*
X14748D01*
X14727D01*
X14702Y7830D01*
X14677D01*
X14611Y7838D01*
X14532Y7855D01*
X14449Y7876D01*
X14357Y7905D01*
X14270Y7942D01*
X14266D01*
X14261Y7947D01*
X14249Y7955D01*
X14232Y7963D01*
X14191Y7988D01*
X14141Y8021D01*
X14083Y8059D01*
X14024Y8109D01*
X13966Y8163D01*
X13912Y8225D01*
X13908Y8234D01*
X13891Y8254D01*
X13870Y8292D01*
X13841Y8342D01*
X13812Y8400D01*
X13779Y8471D01*
X13750Y8554D01*
X13725Y8645D01*
Y8650D01*
X13721Y8658D01*
Y8670D01*
X13716Y8691D01*
X13712Y8716D01*
X13704Y8745D01*
X13700Y8778D01*
X13696Y8816D01*
X13687Y8858D01*
X13683Y8907D01*
X13671Y9012D01*
X13667Y9132D01*
X13662Y9265D01*
Y10725D01*
X17502D01*
Y9215D01*
D02*
G37*
G36*
X15563Y7335D02*
X15597D01*
X15638Y7331D01*
X15730Y7327D01*
X15834Y7318D01*
X15950Y7306D01*
X16075Y7289D01*
X16208Y7264D01*
X16341Y7239D01*
X16475Y7206D01*
X16608Y7164D01*
X16737Y7119D01*
X16861Y7065D01*
X16974Y6998D01*
X17074Y6927D01*
X17078Y6923D01*
X17094Y6911D01*
X17115Y6890D01*
X17144Y6861D01*
X17178Y6827D01*
X17215Y6782D01*
X17253Y6732D01*
X17294Y6674D01*
X17336Y6607D01*
X17373Y6532D01*
X17411Y6453D01*
X17444Y6366D01*
X17473Y6274D01*
X17494Y6174D01*
X17510Y6070D01*
X17515Y5958D01*
Y5912D01*
X17510Y5883D01*
X17506Y5846D01*
X17502Y5800D01*
X17494Y5750D01*
X17481Y5696D01*
X17452Y5575D01*
X17431Y5517D01*
X17406Y5451D01*
X17377Y5388D01*
X17340Y5330D01*
X17302Y5272D01*
X17257Y5213D01*
X17253Y5209D01*
X17244Y5201D01*
X17232Y5184D01*
X17211Y5168D01*
X17186Y5143D01*
X17153Y5118D01*
X17115Y5089D01*
X17074Y5060D01*
X17028Y5030D01*
X16974Y5001D01*
X16916Y4972D01*
X16853Y4943D01*
X16787Y4918D01*
X16716Y4897D01*
X16641Y4876D01*
X16558Y4864D01*
X16520Y5334D01*
X16524D01*
X16533Y5338D01*
X16545Y5342D01*
X16566Y5347D01*
X16616Y5359D01*
X16674Y5380D01*
X16741Y5405D01*
X16807Y5438D01*
X16870Y5471D01*
X16924Y5513D01*
X16928Y5517D01*
X16932Y5521D01*
X16945Y5534D01*
X16957Y5546D01*
X16990Y5588D01*
X17028Y5646D01*
X17065Y5713D01*
X17094Y5796D01*
X17119Y5887D01*
X17123Y5937D01*
X17128Y5987D01*
Y6025D01*
X17119Y6070D01*
X17111Y6125D01*
X17094Y6187D01*
X17074Y6253D01*
X17040Y6320D01*
X16999Y6386D01*
Y6391D01*
X16990Y6395D01*
X16982Y6407D01*
X16970Y6424D01*
X16932Y6461D01*
X16878Y6511D01*
X16812Y6570D01*
X16728Y6628D01*
X16633Y6682D01*
X16524Y6736D01*
X16520D01*
X16512Y6740D01*
X16491Y6748D01*
X16466Y6757D01*
X16437Y6765D01*
X16396Y6778D01*
X16350Y6790D01*
X16300Y6803D01*
X16242Y6815D01*
X16175Y6823D01*
X16100Y6836D01*
X16021Y6848D01*
X15938Y6857D01*
X15846Y6861D01*
X15747Y6865D01*
X15647Y6869D01*
X15655Y6861D01*
X15667Y6853D01*
X15684Y6840D01*
X15730Y6803D01*
X15788Y6757D01*
X15851Y6694D01*
X15913Y6624D01*
X15971Y6545D01*
X16025Y6457D01*
Y6453D01*
X16029Y6445D01*
X16038Y6432D01*
X16046Y6416D01*
X16054Y6391D01*
X16067Y6366D01*
X16092Y6299D01*
X16113Y6220D01*
X16133Y6133D01*
X16150Y6037D01*
X16154Y5937D01*
Y5916D01*
X16150Y5892D01*
Y5858D01*
X16142Y5817D01*
X16138Y5771D01*
X16125Y5717D01*
X16113Y5658D01*
X16092Y5600D01*
X16071Y5534D01*
X16042Y5467D01*
X16009Y5401D01*
X15967Y5330D01*
X15921Y5263D01*
X15867Y5197D01*
X15805Y5134D01*
X15801Y5130D01*
X15788Y5122D01*
X15771Y5105D01*
X15742Y5080D01*
X15709Y5055D01*
X15667Y5030D01*
X15618Y4997D01*
X15563Y4968D01*
X15501Y4939D01*
X15435Y4906D01*
X15360Y4881D01*
X15281Y4851D01*
X15198Y4831D01*
X15106Y4814D01*
X15010Y4806D01*
X14910Y4802D01*
X14906D01*
X14894D01*
X14877D01*
X14848Y4806D01*
X14819D01*
X14782Y4810D01*
X14736Y4814D01*
X14690Y4822D01*
X14586Y4839D01*
X14474Y4868D01*
X14357Y4906D01*
X14236Y4960D01*
X14232D01*
X14224Y4968D01*
X14207Y4976D01*
X14187Y4989D01*
X14162Y5005D01*
X14132Y5022D01*
X14062Y5072D01*
X13987Y5130D01*
X13908Y5205D01*
X13829Y5293D01*
X13762Y5388D01*
Y5392D01*
X13754Y5401D01*
X13746Y5417D01*
X13737Y5438D01*
X13725Y5463D01*
X13712Y5492D01*
X13696Y5530D01*
X13683Y5567D01*
X13650Y5658D01*
X13625Y5767D01*
X13608Y5883D01*
X13600Y6008D01*
Y6033D01*
X13604Y6066D01*
X13608Y6108D01*
X13612Y6158D01*
X13625Y6216D01*
X13637Y6278D01*
X13654Y6349D01*
X13679Y6424D01*
X13704Y6503D01*
X13742Y6582D01*
X13783Y6661D01*
X13833Y6744D01*
X13891Y6819D01*
X13958Y6898D01*
X14033Y6969D01*
X14037Y6973D01*
X14053Y6986D01*
X14078Y7002D01*
X14116Y7027D01*
X14162Y7056D01*
X14220Y7085D01*
X14291Y7119D01*
X14374Y7152D01*
X14465Y7189D01*
X14569Y7223D01*
X14686Y7252D01*
X14815Y7281D01*
X14956Y7306D01*
X15110Y7322D01*
X15277Y7335D01*
X15455Y7339D01*
X15460D01*
X15468D01*
X15484D01*
X15505D01*
X15530D01*
X15563Y7335D01*
D02*
G37*
G36*
X184832Y144873D02*
X184879Y144804D01*
X184932Y144739D01*
X184985Y144683D01*
X185032Y144629D01*
X185054Y144611D01*
X185070Y144592D01*
X185085Y144576D01*
X185098Y144567D01*
X185104Y144561D01*
X185107Y144558D01*
X185191Y144486D01*
X185282Y144423D01*
X185369Y144364D01*
X185450Y144314D01*
X185484Y144296D01*
X185519Y144277D01*
X185550Y144258D01*
X185575Y144246D01*
X185597Y144236D01*
X185612Y144227D01*
X185622Y144224D01*
X185625Y144221D01*
Y143881D01*
X185562Y143906D01*
X185497Y143934D01*
X185434Y143965D01*
X185378Y143993D01*
X185328Y144021D01*
X185307Y144030D01*
X185288Y144043D01*
X185272Y144049D01*
X185263Y144055D01*
X185257Y144062D01*
X185254D01*
X185179Y144108D01*
X185113Y144152D01*
X185054Y144193D01*
X185007Y144230D01*
X184967Y144261D01*
X184938Y144283D01*
X184923Y144299D01*
X184917Y144305D01*
Y142055D01*
X184564D01*
Y144945D01*
X184792D01*
X184832Y144873D01*
D02*
G37*
G36*
X188436Y142055D02*
X188055D01*
Y143225D01*
X187319D01*
X187207Y143229D01*
X187107Y143238D01*
X187013Y143250D01*
X186926Y143266D01*
X186851Y143285D01*
X186779Y143307D01*
X186720Y143328D01*
X186664Y143353D01*
X186617Y143375D01*
X186576Y143397D01*
X186542Y143419D01*
X186517Y143438D01*
X186495Y143456D01*
X186483Y143469D01*
X186474Y143475D01*
X186470Y143478D01*
X186430Y143528D01*
X186392Y143578D01*
X186361Y143631D01*
X186336Y143684D01*
X186311Y143737D01*
X186293Y143787D01*
X186277Y143837D01*
X186264Y143884D01*
X186255Y143931D01*
X186249Y143971D01*
X186243Y144005D01*
X186240Y144037D01*
X186236Y144065D01*
Y144083D01*
Y144096D01*
Y144099D01*
X186240Y144177D01*
X186249Y144252D01*
X186264Y144317D01*
X186280Y144377D01*
X186299Y144423D01*
X186305Y144445D01*
X186311Y144461D01*
X186318Y144473D01*
X186324Y144483D01*
X186327Y144489D01*
Y144492D01*
X186361Y144558D01*
X186399Y144611D01*
X186439Y144661D01*
X186474Y144698D01*
X186508Y144729D01*
X186533Y144751D01*
X186551Y144767D01*
X186555Y144770D01*
X186558D01*
X186614Y144804D01*
X186673Y144832D01*
X186732Y144857D01*
X186789Y144876D01*
X186838Y144892D01*
X186860Y144895D01*
X186879Y144901D01*
X186892Y144904D01*
X186904D01*
X186910Y144907D01*
X186913D01*
X186942Y144913D01*
X186976Y144916D01*
X187044Y144923D01*
X187116Y144929D01*
X187188Y144932D01*
X187250Y144935D01*
X188436D01*
Y142055D01*
D02*
G37*
%LPC*%
G36*
X17078Y138504D02*
X15809D01*
Y137355D01*
X15813Y137326D01*
Y137293D01*
X15817Y137214D01*
X15826Y137127D01*
X15838Y137035D01*
X15855Y136948D01*
X15880Y136869D01*
Y136865D01*
X15884Y136860D01*
X15892Y136836D01*
X15909Y136802D01*
X15934Y136756D01*
X15967Y136711D01*
X16004Y136661D01*
X16054Y136611D01*
X16108Y136569D01*
X16117Y136565D01*
X16138Y136553D01*
X16167Y136536D01*
X16213Y136515D01*
X16262Y136498D01*
X16321Y136482D01*
X16387Y136469D01*
X16454Y136465D01*
X16458D01*
X16466D01*
X16479D01*
X16499Y136469D01*
X16520D01*
X16549Y136474D01*
X16612Y136490D01*
X16683Y136515D01*
X16758Y136548D01*
X16828Y136598D01*
X16866Y136632D01*
X16899Y136665D01*
X16903Y136669D01*
X16907Y136673D01*
X16916Y136686D01*
X16928Y136702D01*
X16940Y136723D01*
X16957Y136752D01*
X16974Y136781D01*
X16990Y136819D01*
X17007Y136860D01*
X17019Y136906D01*
X17036Y136956D01*
X17049Y137010D01*
X17061Y137073D01*
X17070Y137139D01*
X17078Y137210D01*
Y138504D01*
D02*
G37*
G36*
X15555Y134851D02*
X15551D01*
X15543D01*
X15530D01*
X15514D01*
X15493D01*
X15464D01*
X15401Y134847D01*
X15326Y134843D01*
X15239Y134839D01*
X15143Y134835D01*
X15044Y134822D01*
X14831Y134797D01*
X14727Y134780D01*
X14623Y134760D01*
X14528Y134735D01*
X14440Y134701D01*
X14361Y134668D01*
X14295Y134631D01*
X14291Y134626D01*
X14282Y134622D01*
X14266Y134610D01*
X14245Y134589D01*
X14224Y134568D01*
X14199Y134543D01*
X14141Y134481D01*
X14083Y134402D01*
X14037Y134306D01*
X14016Y134256D01*
X13999Y134202D01*
X13991Y134144D01*
X13987Y134086D01*
Y134073D01*
X13991Y134052D01*
Y134032D01*
X13995Y134002D01*
X14004Y133969D01*
X14024Y133894D01*
X14041Y133853D01*
X14062Y133811D01*
X14087Y133765D01*
X14120Y133720D01*
X14153Y133674D01*
X14195Y133628D01*
X14245Y133582D01*
X14299Y133541D01*
X14303Y133537D01*
X14315Y133532D01*
X14332Y133520D01*
X14361Y133508D01*
X14399Y133487D01*
X14449Y133470D01*
X14507Y133449D01*
X14573Y133428D01*
X14652Y133408D01*
X14744Y133387D01*
X14844Y133366D01*
X14960Y133349D01*
X15089Y133337D01*
X15231Y133324D01*
X15385Y133320D01*
X15555Y133316D01*
X15559D01*
X15568D01*
X15580D01*
X15597D01*
X15618D01*
X15643D01*
X15709Y133320D01*
X15784Y133324D01*
X15871Y133329D01*
X15967Y133333D01*
X16067Y133345D01*
X16279Y133370D01*
X16383Y133391D01*
X16483Y133412D01*
X16579Y133437D01*
X16670Y133466D01*
X16745Y133499D01*
X16812Y133541D01*
X16816Y133545D01*
X16824Y133549D01*
X16841Y133562D01*
X16861Y133578D01*
X16882Y133603D01*
X16911Y133628D01*
X16940Y133657D01*
X16970Y133691D01*
X17024Y133770D01*
X17074Y133865D01*
X17094Y133915D01*
X17111Y133973D01*
X17119Y134028D01*
X17123Y134090D01*
Y134119D01*
X17119Y134144D01*
X17115Y134169D01*
X17111Y134202D01*
X17090Y134277D01*
X17057Y134360D01*
X17036Y134402D01*
X17007Y134448D01*
X16978Y134489D01*
X16940Y134531D01*
X16899Y134572D01*
X16849Y134610D01*
X16845Y134614D01*
X16832Y134618D01*
X16812Y134631D01*
X16778Y134647D01*
X16737Y134664D01*
X16687Y134685D01*
X16628Y134710D01*
X16554Y134731D01*
X16470Y134751D01*
X16379Y134776D01*
X16271Y134797D01*
X16154Y134814D01*
X16025Y134830D01*
X15880Y134839D01*
X15726Y134847D01*
X15555Y134851D01*
D02*
G37*
G36*
X17015Y119504D02*
X15747D01*
Y118356D01*
X15751Y118326D01*
Y118293D01*
X15755Y118214D01*
X15763Y118127D01*
X15776Y118035D01*
X15792Y117948D01*
X15817Y117869D01*
Y117865D01*
X15821Y117860D01*
X15830Y117835D01*
X15846Y117802D01*
X15871Y117756D01*
X15905Y117711D01*
X15942Y117661D01*
X15992Y117611D01*
X16046Y117569D01*
X16054Y117565D01*
X16075Y117553D01*
X16104Y117536D01*
X16150Y117515D01*
X16200Y117499D01*
X16258Y117482D01*
X16325Y117469D01*
X16391Y117465D01*
X16396D01*
X16404D01*
X16416D01*
X16437Y117469D01*
X16458D01*
X16487Y117474D01*
X16549Y117490D01*
X16620Y117515D01*
X16695Y117548D01*
X16766Y117598D01*
X16803Y117632D01*
X16837Y117665D01*
X16841Y117669D01*
X16845Y117673D01*
X16853Y117686D01*
X16866Y117702D01*
X16878Y117723D01*
X16895Y117752D01*
X16911Y117781D01*
X16928Y117819D01*
X16945Y117860D01*
X16957Y117906D01*
X16974Y117956D01*
X16986Y118010D01*
X16999Y118073D01*
X17007Y118139D01*
X17015Y118210D01*
Y119504D01*
D02*
G37*
G36*
Y99767D02*
X15747D01*
Y98619D01*
X15751Y98590D01*
Y98557D01*
X15755Y98478D01*
X15763Y98390D01*
X15776Y98299D01*
X15792Y98211D01*
X15817Y98132D01*
Y98128D01*
X15821Y98124D01*
X15830Y98099D01*
X15846Y98066D01*
X15871Y98020D01*
X15905Y97974D01*
X15942Y97924D01*
X15992Y97874D01*
X16046Y97833D01*
X16054Y97829D01*
X16075Y97816D01*
X16104Y97799D01*
X16150Y97779D01*
X16200Y97762D01*
X16258Y97745D01*
X16325Y97733D01*
X16391Y97729D01*
X16396D01*
X16404D01*
X16416D01*
X16437Y97733D01*
X16458D01*
X16487Y97737D01*
X16549Y97754D01*
X16620Y97779D01*
X16695Y97812D01*
X16766Y97862D01*
X16803Y97895D01*
X16837Y97928D01*
X16841Y97933D01*
X16845Y97937D01*
X16853Y97949D01*
X16866Y97966D01*
X16878Y97987D01*
X16895Y98016D01*
X16911Y98045D01*
X16928Y98082D01*
X16945Y98124D01*
X16957Y98170D01*
X16974Y98220D01*
X16986Y98274D01*
X16999Y98336D01*
X17007Y98403D01*
X17015Y98473D01*
Y99767D01*
D02*
G37*
G36*
X17082Y78798D02*
X15813D01*
Y77650D01*
X15817Y77621D01*
Y77587D01*
X15821Y77508D01*
X15830Y77421D01*
X15842Y77329D01*
X15859Y77242D01*
X15884Y77163D01*
Y77159D01*
X15888Y77155D01*
X15896Y77130D01*
X15913Y77096D01*
X15938Y77051D01*
X15971Y77005D01*
X16009Y76955D01*
X16059Y76905D01*
X16113Y76863D01*
X16121Y76859D01*
X16142Y76847D01*
X16171Y76830D01*
X16217Y76810D01*
X16267Y76793D01*
X16325Y76776D01*
X16391Y76764D01*
X16458Y76759D01*
X16462D01*
X16470D01*
X16483D01*
X16504Y76764D01*
X16524D01*
X16554Y76768D01*
X16616Y76784D01*
X16687Y76810D01*
X16762Y76843D01*
X16832Y76893D01*
X16870Y76926D01*
X16903Y76959D01*
X16907Y76963D01*
X16911Y76968D01*
X16920Y76980D01*
X16932Y76997D01*
X16945Y77017D01*
X16961Y77047D01*
X16978Y77076D01*
X16995Y77113D01*
X17011Y77155D01*
X17024Y77201D01*
X17040Y77250D01*
X17053Y77305D01*
X17065Y77367D01*
X17074Y77434D01*
X17082Y77504D01*
Y78798D01*
D02*
G37*
G36*
X17015Y59004D02*
X15747D01*
Y57855D01*
X15751Y57826D01*
Y57793D01*
X15755Y57714D01*
X15763Y57627D01*
X15776Y57535D01*
X15792Y57448D01*
X15817Y57369D01*
Y57365D01*
X15821Y57360D01*
X15830Y57336D01*
X15846Y57302D01*
X15871Y57256D01*
X15905Y57211D01*
X15942Y57161D01*
X15992Y57111D01*
X16046Y57069D01*
X16054Y57065D01*
X16075Y57053D01*
X16104Y57036D01*
X16150Y57015D01*
X16200Y56998D01*
X16258Y56982D01*
X16325Y56969D01*
X16391Y56965D01*
X16396D01*
X16404D01*
X16416D01*
X16437Y56969D01*
X16458D01*
X16487Y56974D01*
X16549Y56990D01*
X16620Y57015D01*
X16695Y57048D01*
X16766Y57098D01*
X16803Y57132D01*
X16837Y57165D01*
X16841Y57169D01*
X16845Y57173D01*
X16853Y57186D01*
X16866Y57202D01*
X16878Y57223D01*
X16895Y57252D01*
X16911Y57281D01*
X16928Y57319D01*
X16945Y57360D01*
X16957Y57406D01*
X16974Y57456D01*
X16986Y57510D01*
X16999Y57573D01*
X17007Y57639D01*
X17015Y57710D01*
Y59004D01*
D02*
G37*
G36*
X14952Y55534D02*
Y54324D01*
X16683D01*
X14952Y55534D01*
D02*
G37*
G36*
X17078Y38504D02*
X15809D01*
Y37356D01*
X15813Y37326D01*
Y37293D01*
X15817Y37214D01*
X15826Y37127D01*
X15838Y37035D01*
X15855Y36948D01*
X15880Y36869D01*
Y36865D01*
X15884Y36860D01*
X15892Y36836D01*
X15909Y36802D01*
X15934Y36756D01*
X15967Y36711D01*
X16004Y36661D01*
X16054Y36611D01*
X16108Y36569D01*
X16117Y36565D01*
X16138Y36553D01*
X16167Y36536D01*
X16213Y36515D01*
X16262Y36498D01*
X16321Y36482D01*
X16387Y36469D01*
X16454Y36465D01*
X16458D01*
X16466D01*
X16479D01*
X16499Y36469D01*
X16520D01*
X16549Y36474D01*
X16612Y36490D01*
X16683Y36515D01*
X16758Y36548D01*
X16828Y36598D01*
X16866Y36632D01*
X16899Y36665D01*
X16903Y36669D01*
X16907Y36673D01*
X16916Y36686D01*
X16928Y36702D01*
X16940Y36723D01*
X16957Y36752D01*
X16974Y36781D01*
X16990Y36819D01*
X17007Y36860D01*
X17019Y36906D01*
X17036Y36956D01*
X17049Y37010D01*
X17061Y37073D01*
X17070Y37139D01*
X17078Y37210D01*
Y38504D01*
D02*
G37*
G36*
Y19504D02*
X15809D01*
Y18356D01*
X15813Y18326D01*
Y18293D01*
X15817Y18214D01*
X15826Y18127D01*
X15838Y18035D01*
X15855Y17948D01*
X15880Y17869D01*
Y17865D01*
X15884Y17860D01*
X15892Y17835D01*
X15909Y17802D01*
X15934Y17756D01*
X15967Y17711D01*
X16004Y17661D01*
X16054Y17611D01*
X16108Y17569D01*
X16117Y17565D01*
X16138Y17553D01*
X16167Y17536D01*
X16213Y17515D01*
X16262Y17499D01*
X16321Y17482D01*
X16387Y17469D01*
X16454Y17465D01*
X16458D01*
X16466D01*
X16479D01*
X16499Y17469D01*
X16520D01*
X16549Y17474D01*
X16612Y17490D01*
X16683Y17515D01*
X16758Y17548D01*
X16828Y17598D01*
X16866Y17632D01*
X16899Y17665D01*
X16903Y17669D01*
X16907Y17673D01*
X16916Y17686D01*
X16928Y17702D01*
X16940Y17723D01*
X16957Y17752D01*
X16974Y17781D01*
X16990Y17819D01*
X17007Y17860D01*
X17019Y17906D01*
X17036Y17956D01*
X17049Y18010D01*
X17061Y18073D01*
X17070Y18139D01*
X17078Y18210D01*
Y19504D01*
D02*
G37*
G36*
X15647Y15889D02*
X15643D01*
X15647Y15888D01*
X15647Y15889D01*
D02*
G37*
G36*
X14906Y15818D02*
X14902D01*
X14894D01*
X14881D01*
X14865D01*
X14844Y15814D01*
X14819D01*
X14757Y15805D01*
X14686Y15793D01*
X14607Y15776D01*
X14524Y15751D01*
X14440Y15718D01*
X14436D01*
X14432Y15714D01*
X14420Y15706D01*
X14403Y15697D01*
X14366Y15676D01*
X14315Y15643D01*
X14261Y15602D01*
X14207Y15552D01*
X14153Y15498D01*
X14103Y15431D01*
Y15427D01*
X14099Y15423D01*
X14087Y15398D01*
X14066Y15360D01*
X14045Y15310D01*
X14024Y15252D01*
X14004Y15186D01*
X13991Y15111D01*
X13987Y15036D01*
Y15007D01*
X13991Y14986D01*
X13995Y14957D01*
X13999Y14928D01*
X14016Y14857D01*
X14045Y14778D01*
X14066Y14732D01*
X14087Y14691D01*
X14116Y14645D01*
X14145Y14603D01*
X14182Y14561D01*
X14224Y14520D01*
X14228Y14516D01*
X14236Y14512D01*
X14249Y14499D01*
X14270Y14487D01*
X14295Y14470D01*
X14324Y14453D01*
X14357Y14433D01*
X14399Y14412D01*
X14440Y14391D01*
X14490Y14370D01*
X14544Y14354D01*
X14603Y14337D01*
X14665Y14324D01*
X14736Y14312D01*
X14806Y14308D01*
X14881Y14304D01*
X14886D01*
X14898D01*
X14919D01*
X14948Y14308D01*
X14981Y14312D01*
X15019Y14316D01*
X15060Y14320D01*
X15106Y14329D01*
X15206Y14354D01*
X15310Y14391D01*
X15364Y14416D01*
X15414Y14445D01*
X15460Y14478D01*
X15505Y14516D01*
X15509Y14520D01*
X15514Y14524D01*
X15526Y14537D01*
X15543Y14553D01*
X15559Y14574D01*
X15580Y14599D01*
X15622Y14661D01*
X15663Y14740D01*
X15701Y14832D01*
X15730Y14936D01*
X15734Y14994D01*
X15738Y15052D01*
Y15081D01*
X15734Y15107D01*
X15730Y15132D01*
X15726Y15165D01*
X15709Y15240D01*
X15680Y15327D01*
X15638Y15418D01*
X15613Y15464D01*
X15584Y15510D01*
X15547Y15556D01*
X15505Y15597D01*
X15501Y15602D01*
X15493Y15606D01*
X15480Y15618D01*
X15464Y15631D01*
X15443Y15647D01*
X15414Y15668D01*
X15381Y15689D01*
X15343Y15706D01*
X15306Y15726D01*
X15260Y15747D01*
X15156Y15785D01*
X15039Y15810D01*
X14973Y15814D01*
X14906Y15818D01*
D02*
G37*
G36*
X17049Y129218D02*
X15888D01*
Y128307D01*
X15892Y128274D01*
Y128203D01*
X15896Y128124D01*
X15905Y128041D01*
X15917Y127966D01*
X15921Y127932D01*
X15930Y127903D01*
Y127899D01*
X15934Y127895D01*
X15942Y127870D01*
X15955Y127837D01*
X15975Y127795D01*
X16000Y127749D01*
X16034Y127699D01*
X16075Y127654D01*
X16121Y127612D01*
X16129Y127608D01*
X16146Y127595D01*
X16175Y127579D01*
X16213Y127562D01*
X16262Y127546D01*
X16321Y127529D01*
X16383Y127516D01*
X16458Y127512D01*
X16462D01*
X16466D01*
X16491D01*
X16524Y127516D01*
X16570Y127525D01*
X16624Y127537D01*
X16683Y127554D01*
X16741Y127575D01*
X16795Y127608D01*
X16803Y127612D01*
X16820Y127625D01*
X16845Y127645D01*
X16874Y127674D01*
X16907Y127712D01*
X16940Y127758D01*
X16970Y127808D01*
X16995Y127870D01*
X16999Y127878D01*
Y127887D01*
X17003Y127903D01*
X17007Y127920D01*
X17011Y127945D01*
X17015Y127974D01*
X17024Y128003D01*
X17028Y128041D01*
X17032Y128086D01*
X17036Y128132D01*
X17040Y128186D01*
X17044Y128244D01*
Y128307D01*
X17049Y128378D01*
Y129218D01*
D02*
G37*
G36*
X15435D02*
X14116D01*
Y128178D01*
X14120Y128124D01*
Y128070D01*
X14124Y128012D01*
X14128Y127957D01*
X14132Y127916D01*
Y127908D01*
X14137Y127887D01*
X14145Y127853D01*
X14157Y127812D01*
X14170Y127766D01*
X14191Y127720D01*
X14211Y127670D01*
X14236Y127625D01*
X14241Y127620D01*
X14249Y127604D01*
X14266Y127583D01*
X14291Y127554D01*
X14320Y127525D01*
X14357Y127491D01*
X14399Y127458D01*
X14449Y127429D01*
X14457Y127425D01*
X14474Y127417D01*
X14503Y127404D01*
X14544Y127387D01*
X14590Y127375D01*
X14644Y127363D01*
X14707Y127354D01*
X14773Y127350D01*
X14777D01*
X14782D01*
X14794D01*
X14811D01*
X14848Y127354D01*
X14902Y127363D01*
X14960Y127379D01*
X15023Y127396D01*
X15085Y127425D01*
X15147Y127462D01*
X15156Y127466D01*
X15172Y127483D01*
X15202Y127508D01*
X15235Y127541D01*
X15272Y127587D01*
X15306Y127641D01*
X15339Y127699D01*
X15368Y127770D01*
Y127774D01*
X15372Y127778D01*
X15376Y127791D01*
X15381Y127808D01*
X15385Y127828D01*
X15389Y127849D01*
X15397Y127878D01*
X15401Y127912D01*
X15410Y127953D01*
X15414Y127995D01*
X15418Y128041D01*
X15426Y128091D01*
X15430Y128203D01*
X15435Y128332D01*
Y129218D01*
D02*
G37*
G36*
X15555Y125832D02*
X15551D01*
X15543D01*
X15530D01*
X15514D01*
X15493D01*
X15464D01*
X15401Y125828D01*
X15326Y125823D01*
X15239Y125819D01*
X15143Y125815D01*
X15044Y125803D01*
X14831Y125778D01*
X14727Y125761D01*
X14623Y125740D01*
X14528Y125715D01*
X14440Y125682D01*
X14361Y125649D01*
X14295Y125611D01*
X14291Y125607D01*
X14282Y125603D01*
X14266Y125590D01*
X14245Y125570D01*
X14224Y125549D01*
X14199Y125524D01*
X14141Y125461D01*
X14083Y125382D01*
X14037Y125287D01*
X14016Y125237D01*
X13999Y125183D01*
X13991Y125125D01*
X13987Y125066D01*
Y125054D01*
X13991Y125033D01*
Y125012D01*
X13995Y124983D01*
X14004Y124950D01*
X14024Y124875D01*
X14041Y124833D01*
X14062Y124792D01*
X14087Y124746D01*
X14120Y124700D01*
X14153Y124654D01*
X14195Y124609D01*
X14245Y124563D01*
X14299Y124521D01*
X14303Y124517D01*
X14315Y124513D01*
X14332Y124501D01*
X14361Y124488D01*
X14399Y124467D01*
X14449Y124451D01*
X14507Y124430D01*
X14573Y124409D01*
X14652Y124388D01*
X14744Y124367D01*
X14844Y124346D01*
X14960Y124330D01*
X15089Y124317D01*
X15231Y124305D01*
X15385Y124301D01*
X15555Y124297D01*
X15559D01*
X15568D01*
X15580D01*
X15597D01*
X15618D01*
X15643D01*
X15709Y124301D01*
X15784Y124305D01*
X15871Y124309D01*
X15967Y124313D01*
X16067Y124326D01*
X16279Y124351D01*
X16383Y124372D01*
X16483Y124392D01*
X16579Y124417D01*
X16670Y124446D01*
X16745Y124480D01*
X16812Y124521D01*
X16816Y124525D01*
X16824Y124530D01*
X16841Y124542D01*
X16861Y124559D01*
X16882Y124584D01*
X16911Y124609D01*
X16940Y124638D01*
X16970Y124671D01*
X17024Y124750D01*
X17074Y124846D01*
X17094Y124896D01*
X17111Y124954D01*
X17119Y125008D01*
X17123Y125070D01*
Y125100D01*
X17119Y125125D01*
X17115Y125149D01*
X17111Y125183D01*
X17090Y125258D01*
X17057Y125341D01*
X17036Y125382D01*
X17007Y125428D01*
X16978Y125470D01*
X16940Y125511D01*
X16899Y125553D01*
X16849Y125590D01*
X16845Y125594D01*
X16832Y125599D01*
X16812Y125611D01*
X16778Y125628D01*
X16737Y125645D01*
X16687Y125665D01*
X16628Y125690D01*
X16554Y125711D01*
X16470Y125732D01*
X16379Y125757D01*
X16271Y125778D01*
X16154Y125794D01*
X16025Y125811D01*
X15880Y125819D01*
X15726Y125828D01*
X15555Y125832D01*
D02*
G37*
G36*
X16986Y110218D02*
X15826D01*
Y109307D01*
X15830Y109274D01*
Y109203D01*
X15834Y109124D01*
X15842Y109041D01*
X15855Y108966D01*
X15859Y108932D01*
X15867Y108903D01*
Y108899D01*
X15871Y108895D01*
X15880Y108870D01*
X15892Y108837D01*
X15913Y108795D01*
X15938Y108749D01*
X15971Y108700D01*
X16013Y108654D01*
X16059Y108612D01*
X16067Y108608D01*
X16083Y108596D01*
X16113Y108579D01*
X16150Y108562D01*
X16200Y108546D01*
X16258Y108529D01*
X16321Y108517D01*
X16396Y108512D01*
X16400D01*
X16404D01*
X16429D01*
X16462Y108517D01*
X16508Y108525D01*
X16562Y108537D01*
X16620Y108554D01*
X16678Y108575D01*
X16733Y108608D01*
X16741Y108612D01*
X16758Y108625D01*
X16782Y108645D01*
X16812Y108675D01*
X16845Y108712D01*
X16878Y108758D01*
X16907Y108808D01*
X16932Y108870D01*
X16936Y108878D01*
Y108887D01*
X16940Y108903D01*
X16945Y108920D01*
X16949Y108945D01*
X16953Y108974D01*
X16961Y109003D01*
X16965Y109041D01*
X16970Y109086D01*
X16974Y109132D01*
X16978Y109186D01*
X16982Y109245D01*
Y109307D01*
X16986Y109378D01*
Y110218D01*
D02*
G37*
G36*
X15372D02*
X14053D01*
Y109178D01*
X14058Y109124D01*
Y109070D01*
X14062Y109011D01*
X14066Y108957D01*
X14070Y108916D01*
Y108907D01*
X14074Y108887D01*
X14083Y108853D01*
X14095Y108812D01*
X14108Y108766D01*
X14128Y108720D01*
X14149Y108670D01*
X14174Y108625D01*
X14178Y108621D01*
X14187Y108604D01*
X14203Y108583D01*
X14228Y108554D01*
X14257Y108525D01*
X14295Y108492D01*
X14336Y108458D01*
X14386Y108429D01*
X14395Y108425D01*
X14411Y108417D01*
X14440Y108404D01*
X14482Y108387D01*
X14528Y108375D01*
X14582Y108362D01*
X14644Y108354D01*
X14711Y108350D01*
X14715D01*
X14719D01*
X14731D01*
X14748D01*
X14786Y108354D01*
X14840Y108362D01*
X14898Y108379D01*
X14960Y108396D01*
X15023Y108425D01*
X15085Y108462D01*
X15093Y108466D01*
X15110Y108483D01*
X15139Y108508D01*
X15172Y108541D01*
X15210Y108587D01*
X15243Y108641D01*
X15277Y108700D01*
X15306Y108770D01*
Y108774D01*
X15310Y108779D01*
X15314Y108791D01*
X15318Y108808D01*
X15322Y108828D01*
X15326Y108849D01*
X15335Y108878D01*
X15339Y108912D01*
X15347Y108953D01*
X15351Y108995D01*
X15356Y109041D01*
X15364Y109090D01*
X15368Y109203D01*
X15372Y109332D01*
Y110218D01*
D02*
G37*
G36*
X16986Y90481D02*
X15826D01*
Y89570D01*
X15830Y89537D01*
Y89466D01*
X15834Y89387D01*
X15842Y89304D01*
X15855Y89229D01*
X15859Y89196D01*
X15867Y89167D01*
Y89163D01*
X15871Y89159D01*
X15880Y89134D01*
X15892Y89100D01*
X15913Y89059D01*
X15938Y89013D01*
X15971Y88963D01*
X16013Y88917D01*
X16059Y88876D01*
X16067Y88872D01*
X16083Y88859D01*
X16113Y88842D01*
X16150Y88826D01*
X16200Y88809D01*
X16258Y88793D01*
X16321Y88780D01*
X16396Y88776D01*
X16400D01*
X16404D01*
X16429D01*
X16462Y88780D01*
X16508Y88788D01*
X16562Y88801D01*
X16620Y88817D01*
X16678Y88838D01*
X16733Y88872D01*
X16741Y88876D01*
X16758Y88888D01*
X16782Y88909D01*
X16812Y88938D01*
X16845Y88976D01*
X16878Y89021D01*
X16907Y89071D01*
X16932Y89134D01*
X16936Y89142D01*
Y89150D01*
X16940Y89167D01*
X16945Y89183D01*
X16949Y89209D01*
X16953Y89238D01*
X16961Y89267D01*
X16965Y89304D01*
X16970Y89350D01*
X16974Y89396D01*
X16978Y89450D01*
X16982Y89508D01*
Y89570D01*
X16986Y89641D01*
Y90481D01*
D02*
G37*
G36*
X15372D02*
X14053D01*
Y89441D01*
X14058Y89387D01*
Y89333D01*
X14062Y89275D01*
X14066Y89221D01*
X14070Y89179D01*
Y89171D01*
X14074Y89150D01*
X14083Y89117D01*
X14095Y89075D01*
X14108Y89030D01*
X14128Y88984D01*
X14149Y88934D01*
X14174Y88888D01*
X14178Y88884D01*
X14187Y88867D01*
X14203Y88847D01*
X14228Y88817D01*
X14257Y88788D01*
X14295Y88755D01*
X14336Y88722D01*
X14386Y88693D01*
X14395Y88688D01*
X14411Y88680D01*
X14440Y88668D01*
X14482Y88651D01*
X14528Y88639D01*
X14582Y88626D01*
X14644Y88618D01*
X14711Y88614D01*
X14715D01*
X14719D01*
X14731D01*
X14748D01*
X14786Y88618D01*
X14840Y88626D01*
X14898Y88643D01*
X14960Y88659D01*
X15023Y88688D01*
X15085Y88726D01*
X15093Y88730D01*
X15110Y88747D01*
X15139Y88772D01*
X15172Y88805D01*
X15210Y88851D01*
X15243Y88905D01*
X15277Y88963D01*
X15306Y89034D01*
Y89038D01*
X15310Y89042D01*
X15314Y89055D01*
X15318Y89071D01*
X15322Y89092D01*
X15326Y89113D01*
X15335Y89142D01*
X15339Y89175D01*
X15347Y89217D01*
X15351Y89258D01*
X15356Y89304D01*
X15364Y89354D01*
X15368Y89466D01*
X15372Y89595D01*
Y90481D01*
D02*
G37*
G36*
X17053Y69512D02*
X15892D01*
Y68601D01*
X15896Y68568D01*
Y68497D01*
X15901Y68418D01*
X15909Y68335D01*
X15921Y68260D01*
X15925Y68227D01*
X15934Y68198D01*
Y68194D01*
X15938Y68189D01*
X15946Y68164D01*
X15959Y68131D01*
X15980Y68089D01*
X16004Y68044D01*
X16038Y67994D01*
X16079Y67948D01*
X16125Y67906D01*
X16133Y67902D01*
X16150Y67890D01*
X16179Y67873D01*
X16217Y67857D01*
X16267Y67840D01*
X16325Y67823D01*
X16387Y67811D01*
X16462Y67807D01*
X16466D01*
X16470D01*
X16495D01*
X16529Y67811D01*
X16574Y67819D01*
X16628Y67832D01*
X16687Y67848D01*
X16745Y67869D01*
X16799Y67902D01*
X16807Y67906D01*
X16824Y67919D01*
X16849Y67940D01*
X16878Y67969D01*
X16911Y68006D01*
X16945Y68052D01*
X16974Y68102D01*
X16999Y68164D01*
X17003Y68173D01*
Y68181D01*
X17007Y68198D01*
X17011Y68214D01*
X17015Y68239D01*
X17019Y68268D01*
X17028Y68297D01*
X17032Y68335D01*
X17036Y68381D01*
X17040Y68426D01*
X17044Y68480D01*
X17049Y68539D01*
Y68601D01*
X17053Y68672D01*
Y69512D01*
D02*
G37*
G36*
X15439D02*
X14120D01*
Y68472D01*
X14124Y68418D01*
Y68364D01*
X14128Y68306D01*
X14132Y68252D01*
X14137Y68210D01*
Y68202D01*
X14141Y68181D01*
X14149Y68148D01*
X14162Y68106D01*
X14174Y68060D01*
X14195Y68015D01*
X14216Y67965D01*
X14241Y67919D01*
X14245Y67915D01*
X14253Y67898D01*
X14270Y67877D01*
X14295Y67848D01*
X14324Y67819D01*
X14361Y67786D01*
X14403Y67752D01*
X14453Y67723D01*
X14461Y67719D01*
X14478Y67711D01*
X14507Y67698D01*
X14548Y67682D01*
X14594Y67669D01*
X14648Y67657D01*
X14711Y67649D01*
X14777Y67644D01*
X14782D01*
X14786D01*
X14798D01*
X14815D01*
X14852Y67649D01*
X14906Y67657D01*
X14965Y67673D01*
X15027Y67690D01*
X15089Y67719D01*
X15152Y67757D01*
X15160Y67761D01*
X15177Y67778D01*
X15206Y67802D01*
X15239Y67836D01*
X15277Y67882D01*
X15310Y67936D01*
X15343Y67994D01*
X15372Y68064D01*
Y68069D01*
X15376Y68073D01*
X15381Y68085D01*
X15385Y68102D01*
X15389Y68123D01*
X15393Y68144D01*
X15401Y68173D01*
X15405Y68206D01*
X15414Y68248D01*
X15418Y68289D01*
X15422Y68335D01*
X15430Y68385D01*
X15435Y68497D01*
X15439Y68626D01*
Y69512D01*
D02*
G37*
G36*
X16986Y49718D02*
X15826D01*
Y48807D01*
X15830Y48774D01*
Y48703D01*
X15834Y48624D01*
X15842Y48541D01*
X15855Y48466D01*
X15859Y48432D01*
X15867Y48403D01*
Y48399D01*
X15871Y48395D01*
X15880Y48370D01*
X15892Y48337D01*
X15913Y48295D01*
X15938Y48249D01*
X15971Y48199D01*
X16013Y48154D01*
X16059Y48112D01*
X16067Y48108D01*
X16083Y48096D01*
X16113Y48079D01*
X16150Y48062D01*
X16200Y48046D01*
X16258Y48029D01*
X16321Y48016D01*
X16396Y48012D01*
X16400D01*
X16404D01*
X16429D01*
X16462Y48016D01*
X16508Y48025D01*
X16562Y48037D01*
X16620Y48054D01*
X16678Y48075D01*
X16733Y48108D01*
X16741Y48112D01*
X16757Y48125D01*
X16782Y48145D01*
X16812Y48175D01*
X16845Y48212D01*
X16878Y48258D01*
X16907Y48308D01*
X16932Y48370D01*
X16936Y48378D01*
Y48387D01*
X16940Y48403D01*
X16945Y48420D01*
X16949Y48445D01*
X16953Y48474D01*
X16961Y48503D01*
X16965Y48541D01*
X16970Y48586D01*
X16974Y48632D01*
X16978Y48686D01*
X16982Y48744D01*
Y48807D01*
X16986Y48878D01*
Y49718D01*
D02*
G37*
G36*
X15372D02*
X14053D01*
Y48678D01*
X14058Y48624D01*
Y48570D01*
X14062Y48511D01*
X14066Y48457D01*
X14070Y48416D01*
Y48408D01*
X14074Y48387D01*
X14083Y48353D01*
X14095Y48312D01*
X14108Y48266D01*
X14128Y48220D01*
X14149Y48170D01*
X14174Y48125D01*
X14178Y48120D01*
X14187Y48104D01*
X14203Y48083D01*
X14228Y48054D01*
X14257Y48025D01*
X14295Y47991D01*
X14336Y47958D01*
X14386Y47929D01*
X14395Y47925D01*
X14411Y47917D01*
X14440Y47904D01*
X14482Y47888D01*
X14528Y47875D01*
X14582Y47862D01*
X14644Y47854D01*
X14711Y47850D01*
X14715D01*
X14719D01*
X14731D01*
X14748D01*
X14786Y47854D01*
X14840Y47862D01*
X14898Y47879D01*
X14960Y47896D01*
X15023Y47925D01*
X15085Y47962D01*
X15093Y47967D01*
X15110Y47983D01*
X15139Y48008D01*
X15172Y48041D01*
X15210Y48087D01*
X15243Y48141D01*
X15277Y48199D01*
X15306Y48270D01*
Y48274D01*
X15310Y48278D01*
X15314Y48291D01*
X15318Y48308D01*
X15322Y48328D01*
X15326Y48349D01*
X15335Y48378D01*
X15339Y48412D01*
X15347Y48453D01*
X15351Y48495D01*
X15356Y48541D01*
X15364Y48590D01*
X15368Y48703D01*
X15372Y48832D01*
Y49718D01*
D02*
G37*
G36*
X14952Y46515D02*
Y45304D01*
X16683D01*
X14952Y46515D01*
D02*
G37*
G36*
X17049Y29218D02*
X15888D01*
Y28307D01*
X15892Y28274D01*
Y28203D01*
X15896Y28124D01*
X15905Y28041D01*
X15917Y27966D01*
X15921Y27933D01*
X15930Y27903D01*
Y27899D01*
X15934Y27895D01*
X15942Y27870D01*
X15955Y27837D01*
X15975Y27795D01*
X16000Y27749D01*
X16034Y27700D01*
X16075Y27654D01*
X16121Y27612D01*
X16129Y27608D01*
X16146Y27595D01*
X16175Y27579D01*
X16213Y27562D01*
X16262Y27546D01*
X16321Y27529D01*
X16383Y27516D01*
X16458Y27512D01*
X16462D01*
X16466D01*
X16491D01*
X16524Y27516D01*
X16570Y27525D01*
X16624Y27537D01*
X16683Y27554D01*
X16741Y27575D01*
X16795Y27608D01*
X16803Y27612D01*
X16820Y27625D01*
X16845Y27645D01*
X16874Y27674D01*
X16907Y27712D01*
X16940Y27758D01*
X16970Y27808D01*
X16995Y27870D01*
X16999Y27878D01*
Y27887D01*
X17003Y27903D01*
X17007Y27920D01*
X17011Y27945D01*
X17015Y27974D01*
X17024Y28003D01*
X17028Y28041D01*
X17032Y28086D01*
X17036Y28132D01*
X17040Y28186D01*
X17044Y28245D01*
Y28307D01*
X17049Y28378D01*
Y29218D01*
D02*
G37*
G36*
X15435D02*
X14116D01*
Y28178D01*
X14120Y28124D01*
Y28070D01*
X14124Y28012D01*
X14128Y27957D01*
X14132Y27916D01*
Y27907D01*
X14137Y27887D01*
X14145Y27853D01*
X14157Y27812D01*
X14170Y27766D01*
X14191Y27720D01*
X14211Y27670D01*
X14236Y27625D01*
X14241Y27620D01*
X14249Y27604D01*
X14266Y27583D01*
X14291Y27554D01*
X14320Y27525D01*
X14357Y27492D01*
X14399Y27458D01*
X14449Y27429D01*
X14457Y27425D01*
X14474Y27417D01*
X14503Y27404D01*
X14544Y27387D01*
X14590Y27375D01*
X14644Y27362D01*
X14707Y27354D01*
X14773Y27350D01*
X14777D01*
X14782D01*
X14794D01*
X14811D01*
X14848Y27354D01*
X14902Y27362D01*
X14960Y27379D01*
X15023Y27396D01*
X15085Y27425D01*
X15147Y27462D01*
X15156Y27466D01*
X15172Y27483D01*
X15202Y27508D01*
X15235Y27541D01*
X15272Y27587D01*
X15306Y27641D01*
X15339Y27700D01*
X15368Y27770D01*
Y27774D01*
X15372Y27779D01*
X15376Y27791D01*
X15381Y27808D01*
X15385Y27828D01*
X15389Y27849D01*
X15397Y27878D01*
X15401Y27912D01*
X15410Y27953D01*
X15414Y27995D01*
X15418Y28041D01*
X15426Y28091D01*
X15430Y28203D01*
X15435Y28332D01*
Y29218D01*
D02*
G37*
G36*
X17049Y10218D02*
X15888D01*
Y9307D01*
X15892Y9274D01*
Y9203D01*
X15896Y9124D01*
X15905Y9041D01*
X15917Y8966D01*
X15921Y8933D01*
X15930Y8903D01*
Y8899D01*
X15934Y8895D01*
X15942Y8870D01*
X15955Y8837D01*
X15975Y8795D01*
X16000Y8749D01*
X16034Y8699D01*
X16075Y8654D01*
X16121Y8612D01*
X16129Y8608D01*
X16146Y8596D01*
X16175Y8579D01*
X16213Y8562D01*
X16262Y8546D01*
X16321Y8529D01*
X16383Y8517D01*
X16458Y8512D01*
X16462D01*
X16466D01*
X16491D01*
X16524Y8517D01*
X16570Y8525D01*
X16624Y8537D01*
X16683Y8554D01*
X16741Y8575D01*
X16795Y8608D01*
X16803Y8612D01*
X16820Y8625D01*
X16845Y8645D01*
X16874Y8675D01*
X16907Y8712D01*
X16940Y8758D01*
X16970Y8808D01*
X16995Y8870D01*
X16999Y8878D01*
Y8887D01*
X17003Y8903D01*
X17007Y8920D01*
X17011Y8945D01*
X17015Y8974D01*
X17024Y9003D01*
X17028Y9041D01*
X17032Y9086D01*
X17036Y9132D01*
X17040Y9186D01*
X17044Y9245D01*
Y9307D01*
X17049Y9378D01*
Y10218D01*
D02*
G37*
G36*
X15435D02*
X14116D01*
Y9178D01*
X14120Y9124D01*
Y9070D01*
X14124Y9012D01*
X14128Y8957D01*
X14132Y8916D01*
Y8907D01*
X14137Y8887D01*
X14145Y8853D01*
X14157Y8812D01*
X14170Y8766D01*
X14191Y8720D01*
X14211Y8670D01*
X14236Y8625D01*
X14241Y8620D01*
X14249Y8604D01*
X14266Y8583D01*
X14291Y8554D01*
X14320Y8525D01*
X14357Y8491D01*
X14399Y8458D01*
X14449Y8429D01*
X14457Y8425D01*
X14474Y8417D01*
X14503Y8404D01*
X14544Y8388D01*
X14590Y8375D01*
X14644Y8363D01*
X14707Y8354D01*
X14773Y8350D01*
X14777D01*
X14782D01*
X14794D01*
X14811D01*
X14848Y8354D01*
X14902Y8363D01*
X14960Y8379D01*
X15023Y8396D01*
X15085Y8425D01*
X15147Y8462D01*
X15156Y8467D01*
X15172Y8483D01*
X15202Y8508D01*
X15235Y8541D01*
X15272Y8587D01*
X15306Y8641D01*
X15339Y8699D01*
X15368Y8770D01*
Y8774D01*
X15372Y8778D01*
X15376Y8791D01*
X15381Y8808D01*
X15385Y8828D01*
X15389Y8849D01*
X15397Y8878D01*
X15401Y8912D01*
X15410Y8953D01*
X15414Y8995D01*
X15418Y9041D01*
X15426Y9091D01*
X15430Y9203D01*
X15435Y9332D01*
Y10218D01*
D02*
G37*
G36*
X15647Y6869D02*
X15643D01*
X15647Y6869D01*
X15647Y6869D01*
D02*
G37*
G36*
X14906Y6798D02*
X14902D01*
X14894D01*
X14881D01*
X14865D01*
X14844Y6794D01*
X14819D01*
X14757Y6786D01*
X14686Y6773D01*
X14607Y6757D01*
X14524Y6732D01*
X14440Y6699D01*
X14436D01*
X14432Y6694D01*
X14420Y6686D01*
X14403Y6678D01*
X14366Y6657D01*
X14315Y6624D01*
X14261Y6582D01*
X14207Y6532D01*
X14153Y6478D01*
X14103Y6412D01*
Y6407D01*
X14099Y6403D01*
X14087Y6378D01*
X14066Y6341D01*
X14045Y6291D01*
X14024Y6233D01*
X14004Y6166D01*
X13991Y6091D01*
X13987Y6016D01*
Y5987D01*
X13991Y5966D01*
X13995Y5937D01*
X13999Y5908D01*
X14016Y5837D01*
X14045Y5758D01*
X14066Y5713D01*
X14087Y5671D01*
X14116Y5625D01*
X14145Y5584D01*
X14182Y5542D01*
X14224Y5500D01*
X14228Y5496D01*
X14236Y5492D01*
X14249Y5480D01*
X14270Y5467D01*
X14295Y5451D01*
X14324Y5434D01*
X14357Y5413D01*
X14399Y5392D01*
X14440Y5372D01*
X14490Y5351D01*
X14544Y5334D01*
X14603Y5317D01*
X14665Y5305D01*
X14736Y5293D01*
X14806Y5288D01*
X14881Y5284D01*
X14886D01*
X14898D01*
X14919D01*
X14948Y5288D01*
X14981Y5293D01*
X15019Y5297D01*
X15060Y5301D01*
X15106Y5309D01*
X15206Y5334D01*
X15310Y5372D01*
X15364Y5396D01*
X15414Y5426D01*
X15460Y5459D01*
X15505Y5496D01*
X15509Y5500D01*
X15514Y5505D01*
X15526Y5517D01*
X15543Y5534D01*
X15559Y5554D01*
X15580Y5579D01*
X15622Y5642D01*
X15663Y5721D01*
X15701Y5812D01*
X15730Y5916D01*
X15734Y5975D01*
X15738Y6033D01*
Y6062D01*
X15734Y6087D01*
X15730Y6112D01*
X15726Y6145D01*
X15709Y6220D01*
X15680Y6307D01*
X15638Y6399D01*
X15613Y6445D01*
X15584Y6491D01*
X15547Y6536D01*
X15505Y6578D01*
X15501Y6582D01*
X15493Y6586D01*
X15480Y6599D01*
X15464Y6611D01*
X15443Y6628D01*
X15414Y6649D01*
X15381Y6669D01*
X15343Y6686D01*
X15306Y6707D01*
X15260Y6728D01*
X15156Y6765D01*
X15039Y6790D01*
X14973Y6794D01*
X14906Y6798D01*
D02*
G37*
G36*
X188055Y144595D02*
X187229D01*
X187191Y144592D01*
X187154D01*
X187122Y144589D01*
X187091Y144586D01*
X187066Y144583D01*
X187044D01*
X187007Y144576D01*
X186982Y144570D01*
X186966Y144567D01*
X186963D01*
X186910Y144548D01*
X186864Y144523D01*
X186823Y144495D01*
X186785Y144467D01*
X186760Y144442D01*
X186739Y144420D01*
X186726Y144405D01*
X186723Y144399D01*
X186692Y144349D01*
X186670Y144296D01*
X186651Y144246D01*
X186642Y144196D01*
X186636Y144155D01*
X186629Y144121D01*
Y144108D01*
Y144099D01*
Y144093D01*
Y144090D01*
X186633Y144043D01*
X186636Y144002D01*
X186654Y143924D01*
X186679Y143859D01*
X186707Y143803D01*
X186736Y143759D01*
X186760Y143728D01*
X186770Y143718D01*
X186779Y143709D01*
X186782Y143706D01*
X186785Y143703D01*
X186817Y143678D01*
X186854Y143659D01*
X186892Y143640D01*
X186932Y143625D01*
X187020Y143600D01*
X187107Y143584D01*
X187147Y143578D01*
X187188Y143572D01*
X187222Y143569D01*
X187253D01*
X187278Y143565D01*
X188055D01*
Y144595D01*
D02*
G37*
%LPD*%
D10*
X77677Y140984D02*
X77677Y120984D01*
X77677Y140984D02*
X187677D01*
X77677Y120984D02*
X187677Y120984D01*
X187677Y140984D02*
X187677Y120984D01*
M02*
