M48
;Layer_Color=9474304
;FILE_FORMAT=2:5
INCH,LZ
;TYPE=PLATED
T1F00S00C0.01181
T2F00S00C0.03543
T3F00S00C0.04134
T4F00S00C0.04331
%
T01
X0026Y0006
X0031
X0036
X0044Y0012
Y00315
X0036Y0026
X0031
X0026
Y0046
X0031
X0036
X0044Y00515
Y00715
X0036Y0066
X0031
X0026
Y0086
X0031
X0036
X0044Y0092
Y01115
X0036Y0106
X0031
X0026
X0059Y00995
Y00795
Y00595
Y004
Y00195
X0094Y00665
X00735Y0112287
X00585Y0119
X01195Y01175
X01285Y0097
X01445
X0149Y00735
X0149358Y0070911
X0137Y0066
Y00595
Y0053
X0128
Y00595
Y0066
X011408Y0068326
X0103Y00875
X0177353Y0083143
X0182Y00745
X01725
X0165Y0068323
X0189Y0101
X0044Y01315
X0036Y01255
X0031
X0026
T02
X0102677Y0125984
X0112677
X0122677
X0132677
X0132677Y0135984
X0122677
X0112677Y0135984
X0102677
X0142677Y0135984
X0142677Y0125984
X0152677
X0162677
X0172677
X0182677
Y0135984
X0172677
X0162677Y0135984
X0152677
X0092677Y0135984
X0082677
X0082677Y0125984
X0092677
T03
X0070142Y0005732
Y0015732
X0080142
X0090142
Y0005732
X0080142
X0100142
X0110142
X0120142
X0130142
X0140142
X0150142
X0160142
Y0015732
X0150142
X0140142
X0130142
X0120142
X0110142
X0100142
X0170142
X0180142
Y0005732
X0170142
X0190142
X0200142
X0210142
Y0015732
X0200142
X0190142
T04
X000678Y0006232
Y0016232
Y0026232
Y0036232
Y0046232
Y0056232
Y0066232
X000678Y0076232
X000678Y0086232
Y0096232
Y0106232
Y0116232
X000678Y0126232
X000678Y0136232
M30
