G04*
G04 #@! TF.GenerationSoftware,Altium Limited,Altium Designer,22.7.1 (60)*
G04*
G04 Layer_Color=255*
%FSLAX25Y25*%
%MOIN*%
G70*
G04*
G04 #@! TF.SameCoordinates,3EC980D0-7658-4EA3-A3E4-A41FBE6F1EC8*
G04*
G04*
G04 #@! TF.FilePolarity,Positive*
G04*
G01*
G75*
%ADD18C,0.05906*%
%ADD19R,0.07087X0.07087*%
%ADD20C,0.07087*%
%ADD21C,0.06299*%
%ADD22R,0.06299X0.06299*%
%ADD24O,0.05709X0.04528*%
%ADD25R,0.04134X0.02559*%
%ADD26R,0.03937X0.03937*%
%ADD27R,0.03937X0.03937*%
%ADD28R,0.05906X0.01181*%
%ADD29R,0.10906X0.25197*%
%ADD30R,0.02559X0.04134*%
%ADD31R,0.02362X0.04331*%
%ADD32O,0.04528X0.05709*%
D18*
X82677Y125984D02*
D03*
X82677Y135984D02*
D03*
X92677Y125984D02*
D03*
Y135984D02*
D03*
X102677Y125984D02*
D03*
X102677Y135984D02*
D03*
X112677Y125984D02*
D03*
X112677Y135984D02*
D03*
X122677Y125984D02*
D03*
Y135984D02*
D03*
X132677Y125984D02*
D03*
X132677Y135984D02*
D03*
X142677Y125984D02*
D03*
X142677Y135984D02*
D03*
X152677Y125984D02*
D03*
X152677Y135984D02*
D03*
X162677Y125984D02*
D03*
X162677Y135984D02*
D03*
X172677Y125984D02*
D03*
X172677Y135984D02*
D03*
X182677Y125984D02*
D03*
Y135984D02*
D03*
D19*
X6780Y136232D02*
D03*
D20*
X6780Y126232D02*
D03*
X6780Y116232D02*
D03*
Y106232D02*
D03*
Y96232D02*
D03*
Y86232D02*
D03*
X6780Y76232D02*
D03*
X6780Y66232D02*
D03*
Y56232D02*
D03*
Y46232D02*
D03*
Y36232D02*
D03*
Y26232D02*
D03*
Y16232D02*
D03*
Y6232D02*
D03*
D21*
X210142Y5732D02*
D03*
X200142D02*
D03*
X160142D02*
D03*
X150142D02*
D03*
X140142D02*
D03*
X130142D02*
D03*
X120142D02*
D03*
X110142D02*
D03*
X100142D02*
D03*
X90142D02*
D03*
X80142D02*
D03*
X190142D02*
D03*
X180142D02*
D03*
X170142D02*
D03*
X210142Y15732D02*
D03*
X200142D02*
D03*
X190142D02*
D03*
X180142D02*
D03*
X170142D02*
D03*
X160142D02*
D03*
X150142D02*
D03*
X140142D02*
D03*
X130142D02*
D03*
X120142D02*
D03*
X110142D02*
D03*
X100142D02*
D03*
X90142D02*
D03*
X80142D02*
D03*
D22*
X70142Y5732D02*
D03*
Y15732D02*
D03*
D24*
X58780Y12091D02*
D03*
Y19374D02*
D03*
Y39374D02*
D03*
Y32091D02*
D03*
Y52091D02*
D03*
Y59374D02*
D03*
Y79374D02*
D03*
Y72091D02*
D03*
Y92091D02*
D03*
Y99374D02*
D03*
Y119374D02*
D03*
X58780Y112091D02*
D03*
X33279Y32794D02*
D03*
Y40078D02*
D03*
Y60078D02*
D03*
Y52794D02*
D03*
Y72795D02*
D03*
Y80078D02*
D03*
Y100078D02*
D03*
Y92795D02*
D03*
X58780Y132358D02*
D03*
X58780Y139641D02*
D03*
X33279Y12795D02*
D03*
Y20078D02*
D03*
X33280Y120078D02*
D03*
X33279Y112794D02*
D03*
X33000Y139740D02*
D03*
Y132457D02*
D03*
X110500Y88858D02*
D03*
Y96142D02*
D03*
X165500Y90650D02*
D03*
Y83367D02*
D03*
X188845Y90650D02*
D03*
Y83367D02*
D03*
X94000Y66358D02*
D03*
Y73642D02*
D03*
X205000Y90642D02*
D03*
X205000Y83358D02*
D03*
D25*
X16972Y36338D02*
D03*
X26028Y32598D02*
D03*
Y40078D02*
D03*
Y60078D02*
D03*
Y52598D02*
D03*
X16972Y56338D02*
D03*
X26028Y100078D02*
D03*
X26028Y92598D02*
D03*
X16972Y96338D02*
D03*
Y76338D02*
D03*
X26028Y72598D02*
D03*
X26028Y80078D02*
D03*
X16972Y116338D02*
D03*
X26028Y112598D02*
D03*
Y120078D02*
D03*
X16972Y16338D02*
D03*
X26028Y12598D02*
D03*
Y20078D02*
D03*
X26028Y139740D02*
D03*
Y132260D02*
D03*
X16972Y136000D02*
D03*
D26*
X102000Y73843D02*
D03*
Y81717D02*
D03*
X110268D02*
D03*
X110268Y73843D02*
D03*
D27*
X204500Y74500D02*
D03*
X196626Y74500D02*
D03*
X136563Y97000D02*
D03*
X144437D02*
D03*
X136563Y88000D02*
D03*
X144437Y88000D02*
D03*
X188882Y101000D02*
D03*
X181008Y101000D02*
D03*
D28*
X121083Y78575D02*
D03*
X121083Y76016D02*
D03*
X121083Y73457D02*
D03*
X121083Y70898D02*
D03*
X121083Y68339D02*
D03*
X121083Y65780D02*
D03*
X121083Y63221D02*
D03*
X121083Y60661D02*
D03*
X121083Y58102D02*
D03*
X121083Y55543D02*
D03*
X121083Y52984D02*
D03*
X121083Y50425D02*
D03*
X143917D02*
D03*
X143917Y52984D02*
D03*
X143917Y55543D02*
D03*
X143917Y58102D02*
D03*
X143917Y60661D02*
D03*
X143917Y63221D02*
D03*
X143917Y65780D02*
D03*
X143917Y70898D02*
D03*
Y73457D02*
D03*
Y76016D02*
D03*
X143917Y78575D02*
D03*
X143917Y68339D02*
D03*
D29*
X132500Y64500D02*
D03*
D30*
X47780Y60865D02*
D03*
X44039Y51810D02*
D03*
X51520D02*
D03*
Y31810D02*
D03*
X44039D02*
D03*
X47780Y40865D02*
D03*
Y20865D02*
D03*
X44039Y11810D02*
D03*
X51520D02*
D03*
Y131472D02*
D03*
X44039D02*
D03*
X47780Y140527D02*
D03*
X47780Y100865D02*
D03*
X44039Y91810D02*
D03*
X51520Y91810D02*
D03*
Y71810D02*
D03*
X44039Y71810D02*
D03*
X47780Y80865D02*
D03*
X51520Y111810D02*
D03*
X44039D02*
D03*
X47780Y120865D02*
D03*
D31*
X173528Y93505D02*
D03*
X173528Y83268D02*
D03*
X177268D02*
D03*
X181008Y83268D02*
D03*
Y93505D02*
D03*
D32*
X120858Y97000D02*
D03*
X128142Y97000D02*
D03*
X128142Y88500D02*
D03*
X120858D02*
D03*
X165500Y74500D02*
D03*
X172783Y74500D02*
D03*
X181562Y74500D02*
D03*
X188845Y74500D02*
D03*
X172642Y101000D02*
D03*
X165358Y101000D02*
D03*
M02*
