G04*
G04 #@! TF.GenerationSoftware,Altium Limited,Altium Designer,22.7.1 (60)*
G04*
G04 Layer_Color=32768*
%FSLAX25Y25*%
%MOIN*%
G70*
G04*
G04 #@! TF.SameCoordinates,3EC980D0-7658-4EA3-A3E4-A41FBE6F1EC8*
G04*
G04*
G04 #@! TF.FilePolarity,Positive*
G04*
G01*
G75*
G36*
X20932Y37801D02*
X20979Y37732D01*
X21032Y37667D01*
X21085Y37611D01*
X21132Y37558D01*
X21154Y37539D01*
X21169Y37520D01*
X21185Y37505D01*
X21197Y37495D01*
X21204Y37489D01*
X21207Y37486D01*
X21291Y37414D01*
X21381Y37352D01*
X21469Y37293D01*
X21550Y37243D01*
X21584Y37224D01*
X21619Y37205D01*
X21650Y37186D01*
X21675Y37174D01*
X21697Y37165D01*
X21712Y37155D01*
X21722Y37152D01*
X21725Y37149D01*
Y36809D01*
X21662Y36834D01*
X21597Y36862D01*
X21534Y36893D01*
X21478Y36921D01*
X21428Y36949D01*
X21406Y36959D01*
X21388Y36971D01*
X21372Y36977D01*
X21363Y36984D01*
X21357Y36990D01*
X21353D01*
X21279Y37037D01*
X21213Y37080D01*
X21154Y37121D01*
X21107Y37158D01*
X21066Y37190D01*
X21038Y37211D01*
X21023Y37227D01*
X21016Y37233D01*
Y34984D01*
X20664D01*
Y37873D01*
X20892D01*
X20932Y37801D01*
D02*
G37*
G36*
X23812Y37910D02*
X23884Y37904D01*
X23952Y37898D01*
X24018Y37885D01*
X24083Y37870D01*
X24143Y37854D01*
X24196Y37839D01*
X24249Y37823D01*
X24292Y37804D01*
X24336Y37789D01*
X24370Y37773D01*
X24402Y37757D01*
X24427Y37745D01*
X24442Y37739D01*
X24455Y37732D01*
X24458Y37729D01*
X24517Y37695D01*
X24570Y37654D01*
X24620Y37614D01*
X24670Y37570D01*
X24714Y37527D01*
X24751Y37483D01*
X24789Y37439D01*
X24823Y37396D01*
X24851Y37355D01*
X24876Y37321D01*
X24898Y37286D01*
X24916Y37255D01*
X24929Y37233D01*
X24938Y37214D01*
X24945Y37202D01*
X24948Y37199D01*
X24979Y37133D01*
X25004Y37065D01*
X25026Y36996D01*
X25047Y36931D01*
X25079Y36800D01*
X25088Y36737D01*
X25097Y36681D01*
X25104Y36625D01*
X25110Y36575D01*
X25113Y36531D01*
X25116Y36494D01*
X25119Y36463D01*
Y36441D01*
Y36428D01*
Y36422D01*
X25116Y36344D01*
X25113Y36266D01*
X25104Y36191D01*
X25091Y36123D01*
X25079Y36054D01*
X25066Y35991D01*
X25051Y35932D01*
X25032Y35876D01*
X25016Y35826D01*
X25001Y35782D01*
X24988Y35745D01*
X24976Y35711D01*
X24963Y35686D01*
X24954Y35667D01*
X24951Y35655D01*
X24948Y35651D01*
X24913Y35589D01*
X24876Y35530D01*
X24838Y35477D01*
X24798Y35427D01*
X24757Y35380D01*
X24717Y35336D01*
X24676Y35296D01*
X24639Y35261D01*
X24601Y35230D01*
X24567Y35202D01*
X24536Y35177D01*
X24511Y35158D01*
X24489Y35143D01*
X24470Y35133D01*
X24461Y35127D01*
X24458Y35124D01*
X24398Y35090D01*
X24336Y35062D01*
X24274Y35037D01*
X24211Y35015D01*
X24152Y34999D01*
X24093Y34984D01*
X24036Y34971D01*
X23983Y34962D01*
X23934Y34953D01*
X23890Y34946D01*
X23849Y34943D01*
X23815Y34940D01*
X23787Y34937D01*
X23750D01*
X23678Y34940D01*
X23609Y34943D01*
X23475Y34965D01*
X23413Y34977D01*
X23356Y34993D01*
X23300Y35009D01*
X23250Y35024D01*
X23203Y35040D01*
X23163Y35056D01*
X23129Y35071D01*
X23097Y35084D01*
X23073Y35096D01*
X23057Y35105D01*
X23044Y35109D01*
X23041Y35112D01*
X22926Y35027D01*
X22814Y34956D01*
X22711Y34896D01*
X22661Y34871D01*
X22617Y34850D01*
X22576Y34828D01*
X22539Y34809D01*
X22505Y34797D01*
X22477Y34784D01*
X22455Y34775D01*
X22436Y34768D01*
X22427Y34762D01*
X22423D01*
X22308Y35024D01*
X22392Y35059D01*
X22480Y35102D01*
X22564Y35146D01*
X22639Y35190D01*
X22673Y35212D01*
X22704Y35230D01*
X22732Y35249D01*
X22754Y35261D01*
X22776Y35274D01*
X22788Y35283D01*
X22798Y35289D01*
X22801Y35293D01*
X22723Y35374D01*
X22658Y35458D01*
X22601Y35539D01*
X22555Y35617D01*
X22536Y35651D01*
X22520Y35686D01*
X22505Y35714D01*
X22495Y35739D01*
X22486Y35757D01*
X22480Y35773D01*
X22473Y35782D01*
Y35786D01*
X22436Y35895D01*
X22411Y36004D01*
X22392Y36113D01*
X22383Y36163D01*
X22377Y36213D01*
X22374Y36257D01*
X22370Y36297D01*
X22367Y36335D01*
Y36366D01*
X22364Y36391D01*
Y36410D01*
Y36422D01*
Y36425D01*
X22367Y36503D01*
X22370Y36581D01*
X22380Y36656D01*
X22389Y36725D01*
X22402Y36793D01*
X22417Y36856D01*
X22433Y36915D01*
X22448Y36968D01*
X22464Y37018D01*
X22480Y37062D01*
X22492Y37102D01*
X22508Y37133D01*
X22517Y37158D01*
X22526Y37177D01*
X22530Y37190D01*
X22533Y37193D01*
X22567Y37255D01*
X22601Y37314D01*
X22642Y37367D01*
X22679Y37420D01*
X22720Y37467D01*
X22761Y37511D01*
X22801Y37548D01*
X22842Y37586D01*
X22879Y37617D01*
X22913Y37645D01*
X22941Y37670D01*
X22970Y37689D01*
X22991Y37704D01*
X23007Y37714D01*
X23019Y37720D01*
X23022Y37723D01*
X23085Y37757D01*
X23144Y37786D01*
X23207Y37810D01*
X23269Y37832D01*
X23331Y37851D01*
X23391Y37867D01*
X23447Y37879D01*
X23503Y37888D01*
X23553Y37898D01*
X23597Y37904D01*
X23637Y37907D01*
X23675Y37910D01*
X23703Y37913D01*
X23740D01*
X23812Y37910D01*
D02*
G37*
G36*
X18876Y37870D02*
X18932Y37867D01*
X18985Y37857D01*
X19035Y37848D01*
X19079Y37835D01*
X19123Y37820D01*
X19163Y37804D01*
X19197Y37789D01*
X19232Y37773D01*
X19260Y37757D01*
X19285Y37745D01*
X19304Y37729D01*
X19319Y37720D01*
X19332Y37711D01*
X19338Y37707D01*
X19341Y37704D01*
X19378Y37670D01*
X19413Y37636D01*
X19475Y37558D01*
X19531Y37480D01*
X19575Y37402D01*
X19594Y37364D01*
X19609Y37333D01*
X19622Y37302D01*
X19634Y37277D01*
X19640Y37255D01*
X19647Y37236D01*
X19653Y37227D01*
Y37224D01*
X19672Y37165D01*
X19687Y37099D01*
X19712Y36965D01*
X19731Y36828D01*
X19737Y36762D01*
X19743Y36697D01*
X19747Y36637D01*
X19750Y36581D01*
X19753Y36531D01*
Y36488D01*
X19756Y36453D01*
Y36425D01*
Y36410D01*
Y36403D01*
X19753Y36257D01*
X19743Y36119D01*
X19731Y35995D01*
X19712Y35879D01*
X19690Y35773D01*
X19665Y35676D01*
X19640Y35592D01*
X19612Y35514D01*
X19587Y35449D01*
X19563Y35389D01*
X19537Y35342D01*
X19516Y35302D01*
X19497Y35271D01*
X19485Y35249D01*
X19475Y35236D01*
X19472Y35233D01*
X19425Y35180D01*
X19375Y35137D01*
X19322Y35096D01*
X19269Y35062D01*
X19216Y35034D01*
X19160Y35009D01*
X19107Y34990D01*
X19057Y34974D01*
X19007Y34962D01*
X18963Y34953D01*
X18923Y34946D01*
X18889Y34943D01*
X18860Y34940D01*
X18839Y34937D01*
X18820D01*
X18761Y34940D01*
X18708Y34943D01*
X18654Y34953D01*
X18605Y34962D01*
X18558Y34977D01*
X18517Y34990D01*
X18477Y35006D01*
X18442Y35021D01*
X18408Y35037D01*
X18380Y35052D01*
X18355Y35068D01*
X18336Y35080D01*
X18321Y35090D01*
X18308Y35099D01*
X18302Y35102D01*
X18299Y35105D01*
X18261Y35140D01*
X18224Y35174D01*
X18162Y35252D01*
X18109Y35330D01*
X18065Y35408D01*
X18046Y35445D01*
X18031Y35480D01*
X18018Y35508D01*
X18006Y35536D01*
X17996Y35555D01*
X17993Y35573D01*
X17987Y35583D01*
Y35586D01*
X17968Y35645D01*
X17953Y35711D01*
X17924Y35845D01*
X17906Y35982D01*
X17899Y36048D01*
X17893Y36113D01*
X17890Y36172D01*
X17887Y36229D01*
X17884Y36275D01*
X17881Y36319D01*
Y36353D01*
Y36382D01*
Y36397D01*
Y36403D01*
Y36481D01*
X17884Y36556D01*
X17887Y36625D01*
X17890Y36690D01*
X17896Y36750D01*
X17903Y36806D01*
X17909Y36856D01*
X17912Y36902D01*
X17918Y36943D01*
X17924Y36977D01*
X17931Y37009D01*
X17937Y37034D01*
X17940Y37055D01*
X17943Y37068D01*
X17946Y37077D01*
Y37080D01*
X17971Y37171D01*
X18002Y37255D01*
X18031Y37327D01*
X18059Y37389D01*
X18074Y37414D01*
X18084Y37439D01*
X18096Y37461D01*
X18105Y37477D01*
X18115Y37489D01*
X18118Y37498D01*
X18124Y37505D01*
Y37508D01*
X18168Y37570D01*
X18218Y37626D01*
X18264Y37673D01*
X18311Y37711D01*
X18352Y37742D01*
X18383Y37760D01*
X18396Y37770D01*
X18405Y37776D01*
X18411Y37779D01*
X18414D01*
X18483Y37810D01*
X18552Y37832D01*
X18620Y37851D01*
X18683Y37860D01*
X18739Y37867D01*
X18761Y37870D01*
X18782Y37873D01*
X18820D01*
X18876Y37870D01*
D02*
G37*
G36*
X20052Y57870D02*
X20118Y57860D01*
X20183Y57848D01*
X20246Y57832D01*
X20302Y57810D01*
X20355Y57789D01*
X20405Y57764D01*
X20448Y57739D01*
X20489Y57714D01*
X20523Y57689D01*
X20555Y57667D01*
X20580Y57645D01*
X20598Y57630D01*
X20614Y57617D01*
X20623Y57608D01*
X20626Y57604D01*
X20670Y57551D01*
X20711Y57498D01*
X20745Y57439D01*
X20773Y57380D01*
X20798Y57324D01*
X20820Y57264D01*
X20835Y57205D01*
X20851Y57152D01*
X20860Y57099D01*
X20870Y57052D01*
X20873Y57009D01*
X20879Y56971D01*
Y56943D01*
X20882Y56918D01*
Y56906D01*
Y56899D01*
X20879Y56821D01*
X20873Y56750D01*
X20860Y56678D01*
X20845Y56612D01*
X20826Y56553D01*
X20804Y56497D01*
X20782Y56444D01*
X20757Y56400D01*
X20736Y56357D01*
X20714Y56319D01*
X20692Y56288D01*
X20673Y56263D01*
X20658Y56244D01*
X20645Y56229D01*
X20639Y56219D01*
X20636Y56216D01*
X20589Y56172D01*
X20539Y56132D01*
X20489Y56098D01*
X20436Y56069D01*
X20386Y56045D01*
X20336Y56023D01*
X20289Y56007D01*
X20243Y55992D01*
X20199Y55982D01*
X20158Y55973D01*
X20124Y55970D01*
X20093Y55963D01*
X20068D01*
X20049Y55960D01*
X20034D01*
X19956Y55963D01*
X19881Y55976D01*
X19812Y55992D01*
X19753Y56013D01*
X19703Y56032D01*
X19684Y56038D01*
X19665Y56048D01*
X19653Y56054D01*
X19644Y56060D01*
X19637Y56063D01*
X19634D01*
X19569Y56107D01*
X19512Y56151D01*
X19463Y56197D01*
X19419Y56241D01*
X19388Y56279D01*
X19363Y56310D01*
X19353Y56322D01*
X19350Y56332D01*
X19344Y56335D01*
Y56307D01*
Y56285D01*
Y56272D01*
Y56266D01*
X19347Y56185D01*
X19353Y56107D01*
X19360Y56035D01*
X19369Y55970D01*
X19375Y55942D01*
X19381Y55914D01*
X19385Y55892D01*
X19388Y55873D01*
X19391Y55857D01*
X19394Y55845D01*
X19397Y55839D01*
Y55835D01*
X19419Y55761D01*
X19441Y55692D01*
X19463Y55636D01*
X19481Y55589D01*
X19500Y55548D01*
X19516Y55520D01*
X19525Y55505D01*
X19528Y55498D01*
X19559Y55455D01*
X19594Y55414D01*
X19628Y55380D01*
X19659Y55352D01*
X19687Y55330D01*
X19709Y55311D01*
X19725Y55302D01*
X19731Y55299D01*
X19778Y55274D01*
X19828Y55258D01*
X19874Y55246D01*
X19918Y55236D01*
X19956Y55230D01*
X19987Y55227D01*
X20015D01*
X20084Y55230D01*
X20143Y55243D01*
X20196Y55261D01*
X20243Y55280D01*
X20277Y55299D01*
X20305Y55318D01*
X20321Y55330D01*
X20327Y55333D01*
X20349Y55355D01*
X20367Y55380D01*
X20405Y55433D01*
X20433Y55489D01*
X20455Y55545D01*
X20470Y55598D01*
X20477Y55620D01*
X20480Y55639D01*
X20486Y55658D01*
Y55670D01*
X20489Y55676D01*
Y55680D01*
X20829Y55651D01*
X20820Y55589D01*
X20807Y55530D01*
X20792Y55477D01*
X20773Y55427D01*
X20751Y55380D01*
X20732Y55336D01*
X20711Y55296D01*
X20689Y55261D01*
X20667Y55230D01*
X20645Y55202D01*
X20626Y55177D01*
X20611Y55158D01*
X20595Y55143D01*
X20586Y55133D01*
X20580Y55127D01*
X20576Y55124D01*
X20536Y55090D01*
X20492Y55062D01*
X20445Y55037D01*
X20399Y55015D01*
X20352Y54999D01*
X20308Y54984D01*
X20221Y54962D01*
X20180Y54953D01*
X20143Y54946D01*
X20109Y54943D01*
X20080Y54940D01*
X20055Y54937D01*
X20024D01*
X19965Y54940D01*
X19909Y54943D01*
X19803Y54962D01*
X19753Y54978D01*
X19709Y54990D01*
X19665Y55006D01*
X19628Y55021D01*
X19590Y55037D01*
X19559Y55052D01*
X19534Y55068D01*
X19509Y55080D01*
X19494Y55090D01*
X19478Y55099D01*
X19472Y55102D01*
X19469Y55105D01*
X19425Y55140D01*
X19385Y55177D01*
X19313Y55255D01*
X19251Y55339D01*
X19200Y55417D01*
X19182Y55455D01*
X19163Y55489D01*
X19148Y55520D01*
X19135Y55548D01*
X19126Y55570D01*
X19119Y55586D01*
X19113Y55598D01*
Y55602D01*
X19091Y55667D01*
X19073Y55733D01*
X19041Y55876D01*
X19020Y56023D01*
X19013Y56094D01*
X19007Y56163D01*
X19001Y56229D01*
X18998Y56288D01*
X18995Y56344D01*
Y56391D01*
X18992Y56428D01*
Y56456D01*
Y56475D01*
Y56481D01*
Y56578D01*
X18998Y56669D01*
X19004Y56753D01*
X19010Y56831D01*
X19020Y56902D01*
X19029Y56971D01*
X19041Y57030D01*
X19051Y57083D01*
X19063Y57133D01*
X19076Y57174D01*
X19085Y57208D01*
X19094Y57236D01*
X19101Y57261D01*
X19107Y57277D01*
X19113Y57286D01*
Y57289D01*
X19138Y57339D01*
X19163Y57389D01*
X19191Y57433D01*
X19219Y57477D01*
X19251Y57514D01*
X19278Y57548D01*
X19310Y57583D01*
X19338Y57611D01*
X19363Y57636D01*
X19388Y57658D01*
X19410Y57676D01*
X19431Y57692D01*
X19447Y57704D01*
X19459Y57714D01*
X19466Y57717D01*
X19469Y57720D01*
X19512Y57748D01*
X19556Y57770D01*
X19603Y57792D01*
X19647Y57807D01*
X19731Y57835D01*
X19812Y57854D01*
X19846Y57860D01*
X19881Y57863D01*
X19909Y57870D01*
X19934D01*
X19952Y57873D01*
X19981D01*
X20052Y57870D01*
D02*
G37*
G36*
X22701Y57910D02*
X22773Y57904D01*
X22842Y57898D01*
X22907Y57885D01*
X22973Y57870D01*
X23032Y57854D01*
X23085Y57838D01*
X23138Y57823D01*
X23182Y57804D01*
X23225Y57789D01*
X23260Y57773D01*
X23291Y57757D01*
X23316Y57745D01*
X23331Y57739D01*
X23344Y57732D01*
X23347Y57729D01*
X23406Y57695D01*
X23459Y57654D01*
X23509Y57614D01*
X23559Y57570D01*
X23603Y57526D01*
X23640Y57483D01*
X23678Y57439D01*
X23712Y57395D01*
X23740Y57355D01*
X23765Y57321D01*
X23787Y57286D01*
X23806Y57255D01*
X23818Y57233D01*
X23828Y57214D01*
X23834Y57202D01*
X23837Y57199D01*
X23868Y57133D01*
X23893Y57065D01*
X23915Y56996D01*
X23937Y56931D01*
X23968Y56800D01*
X23977Y56737D01*
X23987Y56681D01*
X23993Y56625D01*
X23999Y56575D01*
X24002Y56531D01*
X24005Y56494D01*
X24009Y56463D01*
Y56441D01*
Y56428D01*
Y56422D01*
X24005Y56344D01*
X24002Y56266D01*
X23993Y56191D01*
X23980Y56122D01*
X23968Y56054D01*
X23955Y55992D01*
X23940Y55932D01*
X23921Y55876D01*
X23905Y55826D01*
X23890Y55782D01*
X23877Y55745D01*
X23865Y55711D01*
X23853Y55686D01*
X23843Y55667D01*
X23840Y55655D01*
X23837Y55651D01*
X23802Y55589D01*
X23765Y55530D01*
X23728Y55477D01*
X23687Y55427D01*
X23647Y55380D01*
X23606Y55336D01*
X23565Y55296D01*
X23528Y55261D01*
X23491Y55230D01*
X23456Y55202D01*
X23425Y55177D01*
X23400Y55158D01*
X23378Y55143D01*
X23359Y55133D01*
X23350Y55127D01*
X23347Y55124D01*
X23288Y55090D01*
X23225Y55062D01*
X23163Y55037D01*
X23100Y55015D01*
X23041Y54999D01*
X22982Y54984D01*
X22926Y54971D01*
X22873Y54962D01*
X22823Y54953D01*
X22779Y54946D01*
X22739Y54943D01*
X22704Y54940D01*
X22676Y54937D01*
X22639D01*
X22567Y54940D01*
X22498Y54943D01*
X22364Y54965D01*
X22302Y54978D01*
X22246Y54993D01*
X22189Y55009D01*
X22140Y55024D01*
X22093Y55040D01*
X22052Y55055D01*
X22018Y55071D01*
X21987Y55084D01*
X21962Y55096D01*
X21946Y55105D01*
X21934Y55108D01*
X21930Y55112D01*
X21815Y55027D01*
X21703Y54956D01*
X21600Y54896D01*
X21550Y54871D01*
X21506Y54850D01*
X21466Y54828D01*
X21428Y54809D01*
X21394Y54796D01*
X21366Y54784D01*
X21344Y54775D01*
X21325Y54768D01*
X21316Y54762D01*
X21313D01*
X21197Y55024D01*
X21282Y55059D01*
X21369Y55102D01*
X21453Y55146D01*
X21528Y55190D01*
X21562Y55212D01*
X21594Y55230D01*
X21622Y55249D01*
X21644Y55261D01*
X21665Y55274D01*
X21678Y55283D01*
X21687Y55290D01*
X21690Y55293D01*
X21612Y55374D01*
X21547Y55458D01*
X21491Y55539D01*
X21444Y55617D01*
X21425Y55651D01*
X21409Y55686D01*
X21394Y55714D01*
X21384Y55739D01*
X21375Y55757D01*
X21369Y55773D01*
X21363Y55782D01*
Y55786D01*
X21325Y55895D01*
X21300Y56004D01*
X21282Y56113D01*
X21272Y56163D01*
X21266Y56213D01*
X21263Y56257D01*
X21260Y56297D01*
X21257Y56335D01*
Y56366D01*
X21253Y56391D01*
Y56410D01*
Y56422D01*
Y56425D01*
X21257Y56503D01*
X21260Y56581D01*
X21269Y56656D01*
X21279Y56725D01*
X21291Y56793D01*
X21306Y56856D01*
X21322Y56915D01*
X21338Y56968D01*
X21353Y57018D01*
X21369Y57062D01*
X21381Y57102D01*
X21397Y57133D01*
X21406Y57158D01*
X21416Y57177D01*
X21419Y57190D01*
X21422Y57193D01*
X21456Y57255D01*
X21491Y57314D01*
X21531Y57367D01*
X21569Y57420D01*
X21609Y57467D01*
X21650Y57511D01*
X21690Y57548D01*
X21731Y57586D01*
X21768Y57617D01*
X21803Y57645D01*
X21831Y57670D01*
X21859Y57689D01*
X21881Y57704D01*
X21896Y57714D01*
X21909Y57720D01*
X21912Y57723D01*
X21974Y57757D01*
X22034Y57785D01*
X22096Y57810D01*
X22158Y57832D01*
X22221Y57851D01*
X22280Y57867D01*
X22336Y57879D01*
X22392Y57888D01*
X22442Y57898D01*
X22486Y57904D01*
X22526Y57907D01*
X22564Y57910D01*
X22592Y57913D01*
X22629D01*
X22701Y57910D01*
D02*
G37*
G36*
X20043Y97870D02*
X20102Y97864D01*
X20158Y97854D01*
X20214Y97842D01*
X20265Y97826D01*
X20311Y97810D01*
X20355Y97792D01*
X20392Y97776D01*
X20430Y97757D01*
X20461Y97739D01*
X20486Y97723D01*
X20511Y97707D01*
X20527Y97695D01*
X20542Y97686D01*
X20548Y97679D01*
X20551Y97676D01*
X20592Y97639D01*
X20629Y97595D01*
X20664Y97552D01*
X20695Y97508D01*
X20723Y97461D01*
X20745Y97417D01*
X20786Y97327D01*
X20801Y97286D01*
X20814Y97249D01*
X20823Y97215D01*
X20832Y97186D01*
X20839Y97162D01*
X20842Y97143D01*
X20845Y97130D01*
Y97127D01*
X20492Y97065D01*
X20473Y97155D01*
X20448Y97233D01*
X20421Y97302D01*
X20389Y97355D01*
X20364Y97399D01*
X20339Y97427D01*
X20324Y97445D01*
X20317Y97452D01*
X20261Y97495D01*
X20205Y97527D01*
X20146Y97552D01*
X20093Y97567D01*
X20043Y97576D01*
X20024Y97580D01*
X20006D01*
X19990Y97583D01*
X19971D01*
X19896Y97576D01*
X19831Y97564D01*
X19771Y97542D01*
X19722Y97520D01*
X19684Y97495D01*
X19656Y97474D01*
X19637Y97461D01*
X19631Y97455D01*
X19606Y97430D01*
X19587Y97405D01*
X19553Y97349D01*
X19528Y97296D01*
X19512Y97246D01*
X19503Y97199D01*
X19500Y97165D01*
X19497Y97149D01*
Y97140D01*
Y97133D01*
Y97130D01*
X19500Y97087D01*
X19506Y97046D01*
X19512Y97005D01*
X19525Y96971D01*
X19556Y96909D01*
X19587Y96859D01*
X19622Y96818D01*
X19653Y96790D01*
X19665Y96781D01*
X19672Y96775D01*
X19678Y96768D01*
X19681D01*
X19750Y96728D01*
X19821Y96700D01*
X19890Y96678D01*
X19952Y96665D01*
X20006Y96656D01*
X20027Y96653D01*
X20049D01*
X20065Y96650D01*
X20105D01*
X20124Y96653D01*
X20140Y96656D01*
X20146D01*
X20183Y96347D01*
X20130Y96360D01*
X20080Y96369D01*
X20040Y96375D01*
X20002Y96381D01*
X19974D01*
X19952Y96385D01*
X19934D01*
X19890Y96381D01*
X19846Y96378D01*
X19768Y96360D01*
X19700Y96335D01*
X19640Y96307D01*
X19594Y96275D01*
X19575Y96263D01*
X19559Y96250D01*
X19547Y96241D01*
X19537Y96232D01*
X19534Y96229D01*
X19531Y96226D01*
X19503Y96194D01*
X19478Y96163D01*
X19456Y96132D01*
X19438Y96098D01*
X19410Y96032D01*
X19388Y95967D01*
X19378Y95910D01*
X19375Y95889D01*
X19372Y95867D01*
X19369Y95851D01*
Y95836D01*
Y95829D01*
Y95826D01*
X19372Y95779D01*
X19375Y95736D01*
X19397Y95651D01*
X19422Y95580D01*
X19453Y95517D01*
X19472Y95489D01*
X19488Y95467D01*
X19500Y95446D01*
X19512Y95430D01*
X19525Y95417D01*
X19534Y95408D01*
X19537Y95402D01*
X19541Y95399D01*
X19575Y95367D01*
X19609Y95342D01*
X19644Y95321D01*
X19678Y95299D01*
X19750Y95268D01*
X19818Y95249D01*
X19874Y95236D01*
X19903Y95233D01*
X19921Y95230D01*
X19940Y95227D01*
X19965D01*
X20040Y95233D01*
X20112Y95249D01*
X20171Y95268D01*
X20224Y95293D01*
X20268Y95318D01*
X20299Y95336D01*
X20308Y95346D01*
X20317Y95352D01*
X20321Y95358D01*
X20324D01*
X20349Y95386D01*
X20374Y95414D01*
X20417Y95480D01*
X20452Y95552D01*
X20480Y95623D01*
X20502Y95689D01*
X20508Y95717D01*
X20514Y95742D01*
X20520Y95764D01*
X20523Y95779D01*
X20527Y95789D01*
Y95792D01*
X20879Y95745D01*
X20870Y95679D01*
X20857Y95617D01*
X20839Y95558D01*
X20820Y95502D01*
X20798Y95449D01*
X20773Y95402D01*
X20748Y95355D01*
X20723Y95318D01*
X20698Y95280D01*
X20676Y95249D01*
X20654Y95221D01*
X20636Y95199D01*
X20617Y95180D01*
X20605Y95168D01*
X20598Y95162D01*
X20595Y95158D01*
X20548Y95118D01*
X20495Y95084D01*
X20445Y95056D01*
X20392Y95027D01*
X20339Y95006D01*
X20286Y94990D01*
X20236Y94974D01*
X20187Y94962D01*
X20140Y94952D01*
X20099Y94946D01*
X20062Y94940D01*
X20027Y94937D01*
X20002D01*
X19981Y94934D01*
X19965D01*
X19887Y94937D01*
X19815Y94946D01*
X19747Y94959D01*
X19681Y94974D01*
X19619Y94993D01*
X19563Y95015D01*
X19509Y95040D01*
X19463Y95065D01*
X19419Y95087D01*
X19381Y95112D01*
X19347Y95134D01*
X19322Y95152D01*
X19300Y95168D01*
X19285Y95180D01*
X19275Y95190D01*
X19272Y95193D01*
X19222Y95243D01*
X19182Y95296D01*
X19144Y95349D01*
X19113Y95405D01*
X19085Y95458D01*
X19063Y95511D01*
X19045Y95561D01*
X19029Y95611D01*
X19016Y95658D01*
X19010Y95698D01*
X19004Y95736D01*
X18998Y95770D01*
Y95795D01*
X18995Y95817D01*
Y95829D01*
Y95832D01*
Y95882D01*
X19001Y95932D01*
X19016Y96023D01*
X19041Y96101D01*
X19054Y96135D01*
X19066Y96166D01*
X19079Y96197D01*
X19091Y96222D01*
X19104Y96244D01*
X19116Y96260D01*
X19126Y96275D01*
X19132Y96285D01*
X19135Y96291D01*
X19138Y96294D01*
X19194Y96360D01*
X19260Y96413D01*
X19325Y96453D01*
X19388Y96488D01*
X19447Y96513D01*
X19472Y96522D01*
X19491Y96528D01*
X19509Y96534D01*
X19522Y96538D01*
X19531Y96541D01*
X19534D01*
X19466Y96578D01*
X19407Y96615D01*
X19353Y96656D01*
X19313Y96697D01*
X19278Y96731D01*
X19257Y96759D01*
X19241Y96778D01*
X19238Y96781D01*
Y96784D01*
X19204Y96843D01*
X19179Y96903D01*
X19160Y96959D01*
X19148Y97012D01*
X19141Y97055D01*
X19135Y97093D01*
Y97105D01*
Y97115D01*
Y97121D01*
Y97124D01*
X19138Y97196D01*
X19151Y97264D01*
X19169Y97327D01*
X19188Y97383D01*
X19207Y97430D01*
X19216Y97448D01*
X19226Y97464D01*
X19232Y97477D01*
X19238Y97489D01*
X19241Y97492D01*
Y97495D01*
X19285Y97558D01*
X19335Y97611D01*
X19385Y97658D01*
X19434Y97698D01*
X19478Y97729D01*
X19512Y97751D01*
X19528Y97760D01*
X19537Y97767D01*
X19544Y97770D01*
X19547D01*
X19622Y97804D01*
X19697Y97829D01*
X19771Y97848D01*
X19837Y97860D01*
X19896Y97867D01*
X19918Y97870D01*
X19940Y97873D01*
X19981D01*
X20043Y97870D01*
D02*
G37*
G36*
X22698Y97910D02*
X22770Y97904D01*
X22839Y97898D01*
X22904Y97885D01*
X22970Y97870D01*
X23029Y97854D01*
X23082Y97838D01*
X23135Y97823D01*
X23178Y97804D01*
X23222Y97789D01*
X23257Y97773D01*
X23288Y97757D01*
X23313Y97745D01*
X23328Y97739D01*
X23341Y97732D01*
X23344Y97729D01*
X23403Y97695D01*
X23456Y97654D01*
X23506Y97614D01*
X23556Y97570D01*
X23600Y97527D01*
X23637Y97483D01*
X23675Y97439D01*
X23709Y97395D01*
X23737Y97355D01*
X23762Y97321D01*
X23784Y97286D01*
X23802Y97255D01*
X23815Y97233D01*
X23824Y97215D01*
X23831Y97202D01*
X23834Y97199D01*
X23865Y97133D01*
X23890Y97065D01*
X23912Y96996D01*
X23934Y96931D01*
X23965Y96800D01*
X23974Y96737D01*
X23983Y96681D01*
X23990Y96625D01*
X23996Y96575D01*
X23999Y96531D01*
X24002Y96494D01*
X24005Y96463D01*
Y96441D01*
Y96428D01*
Y96422D01*
X24002Y96344D01*
X23999Y96266D01*
X23990Y96191D01*
X23977Y96122D01*
X23965Y96054D01*
X23952Y95991D01*
X23937Y95932D01*
X23918Y95876D01*
X23902Y95826D01*
X23887Y95782D01*
X23874Y95745D01*
X23862Y95711D01*
X23849Y95686D01*
X23840Y95667D01*
X23837Y95654D01*
X23834Y95651D01*
X23799Y95589D01*
X23762Y95530D01*
X23724Y95477D01*
X23684Y95427D01*
X23643Y95380D01*
X23603Y95336D01*
X23562Y95296D01*
X23525Y95261D01*
X23487Y95230D01*
X23453Y95202D01*
X23422Y95177D01*
X23397Y95158D01*
X23375Y95143D01*
X23356Y95134D01*
X23347Y95127D01*
X23344Y95124D01*
X23285Y95090D01*
X23222Y95062D01*
X23160Y95037D01*
X23097Y95015D01*
X23038Y94999D01*
X22979Y94984D01*
X22923Y94971D01*
X22870Y94962D01*
X22820Y94952D01*
X22776Y94946D01*
X22736Y94943D01*
X22701Y94940D01*
X22673Y94937D01*
X22636D01*
X22564Y94940D01*
X22495Y94943D01*
X22361Y94965D01*
X22299Y94977D01*
X22242Y94993D01*
X22186Y95009D01*
X22137Y95024D01*
X22090Y95040D01*
X22049Y95056D01*
X22015Y95071D01*
X21984Y95084D01*
X21959Y95096D01*
X21943Y95105D01*
X21930Y95108D01*
X21927Y95112D01*
X21812Y95027D01*
X21700Y94956D01*
X21597Y94896D01*
X21547Y94871D01*
X21503Y94850D01*
X21463Y94828D01*
X21425Y94809D01*
X21391Y94797D01*
X21363Y94784D01*
X21341Y94775D01*
X21322Y94768D01*
X21313Y94762D01*
X21310D01*
X21194Y95024D01*
X21279Y95059D01*
X21366Y95102D01*
X21450Y95146D01*
X21525Y95190D01*
X21559Y95211D01*
X21590Y95230D01*
X21619Y95249D01*
X21640Y95261D01*
X21662Y95274D01*
X21675Y95283D01*
X21684Y95289D01*
X21687Y95293D01*
X21609Y95374D01*
X21544Y95458D01*
X21487Y95539D01*
X21441Y95617D01*
X21422Y95651D01*
X21406Y95686D01*
X21391Y95714D01*
X21381Y95739D01*
X21372Y95758D01*
X21366Y95773D01*
X21360Y95782D01*
Y95786D01*
X21322Y95895D01*
X21297Y96004D01*
X21279Y96113D01*
X21269Y96163D01*
X21263Y96213D01*
X21260Y96257D01*
X21257Y96297D01*
X21253Y96335D01*
Y96366D01*
X21250Y96391D01*
Y96410D01*
Y96422D01*
Y96425D01*
X21253Y96503D01*
X21257Y96581D01*
X21266Y96656D01*
X21275Y96725D01*
X21288Y96793D01*
X21303Y96856D01*
X21319Y96915D01*
X21335Y96968D01*
X21350Y97018D01*
X21366Y97062D01*
X21378Y97102D01*
X21394Y97133D01*
X21403Y97158D01*
X21413Y97177D01*
X21416Y97190D01*
X21419Y97193D01*
X21453Y97255D01*
X21487Y97314D01*
X21528Y97367D01*
X21565Y97420D01*
X21606Y97467D01*
X21647Y97511D01*
X21687Y97548D01*
X21728Y97586D01*
X21765Y97617D01*
X21800Y97645D01*
X21828Y97670D01*
X21856Y97689D01*
X21878Y97704D01*
X21893Y97714D01*
X21906Y97720D01*
X21909Y97723D01*
X21971Y97757D01*
X22030Y97786D01*
X22093Y97810D01*
X22155Y97832D01*
X22218Y97851D01*
X22277Y97867D01*
X22333Y97879D01*
X22389Y97888D01*
X22439Y97898D01*
X22483Y97904D01*
X22523Y97907D01*
X22561Y97910D01*
X22589Y97913D01*
X22626D01*
X22698Y97910D01*
D02*
G37*
G36*
X20996Y75998D02*
Y75673D01*
X19742D01*
Y74984D01*
X19389D01*
Y75673D01*
X18999D01*
Y75998D01*
X19389D01*
Y77864D01*
X19680D01*
X20996Y75998D01*
D02*
G37*
G36*
X22693Y77910D02*
X22765Y77904D01*
X22834Y77898D01*
X22899Y77885D01*
X22965Y77870D01*
X23024Y77854D01*
X23077Y77838D01*
X23130Y77823D01*
X23174Y77804D01*
X23217Y77789D01*
X23252Y77773D01*
X23283Y77757D01*
X23308Y77745D01*
X23324Y77739D01*
X23336Y77732D01*
X23339Y77729D01*
X23399Y77695D01*
X23451Y77654D01*
X23502Y77614D01*
X23551Y77570D01*
X23595Y77526D01*
X23632Y77483D01*
X23670Y77439D01*
X23704Y77395D01*
X23732Y77355D01*
X23757Y77321D01*
X23779Y77286D01*
X23798Y77255D01*
X23810Y77233D01*
X23820Y77214D01*
X23826Y77202D01*
X23829Y77199D01*
X23860Y77133D01*
X23885Y77065D01*
X23907Y76996D01*
X23929Y76931D01*
X23960Y76800D01*
X23969Y76737D01*
X23979Y76681D01*
X23985Y76625D01*
X23991Y76575D01*
X23994Y76531D01*
X23998Y76494D01*
X24001Y76463D01*
Y76441D01*
Y76428D01*
Y76422D01*
X23998Y76344D01*
X23994Y76266D01*
X23985Y76191D01*
X23973Y76122D01*
X23960Y76054D01*
X23948Y75991D01*
X23932Y75932D01*
X23913Y75876D01*
X23898Y75826D01*
X23882Y75782D01*
X23870Y75745D01*
X23857Y75711D01*
X23845Y75686D01*
X23835Y75667D01*
X23832Y75655D01*
X23829Y75651D01*
X23795Y75589D01*
X23757Y75530D01*
X23720Y75477D01*
X23679Y75427D01*
X23639Y75380D01*
X23598Y75336D01*
X23558Y75296D01*
X23520Y75261D01*
X23483Y75230D01*
X23448Y75202D01*
X23417Y75177D01*
X23392Y75158D01*
X23370Y75143D01*
X23352Y75134D01*
X23342Y75127D01*
X23339Y75124D01*
X23280Y75090D01*
X23217Y75062D01*
X23155Y75037D01*
X23093Y75015D01*
X23033Y74999D01*
X22974Y74984D01*
X22918Y74971D01*
X22865Y74962D01*
X22815Y74953D01*
X22771Y74946D01*
X22731Y74943D01*
X22696Y74940D01*
X22668Y74937D01*
X22631D01*
X22559Y74940D01*
X22491Y74943D01*
X22356Y74965D01*
X22294Y74977D01*
X22238Y74993D01*
X22182Y75009D01*
X22132Y75024D01*
X22085Y75040D01*
X22044Y75055D01*
X22010Y75071D01*
X21979Y75084D01*
X21954Y75096D01*
X21938Y75105D01*
X21926Y75108D01*
X21923Y75112D01*
X21807Y75027D01*
X21695Y74956D01*
X21592Y74896D01*
X21542Y74871D01*
X21498Y74850D01*
X21458Y74828D01*
X21420Y74809D01*
X21386Y74796D01*
X21358Y74784D01*
X21336Y74775D01*
X21317Y74768D01*
X21308Y74762D01*
X21305D01*
X21190Y75024D01*
X21274Y75059D01*
X21361Y75102D01*
X21445Y75146D01*
X21520Y75190D01*
X21555Y75212D01*
X21586Y75230D01*
X21614Y75249D01*
X21636Y75261D01*
X21657Y75274D01*
X21670Y75283D01*
X21679Y75289D01*
X21682Y75293D01*
X21605Y75374D01*
X21539Y75458D01*
X21483Y75539D01*
X21436Y75617D01*
X21417Y75651D01*
X21402Y75686D01*
X21386Y75714D01*
X21377Y75739D01*
X21367Y75757D01*
X21361Y75773D01*
X21355Y75782D01*
Y75786D01*
X21317Y75895D01*
X21293Y76004D01*
X21274Y76113D01*
X21264Y76163D01*
X21258Y76213D01*
X21255Y76257D01*
X21252Y76297D01*
X21249Y76335D01*
Y76366D01*
X21246Y76391D01*
Y76410D01*
Y76422D01*
Y76425D01*
X21249Y76503D01*
X21252Y76581D01*
X21261Y76656D01*
X21271Y76725D01*
X21283Y76793D01*
X21299Y76856D01*
X21314Y76915D01*
X21330Y76968D01*
X21346Y77018D01*
X21361Y77062D01*
X21374Y77102D01*
X21389Y77133D01*
X21399Y77158D01*
X21408Y77177D01*
X21411Y77190D01*
X21414Y77193D01*
X21449Y77255D01*
X21483Y77314D01*
X21523Y77367D01*
X21561Y77420D01*
X21601Y77467D01*
X21642Y77511D01*
X21682Y77548D01*
X21723Y77586D01*
X21760Y77617D01*
X21795Y77645D01*
X21823Y77670D01*
X21851Y77689D01*
X21873Y77704D01*
X21888Y77714D01*
X21901Y77720D01*
X21904Y77723D01*
X21966Y77757D01*
X22026Y77785D01*
X22088Y77810D01*
X22151Y77832D01*
X22213Y77851D01*
X22272Y77867D01*
X22328Y77879D01*
X22385Y77888D01*
X22434Y77898D01*
X22478Y77904D01*
X22519Y77907D01*
X22556Y77910D01*
X22584Y77913D01*
X22622D01*
X22693Y77910D01*
D02*
G37*
G36*
X19988Y117870D02*
X20060Y117864D01*
X20126Y117854D01*
X20188Y117839D01*
X20247Y117823D01*
X20300Y117804D01*
X20350Y117786D01*
X20394Y117767D01*
X20435Y117745D01*
X20469Y117726D01*
X20500Y117708D01*
X20525Y117692D01*
X20544Y117676D01*
X20556Y117667D01*
X20565Y117661D01*
X20569Y117658D01*
X20612Y117617D01*
X20650Y117570D01*
X20684Y117523D01*
X20715Y117470D01*
X20740Y117420D01*
X20765Y117370D01*
X20784Y117317D01*
X20799Y117271D01*
X20815Y117224D01*
X20824Y117180D01*
X20834Y117140D01*
X20840Y117105D01*
X20843Y117077D01*
X20846Y117059D01*
X20850Y117046D01*
Y117040D01*
X20488Y117002D01*
X20484Y117052D01*
X20481Y117099D01*
X20463Y117180D01*
X20438Y117255D01*
X20425Y117286D01*
X20410Y117314D01*
X20397Y117339D01*
X20381Y117361D01*
X20369Y117380D01*
X20360Y117395D01*
X20347Y117408D01*
X20341Y117417D01*
X20338Y117420D01*
X20335Y117424D01*
X20303Y117452D01*
X20272Y117477D01*
X20238Y117495D01*
X20204Y117514D01*
X20135Y117542D01*
X20069Y117561D01*
X20013Y117570D01*
X19988Y117576D01*
X19966D01*
X19948Y117580D01*
X19879D01*
X19836Y117573D01*
X19758Y117558D01*
X19692Y117533D01*
X19633Y117508D01*
X19589Y117480D01*
X19570Y117467D01*
X19555Y117455D01*
X19542Y117445D01*
X19533Y117439D01*
X19530Y117436D01*
X19527Y117433D01*
X19499Y117405D01*
X19477Y117377D01*
X19455Y117349D01*
X19439Y117317D01*
X19411Y117258D01*
X19392Y117202D01*
X19383Y117155D01*
X19377Y117133D01*
Y117115D01*
X19374Y117102D01*
Y117090D01*
Y117084D01*
Y117080D01*
X19377Y117043D01*
X19380Y117006D01*
X19399Y116931D01*
X19427Y116859D01*
X19458Y116793D01*
X19489Y116737D01*
X19502Y116715D01*
X19517Y116693D01*
X19527Y116678D01*
X19536Y116665D01*
X19539Y116659D01*
X19542Y116656D01*
X19577Y116612D01*
X19617Y116566D01*
X19664Y116516D01*
X19714Y116466D01*
X19817Y116363D01*
X19923Y116266D01*
X19973Y116219D01*
X20023Y116179D01*
X20066Y116141D01*
X20104Y116110D01*
X20135Y116082D01*
X20157Y116063D01*
X20172Y116048D01*
X20179Y116044D01*
X20235Y115998D01*
X20285Y115954D01*
X20335Y115913D01*
X20378Y115873D01*
X20422Y115835D01*
X20459Y115798D01*
X20494Y115767D01*
X20525Y115736D01*
X20553Y115708D01*
X20575Y115683D01*
X20597Y115661D01*
X20612Y115645D01*
X20628Y115630D01*
X20637Y115620D01*
X20640Y115614D01*
X20643Y115611D01*
X20700Y115542D01*
X20746Y115474D01*
X20787Y115408D01*
X20818Y115349D01*
X20843Y115299D01*
X20853Y115277D01*
X20862Y115261D01*
X20868Y115246D01*
X20871Y115236D01*
X20874Y115230D01*
Y115227D01*
X20890Y115183D01*
X20899Y115140D01*
X20909Y115099D01*
X20912Y115062D01*
X20915Y115031D01*
Y115006D01*
Y114990D01*
Y114984D01*
X19009D01*
Y115324D01*
X20428D01*
X20378Y115392D01*
X20353Y115424D01*
X20328Y115452D01*
X20307Y115477D01*
X20291Y115495D01*
X20279Y115508D01*
X20275Y115511D01*
X20257Y115530D01*
X20232Y115555D01*
X20204Y115580D01*
X20172Y115608D01*
X20107Y115670D01*
X20038Y115729D01*
X19973Y115786D01*
X19945Y115811D01*
X19917Y115832D01*
X19898Y115851D01*
X19879Y115864D01*
X19870Y115873D01*
X19867Y115876D01*
X19798Y115935D01*
X19733Y115991D01*
X19673Y116041D01*
X19620Y116091D01*
X19570Y116135D01*
X19527Y116179D01*
X19486Y116216D01*
X19449Y116250D01*
X19417Y116279D01*
X19392Y116307D01*
X19371Y116328D01*
X19352Y116347D01*
X19339Y116363D01*
X19327Y116372D01*
X19324Y116378D01*
X19321Y116382D01*
X19261Y116450D01*
X19215Y116513D01*
X19174Y116572D01*
X19140Y116625D01*
X19115Y116668D01*
X19096Y116703D01*
X19090Y116715D01*
X19087Y116725D01*
X19083Y116728D01*
Y116731D01*
X19059Y116793D01*
X19043Y116856D01*
X19030Y116912D01*
X19021Y116965D01*
X19015Y117009D01*
X19012Y117043D01*
Y117055D01*
Y117065D01*
Y117068D01*
Y117071D01*
X19015Y117133D01*
X19021Y117193D01*
X19034Y117249D01*
X19049Y117305D01*
X19068Y117355D01*
X19090Y117402D01*
X19112Y117445D01*
X19133Y117483D01*
X19155Y117520D01*
X19177Y117552D01*
X19199Y117580D01*
X19218Y117601D01*
X19233Y117617D01*
X19246Y117633D01*
X19252Y117639D01*
X19255Y117642D01*
X19302Y117683D01*
X19352Y117717D01*
X19405Y117748D01*
X19461Y117776D01*
X19514Y117798D01*
X19570Y117817D01*
X19623Y117832D01*
X19676Y117845D01*
X19723Y117854D01*
X19770Y117860D01*
X19811Y117867D01*
X19845Y117870D01*
X19873Y117873D01*
X19914D01*
X19988Y117870D01*
D02*
G37*
G36*
X22684Y117910D02*
X22756Y117904D01*
X22824Y117898D01*
X22890Y117885D01*
X22955Y117870D01*
X23015Y117854D01*
X23068Y117839D01*
X23121Y117823D01*
X23165Y117804D01*
X23208Y117789D01*
X23243Y117773D01*
X23274Y117757D01*
X23299Y117745D01*
X23314Y117739D01*
X23327Y117732D01*
X23330Y117729D01*
X23389Y117695D01*
X23442Y117654D01*
X23492Y117614D01*
X23542Y117570D01*
X23586Y117526D01*
X23623Y117483D01*
X23661Y117439D01*
X23695Y117395D01*
X23723Y117355D01*
X23748Y117321D01*
X23770Y117286D01*
X23788Y117255D01*
X23801Y117233D01*
X23810Y117215D01*
X23817Y117202D01*
X23820Y117199D01*
X23851Y117133D01*
X23876Y117065D01*
X23898Y116996D01*
X23920Y116931D01*
X23951Y116800D01*
X23960Y116737D01*
X23969Y116681D01*
X23976Y116625D01*
X23982Y116575D01*
X23985Y116531D01*
X23988Y116494D01*
X23991Y116463D01*
Y116441D01*
Y116428D01*
Y116422D01*
X23988Y116344D01*
X23985Y116266D01*
X23976Y116191D01*
X23963Y116122D01*
X23951Y116054D01*
X23938Y115991D01*
X23923Y115932D01*
X23904Y115876D01*
X23888Y115826D01*
X23873Y115782D01*
X23860Y115745D01*
X23848Y115711D01*
X23835Y115686D01*
X23826Y115667D01*
X23823Y115655D01*
X23820Y115651D01*
X23785Y115589D01*
X23748Y115530D01*
X23710Y115477D01*
X23670Y115427D01*
X23629Y115380D01*
X23589Y115336D01*
X23548Y115296D01*
X23511Y115261D01*
X23473Y115230D01*
X23439Y115202D01*
X23408Y115177D01*
X23383Y115158D01*
X23361Y115143D01*
X23342Y115134D01*
X23333Y115127D01*
X23330Y115124D01*
X23271Y115090D01*
X23208Y115062D01*
X23146Y115037D01*
X23083Y115015D01*
X23024Y114999D01*
X22965Y114984D01*
X22909Y114971D01*
X22856Y114962D01*
X22806Y114953D01*
X22762Y114946D01*
X22722Y114943D01*
X22687Y114940D01*
X22659Y114937D01*
X22622D01*
X22550Y114940D01*
X22481Y114943D01*
X22347Y114965D01*
X22285Y114978D01*
X22229Y114993D01*
X22172Y115009D01*
X22122Y115024D01*
X22076Y115040D01*
X22035Y115056D01*
X22001Y115071D01*
X21970Y115084D01*
X21945Y115096D01*
X21929Y115105D01*
X21916Y115109D01*
X21913Y115112D01*
X21798Y115027D01*
X21686Y114956D01*
X21583Y114896D01*
X21533Y114871D01*
X21489Y114850D01*
X21449Y114828D01*
X21411Y114809D01*
X21377Y114796D01*
X21349Y114784D01*
X21327Y114775D01*
X21308Y114768D01*
X21299Y114762D01*
X21296D01*
X21180Y115024D01*
X21264Y115059D01*
X21352Y115102D01*
X21436Y115146D01*
X21511Y115190D01*
X21545Y115211D01*
X21576Y115230D01*
X21605Y115249D01*
X21626Y115261D01*
X21648Y115274D01*
X21661Y115283D01*
X21670Y115289D01*
X21673Y115293D01*
X21595Y115374D01*
X21530Y115458D01*
X21474Y115539D01*
X21427Y115617D01*
X21408Y115651D01*
X21392Y115686D01*
X21377Y115714D01*
X21367Y115739D01*
X21358Y115758D01*
X21352Y115773D01*
X21346Y115782D01*
Y115786D01*
X21308Y115895D01*
X21283Y116004D01*
X21264Y116113D01*
X21255Y116163D01*
X21249Y116213D01*
X21246Y116257D01*
X21243Y116297D01*
X21239Y116335D01*
Y116366D01*
X21236Y116391D01*
Y116410D01*
Y116422D01*
Y116425D01*
X21239Y116503D01*
X21243Y116581D01*
X21252Y116656D01*
X21261Y116725D01*
X21274Y116793D01*
X21289Y116856D01*
X21305Y116915D01*
X21321Y116968D01*
X21336Y117018D01*
X21352Y117062D01*
X21364Y117102D01*
X21380Y117133D01*
X21389Y117158D01*
X21399Y117177D01*
X21402Y117190D01*
X21405Y117193D01*
X21439Y117255D01*
X21474Y117314D01*
X21514Y117367D01*
X21552Y117420D01*
X21592Y117467D01*
X21633Y117511D01*
X21673Y117548D01*
X21714Y117586D01*
X21751Y117617D01*
X21786Y117645D01*
X21813Y117670D01*
X21842Y117689D01*
X21863Y117704D01*
X21879Y117714D01*
X21892Y117720D01*
X21895Y117723D01*
X21957Y117757D01*
X22016Y117786D01*
X22079Y117810D01*
X22141Y117832D01*
X22204Y117851D01*
X22263Y117867D01*
X22319Y117879D01*
X22375Y117888D01*
X22425Y117898D01*
X22469Y117904D01*
X22509Y117907D01*
X22547Y117910D01*
X22575Y117913D01*
X22612D01*
X22684Y117910D01*
D02*
G37*
G36*
X130725Y65896D02*
X130772Y65828D01*
X130825Y65762D01*
X130878Y65706D01*
X130924Y65653D01*
X130946Y65634D01*
X130962Y65615D01*
X130977Y65600D01*
X130990Y65590D01*
X130996Y65584D01*
X130999Y65581D01*
X131084Y65509D01*
X131174Y65447D01*
X131261Y65388D01*
X131342Y65338D01*
X131377Y65319D01*
X131411Y65300D01*
X131442Y65282D01*
X131467Y65269D01*
X131489Y65260D01*
X131505Y65250D01*
X131514Y65247D01*
X131517Y65244D01*
Y64904D01*
X131455Y64929D01*
X131389Y64957D01*
X131327Y64988D01*
X131271Y65016D01*
X131221Y65044D01*
X131199Y65054D01*
X131180Y65066D01*
X131165Y65073D01*
X131155Y65079D01*
X131149Y65085D01*
X131146D01*
X131071Y65132D01*
X131006Y65175D01*
X130946Y65216D01*
X130899Y65254D01*
X130859Y65285D01*
X130831Y65307D01*
X130815Y65322D01*
X130809Y65328D01*
Y63079D01*
X130456D01*
Y65968D01*
X130684D01*
X130725Y65896D01*
D02*
G37*
G36*
X134544Y64296D02*
Y64211D01*
X134537Y64133D01*
X134534Y64059D01*
X134525Y63990D01*
X134519Y63924D01*
X134509Y63865D01*
X134500Y63812D01*
X134487Y63762D01*
X134478Y63718D01*
X134469Y63681D01*
X134459Y63647D01*
X134450Y63622D01*
X134444Y63600D01*
X134438Y63584D01*
X134434Y63575D01*
Y63572D01*
X134413Y63525D01*
X134388Y63478D01*
X134331Y63397D01*
X134272Y63328D01*
X134210Y63272D01*
X134182Y63247D01*
X134157Y63229D01*
X134132Y63210D01*
X134110Y63194D01*
X134094Y63185D01*
X134082Y63176D01*
X134072Y63172D01*
X134069Y63169D01*
X134019Y63144D01*
X133966Y63126D01*
X133857Y63091D01*
X133745Y63066D01*
X133639Y63051D01*
X133592Y63045D01*
X133545Y63038D01*
X133508Y63035D01*
X133473D01*
X133445Y63032D01*
X133405D01*
X133330Y63035D01*
X133258Y63038D01*
X133189Y63048D01*
X133124Y63057D01*
X133065Y63069D01*
X133009Y63082D01*
X132959Y63098D01*
X132915Y63113D01*
X132871Y63126D01*
X132837Y63141D01*
X132806Y63154D01*
X132781Y63166D01*
X132759Y63176D01*
X132747Y63185D01*
X132737Y63188D01*
X132734Y63191D01*
X132687Y63222D01*
X132643Y63254D01*
X132606Y63288D01*
X132569Y63322D01*
X132537Y63357D01*
X132506Y63394D01*
X132481Y63425D01*
X132459Y63459D01*
X132422Y63516D01*
X132410Y63541D01*
X132397Y63562D01*
X132388Y63581D01*
X132381Y63594D01*
X132378Y63603D01*
Y63606D01*
X132360Y63656D01*
X132344Y63709D01*
X132319Y63821D01*
X132303Y63937D01*
X132291Y64046D01*
X132288Y64099D01*
X132285Y64146D01*
X132282Y64186D01*
X132279Y64224D01*
Y64255D01*
Y64277D01*
Y64289D01*
Y64296D01*
Y65959D01*
X132659D01*
Y64296D01*
X132662Y64199D01*
X132665Y64108D01*
X132675Y64027D01*
X132687Y63952D01*
X132700Y63887D01*
X132715Y63828D01*
X132734Y63775D01*
X132750Y63728D01*
X132765Y63687D01*
X132784Y63653D01*
X132799Y63625D01*
X132812Y63603D01*
X132825Y63587D01*
X132831Y63575D01*
X132837Y63569D01*
X132840Y63566D01*
X132878Y63531D01*
X132918Y63503D01*
X132962Y63478D01*
X133009Y63456D01*
X133059Y63438D01*
X133108Y63422D01*
X133205Y63400D01*
X133252Y63391D01*
X133296Y63385D01*
X133336Y63381D01*
X133370Y63378D01*
X133399Y63375D01*
X133439D01*
X133527Y63378D01*
X133608Y63391D01*
X133679Y63406D01*
X133742Y63422D01*
X133767Y63431D01*
X133789Y63441D01*
X133810Y63447D01*
X133826Y63453D01*
X133838Y63459D01*
X133848Y63466D01*
X133854Y63469D01*
X133857D01*
X133916Y63509D01*
X133966Y63553D01*
X134007Y63597D01*
X134038Y63644D01*
X134063Y63681D01*
X134082Y63715D01*
X134088Y63728D01*
X134091Y63737D01*
X134094Y63740D01*
Y63743D01*
X134107Y63778D01*
X134116Y63818D01*
X134135Y63906D01*
X134147Y63996D01*
X134154Y64087D01*
X134157Y64127D01*
X134160Y64168D01*
Y64202D01*
X134163Y64233D01*
Y64261D01*
Y64280D01*
Y64293D01*
Y64296D01*
Y65959D01*
X134544D01*
Y64296D01*
D02*
G37*
G36*
X20659Y17801D02*
X20706Y17732D01*
X20759Y17667D01*
X20812Y17611D01*
X20859Y17558D01*
X20881Y17539D01*
X20896Y17520D01*
X20912Y17505D01*
X20924Y17495D01*
X20931Y17489D01*
X20934Y17486D01*
X21018Y17414D01*
X21108Y17352D01*
X21196Y17292D01*
X21277Y17243D01*
X21311Y17224D01*
X21346Y17205D01*
X21377Y17186D01*
X21402Y17174D01*
X21423Y17165D01*
X21439Y17155D01*
X21449Y17152D01*
X21452Y17149D01*
Y16809D01*
X21389Y16834D01*
X21324Y16862D01*
X21261Y16893D01*
X21205Y16921D01*
X21155Y16949D01*
X21133Y16959D01*
X21115Y16971D01*
X21099Y16977D01*
X21090Y16984D01*
X21083Y16990D01*
X21080D01*
X21005Y17037D01*
X20940Y17080D01*
X20881Y17121D01*
X20834Y17158D01*
X20793Y17190D01*
X20765Y17211D01*
X20750Y17227D01*
X20743Y17233D01*
Y14984D01*
X20391D01*
Y17873D01*
X20619D01*
X20659Y17801D01*
D02*
G37*
G36*
X18422D02*
X18469Y17732D01*
X18522Y17667D01*
X18575Y17611D01*
X18622Y17558D01*
X18644Y17539D01*
X18659Y17520D01*
X18675Y17505D01*
X18687Y17495D01*
X18693Y17489D01*
X18697Y17486D01*
X18781Y17414D01*
X18871Y17352D01*
X18959Y17292D01*
X19040Y17243D01*
X19074Y17224D01*
X19108Y17205D01*
X19140Y17186D01*
X19165Y17174D01*
X19186Y17165D01*
X19202Y17155D01*
X19211Y17152D01*
X19215Y17149D01*
Y16809D01*
X19152Y16834D01*
X19087Y16862D01*
X19024Y16893D01*
X18968Y16921D01*
X18918Y16949D01*
X18896Y16959D01*
X18878Y16971D01*
X18862Y16977D01*
X18853Y16984D01*
X18846Y16990D01*
X18843D01*
X18768Y17037D01*
X18703Y17080D01*
X18644Y17121D01*
X18597Y17158D01*
X18556Y17190D01*
X18528Y17211D01*
X18513Y17227D01*
X18506Y17233D01*
Y14984D01*
X18154D01*
Y17873D01*
X18382D01*
X18422Y17801D01*
D02*
G37*
G36*
X23539Y17910D02*
X23611Y17904D01*
X23679Y17898D01*
X23745Y17885D01*
X23810Y17870D01*
X23870Y17854D01*
X23923Y17839D01*
X23976Y17823D01*
X24019Y17804D01*
X24063Y17789D01*
X24097Y17773D01*
X24129Y17757D01*
X24153Y17745D01*
X24169Y17739D01*
X24182Y17732D01*
X24185Y17729D01*
X24244Y17695D01*
X24297Y17654D01*
X24347Y17614D01*
X24397Y17570D01*
X24441Y17526D01*
X24478Y17483D01*
X24516Y17439D01*
X24550Y17395D01*
X24578Y17355D01*
X24603Y17321D01*
X24625Y17286D01*
X24643Y17255D01*
X24656Y17233D01*
X24665Y17214D01*
X24671Y17202D01*
X24675Y17199D01*
X24706Y17133D01*
X24731Y17065D01*
X24753Y16996D01*
X24774Y16931D01*
X24806Y16800D01*
X24815Y16737D01*
X24824Y16681D01*
X24831Y16625D01*
X24837Y16575D01*
X24840Y16531D01*
X24843Y16494D01*
X24846Y16463D01*
Y16441D01*
Y16428D01*
Y16422D01*
X24843Y16344D01*
X24840Y16266D01*
X24831Y16191D01*
X24818Y16123D01*
X24806Y16054D01*
X24793Y15992D01*
X24778Y15932D01*
X24759Y15876D01*
X24743Y15826D01*
X24728Y15782D01*
X24715Y15745D01*
X24703Y15711D01*
X24690Y15686D01*
X24681Y15667D01*
X24678Y15654D01*
X24675Y15651D01*
X24640Y15589D01*
X24603Y15530D01*
X24565Y15477D01*
X24525Y15427D01*
X24484Y15380D01*
X24444Y15336D01*
X24403Y15296D01*
X24366Y15261D01*
X24328Y15230D01*
X24294Y15202D01*
X24263Y15177D01*
X24238Y15158D01*
X24216Y15143D01*
X24197Y15134D01*
X24188Y15127D01*
X24185Y15124D01*
X24126Y15090D01*
X24063Y15062D01*
X24001Y15037D01*
X23938Y15015D01*
X23879Y14999D01*
X23820Y14984D01*
X23764Y14971D01*
X23710Y14962D01*
X23661Y14953D01*
X23617Y14946D01*
X23576Y14943D01*
X23542Y14940D01*
X23514Y14937D01*
X23476D01*
X23405Y14940D01*
X23336Y14943D01*
X23202Y14965D01*
X23140Y14977D01*
X23083Y14993D01*
X23027Y15009D01*
X22977Y15024D01*
X22930Y15040D01*
X22890Y15055D01*
X22856Y15071D01*
X22824Y15084D01*
X22799Y15096D01*
X22784Y15105D01*
X22771Y15109D01*
X22768Y15112D01*
X22653Y15027D01*
X22540Y14956D01*
X22437Y14896D01*
X22388Y14871D01*
X22344Y14850D01*
X22303Y14828D01*
X22266Y14809D01*
X22232Y14796D01*
X22204Y14784D01*
X22182Y14775D01*
X22163Y14768D01*
X22154Y14762D01*
X22151D01*
X22035Y15024D01*
X22119Y15059D01*
X22207Y15102D01*
X22291Y15146D01*
X22366Y15190D01*
X22400Y15212D01*
X22431Y15230D01*
X22459Y15249D01*
X22481Y15261D01*
X22503Y15274D01*
X22515Y15283D01*
X22525Y15290D01*
X22528Y15293D01*
X22450Y15374D01*
X22385Y15458D01*
X22328Y15539D01*
X22282Y15617D01*
X22263Y15651D01*
X22247Y15686D01*
X22232Y15714D01*
X22222Y15739D01*
X22213Y15757D01*
X22207Y15773D01*
X22200Y15782D01*
Y15786D01*
X22163Y15895D01*
X22138Y16004D01*
X22119Y16113D01*
X22110Y16163D01*
X22104Y16213D01*
X22101Y16257D01*
X22097Y16297D01*
X22094Y16335D01*
Y16366D01*
X22091Y16391D01*
Y16410D01*
Y16422D01*
Y16425D01*
X22094Y16503D01*
X22097Y16581D01*
X22107Y16656D01*
X22116Y16725D01*
X22129Y16793D01*
X22144Y16856D01*
X22160Y16915D01*
X22175Y16968D01*
X22191Y17018D01*
X22207Y17062D01*
X22219Y17102D01*
X22235Y17133D01*
X22244Y17158D01*
X22253Y17177D01*
X22257Y17190D01*
X22260Y17193D01*
X22294Y17255D01*
X22328Y17314D01*
X22369Y17367D01*
X22406Y17420D01*
X22447Y17467D01*
X22488Y17511D01*
X22528Y17548D01*
X22569Y17586D01*
X22606Y17617D01*
X22640Y17645D01*
X22668Y17670D01*
X22696Y17689D01*
X22718Y17704D01*
X22734Y17714D01*
X22746Y17720D01*
X22749Y17723D01*
X22812Y17757D01*
X22871Y17785D01*
X22934Y17810D01*
X22996Y17832D01*
X23058Y17851D01*
X23118Y17867D01*
X23174Y17879D01*
X23230Y17888D01*
X23280Y17898D01*
X23324Y17904D01*
X23364Y17907D01*
X23402Y17910D01*
X23430Y17913D01*
X23467D01*
X23539Y17910D01*
D02*
G37*
G36*
X46766Y58528D02*
X46834Y58578D01*
X46865Y58603D01*
X46894Y58628D01*
X46918Y58650D01*
X46937Y58665D01*
X46950Y58678D01*
X46953Y58681D01*
X46971Y58700D01*
X46996Y58725D01*
X47021Y58753D01*
X47049Y58784D01*
X47112Y58849D01*
X47171Y58918D01*
X47227Y58984D01*
X47252Y59012D01*
X47274Y59040D01*
X47293Y59058D01*
X47305Y59077D01*
X47315Y59087D01*
X47318Y59090D01*
X47377Y59158D01*
X47433Y59224D01*
X47483Y59283D01*
X47533Y59336D01*
X47577Y59386D01*
X47620Y59430D01*
X47658Y59470D01*
X47692Y59508D01*
X47720Y59539D01*
X47748Y59564D01*
X47770Y59586D01*
X47789Y59604D01*
X47804Y59617D01*
X47814Y59629D01*
X47820Y59632D01*
X47823Y59636D01*
X47892Y59695D01*
X47954Y59742D01*
X48013Y59782D01*
X48067Y59817D01*
X48110Y59842D01*
X48145Y59860D01*
X48157Y59866D01*
X48166Y59870D01*
X48169Y59873D01*
X48173D01*
X48235Y59898D01*
X48298Y59913D01*
X48354Y59926D01*
X48407Y59935D01*
X48450Y59941D01*
X48485Y59944D01*
X48497D01*
X48507D01*
X48510D01*
X48513D01*
X48575Y59941D01*
X48634Y59935D01*
X48691Y59923D01*
X48747Y59907D01*
X48797Y59888D01*
X48844Y59866D01*
X48887Y59845D01*
X48925Y59823D01*
X48962Y59801D01*
X48993Y59779D01*
X49021Y59757D01*
X49043Y59739D01*
X49059Y59723D01*
X49074Y59711D01*
X49081Y59704D01*
X49084Y59701D01*
X49124Y59654D01*
X49159Y59604D01*
X49190Y59551D01*
X49218Y59495D01*
X49240Y59442D01*
X49258Y59386D01*
X49274Y59333D01*
X49286Y59280D01*
X49296Y59233D01*
X49302Y59186D01*
X49308Y59146D01*
X49312Y59111D01*
X49315Y59083D01*
Y59043D01*
X49312Y58968D01*
X49305Y58896D01*
X49296Y58831D01*
X49280Y58768D01*
X49265Y58709D01*
X49246Y58656D01*
X49227Y58606D01*
X49209Y58562D01*
X49187Y58522D01*
X49168Y58487D01*
X49149Y58456D01*
X49134Y58431D01*
X49118Y58413D01*
X49109Y58400D01*
X49102Y58391D01*
X49099Y58388D01*
X49059Y58344D01*
X49012Y58306D01*
X48965Y58272D01*
X48912Y58241D01*
X48862Y58216D01*
X48812Y58191D01*
X48759Y58172D01*
X48712Y58157D01*
X48666Y58141D01*
X48622Y58132D01*
X48581Y58122D01*
X48547Y58116D01*
X48519Y58113D01*
X48500Y58110D01*
X48488Y58107D01*
X48482D01*
X48444Y58469D01*
X48494Y58472D01*
X48541Y58475D01*
X48622Y58494D01*
X48697Y58519D01*
X48728Y58531D01*
X48756Y58547D01*
X48781Y58559D01*
X48803Y58575D01*
X48822Y58587D01*
X48837Y58597D01*
X48850Y58609D01*
X48859Y58615D01*
X48862Y58618D01*
X48865Y58622D01*
X48893Y58653D01*
X48918Y58684D01*
X48937Y58718D01*
X48956Y58753D01*
X48984Y58821D01*
X49003Y58887D01*
X49012Y58943D01*
X49018Y58968D01*
Y58990D01*
X49021Y59009D01*
Y59077D01*
X49015Y59121D01*
X49000Y59199D01*
X48974Y59264D01*
X48950Y59324D01*
X48921Y59367D01*
X48909Y59386D01*
X48897Y59402D01*
X48887Y59414D01*
X48881Y59424D01*
X48878Y59427D01*
X48875Y59430D01*
X48847Y59458D01*
X48818Y59480D01*
X48790Y59501D01*
X48759Y59517D01*
X48700Y59545D01*
X48644Y59564D01*
X48597Y59573D01*
X48575Y59579D01*
X48556D01*
X48544Y59583D01*
X48531D01*
X48525D01*
X48522D01*
X48485Y59579D01*
X48447Y59576D01*
X48372Y59558D01*
X48301Y59530D01*
X48235Y59498D01*
X48179Y59467D01*
X48157Y59455D01*
X48135Y59439D01*
X48120Y59430D01*
X48107Y59420D01*
X48101Y59417D01*
X48098Y59414D01*
X48054Y59380D01*
X48007Y59339D01*
X47957Y59292D01*
X47908Y59242D01*
X47804Y59140D01*
X47708Y59034D01*
X47661Y58984D01*
X47620Y58934D01*
X47583Y58890D01*
X47552Y58852D01*
X47524Y58821D01*
X47505Y58799D01*
X47489Y58784D01*
X47486Y58778D01*
X47440Y58722D01*
X47396Y58672D01*
X47355Y58622D01*
X47315Y58578D01*
X47277Y58534D01*
X47240Y58497D01*
X47209Y58463D01*
X47177Y58431D01*
X47149Y58403D01*
X47124Y58381D01*
X47102Y58360D01*
X47087Y58344D01*
X47071Y58328D01*
X47062Y58319D01*
X47056Y58316D01*
X47053Y58313D01*
X46984Y58257D01*
X46915Y58210D01*
X46850Y58169D01*
X46791Y58138D01*
X46741Y58113D01*
X46719Y58104D01*
X46703Y58094D01*
X46687Y58088D01*
X46678Y58085D01*
X46672Y58082D01*
X46669D01*
X46625Y58066D01*
X46582Y58057D01*
X46541Y58048D01*
X46503Y58044D01*
X46472Y58041D01*
X46447D01*
X46432D01*
X46426D01*
Y59948D01*
X46766D01*
Y58528D01*
D02*
G37*
G36*
X49315Y56956D02*
X49243Y56915D01*
X49174Y56868D01*
X49109Y56815D01*
X49053Y56762D01*
X49000Y56715D01*
X48981Y56694D01*
X48962Y56678D01*
X48946Y56662D01*
X48937Y56650D01*
X48931Y56644D01*
X48928Y56640D01*
X48856Y56556D01*
X48794Y56466D01*
X48734Y56378D01*
X48684Y56297D01*
X48666Y56263D01*
X48647Y56229D01*
X48628Y56197D01*
X48616Y56172D01*
X48606Y56151D01*
X48597Y56135D01*
X48594Y56126D01*
X48591Y56122D01*
X48251D01*
X48276Y56185D01*
X48304Y56250D01*
X48335Y56313D01*
X48363Y56369D01*
X48391Y56419D01*
X48400Y56441D01*
X48413Y56459D01*
X48419Y56475D01*
X48425Y56484D01*
X48432Y56491D01*
Y56494D01*
X48478Y56569D01*
X48522Y56634D01*
X48563Y56694D01*
X48600Y56740D01*
X48631Y56781D01*
X48653Y56809D01*
X48669Y56824D01*
X48675Y56831D01*
X46426D01*
Y57183D01*
X49315D01*
Y56956D01*
D02*
G37*
G36*
X46500Y55455D02*
X46544Y55367D01*
X46588Y55283D01*
X46631Y55208D01*
X46653Y55174D01*
X46672Y55143D01*
X46691Y55115D01*
X46703Y55093D01*
X46716Y55071D01*
X46725Y55059D01*
X46731Y55049D01*
X46734Y55046D01*
X46815Y55124D01*
X46900Y55190D01*
X46981Y55246D01*
X47059Y55293D01*
X47093Y55311D01*
X47128Y55327D01*
X47155Y55343D01*
X47181Y55352D01*
X47199Y55361D01*
X47215Y55367D01*
X47224Y55374D01*
X47227D01*
X47337Y55411D01*
X47446Y55436D01*
X47555Y55455D01*
X47605Y55464D01*
X47655Y55470D01*
X47698Y55474D01*
X47739Y55477D01*
X47776Y55480D01*
X47808D01*
X47833Y55483D01*
X47851D01*
X47864D01*
X47867D01*
X47945Y55480D01*
X48023Y55477D01*
X48098Y55467D01*
X48166Y55458D01*
X48235Y55445D01*
X48298Y55430D01*
X48357Y55414D01*
X48410Y55399D01*
X48460Y55383D01*
X48503Y55367D01*
X48544Y55355D01*
X48575Y55339D01*
X48600Y55330D01*
X48619Y55321D01*
X48631Y55318D01*
X48634Y55314D01*
X48697Y55280D01*
X48756Y55246D01*
X48809Y55205D01*
X48862Y55168D01*
X48909Y55127D01*
X48953Y55087D01*
X48990Y55046D01*
X49028Y55006D01*
X49059Y54968D01*
X49087Y54934D01*
X49112Y54906D01*
X49130Y54878D01*
X49146Y54856D01*
X49156Y54840D01*
X49162Y54828D01*
X49165Y54825D01*
X49199Y54762D01*
X49227Y54703D01*
X49252Y54641D01*
X49274Y54578D01*
X49293Y54516D01*
X49308Y54456D01*
X49321Y54400D01*
X49330Y54344D01*
X49340Y54294D01*
X49346Y54251D01*
X49349Y54210D01*
X49352Y54172D01*
X49355Y54144D01*
Y54107D01*
X49352Y54035D01*
X49346Y53964D01*
X49340Y53895D01*
X49327Y53829D01*
X49312Y53764D01*
X49296Y53705D01*
X49280Y53651D01*
X49265Y53598D01*
X49246Y53555D01*
X49230Y53511D01*
X49215Y53477D01*
X49199Y53446D01*
X49187Y53421D01*
X49180Y53405D01*
X49174Y53392D01*
X49171Y53389D01*
X49137Y53330D01*
X49096Y53277D01*
X49056Y53227D01*
X49012Y53177D01*
X48968Y53134D01*
X48925Y53096D01*
X48881Y53059D01*
X48837Y53024D01*
X48797Y52996D01*
X48762Y52971D01*
X48728Y52950D01*
X48697Y52931D01*
X48675Y52918D01*
X48656Y52909D01*
X48644Y52903D01*
X48641Y52899D01*
X48575Y52868D01*
X48507Y52843D01*
X48438Y52822D01*
X48372Y52800D01*
X48241Y52768D01*
X48179Y52759D01*
X48123Y52750D01*
X48067Y52744D01*
X48017Y52737D01*
X47973Y52734D01*
X47936Y52731D01*
X47904Y52728D01*
X47883D01*
X47870D01*
X47864D01*
X47786Y52731D01*
X47708Y52734D01*
X47633Y52744D01*
X47564Y52756D01*
X47496Y52768D01*
X47433Y52781D01*
X47374Y52797D01*
X47318Y52815D01*
X47268Y52831D01*
X47224Y52846D01*
X47187Y52859D01*
X47152Y52872D01*
X47128Y52884D01*
X47109Y52893D01*
X47096Y52896D01*
X47093Y52899D01*
X47031Y52934D01*
X46971Y52971D01*
X46918Y53009D01*
X46869Y53049D01*
X46822Y53090D01*
X46778Y53130D01*
X46738Y53171D01*
X46703Y53208D01*
X46672Y53246D01*
X46644Y53280D01*
X46619Y53311D01*
X46600Y53336D01*
X46585Y53358D01*
X46575Y53377D01*
X46569Y53386D01*
X46566Y53389D01*
X46532Y53449D01*
X46503Y53511D01*
X46479Y53574D01*
X46457Y53636D01*
X46441Y53695D01*
X46426Y53754D01*
X46413Y53811D01*
X46404Y53864D01*
X46394Y53913D01*
X46388Y53957D01*
X46385Y53998D01*
X46382Y54032D01*
X46379Y54060D01*
Y54098D01*
X46382Y54169D01*
X46385Y54238D01*
X46407Y54372D01*
X46419Y54435D01*
X46435Y54491D01*
X46450Y54547D01*
X46466Y54597D01*
X46482Y54644D01*
X46497Y54684D01*
X46513Y54719D01*
X46525Y54750D01*
X46538Y54775D01*
X46547Y54790D01*
X46550Y54803D01*
X46553Y54806D01*
X46469Y54921D01*
X46397Y55034D01*
X46338Y55137D01*
X46313Y55186D01*
X46291Y55230D01*
X46270Y55271D01*
X46251Y55308D01*
X46238Y55343D01*
X46226Y55371D01*
X46216Y55392D01*
X46210Y55411D01*
X46204Y55421D01*
Y55424D01*
X46466Y55539D01*
X46500Y55455D01*
D02*
G37*
G36*
X47374Y39955D02*
X47464Y39940D01*
X47542Y39915D01*
X47577Y39902D01*
X47608Y39890D01*
X47639Y39877D01*
X47664Y39865D01*
X47686Y39852D01*
X47701Y39840D01*
X47717Y39831D01*
X47727Y39824D01*
X47733Y39821D01*
X47736Y39818D01*
X47801Y39762D01*
X47854Y39696D01*
X47895Y39631D01*
X47929Y39568D01*
X47954Y39509D01*
X47964Y39484D01*
X47970Y39466D01*
X47976Y39447D01*
X47979Y39434D01*
X47982Y39425D01*
Y39422D01*
X48020Y39491D01*
X48057Y39550D01*
X48098Y39603D01*
X48138Y39643D01*
X48173Y39678D01*
X48201Y39700D01*
X48219Y39715D01*
X48223Y39718D01*
X48226D01*
X48285Y39753D01*
X48344Y39778D01*
X48400Y39796D01*
X48454Y39809D01*
X48497Y39815D01*
X48535Y39821D01*
X48547D01*
X48556D01*
X48563D01*
X48566D01*
X48638Y39818D01*
X48706Y39806D01*
X48769Y39787D01*
X48825Y39768D01*
X48872Y39750D01*
X48890Y39740D01*
X48906Y39731D01*
X48918Y39724D01*
X48931Y39718D01*
X48934Y39715D01*
X48937D01*
X49000Y39671D01*
X49053Y39622D01*
X49099Y39572D01*
X49140Y39522D01*
X49171Y39478D01*
X49193Y39444D01*
X49202Y39428D01*
X49209Y39419D01*
X49212Y39413D01*
Y39409D01*
X49246Y39335D01*
X49271Y39260D01*
X49290Y39185D01*
X49302Y39119D01*
X49308Y39060D01*
X49312Y39038D01*
X49315Y39016D01*
Y38976D01*
X49312Y38913D01*
X49305Y38854D01*
X49296Y38798D01*
X49283Y38742D01*
X49268Y38692D01*
X49252Y38645D01*
X49233Y38601D01*
X49218Y38564D01*
X49199Y38526D01*
X49180Y38495D01*
X49165Y38470D01*
X49149Y38445D01*
X49137Y38430D01*
X49127Y38414D01*
X49121Y38408D01*
X49118Y38405D01*
X49081Y38364D01*
X49037Y38327D01*
X48993Y38293D01*
X48950Y38261D01*
X48903Y38233D01*
X48859Y38211D01*
X48769Y38171D01*
X48728Y38155D01*
X48691Y38143D01*
X48656Y38133D01*
X48628Y38124D01*
X48603Y38118D01*
X48584Y38115D01*
X48572Y38111D01*
X48569D01*
X48507Y38464D01*
X48597Y38483D01*
X48675Y38508D01*
X48744Y38536D01*
X48797Y38567D01*
X48840Y38592D01*
X48868Y38617D01*
X48887Y38633D01*
X48893Y38639D01*
X48937Y38695D01*
X48968Y38751D01*
X48993Y38810D01*
X49009Y38863D01*
X49018Y38913D01*
X49021Y38932D01*
Y38951D01*
X49024Y38966D01*
Y38985D01*
X49018Y39060D01*
X49006Y39125D01*
X48984Y39185D01*
X48962Y39235D01*
X48937Y39272D01*
X48915Y39300D01*
X48903Y39319D01*
X48897Y39325D01*
X48872Y39350D01*
X48847Y39369D01*
X48790Y39403D01*
X48737Y39428D01*
X48687Y39444D01*
X48641Y39453D01*
X48606Y39456D01*
X48591Y39459D01*
X48581D01*
X48575D01*
X48572D01*
X48528Y39456D01*
X48488Y39450D01*
X48447Y39444D01*
X48413Y39431D01*
X48351Y39400D01*
X48301Y39369D01*
X48260Y39335D01*
X48232Y39303D01*
X48223Y39291D01*
X48216Y39285D01*
X48210Y39278D01*
Y39275D01*
X48169Y39207D01*
X48142Y39135D01*
X48120Y39066D01*
X48107Y39004D01*
X48098Y38951D01*
X48095Y38929D01*
Y38907D01*
X48092Y38892D01*
Y38851D01*
X48095Y38832D01*
X48098Y38817D01*
Y38810D01*
X47789Y38773D01*
X47801Y38826D01*
X47811Y38876D01*
X47817Y38917D01*
X47823Y38954D01*
Y38982D01*
X47826Y39004D01*
Y39023D01*
X47823Y39066D01*
X47820Y39110D01*
X47801Y39188D01*
X47776Y39257D01*
X47748Y39316D01*
X47717Y39363D01*
X47705Y39381D01*
X47692Y39397D01*
X47683Y39409D01*
X47673Y39419D01*
X47670Y39422D01*
X47667Y39425D01*
X47636Y39453D01*
X47605Y39478D01*
X47574Y39500D01*
X47539Y39519D01*
X47474Y39547D01*
X47408Y39568D01*
X47352Y39578D01*
X47330Y39581D01*
X47308Y39584D01*
X47293Y39587D01*
X47277D01*
X47271D01*
X47268D01*
X47221Y39584D01*
X47177Y39581D01*
X47093Y39559D01*
X47021Y39534D01*
X46959Y39503D01*
X46931Y39484D01*
X46909Y39469D01*
X46887Y39456D01*
X46872Y39444D01*
X46859Y39431D01*
X46850Y39422D01*
X46843Y39419D01*
X46840Y39416D01*
X46809Y39381D01*
X46784Y39347D01*
X46762Y39313D01*
X46741Y39278D01*
X46709Y39207D01*
X46691Y39138D01*
X46678Y39082D01*
X46675Y39054D01*
X46672Y39035D01*
X46669Y39016D01*
Y38991D01*
X46675Y38917D01*
X46691Y38845D01*
X46709Y38785D01*
X46734Y38732D01*
X46759Y38689D01*
X46778Y38658D01*
X46787Y38648D01*
X46794Y38639D01*
X46800Y38636D01*
Y38633D01*
X46828Y38608D01*
X46856Y38583D01*
X46922Y38539D01*
X46993Y38505D01*
X47065Y38476D01*
X47131Y38455D01*
X47159Y38449D01*
X47184Y38442D01*
X47205Y38436D01*
X47221Y38433D01*
X47230Y38430D01*
X47234D01*
X47187Y38077D01*
X47121Y38087D01*
X47059Y38099D01*
X46999Y38118D01*
X46943Y38137D01*
X46890Y38158D01*
X46843Y38183D01*
X46797Y38208D01*
X46759Y38233D01*
X46722Y38258D01*
X46691Y38280D01*
X46663Y38302D01*
X46641Y38320D01*
X46622Y38339D01*
X46610Y38352D01*
X46603Y38358D01*
X46600Y38361D01*
X46560Y38408D01*
X46525Y38461D01*
X46497Y38511D01*
X46469Y38564D01*
X46447Y38617D01*
X46432Y38670D01*
X46416Y38720D01*
X46404Y38770D01*
X46394Y38817D01*
X46388Y38857D01*
X46382Y38895D01*
X46379Y38929D01*
Y38954D01*
X46376Y38976D01*
Y38991D01*
X46379Y39069D01*
X46388Y39141D01*
X46400Y39210D01*
X46416Y39275D01*
X46435Y39338D01*
X46457Y39394D01*
X46482Y39447D01*
X46507Y39494D01*
X46528Y39537D01*
X46553Y39575D01*
X46575Y39609D01*
X46594Y39634D01*
X46610Y39656D01*
X46622Y39671D01*
X46631Y39681D01*
X46635Y39684D01*
X46684Y39734D01*
X46738Y39775D01*
X46791Y39812D01*
X46847Y39843D01*
X46900Y39871D01*
X46953Y39893D01*
X47003Y39912D01*
X47053Y39927D01*
X47099Y39940D01*
X47140Y39946D01*
X47177Y39952D01*
X47212Y39959D01*
X47237D01*
X47258Y39962D01*
X47271D01*
X47274D01*
X47324D01*
X47374Y39955D01*
D02*
G37*
G36*
X49315Y36941D02*
X49243Y36901D01*
X49174Y36854D01*
X49109Y36801D01*
X49053Y36748D01*
X49000Y36701D01*
X48981Y36679D01*
X48962Y36664D01*
X48946Y36648D01*
X48937Y36636D01*
X48931Y36630D01*
X48928Y36626D01*
X48856Y36542D01*
X48794Y36452D01*
X48734Y36364D01*
X48684Y36283D01*
X48666Y36249D01*
X48647Y36215D01*
X48628Y36183D01*
X48616Y36158D01*
X48606Y36136D01*
X48597Y36121D01*
X48594Y36112D01*
X48591Y36108D01*
X48251D01*
X48276Y36171D01*
X48304Y36236D01*
X48335Y36299D01*
X48363Y36355D01*
X48391Y36405D01*
X48400Y36427D01*
X48413Y36445D01*
X48419Y36461D01*
X48425Y36470D01*
X48432Y36477D01*
Y36480D01*
X48478Y36555D01*
X48522Y36620D01*
X48563Y36679D01*
X48600Y36726D01*
X48631Y36767D01*
X48653Y36795D01*
X48669Y36810D01*
X48675Y36817D01*
X46426D01*
Y37169D01*
X49315D01*
Y36941D01*
D02*
G37*
G36*
X46500Y35441D02*
X46544Y35353D01*
X46588Y35269D01*
X46631Y35194D01*
X46653Y35160D01*
X46672Y35129D01*
X46691Y35101D01*
X46703Y35079D01*
X46716Y35057D01*
X46725Y35045D01*
X46731Y35035D01*
X46734Y35032D01*
X46815Y35110D01*
X46900Y35176D01*
X46981Y35232D01*
X47059Y35279D01*
X47093Y35297D01*
X47128Y35313D01*
X47155Y35329D01*
X47181Y35338D01*
X47199Y35347D01*
X47215Y35353D01*
X47224Y35360D01*
X47227D01*
X47337Y35397D01*
X47446Y35422D01*
X47555Y35441D01*
X47605Y35450D01*
X47655Y35456D01*
X47698Y35460D01*
X47739Y35463D01*
X47776Y35466D01*
X47808D01*
X47833Y35469D01*
X47851D01*
X47864D01*
X47867D01*
X47945Y35466D01*
X48023Y35463D01*
X48098Y35453D01*
X48166Y35444D01*
X48235Y35431D01*
X48298Y35416D01*
X48357Y35400D01*
X48410Y35385D01*
X48460Y35369D01*
X48503Y35353D01*
X48544Y35341D01*
X48575Y35325D01*
X48600Y35316D01*
X48619Y35307D01*
X48631Y35304D01*
X48634Y35300D01*
X48697Y35266D01*
X48756Y35232D01*
X48809Y35191D01*
X48862Y35154D01*
X48909Y35113D01*
X48953Y35073D01*
X48990Y35032D01*
X49028Y34991D01*
X49059Y34954D01*
X49087Y34920D01*
X49112Y34892D01*
X49130Y34864D01*
X49146Y34842D01*
X49156Y34826D01*
X49162Y34814D01*
X49165Y34811D01*
X49199Y34748D01*
X49227Y34689D01*
X49252Y34626D01*
X49274Y34564D01*
X49293Y34502D01*
X49308Y34442D01*
X49321Y34386D01*
X49330Y34330D01*
X49340Y34280D01*
X49346Y34236D01*
X49349Y34196D01*
X49352Y34159D01*
X49355Y34130D01*
Y34093D01*
X49352Y34021D01*
X49346Y33949D01*
X49340Y33881D01*
X49327Y33815D01*
X49312Y33750D01*
X49296Y33691D01*
X49280Y33637D01*
X49265Y33584D01*
X49246Y33541D01*
X49230Y33497D01*
X49215Y33463D01*
X49199Y33432D01*
X49187Y33406D01*
X49180Y33391D01*
X49174Y33378D01*
X49171Y33375D01*
X49137Y33316D01*
X49096Y33263D01*
X49056Y33213D01*
X49012Y33163D01*
X48968Y33119D01*
X48925Y33082D01*
X48881Y33045D01*
X48837Y33010D01*
X48797Y32982D01*
X48762Y32957D01*
X48728Y32935D01*
X48697Y32917D01*
X48675Y32904D01*
X48656Y32895D01*
X48644Y32889D01*
X48641Y32886D01*
X48575Y32854D01*
X48507Y32829D01*
X48438Y32807D01*
X48372Y32786D01*
X48241Y32754D01*
X48179Y32745D01*
X48123Y32736D01*
X48067Y32730D01*
X48017Y32723D01*
X47973Y32720D01*
X47936Y32717D01*
X47904Y32714D01*
X47883D01*
X47870D01*
X47864D01*
X47786Y32717D01*
X47708Y32720D01*
X47633Y32730D01*
X47564Y32742D01*
X47496Y32754D01*
X47433Y32767D01*
X47374Y32783D01*
X47318Y32801D01*
X47268Y32817D01*
X47224Y32833D01*
X47187Y32845D01*
X47152Y32857D01*
X47128Y32870D01*
X47109Y32879D01*
X47096Y32882D01*
X47093Y32886D01*
X47031Y32920D01*
X46971Y32957D01*
X46918Y32995D01*
X46869Y33035D01*
X46822Y33076D01*
X46778Y33116D01*
X46738Y33157D01*
X46703Y33194D01*
X46672Y33232D01*
X46644Y33266D01*
X46619Y33297D01*
X46600Y33322D01*
X46585Y33344D01*
X46575Y33363D01*
X46569Y33372D01*
X46566Y33375D01*
X46532Y33435D01*
X46503Y33497D01*
X46479Y33559D01*
X46457Y33622D01*
X46441Y33681D01*
X46426Y33740D01*
X46413Y33797D01*
X46404Y33850D01*
X46394Y33900D01*
X46388Y33943D01*
X46385Y33984D01*
X46382Y34018D01*
X46379Y34046D01*
Y34084D01*
X46382Y34155D01*
X46385Y34224D01*
X46407Y34358D01*
X46419Y34420D01*
X46435Y34477D01*
X46450Y34533D01*
X46466Y34583D01*
X46482Y34630D01*
X46497Y34670D01*
X46513Y34705D01*
X46525Y34736D01*
X46538Y34761D01*
X46547Y34776D01*
X46550Y34789D01*
X46553Y34792D01*
X46469Y34907D01*
X46397Y35020D01*
X46338Y35123D01*
X46313Y35173D01*
X46291Y35216D01*
X46270Y35257D01*
X46251Y35294D01*
X46238Y35329D01*
X46226Y35357D01*
X46216Y35378D01*
X46210Y35397D01*
X46204Y35407D01*
Y35410D01*
X46466Y35525D01*
X46500Y35441D01*
D02*
G37*
G36*
X47440Y19567D02*
X49305D01*
Y19277D01*
X47440Y17960D01*
X47115D01*
Y19214D01*
X46426D01*
Y19567D01*
X47115D01*
Y19957D01*
X47440D01*
Y19567D01*
D02*
G37*
G36*
X49315Y16946D02*
X49243Y16906D01*
X49174Y16859D01*
X49109Y16806D01*
X49053Y16753D01*
X49000Y16706D01*
X48981Y16684D01*
X48962Y16669D01*
X48946Y16653D01*
X48937Y16640D01*
X48931Y16634D01*
X48928Y16631D01*
X48856Y16547D01*
X48794Y16456D01*
X48734Y16369D01*
X48684Y16288D01*
X48666Y16254D01*
X48647Y16219D01*
X48628Y16188D01*
X48616Y16163D01*
X48606Y16141D01*
X48597Y16126D01*
X48594Y16116D01*
X48591Y16113D01*
X48251D01*
X48276Y16176D01*
X48304Y16241D01*
X48335Y16304D01*
X48363Y16360D01*
X48391Y16409D01*
X48400Y16431D01*
X48413Y16450D01*
X48419Y16466D01*
X48425Y16475D01*
X48432Y16481D01*
Y16484D01*
X48478Y16559D01*
X48522Y16625D01*
X48563Y16684D01*
X48600Y16731D01*
X48631Y16771D01*
X48653Y16800D01*
X48669Y16815D01*
X48675Y16821D01*
X46426D01*
Y17174D01*
X49315D01*
Y16946D01*
D02*
G37*
G36*
X46500Y15446D02*
X46544Y15358D01*
X46588Y15274D01*
X46631Y15199D01*
X46653Y15165D01*
X46672Y15134D01*
X46691Y15105D01*
X46703Y15084D01*
X46716Y15062D01*
X46725Y15049D01*
X46731Y15040D01*
X46734Y15037D01*
X46815Y15115D01*
X46900Y15180D01*
X46981Y15236D01*
X47059Y15283D01*
X47093Y15302D01*
X47128Y15317D01*
X47155Y15333D01*
X47181Y15342D01*
X47199Y15352D01*
X47215Y15358D01*
X47224Y15364D01*
X47227D01*
X47337Y15402D01*
X47446Y15427D01*
X47555Y15446D01*
X47605Y15455D01*
X47655Y15461D01*
X47698Y15464D01*
X47739Y15467D01*
X47776Y15470D01*
X47808D01*
X47833Y15474D01*
X47851D01*
X47864D01*
X47867D01*
X47945Y15470D01*
X48023Y15467D01*
X48098Y15458D01*
X48166Y15449D01*
X48235Y15436D01*
X48298Y15420D01*
X48357Y15405D01*
X48410Y15389D01*
X48460Y15374D01*
X48503Y15358D01*
X48544Y15346D01*
X48575Y15330D01*
X48600Y15321D01*
X48619Y15311D01*
X48631Y15308D01*
X48634Y15305D01*
X48697Y15271D01*
X48756Y15236D01*
X48809Y15196D01*
X48862Y15158D01*
X48909Y15118D01*
X48953Y15077D01*
X48990Y15037D01*
X49028Y14996D01*
X49059Y14959D01*
X49087Y14924D01*
X49112Y14896D01*
X49130Y14868D01*
X49146Y14846D01*
X49156Y14831D01*
X49162Y14818D01*
X49165Y14815D01*
X49199Y14753D01*
X49227Y14694D01*
X49252Y14631D01*
X49274Y14569D01*
X49293Y14506D01*
X49308Y14447D01*
X49321Y14391D01*
X49330Y14335D01*
X49340Y14285D01*
X49346Y14241D01*
X49349Y14201D01*
X49352Y14163D01*
X49355Y14135D01*
Y14098D01*
X49352Y14026D01*
X49346Y13954D01*
X49340Y13885D01*
X49327Y13820D01*
X49312Y13754D01*
X49296Y13695D01*
X49280Y13642D01*
X49265Y13589D01*
X49246Y13545D01*
X49230Y13502D01*
X49215Y13467D01*
X49199Y13436D01*
X49187Y13411D01*
X49180Y13396D01*
X49174Y13383D01*
X49171Y13380D01*
X49137Y13321D01*
X49096Y13268D01*
X49056Y13218D01*
X49012Y13168D01*
X48968Y13124D01*
X48925Y13087D01*
X48881Y13049D01*
X48837Y13015D01*
X48797Y12987D01*
X48762Y12962D01*
X48728Y12940D01*
X48697Y12921D01*
X48675Y12909D01*
X48656Y12900D01*
X48644Y12893D01*
X48641Y12890D01*
X48575Y12859D01*
X48507Y12834D01*
X48438Y12812D01*
X48372Y12790D01*
X48241Y12759D01*
X48179Y12750D01*
X48123Y12740D01*
X48067Y12734D01*
X48017Y12728D01*
X47973Y12725D01*
X47936Y12722D01*
X47904Y12719D01*
X47883D01*
X47870D01*
X47864D01*
X47786Y12722D01*
X47708Y12725D01*
X47633Y12734D01*
X47564Y12747D01*
X47496Y12759D01*
X47433Y12772D01*
X47374Y12787D01*
X47318Y12806D01*
X47268Y12822D01*
X47224Y12837D01*
X47187Y12850D01*
X47152Y12862D01*
X47128Y12875D01*
X47109Y12884D01*
X47096Y12887D01*
X47093Y12890D01*
X47031Y12924D01*
X46971Y12962D01*
X46918Y12999D01*
X46869Y13040D01*
X46822Y13081D01*
X46778Y13121D01*
X46738Y13162D01*
X46703Y13199D01*
X46672Y13237D01*
X46644Y13271D01*
X46619Y13302D01*
X46600Y13327D01*
X46585Y13349D01*
X46575Y13367D01*
X46569Y13377D01*
X46566Y13380D01*
X46532Y13439D01*
X46503Y13502D01*
X46479Y13564D01*
X46457Y13626D01*
X46441Y13686D01*
X46426Y13745D01*
X46413Y13801D01*
X46404Y13854D01*
X46394Y13904D01*
X46388Y13948D01*
X46385Y13988D01*
X46382Y14023D01*
X46379Y14051D01*
Y14088D01*
X46382Y14160D01*
X46385Y14229D01*
X46407Y14363D01*
X46419Y14425D01*
X46435Y14481D01*
X46450Y14537D01*
X46466Y14588D01*
X46482Y14634D01*
X46497Y14675D01*
X46513Y14709D01*
X46525Y14740D01*
X46538Y14765D01*
X46547Y14781D01*
X46550Y14793D01*
X46553Y14796D01*
X46469Y14912D01*
X46397Y15024D01*
X46338Y15127D01*
X46313Y15177D01*
X46291Y15221D01*
X46270Y15261D01*
X46251Y15299D01*
X46238Y15333D01*
X46226Y15361D01*
X46216Y15383D01*
X46210Y15402D01*
X46204Y15411D01*
Y15414D01*
X46466Y15530D01*
X46500Y15446D01*
D02*
G37*
G36*
X47477Y138513D02*
X47549Y138504D01*
X47617Y138491D01*
X47680Y138475D01*
X47742Y138457D01*
X47795Y138432D01*
X47848Y138410D01*
X47895Y138385D01*
X47936Y138360D01*
X47970Y138338D01*
X48004Y138316D01*
X48029Y138294D01*
X48048Y138279D01*
X48063Y138266D01*
X48073Y138257D01*
X48076Y138254D01*
X48123Y138204D01*
X48163Y138151D01*
X48198Y138098D01*
X48229Y138045D01*
X48254Y137992D01*
X48276Y137939D01*
X48291Y137889D01*
X48307Y137839D01*
X48316Y137795D01*
X48325Y137752D01*
X48329Y137714D01*
X48335Y137683D01*
Y137658D01*
X48338Y137636D01*
Y137620D01*
X48335Y137567D01*
X48332Y137514D01*
X48322Y137464D01*
X48310Y137415D01*
X48282Y137324D01*
X48263Y137280D01*
X48248Y137243D01*
X48232Y137206D01*
X48213Y137174D01*
X48198Y137146D01*
X48185Y137121D01*
X48173Y137103D01*
X48166Y137090D01*
X48160Y137081D01*
X48157Y137078D01*
X48931Y137231D01*
Y138382D01*
X49268D01*
Y136950D01*
X47789Y136672D01*
X47742Y137003D01*
X47786Y137034D01*
X47826Y137068D01*
X47861Y137106D01*
X47892Y137137D01*
X47914Y137168D01*
X47932Y137193D01*
X47942Y137209D01*
X47945Y137215D01*
X47973Y137268D01*
X47992Y137321D01*
X48007Y137374D01*
X48017Y137424D01*
X48023Y137464D01*
X48026Y137499D01*
Y137527D01*
X48023Y137577D01*
X48020Y137624D01*
X48010Y137670D01*
X47998Y137711D01*
X47970Y137789D01*
X47954Y137820D01*
X47939Y137851D01*
X47920Y137880D01*
X47904Y137901D01*
X47889Y137923D01*
X47876Y137939D01*
X47864Y137951D01*
X47854Y137964D01*
X47851Y137967D01*
X47848Y137970D01*
X47814Y138001D01*
X47776Y138026D01*
X47739Y138051D01*
X47701Y138070D01*
X47620Y138101D01*
X47545Y138120D01*
X47508Y138126D01*
X47477Y138132D01*
X47446Y138135D01*
X47421Y138138D01*
X47399Y138142D01*
X47383D01*
X47374D01*
X47371D01*
X47311Y138138D01*
X47258Y138135D01*
X47205Y138126D01*
X47155Y138113D01*
X47112Y138101D01*
X47068Y138085D01*
X47031Y138070D01*
X46996Y138054D01*
X46965Y138036D01*
X46937Y138020D01*
X46915Y138004D01*
X46894Y137992D01*
X46878Y137979D01*
X46869Y137970D01*
X46862Y137967D01*
X46859Y137964D01*
X46825Y137929D01*
X46797Y137895D01*
X46772Y137861D01*
X46750Y137823D01*
X46731Y137786D01*
X46716Y137752D01*
X46694Y137683D01*
X46678Y137624D01*
X46675Y137599D01*
X46672Y137577D01*
X46669Y137558D01*
Y137533D01*
X46672Y137493D01*
X46675Y137455D01*
X46691Y137387D01*
X46712Y137324D01*
X46738Y137271D01*
X46759Y137227D01*
X46781Y137196D01*
X46791Y137184D01*
X46797Y137174D01*
X46803Y137171D01*
Y137168D01*
X46831Y137143D01*
X46859Y137118D01*
X46922Y137078D01*
X46990Y137043D01*
X47056Y137018D01*
X47115Y137003D01*
X47143Y136993D01*
X47165Y136990D01*
X47184Y136987D01*
X47196Y136984D01*
X47205Y136981D01*
X47209D01*
X47181Y136610D01*
X47115Y136619D01*
X47049Y136632D01*
X46990Y136647D01*
X46934Y136669D01*
X46884Y136691D01*
X46834Y136713D01*
X46791Y136738D01*
X46753Y136762D01*
X46716Y136787D01*
X46684Y136809D01*
X46659Y136831D01*
X46638Y136853D01*
X46619Y136869D01*
X46606Y136881D01*
X46600Y136887D01*
X46597Y136890D01*
X46560Y136940D01*
X46525Y136990D01*
X46497Y137043D01*
X46472Y137096D01*
X46450Y137149D01*
X46432Y137202D01*
X46416Y137256D01*
X46407Y137305D01*
X46397Y137352D01*
X46391Y137396D01*
X46385Y137433D01*
X46382Y137468D01*
X46379Y137496D01*
Y137533D01*
X46382Y137620D01*
X46394Y137702D01*
X46410Y137780D01*
X46435Y137851D01*
X46460Y137920D01*
X46488Y137982D01*
X46522Y138039D01*
X46553Y138089D01*
X46585Y138135D01*
X46619Y138176D01*
X46647Y138210D01*
X46675Y138238D01*
X46697Y138260D01*
X46712Y138276D01*
X46725Y138285D01*
X46728Y138288D01*
X46781Y138329D01*
X46837Y138363D01*
X46897Y138394D01*
X46953Y138419D01*
X47009Y138441D01*
X47065Y138460D01*
X47121Y138475D01*
X47171Y138488D01*
X47221Y138497D01*
X47265Y138504D01*
X47302Y138510D01*
X47337Y138513D01*
X47365Y138516D01*
X47383D01*
X47399D01*
X47402D01*
X47477Y138513D01*
D02*
G37*
G36*
X46500Y136210D02*
X46544Y136123D01*
X46588Y136039D01*
X46631Y135964D01*
X46653Y135930D01*
X46672Y135898D01*
X46691Y135870D01*
X46703Y135848D01*
X46716Y135827D01*
X46725Y135814D01*
X46731Y135805D01*
X46734Y135802D01*
X46815Y135880D01*
X46900Y135945D01*
X46981Y136001D01*
X47059Y136048D01*
X47093Y136067D01*
X47128Y136082D01*
X47155Y136098D01*
X47181Y136107D01*
X47199Y136117D01*
X47215Y136123D01*
X47224Y136129D01*
X47227D01*
X47337Y136167D01*
X47446Y136192D01*
X47555Y136210D01*
X47605Y136220D01*
X47655Y136226D01*
X47698Y136229D01*
X47739Y136232D01*
X47776Y136235D01*
X47808D01*
X47833Y136238D01*
X47851D01*
X47864D01*
X47867D01*
X47945Y136235D01*
X48023Y136232D01*
X48098Y136223D01*
X48166Y136213D01*
X48235Y136201D01*
X48298Y136185D01*
X48357Y136170D01*
X48410Y136154D01*
X48460Y136138D01*
X48503Y136123D01*
X48544Y136110D01*
X48575Y136095D01*
X48600Y136085D01*
X48619Y136076D01*
X48631Y136073D01*
X48634Y136070D01*
X48697Y136036D01*
X48756Y136001D01*
X48809Y135961D01*
X48862Y135923D01*
X48909Y135883D01*
X48953Y135842D01*
X48990Y135802D01*
X49028Y135761D01*
X49059Y135724D01*
X49087Y135689D01*
X49112Y135661D01*
X49130Y135633D01*
X49146Y135611D01*
X49156Y135596D01*
X49162Y135583D01*
X49165Y135580D01*
X49199Y135518D01*
X49227Y135458D01*
X49252Y135396D01*
X49274Y135334D01*
X49293Y135271D01*
X49308Y135212D01*
X49321Y135156D01*
X49330Y135100D01*
X49340Y135050D01*
X49346Y135006D01*
X49349Y134965D01*
X49352Y134928D01*
X49355Y134900D01*
Y134862D01*
X49352Y134791D01*
X49346Y134719D01*
X49340Y134650D01*
X49327Y134585D01*
X49312Y134519D01*
X49296Y134460D01*
X49280Y134407D01*
X49265Y134354D01*
X49246Y134310D01*
X49230Y134266D01*
X49215Y134232D01*
X49199Y134201D01*
X49187Y134176D01*
X49180Y134160D01*
X49174Y134148D01*
X49171Y134145D01*
X49137Y134086D01*
X49096Y134032D01*
X49056Y133983D01*
X49012Y133933D01*
X48968Y133889D01*
X48925Y133852D01*
X48881Y133814D01*
X48837Y133780D01*
X48797Y133752D01*
X48762Y133727D01*
X48728Y133705D01*
X48697Y133686D01*
X48675Y133674D01*
X48656Y133664D01*
X48644Y133658D01*
X48641Y133655D01*
X48575Y133624D01*
X48507Y133599D01*
X48438Y133577D01*
X48372Y133555D01*
X48241Y133524D01*
X48179Y133515D01*
X48123Y133505D01*
X48067Y133499D01*
X48017Y133493D01*
X47973Y133490D01*
X47936Y133486D01*
X47904Y133483D01*
X47883D01*
X47870D01*
X47864D01*
X47786Y133486D01*
X47708Y133490D01*
X47633Y133499D01*
X47564Y133511D01*
X47496Y133524D01*
X47433Y133536D01*
X47374Y133552D01*
X47318Y133571D01*
X47268Y133586D01*
X47224Y133602D01*
X47187Y133614D01*
X47152Y133627D01*
X47128Y133639D01*
X47109Y133649D01*
X47096Y133652D01*
X47093Y133655D01*
X47031Y133689D01*
X46971Y133727D01*
X46918Y133764D01*
X46869Y133805D01*
X46822Y133845D01*
X46778Y133886D01*
X46738Y133926D01*
X46703Y133964D01*
X46672Y134001D01*
X46644Y134036D01*
X46619Y134067D01*
X46600Y134092D01*
X46585Y134114D01*
X46575Y134132D01*
X46569Y134142D01*
X46566Y134145D01*
X46532Y134204D01*
X46503Y134266D01*
X46479Y134329D01*
X46457Y134391D01*
X46441Y134451D01*
X46426Y134510D01*
X46413Y134566D01*
X46404Y134619D01*
X46394Y134669D01*
X46388Y134713D01*
X46385Y134753D01*
X46382Y134788D01*
X46379Y134816D01*
Y134853D01*
X46382Y134925D01*
X46385Y134994D01*
X46407Y135128D01*
X46419Y135190D01*
X46435Y135246D01*
X46450Y135302D01*
X46466Y135352D01*
X46482Y135399D01*
X46497Y135440D01*
X46513Y135474D01*
X46525Y135505D01*
X46538Y135530D01*
X46547Y135546D01*
X46550Y135558D01*
X46553Y135561D01*
X46469Y135677D01*
X46397Y135789D01*
X46338Y135892D01*
X46313Y135942D01*
X46291Y135986D01*
X46270Y136026D01*
X46251Y136064D01*
X46238Y136098D01*
X46226Y136126D01*
X46216Y136148D01*
X46210Y136167D01*
X46204Y136176D01*
Y136179D01*
X46466Y136294D01*
X46500Y136210D01*
D02*
G37*
G36*
X49268Y96981D02*
X48928D01*
Y98391D01*
X48868Y98341D01*
X48806Y98291D01*
X48678Y98197D01*
X48553Y98110D01*
X48491Y98069D01*
X48435Y98032D01*
X48379Y98001D01*
X48329Y97970D01*
X48285Y97945D01*
X48248Y97920D01*
X48216Y97904D01*
X48191Y97891D01*
X48179Y97882D01*
X48173Y97879D01*
X48004Y97795D01*
X47839Y97723D01*
X47761Y97689D01*
X47683Y97661D01*
X47608Y97633D01*
X47539Y97608D01*
X47477Y97586D01*
X47421Y97567D01*
X47368Y97552D01*
X47324Y97539D01*
X47290Y97527D01*
X47265Y97520D01*
X47249Y97517D01*
X47243Y97514D01*
X47155Y97492D01*
X47071Y97470D01*
X46990Y97455D01*
X46912Y97439D01*
X46840Y97427D01*
X46772Y97417D01*
X46712Y97408D01*
X46653Y97402D01*
X46603Y97395D01*
X46556Y97392D01*
X46519Y97389D01*
X46485Y97386D01*
X46460Y97383D01*
X46441D01*
X46429D01*
X46426D01*
Y97745D01*
X46582Y97757D01*
X46656Y97767D01*
X46728Y97779D01*
X46797Y97789D01*
X46862Y97801D01*
X46925Y97810D01*
X46981Y97823D01*
X47031Y97832D01*
X47078Y97845D01*
X47118Y97854D01*
X47152Y97864D01*
X47177Y97870D01*
X47199Y97876D01*
X47212Y97879D01*
X47215D01*
X47405Y97938D01*
X47499Y97973D01*
X47589Y98007D01*
X47673Y98041D01*
X47758Y98076D01*
X47836Y98110D01*
X47908Y98141D01*
X47973Y98172D01*
X48032Y98200D01*
X48085Y98229D01*
X48129Y98250D01*
X48166Y98269D01*
X48191Y98282D01*
X48207Y98291D01*
X48213Y98294D01*
X48301Y98344D01*
X48385Y98397D01*
X48466Y98447D01*
X48538Y98494D01*
X48606Y98541D01*
X48672Y98587D01*
X48731Y98631D01*
X48784Y98672D01*
X48831Y98709D01*
X48872Y98740D01*
X48906Y98771D01*
X48937Y98796D01*
X48959Y98815D01*
X48978Y98831D01*
X48987Y98840D01*
X48990Y98843D01*
X49268D01*
Y96981D01*
D02*
G37*
G36*
X46500Y96559D02*
X46544Y96472D01*
X46588Y96388D01*
X46631Y96313D01*
X46653Y96279D01*
X46672Y96247D01*
X46691Y96219D01*
X46703Y96197D01*
X46716Y96175D01*
X46725Y96163D01*
X46731Y96154D01*
X46734Y96151D01*
X46815Y96229D01*
X46900Y96294D01*
X46981Y96350D01*
X47059Y96397D01*
X47093Y96416D01*
X47128Y96431D01*
X47155Y96447D01*
X47181Y96456D01*
X47199Y96466D01*
X47215Y96472D01*
X47224Y96478D01*
X47227D01*
X47337Y96516D01*
X47446Y96541D01*
X47555Y96559D01*
X47605Y96569D01*
X47655Y96575D01*
X47698Y96578D01*
X47739Y96581D01*
X47776Y96584D01*
X47808D01*
X47833Y96587D01*
X47851D01*
X47864D01*
X47867D01*
X47945Y96584D01*
X48023Y96581D01*
X48098Y96572D01*
X48166Y96562D01*
X48235Y96550D01*
X48298Y96534D01*
X48357Y96519D01*
X48410Y96503D01*
X48460Y96487D01*
X48503Y96472D01*
X48544Y96460D01*
X48575Y96444D01*
X48600Y96434D01*
X48619Y96425D01*
X48631Y96422D01*
X48634Y96419D01*
X48697Y96385D01*
X48756Y96350D01*
X48809Y96310D01*
X48862Y96272D01*
X48909Y96232D01*
X48953Y96191D01*
X48990Y96151D01*
X49028Y96110D01*
X49059Y96073D01*
X49087Y96038D01*
X49112Y96010D01*
X49130Y95982D01*
X49146Y95960D01*
X49156Y95945D01*
X49162Y95932D01*
X49165Y95929D01*
X49199Y95867D01*
X49227Y95807D01*
X49252Y95745D01*
X49274Y95683D01*
X49293Y95620D01*
X49308Y95561D01*
X49321Y95505D01*
X49330Y95449D01*
X49340Y95399D01*
X49346Y95355D01*
X49349Y95314D01*
X49352Y95277D01*
X49355Y95249D01*
Y95211D01*
X49352Y95140D01*
X49346Y95068D01*
X49340Y94999D01*
X49327Y94934D01*
X49312Y94868D01*
X49296Y94809D01*
X49280Y94756D01*
X49265Y94703D01*
X49246Y94659D01*
X49230Y94616D01*
X49215Y94581D01*
X49199Y94550D01*
X49187Y94525D01*
X49180Y94510D01*
X49174Y94497D01*
X49171Y94494D01*
X49137Y94435D01*
X49096Y94382D01*
X49056Y94332D01*
X49012Y94282D01*
X48968Y94238D01*
X48925Y94201D01*
X48881Y94163D01*
X48837Y94129D01*
X48797Y94101D01*
X48762Y94076D01*
X48728Y94054D01*
X48697Y94035D01*
X48675Y94023D01*
X48656Y94013D01*
X48644Y94007D01*
X48641Y94004D01*
X48575Y93973D01*
X48507Y93948D01*
X48438Y93926D01*
X48372Y93904D01*
X48241Y93873D01*
X48179Y93864D01*
X48123Y93854D01*
X48067Y93848D01*
X48017Y93842D01*
X47973Y93839D01*
X47936Y93836D01*
X47904Y93832D01*
X47883D01*
X47870D01*
X47864D01*
X47786Y93836D01*
X47708Y93839D01*
X47633Y93848D01*
X47564Y93861D01*
X47496Y93873D01*
X47433Y93885D01*
X47374Y93901D01*
X47318Y93920D01*
X47268Y93935D01*
X47224Y93951D01*
X47187Y93963D01*
X47152Y93976D01*
X47128Y93988D01*
X47109Y93998D01*
X47096Y94001D01*
X47093Y94004D01*
X47031Y94038D01*
X46971Y94076D01*
X46918Y94113D01*
X46869Y94154D01*
X46822Y94194D01*
X46778Y94235D01*
X46738Y94275D01*
X46703Y94313D01*
X46672Y94350D01*
X46644Y94385D01*
X46619Y94416D01*
X46600Y94441D01*
X46585Y94463D01*
X46575Y94481D01*
X46569Y94491D01*
X46566Y94494D01*
X46532Y94553D01*
X46503Y94616D01*
X46479Y94678D01*
X46457Y94740D01*
X46441Y94800D01*
X46426Y94859D01*
X46413Y94915D01*
X46404Y94968D01*
X46394Y95018D01*
X46388Y95062D01*
X46385Y95102D01*
X46382Y95137D01*
X46379Y95165D01*
Y95202D01*
X46382Y95274D01*
X46385Y95342D01*
X46407Y95477D01*
X46419Y95539D01*
X46435Y95595D01*
X46450Y95651D01*
X46466Y95701D01*
X46482Y95748D01*
X46497Y95789D01*
X46513Y95823D01*
X46525Y95854D01*
X46538Y95879D01*
X46547Y95895D01*
X46550Y95907D01*
X46553Y95910D01*
X46469Y96026D01*
X46397Y96138D01*
X46338Y96241D01*
X46313Y96291D01*
X46291Y96335D01*
X46270Y96375D01*
X46251Y96413D01*
X46238Y96447D01*
X46226Y96475D01*
X46216Y96497D01*
X46210Y96516D01*
X46204Y96525D01*
Y96528D01*
X46466Y96644D01*
X46500Y96559D01*
D02*
G37*
G36*
X47346Y78840D02*
X47433Y78824D01*
X47511Y78803D01*
X47577Y78778D01*
X47605Y78762D01*
X47630Y78750D01*
X47652Y78737D01*
X47670Y78728D01*
X47686Y78718D01*
X47695Y78712D01*
X47701Y78709D01*
X47705Y78706D01*
X47773Y78650D01*
X47829Y78584D01*
X47879Y78519D01*
X47917Y78453D01*
X47948Y78394D01*
X47960Y78369D01*
X47970Y78347D01*
X47976Y78328D01*
X47982Y78316D01*
X47986Y78307D01*
Y78303D01*
X48020Y78378D01*
X48054Y78444D01*
X48095Y78497D01*
X48129Y78544D01*
X48163Y78578D01*
X48188Y78603D01*
X48207Y78615D01*
X48210Y78622D01*
X48213D01*
X48272Y78656D01*
X48332Y78684D01*
X48391Y78703D01*
X48444Y78715D01*
X48491Y78721D01*
X48513Y78725D01*
X48528Y78728D01*
X48544D01*
X48553D01*
X48560D01*
X48563D01*
X48619Y78725D01*
X48675Y78718D01*
X48728Y78706D01*
X48778Y78690D01*
X48825Y78675D01*
X48868Y78656D01*
X48909Y78634D01*
X48946Y78612D01*
X48978Y78590D01*
X49009Y78569D01*
X49034Y78550D01*
X49056Y78534D01*
X49071Y78519D01*
X49084Y78506D01*
X49090Y78500D01*
X49093Y78497D01*
X49134Y78453D01*
X49165Y78403D01*
X49196Y78356D01*
X49221Y78303D01*
X49243Y78254D01*
X49262Y78203D01*
X49274Y78154D01*
X49286Y78107D01*
X49296Y78060D01*
X49302Y78019D01*
X49308Y77982D01*
X49312Y77951D01*
X49315Y77926D01*
Y77888D01*
X49312Y77820D01*
X49305Y77754D01*
X49296Y77695D01*
X49280Y77636D01*
X49265Y77583D01*
X49246Y77536D01*
X49227Y77489D01*
X49209Y77448D01*
X49187Y77411D01*
X49168Y77380D01*
X49149Y77352D01*
X49134Y77330D01*
X49118Y77311D01*
X49109Y77299D01*
X49102Y77293D01*
X49099Y77289D01*
X49059Y77249D01*
X49015Y77214D01*
X48971Y77186D01*
X48928Y77158D01*
X48881Y77136D01*
X48837Y77121D01*
X48797Y77105D01*
X48756Y77093D01*
X48716Y77083D01*
X48681Y77077D01*
X48650Y77071D01*
X48625Y77068D01*
X48603D01*
X48584Y77065D01*
X48575D01*
X48572D01*
X48497Y77068D01*
X48428Y77080D01*
X48366Y77099D01*
X48313Y77118D01*
X48272Y77136D01*
X48241Y77155D01*
X48229Y77162D01*
X48219Y77168D01*
X48216Y77171D01*
X48213D01*
X48160Y77214D01*
X48116Y77268D01*
X48076Y77321D01*
X48045Y77374D01*
X48020Y77420D01*
X48007Y77442D01*
X48001Y77461D01*
X47995Y77473D01*
X47989Y77486D01*
X47986Y77492D01*
Y77495D01*
X47954Y77402D01*
X47917Y77321D01*
X47873Y77252D01*
X47829Y77196D01*
X47811Y77171D01*
X47789Y77149D01*
X47773Y77130D01*
X47758Y77118D01*
X47745Y77105D01*
X47736Y77096D01*
X47730Y77093D01*
X47727Y77090D01*
X47689Y77065D01*
X47652Y77043D01*
X47574Y77009D01*
X47496Y76984D01*
X47424Y76968D01*
X47390Y76962D01*
X47358Y76956D01*
X47330Y76952D01*
X47305D01*
X47287Y76949D01*
X47271D01*
X47262D01*
X47258D01*
X47190Y76952D01*
X47124Y76962D01*
X47059Y76974D01*
X46999Y76990D01*
X46946Y77009D01*
X46894Y77030D01*
X46847Y77055D01*
X46803Y77080D01*
X46762Y77102D01*
X46728Y77127D01*
X46700Y77149D01*
X46675Y77168D01*
X46653Y77183D01*
X46641Y77196D01*
X46631Y77205D01*
X46628Y77208D01*
X46585Y77258D01*
X46547Y77314D01*
X46513Y77371D01*
X46485Y77427D01*
X46460Y77486D01*
X46441Y77542D01*
X46422Y77598D01*
X46410Y77651D01*
X46400Y77701D01*
X46391Y77748D01*
X46385Y77792D01*
X46382Y77826D01*
Y77857D01*
X46379Y77879D01*
Y77898D01*
X46382Y77976D01*
X46388Y78051D01*
X46400Y78119D01*
X46419Y78185D01*
X46438Y78244D01*
X46457Y78300D01*
X46482Y78353D01*
X46503Y78400D01*
X46525Y78441D01*
X46550Y78478D01*
X46569Y78509D01*
X46591Y78537D01*
X46606Y78556D01*
X46619Y78572D01*
X46625Y78581D01*
X46628Y78584D01*
X46675Y78631D01*
X46728Y78672D01*
X46778Y78706D01*
X46831Y78737D01*
X46884Y78762D01*
X46934Y78784D01*
X46984Y78799D01*
X47034Y78815D01*
X47078Y78824D01*
X47118Y78834D01*
X47155Y78837D01*
X47187Y78843D01*
X47215D01*
X47234Y78846D01*
X47246D01*
X47249D01*
X47299D01*
X47346Y78840D01*
D02*
G37*
G36*
X46500Y76556D02*
X46544Y76469D01*
X46588Y76385D01*
X46631Y76310D01*
X46653Y76275D01*
X46672Y76244D01*
X46691Y76216D01*
X46703Y76194D01*
X46716Y76172D01*
X46725Y76160D01*
X46731Y76151D01*
X46734Y76148D01*
X46815Y76226D01*
X46900Y76291D01*
X46981Y76347D01*
X47059Y76394D01*
X47093Y76413D01*
X47128Y76428D01*
X47155Y76444D01*
X47181Y76453D01*
X47199Y76463D01*
X47215Y76469D01*
X47224Y76475D01*
X47227D01*
X47337Y76512D01*
X47446Y76538D01*
X47555Y76556D01*
X47605Y76565D01*
X47655Y76572D01*
X47698Y76575D01*
X47739Y76578D01*
X47776Y76581D01*
X47808D01*
X47833Y76584D01*
X47851D01*
X47864D01*
X47867D01*
X47945Y76581D01*
X48023Y76578D01*
X48098Y76569D01*
X48166Y76559D01*
X48235Y76547D01*
X48298Y76531D01*
X48357Y76516D01*
X48410Y76500D01*
X48460Y76484D01*
X48503Y76469D01*
X48544Y76456D01*
X48575Y76441D01*
X48600Y76431D01*
X48619Y76422D01*
X48631Y76419D01*
X48634Y76416D01*
X48697Y76381D01*
X48756Y76347D01*
X48809Y76307D01*
X48862Y76269D01*
X48909Y76229D01*
X48953Y76188D01*
X48990Y76148D01*
X49028Y76107D01*
X49059Y76069D01*
X49087Y76035D01*
X49112Y76007D01*
X49130Y75979D01*
X49146Y75957D01*
X49156Y75941D01*
X49162Y75929D01*
X49165Y75926D01*
X49199Y75863D01*
X49227Y75804D01*
X49252Y75742D01*
X49274Y75679D01*
X49293Y75617D01*
X49308Y75558D01*
X49321Y75502D01*
X49330Y75445D01*
X49340Y75396D01*
X49346Y75352D01*
X49349Y75311D01*
X49352Y75274D01*
X49355Y75246D01*
Y75208D01*
X49352Y75137D01*
X49346Y75065D01*
X49340Y74996D01*
X49327Y74931D01*
X49312Y74865D01*
X49296Y74806D01*
X49280Y74753D01*
X49265Y74700D01*
X49246Y74656D01*
X49230Y74612D01*
X49215Y74578D01*
X49199Y74547D01*
X49187Y74522D01*
X49180Y74506D01*
X49174Y74494D01*
X49171Y74491D01*
X49137Y74432D01*
X49096Y74378D01*
X49056Y74329D01*
X49012Y74279D01*
X48968Y74235D01*
X48925Y74198D01*
X48881Y74160D01*
X48837Y74126D01*
X48797Y74098D01*
X48762Y74073D01*
X48728Y74051D01*
X48697Y74032D01*
X48675Y74020D01*
X48656Y74010D01*
X48644Y74004D01*
X48641Y74001D01*
X48575Y73970D01*
X48507Y73945D01*
X48438Y73923D01*
X48372Y73901D01*
X48241Y73870D01*
X48179Y73861D01*
X48123Y73851D01*
X48067Y73845D01*
X48017Y73839D01*
X47973Y73836D01*
X47936Y73832D01*
X47904Y73829D01*
X47883D01*
X47870D01*
X47864D01*
X47786Y73832D01*
X47708Y73836D01*
X47633Y73845D01*
X47564Y73857D01*
X47496Y73870D01*
X47433Y73882D01*
X47374Y73898D01*
X47318Y73917D01*
X47268Y73932D01*
X47224Y73948D01*
X47187Y73960D01*
X47152Y73973D01*
X47128Y73985D01*
X47109Y73995D01*
X47096Y73998D01*
X47093Y74001D01*
X47031Y74035D01*
X46971Y74073D01*
X46918Y74110D01*
X46869Y74151D01*
X46822Y74191D01*
X46778Y74232D01*
X46738Y74272D01*
X46703Y74310D01*
X46672Y74347D01*
X46644Y74382D01*
X46619Y74413D01*
X46600Y74438D01*
X46585Y74460D01*
X46575Y74478D01*
X46569Y74488D01*
X46566Y74491D01*
X46532Y74550D01*
X46503Y74612D01*
X46479Y74675D01*
X46457Y74737D01*
X46441Y74796D01*
X46426Y74856D01*
X46413Y74912D01*
X46404Y74965D01*
X46394Y75015D01*
X46388Y75059D01*
X46385Y75099D01*
X46382Y75134D01*
X46379Y75161D01*
Y75199D01*
X46382Y75271D01*
X46385Y75339D01*
X46407Y75474D01*
X46419Y75536D01*
X46435Y75592D01*
X46450Y75648D01*
X46466Y75698D01*
X46482Y75745D01*
X46497Y75786D01*
X46513Y75820D01*
X46525Y75851D01*
X46538Y75876D01*
X46547Y75892D01*
X46550Y75904D01*
X46553Y75907D01*
X46469Y76023D01*
X46397Y76135D01*
X46338Y76238D01*
X46313Y76288D01*
X46291Y76332D01*
X46270Y76372D01*
X46251Y76410D01*
X46238Y76444D01*
X46226Y76472D01*
X46216Y76494D01*
X46210Y76512D01*
X46204Y76522D01*
Y76525D01*
X46466Y76640D01*
X46500Y76556D01*
D02*
G37*
G36*
X47436Y118840D02*
X47508Y118834D01*
X47577Y118821D01*
X47639Y118806D01*
X47698Y118784D01*
X47755Y118765D01*
X47804Y118740D01*
X47851Y118718D01*
X47892Y118696D01*
X47929Y118672D01*
X47960Y118653D01*
X47986Y118634D01*
X48007Y118615D01*
X48020Y118603D01*
X48029Y118597D01*
X48032Y118594D01*
X48079Y118547D01*
X48120Y118497D01*
X48154Y118447D01*
X48185Y118394D01*
X48210Y118344D01*
X48232Y118294D01*
X48248Y118244D01*
X48263Y118200D01*
X48272Y118157D01*
X48282Y118116D01*
X48285Y118082D01*
X48291Y118051D01*
Y118026D01*
X48294Y118007D01*
Y117991D01*
X48291Y117917D01*
X48279Y117845D01*
X48263Y117779D01*
X48248Y117720D01*
X48229Y117670D01*
X48219Y117651D01*
X48213Y117633D01*
X48207Y117620D01*
X48201Y117611D01*
X48198Y117604D01*
Y117601D01*
X48157Y117536D01*
X48113Y117477D01*
X48067Y117423D01*
X48020Y117377D01*
X47976Y117342D01*
X47942Y117314D01*
X47929Y117305D01*
X47920Y117299D01*
X47914Y117293D01*
X47989Y117296D01*
X48063Y117299D01*
X48132Y117302D01*
X48195Y117308D01*
X48254Y117317D01*
X48310Y117327D01*
X48360Y117333D01*
X48404Y117342D01*
X48441Y117352D01*
X48475Y117361D01*
X48507Y117370D01*
X48528Y117377D01*
X48547Y117383D01*
X48563Y117389D01*
X48569Y117392D01*
X48572D01*
X48653Y117433D01*
X48725Y117473D01*
X48787Y117517D01*
X48837Y117561D01*
X48878Y117598D01*
X48906Y117626D01*
X48915Y117639D01*
X48921Y117648D01*
X48928Y117651D01*
Y117654D01*
X48959Y117704D01*
X48984Y117754D01*
X49000Y117804D01*
X49012Y117851D01*
X49018Y117892D01*
X49024Y117926D01*
Y117954D01*
X49021Y117991D01*
X49018Y118029D01*
X49000Y118097D01*
X48978Y118160D01*
X48950Y118210D01*
X48921Y118253D01*
X48897Y118285D01*
X48887Y118294D01*
X48878Y118303D01*
X48875Y118307D01*
X48872Y118310D01*
X48831Y118341D01*
X48784Y118366D01*
X48734Y118391D01*
X48684Y118409D01*
X48641Y118425D01*
X48603Y118434D01*
X48588Y118438D01*
X48578Y118441D01*
X48572Y118444D01*
X48569D01*
X48597Y118796D01*
X48659Y118787D01*
X48716Y118771D01*
X48769Y118756D01*
X48818Y118737D01*
X48865Y118715D01*
X48909Y118693D01*
X48950Y118672D01*
X48984Y118650D01*
X49015Y118628D01*
X49043Y118606D01*
X49068Y118587D01*
X49087Y118569D01*
X49102Y118556D01*
X49112Y118544D01*
X49118Y118537D01*
X49121Y118534D01*
X49156Y118491D01*
X49184Y118447D01*
X49212Y118403D01*
X49233Y118356D01*
X49252Y118307D01*
X49268Y118263D01*
X49290Y118172D01*
X49299Y118132D01*
X49305Y118094D01*
X49308Y118060D01*
X49312Y118032D01*
X49315Y118010D01*
Y117976D01*
X49312Y117892D01*
X49299Y117814D01*
X49283Y117739D01*
X49262Y117670D01*
X49237Y117604D01*
X49209Y117545D01*
X49180Y117489D01*
X49149Y117439D01*
X49118Y117395D01*
X49090Y117358D01*
X49062Y117324D01*
X49037Y117299D01*
X49015Y117277D01*
X49000Y117261D01*
X48987Y117252D01*
X48984Y117249D01*
X48909Y117196D01*
X48825Y117146D01*
X48731Y117105D01*
X48634Y117071D01*
X48535Y117040D01*
X48435Y117015D01*
X48335Y116996D01*
X48235Y116977D01*
X48142Y116965D01*
X48054Y116955D01*
X47976Y116949D01*
X47908Y116946D01*
X47876Y116943D01*
X47851D01*
X47826Y116940D01*
X47808D01*
X47792D01*
X47780D01*
X47773D01*
X47770D01*
X47636Y116943D01*
X47511Y116952D01*
X47396Y116965D01*
X47290Y116984D01*
X47193Y117005D01*
X47106Y117027D01*
X47028Y117052D01*
X46959Y117080D01*
X46897Y117105D01*
X46843Y117130D01*
X46800Y117152D01*
X46766Y117174D01*
X46738Y117193D01*
X46719Y117205D01*
X46706Y117215D01*
X46703Y117218D01*
X46647Y117271D01*
X46597Y117330D01*
X46553Y117386D01*
X46516Y117448D01*
X46485Y117508D01*
X46457Y117567D01*
X46438Y117626D01*
X46419Y117683D01*
X46407Y117736D01*
X46397Y117782D01*
X46388Y117826D01*
X46385Y117863D01*
X46382Y117895D01*
X46379Y117920D01*
Y117938D01*
X46385Y118032D01*
X46397Y118119D01*
X46416Y118200D01*
X46441Y118269D01*
X46450Y118297D01*
X46463Y118325D01*
X46472Y118347D01*
X46482Y118366D01*
X46488Y118381D01*
X46494Y118394D01*
X46500Y118400D01*
Y118403D01*
X46550Y118475D01*
X46610Y118541D01*
X46669Y118597D01*
X46725Y118640D01*
X46778Y118678D01*
X46800Y118690D01*
X46819Y118703D01*
X46834Y118712D01*
X46847Y118718D01*
X46853Y118725D01*
X46856D01*
X46946Y118765D01*
X47034Y118793D01*
X47118Y118815D01*
X47196Y118827D01*
X47230Y118834D01*
X47265Y118837D01*
X47293Y118840D01*
X47315D01*
X47337Y118843D01*
X47349D01*
X47358D01*
X47361D01*
X47436Y118840D01*
D02*
G37*
G36*
X46500Y116559D02*
X46544Y116472D01*
X46588Y116388D01*
X46631Y116313D01*
X46653Y116279D01*
X46672Y116247D01*
X46691Y116219D01*
X46703Y116197D01*
X46716Y116175D01*
X46725Y116163D01*
X46731Y116154D01*
X46734Y116151D01*
X46815Y116229D01*
X46900Y116294D01*
X46981Y116350D01*
X47059Y116397D01*
X47093Y116416D01*
X47128Y116431D01*
X47155Y116447D01*
X47181Y116456D01*
X47199Y116466D01*
X47215Y116472D01*
X47224Y116478D01*
X47227D01*
X47337Y116516D01*
X47446Y116541D01*
X47555Y116559D01*
X47605Y116569D01*
X47655Y116575D01*
X47698Y116578D01*
X47739Y116581D01*
X47776Y116584D01*
X47808D01*
X47833Y116587D01*
X47851D01*
X47864D01*
X47867D01*
X47945Y116584D01*
X48023Y116581D01*
X48098Y116572D01*
X48166Y116562D01*
X48235Y116550D01*
X48298Y116534D01*
X48357Y116519D01*
X48410Y116503D01*
X48460Y116488D01*
X48503Y116472D01*
X48544Y116459D01*
X48575Y116444D01*
X48600Y116435D01*
X48619Y116425D01*
X48631Y116422D01*
X48634Y116419D01*
X48697Y116385D01*
X48756Y116350D01*
X48809Y116310D01*
X48862Y116272D01*
X48909Y116232D01*
X48953Y116191D01*
X48990Y116151D01*
X49028Y116110D01*
X49059Y116073D01*
X49087Y116038D01*
X49112Y116010D01*
X49130Y115982D01*
X49146Y115960D01*
X49156Y115945D01*
X49162Y115932D01*
X49165Y115929D01*
X49199Y115867D01*
X49227Y115807D01*
X49252Y115745D01*
X49274Y115683D01*
X49293Y115620D01*
X49308Y115561D01*
X49321Y115505D01*
X49330Y115449D01*
X49340Y115399D01*
X49346Y115355D01*
X49349Y115314D01*
X49352Y115277D01*
X49355Y115249D01*
Y115211D01*
X49352Y115140D01*
X49346Y115068D01*
X49340Y114999D01*
X49327Y114934D01*
X49312Y114868D01*
X49296Y114809D01*
X49280Y114756D01*
X49265Y114703D01*
X49246Y114659D01*
X49230Y114615D01*
X49215Y114581D01*
X49199Y114550D01*
X49187Y114525D01*
X49180Y114509D01*
X49174Y114497D01*
X49171Y114494D01*
X49137Y114435D01*
X49096Y114382D01*
X49056Y114332D01*
X49012Y114282D01*
X48968Y114238D01*
X48925Y114201D01*
X48881Y114163D01*
X48837Y114129D01*
X48797Y114101D01*
X48762Y114076D01*
X48728Y114054D01*
X48697Y114035D01*
X48675Y114023D01*
X48656Y114013D01*
X48644Y114007D01*
X48641Y114004D01*
X48575Y113973D01*
X48507Y113948D01*
X48438Y113926D01*
X48372Y113904D01*
X48241Y113873D01*
X48179Y113864D01*
X48123Y113854D01*
X48067Y113848D01*
X48017Y113842D01*
X47973Y113839D01*
X47936Y113836D01*
X47904Y113832D01*
X47883D01*
X47870D01*
X47864D01*
X47786Y113836D01*
X47708Y113839D01*
X47633Y113848D01*
X47564Y113860D01*
X47496Y113873D01*
X47433Y113885D01*
X47374Y113901D01*
X47318Y113920D01*
X47268Y113935D01*
X47224Y113951D01*
X47187Y113963D01*
X47152Y113976D01*
X47128Y113988D01*
X47109Y113998D01*
X47096Y114001D01*
X47093Y114004D01*
X47031Y114038D01*
X46971Y114076D01*
X46918Y114113D01*
X46869Y114154D01*
X46822Y114194D01*
X46778Y114235D01*
X46738Y114276D01*
X46703Y114313D01*
X46672Y114350D01*
X46644Y114385D01*
X46619Y114416D01*
X46600Y114441D01*
X46585Y114463D01*
X46575Y114481D01*
X46569Y114491D01*
X46566Y114494D01*
X46532Y114553D01*
X46503Y114615D01*
X46479Y114678D01*
X46457Y114740D01*
X46441Y114800D01*
X46426Y114859D01*
X46413Y114915D01*
X46404Y114968D01*
X46394Y115018D01*
X46388Y115062D01*
X46385Y115102D01*
X46382Y115137D01*
X46379Y115165D01*
Y115202D01*
X46382Y115274D01*
X46385Y115342D01*
X46407Y115477D01*
X46419Y115539D01*
X46435Y115595D01*
X46450Y115651D01*
X46466Y115701D01*
X46482Y115748D01*
X46497Y115789D01*
X46513Y115823D01*
X46525Y115854D01*
X46538Y115879D01*
X46547Y115895D01*
X46550Y115907D01*
X46553Y115910D01*
X46469Y116026D01*
X46397Y116138D01*
X46338Y116241D01*
X46313Y116291D01*
X46291Y116335D01*
X46270Y116375D01*
X46251Y116413D01*
X46238Y116447D01*
X46226Y116475D01*
X46216Y116497D01*
X46210Y116516D01*
X46204Y116525D01*
Y116528D01*
X46466Y116644D01*
X46500Y116559D01*
D02*
G37*
G36*
X19541Y137463D02*
X19587Y137395D01*
X19640Y137329D01*
X19693Y137273D01*
X19740Y137220D01*
X19762Y137201D01*
X19778Y137182D01*
X19793Y137167D01*
X19806Y137157D01*
X19812Y137151D01*
X19815Y137148D01*
X19899Y137076D01*
X19990Y137014D01*
X20077Y136955D01*
X20158Y136905D01*
X20193Y136886D01*
X20227Y136867D01*
X20258Y136849D01*
X20283Y136836D01*
X20305Y136827D01*
X20321Y136817D01*
X20330Y136814D01*
X20333Y136811D01*
Y136471D01*
X20271Y136496D01*
X20205Y136524D01*
X20143Y136555D01*
X20087Y136583D01*
X20037Y136611D01*
X20015Y136621D01*
X19996Y136633D01*
X19981Y136640D01*
X19971Y136646D01*
X19965Y136652D01*
X19962D01*
X19887Y136699D01*
X19821Y136743D01*
X19762Y136783D01*
X19715Y136821D01*
X19675Y136852D01*
X19647Y136874D01*
X19631Y136889D01*
X19625Y136895D01*
Y134646D01*
X19272D01*
Y137535D01*
X19500D01*
X19541Y137463D01*
D02*
G37*
G36*
X22420Y137573D02*
X22492Y137566D01*
X22561Y137560D01*
X22626Y137548D01*
X22692Y137532D01*
X22751Y137516D01*
X22804Y137501D01*
X22857Y137485D01*
X22901Y137466D01*
X22945Y137451D01*
X22979Y137435D01*
X23010Y137420D01*
X23035Y137407D01*
X23051Y137401D01*
X23063Y137395D01*
X23066Y137391D01*
X23125Y137357D01*
X23179Y137317D01*
X23228Y137276D01*
X23278Y137232D01*
X23322Y137189D01*
X23359Y137145D01*
X23397Y137101D01*
X23431Y137058D01*
X23459Y137017D01*
X23484Y136983D01*
X23506Y136949D01*
X23525Y136917D01*
X23537Y136895D01*
X23547Y136877D01*
X23553Y136864D01*
X23556Y136861D01*
X23587Y136796D01*
X23612Y136727D01*
X23634Y136658D01*
X23656Y136593D01*
X23687Y136462D01*
X23697Y136399D01*
X23706Y136343D01*
X23712Y136287D01*
X23718Y136237D01*
X23721Y136193D01*
X23725Y136156D01*
X23728Y136125D01*
Y136103D01*
Y136091D01*
Y136084D01*
X23725Y136006D01*
X23721Y135928D01*
X23712Y135853D01*
X23700Y135785D01*
X23687Y135716D01*
X23675Y135654D01*
X23659Y135594D01*
X23640Y135538D01*
X23625Y135488D01*
X23609Y135445D01*
X23597Y135407D01*
X23584Y135373D01*
X23572Y135348D01*
X23562Y135329D01*
X23559Y135317D01*
X23556Y135314D01*
X23522Y135251D01*
X23484Y135192D01*
X23447Y135139D01*
X23406Y135089D01*
X23366Y135042D01*
X23325Y134999D01*
X23285Y134958D01*
X23247Y134924D01*
X23210Y134892D01*
X23175Y134864D01*
X23144Y134839D01*
X23119Y134821D01*
X23097Y134805D01*
X23079Y134796D01*
X23069Y134789D01*
X23066Y134786D01*
X23007Y134752D01*
X22945Y134724D01*
X22882Y134699D01*
X22820Y134677D01*
X22761Y134661D01*
X22701Y134646D01*
X22645Y134633D01*
X22592Y134624D01*
X22542Y134615D01*
X22498Y134608D01*
X22458Y134605D01*
X22423Y134602D01*
X22395Y134599D01*
X22358D01*
X22286Y134602D01*
X22218Y134605D01*
X22083Y134627D01*
X22021Y134640D01*
X21965Y134655D01*
X21909Y134671D01*
X21859Y134687D01*
X21812Y134702D01*
X21771Y134718D01*
X21737Y134733D01*
X21706Y134746D01*
X21681Y134758D01*
X21665Y134768D01*
X21653Y134771D01*
X21650Y134774D01*
X21534Y134690D01*
X21422Y134618D01*
X21319Y134559D01*
X21269Y134534D01*
X21225Y134512D01*
X21185Y134490D01*
X21147Y134471D01*
X21113Y134459D01*
X21085Y134446D01*
X21063Y134437D01*
X21045Y134431D01*
X21035Y134424D01*
X21032D01*
X20917Y134687D01*
X21001Y134721D01*
X21088Y134765D01*
X21172Y134808D01*
X21247Y134852D01*
X21282Y134874D01*
X21313Y134892D01*
X21341Y134911D01*
X21363Y134924D01*
X21385Y134936D01*
X21397Y134945D01*
X21406Y134952D01*
X21409Y134955D01*
X21331Y135036D01*
X21266Y135120D01*
X21210Y135201D01*
X21163Y135279D01*
X21144Y135314D01*
X21129Y135348D01*
X21113Y135376D01*
X21104Y135401D01*
X21094Y135420D01*
X21088Y135435D01*
X21082Y135445D01*
Y135448D01*
X21045Y135557D01*
X21020Y135666D01*
X21001Y135775D01*
X20991Y135825D01*
X20985Y135875D01*
X20982Y135919D01*
X20979Y135959D01*
X20976Y135997D01*
Y136028D01*
X20973Y136053D01*
Y136072D01*
Y136084D01*
Y136087D01*
X20976Y136165D01*
X20979Y136243D01*
X20988Y136318D01*
X20998Y136387D01*
X21010Y136456D01*
X21026Y136518D01*
X21041Y136577D01*
X21057Y136630D01*
X21073Y136680D01*
X21088Y136724D01*
X21101Y136764D01*
X21116Y136796D01*
X21126Y136821D01*
X21135Y136839D01*
X21138Y136852D01*
X21141Y136855D01*
X21175Y136917D01*
X21210Y136977D01*
X21250Y137030D01*
X21288Y137083D01*
X21328Y137129D01*
X21369Y137173D01*
X21409Y137211D01*
X21450Y137248D01*
X21487Y137279D01*
X21522Y137307D01*
X21550Y137332D01*
X21578Y137351D01*
X21600Y137367D01*
X21615Y137376D01*
X21628Y137382D01*
X21631Y137385D01*
X21693Y137420D01*
X21753Y137448D01*
X21815Y137473D01*
X21878Y137495D01*
X21940Y137513D01*
X21999Y137529D01*
X22055Y137541D01*
X22111Y137551D01*
X22161Y137560D01*
X22205Y137566D01*
X22246Y137569D01*
X22283Y137573D01*
X22311Y137576D01*
X22349D01*
X22420Y137573D01*
D02*
G37*
G36*
X176187Y89274D02*
X176255Y89324D01*
X176286Y89349D01*
X176315Y89374D01*
X176339Y89396D01*
X176358Y89411D01*
X176371Y89424D01*
X176374Y89427D01*
X176393Y89446D01*
X176418Y89471D01*
X176443Y89499D01*
X176471Y89530D01*
X176533Y89596D01*
X176592Y89664D01*
X176648Y89730D01*
X176673Y89758D01*
X176695Y89786D01*
X176714Y89805D01*
X176726Y89823D01*
X176736Y89833D01*
X176739Y89836D01*
X176798Y89904D01*
X176854Y89970D01*
X176904Y90029D01*
X176954Y90082D01*
X176998Y90132D01*
X177041Y90176D01*
X177079Y90216D01*
X177113Y90254D01*
X177141Y90285D01*
X177170Y90310D01*
X177191Y90332D01*
X177210Y90351D01*
X177226Y90363D01*
X177235Y90376D01*
X177241Y90379D01*
X177244Y90382D01*
X177313Y90441D01*
X177375Y90488D01*
X177435Y90529D01*
X177488Y90563D01*
X177531Y90588D01*
X177566Y90606D01*
X177578Y90613D01*
X177587Y90616D01*
X177591Y90619D01*
X177594D01*
X177656Y90644D01*
X177719Y90659D01*
X177775Y90672D01*
X177828Y90681D01*
X177872Y90688D01*
X177906Y90691D01*
X177918D01*
X177928D01*
X177931D01*
X177934D01*
X177996Y90688D01*
X178056Y90681D01*
X178112Y90669D01*
X178168Y90653D01*
X178218Y90635D01*
X178265Y90613D01*
X178308Y90591D01*
X178346Y90569D01*
X178383Y90547D01*
X178414Y90525D01*
X178442Y90504D01*
X178464Y90485D01*
X178480Y90469D01*
X178496Y90457D01*
X178502Y90451D01*
X178505Y90447D01*
X178545Y90400D01*
X178580Y90351D01*
X178611Y90298D01*
X178639Y90241D01*
X178661Y90188D01*
X178680Y90132D01*
X178695Y90079D01*
X178708Y90026D01*
X178717Y89979D01*
X178723Y89933D01*
X178729Y89892D01*
X178733Y89858D01*
X178736Y89830D01*
Y89789D01*
X178733Y89714D01*
X178726Y89642D01*
X178717Y89577D01*
X178701Y89514D01*
X178686Y89455D01*
X178667Y89402D01*
X178648Y89352D01*
X178630Y89309D01*
X178608Y89268D01*
X178589Y89234D01*
X178570Y89202D01*
X178555Y89178D01*
X178539Y89159D01*
X178530Y89146D01*
X178524Y89137D01*
X178520Y89134D01*
X178480Y89090D01*
X178433Y89053D01*
X178386Y89018D01*
X178333Y88987D01*
X178283Y88962D01*
X178233Y88937D01*
X178180Y88919D01*
X178133Y88903D01*
X178087Y88887D01*
X178043Y88878D01*
X178003Y88869D01*
X177968Y88862D01*
X177940Y88859D01*
X177921Y88856D01*
X177909Y88853D01*
X177903D01*
X177865Y89215D01*
X177915Y89218D01*
X177962Y89221D01*
X178043Y89240D01*
X178118Y89265D01*
X178149Y89277D01*
X178177Y89293D01*
X178202Y89305D01*
X178224Y89321D01*
X178243Y89333D01*
X178258Y89343D01*
X178271Y89355D01*
X178280Y89362D01*
X178283Y89365D01*
X178286Y89368D01*
X178314Y89399D01*
X178340Y89430D01*
X178358Y89464D01*
X178377Y89499D01*
X178405Y89568D01*
X178424Y89633D01*
X178433Y89689D01*
X178439Y89714D01*
Y89736D01*
X178442Y89755D01*
Y89823D01*
X178436Y89867D01*
X178421Y89945D01*
X178396Y90011D01*
X178371Y90070D01*
X178343Y90114D01*
X178330Y90132D01*
X178318Y90148D01*
X178308Y90160D01*
X178302Y90170D01*
X178299Y90173D01*
X178296Y90176D01*
X178268Y90204D01*
X178240Y90226D01*
X178211Y90248D01*
X178180Y90263D01*
X178121Y90291D01*
X178065Y90310D01*
X178018Y90319D01*
X177996Y90326D01*
X177978D01*
X177965Y90329D01*
X177953D01*
X177946D01*
X177943D01*
X177906Y90326D01*
X177868Y90323D01*
X177794Y90304D01*
X177722Y90276D01*
X177656Y90245D01*
X177600Y90213D01*
X177578Y90201D01*
X177556Y90185D01*
X177541Y90176D01*
X177528Y90166D01*
X177522Y90163D01*
X177519Y90160D01*
X177475Y90126D01*
X177428Y90085D01*
X177378Y90039D01*
X177329Y89989D01*
X177226Y89886D01*
X177129Y89780D01*
X177082Y89730D01*
X177041Y89680D01*
X177004Y89636D01*
X176973Y89599D01*
X176945Y89568D01*
X176926Y89546D01*
X176910Y89530D01*
X176907Y89524D01*
X176861Y89468D01*
X176817Y89418D01*
X176776Y89368D01*
X176736Y89324D01*
X176698Y89280D01*
X176661Y89243D01*
X176630Y89209D01*
X176599Y89178D01*
X176570Y89149D01*
X176546Y89128D01*
X176524Y89106D01*
X176508Y89090D01*
X176492Y89074D01*
X176483Y89065D01*
X176477Y89062D01*
X176474Y89059D01*
X176405Y89003D01*
X176336Y88956D01*
X176271Y88915D01*
X176212Y88884D01*
X176162Y88859D01*
X176140Y88850D01*
X176124Y88841D01*
X176109Y88834D01*
X176099Y88831D01*
X176093Y88828D01*
X176090D01*
X176046Y88813D01*
X176003Y88803D01*
X175962Y88794D01*
X175925Y88791D01*
X175893Y88788D01*
X175868D01*
X175853D01*
X175847D01*
Y90694D01*
X176187D01*
Y89274D01*
D02*
G37*
G36*
X178726Y87964D02*
X177063D01*
X176967Y87961D01*
X176876Y87958D01*
X176795Y87948D01*
X176720Y87936D01*
X176655Y87923D01*
X176595Y87908D01*
X176542Y87889D01*
X176496Y87873D01*
X176455Y87858D01*
X176421Y87839D01*
X176393Y87823D01*
X176371Y87811D01*
X176355Y87799D01*
X176343Y87792D01*
X176336Y87786D01*
X176333Y87783D01*
X176299Y87745D01*
X176271Y87705D01*
X176246Y87661D01*
X176224Y87614D01*
X176205Y87564D01*
X176190Y87515D01*
X176168Y87418D01*
X176159Y87371D01*
X176152Y87327D01*
X176149Y87287D01*
X176146Y87252D01*
X176143Y87224D01*
Y87184D01*
X176146Y87097D01*
X176159Y87015D01*
X176174Y86944D01*
X176190Y86881D01*
X176199Y86856D01*
X176208Y86834D01*
X176215Y86813D01*
X176221Y86797D01*
X176227Y86784D01*
X176233Y86775D01*
X176237Y86769D01*
Y86766D01*
X176277Y86707D01*
X176321Y86657D01*
X176365Y86616D01*
X176411Y86585D01*
X176449Y86560D01*
X176483Y86541D01*
X176496Y86535D01*
X176505Y86532D01*
X176508Y86529D01*
X176511D01*
X176546Y86516D01*
X176586Y86507D01*
X176673Y86488D01*
X176764Y86476D01*
X176854Y86469D01*
X176895Y86466D01*
X176935Y86463D01*
X176970D01*
X177001Y86460D01*
X177029D01*
X177048D01*
X177060D01*
X177063D01*
X178726D01*
Y86079D01*
X177063D01*
X176979D01*
X176901Y86086D01*
X176826Y86089D01*
X176758Y86098D01*
X176692Y86104D01*
X176633Y86114D01*
X176580Y86123D01*
X176530Y86136D01*
X176486Y86145D01*
X176449Y86154D01*
X176414Y86164D01*
X176390Y86173D01*
X176368Y86179D01*
X176352Y86185D01*
X176343Y86189D01*
X176339D01*
X176293Y86210D01*
X176246Y86235D01*
X176165Y86291D01*
X176096Y86351D01*
X176040Y86413D01*
X176015Y86441D01*
X175996Y86466D01*
X175978Y86491D01*
X175962Y86513D01*
X175953Y86529D01*
X175943Y86541D01*
X175940Y86550D01*
X175937Y86554D01*
X175912Y86603D01*
X175893Y86657D01*
X175859Y86766D01*
X175834Y86878D01*
X175819Y86984D01*
X175812Y87031D01*
X175806Y87078D01*
X175803Y87115D01*
Y87150D01*
X175800Y87178D01*
Y87218D01*
X175803Y87293D01*
X175806Y87365D01*
X175815Y87433D01*
X175825Y87499D01*
X175837Y87558D01*
X175850Y87614D01*
X175865Y87664D01*
X175881Y87708D01*
X175893Y87752D01*
X175909Y87786D01*
X175921Y87817D01*
X175934Y87842D01*
X175943Y87864D01*
X175953Y87876D01*
X175956Y87886D01*
X175959Y87889D01*
X175990Y87936D01*
X176021Y87979D01*
X176056Y88017D01*
X176090Y88054D01*
X176124Y88086D01*
X176162Y88117D01*
X176193Y88142D01*
X176227Y88164D01*
X176283Y88201D01*
X176308Y88213D01*
X176330Y88226D01*
X176349Y88235D01*
X176361Y88241D01*
X176371Y88245D01*
X176374D01*
X176424Y88263D01*
X176477Y88279D01*
X176589Y88304D01*
X176705Y88319D01*
X176814Y88332D01*
X176867Y88335D01*
X176914Y88338D01*
X176954Y88341D01*
X176992Y88345D01*
X177023D01*
X177045D01*
X177057D01*
X177063D01*
X178726D01*
Y87964D01*
D02*
G37*
%LPC*%
G36*
X23759Y37586D02*
X23687D01*
X23634Y37580D01*
X23537Y37564D01*
X23450Y37539D01*
X23413Y37527D01*
X23375Y37514D01*
X23341Y37498D01*
X23313Y37486D01*
X23288Y37473D01*
X23266Y37461D01*
X23247Y37452D01*
X23235Y37445D01*
X23228Y37442D01*
X23225Y37439D01*
X23144Y37380D01*
X23076Y37314D01*
X23016Y37249D01*
X22966Y37183D01*
X22929Y37124D01*
X22913Y37099D01*
X22901Y37077D01*
X22892Y37058D01*
X22885Y37046D01*
X22879Y37037D01*
Y37034D01*
X22839Y36934D01*
X22807Y36831D01*
X22785Y36728D01*
X22773Y36631D01*
X22767Y36590D01*
X22764Y36550D01*
X22761Y36516D01*
Y36484D01*
X22757Y36459D01*
Y36441D01*
Y36428D01*
Y36425D01*
X22761Y36313D01*
X22773Y36210D01*
X22788Y36113D01*
X22810Y36023D01*
X22835Y35938D01*
X22863Y35864D01*
X22895Y35795D01*
X22926Y35736D01*
X22957Y35680D01*
X22988Y35633D01*
X23016Y35595D01*
X23041Y35561D01*
X23063Y35536D01*
X23079Y35520D01*
X23091Y35508D01*
X23094Y35505D01*
X23178Y35567D01*
X23269Y35623D01*
X23363Y35670D01*
X23447Y35711D01*
X23487Y35726D01*
X23525Y35739D01*
X23556Y35751D01*
X23584Y35761D01*
X23609Y35770D01*
X23625Y35776D01*
X23637Y35779D01*
X23640D01*
X23731Y35502D01*
X23659Y35480D01*
X23587Y35455D01*
X23525Y35427D01*
X23469Y35402D01*
X23422Y35377D01*
X23400Y35364D01*
X23384Y35355D01*
X23372Y35349D01*
X23363Y35342D01*
X23356Y35336D01*
X23353D01*
X23422Y35311D01*
X23491Y35293D01*
X23556Y35280D01*
X23615Y35271D01*
X23665Y35265D01*
X23687D01*
X23706Y35261D01*
X23740D01*
X23818Y35265D01*
X23893Y35274D01*
X23965Y35289D01*
X24033Y35308D01*
X24096Y35330D01*
X24152Y35355D01*
X24208Y35383D01*
X24255Y35411D01*
X24299Y35439D01*
X24339Y35467D01*
X24370Y35492D01*
X24398Y35514D01*
X24420Y35533D01*
X24436Y35548D01*
X24445Y35558D01*
X24448Y35561D01*
X24498Y35620D01*
X24539Y35683D01*
X24576Y35751D01*
X24608Y35823D01*
X24636Y35895D01*
X24657Y35967D01*
X24676Y36035D01*
X24692Y36104D01*
X24704Y36169D01*
X24711Y36229D01*
X24717Y36282D01*
X24723Y36328D01*
Y36369D01*
X24726Y36397D01*
Y36416D01*
Y36422D01*
X24723Y36528D01*
X24714Y36625D01*
X24701Y36718D01*
X24682Y36803D01*
X24660Y36881D01*
X24636Y36952D01*
X24611Y37018D01*
X24586Y37074D01*
X24561Y37127D01*
X24533Y37171D01*
X24511Y37208D01*
X24489Y37240D01*
X24470Y37261D01*
X24458Y37280D01*
X24448Y37289D01*
X24445Y37293D01*
X24392Y37346D01*
X24333Y37389D01*
X24277Y37430D01*
X24217Y37461D01*
X24158Y37489D01*
X24099Y37514D01*
X24043Y37533D01*
X23987Y37548D01*
X23937Y37561D01*
X23890Y37570D01*
X23846Y37576D01*
X23812Y37583D01*
X23781D01*
X23759Y37586D01*
D02*
G37*
G36*
X18845Y37580D02*
X18823D01*
X18776Y37576D01*
X18736Y37570D01*
X18692Y37558D01*
X18654Y37542D01*
X18583Y37505D01*
X18523Y37464D01*
X18498Y37442D01*
X18477Y37420D01*
X18458Y37399D01*
X18439Y37383D01*
X18427Y37367D01*
X18417Y37355D01*
X18414Y37349D01*
X18411Y37346D01*
X18380Y37296D01*
X18355Y37240D01*
X18333Y37171D01*
X18315Y37099D01*
X18299Y37024D01*
X18283Y36946D01*
X18264Y36787D01*
X18255Y36712D01*
X18252Y36640D01*
X18249Y36575D01*
X18246Y36519D01*
X18243Y36469D01*
Y36450D01*
Y36435D01*
Y36422D01*
Y36413D01*
Y36406D01*
Y36403D01*
X18246Y36275D01*
X18249Y36160D01*
X18258Y36054D01*
X18268Y35957D01*
X18280Y35870D01*
X18296Y35795D01*
X18311Y35726D01*
X18327Y35667D01*
X18342Y35617D01*
X18358Y35573D01*
X18371Y35536D01*
X18386Y35508D01*
X18396Y35486D01*
X18405Y35474D01*
X18408Y35464D01*
X18411Y35461D01*
X18442Y35421D01*
X18477Y35383D01*
X18511Y35352D01*
X18545Y35327D01*
X18580Y35302D01*
X18614Y35283D01*
X18645Y35268D01*
X18676Y35255D01*
X18733Y35240D01*
X18757Y35233D01*
X18779Y35230D01*
X18795D01*
X18811Y35227D01*
X18820D01*
X18864Y35230D01*
X18907Y35236D01*
X18948Y35249D01*
X18985Y35265D01*
X19057Y35299D01*
X19116Y35342D01*
X19163Y35386D01*
X19182Y35405D01*
X19197Y35421D01*
X19213Y35436D01*
X19222Y35449D01*
X19226Y35455D01*
X19229Y35458D01*
X19257Y35508D01*
X19282Y35567D01*
X19307Y35633D01*
X19325Y35704D01*
X19341Y35782D01*
X19353Y35860D01*
X19372Y36020D01*
X19381Y36094D01*
X19385Y36166D01*
X19388Y36232D01*
X19391Y36288D01*
X19394Y36335D01*
Y36356D01*
Y36372D01*
Y36385D01*
Y36394D01*
Y36400D01*
Y36403D01*
X19391Y36531D01*
X19385Y36647D01*
X19378Y36756D01*
X19366Y36853D01*
X19353Y36940D01*
X19338Y37021D01*
X19319Y37090D01*
X19304Y37152D01*
X19288Y37208D01*
X19269Y37252D01*
X19254Y37289D01*
X19241Y37321D01*
X19229Y37346D01*
X19219Y37361D01*
X19216Y37370D01*
X19213Y37374D01*
X19185Y37411D01*
X19154Y37442D01*
X19123Y37470D01*
X19091Y37492D01*
X19057Y37514D01*
X19026Y37530D01*
X18963Y37555D01*
X18907Y37570D01*
X18882Y37573D01*
X18864Y37576D01*
X18845Y37580D01*
D02*
G37*
G36*
X19959Y57580D02*
X19937D01*
X19896Y57576D01*
X19856Y57573D01*
X19815Y57564D01*
X19781Y57551D01*
X19712Y57523D01*
X19656Y57489D01*
X19609Y57455D01*
X19590Y57439D01*
X19575Y57427D01*
X19563Y57414D01*
X19553Y57408D01*
X19550Y57402D01*
X19547Y57399D01*
X19519Y57364D01*
X19494Y57327D01*
X19472Y57289D01*
X19453Y57249D01*
X19425Y57168D01*
X19403Y57093D01*
X19397Y57055D01*
X19394Y57024D01*
X19391Y56993D01*
X19388Y56968D01*
X19385Y56946D01*
Y56931D01*
Y56921D01*
Y56918D01*
X19388Y56862D01*
X19391Y56809D01*
X19400Y56762D01*
X19410Y56715D01*
X19422Y56672D01*
X19434Y56634D01*
X19450Y56597D01*
X19463Y56566D01*
X19478Y56537D01*
X19494Y56512D01*
X19506Y56491D01*
X19519Y56472D01*
X19528Y56459D01*
X19537Y56450D01*
X19541Y56444D01*
X19544Y56441D01*
X19575Y56413D01*
X19606Y56385D01*
X19640Y56363D01*
X19675Y56344D01*
X19740Y56313D01*
X19806Y56294D01*
X19862Y56282D01*
X19884Y56279D01*
X19906Y56275D01*
X19921Y56272D01*
X19946D01*
X19990Y56275D01*
X20034Y56279D01*
X20115Y56297D01*
X20183Y56325D01*
X20246Y56357D01*
X20271Y56372D01*
X20292Y56388D01*
X20311Y56403D01*
X20327Y56416D01*
X20343Y56425D01*
X20352Y56435D01*
X20355Y56438D01*
X20358Y56441D01*
X20386Y56475D01*
X20411Y56509D01*
X20433Y56547D01*
X20452Y56584D01*
X20480Y56656D01*
X20498Y56728D01*
X20511Y56790D01*
X20514Y56818D01*
X20517Y56840D01*
X20520Y56862D01*
Y56874D01*
Y56884D01*
Y56887D01*
X20517Y56943D01*
X20514Y56996D01*
X20492Y57093D01*
X20480Y57140D01*
X20467Y57180D01*
X20452Y57218D01*
X20433Y57252D01*
X20417Y57283D01*
X20402Y57308D01*
X20389Y57333D01*
X20377Y57352D01*
X20364Y57367D01*
X20355Y57377D01*
X20352Y57383D01*
X20349Y57386D01*
X20314Y57420D01*
X20280Y57449D01*
X20246Y57477D01*
X20211Y57498D01*
X20177Y57517D01*
X20143Y57533D01*
X20077Y57555D01*
X20021Y57570D01*
X19996Y57573D01*
X19977Y57576D01*
X19959Y57580D01*
D02*
G37*
G36*
X22648Y57586D02*
X22576D01*
X22523Y57580D01*
X22427Y57564D01*
X22339Y57539D01*
X22302Y57526D01*
X22264Y57514D01*
X22230Y57498D01*
X22202Y57486D01*
X22177Y57473D01*
X22155Y57461D01*
X22137Y57452D01*
X22124Y57445D01*
X22118Y57442D01*
X22115Y57439D01*
X22034Y57380D01*
X21965Y57314D01*
X21906Y57249D01*
X21856Y57183D01*
X21818Y57124D01*
X21803Y57099D01*
X21790Y57077D01*
X21781Y57059D01*
X21775Y57046D01*
X21768Y57037D01*
Y57034D01*
X21728Y56934D01*
X21697Y56831D01*
X21675Y56728D01*
X21662Y56631D01*
X21656Y56590D01*
X21653Y56550D01*
X21650Y56516D01*
Y56484D01*
X21647Y56459D01*
Y56441D01*
Y56428D01*
Y56425D01*
X21650Y56313D01*
X21662Y56210D01*
X21678Y56113D01*
X21700Y56023D01*
X21725Y55938D01*
X21753Y55864D01*
X21784Y55795D01*
X21815Y55736D01*
X21846Y55680D01*
X21878Y55633D01*
X21906Y55595D01*
X21930Y55561D01*
X21952Y55536D01*
X21968Y55520D01*
X21981Y55508D01*
X21984Y55505D01*
X22068Y55567D01*
X22158Y55623D01*
X22252Y55670D01*
X22336Y55711D01*
X22377Y55726D01*
X22414Y55739D01*
X22445Y55751D01*
X22473Y55761D01*
X22498Y55770D01*
X22514Y55776D01*
X22526Y55779D01*
X22530D01*
X22620Y55502D01*
X22548Y55480D01*
X22477Y55455D01*
X22414Y55427D01*
X22358Y55402D01*
X22311Y55377D01*
X22289Y55364D01*
X22274Y55355D01*
X22261Y55349D01*
X22252Y55343D01*
X22246Y55336D01*
X22242D01*
X22311Y55311D01*
X22380Y55293D01*
X22445Y55280D01*
X22505Y55271D01*
X22555Y55265D01*
X22576D01*
X22595Y55261D01*
X22629D01*
X22707Y55265D01*
X22782Y55274D01*
X22854Y55290D01*
X22923Y55308D01*
X22985Y55330D01*
X23041Y55355D01*
X23097Y55383D01*
X23144Y55411D01*
X23188Y55439D01*
X23228Y55467D01*
X23260Y55492D01*
X23288Y55514D01*
X23310Y55533D01*
X23325Y55548D01*
X23335Y55558D01*
X23338Y55561D01*
X23388Y55620D01*
X23428Y55683D01*
X23466Y55751D01*
X23497Y55823D01*
X23525Y55895D01*
X23547Y55967D01*
X23565Y56035D01*
X23581Y56104D01*
X23594Y56169D01*
X23600Y56229D01*
X23606Y56282D01*
X23612Y56328D01*
Y56369D01*
X23615Y56397D01*
Y56416D01*
Y56422D01*
X23612Y56528D01*
X23603Y56625D01*
X23590Y56718D01*
X23572Y56803D01*
X23550Y56881D01*
X23525Y56952D01*
X23500Y57018D01*
X23475Y57074D01*
X23450Y57127D01*
X23422Y57171D01*
X23400Y57208D01*
X23378Y57240D01*
X23359Y57261D01*
X23347Y57280D01*
X23338Y57289D01*
X23335Y57292D01*
X23281Y57346D01*
X23222Y57389D01*
X23166Y57430D01*
X23107Y57461D01*
X23047Y57489D01*
X22988Y57514D01*
X22932Y57533D01*
X22876Y57548D01*
X22826Y57561D01*
X22779Y57570D01*
X22736Y57576D01*
X22701Y57583D01*
X22670D01*
X22648Y57586D01*
D02*
G37*
G36*
X22645Y97586D02*
X22573D01*
X22520Y97580D01*
X22423Y97564D01*
X22336Y97539D01*
X22299Y97527D01*
X22261Y97514D01*
X22227Y97498D01*
X22199Y97486D01*
X22174Y97474D01*
X22152Y97461D01*
X22133Y97452D01*
X22121Y97445D01*
X22115Y97442D01*
X22111Y97439D01*
X22030Y97380D01*
X21962Y97314D01*
X21903Y97249D01*
X21853Y97183D01*
X21815Y97124D01*
X21800Y97099D01*
X21787Y97077D01*
X21778Y97058D01*
X21771Y97046D01*
X21765Y97037D01*
Y97034D01*
X21725Y96934D01*
X21693Y96831D01*
X21672Y96728D01*
X21659Y96631D01*
X21653Y96591D01*
X21650Y96550D01*
X21647Y96516D01*
Y96484D01*
X21644Y96460D01*
Y96441D01*
Y96428D01*
Y96425D01*
X21647Y96313D01*
X21659Y96210D01*
X21675Y96113D01*
X21697Y96023D01*
X21722Y95938D01*
X21750Y95864D01*
X21781Y95795D01*
X21812Y95736D01*
X21843Y95679D01*
X21874Y95633D01*
X21903Y95595D01*
X21927Y95561D01*
X21949Y95536D01*
X21965Y95520D01*
X21977Y95508D01*
X21981Y95505D01*
X22065Y95567D01*
X22155Y95623D01*
X22249Y95670D01*
X22333Y95711D01*
X22374Y95726D01*
X22411Y95739D01*
X22442Y95751D01*
X22470Y95761D01*
X22495Y95770D01*
X22511Y95776D01*
X22523Y95779D01*
X22526D01*
X22617Y95502D01*
X22545Y95480D01*
X22473Y95455D01*
X22411Y95427D01*
X22355Y95402D01*
X22308Y95377D01*
X22286Y95364D01*
X22271Y95355D01*
X22258Y95349D01*
X22249Y95342D01*
X22242Y95336D01*
X22239D01*
X22308Y95311D01*
X22377Y95293D01*
X22442Y95280D01*
X22501Y95271D01*
X22551Y95265D01*
X22573D01*
X22592Y95261D01*
X22626D01*
X22704Y95265D01*
X22779Y95274D01*
X22851Y95289D01*
X22920Y95308D01*
X22982Y95330D01*
X23038Y95355D01*
X23094Y95383D01*
X23141Y95411D01*
X23185Y95439D01*
X23225Y95467D01*
X23257Y95492D01*
X23285Y95514D01*
X23306Y95533D01*
X23322Y95548D01*
X23331Y95558D01*
X23335Y95561D01*
X23384Y95620D01*
X23425Y95683D01*
X23462Y95751D01*
X23494Y95823D01*
X23522Y95895D01*
X23544Y95967D01*
X23562Y96035D01*
X23578Y96104D01*
X23590Y96169D01*
X23597Y96229D01*
X23603Y96282D01*
X23609Y96328D01*
Y96369D01*
X23612Y96397D01*
Y96416D01*
Y96422D01*
X23609Y96528D01*
X23600Y96625D01*
X23587Y96718D01*
X23569Y96803D01*
X23547Y96881D01*
X23522Y96952D01*
X23497Y97018D01*
X23472Y97074D01*
X23447Y97127D01*
X23419Y97171D01*
X23397Y97208D01*
X23375Y97240D01*
X23356Y97261D01*
X23344Y97280D01*
X23335Y97289D01*
X23331Y97293D01*
X23278Y97346D01*
X23219Y97389D01*
X23163Y97430D01*
X23104Y97461D01*
X23044Y97489D01*
X22985Y97514D01*
X22929Y97533D01*
X22873Y97548D01*
X22823Y97561D01*
X22776Y97570D01*
X22732Y97576D01*
X22698Y97583D01*
X22667D01*
X22645Y97586D01*
D02*
G37*
G36*
X19742Y77296D02*
Y75998D01*
X20650D01*
X19742Y77296D01*
D02*
G37*
G36*
X22640Y77586D02*
X22569D01*
X22515Y77580D01*
X22419Y77564D01*
X22332Y77539D01*
X22294Y77526D01*
X22257Y77514D01*
X22222Y77498D01*
X22194Y77486D01*
X22169Y77473D01*
X22147Y77461D01*
X22129Y77452D01*
X22116Y77445D01*
X22110Y77442D01*
X22107Y77439D01*
X22026Y77380D01*
X21957Y77314D01*
X21898Y77249D01*
X21848Y77183D01*
X21810Y77124D01*
X21795Y77099D01*
X21782Y77077D01*
X21773Y77059D01*
X21767Y77046D01*
X21760Y77037D01*
Y77034D01*
X21720Y76934D01*
X21689Y76831D01*
X21667Y76728D01*
X21654Y76631D01*
X21648Y76591D01*
X21645Y76550D01*
X21642Y76516D01*
Y76484D01*
X21639Y76459D01*
Y76441D01*
Y76428D01*
Y76425D01*
X21642Y76313D01*
X21654Y76210D01*
X21670Y76113D01*
X21692Y76023D01*
X21717Y75938D01*
X21745Y75864D01*
X21776Y75795D01*
X21807Y75736D01*
X21838Y75679D01*
X21870Y75633D01*
X21898Y75595D01*
X21923Y75561D01*
X21945Y75536D01*
X21960Y75520D01*
X21973Y75508D01*
X21976Y75505D01*
X22060Y75567D01*
X22151Y75623D01*
X22244Y75670D01*
X22328Y75711D01*
X22369Y75726D01*
X22406Y75739D01*
X22437Y75751D01*
X22466Y75761D01*
X22491Y75770D01*
X22506Y75776D01*
X22519Y75779D01*
X22522D01*
X22612Y75502D01*
X22540Y75480D01*
X22469Y75455D01*
X22406Y75427D01*
X22350Y75402D01*
X22303Y75377D01*
X22282Y75364D01*
X22266Y75355D01*
X22253Y75349D01*
X22244Y75343D01*
X22238Y75336D01*
X22235D01*
X22303Y75311D01*
X22372Y75293D01*
X22437Y75280D01*
X22497Y75271D01*
X22547Y75265D01*
X22569D01*
X22587Y75261D01*
X22622D01*
X22700Y75265D01*
X22774Y75274D01*
X22846Y75289D01*
X22915Y75308D01*
X22977Y75330D01*
X23033Y75355D01*
X23090Y75383D01*
X23136Y75411D01*
X23180Y75439D01*
X23221Y75467D01*
X23252Y75492D01*
X23280Y75514D01*
X23302Y75533D01*
X23317Y75548D01*
X23327Y75558D01*
X23330Y75561D01*
X23380Y75620D01*
X23420Y75683D01*
X23458Y75751D01*
X23489Y75823D01*
X23517Y75895D01*
X23539Y75967D01*
X23558Y76035D01*
X23573Y76104D01*
X23586Y76169D01*
X23592Y76229D01*
X23598Y76282D01*
X23604Y76328D01*
Y76369D01*
X23607Y76397D01*
Y76416D01*
Y76422D01*
X23604Y76528D01*
X23595Y76625D01*
X23583Y76718D01*
X23564Y76803D01*
X23542Y76881D01*
X23517Y76952D01*
X23492Y77018D01*
X23467Y77074D01*
X23442Y77127D01*
X23414Y77171D01*
X23392Y77208D01*
X23370Y77240D01*
X23352Y77261D01*
X23339Y77280D01*
X23330Y77289D01*
X23327Y77293D01*
X23274Y77346D01*
X23214Y77389D01*
X23158Y77430D01*
X23099Y77461D01*
X23040Y77489D01*
X22980Y77514D01*
X22924Y77533D01*
X22868Y77548D01*
X22818Y77561D01*
X22771Y77570D01*
X22728Y77576D01*
X22693Y77583D01*
X22662D01*
X22640Y77586D01*
D02*
G37*
G36*
X22631Y117586D02*
X22559D01*
X22506Y117580D01*
X22410Y117564D01*
X22322Y117539D01*
X22285Y117526D01*
X22247Y117514D01*
X22213Y117498D01*
X22185Y117486D01*
X22160Y117473D01*
X22138Y117461D01*
X22119Y117452D01*
X22107Y117445D01*
X22101Y117442D01*
X22097Y117439D01*
X22016Y117380D01*
X21948Y117314D01*
X21888Y117249D01*
X21838Y117183D01*
X21801Y117124D01*
X21786Y117099D01*
X21773Y117077D01*
X21764Y117059D01*
X21757Y117046D01*
X21751Y117037D01*
Y117034D01*
X21711Y116934D01*
X21679Y116831D01*
X21657Y116728D01*
X21645Y116631D01*
X21639Y116590D01*
X21636Y116550D01*
X21633Y116516D01*
Y116484D01*
X21630Y116460D01*
Y116441D01*
Y116428D01*
Y116425D01*
X21633Y116313D01*
X21645Y116210D01*
X21661Y116113D01*
X21682Y116023D01*
X21708Y115938D01*
X21735Y115864D01*
X21767Y115795D01*
X21798Y115736D01*
X21829Y115680D01*
X21860Y115633D01*
X21888Y115595D01*
X21913Y115561D01*
X21935Y115536D01*
X21951Y115520D01*
X21963Y115508D01*
X21966Y115505D01*
X22051Y115567D01*
X22141Y115623D01*
X22235Y115670D01*
X22319Y115711D01*
X22359Y115726D01*
X22397Y115739D01*
X22428Y115751D01*
X22456Y115761D01*
X22481Y115770D01*
X22497Y115776D01*
X22509Y115779D01*
X22512D01*
X22603Y115502D01*
X22531Y115480D01*
X22459Y115455D01*
X22397Y115427D01*
X22341Y115402D01*
X22294Y115377D01*
X22272Y115364D01*
X22257Y115355D01*
X22244Y115349D01*
X22235Y115342D01*
X22229Y115336D01*
X22225D01*
X22294Y115311D01*
X22363Y115293D01*
X22428Y115280D01*
X22488Y115271D01*
X22537Y115264D01*
X22559D01*
X22578Y115261D01*
X22612D01*
X22690Y115264D01*
X22765Y115274D01*
X22837Y115289D01*
X22906Y115308D01*
X22968Y115330D01*
X23024Y115355D01*
X23080Y115383D01*
X23127Y115411D01*
X23171Y115439D01*
X23211Y115467D01*
X23243Y115492D01*
X23271Y115514D01*
X23292Y115533D01*
X23308Y115548D01*
X23317Y115558D01*
X23321Y115561D01*
X23370Y115620D01*
X23411Y115683D01*
X23448Y115751D01*
X23480Y115823D01*
X23508Y115895D01*
X23529Y115966D01*
X23548Y116035D01*
X23564Y116104D01*
X23576Y116169D01*
X23583Y116229D01*
X23589Y116282D01*
X23595Y116328D01*
Y116369D01*
X23598Y116397D01*
Y116416D01*
Y116422D01*
X23595Y116528D01*
X23586Y116625D01*
X23573Y116718D01*
X23554Y116803D01*
X23533Y116881D01*
X23508Y116952D01*
X23483Y117018D01*
X23458Y117074D01*
X23433Y117127D01*
X23405Y117171D01*
X23383Y117208D01*
X23361Y117239D01*
X23342Y117261D01*
X23330Y117280D01*
X23321Y117289D01*
X23317Y117292D01*
X23264Y117346D01*
X23205Y117389D01*
X23149Y117430D01*
X23090Y117461D01*
X23030Y117489D01*
X22971Y117514D01*
X22915Y117533D01*
X22859Y117548D01*
X22809Y117561D01*
X22762Y117570D01*
X22718Y117576D01*
X22684Y117583D01*
X22653D01*
X22631Y117586D01*
D02*
G37*
G36*
X23486Y17586D02*
X23414D01*
X23361Y17580D01*
X23264Y17564D01*
X23177Y17539D01*
X23140Y17526D01*
X23102Y17514D01*
X23068Y17498D01*
X23040Y17486D01*
X23015Y17473D01*
X22993Y17461D01*
X22974Y17452D01*
X22962Y17445D01*
X22955Y17442D01*
X22952Y17439D01*
X22871Y17380D01*
X22803Y17314D01*
X22743Y17249D01*
X22693Y17183D01*
X22656Y17124D01*
X22640Y17099D01*
X22628Y17077D01*
X22618Y17059D01*
X22612Y17046D01*
X22606Y17037D01*
Y17034D01*
X22566Y16934D01*
X22534Y16831D01*
X22512Y16728D01*
X22500Y16631D01*
X22494Y16590D01*
X22491Y16550D01*
X22488Y16516D01*
Y16484D01*
X22484Y16459D01*
Y16441D01*
Y16428D01*
Y16425D01*
X22488Y16313D01*
X22500Y16210D01*
X22515Y16113D01*
X22537Y16023D01*
X22562Y15938D01*
X22590Y15864D01*
X22622Y15795D01*
X22653Y15736D01*
X22684Y15679D01*
X22715Y15633D01*
X22743Y15595D01*
X22768Y15561D01*
X22790Y15536D01*
X22806Y15520D01*
X22818Y15508D01*
X22821Y15505D01*
X22906Y15567D01*
X22996Y15623D01*
X23090Y15670D01*
X23174Y15711D01*
X23214Y15726D01*
X23252Y15739D01*
X23283Y15751D01*
X23311Y15761D01*
X23336Y15770D01*
X23352Y15776D01*
X23364Y15779D01*
X23367D01*
X23458Y15502D01*
X23386Y15480D01*
X23314Y15455D01*
X23252Y15427D01*
X23196Y15402D01*
X23149Y15377D01*
X23127Y15364D01*
X23111Y15355D01*
X23099Y15349D01*
X23090Y15342D01*
X23083Y15336D01*
X23080D01*
X23149Y15311D01*
X23217Y15293D01*
X23283Y15280D01*
X23342Y15271D01*
X23392Y15265D01*
X23414D01*
X23433Y15261D01*
X23467D01*
X23545Y15265D01*
X23620Y15274D01*
X23692Y15290D01*
X23760Y15308D01*
X23823Y15330D01*
X23879Y15355D01*
X23935Y15383D01*
X23982Y15411D01*
X24026Y15439D01*
X24066Y15467D01*
X24097Y15492D01*
X24126Y15514D01*
X24147Y15533D01*
X24163Y15548D01*
X24172Y15558D01*
X24175Y15561D01*
X24225Y15620D01*
X24266Y15683D01*
X24303Y15751D01*
X24335Y15823D01*
X24363Y15895D01*
X24384Y15967D01*
X24403Y16035D01*
X24419Y16104D01*
X24431Y16169D01*
X24438Y16229D01*
X24444Y16282D01*
X24450Y16328D01*
Y16369D01*
X24453Y16397D01*
Y16416D01*
Y16422D01*
X24450Y16528D01*
X24441Y16625D01*
X24428Y16718D01*
X24409Y16803D01*
X24387Y16881D01*
X24363Y16952D01*
X24338Y17018D01*
X24313Y17074D01*
X24288Y17127D01*
X24260Y17171D01*
X24238Y17208D01*
X24216Y17240D01*
X24197Y17261D01*
X24185Y17280D01*
X24175Y17289D01*
X24172Y17292D01*
X24119Y17346D01*
X24060Y17389D01*
X24004Y17430D01*
X23945Y17461D01*
X23885Y17489D01*
X23826Y17514D01*
X23770Y17533D01*
X23714Y17548D01*
X23664Y17561D01*
X23617Y17570D01*
X23573Y17576D01*
X23539Y17583D01*
X23508D01*
X23486Y17586D01*
D02*
G37*
G36*
X47901Y55090D02*
X47883D01*
X47870D01*
X47867D01*
X47755Y55087D01*
X47652Y55074D01*
X47555Y55059D01*
X47464Y55037D01*
X47380Y55012D01*
X47305Y54984D01*
X47237Y54953D01*
X47177Y54921D01*
X47121Y54890D01*
X47074Y54859D01*
X47037Y54831D01*
X47003Y54806D01*
X46978Y54784D01*
X46962Y54768D01*
X46950Y54756D01*
X46946Y54753D01*
X47009Y54669D01*
X47065Y54578D01*
X47112Y54484D01*
X47152Y54400D01*
X47168Y54360D01*
X47181Y54322D01*
X47193Y54291D01*
X47202Y54263D01*
X47212Y54238D01*
X47218Y54222D01*
X47221Y54210D01*
Y54207D01*
X46943Y54116D01*
X46922Y54188D01*
X46897Y54260D01*
X46869Y54322D01*
X46843Y54378D01*
X46819Y54425D01*
X46806Y54447D01*
X46797Y54463D01*
X46791Y54475D01*
X46784Y54484D01*
X46778Y54491D01*
Y54494D01*
X46753Y54425D01*
X46734Y54357D01*
X46722Y54291D01*
X46712Y54232D01*
X46706Y54182D01*
Y54160D01*
X46703Y54141D01*
Y54107D01*
X46706Y54029D01*
X46716Y53954D01*
X46731Y53882D01*
X46750Y53814D01*
X46772Y53751D01*
X46797Y53695D01*
X46825Y53639D01*
X46853Y53592D01*
X46881Y53549D01*
X46909Y53508D01*
X46934Y53477D01*
X46956Y53449D01*
X46975Y53427D01*
X46990Y53411D01*
X46999Y53402D01*
X47003Y53399D01*
X47062Y53349D01*
X47124Y53308D01*
X47193Y53271D01*
X47265Y53240D01*
X47337Y53211D01*
X47408Y53190D01*
X47477Y53171D01*
X47545Y53155D01*
X47611Y53143D01*
X47670Y53137D01*
X47723Y53130D01*
X47770Y53124D01*
X47811D01*
X47839Y53121D01*
X47857D01*
X47864D01*
X47970Y53124D01*
X48067Y53134D01*
X48160Y53146D01*
X48244Y53165D01*
X48322Y53187D01*
X48394Y53211D01*
X48460Y53237D01*
X48516Y53262D01*
X48569Y53286D01*
X48613Y53315D01*
X48650Y53336D01*
X48681Y53358D01*
X48703Y53377D01*
X48722Y53389D01*
X48731Y53399D01*
X48734Y53402D01*
X48787Y53455D01*
X48831Y53514D01*
X48872Y53570D01*
X48903Y53630D01*
X48931Y53689D01*
X48956Y53748D01*
X48974Y53804D01*
X48990Y53860D01*
X49003Y53910D01*
X49012Y53957D01*
X49018Y54001D01*
X49024Y54035D01*
Y54066D01*
X49028Y54088D01*
Y54160D01*
X49021Y54213D01*
X49006Y54310D01*
X48981Y54397D01*
X48968Y54435D01*
X48956Y54472D01*
X48940Y54506D01*
X48928Y54534D01*
X48915Y54559D01*
X48903Y54581D01*
X48893Y54600D01*
X48887Y54612D01*
X48884Y54619D01*
X48881Y54622D01*
X48822Y54703D01*
X48756Y54772D01*
X48691Y54831D01*
X48625Y54881D01*
X48566Y54918D01*
X48541Y54934D01*
X48519Y54946D01*
X48500Y54956D01*
X48488Y54962D01*
X48478Y54968D01*
X48475D01*
X48375Y55009D01*
X48272Y55040D01*
X48169Y55062D01*
X48073Y55074D01*
X48032Y55080D01*
X47992Y55084D01*
X47957Y55087D01*
X47926D01*
X47901Y55090D01*
D02*
G37*
G36*
Y35076D02*
X47883D01*
X47870D01*
X47867D01*
X47755Y35073D01*
X47652Y35060D01*
X47555Y35045D01*
X47464Y35023D01*
X47380Y34998D01*
X47305Y34970D01*
X47237Y34938D01*
X47177Y34907D01*
X47121Y34876D01*
X47074Y34845D01*
X47037Y34817D01*
X47003Y34792D01*
X46978Y34770D01*
X46962Y34754D01*
X46950Y34742D01*
X46946Y34739D01*
X47009Y34655D01*
X47065Y34564D01*
X47112Y34470D01*
X47152Y34386D01*
X47168Y34346D01*
X47181Y34308D01*
X47193Y34277D01*
X47202Y34249D01*
X47212Y34224D01*
X47218Y34208D01*
X47221Y34196D01*
Y34193D01*
X46943Y34102D01*
X46922Y34174D01*
X46897Y34246D01*
X46869Y34308D01*
X46843Y34364D01*
X46819Y34411D01*
X46806Y34433D01*
X46797Y34449D01*
X46791Y34461D01*
X46784Y34470D01*
X46778Y34477D01*
Y34480D01*
X46753Y34411D01*
X46734Y34343D01*
X46722Y34277D01*
X46712Y34218D01*
X46706Y34168D01*
Y34146D01*
X46703Y34127D01*
Y34093D01*
X46706Y34015D01*
X46716Y33940D01*
X46731Y33868D01*
X46750Y33800D01*
X46772Y33737D01*
X46797Y33681D01*
X46825Y33625D01*
X46853Y33578D01*
X46881Y33535D01*
X46909Y33494D01*
X46934Y33463D01*
X46956Y33435D01*
X46975Y33413D01*
X46990Y33397D01*
X46999Y33388D01*
X47003Y33385D01*
X47062Y33335D01*
X47124Y33294D01*
X47193Y33257D01*
X47265Y33226D01*
X47337Y33198D01*
X47408Y33176D01*
X47477Y33157D01*
X47545Y33141D01*
X47611Y33129D01*
X47670Y33123D01*
X47723Y33116D01*
X47770Y33110D01*
X47811D01*
X47839Y33107D01*
X47857D01*
X47864D01*
X47970Y33110D01*
X48067Y33119D01*
X48160Y33132D01*
X48244Y33151D01*
X48322Y33173D01*
X48394Y33198D01*
X48460Y33222D01*
X48516Y33247D01*
X48569Y33272D01*
X48613Y33301D01*
X48650Y33322D01*
X48681Y33344D01*
X48703Y33363D01*
X48722Y33375D01*
X48731Y33385D01*
X48734Y33388D01*
X48787Y33441D01*
X48831Y33500D01*
X48872Y33556D01*
X48903Y33616D01*
X48931Y33675D01*
X48956Y33734D01*
X48974Y33790D01*
X48990Y33847D01*
X49003Y33896D01*
X49012Y33943D01*
X49018Y33987D01*
X49024Y34021D01*
Y34052D01*
X49028Y34074D01*
Y34146D01*
X49021Y34199D01*
X49006Y34296D01*
X48981Y34383D01*
X48968Y34420D01*
X48956Y34458D01*
X48940Y34492D01*
X48928Y34520D01*
X48915Y34545D01*
X48903Y34567D01*
X48893Y34586D01*
X48887Y34598D01*
X48884Y34605D01*
X48881Y34608D01*
X48822Y34689D01*
X48756Y34758D01*
X48691Y34817D01*
X48625Y34867D01*
X48566Y34904D01*
X48541Y34920D01*
X48519Y34932D01*
X48500Y34942D01*
X48488Y34948D01*
X48478Y34954D01*
X48475D01*
X48375Y34995D01*
X48272Y35026D01*
X48169Y35048D01*
X48073Y35060D01*
X48032Y35066D01*
X47992Y35070D01*
X47957Y35073D01*
X47926D01*
X47901Y35076D01*
D02*
G37*
G36*
X48737Y19214D02*
X47440D01*
Y18306D01*
X48737Y19214D01*
D02*
G37*
G36*
X47901Y15080D02*
X47883D01*
X47870D01*
X47867D01*
X47755Y15077D01*
X47652Y15065D01*
X47555Y15049D01*
X47464Y15027D01*
X47380Y15002D01*
X47305Y14974D01*
X47237Y14943D01*
X47177Y14912D01*
X47121Y14881D01*
X47074Y14850D01*
X47037Y14821D01*
X47003Y14796D01*
X46978Y14775D01*
X46962Y14759D01*
X46950Y14747D01*
X46946Y14743D01*
X47009Y14659D01*
X47065Y14569D01*
X47112Y14475D01*
X47152Y14391D01*
X47168Y14350D01*
X47181Y14313D01*
X47193Y14282D01*
X47202Y14254D01*
X47212Y14229D01*
X47218Y14213D01*
X47221Y14201D01*
Y14198D01*
X46943Y14107D01*
X46922Y14179D01*
X46897Y14251D01*
X46869Y14313D01*
X46843Y14369D01*
X46819Y14416D01*
X46806Y14438D01*
X46797Y14453D01*
X46791Y14466D01*
X46784Y14475D01*
X46778Y14481D01*
Y14484D01*
X46753Y14416D01*
X46734Y14347D01*
X46722Y14282D01*
X46712Y14222D01*
X46706Y14173D01*
Y14151D01*
X46703Y14132D01*
Y14098D01*
X46706Y14020D01*
X46716Y13945D01*
X46731Y13873D01*
X46750Y13804D01*
X46772Y13742D01*
X46797Y13686D01*
X46825Y13630D01*
X46853Y13583D01*
X46881Y13539D01*
X46909Y13499D01*
X46934Y13467D01*
X46956Y13439D01*
X46975Y13418D01*
X46990Y13402D01*
X46999Y13393D01*
X47003Y13389D01*
X47062Y13340D01*
X47124Y13299D01*
X47193Y13262D01*
X47265Y13230D01*
X47337Y13202D01*
X47408Y13180D01*
X47477Y13162D01*
X47545Y13146D01*
X47611Y13134D01*
X47670Y13127D01*
X47723Y13121D01*
X47770Y13115D01*
X47811D01*
X47839Y13112D01*
X47857D01*
X47864D01*
X47970Y13115D01*
X48067Y13124D01*
X48160Y13137D01*
X48244Y13155D01*
X48322Y13177D01*
X48394Y13202D01*
X48460Y13227D01*
X48516Y13252D01*
X48569Y13277D01*
X48613Y13305D01*
X48650Y13327D01*
X48681Y13349D01*
X48703Y13367D01*
X48722Y13380D01*
X48731Y13389D01*
X48734Y13393D01*
X48787Y13446D01*
X48831Y13505D01*
X48872Y13561D01*
X48903Y13620D01*
X48931Y13680D01*
X48956Y13739D01*
X48974Y13795D01*
X48990Y13851D01*
X49003Y13901D01*
X49012Y13948D01*
X49018Y13992D01*
X49024Y14026D01*
Y14057D01*
X49028Y14079D01*
Y14151D01*
X49021Y14204D01*
X49006Y14300D01*
X48981Y14388D01*
X48968Y14425D01*
X48956Y14463D01*
X48940Y14497D01*
X48928Y14525D01*
X48915Y14550D01*
X48903Y14572D01*
X48893Y14591D01*
X48887Y14603D01*
X48884Y14609D01*
X48881Y14612D01*
X48822Y14694D01*
X48756Y14762D01*
X48691Y14821D01*
X48625Y14871D01*
X48566Y14909D01*
X48541Y14924D01*
X48519Y14937D01*
X48500Y14946D01*
X48488Y14953D01*
X48478Y14959D01*
X48475D01*
X48375Y14999D01*
X48272Y15031D01*
X48169Y15052D01*
X48073Y15065D01*
X48032Y15071D01*
X47992Y15074D01*
X47957Y15077D01*
X47926D01*
X47901Y15080D01*
D02*
G37*
G36*
Y135845D02*
X47883D01*
X47870D01*
X47867D01*
X47755Y135842D01*
X47652Y135830D01*
X47555Y135814D01*
X47464Y135792D01*
X47380Y135767D01*
X47305Y135739D01*
X47237Y135708D01*
X47177Y135677D01*
X47121Y135646D01*
X47074Y135614D01*
X47037Y135586D01*
X47003Y135561D01*
X46978Y135539D01*
X46962Y135524D01*
X46950Y135511D01*
X46946Y135508D01*
X47009Y135424D01*
X47065Y135334D01*
X47112Y135240D01*
X47152Y135156D01*
X47168Y135115D01*
X47181Y135078D01*
X47193Y135047D01*
X47202Y135018D01*
X47212Y134994D01*
X47218Y134978D01*
X47221Y134965D01*
Y134962D01*
X46943Y134872D01*
X46922Y134944D01*
X46897Y135015D01*
X46869Y135078D01*
X46843Y135134D01*
X46819Y135181D01*
X46806Y135203D01*
X46797Y135218D01*
X46791Y135231D01*
X46784Y135240D01*
X46778Y135246D01*
Y135249D01*
X46753Y135181D01*
X46734Y135112D01*
X46722Y135047D01*
X46712Y134987D01*
X46706Y134937D01*
Y134915D01*
X46703Y134897D01*
Y134862D01*
X46706Y134784D01*
X46716Y134710D01*
X46731Y134638D01*
X46750Y134569D01*
X46772Y134507D01*
X46797Y134451D01*
X46825Y134394D01*
X46853Y134348D01*
X46881Y134304D01*
X46909Y134263D01*
X46934Y134232D01*
X46956Y134204D01*
X46975Y134182D01*
X46990Y134167D01*
X46999Y134157D01*
X47003Y134154D01*
X47062Y134104D01*
X47124Y134064D01*
X47193Y134026D01*
X47265Y133995D01*
X47337Y133967D01*
X47408Y133945D01*
X47477Y133926D01*
X47545Y133911D01*
X47611Y133898D01*
X47670Y133892D01*
X47723Y133886D01*
X47770Y133880D01*
X47811D01*
X47839Y133877D01*
X47857D01*
X47864D01*
X47970Y133880D01*
X48067Y133889D01*
X48160Y133902D01*
X48244Y133920D01*
X48322Y133942D01*
X48394Y133967D01*
X48460Y133992D01*
X48516Y134017D01*
X48569Y134042D01*
X48613Y134070D01*
X48650Y134092D01*
X48681Y134114D01*
X48703Y134132D01*
X48722Y134145D01*
X48731Y134154D01*
X48734Y134157D01*
X48787Y134210D01*
X48831Y134270D01*
X48872Y134326D01*
X48903Y134385D01*
X48931Y134444D01*
X48956Y134504D01*
X48974Y134560D01*
X48990Y134616D01*
X49003Y134666D01*
X49012Y134713D01*
X49018Y134756D01*
X49024Y134791D01*
Y134822D01*
X49028Y134844D01*
Y134915D01*
X49021Y134968D01*
X49006Y135065D01*
X48981Y135153D01*
X48968Y135190D01*
X48956Y135228D01*
X48940Y135262D01*
X48928Y135290D01*
X48915Y135315D01*
X48903Y135337D01*
X48893Y135355D01*
X48887Y135368D01*
X48884Y135374D01*
X48881Y135377D01*
X48822Y135458D01*
X48756Y135527D01*
X48691Y135586D01*
X48625Y135636D01*
X48566Y135674D01*
X48541Y135689D01*
X48519Y135702D01*
X48500Y135711D01*
X48488Y135717D01*
X48478Y135724D01*
X48475D01*
X48375Y135764D01*
X48272Y135795D01*
X48169Y135817D01*
X48073Y135830D01*
X48032Y135836D01*
X47992Y135839D01*
X47957Y135842D01*
X47926D01*
X47901Y135845D01*
D02*
G37*
G36*
Y96194D02*
X47883D01*
X47870D01*
X47867D01*
X47755Y96191D01*
X47652Y96179D01*
X47555Y96163D01*
X47464Y96141D01*
X47380Y96116D01*
X47305Y96088D01*
X47237Y96057D01*
X47177Y96026D01*
X47121Y95995D01*
X47074Y95963D01*
X47037Y95935D01*
X47003Y95910D01*
X46978Y95889D01*
X46962Y95873D01*
X46950Y95860D01*
X46946Y95857D01*
X47009Y95773D01*
X47065Y95683D01*
X47112Y95589D01*
X47152Y95505D01*
X47168Y95464D01*
X47181Y95427D01*
X47193Y95396D01*
X47202Y95367D01*
X47212Y95342D01*
X47218Y95327D01*
X47221Y95314D01*
Y95311D01*
X46943Y95221D01*
X46922Y95293D01*
X46897Y95364D01*
X46869Y95427D01*
X46843Y95483D01*
X46819Y95530D01*
X46806Y95552D01*
X46797Y95567D01*
X46791Y95580D01*
X46784Y95589D01*
X46778Y95595D01*
Y95598D01*
X46753Y95530D01*
X46734Y95461D01*
X46722Y95396D01*
X46712Y95336D01*
X46706Y95286D01*
Y95265D01*
X46703Y95246D01*
Y95211D01*
X46706Y95134D01*
X46716Y95059D01*
X46731Y94987D01*
X46750Y94918D01*
X46772Y94856D01*
X46797Y94800D01*
X46825Y94744D01*
X46853Y94697D01*
X46881Y94653D01*
X46909Y94612D01*
X46934Y94581D01*
X46956Y94553D01*
X46975Y94531D01*
X46990Y94516D01*
X46999Y94506D01*
X47003Y94503D01*
X47062Y94453D01*
X47124Y94413D01*
X47193Y94375D01*
X47265Y94344D01*
X47337Y94316D01*
X47408Y94294D01*
X47477Y94275D01*
X47545Y94260D01*
X47611Y94247D01*
X47670Y94241D01*
X47723Y94235D01*
X47770Y94229D01*
X47811D01*
X47839Y94226D01*
X47857D01*
X47864D01*
X47970Y94229D01*
X48067Y94238D01*
X48160Y94251D01*
X48244Y94269D01*
X48322Y94291D01*
X48394Y94316D01*
X48460Y94341D01*
X48516Y94366D01*
X48569Y94391D01*
X48613Y94419D01*
X48650Y94441D01*
X48681Y94463D01*
X48703Y94481D01*
X48722Y94494D01*
X48731Y94503D01*
X48734Y94506D01*
X48787Y94559D01*
X48831Y94619D01*
X48872Y94675D01*
X48903Y94734D01*
X48931Y94793D01*
X48956Y94853D01*
X48974Y94909D01*
X48990Y94965D01*
X49003Y95015D01*
X49012Y95062D01*
X49018Y95105D01*
X49024Y95140D01*
Y95171D01*
X49028Y95193D01*
Y95265D01*
X49021Y95318D01*
X49006Y95414D01*
X48981Y95502D01*
X48968Y95539D01*
X48956Y95577D01*
X48940Y95611D01*
X48928Y95639D01*
X48915Y95664D01*
X48903Y95686D01*
X48893Y95704D01*
X48887Y95717D01*
X48884Y95723D01*
X48881Y95726D01*
X48822Y95807D01*
X48756Y95876D01*
X48691Y95935D01*
X48625Y95985D01*
X48566Y96023D01*
X48541Y96038D01*
X48519Y96051D01*
X48500Y96060D01*
X48488Y96066D01*
X48478Y96073D01*
X48475D01*
X48375Y96113D01*
X48272Y96144D01*
X48169Y96166D01*
X48073Y96179D01*
X48032Y96185D01*
X47992Y96188D01*
X47957Y96191D01*
X47926D01*
X47901Y96194D01*
D02*
G37*
G36*
X48581Y78366D02*
X48572D01*
X48566D01*
X48563D01*
X48497Y78360D01*
X48438Y78344D01*
X48382Y78325D01*
X48338Y78300D01*
X48301Y78275D01*
X48272Y78257D01*
X48257Y78241D01*
X48251Y78235D01*
X48207Y78182D01*
X48176Y78126D01*
X48154Y78069D01*
X48138Y78016D01*
X48129Y77970D01*
X48126Y77951D01*
Y77932D01*
X48123Y77917D01*
Y77898D01*
X48129Y77823D01*
X48142Y77754D01*
X48163Y77695D01*
X48188Y77648D01*
X48210Y77608D01*
X48232Y77579D01*
X48244Y77561D01*
X48251Y77555D01*
X48301Y77511D01*
X48357Y77480D01*
X48413Y77458D01*
X48466Y77442D01*
X48513Y77433D01*
X48531Y77430D01*
X48550D01*
X48566Y77427D01*
X48575D01*
X48581D01*
X48584D01*
X48650Y77433D01*
X48709Y77448D01*
X48762Y77467D01*
X48806Y77492D01*
X48844Y77517D01*
X48872Y77536D01*
X48887Y77552D01*
X48893Y77558D01*
X48937Y77611D01*
X48968Y77667D01*
X48993Y77723D01*
X49009Y77776D01*
X49018Y77823D01*
X49021Y77845D01*
Y77860D01*
X49024Y77876D01*
Y77932D01*
X49018Y77966D01*
X49003Y78032D01*
X48981Y78091D01*
X48959Y78138D01*
X48934Y78179D01*
X48912Y78207D01*
X48897Y78225D01*
X48893Y78232D01*
X48890D01*
X48865Y78257D01*
X48837Y78275D01*
X48784Y78310D01*
X48728Y78335D01*
X48678Y78350D01*
X48631Y78360D01*
X48597Y78363D01*
X48581Y78366D01*
D02*
G37*
G36*
X47268Y78484D02*
X47255D01*
X47246D01*
X47243D01*
X47196Y78481D01*
X47152Y78478D01*
X47074Y78459D01*
X47003Y78431D01*
X46943Y78403D01*
X46918Y78388D01*
X46897Y78372D01*
X46878Y78356D01*
X46859Y78344D01*
X46847Y78335D01*
X46837Y78325D01*
X46834Y78322D01*
X46831Y78319D01*
X46803Y78288D01*
X46778Y78254D01*
X46756Y78219D01*
X46738Y78185D01*
X46709Y78113D01*
X46691Y78048D01*
X46678Y77988D01*
X46675Y77963D01*
X46672Y77942D01*
X46669Y77923D01*
Y77898D01*
X46672Y77838D01*
X46681Y77782D01*
X46694Y77729D01*
X46706Y77686D01*
X46719Y77645D01*
X46731Y77617D01*
X46741Y77598D01*
X46744Y77595D01*
Y77592D01*
X46775Y77542D01*
X46812Y77498D01*
X46847Y77464D01*
X46881Y77433D01*
X46912Y77411D01*
X46940Y77392D01*
X46956Y77383D01*
X46962Y77380D01*
X47015Y77358D01*
X47068Y77339D01*
X47118Y77327D01*
X47162Y77321D01*
X47199Y77314D01*
X47230Y77311D01*
X47249D01*
X47252D01*
X47255D01*
X47302Y77314D01*
X47343Y77318D01*
X47424Y77336D01*
X47496Y77361D01*
X47555Y77392D01*
X47580Y77408D01*
X47602Y77424D01*
X47620Y77436D01*
X47639Y77448D01*
X47652Y77458D01*
X47661Y77467D01*
X47664Y77470D01*
X47667Y77473D01*
X47695Y77505D01*
X47723Y77539D01*
X47745Y77573D01*
X47764Y77608D01*
X47792Y77676D01*
X47811Y77742D01*
X47823Y77801D01*
X47826Y77826D01*
X47829Y77848D01*
X47833Y77864D01*
Y77888D01*
X47829Y77935D01*
X47826Y77979D01*
X47808Y78063D01*
X47780Y78135D01*
X47748Y78197D01*
X47733Y78222D01*
X47717Y78247D01*
X47705Y78266D01*
X47689Y78282D01*
X47680Y78297D01*
X47670Y78307D01*
X47667Y78310D01*
X47664Y78313D01*
X47633Y78344D01*
X47599Y78369D01*
X47564Y78394D01*
X47530Y78413D01*
X47458Y78444D01*
X47393Y78462D01*
X47333Y78475D01*
X47308Y78478D01*
X47287Y78481D01*
X47268Y78484D01*
D02*
G37*
G36*
X47901Y76191D02*
X47883D01*
X47870D01*
X47867D01*
X47755Y76188D01*
X47652Y76175D01*
X47555Y76160D01*
X47464Y76138D01*
X47380Y76113D01*
X47305Y76085D01*
X47237Y76054D01*
X47177Y76023D01*
X47121Y75991D01*
X47074Y75960D01*
X47037Y75932D01*
X47003Y75907D01*
X46978Y75885D01*
X46962Y75870D01*
X46950Y75857D01*
X46946Y75854D01*
X47009Y75770D01*
X47065Y75679D01*
X47112Y75586D01*
X47152Y75502D01*
X47168Y75461D01*
X47181Y75424D01*
X47193Y75392D01*
X47202Y75364D01*
X47212Y75339D01*
X47218Y75324D01*
X47221Y75311D01*
Y75308D01*
X46943Y75218D01*
X46922Y75289D01*
X46897Y75361D01*
X46869Y75424D01*
X46843Y75480D01*
X46819Y75527D01*
X46806Y75548D01*
X46797Y75564D01*
X46791Y75577D01*
X46784Y75586D01*
X46778Y75592D01*
Y75595D01*
X46753Y75527D01*
X46734Y75458D01*
X46722Y75392D01*
X46712Y75333D01*
X46706Y75283D01*
Y75261D01*
X46703Y75243D01*
Y75208D01*
X46706Y75130D01*
X46716Y75055D01*
X46731Y74984D01*
X46750Y74915D01*
X46772Y74853D01*
X46797Y74796D01*
X46825Y74740D01*
X46853Y74694D01*
X46881Y74650D01*
X46909Y74609D01*
X46934Y74578D01*
X46956Y74550D01*
X46975Y74528D01*
X46990Y74513D01*
X46999Y74503D01*
X47003Y74500D01*
X47062Y74450D01*
X47124Y74410D01*
X47193Y74372D01*
X47265Y74341D01*
X47337Y74313D01*
X47408Y74291D01*
X47477Y74272D01*
X47545Y74257D01*
X47611Y74244D01*
X47670Y74238D01*
X47723Y74232D01*
X47770Y74225D01*
X47811D01*
X47839Y74222D01*
X47857D01*
X47864D01*
X47970Y74225D01*
X48067Y74235D01*
X48160Y74247D01*
X48244Y74266D01*
X48322Y74288D01*
X48394Y74313D01*
X48460Y74338D01*
X48516Y74363D01*
X48569Y74388D01*
X48613Y74416D01*
X48650Y74438D01*
X48681Y74460D01*
X48703Y74478D01*
X48722Y74491D01*
X48731Y74500D01*
X48734Y74503D01*
X48787Y74556D01*
X48831Y74616D01*
X48872Y74672D01*
X48903Y74731D01*
X48931Y74790D01*
X48956Y74849D01*
X48974Y74906D01*
X48990Y74962D01*
X49003Y75012D01*
X49012Y75059D01*
X49018Y75102D01*
X49024Y75137D01*
Y75168D01*
X49028Y75190D01*
Y75261D01*
X49021Y75314D01*
X49006Y75411D01*
X48981Y75498D01*
X48968Y75536D01*
X48956Y75573D01*
X48940Y75608D01*
X48928Y75636D01*
X48915Y75661D01*
X48903Y75683D01*
X48893Y75701D01*
X48887Y75714D01*
X48884Y75720D01*
X48881Y75723D01*
X48822Y75804D01*
X48756Y75873D01*
X48691Y75932D01*
X48625Y75982D01*
X48566Y76020D01*
X48541Y76035D01*
X48519Y76048D01*
X48500Y76057D01*
X48488Y76063D01*
X48478Y76069D01*
X48475D01*
X48375Y76110D01*
X48272Y76141D01*
X48169Y76163D01*
X48073Y76175D01*
X48032Y76182D01*
X47992Y76185D01*
X47957Y76188D01*
X47926D01*
X47901Y76191D01*
D02*
G37*
G36*
X47368Y118481D02*
X47352D01*
X47343D01*
X47340D01*
X47284Y118478D01*
X47230Y118475D01*
X47177Y118466D01*
X47131Y118456D01*
X47087Y118444D01*
X47046Y118431D01*
X47009Y118416D01*
X46978Y118400D01*
X46946Y118385D01*
X46922Y118369D01*
X46900Y118356D01*
X46881Y118344D01*
X46865Y118335D01*
X46856Y118325D01*
X46850Y118322D01*
X46847Y118319D01*
X46815Y118288D01*
X46787Y118257D01*
X46766Y118225D01*
X46744Y118191D01*
X46728Y118160D01*
X46712Y118125D01*
X46691Y118066D01*
X46678Y118013D01*
X46675Y117991D01*
X46672Y117970D01*
X46669Y117954D01*
Y117932D01*
X46672Y117876D01*
X46681Y117820D01*
X46697Y117770D01*
X46712Y117726D01*
X46728Y117689D01*
X46744Y117661D01*
X46753Y117642D01*
X46756Y117639D01*
Y117636D01*
X46794Y117586D01*
X46834Y117545D01*
X46875Y117508D01*
X46915Y117477D01*
X46953Y117452D01*
X46981Y117436D01*
X46993Y117430D01*
X47003Y117423D01*
X47006Y117420D01*
X47009D01*
X47071Y117395D01*
X47134Y117377D01*
X47193Y117364D01*
X47246Y117355D01*
X47293Y117349D01*
X47311D01*
X47327Y117345D01*
X47340D01*
X47349D01*
X47355D01*
X47358D01*
X47408Y117349D01*
X47458Y117352D01*
X47545Y117370D01*
X47624Y117399D01*
X47658Y117414D01*
X47686Y117430D01*
X47714Y117442D01*
X47739Y117458D01*
X47761Y117473D01*
X47776Y117486D01*
X47789Y117495D01*
X47798Y117505D01*
X47804Y117508D01*
X47808Y117511D01*
X47839Y117542D01*
X47867Y117576D01*
X47889Y117611D01*
X47908Y117645D01*
X47939Y117714D01*
X47960Y117779D01*
X47973Y117835D01*
X47976Y117860D01*
X47979Y117879D01*
X47982Y117898D01*
Y117920D01*
X47979Y117963D01*
X47976Y118007D01*
X47954Y118085D01*
X47926Y118154D01*
X47895Y118213D01*
X47864Y118260D01*
X47848Y118278D01*
X47836Y118294D01*
X47823Y118307D01*
X47814Y118316D01*
X47811Y118319D01*
X47808Y118322D01*
X47773Y118350D01*
X47739Y118375D01*
X47701Y118397D01*
X47661Y118416D01*
X47583Y118444D01*
X47508Y118463D01*
X47474Y118469D01*
X47443Y118472D01*
X47414Y118475D01*
X47390Y118478D01*
X47368Y118481D01*
D02*
G37*
G36*
X47914Y117293D02*
X47911Y117292D01*
X47914D01*
X47914Y117293D01*
D02*
G37*
G36*
X47901Y116194D02*
X47883D01*
X47870D01*
X47867D01*
X47755Y116191D01*
X47652Y116179D01*
X47555Y116163D01*
X47464Y116141D01*
X47380Y116116D01*
X47305Y116088D01*
X47237Y116057D01*
X47177Y116026D01*
X47121Y115995D01*
X47074Y115963D01*
X47037Y115935D01*
X47003Y115910D01*
X46978Y115889D01*
X46962Y115873D01*
X46950Y115860D01*
X46946Y115857D01*
X47009Y115773D01*
X47065Y115683D01*
X47112Y115589D01*
X47152Y115505D01*
X47168Y115464D01*
X47181Y115427D01*
X47193Y115395D01*
X47202Y115367D01*
X47212Y115342D01*
X47218Y115327D01*
X47221Y115314D01*
Y115311D01*
X46943Y115221D01*
X46922Y115293D01*
X46897Y115364D01*
X46869Y115427D01*
X46843Y115483D01*
X46819Y115530D01*
X46806Y115551D01*
X46797Y115567D01*
X46791Y115580D01*
X46784Y115589D01*
X46778Y115595D01*
Y115598D01*
X46753Y115530D01*
X46734Y115461D01*
X46722Y115395D01*
X46712Y115336D01*
X46706Y115286D01*
Y115264D01*
X46703Y115246D01*
Y115211D01*
X46706Y115133D01*
X46716Y115059D01*
X46731Y114987D01*
X46750Y114918D01*
X46772Y114856D01*
X46797Y114800D01*
X46825Y114743D01*
X46853Y114697D01*
X46881Y114653D01*
X46909Y114612D01*
X46934Y114581D01*
X46956Y114553D01*
X46975Y114531D01*
X46990Y114516D01*
X46999Y114506D01*
X47003Y114503D01*
X47062Y114453D01*
X47124Y114413D01*
X47193Y114375D01*
X47265Y114344D01*
X47337Y114316D01*
X47408Y114294D01*
X47477Y114276D01*
X47545Y114260D01*
X47611Y114247D01*
X47670Y114241D01*
X47723Y114235D01*
X47770Y114229D01*
X47811D01*
X47839Y114225D01*
X47857D01*
X47864D01*
X47970Y114229D01*
X48067Y114238D01*
X48160Y114251D01*
X48244Y114269D01*
X48322Y114291D01*
X48394Y114316D01*
X48460Y114341D01*
X48516Y114366D01*
X48569Y114391D01*
X48613Y114419D01*
X48650Y114441D01*
X48681Y114463D01*
X48703Y114481D01*
X48722Y114494D01*
X48731Y114503D01*
X48734Y114506D01*
X48787Y114559D01*
X48831Y114619D01*
X48872Y114675D01*
X48903Y114734D01*
X48931Y114793D01*
X48956Y114853D01*
X48974Y114909D01*
X48990Y114965D01*
X49003Y115015D01*
X49012Y115062D01*
X49018Y115105D01*
X49024Y115140D01*
Y115171D01*
X49028Y115193D01*
Y115264D01*
X49021Y115317D01*
X49006Y115414D01*
X48981Y115502D01*
X48968Y115539D01*
X48956Y115577D01*
X48940Y115611D01*
X48928Y115639D01*
X48915Y115664D01*
X48903Y115686D01*
X48893Y115704D01*
X48887Y115717D01*
X48884Y115723D01*
X48881Y115726D01*
X48822Y115807D01*
X48756Y115876D01*
X48691Y115935D01*
X48625Y115985D01*
X48566Y116023D01*
X48541Y116038D01*
X48519Y116051D01*
X48500Y116060D01*
X48488Y116066D01*
X48478Y116073D01*
X48475D01*
X48375Y116113D01*
X48272Y116144D01*
X48169Y116166D01*
X48073Y116179D01*
X48032Y116185D01*
X47992Y116188D01*
X47957Y116191D01*
X47926D01*
X47901Y116194D01*
D02*
G37*
G36*
X22367Y137248D02*
X22296D01*
X22243Y137242D01*
X22146Y137226D01*
X22059Y137201D01*
X22021Y137189D01*
X21984Y137176D01*
X21949Y137161D01*
X21921Y137148D01*
X21896Y137136D01*
X21874Y137123D01*
X21856Y137114D01*
X21843Y137108D01*
X21837Y137104D01*
X21834Y137101D01*
X21753Y137042D01*
X21684Y136977D01*
X21625Y136911D01*
X21575Y136846D01*
X21537Y136786D01*
X21522Y136761D01*
X21509Y136739D01*
X21500Y136721D01*
X21494Y136708D01*
X21487Y136699D01*
Y136696D01*
X21447Y136596D01*
X21416Y136493D01*
X21394Y136390D01*
X21381Y136293D01*
X21375Y136253D01*
X21372Y136212D01*
X21369Y136178D01*
Y136147D01*
X21366Y136122D01*
Y136103D01*
Y136091D01*
Y136087D01*
X21369Y135975D01*
X21381Y135872D01*
X21397Y135775D01*
X21419Y135685D01*
X21444Y135601D01*
X21472Y135526D01*
X21503Y135457D01*
X21534Y135398D01*
X21565Y135342D01*
X21597Y135295D01*
X21625Y135257D01*
X21650Y135223D01*
X21672Y135198D01*
X21687Y135183D01*
X21700Y135170D01*
X21703Y135167D01*
X21787Y135229D01*
X21878Y135285D01*
X21971Y135332D01*
X22055Y135373D01*
X22096Y135389D01*
X22133Y135401D01*
X22165Y135413D01*
X22193Y135423D01*
X22218Y135432D01*
X22233Y135438D01*
X22246Y135442D01*
X22249D01*
X22339Y135164D01*
X22267Y135142D01*
X22196Y135117D01*
X22133Y135089D01*
X22077Y135064D01*
X22030Y135039D01*
X22009Y135027D01*
X21993Y135017D01*
X21981Y135011D01*
X21971Y135005D01*
X21965Y134999D01*
X21962D01*
X22030Y134974D01*
X22099Y134955D01*
X22165Y134942D01*
X22224Y134933D01*
X22274Y134927D01*
X22296D01*
X22314Y134924D01*
X22349D01*
X22427Y134927D01*
X22501Y134936D01*
X22573Y134952D01*
X22642Y134970D01*
X22704Y134992D01*
X22761Y135017D01*
X22817Y135045D01*
X22863Y135073D01*
X22907Y135101D01*
X22948Y135129D01*
X22979Y135154D01*
X23007Y135176D01*
X23029Y135195D01*
X23044Y135211D01*
X23054Y135220D01*
X23057Y135223D01*
X23107Y135282D01*
X23147Y135345D01*
X23185Y135413D01*
X23216Y135485D01*
X23244Y135557D01*
X23266Y135629D01*
X23285Y135697D01*
X23300Y135766D01*
X23313Y135831D01*
X23319Y135891D01*
X23325Y135944D01*
X23331Y135991D01*
Y136031D01*
X23335Y136059D01*
Y136078D01*
Y136084D01*
X23331Y136190D01*
X23322Y136287D01*
X23310Y136381D01*
X23291Y136465D01*
X23269Y136543D01*
X23244Y136615D01*
X23219Y136680D01*
X23194Y136736D01*
X23169Y136789D01*
X23141Y136833D01*
X23119Y136871D01*
X23097Y136902D01*
X23079Y136924D01*
X23066Y136942D01*
X23057Y136952D01*
X23054Y136955D01*
X23001Y137008D01*
X22941Y137051D01*
X22885Y137092D01*
X22826Y137123D01*
X22767Y137151D01*
X22707Y137176D01*
X22651Y137195D01*
X22595Y137211D01*
X22545Y137223D01*
X22498Y137232D01*
X22455Y137239D01*
X22420Y137245D01*
X22389D01*
X22367Y137248D01*
D02*
G37*
%LPD*%
M02*
