G04*
G04 #@! TF.GenerationSoftware,Altium Limited,Altium Designer,22.7.1 (60)*
G04*
G04 Layer_Color=16711935*
%FSLAX25Y25*%
%MOIN*%
G70*
G04*
G04 #@! TF.SameCoordinates,3EC980D0-7658-4EA3-A3E4-A41FBE6F1EC8*
G04*
G04*
G04 #@! TF.FilePolarity,Positive*
G04*
G01*
G75*
%ADD51C,0.00100*%
D51*
X22386Y36338D02*
G03*
X22386Y36338I-886J0D01*
G01*
Y56338D02*
G03*
X22386Y56338I-886J0D01*
G01*
Y96338D02*
G03*
X22386Y96338I-886J0D01*
G01*
Y76338D02*
G03*
X22386Y76338I-886J0D01*
G01*
Y116338D02*
G03*
X22386Y116338I-886J0D01*
G01*
X133386Y64500D02*
G03*
X133386Y64500I-886J0D01*
G01*
X22386Y16338D02*
G03*
X22386Y16338I-886J0D01*
G01*
X48665Y56338D02*
G03*
X48665Y56338I-886J0D01*
G01*
Y36338D02*
G03*
X48665Y36338I-886J0D01*
G01*
Y16338D02*
G03*
X48665Y16338I-886J0D01*
G01*
X48665Y136000D02*
G03*
X48665Y136000I-886J0D01*
G01*
X48665Y96338D02*
G03*
X48665Y96338I-886J0D01*
G01*
Y76338D02*
G03*
X48665Y76338I-886J0D01*
G01*
Y116338D02*
G03*
X48665Y116338I-886J0D01*
G01*
X22386Y136000D02*
G03*
X22386Y136000I-886J0D01*
G01*
X178154Y88387D02*
G03*
X178154Y88387I-886J0D01*
G01*
X19728Y36338D02*
X23272D01*
X21500Y34566D02*
Y38109D01*
Y54566D02*
Y58109D01*
X19728Y56338D02*
X23272D01*
X21500Y98110D02*
X21500Y94566D01*
X19728Y96338D02*
X23272Y96338D01*
X19728Y76338D02*
X23272D01*
X21500Y74566D02*
Y78110D01*
X19728Y116338D02*
X23272D01*
X21500Y114566D02*
Y118109D01*
X132500Y62728D02*
X132500Y66272D01*
X130728Y64500D02*
X134272Y64500D01*
X19728Y16338D02*
X23272D01*
X21500Y14566D02*
Y18110D01*
X47780Y54566D02*
Y58109D01*
X46008Y56338D02*
X49551D01*
X46008Y36338D02*
X49551D01*
X47780Y34566D02*
Y38109D01*
Y14566D02*
Y18110D01*
X46008Y16338D02*
X49551D01*
X46008Y136000D02*
X49551Y136000D01*
X47780Y134228D02*
Y137771D01*
X47780Y94566D02*
Y98110D01*
X46008Y96338D02*
X49551D01*
X46008Y76338D02*
X49551D01*
X47780Y74566D02*
Y78110D01*
X46008Y116338D02*
X49551Y116338D01*
X47780Y118109D02*
X47780Y114566D01*
X21500Y134228D02*
Y137772D01*
X19728Y136000D02*
X23272D01*
X175496Y88387D02*
X179039D01*
X177268Y86615D02*
X177268Y90158D01*
M02*
