G04*
G04 #@! TF.GenerationSoftware,Altium Limited,Altium Designer,22.7.1 (60)*
G04*
G04 Layer_Color=32768*
%FSLAX25Y25*%
%MOIN*%
G70*
G04*
G04 #@! TF.SameCoordinates,3EC980D0-7658-4EA3-A3E4-A41FBE6F1EC8*
G04*
G04*
G04 #@! TF.FilePolarity,Positive*
G04*
G01*
G75*
%ADD50C,0.00197*%
D50*
X14118Y30235D02*
X28882D01*
X14118Y42440D02*
X28882D01*
X14118Y30235D02*
Y42440D01*
X28882Y30235D02*
Y42440D01*
Y50235D02*
Y62440D01*
X14118Y50235D02*
Y62440D01*
X28882D01*
X14118Y50235D02*
X28882D01*
Y90236D02*
Y102440D01*
X14118Y90236D02*
Y102440D01*
X28882D01*
X14118Y90236D02*
X28882D01*
X14118Y70236D02*
X28882D01*
X14118Y82440D02*
X28882D01*
X14118Y70236D02*
Y82440D01*
X28882Y70236D02*
Y82440D01*
X14118Y110235D02*
X28882D01*
X14118Y122440D02*
X28882D01*
X14118Y110235D02*
Y122440D01*
X28882Y110235D02*
Y122440D01*
X117539Y46783D02*
X147461D01*
X117539D02*
Y82217D01*
X147461Y82217D01*
X147461Y46783D02*
X147461Y82217D01*
X14118Y10235D02*
X28882D01*
X14118Y22440D02*
X28882D01*
X14118Y10235D02*
Y22440D01*
X28882Y10235D02*
Y22440D01*
X41677Y48956D02*
Y63720D01*
X53882Y48956D02*
Y63720D01*
X41677D02*
X53882D01*
X41677Y48956D02*
X53882D01*
X41677Y28956D02*
X53882D01*
X41677Y43720D02*
X53882D01*
Y28956D02*
Y43720D01*
X41677Y28956D02*
Y43720D01*
Y8956D02*
Y23720D01*
X53882Y8956D02*
Y23720D01*
X41677D02*
X53882D01*
X41677Y8956D02*
X53882D01*
X41677Y128618D02*
X53882D01*
X41677Y143382D02*
X53882D01*
Y128618D02*
Y143382D01*
X41677Y128618D02*
Y143382D01*
X41677Y88956D02*
Y103720D01*
X53882Y88956D02*
Y103720D01*
X41677D02*
X53882D01*
X41677Y88956D02*
X53882D01*
X41677Y68956D02*
X53882D01*
X41677Y83720D02*
X53882D01*
Y68956D02*
Y83720D01*
X41677Y68956D02*
Y83720D01*
X41677Y108956D02*
X53882D01*
X41677Y123720D02*
X53882D01*
X53882Y108956D02*
X53882Y123720D01*
X41677Y108956D02*
X41677Y123720D01*
X28882Y129898D02*
Y142102D01*
X14118Y129898D02*
Y142102D01*
X28882D01*
X14118Y129898D02*
X28882D01*
X171165Y80316D02*
X183370Y80316D01*
X171165Y96457D02*
X183370Y96457D01*
X183370Y80316D02*
X183370Y96457D01*
X171165Y80316D02*
Y96457D01*
M02*
