;TYPE=PLATED
;Layer: PTH_Through
;EasyEDA Pro Client v2.1.21.9b64d12f.b3811b, 2024-07-11 22:11:46
;Gerber Generator version 0.3
M48
METRIC,LZ,000.000
;Hole size 1 = 0.305 METRIC
T01C0.305
;Hole size 2 = 0.900 METRIC
T02C0.900
;Hole size 3 = 0.914 METRIC
T03C0.914
;Hole size 4 = 1.000 METRIC
T04C1.000
;Hole size 5 = 1.001 METRIC
T05C1.001
;Hole size 6 = 1.020 METRIC
T06C1.020
;Hole size 7 = 1.100 METRIC
T07C1.100
;Hole size 8 = 1.200 METRIC
T08C1.200
%
G05
G90
T01
X030734Y027432
X028194Y027432
X037465Y-006985
X036195Y-006604
X023114Y017907
X023114Y027432
X-006477Y033274
X000438Y-010922
X004445Y-040005
X024003Y-013081
X024892Y-013335
X025675Y-014107
X-006604Y027686
X035560Y-040259
X009271Y-016764
X012192Y-039751
X011303Y-036195
X022987Y014274
X022912Y011734
X022912Y009194
X022912Y006654
X022912Y004114
X022912Y001574
X022912Y-000966
X022912Y-003506
X022912Y-006046
X006828Y-007747
X-014224Y-043561
X015875Y026974
X015875Y028498
X015875Y030022
X017399Y025450
X017399Y030022
X-024239Y018923
X-024239Y024003
X-024239Y029083
X-024239Y034163
X-021699Y018923
X-021699Y024003
X-021699Y029083
X-021699Y034163
X-019159Y024003
X-019159Y029083
X-019159Y034163
X-016619Y024003
X-016619Y029083
X-016619Y034163
X-014079Y029083
X-014079Y034163
X-011539Y034163
X-001379Y034163
X010033Y033655
X012573Y033655
X015113Y033655
X010368Y-001924
X012908Y-001924
X-001397Y011811
X001652Y011811
X-024638Y-041698
X-024638Y-036618
X-024638Y-031538
X-024638Y-026458
X-024638Y-021378
X-024638Y-016298
X-022098Y-036618
X-022098Y-031538
X-022098Y-026458
X-022098Y-021378
X-022098Y-016298
X-017018Y-036618
X-014478Y-036618
X-014478Y-016298
X-011938Y-031538
X-011938Y-026458
X-011938Y-016298
X-009398Y-031538
X-009398Y-026458
X050739Y-009461
X050739Y-014160
X050739Y-018732
X050739Y-023304
X045466Y-028321
X053043Y014224
X053043Y009144
X053043Y004064
X021209Y024457
X021209Y025727
X021209Y029537
X021844Y027432
X033782Y029718
X033274Y025273
X-025908Y009017
X-003175Y-035179
X-002032Y-037084
X-000508Y-037846
X002413Y-038608
X001905Y-039370
X039751Y032639
X039751Y-002921
X039751Y002159
X039751Y007239
X039751Y012319
X039751Y017399
X042291Y032639
X044831Y032639
X047371Y032639
X047371Y-002921
X047371Y022479
X049911Y-002921
X049911Y022479
X049911Y027559
X049911Y032639
X052451Y-002921
X052451Y022479
X052451Y027559
X052451Y032639
X-017018Y-012700
X-017018Y-007620
X-014478Y-012700
X-014478Y-007620
X-011938Y-012700
X-011938Y-007620
X-011938Y-002540
X030607Y-030099
X035687Y-035179
X035687Y-030099
X040767Y-040259
X040767Y-035179
X040767Y-030099
X045847Y-040259
X050927Y-040259
X053340Y-027305
T02
X031323Y022021
X033863Y022021
X008463Y022021
X033863Y016941
X031323Y016941
X031323Y014401
X033863Y014401
X033863Y011861
X031323Y011861
X031323Y009321
X033863Y009321
X033863Y006781
X031323Y006781
X033863Y004241
X031323Y004241
X033863Y001701
X031323Y001701
X033863Y-000839
X031323Y-000839
X033863Y-003379
X031323Y-003379
X031323Y-005919
X033863Y-005919
X031323Y-008459
X033863Y-008459
X033863Y-010999
X031323Y-010999
X031323Y-013539
X033863Y-013539
X031323Y-018619
X033863Y-016079
X031323Y-016079
X033863Y-018619
X033863Y-021159
X031323Y-021159
X031323Y-023699
X033863Y-023699
X033863Y-026239
X031323Y-026239
X028783Y-026239
X028783Y-023699
X026243Y-023699
X026243Y-026239
X023703Y-023699
X023703Y-026239
X021163Y-026239
X021163Y-023699
X005923Y-023699
X005923Y-026239
X003383Y-026239
X003383Y-023699
X000843Y-026239
X000843Y-023699
X-001697Y-023699
X-001697Y-026239
X-004237Y-026239
X-006777Y-026239
X-004237Y-023699
X-006777Y-023699
X-006777Y-021159
X-004237Y-021159
X-006777Y-018619
X-004237Y-018619
X-004237Y-016079
X-006777Y-016079
X-006777Y-013539
X-004237Y-013539
X-006777Y-010999
X-004237Y-008459
X-006777Y-008459
X-006777Y-005919
X-004237Y-005919
X-004237Y-003379
X-004237Y-000839
X-006777Y001701
X-004237Y001701
X-004237Y004241
X-006777Y004241
X-006777Y006781
X-004237Y006781
X-004237Y009321
X-006777Y009321
X-006777Y011861
X-004237Y011861
X-004237Y014401
X-006777Y014401
X-004237Y016941
X-004237Y019481
X003383Y019481
X000843Y019481
X005923Y019481
X008463Y019481
X011003Y019481
X013543Y019481
X016083Y019481
X018623Y019481
X021163Y019481
X023703Y019481
X026243Y019481
X028783Y019481
X031323Y019481
X033863Y019481
X028783Y022021
X026243Y022021
X023703Y022021
X021163Y022021
X018623Y022021
X016083Y022021
X013543Y022021
X011003Y022021
X005923Y022021
X000843Y022021
X-006777Y016941
X-006777Y019481
X-006777Y022021
X003383Y022021
X-006777Y-000839
X-006777Y-003379
X-004237Y022021
X-001697Y022021
X-001697Y019481
X-004237Y-010999
T03
X033033Y-046355
X035533Y-046355
X038033Y-046355
X040533Y-046355
X043033Y-046355
X045533Y-046355
X048033Y-046355
X050533Y-046355
T04
X015240Y-004540
X015240Y-000540
T05
X019332Y-034417
X016830Y-034417
X014331Y-034417
X011831Y-034417
X009332Y-034417
X006830Y-034417
T06
X-022733Y014991
X-022733Y012451
X-022733Y009911
X000843Y-046482
X000843Y-049022
X003383Y-049022
X003383Y-046482
X005923Y-049022
X005923Y-046482
X008463Y-049022
X008463Y-046482
X011003Y-049022
X011003Y-046482
X013543Y-049022
X013543Y-046482
X016083Y-049022
X016083Y-046482
X018623Y-049022
X018623Y-046482
X021163Y-049022
X021163Y-046482
X023703Y-049022
X023703Y-046482
X026243Y-049022
X026243Y-046482
T07
X040640Y-014732
X040640Y-017272
X040640Y-019812
X040640Y-022352
X042291Y026670
X044831Y026670
X042291Y024130
X044831Y024130
X042291Y021590
X044831Y021590
X042291Y019050
X044831Y019050
T08
X-017526Y-016383
X-017526Y-018923
X-017526Y-021463
X-017526Y-024003
X-017526Y-026543
X-017526Y-029083
X-017526Y-031623
X-017526Y-034163
X-015141Y014991
X-017681Y014991
X-015141Y012451
X-017681Y012451
X-015141Y009911
X-017681Y009911
X-015141Y007371
X-017681Y007371
X-015141Y004831
X-017681Y004831
X-015141Y002291
X-017681Y002291
X-015141Y-000249
X-017681Y-000249
X-015141Y-002789
X-017681Y-002789
X042319Y-002789
X044859Y-002789
X042319Y-000249
X044859Y-000249
X042319Y002291
X044859Y002291
X042319Y004831
X044859Y004831
X042319Y007371
X044859Y007371
X042319Y009911
X044859Y009911
X042319Y012451
X044859Y012451
X042319Y014991
X044859Y014991
M30