;TYPE=PLATED
;Layer: PTH_Through_Via
;EasyEDA Pro Client v2.1.21.9b64d12f.b3811b, 2024-07-11 22:11:46
;Gerber Generator version 0.3
M48
METRIC,LZ,000.000
;Hole size 1 = 0.305 METRIC
T01C0.305
%
G05
G90
T01
X030734Y027432
X028194Y027432
X037465Y-006985
X036195Y-006604
X023114Y017907
X023114Y027432
X-006477Y033274
X000438Y-010922
X004445Y-040005
X024003Y-013081
X024892Y-013335
X025675Y-014107
X-006604Y027686
X035560Y-040259
X009271Y-016764
X012192Y-039751
X011303Y-036195
X022987Y014274
X022912Y011734
X022912Y009194
X022912Y006654
X022912Y004114
X022912Y001574
X022912Y-000966
X022912Y-003506
X022912Y-006046
X006828Y-007747
X-014224Y-043561
X015875Y026974
X015875Y028498
X015875Y030022
X017399Y025450
X017399Y030022
X-024239Y018923
X-024239Y024003
X-024239Y029083
X-024239Y034163
X-021699Y018923
X-021699Y024003
X-021699Y029083
X-021699Y034163
X-019159Y024003
X-019159Y029083
X-019159Y034163
X-016619Y024003
X-016619Y029083
X-016619Y034163
X-014079Y029083
X-014079Y034163
X-011539Y034163
X-001379Y034163
X010033Y033655
X012573Y033655
X015113Y033655
X010368Y-001924
X012908Y-001924
X-001397Y011811
X001652Y011811
X-024638Y-041698
X-024638Y-036618
X-024638Y-031538
X-024638Y-026458
X-024638Y-021378
X-024638Y-016298
X-022098Y-036618
X-022098Y-031538
X-022098Y-026458
X-022098Y-021378
X-022098Y-016298
X-017018Y-036618
X-014478Y-036618
X-014478Y-016298
X-011938Y-031538
X-011938Y-026458
X-011938Y-016298
X-009398Y-031538
X-009398Y-026458
X050739Y-009461
X050739Y-014160
X050739Y-018732
X050739Y-023304
X045466Y-028321
X053043Y014224
X053043Y009144
X053043Y004064
X021209Y024457
X021209Y025727
X021209Y029537
X021844Y027432
X033782Y029718
X033274Y025273
X-025908Y009017
X-003175Y-035179
X-002032Y-037084
X-000508Y-037846
X002413Y-038608
X001905Y-039370
X039751Y032639
X039751Y-002921
X039751Y002159
X039751Y007239
X039751Y012319
X039751Y017399
X042291Y032639
X044831Y032639
X047371Y032639
X047371Y-002921
X047371Y022479
X049911Y-002921
X049911Y022479
X049911Y027559
X049911Y032639
X052451Y-002921
X052451Y022479
X052451Y027559
X052451Y032639
X-017018Y-012700
X-017018Y-007620
X-014478Y-012700
X-014478Y-007620
X-011938Y-012700
X-011938Y-007620
X-011938Y-002540
X030607Y-030099
X035687Y-035179
X035687Y-030099
X040767Y-040259
X040767Y-035179
X040767Y-030099
X045847Y-040259
X050927Y-040259
X053340Y-027305
M30