G04 Layer: BottomSolderMaskLayer*
G04 EasyEDA Pro v2.1.21.9b64d12f.b3811b, 2024-07-11 22:11:45*
G04 Gerber Generator version 0.3*
G04 Scale: 100 percent, Rotated: No, Reflected: No*
G04 Dimensions in millimeters*
G04 Leading zeros omitted, absolute positions, 3 integers and 3 decimals*
%FSLAX33Y33*%
%MOMM*%
%AMRoundRect*1,1,$1,$2,$3*1,1,$1,$4,$5*1,1,$1,0-$2,0-$3*1,1,$1,0-$4,0-$5*20,1,$1,$2,$3,$4,$5,0*20,1,$1,$4,$5,0-$2,0-$3,0*20,1,$1,0-$2,0-$3,0-$4,0-$5,0*20,1,$1,0-$4,0-$5,$2,$3,0*4,1,4,$2,$3,$4,$5,0-$2,0-$3,0-$4,0-$5,$2,$3,0*%
%ADD10C,1.703*%
%ADD11RoundRect,0.092X-1.404X-0.504X-1.404X0.504*%
%ADD12RoundRect,0.088X-0.856X-0.306X-0.856X0.306*%
%ADD13RoundRect,0.096X-0.803X0.803X0.803X0.803*%
%ADD14C,1.702*%
%ADD15RoundRect,0.096X0.853X0.853X0.853X-0.853*%
%ADD16C,1.802*%
%ADD17C,1.676*%
%ADD18RoundRect,0.096X-0.79X-0.79X-0.79X0.79*%
%ADD19RoundRect,0.096X0.803X0.803X0.803X-0.803*%
%ADD20C,1.702*%
%ADD21C,1.9*%
%ADD22RoundRect,0.095X0.902X-0.902X-0.902X-0.902*%
%ADD23RoundRect,0.096X0.903X0.903X0.903X-0.903*%
%ADD24C,1.902*%
%ADD25RoundRect,0.096X-0.903X-0.903X-0.903X0.903*%
%ADD26RoundRect,0.096X-0.765X0.765X0.765X0.765*%
%ADD27C,1.626*%
G75*


G04 Pad Start*
G54D10*
G01X31323Y22021D03*
G01X33863Y22021D03*
G01X8463Y22021D03*
G01X33863Y16941D03*
G01X31323Y16941D03*
G01X31323Y14401D03*
G01X33863Y14401D03*
G01X33863Y11861D03*
G01X31323Y11861D03*
G01X31323Y9321D03*
G01X33863Y9321D03*
G01X33863Y6781D03*
G01X31323Y6781D03*
G01X33863Y4241D03*
G01X31323Y4241D03*
G01X33863Y1701D03*
G01X31323Y1701D03*
G01X33863Y-839D03*
G01X31323Y-839D03*
G01X33863Y-3379D03*
G01X31323Y-3379D03*
G01X31323Y-5919D03*
G01X33863Y-5919D03*
G01X31323Y-8459D03*
G01X33863Y-8459D03*
G01X33863Y-10999D03*
G01X31323Y-10999D03*
G01X31323Y-13539D03*
G01X33863Y-13539D03*
G01X31323Y-18619D03*
G01X33863Y-16079D03*
G01X31323Y-16079D03*
G01X33863Y-18619D03*
G01X33863Y-21159D03*
G01X31323Y-21159D03*
G01X31323Y-23699D03*
G01X33863Y-23699D03*
G01X33863Y-26239D03*
G01X31323Y-26239D03*
G01X28783Y-26239D03*
G01X28783Y-23699D03*
G01X26243Y-23699D03*
G01X26243Y-26239D03*
G01X23703Y-23699D03*
G01X23703Y-26239D03*
G01X21163Y-26239D03*
G01X21163Y-23699D03*
G01X5923Y-23699D03*
G01X5923Y-26239D03*
G01X3383Y-26239D03*
G01X3383Y-23699D03*
G01X843Y-26239D03*
G01X843Y-23699D03*
G01X-1697Y-23699D03*
G01X-1697Y-26239D03*
G01X-4237Y-26239D03*
G01X-6777Y-26239D03*
G01X-4237Y-23699D03*
G01X-6777Y-23699D03*
G01X-6777Y-21159D03*
G01X-4237Y-21159D03*
G01X-6777Y-18619D03*
G01X-4237Y-18619D03*
G01X-4237Y-16079D03*
G01X-6777Y-16079D03*
G01X-6777Y-13539D03*
G01X-4237Y-13539D03*
G01X-6777Y-10999D03*
G01X-4237Y-8459D03*
G01X-6777Y-8459D03*
G01X-6777Y-5919D03*
G01X-4237Y-5919D03*
G01X-4237Y-3379D03*
G01X-4237Y-839D03*
G01X-6777Y1701D03*
G01X-4237Y1701D03*
G01X-4237Y4241D03*
G01X-6777Y4241D03*
G01X-6777Y6781D03*
G01X-4237Y6781D03*
G01X-4237Y9321D03*
G01X-6777Y9321D03*
G01X-6777Y11861D03*
G01X-4237Y11861D03*
G01X-4237Y14401D03*
G01X-6777Y14401D03*
G01X-4237Y16941D03*
G01X-4237Y19481D03*
G01X3383Y19481D03*
G01X843Y19481D03*
G01X5923Y19481D03*
G01X8463Y19481D03*
G01X11003Y19481D03*
G01X13543Y19481D03*
G01X16083Y19481D03*
G01X18623Y19481D03*
G01X21163Y19481D03*
G01X23703Y19481D03*
G01X26243Y19481D03*
G01X28783Y19481D03*
G01X31323Y19481D03*
G01X33863Y19481D03*
G01X28783Y22021D03*
G01X26243Y22021D03*
G01X23703Y22021D03*
G01X21163Y22021D03*
G01X18623Y22021D03*
G01X16083Y22021D03*
G01X13543Y22021D03*
G01X11003Y22021D03*
G01X5923Y22021D03*
G01X843Y22021D03*
G01X-6777Y16941D03*
G01X-6777Y19481D03*
G01X-6777Y22021D03*
G01X3383Y22021D03*
G01X-6777Y-839D03*
G01X-6777Y-3379D03*
G01X-4237Y22021D03*
G01X-1697Y22021D03*
G01X-1697Y19481D03*
G01X-4237Y-10999D03*
G54D11*
G01X-25451Y-45361D03*
G54D12*
G01X-22301Y-39761D03*
G01X-22301Y-41011D03*
G01X-22301Y-42261D03*
G01X-22301Y-43511D03*
G01X-22301Y-38511D03*
G01X-22301Y-37261D03*
G54D11*
G01X-25451Y-35411D03*
G54D13*
G01X19332Y-34417D03*
G54D14*
G01X16830Y-34417D03*
G01X14331Y-34417D03*
G01X11831Y-34417D03*
G01X9332Y-34417D03*
G01X6830Y-34417D03*
G54D15*
G01X40640Y-14732D03*
G54D16*
G01X40640Y-17272D03*
G01X40640Y-19812D03*
G01X40640Y-22352D03*
G54D17*
G01X-22733Y14991D03*
G01X-22733Y12451D03*
G54D18*
G01X-22733Y9911D03*
G54D19*
G01X42291Y26670D03*
G54D20*
G01X44831Y26670D03*
G01X42291Y24130D03*
G01X44831Y24130D03*
G01X42291Y21590D03*
G01X44831Y21590D03*
G01X42291Y19050D03*
G01X44831Y19050D03*
G54D21*
G01X843Y-46482D03*
G01X843Y-49022D03*
G01X3383Y-49022D03*
G01X3383Y-46482D03*
G01X5923Y-49022D03*
G01X5923Y-46482D03*
G01X8463Y-49022D03*
G01X8463Y-46482D03*
G01X11003Y-49022D03*
G01X11003Y-46482D03*
G01X13543Y-49022D03*
G01X13543Y-46482D03*
G01X16083Y-49022D03*
G01X16083Y-46482D03*
G01X18623Y-49022D03*
G01X18623Y-46482D03*
G01X21163Y-49022D03*
G01X21163Y-46482D03*
G01X23703Y-49022D03*
G01X23703Y-46482D03*
G01X26243Y-49022D03*
G54D22*
G01X26243Y-46482D03*
G54D23*
G01X-17526Y-16383D03*
G54D24*
G01X-17526Y-18923D03*
G01X-17526Y-21463D03*
G01X-17526Y-24003D03*
G01X-17526Y-26543D03*
G01X-17526Y-29083D03*
G01X-17526Y-31623D03*
G01X-17526Y-34163D03*
G01X-15141Y14991D03*
G01X-17681Y14991D03*
G01X-15141Y12451D03*
G01X-17681Y12451D03*
G01X-15141Y9911D03*
G01X-17681Y9911D03*
G01X-15141Y7371D03*
G01X-17681Y7371D03*
G01X-15141Y4831D03*
G01X-17681Y4831D03*
G01X-15141Y2291D03*
G01X-17681Y2291D03*
G01X-15141Y-249D03*
G01X-17681Y-249D03*
G01X-15141Y-2789D03*
G54D25*
G01X-17681Y-2789D03*
G54D24*
G01X42319Y-2789D03*
G01X44859Y-2789D03*
G01X42319Y-249D03*
G01X44859Y-249D03*
G01X42319Y2291D03*
G01X44859Y2291D03*
G01X42319Y4831D03*
G01X44859Y4831D03*
G01X42319Y7371D03*
G01X44859Y7371D03*
G01X42319Y9911D03*
G01X44859Y9911D03*
G01X42319Y12451D03*
G01X44859Y12451D03*
G01X42319Y14991D03*
G54D23*
G01X44859Y14991D03*
G54D26*
G01X33033Y-46355D03*
G54D27*
G01X35533Y-46355D03*
G01X38033Y-46355D03*
G01X40533Y-46355D03*
G01X43033Y-46355D03*
G01X45533Y-46355D03*
G01X48033Y-46355D03*
G01X50533Y-46355D03*
G54D24*
G01X15240Y-4540D03*
G01X15240Y-540D03*
G04 Pad End*

M02*
