G04 Layer: TopSolderMaskLayer*
G04 EasyEDA Pro v2.1.21.9b64d12f.b3811b, 2024-07-11 22:11:45*
G04 Gerber Generator version 0.3*
G04 Scale: 100 percent, Rotated: No, Reflected: No*
G04 Dimensions in millimeters*
G04 Leading zeros omitted, absolute positions, 3 integers and 3 decimals*
%FSLAX33Y33*%
%MOMM*%
%AMRoundRect*1,1,$1,$2,$3*1,1,$1,$4,$5*1,1,$1,0-$2,0-$3*1,1,$1,0-$4,0-$5*20,1,$1,$2,$3,$4,$5,0*20,1,$1,$4,$5,0-$2,0-$3,0*20,1,$1,0-$2,0-$3,0-$4,0-$5,0*20,1,$1,0-$4,0-$5,$2,$3,0*4,1,4,$2,$3,$4,$5,0-$2,0-$3,0-$4,0-$5,$2,$3,0*%
%ADD10C,1.703*%
%ADD11RoundRect,0.094X0.57X-0.692X-0.57X-0.692*%
%ADD12RoundRect,0.093X-0.504X0.629X0.504X0.629*%
%ADD13RoundRect,0.094X-0.57X0.692X0.57X0.692*%
%ADD14RoundRect,0.093X0.504X-0.629X-0.504X-0.629*%
%ADD15RoundRect,0.094X0.57X-0.692X-0.57X-0.692*%
%ADD16RoundRect,0.09X0.356X0.631X0.356X-0.631*%
%ADD17RoundRect,0.096X-0.803X0.803X0.803X0.803*%
%ADD18C,1.702*%
%ADD19RoundRect,0.096X0.853X0.853X0.853X-0.853*%
%ADD20C,1.802*%
%ADD21RoundRect,0.095X0.639X-1.404X-0.639X-1.404*%
%ADD22C,1.676*%
%ADD23RoundRect,0.096X-0.79X-0.79X-0.79X0.79*%
%ADD24RoundRect,0.096X0.803X0.803X0.803X-0.803*%
%ADD25C,1.702*%
%ADD26RoundRect,0.093X-0.354X1.067X1.067X-0.354*%
%ADD27RoundRect,0.093X-0.212X0.925X0.925X-0.212*%
%ADD28RoundRect,0.096X0.0X1.065X1.065X0.0*%
%ADD29RoundRect,0.09X0.656X0.356X0.656X-0.356*%
%ADD30RoundRect,0.094X-0.692X-0.57X-0.692X0.57*%
%ADD31RoundRect,0.095X-0.678X-0.708X-0.678X0.708*%
%ADD32RoundRect,0.093X0.514X-1.254X-0.514X-1.254*%
%ADD33C,1.9*%
%ADD34RoundRect,0.095X0.902X-0.902X-0.902X-0.902*%
%ADD35RoundRect,0.096X0.903X0.903X0.903X-0.903*%
%ADD36C,1.902*%
%ADD37RoundRect,0.096X-0.903X-0.903X-0.903X0.903*%
%ADD38RoundRect,0.096X-0.765X0.765X0.765X0.765*%
%ADD39C,1.626*%
%ADD40RoundRect,0.094X0.692X0.57X0.692X-0.57*%
G75*


G04 Pad Start*
G54D10*
G01X31323Y22021D03*
G01X33863Y22021D03*
G01X8463Y22021D03*
G01X33863Y16941D03*
G01X31323Y16941D03*
G01X31323Y14401D03*
G01X33863Y14401D03*
G01X33863Y11861D03*
G01X31323Y11861D03*
G01X31323Y9321D03*
G01X33863Y9321D03*
G01X33863Y6781D03*
G01X31323Y6781D03*
G01X33863Y4241D03*
G01X31323Y4241D03*
G01X33863Y1701D03*
G01X31323Y1701D03*
G01X33863Y-839D03*
G01X31323Y-839D03*
G01X33863Y-3379D03*
G01X31323Y-3379D03*
G01X31323Y-5919D03*
G01X33863Y-5919D03*
G01X31323Y-8459D03*
G01X33863Y-8459D03*
G01X33863Y-10999D03*
G01X31323Y-10999D03*
G01X31323Y-13539D03*
G01X33863Y-13539D03*
G01X31323Y-18619D03*
G01X33863Y-16079D03*
G01X31323Y-16079D03*
G01X33863Y-18619D03*
G01X33863Y-21159D03*
G01X31323Y-21159D03*
G01X31323Y-23699D03*
G01X33863Y-23699D03*
G01X33863Y-26239D03*
G01X31323Y-26239D03*
G01X28783Y-26239D03*
G01X28783Y-23699D03*
G01X26243Y-23699D03*
G01X26243Y-26239D03*
G01X23703Y-23699D03*
G01X23703Y-26239D03*
G01X21163Y-26239D03*
G01X21163Y-23699D03*
G01X5923Y-23699D03*
G01X5923Y-26239D03*
G01X3383Y-26239D03*
G01X3383Y-23699D03*
G01X843Y-26239D03*
G01X843Y-23699D03*
G01X-1697Y-23699D03*
G01X-1697Y-26239D03*
G01X-4237Y-26239D03*
G01X-6777Y-26239D03*
G01X-4237Y-23699D03*
G01X-6777Y-23699D03*
G01X-6777Y-21159D03*
G01X-4237Y-21159D03*
G01X-6777Y-18619D03*
G01X-4237Y-18619D03*
G01X-4237Y-16079D03*
G01X-6777Y-16079D03*
G01X-6777Y-13539D03*
G01X-4237Y-13539D03*
G01X-6777Y-10999D03*
G01X-4237Y-8459D03*
G01X-6777Y-8459D03*
G01X-6777Y-5919D03*
G01X-4237Y-5919D03*
G01X-4237Y-3379D03*
G01X-4237Y-839D03*
G01X-6777Y1701D03*
G01X-4237Y1701D03*
G01X-4237Y4241D03*
G01X-6777Y4241D03*
G01X-6777Y6781D03*
G01X-4237Y6781D03*
G01X-4237Y9321D03*
G01X-6777Y9321D03*
G01X-6777Y11861D03*
G01X-4237Y11861D03*
G01X-4237Y14401D03*
G01X-6777Y14401D03*
G01X-4237Y16941D03*
G01X-4237Y19481D03*
G01X3383Y19481D03*
G01X843Y19481D03*
G01X5923Y19481D03*
G01X8463Y19481D03*
G01X11003Y19481D03*
G01X13543Y19481D03*
G01X16083Y19481D03*
G01X18623Y19481D03*
G01X21163Y19481D03*
G01X23703Y19481D03*
G01X26243Y19481D03*
G01X28783Y19481D03*
G01X31323Y19481D03*
G01X33863Y19481D03*
G01X28783Y22021D03*
G01X26243Y22021D03*
G01X23703Y22021D03*
G01X21163Y22021D03*
G01X18623Y22021D03*
G01X16083Y22021D03*
G01X13543Y22021D03*
G01X11003Y22021D03*
G01X5923Y22021D03*
G01X843Y22021D03*
G01X-6777Y16941D03*
G01X-6777Y19481D03*
G01X-6777Y22021D03*
G01X3383Y22021D03*
G01X-6777Y-839D03*
G01X-6777Y-3379D03*
G01X-4237Y22021D03*
G01X-1697Y22021D03*
G01X-1697Y19481D03*
G01X-4237Y-10999D03*
G54D11*
G01X46953Y2291D03*
G01X48953Y2291D03*
G54D12*
G01X50843Y2296D03*
G01X53043Y2296D03*
G54D11*
G01X46953Y7371D03*
G01X48953Y7371D03*
G54D12*
G01X50843Y7376D03*
G01X53043Y7376D03*
G54D13*
G01X-19955Y7239D03*
G01X-21955Y7239D03*
G54D14*
G01X-23792Y7239D03*
G01X-25992Y7239D03*
G54D15*
G01X25582Y6654D03*
G01X27582Y6654D03*
G01X25582Y9194D03*
G01X27582Y9194D03*
G01X25582Y11734D03*
G01X27582Y11734D03*
G01X25582Y14274D03*
G01X27582Y14274D03*
G01X25582Y-6046D03*
G01X27582Y-6046D03*
G01X25582Y-3506D03*
G01X27582Y-3506D03*
G01X25582Y-966D03*
G01X27582Y-966D03*
G01X25582Y4114D03*
G01X27582Y4114D03*
G01X25582Y1574D03*
G01X27582Y1574D03*
G54D13*
G01X8828Y-5660D03*
G01X6828Y-5660D03*
G01X8828Y-3202D03*
G01X6828Y-3202D03*
G54D16*
G01X6878Y-1199D03*
G01X8778Y-1199D03*
G01X7828Y801D03*
G54D17*
G01X19332Y-34417D03*
G54D18*
G01X16830Y-34417D03*
G01X14331Y-34417D03*
G01X11831Y-34417D03*
G01X9332Y-34417D03*
G01X6830Y-34417D03*
G54D19*
G01X40640Y-14732D03*
G54D20*
G01X40640Y-17272D03*
G01X40640Y-19812D03*
G01X40640Y-22352D03*
G54D11*
G01X-1635Y-10922D03*
G01X365Y-10922D03*
G54D21*
G01X-4028Y33216D03*
G01X-4028Y27617D03*
G01X-6568Y33216D03*
G01X-6568Y27617D03*
G01X-9108Y33216D03*
G01X-9108Y27617D03*
G01X8672Y33216D03*
G01X8672Y27617D03*
G01X6132Y33216D03*
G01X6132Y27617D03*
G01X3592Y33216D03*
G01X3592Y27617D03*
G54D22*
G01X-22733Y14991D03*
G01X-22733Y12451D03*
G54D23*
G01X-22733Y9911D03*
G54D24*
G01X42291Y26670D03*
G54D25*
G01X44831Y26670D03*
G01X42291Y24130D03*
G01X44831Y24130D03*
G01X42291Y21590D03*
G01X44831Y21590D03*
G01X42291Y19050D03*
G01X44831Y19050D03*
G54D26*
G01X47667Y-28542D03*
G01X46677Y-29532D03*
G54D27*
G01X45829Y-30664D03*
G54D26*
G01X52865Y-33740D03*
G01X51875Y-34730D03*
G01X50885Y-35720D03*
G54D28*
G01X52087Y-29320D03*
G01X46465Y-34942D03*
G54D29*
G01X52194Y-25455D03*
G01X47694Y-25455D03*
G01X52194Y-23304D03*
G01X47694Y-23304D03*
G01X52194Y-20840D03*
G01X47694Y-20840D03*
G01X52194Y-18690D03*
G01X47694Y-18690D03*
G01X52194Y-16226D03*
G01X47694Y-16226D03*
G01X52194Y-14076D03*
G01X47694Y-14076D03*
G01X52194Y-11612D03*
G01X47694Y-11612D03*
G01X52194Y-9461D03*
G01X47694Y-9461D03*
G54D30*
G01X1651Y6080D03*
G01X1651Y4080D03*
G01X1651Y10030D03*
G01X1651Y8030D03*
G54D31*
G01X-1270Y10017D03*
G01X-1270Y8017D03*
G54D11*
G01X46953Y12451D03*
G01X48953Y12451D03*
G54D12*
G01X50843Y12456D03*
G01X53043Y12456D03*
G54D32*
G01X28194Y27416D03*
G01X28194Y33416D03*
G01X30734Y27416D03*
G01X30734Y33416D03*
G01X33274Y27416D03*
G01X33274Y33416D03*
G01X35814Y27416D03*
G01X35814Y33416D03*
G01X25654Y33417D03*
G01X25654Y27417D03*
G01X23114Y33417D03*
G01X23114Y27417D03*
G01X20574Y33417D03*
G01X20574Y27417D03*
G01X18034Y33417D03*
G01X18034Y27417D03*
G54D33*
G01X843Y-46482D03*
G01X843Y-49022D03*
G01X3383Y-49022D03*
G01X3383Y-46482D03*
G01X5923Y-49022D03*
G01X5923Y-46482D03*
G01X8463Y-49022D03*
G01X8463Y-46482D03*
G01X11003Y-49022D03*
G01X11003Y-46482D03*
G01X13543Y-49022D03*
G01X13543Y-46482D03*
G01X16083Y-49022D03*
G01X16083Y-46482D03*
G01X18623Y-49022D03*
G01X18623Y-46482D03*
G01X21163Y-49022D03*
G01X21163Y-46482D03*
G01X23703Y-49022D03*
G01X23703Y-46482D03*
G01X26243Y-49022D03*
G54D34*
G01X26243Y-46482D03*
G54D35*
G01X-17526Y-16383D03*
G54D36*
G01X-17526Y-18923D03*
G01X-17526Y-21463D03*
G01X-17526Y-24003D03*
G01X-17526Y-26543D03*
G01X-17526Y-29083D03*
G01X-17526Y-31623D03*
G01X-17526Y-34163D03*
G01X-15141Y14991D03*
G01X-17681Y14991D03*
G01X-15141Y12451D03*
G01X-17681Y12451D03*
G01X-15141Y9911D03*
G01X-17681Y9911D03*
G01X-15141Y7371D03*
G01X-17681Y7371D03*
G01X-15141Y4831D03*
G01X-17681Y4831D03*
G01X-15141Y2291D03*
G01X-17681Y2291D03*
G01X-15141Y-249D03*
G01X-17681Y-249D03*
G01X-15141Y-2789D03*
G54D37*
G01X-17681Y-2789D03*
G54D36*
G01X42319Y-2789D03*
G01X44859Y-2789D03*
G01X42319Y-249D03*
G01X44859Y-249D03*
G01X42319Y2291D03*
G01X44859Y2291D03*
G01X42319Y4831D03*
G01X44859Y4831D03*
G01X42319Y7371D03*
G01X44859Y7371D03*
G01X42319Y9911D03*
G01X44859Y9911D03*
G01X42319Y12451D03*
G01X44859Y12451D03*
G01X42319Y14991D03*
G54D35*
G01X44859Y14991D03*
G54D38*
G01X33033Y-46355D03*
G54D39*
G01X35533Y-46355D03*
G01X38033Y-46355D03*
G01X40533Y-46355D03*
G01X43033Y-46355D03*
G01X45533Y-46355D03*
G01X48033Y-46355D03*
G01X50533Y-46355D03*
G54D40*
G01X4826Y-3159D03*
G01X4826Y-1159D03*
G54D36*
G01X15240Y-4540D03*
G01X15240Y-540D03*
G04 Pad End*

M02*
