G04 Layer: BottomLayer*
G04 EasyEDA Pro v2.1.21.9b64d12f.b3811b, 2024-07-11 22:11:45*
G04 Gerber Generator version 0.3*
G04 Scale: 100 percent, Rotated: No, Reflected: No*
G04 Dimensions in millimeters*
G04 Leading zeros omitted, absolute positions, 3 integers and 3 decimals*
%FSLAX33Y33*%
%MOMM*%
%ADD8191C,0.203*%
%ADD10C,1.5*%
%ADD11R,2.8X1.0*%
%ADD12R,1.7X0.6*%
%ADD13R,1.6X1.6*%
%ADD14C,1.6*%
%ADD15R,1.7042X1.7*%
%ADD16R,1.7X1.7*%
%ADD17C,1.7*%
%ADD18C,1.575*%
%ADD19R,1.575X1.575*%
%ADD20R,1.6X1.6*%
%ADD21C,1.6*%
%ADD22C,1.8*%
%ADD23R,1.8X1.8*%
%ADD24R,1.8X1.8*%
%ADD25R,1.8X1.8*%
%ADD26R,1.524X1.524*%
%ADD27C,1.524*%
%ADD28C,0.61*%
%ADD29C,0.203*%
%ADD30C,0.508*%
%ADD31C,1.27*%
%ADD32C,0.762*%
G75*


G04 Copper Start*
G36*
G01X-26820Y-46676D02*
G01X-26820Y-14509D01*
G01X-24477Y-12167D01*
G01X-10583D01*
G01X-8992Y-13758D01*
G01Y-31708D01*
G01X-15068Y-37784D01*
G01X-23211D01*
G03X-23283Y-37814I0J-102D01*
G01X-23694Y-38225D01*
G03X-23724Y-38297I72J-72D01*
G01Y-45995D01*
G01X-24405Y-46676D01*
G01X-26820D01*
G37*
%LPC*%
G36*
G01X-18784Y-34163D02*
G03X-17526Y-35421I1258J0D01*
G03X-16268Y-34163I0J1258D01*
G03X-17526Y-32905I-1258J0D01*
G03X-18784Y-34163I0J-1258D01*
G37*
G36*
G01X-18784Y-31623D02*
G03X-17526Y-32881I1258J0D01*
G03X-16268Y-31623I0J1258D01*
G03X-17526Y-30365I-1258J0D01*
G03X-18784Y-31623I0J-1258D01*
G37*
G36*
G01X-18784Y-29083D02*
G03X-17526Y-30341I1258J0D01*
G03X-16268Y-29083I0J1258D01*
G03X-17526Y-27825I-1258J0D01*
G03X-18784Y-29083I0J-1258D01*
G37*
G36*
G01X-18784Y-26543D02*
G03X-17526Y-27801I1258J0D01*
G03X-16268Y-26543I0J1258D01*
G03X-17526Y-25285I-1258J0D01*
G03X-18784Y-26543I0J-1258D01*
G37*
G36*
G01X-18784Y-24003D02*
G03X-17526Y-25261I1258J0D01*
G03X-16268Y-24003I0J1258D01*
G03X-17526Y-22745I-1258J0D01*
G03X-18784Y-24003I0J-1258D01*
G37*
G36*
G01X-18784Y-21463D02*
G03X-17526Y-22721I1258J0D01*
G03X-16268Y-21463I0J1258D01*
G03X-17526Y-20205I-1258J0D01*
G03X-18784Y-21463I0J-1258D01*
G37*
G36*
G01X-18784Y-18923D02*
G03X-17526Y-20181I1258J0D01*
G03X-16268Y-18923I0J1258D01*
G03X-17526Y-17665I-1258J0D01*
G03X-18784Y-18923I0J-1258D01*
G37*
%LPD*%
G54D8191*
G01X-26820Y-46676D02*
G01X-26820Y-14509D01*
G01X-24477Y-12167D01*
G01X-10583D01*
G01X-8992Y-13758D01*
G01Y-31708D01*
G01X-15068Y-37784D01*
G01X-23211D01*
G03X-23283Y-37814I0J-102D01*
G01X-23694Y-38225D01*
G03X-23724Y-38297I72J-72D01*
G01Y-45995D01*
G01X-24405Y-46676D01*
G01X-26820D01*
G01X-18784Y-34163D02*
G03X-17526Y-35421I1258J0D01*
G03X-16268Y-34163I0J1258D01*
G03X-17526Y-32905I-1258J0D01*
G03X-18784Y-34163I0J-1258D01*
G01X-18784Y-31623D02*
G03X-17526Y-32881I1258J0D01*
G03X-16268Y-31623I0J1258D01*
G03X-17526Y-30365I-1258J0D01*
G03X-18784Y-31623I0J-1258D01*
G01X-18784Y-29083D02*
G03X-17526Y-30341I1258J0D01*
G03X-16268Y-29083I0J1258D01*
G03X-17526Y-27825I-1258J0D01*
G03X-18784Y-29083I0J-1258D01*
G01X-18784Y-26543D02*
G03X-17526Y-27801I1258J0D01*
G03X-16268Y-26543I0J1258D01*
G03X-17526Y-25285I-1258J0D01*
G03X-18784Y-26543I0J-1258D01*
G01X-18784Y-24003D02*
G03X-17526Y-25261I1258J0D01*
G03X-16268Y-24003I0J1258D01*
G03X-17526Y-22745I-1258J0D01*
G03X-18784Y-24003I0J-1258D01*
G01X-18784Y-21463D02*
G03X-17526Y-22721I1258J0D01*
G03X-16268Y-21463I0J1258D01*
G03X-17526Y-20205I-1258J0D01*
G03X-18784Y-21463I0J-1258D01*
G01X-18784Y-18923D02*
G03X-17526Y-20181I1258J0D01*
G03X-16268Y-18923I0J1258D01*
G03X-17526Y-17665I-1258J0D01*
G03X-18784Y-18923I0J-1258D01*
G04 Copper End*

G04 Tear Start*
G36*
G01X33213Y17735D02*
G01X33069Y17591D01*
G01X33101Y17557D01*
G01X33118Y17536D01*
G01X33134Y17515D01*
G01X33147Y17494D01*
G01X33158Y17475D01*
G01X33167Y17455D01*
G01X33174Y17436D01*
G01X33179Y17418D01*
G01X33183Y17399D01*
G01X33185Y17381D01*
G01X33186Y17363D01*
G01X33185Y17345D01*
G01X33184Y17327D01*
G01X33180Y17299D01*
G01X33171Y17262D01*
G01X33141Y17149D01*
G01X33128Y17091D01*
G01X33119Y17040D01*
G01X33115Y17000D01*
G01X33113Y16956D01*
G01Y16910D01*
G01X33114Y16894D01*
G01X33910Y17689D01*
G01X33862Y17691D01*
G01X33818Y17690D01*
G01X33776Y17686D01*
G01X33725Y17678D01*
G01X33666Y17666D01*
G01X33552Y17635D01*
G01X33514Y17626D01*
G01X33486Y17621D01*
G01X33468Y17619D01*
G01X33450Y17618D01*
G01X33432D01*
G01X33413Y17619D01*
G01X33395Y17622D01*
G01X33377Y17627D01*
G01X33358Y17633D01*
G01X33339Y17641D01*
G01X33319Y17651D01*
G01X33299Y17663D01*
G01X33278Y17677D01*
G01X33257Y17694D01*
G01X33224Y17723D01*
G01X33213Y17735D01*
G37*
G36*
G01X32117Y15051D02*
G01X31973Y15195D01*
G01X31939Y15163D01*
G01X31918Y15145D01*
G01X31897Y15130D01*
G01X31876Y15117D01*
G01X31857Y15106D01*
G01X31837Y15097D01*
G01X31818Y15090D01*
G01X31800Y15084D01*
G01X31781Y15081D01*
G01X31763Y15079D01*
G01X31745Y15078D01*
G01X31727D01*
G01X31709Y15080D01*
G01X31681Y15084D01*
G01X31643Y15092D01*
G01X31531Y15123D01*
G01X31473Y15136D01*
G01X31422Y15144D01*
G01X31382Y15149D01*
G01X31338Y15151D01*
G01X31292Y15150D01*
G01X31276Y15149D01*
G01X32071Y14354D01*
G01X32073Y14401D01*
G01X32072Y14446D01*
G01X32068Y14487D01*
G01X32060Y14539D01*
G01X32048Y14598D01*
G01X32017Y14712D01*
G01X32008Y14750D01*
G01X32003Y14777D01*
G01X32001Y14796D01*
G01X32000Y14814D01*
G01Y14832D01*
G01X32001Y14850D01*
G01X32004Y14869D01*
G01X32009Y14887D01*
G01X32015Y14906D01*
G01X32023Y14925D01*
G01X32033Y14945D01*
G01X32045Y14965D01*
G01X32059Y14985D01*
G01X32076Y15006D01*
G01X32105Y15040D01*
G01X32117Y15051D01*
G37*
G36*
G01X33069Y1051D02*
G01X33213Y907D01*
G01X33246Y939D01*
G01X33268Y956D01*
G01X33289Y972D01*
G01X33309Y985D01*
G01X33329Y996D01*
G01X33348Y1005D01*
G01X33367Y1012D01*
G01X33386Y1017D01*
G01X33404Y1021D01*
G01X33423Y1023D01*
G01X33441Y1024D01*
G01X33459Y1023D01*
G01X33477Y1022D01*
G01X33505Y1018D01*
G01X33542Y1009D01*
G01X33655Y979D01*
G01X33713Y966D01*
G01X33763Y957D01*
G01X33804Y953D01*
G01X33847Y951D01*
G01X33894D01*
G01X33910Y952D01*
G01X33114Y1748D01*
G01X33113Y1700D01*
G01X33114Y1656D01*
G01X33118Y1615D01*
G01X33125Y1563D01*
G01X33138Y1504D01*
G01X33169Y1390D01*
G01X33178Y1352D01*
G01X33183Y1324D01*
G01X33185Y1306D01*
G01X33186Y1288D01*
G01Y1270D01*
G01X33184Y1251D01*
G01X33181Y1233D01*
G01X33177Y1215D01*
G01X33171Y1196D01*
G01X33163Y1177D01*
G01X33153Y1157D01*
G01X33141Y1137D01*
G01X33126Y1117D01*
G01X33110Y1095D01*
G01X33080Y1062D01*
G01X33069Y1051D01*
G37*
G36*
G01X30302Y1802D02*
G01X30302Y1599D01*
G01X30348Y1598D01*
G01X30376Y1595D01*
G01X30401Y1591D01*
G01X30425Y1586D01*
G01X30447Y1580D01*
G01X30467Y1573D01*
G01X30485Y1564D01*
G01X30502Y1555D01*
G01X30518Y1544D01*
G01X30532Y1533D01*
G01X30546Y1521D01*
G01X30558Y1507D01*
G01X30570Y1493D01*
G01X30586Y1471D01*
G01X30607Y1439D01*
G01X30665Y1338D01*
G01X30697Y1287D01*
G01X30727Y1245D01*
G01X30752Y1214D01*
G01X30782Y1181D01*
G01X30815Y1149D01*
G01X30827Y1138D01*
G01Y2263D01*
G01X30792Y2231D01*
G01X30762Y2199D01*
G01X30735Y2167D01*
G01X30704Y2125D01*
G01X30671Y2074D01*
G01X30612Y1972D01*
G01X30592Y1938D01*
G01X30576Y1915D01*
G01X30564Y1901D01*
G01X30552Y1888D01*
G01X30539Y1875D01*
G01X30525Y1863D01*
G01X30510Y1852D01*
G01X30494Y1842D01*
G01X30476Y1833D01*
G01X30457Y1825D01*
G01X30436Y1818D01*
G01X30414Y1813D01*
G01X30389Y1808D01*
G01X30362Y1805D01*
G01X30318Y1803D01*
G01X30302Y1802D01*
G37*
G36*
G01X34513Y-4173D02*
G01X34657Y-4029D01*
G01X34625Y-3996D01*
G01X34607Y-3974D01*
G01X34592Y-3953D01*
G01X34579Y-3933D01*
G01X34568Y-3913D01*
G01X34559Y-3894D01*
G01X34552Y-3875D01*
G01X34546Y-3856D01*
G01X34543Y-3838D01*
G01X34540Y-3819D01*
G01Y-3801D01*
G01Y-3783D01*
G01X34542Y-3765D01*
G01X34546Y-3737D01*
G01X34554Y-3700D01*
G01X34585Y-3587D01*
G01X34598Y-3529D01*
G01X34606Y-3479D01*
G01X34611Y-3438D01*
G01X34613Y-3395D01*
G01X34612Y-3348D01*
G01X34611Y-3332D01*
G01X33816Y-4128D01*
G01X33863Y-4129D01*
G01X33907Y-4128D01*
G01X33949Y-4124D01*
G01X34001Y-4117D01*
G01X34060Y-4104D01*
G01X34174Y-4073D01*
G01X34212Y-4064D01*
G01X34239Y-4059D01*
G01X34258Y-4057D01*
G01X34276Y-4056D01*
G01X34294D01*
G01X34312Y-4058D01*
G01X34330Y-4061D01*
G01X34349Y-4065D01*
G01X34368Y-4071D01*
G01X34387Y-4079D01*
G01X34406Y-4089D01*
G01X34426Y-4101D01*
G01X34447Y-4116D01*
G01X34468Y-4132D01*
G01X34501Y-4162D01*
G01X34513Y-4173D01*
G37*
G36*
G01X31973Y-4173D02*
G01X32117Y-4029D01*
G01X32085Y-3996D01*
G01X32067Y-3974D01*
G01X32052Y-3953D01*
G01X32039Y-3933D01*
G01X32028Y-3913D01*
G01X32019Y-3894D01*
G01X32012Y-3875D01*
G01X32006Y-3856D01*
G01X32003Y-3838D01*
G01X32000Y-3819D01*
G01Y-3801D01*
G01Y-3783D01*
G01X32002Y-3765D01*
G01X32006Y-3737D01*
G01X32014Y-3700D01*
G01X32045Y-3587D01*
G01X32058Y-3529D01*
G01X32066Y-3479D01*
G01X32071Y-3438D01*
G01X32073Y-3395D01*
G01X32072Y-3348D01*
G01X32071Y-3332D01*
G01X31276Y-4128D01*
G01X31323Y-4129D01*
G01X31367Y-4128D01*
G01X31409Y-4124D01*
G01X31461Y-4117D01*
G01X31520Y-4104D01*
G01X31634Y-4073D01*
G01X31672Y-4064D01*
G01X31699Y-4059D01*
G01X31718Y-4057D01*
G01X31736Y-4056D01*
G01X31754D01*
G01X31772Y-4058D01*
G01X31790Y-4061D01*
G01X31809Y-4065D01*
G01X31828Y-4071D01*
G01X31847Y-4079D01*
G01X31866Y-4089D01*
G01X31886Y-4101D01*
G01X31907Y-4116D01*
G01X31928Y-4132D01*
G01X31961Y-4162D01*
G01X31973Y-4173D01*
G37*
G36*
G01X31973Y-14333D02*
G01X32117Y-14189D01*
G01X32085Y-14156D01*
G01X32067Y-14134D01*
G01X32052Y-14113D01*
G01X32039Y-14093D01*
G01X32028Y-14073D01*
G01X32019Y-14054D01*
G01X32012Y-14035D01*
G01X32006Y-14016D01*
G01X32003Y-13998D01*
G01X32000Y-13979D01*
G01Y-13961D01*
G01Y-13943D01*
G01X32002Y-13925D01*
G01X32006Y-13897D01*
G01X32014Y-13860D01*
G01X32045Y-13747D01*
G01X32058Y-13689D01*
G01X32066Y-13639D01*
G01X32071Y-13598D01*
G01X32073Y-13555D01*
G01X32072Y-13508D01*
G01X32071Y-13492D01*
G01X31276Y-14288D01*
G01X31323Y-14289D01*
G01X31367Y-14288D01*
G01X31409Y-14284D01*
G01X31461Y-14277D01*
G01X31520Y-14264D01*
G01X31634Y-14233D01*
G01X31672Y-14224D01*
G01X31699Y-14219D01*
G01X31718Y-14217D01*
G01X31736Y-14216D01*
G01X31754D01*
G01X31772Y-14218D01*
G01X31790Y-14221D01*
G01X31809Y-14225D01*
G01X31828Y-14231D01*
G01X31847Y-14239D01*
G01X31866Y-14249D01*
G01X31886Y-14261D01*
G01X31907Y-14276D01*
G01X31928Y-14292D01*
G01X31961Y-14322D01*
G01X31973Y-14333D01*
G37*
G36*
G01X34884Y-13641D02*
G01X34884Y-13438D01*
G01X34838Y-13436D01*
G01X34810Y-13433D01*
G01X34784Y-13430D01*
G01X34760Y-13425D01*
G01X34739Y-13418D01*
G01X34719Y-13411D01*
G01X34700Y-13403D01*
G01X34683Y-13393D01*
G01X34668Y-13383D01*
G01X34653Y-13371D01*
G01X34640Y-13359D01*
G01X34627Y-13346D01*
G01X34616Y-13332D01*
G01X34599Y-13309D01*
G01X34578Y-13277D01*
G01X34520Y-13176D01*
G01X34489Y-13125D01*
G01X34459Y-13084D01*
G01X34433Y-13052D01*
G01X34404Y-13020D01*
G01X34371Y-12987D01*
G01X34359Y-12977D01*
G01Y-14102D01*
G01X34393Y-14069D01*
G01X34424Y-14037D01*
G01X34451Y-14005D01*
G01X34482Y-13963D01*
G01X34515Y-13912D01*
G01X34573Y-13810D01*
G01X34594Y-13777D01*
G01X34610Y-13754D01*
G01X34621Y-13739D01*
G01X34634Y-13726D01*
G01X34646Y-13713D01*
G01X34660Y-13701D01*
G01X34675Y-13690D01*
G01X34692Y-13680D01*
G01X34709Y-13671D01*
G01X34728Y-13664D01*
G01X34749Y-13657D01*
G01X34772Y-13651D01*
G01X34797Y-13647D01*
G01X34823Y-13643D01*
G01X34868Y-13641D01*
G01X34884D01*
G37*
G36*
G01X31221Y-27260D02*
G01X31424Y-27260D01*
G01X31426Y-27214D01*
G01X31428Y-27186D01*
G01X31432Y-27160D01*
G01X31437Y-27137D01*
G01X31444Y-27115D01*
G01X31451Y-27095D01*
G01X31459Y-27077D01*
G01X31469Y-27060D01*
G01X31479Y-27044D01*
G01X31491Y-27030D01*
G01X31503Y-27016D01*
G01X31516Y-27004D01*
G01X31530Y-26992D01*
G01X31553Y-26976D01*
G01X31585Y-26955D01*
G01X31686Y-26897D01*
G01X31736Y-26865D01*
G01X31778Y-26835D01*
G01X31810Y-26810D01*
G01X31842Y-26780D01*
G01X31874Y-26747D01*
G01X31885Y-26735D01*
G01X30760D01*
G01X30793Y-26770D01*
G01X30825Y-26800D01*
G01X30857Y-26827D01*
G01X30899Y-26858D01*
G01X30950Y-26891D01*
G01X31052Y-26950D01*
G01X31085Y-26970D01*
G01X31108Y-26986D01*
G01X31123Y-26998D01*
G01X31136Y-27010D01*
G01X31149Y-27023D01*
G01X31161Y-27037D01*
G01X31172Y-27052D01*
G01X31182Y-27068D01*
G01X31190Y-27086D01*
G01X31198Y-27105D01*
G01X31205Y-27126D01*
G01X31211Y-27148D01*
G01X31215Y-27173D01*
G01X31219Y-27200D01*
G01X31221Y-27244D01*
G01Y-27260D01*
G37*
G36*
G01X28681Y-27260D02*
G01X28884Y-27260D01*
G01X28886Y-27214D01*
G01X28888Y-27186D01*
G01X28892Y-27160D01*
G01X28897Y-27137D01*
G01X28904Y-27115D01*
G01X28911Y-27095D01*
G01X28919Y-27077D01*
G01X28929Y-27060D01*
G01X28939Y-27044D01*
G01X28951Y-27030D01*
G01X28963Y-27016D01*
G01X28976Y-27004D01*
G01X28990Y-26992D01*
G01X29013Y-26976D01*
G01X29045Y-26955D01*
G01X29146Y-26897D01*
G01X29196Y-26865D01*
G01X29238Y-26835D01*
G01X29270Y-26810D01*
G01X29302Y-26780D01*
G01X29334Y-26747D01*
G01X29345Y-26735D01*
G01X28220D01*
G01X28253Y-26770D01*
G01X28285Y-26800D01*
G01X28317Y-26827D01*
G01X28359Y-26858D01*
G01X28410Y-26891D01*
G01X28512Y-26950D01*
G01X28545Y-26970D01*
G01X28568Y-26986D01*
G01X28583Y-26998D01*
G01X28596Y-27010D01*
G01X28609Y-27023D01*
G01X28621Y-27037D01*
G01X28632Y-27052D01*
G01X28642Y-27068D01*
G01X28650Y-27086D01*
G01X28658Y-27105D01*
G01X28665Y-27126D01*
G01X28671Y-27148D01*
G01X28675Y-27173D01*
G01X28679Y-27200D01*
G01X28681Y-27244D01*
G01Y-27260D01*
G37*
G36*
G01X27989Y-24349D02*
G01X28133Y-24493D01*
G01X28166Y-24461D01*
G01X28188Y-24444D01*
G01X28209Y-24428D01*
G01X28229Y-24415D01*
G01X28249Y-24404D01*
G01X28268Y-24395D01*
G01X28287Y-24388D01*
G01X28306Y-24383D01*
G01X28324Y-24379D01*
G01X28343Y-24377D01*
G01X28361Y-24376D01*
G01X28379Y-24377D01*
G01X28397Y-24378D01*
G01X28425Y-24382D01*
G01X28462Y-24391D01*
G01X28575Y-24421D01*
G01X28633Y-24434D01*
G01X28683Y-24443D01*
G01X28724Y-24447D01*
G01X28767Y-24449D01*
G01X28814D01*
G01X28830Y-24448D01*
G01X28034Y-23652D01*
G01X28033Y-23700D01*
G01X28034Y-23744D01*
G01X28038Y-23785D01*
G01X28045Y-23837D01*
G01X28058Y-23896D01*
G01X28089Y-24010D01*
G01X28098Y-24048D01*
G01X28103Y-24076D01*
G01X28105Y-24094D01*
G01X28106Y-24112D01*
G01Y-24130D01*
G01X28104Y-24149D01*
G01X28101Y-24167D01*
G01X28097Y-24185D01*
G01X28091Y-24204D01*
G01X28083Y-24223D01*
G01X28073Y-24243D01*
G01X28061Y-24263D01*
G01X28046Y-24283D01*
G01X28030Y-24305D01*
G01X28000Y-24338D01*
G01X27989Y-24349D01*
G37*
G36*
G01X26141Y-27260D02*
G01X26344Y-27260D01*
G01X26346Y-27214D01*
G01X26348Y-27186D01*
G01X26352Y-27160D01*
G01X26357Y-27137D01*
G01X26364Y-27115D01*
G01X26371Y-27095D01*
G01X26379Y-27077D01*
G01X26389Y-27060D01*
G01X26399Y-27044D01*
G01X26411Y-27030D01*
G01X26423Y-27016D01*
G01X26436Y-27004D01*
G01X26450Y-26992D01*
G01X26473Y-26976D01*
G01X26505Y-26955D01*
G01X26606Y-26897D01*
G01X26656Y-26865D01*
G01X26698Y-26835D01*
G01X26730Y-26810D01*
G01X26762Y-26780D01*
G01X26794Y-26747D01*
G01X26805Y-26735D01*
G01X25680D01*
G01X25713Y-26770D01*
G01X25745Y-26800D01*
G01X25777Y-26827D01*
G01X25819Y-26858D01*
G01X25870Y-26891D01*
G01X25972Y-26950D01*
G01X26005Y-26970D01*
G01X26028Y-26986D01*
G01X26043Y-26998D01*
G01X26056Y-27010D01*
G01X26069Y-27023D01*
G01X26081Y-27037D01*
G01X26092Y-27052D01*
G01X26102Y-27068D01*
G01X26110Y-27086D01*
G01X26118Y-27105D01*
G01X26125Y-27126D01*
G01X26131Y-27148D01*
G01X26135Y-27173D01*
G01X26139Y-27200D01*
G01X26141Y-27244D01*
G01Y-27260D01*
G37*
G36*
G01X23601Y-27260D02*
G01X23804Y-27260D01*
G01X23806Y-27214D01*
G01X23808Y-27186D01*
G01X23812Y-27160D01*
G01X23817Y-27137D01*
G01X23824Y-27115D01*
G01X23831Y-27095D01*
G01X23839Y-27077D01*
G01X23849Y-27060D01*
G01X23859Y-27044D01*
G01X23871Y-27030D01*
G01X23883Y-27016D01*
G01X23896Y-27004D01*
G01X23910Y-26992D01*
G01X23933Y-26976D01*
G01X23965Y-26955D01*
G01X24066Y-26897D01*
G01X24116Y-26865D01*
G01X24158Y-26835D01*
G01X24190Y-26810D01*
G01X24222Y-26780D01*
G01X24254Y-26747D01*
G01X24265Y-26735D01*
G01X23140D01*
G01X23173Y-26770D01*
G01X23205Y-26800D01*
G01X23237Y-26827D01*
G01X23279Y-26858D01*
G01X23330Y-26891D01*
G01X23432Y-26950D01*
G01X23465Y-26970D01*
G01X23488Y-26986D01*
G01X23503Y-26998D01*
G01X23516Y-27010D01*
G01X23529Y-27023D01*
G01X23541Y-27037D01*
G01X23552Y-27052D01*
G01X23562Y-27068D01*
G01X23570Y-27086D01*
G01X23578Y-27105D01*
G01X23585Y-27126D01*
G01X23591Y-27148D01*
G01X23595Y-27173D01*
G01X23599Y-27200D01*
G01X23601Y-27244D01*
G01Y-27260D01*
G37*
G36*
G01X2764Y-24524D02*
G01X2908Y-24668D01*
G01X2931Y-24647D01*
G01X2956Y-24626D01*
G01X2984Y-24606D01*
G01X3031Y-24578D01*
G01X3080Y-24551D01*
G01X3133Y-24526D01*
G01X3187Y-24505D01*
G01X3242Y-24486D01*
G01X3296Y-24470D01*
G01X3349Y-24458D01*
G01X3399Y-24451D01*
G01X3430Y-24448D01*
G01X2634Y-23652D01*
G01Y-23678D01*
G01X2635Y-23704D01*
G01X2638Y-23731D01*
G01X2646Y-23773D01*
G01X2656Y-23816D01*
G01X2679Y-23890D01*
G01X2764Y-24117D01*
G01X2794Y-24207D01*
G01X2809Y-24264D01*
G01X2817Y-24306D01*
G01X2820Y-24333D01*
G01X2822Y-24359D01*
G01Y-24384D01*
G01X2819Y-24409D01*
G01X2818Y-24420D01*
G01X2815Y-24432D01*
G01X2812Y-24443D01*
G01X2808Y-24455D01*
G01X2804Y-24465D01*
G01X2799Y-24476D01*
G01X2794Y-24486D01*
G01X2787Y-24496D01*
G01X2780Y-24506D01*
G01X2772Y-24515D01*
G01X2764Y-24524D01*
G37*
G36*
G01X1493Y-24493D02*
G01X1637Y-24349D01*
G01X1605Y-24316D01*
G01X1587Y-24294D01*
G01X1572Y-24273D01*
G01X1559Y-24253D01*
G01X1548Y-24233D01*
G01X1539Y-24214D01*
G01X1532Y-24195D01*
G01X1526Y-24176D01*
G01X1523Y-24158D01*
G01X1520Y-24139D01*
G01Y-24121D01*
G01Y-24103D01*
G01X1522Y-24085D01*
G01X1526Y-24057D01*
G01X1534Y-24020D01*
G01X1565Y-23907D01*
G01X1578Y-23849D01*
G01X1586Y-23799D01*
G01X1591Y-23758D01*
G01X1593Y-23715D01*
G01X1592Y-23668D01*
G01X1591Y-23652D01*
G01X796Y-24448D01*
G01X843Y-24449D01*
G01X887Y-24448D01*
G01X929Y-24444D01*
G01X981Y-24437D01*
G01X1040Y-24424D01*
G01X1154Y-24393D01*
G01X1192Y-24384D01*
G01X1219Y-24379D01*
G01X1238Y-24377D01*
G01X1256Y-24376D01*
G01X1274D01*
G01X1292Y-24378D01*
G01X1310Y-24381D01*
G01X1329Y-24385D01*
G01X1348Y-24391D01*
G01X1367Y-24399D01*
G01X1386Y-24409D01*
G01X1406Y-24421D01*
G01X1427Y-24436D01*
G01X1448Y-24452D01*
G01X1481Y-24482D01*
G01X1493Y-24493D01*
G37*
G36*
G01X-6879Y-27260D02*
G01X-6676Y-27260D01*
G01X-6674Y-27214D01*
G01X-6672Y-27186D01*
G01X-6668Y-27160D01*
G01X-6663Y-27137D01*
G01X-6656Y-27115D01*
G01X-6649Y-27095D01*
G01X-6641Y-27077D01*
G01X-6631Y-27060D01*
G01X-6621Y-27044D01*
G01X-6609Y-27030D01*
G01X-6597Y-27016D01*
G01X-6584Y-27004D01*
G01X-6570Y-26992D01*
G01X-6547Y-26976D01*
G01X-6515Y-26955D01*
G01X-6414Y-26897D01*
G01X-6364Y-26865D01*
G01X-6322Y-26835D01*
G01X-6290Y-26810D01*
G01X-6258Y-26780D01*
G01X-6226Y-26747D01*
G01X-6215Y-26735D01*
G01X-7340D01*
G01X-7307Y-26770D01*
G01X-7275Y-26800D01*
G01X-7243Y-26827D01*
G01X-7201Y-26858D01*
G01X-7150Y-26891D01*
G01X-7048Y-26950D01*
G01X-7015Y-26970D01*
G01X-6992Y-26986D01*
G01X-6977Y-26998D01*
G01X-6964Y-27010D01*
G01X-6951Y-27023D01*
G01X-6939Y-27037D01*
G01X-6928Y-27052D01*
G01X-6918Y-27068D01*
G01X-6910Y-27086D01*
G01X-6902Y-27105D01*
G01X-6895Y-27126D01*
G01X-6889Y-27148D01*
G01X-6885Y-27173D01*
G01X-6881Y-27200D01*
G01X-6879Y-27244D01*
G01Y-27260D01*
G37*
G36*
G01X-4983Y-24397D02*
G01X-4839Y-24541D01*
G01X-4810Y-24514D01*
G01X-4791Y-24498D01*
G01X-4773Y-24484D01*
G01X-4754Y-24472D01*
G01X-4736Y-24461D01*
G01X-4718Y-24452D01*
G01X-4700Y-24444D01*
G01X-4682Y-24437D01*
G01X-4664Y-24432D01*
G01X-4647Y-24428D01*
G01X-4629Y-24425D01*
G01X-4611Y-24423D01*
G01X-4584Y-24422D01*
G01X-4556D01*
G01X-4519Y-24425D01*
G01X-4387Y-24441D01*
G01X-4319Y-24447D01*
G01X-4257Y-24449D01*
G01X-4204Y-24448D01*
G01X-4190D01*
G01X-4986Y-23652D01*
G01Y-23692D01*
G01X-4983Y-23736D01*
G01X-4971Y-23833D01*
G01X-4933Y-24073D01*
G01X-4925Y-24152D01*
G01X-4924Y-24202D01*
G01X-4926Y-24249D01*
G01X-4928Y-24272D01*
G01X-4932Y-24293D01*
G01X-4937Y-24314D01*
G01X-4943Y-24333D01*
G01X-4951Y-24351D01*
G01X-4960Y-24368D01*
G01X-4971Y-24383D01*
G01X-4983Y-24397D01*
G37*
G36*
G01X-7571Y-24349D02*
G01X-7427Y-24493D01*
G01X-7394Y-24461D01*
G01X-7372Y-24444D01*
G01X-7351Y-24428D01*
G01X-7331Y-24415D01*
G01X-7311Y-24404D01*
G01X-7292Y-24395D01*
G01X-7273Y-24388D01*
G01X-7254Y-24383D01*
G01X-7236Y-24379D01*
G01X-7217Y-24377D01*
G01X-7199Y-24376D01*
G01X-7181Y-24377D01*
G01X-7163Y-24378D01*
G01X-7135Y-24382D01*
G01X-7098Y-24391D01*
G01X-6985Y-24421D01*
G01X-6927Y-24434D01*
G01X-6877Y-24443D01*
G01X-6836Y-24447D01*
G01X-6793Y-24449D01*
G01X-6746D01*
G01X-6730Y-24448D01*
G01X-7526Y-23652D01*
G01X-7527Y-23700D01*
G01X-7526Y-23744D01*
G01X-7522Y-23785D01*
G01X-7515Y-23837D01*
G01X-7502Y-23896D01*
G01X-7471Y-24010D01*
G01X-7462Y-24048D01*
G01X-7457Y-24076D01*
G01X-7455Y-24094D01*
G01X-7454Y-24112D01*
G01Y-24130D01*
G01X-7456Y-24149D01*
G01X-7459Y-24167D01*
G01X-7463Y-24185D01*
G01X-7469Y-24204D01*
G01X-7477Y-24223D01*
G01X-7487Y-24243D01*
G01X-7499Y-24263D01*
G01X-7514Y-24283D01*
G01X-7530Y-24305D01*
G01X-7560Y-24338D01*
G01X-7571Y-24349D01*
G37*
G36*
G01X-5031Y-21809D02*
G01X-4887Y-21953D01*
G01X-4854Y-21921D01*
G01X-4832Y-21904D01*
G01X-4811Y-21888D01*
G01X-4791Y-21875D01*
G01X-4771Y-21864D01*
G01X-4752Y-21855D01*
G01X-4733Y-21848D01*
G01X-4714Y-21843D01*
G01X-4696Y-21839D01*
G01X-4677Y-21837D01*
G01X-4659Y-21836D01*
G01X-4641Y-21837D01*
G01X-4623Y-21838D01*
G01X-4595Y-21842D01*
G01X-4558Y-21851D01*
G01X-4445Y-21881D01*
G01X-4387Y-21894D01*
G01X-4337Y-21903D01*
G01X-4296Y-21907D01*
G01X-4253Y-21909D01*
G01X-4206D01*
G01X-4190Y-21908D01*
G01X-4986Y-21112D01*
G01X-4987Y-21160D01*
G01X-4986Y-21204D01*
G01X-4982Y-21245D01*
G01X-4975Y-21297D01*
G01X-4962Y-21356D01*
G01X-4931Y-21470D01*
G01X-4922Y-21508D01*
G01X-4917Y-21536D01*
G01X-4915Y-21554D01*
G01X-4914Y-21572D01*
G01Y-21590D01*
G01X-4916Y-21609D01*
G01X-4919Y-21627D01*
G01X-4923Y-21645D01*
G01X-4929Y-21664D01*
G01X-4937Y-21683D01*
G01X-4947Y-21703D01*
G01X-4959Y-21723D01*
G01X-4974Y-21743D01*
G01X-4990Y-21765D01*
G01X-5020Y-21798D01*
G01X-5031Y-21809D01*
G37*
G36*
G01X-3587Y-16873D02*
G01X-3443Y-16729D01*
G01X-3475Y-16696D01*
G01X-3493Y-16674D01*
G01X-3508Y-16653D01*
G01X-3521Y-16633D01*
G01X-3532Y-16613D01*
G01X-3541Y-16594D01*
G01X-3548Y-16575D01*
G01X-3554Y-16556D01*
G01X-3557Y-16538D01*
G01X-3560Y-16519D01*
G01Y-16501D01*
G01Y-16483D01*
G01X-3558Y-16465D01*
G01X-3554Y-16437D01*
G01X-3546Y-16400D01*
G01X-3515Y-16287D01*
G01X-3502Y-16229D01*
G01X-3494Y-16179D01*
G01X-3489Y-16138D01*
G01X-3487Y-16095D01*
G01X-3488Y-16048D01*
G01X-3489Y-16032D01*
G01X-4284Y-16828D01*
G01X-4237Y-16829D01*
G01X-4193Y-16828D01*
G01X-4151Y-16824D01*
G01X-4099Y-16817D01*
G01X-4040Y-16804D01*
G01X-3926Y-16773D01*
G01X-3888Y-16764D01*
G01X-3861Y-16759D01*
G01X-3842Y-16757D01*
G01X-3824Y-16756D01*
G01X-3806D01*
G01X-3788Y-16758D01*
G01X-3770Y-16761D01*
G01X-3751Y-16765D01*
G01X-3732Y-16771D01*
G01X-3713Y-16779D01*
G01X-3694Y-16789D01*
G01X-3674Y-16801D01*
G01X-3653Y-16816D01*
G01X-3632Y-16832D01*
G01X-3599Y-16862D01*
G01X-3587Y-16873D01*
G37*
G36*
G01X-5983Y-15429D02*
G01X-6127Y-15285D01*
G01X-6161Y-15317D01*
G01X-6182Y-15335D01*
G01X-6203Y-15350D01*
G01X-6224Y-15363D01*
G01X-6243Y-15374D01*
G01X-6263Y-15383D01*
G01X-6282Y-15390D01*
G01X-6300Y-15396D01*
G01X-6319Y-15399D01*
G01X-6337Y-15401D01*
G01X-6355Y-15402D01*
G01X-6373D01*
G01X-6391Y-15400D01*
G01X-6419Y-15396D01*
G01X-6457Y-15388D01*
G01X-6569Y-15357D01*
G01X-6627Y-15344D01*
G01X-6678Y-15336D01*
G01X-6718Y-15331D01*
G01X-6762Y-15329D01*
G01X-6808Y-15330D01*
G01X-6824Y-15331D01*
G01X-6029Y-16126D01*
G01X-6027Y-16079D01*
G01X-6028Y-16034D01*
G01X-6032Y-15993D01*
G01X-6040Y-15941D01*
G01X-6052Y-15882D01*
G01X-6083Y-15768D01*
G01X-6092Y-15730D01*
G01X-6097Y-15703D01*
G01X-6099Y-15684D01*
G01X-6100Y-15666D01*
G01Y-15648D01*
G01X-6099Y-15630D01*
G01X-6096Y-15611D01*
G01X-6091Y-15593D01*
G01X-6085Y-15574D01*
G01X-6077Y-15555D01*
G01X-6067Y-15535D01*
G01X-6055Y-15515D01*
G01X-6041Y-15495D01*
G01X-6024Y-15474D01*
G01X-5995Y-15440D01*
G01X-5983Y-15429D01*
G37*
G36*
G01X-3216Y-13641D02*
G01X-3216Y-13438D01*
G01X-3262Y-13436D01*
G01X-3290Y-13433D01*
G01X-3316Y-13430D01*
G01X-3340Y-13425D01*
G01X-3361Y-13418D01*
G01X-3381Y-13411D01*
G01X-3400Y-13403D01*
G01X-3417Y-13393D01*
G01X-3432Y-13383D01*
G01X-3447Y-13371D01*
G01X-3460Y-13359D01*
G01X-3473Y-13346D01*
G01X-3484Y-13332D01*
G01X-3501Y-13309D01*
G01X-3522Y-13277D01*
G01X-3580Y-13176D01*
G01X-3611Y-13125D01*
G01X-3641Y-13084D01*
G01X-3667Y-13052D01*
G01X-3696Y-13020D01*
G01X-3729Y-12987D01*
G01X-3741Y-12977D01*
G01Y-14102D01*
G01X-3707Y-14069D01*
G01X-3676Y-14037D01*
G01X-3649Y-14005D01*
G01X-3618Y-13963D01*
G01X-3585Y-13912D01*
G01X-3527Y-13810D01*
G01X-3506Y-13777D01*
G01X-3490Y-13754D01*
G01X-3479Y-13739D01*
G01X-3466Y-13726D01*
G01X-3454Y-13713D01*
G01X-3440Y-13701D01*
G01X-3425Y-13690D01*
G01X-3408Y-13680D01*
G01X-3391Y-13671D01*
G01X-3372Y-13664D01*
G01X-3351Y-13657D01*
G01X-3328Y-13651D01*
G01X-3303Y-13647D01*
G01X-3277Y-13643D01*
G01X-3232Y-13641D01*
G01X-3216D01*
G37*
G36*
G01X-6127Y-11793D02*
G01X-5983Y-11649D01*
G01X-6015Y-11616D01*
G01X-6033Y-11594D01*
G01X-6048Y-11573D01*
G01X-6061Y-11553D01*
G01X-6072Y-11533D01*
G01X-6081Y-11514D01*
G01X-6088Y-11495D01*
G01X-6094Y-11476D01*
G01X-6097Y-11458D01*
G01X-6100Y-11439D01*
G01Y-11421D01*
G01Y-11403D01*
G01X-6098Y-11385D01*
G01X-6094Y-11357D01*
G01X-6086Y-11320D01*
G01X-6055Y-11207D01*
G01X-6042Y-11149D01*
G01X-6034Y-11099D01*
G01X-6029Y-11058D01*
G01X-6027Y-11015D01*
G01X-6028Y-10968D01*
G01X-6029Y-10952D01*
G01X-6824Y-11748D01*
G01X-6777Y-11749D01*
G01X-6733Y-11748D01*
G01X-6691Y-11744D01*
G01X-6639Y-11737D01*
G01X-6580Y-11724D01*
G01X-6466Y-11693D01*
G01X-6428Y-11684D01*
G01X-6401Y-11679D01*
G01X-6382Y-11677D01*
G01X-6364Y-11676D01*
G01X-6346D01*
G01X-6328Y-11678D01*
G01X-6310Y-11681D01*
G01X-6291Y-11685D01*
G01X-6272Y-11691D01*
G01X-6253Y-11699D01*
G01X-6234Y-11709D01*
G01X-6214Y-11721D01*
G01X-6193Y-11736D01*
G01X-6172Y-11752D01*
G01X-6139Y-11782D01*
G01X-6127Y-11793D01*
G37*
G36*
G01X-7427Y-5125D02*
G01X-7571Y-5269D01*
G01X-7539Y-5303D01*
G01X-7522Y-5324D01*
G01X-7506Y-5345D01*
G01X-7493Y-5366D01*
G01X-7482Y-5385D01*
G01X-7473Y-5405D01*
G01X-7466Y-5424D01*
G01X-7461Y-5442D01*
G01X-7457Y-5461D01*
G01X-7455Y-5479D01*
G01X-7454Y-5497D01*
G01X-7455Y-5515D01*
G01X-7456Y-5533D01*
G01X-7460Y-5561D01*
G01X-7469Y-5598D01*
G01X-7499Y-5711D01*
G01X-7512Y-5769D01*
G01X-7521Y-5820D01*
G01X-7525Y-5860D01*
G01X-7527Y-5904D01*
G01Y-5950D01*
G01X-7526Y-5966D01*
G01X-6730Y-5171D01*
G01X-6778Y-5169D01*
G01X-6822Y-5170D01*
G01X-6864Y-5174D01*
G01X-6915Y-5182D01*
G01X-6974Y-5194D01*
G01X-7088Y-5225D01*
G01X-7126Y-5234D01*
G01X-7154Y-5239D01*
G01X-7172Y-5241D01*
G01X-7190Y-5242D01*
G01X-7208D01*
G01X-7227Y-5241D01*
G01X-7245Y-5238D01*
G01X-7263Y-5233D01*
G01X-7282Y-5227D01*
G01X-7301Y-5219D01*
G01X-7321Y-5209D01*
G01X-7341Y-5197D01*
G01X-7362Y-5183D01*
G01X-7383Y-5166D01*
G01X-7416Y-5137D01*
G01X-7427Y-5125D01*
G37*
G36*
G01X16733Y18687D02*
G01X16877Y18831D01*
G01X16845Y18864D01*
G01X16827Y18886D01*
G01X16812Y18907D01*
G01X16799Y18927D01*
G01X16788Y18947D01*
G01X16779Y18966D01*
G01X16772Y18985D01*
G01X16766Y19004D01*
G01X16763Y19022D01*
G01X16760Y19041D01*
G01Y19059D01*
G01Y19077D01*
G01X16762Y19095D01*
G01X16766Y19123D01*
G01X16774Y19160D01*
G01X16805Y19273D01*
G01X16818Y19331D01*
G01X16826Y19381D01*
G01X16831Y19422D01*
G01X16833Y19465D01*
G01X16832Y19512D01*
G01X16831Y19528D01*
G01X16036Y18732D01*
G01X16083Y18731D01*
G01X16127Y18732D01*
G01X16169Y18736D01*
G01X16221Y18743D01*
G01X16280Y18756D01*
G01X16394Y18787D01*
G01X16432Y18796D01*
G01X16459Y18801D01*
G01X16478Y18803D01*
G01X16496Y18804D01*
G01X16514D01*
G01X16532Y18802D01*
G01X16550Y18799D01*
G01X16569Y18795D01*
G01X16588Y18789D01*
G01X16607Y18781D01*
G01X16626Y18771D01*
G01X16646Y18759D01*
G01X16667Y18744D01*
G01X16688Y18728D01*
G01X16721Y18698D01*
G01X16733Y18687D01*
G37*
G36*
G01X32117Y20131D02*
G01X31973Y20275D01*
G01X31939Y20243D01*
G01X31918Y20225D01*
G01X31897Y20210D01*
G01X31876Y20197D01*
G01X31857Y20186D01*
G01X31837Y20177D01*
G01X31818Y20170D01*
G01X31800Y20164D01*
G01X31781Y20161D01*
G01X31763Y20159D01*
G01X31745Y20158D01*
G01X31727D01*
G01X31709Y20160D01*
G01X31681Y20164D01*
G01X31643Y20172D01*
G01X31531Y20203D01*
G01X31473Y20216D01*
G01X31422Y20224D01*
G01X31382Y20229D01*
G01X31338Y20231D01*
G01X31292Y20230D01*
G01X31276Y20229D01*
G01X32071Y19434D01*
G01X32073Y19481D01*
G01X32072Y19526D01*
G01X32068Y19567D01*
G01X32060Y19619D01*
G01X32048Y19678D01*
G01X32017Y19792D01*
G01X32008Y19830D01*
G01X32003Y19857D01*
G01X32001Y19876D01*
G01X32000Y19894D01*
G01Y19912D01*
G01X32001Y19930D01*
G01X32004Y19949D01*
G01X32009Y19967D01*
G01X32015Y19986D01*
G01X32023Y20005D01*
G01X32033Y20025D01*
G01X32045Y20045D01*
G01X32059Y20065D01*
G01X32076Y20086D01*
G01X32105Y20120D01*
G01X32117Y20131D01*
G37*
G36*
G01X28131Y22813D02*
G01X27987Y22669D01*
G01X28019Y22636D01*
G01X28036Y22614D01*
G01X28052Y22593D01*
G01X28065Y22573D01*
G01X28076Y22553D01*
G01X28085Y22534D01*
G01X28092Y22515D01*
G01X28097Y22497D01*
G01X28101Y22478D01*
G01X28103Y22460D01*
G01X28104Y22442D01*
G01Y22424D01*
G01X28102Y22405D01*
G01X28098Y22378D01*
G01X28090Y22340D01*
G01X28060Y22228D01*
G01X28047Y22170D01*
G01X28039Y22120D01*
G01X28035Y22079D01*
G01X28033Y22036D01*
G01Y21990D01*
G01X28034Y21974D01*
G01X28830Y22769D01*
G01X28794Y22770D01*
G01X28711Y22767D01*
G01X28461Y22749D01*
G01X28385Y22747D01*
G01X28336Y22749D01*
G01X28290Y22752D01*
G01X28246Y22759D01*
G01X28226Y22764D01*
G01X28207Y22769D01*
G01X28189Y22776D01*
G01X28172Y22783D01*
G01X28157Y22792D01*
G01X28143Y22802D01*
G01X28131Y22813D01*
G37*
G36*
G01X-21146Y-39863D02*
G01X-21146Y-39659D01*
G02X-21451Y-39507I0J381D01*
G01Y-40015D01*
G02X-21146Y-39863I305J-229D01*
G37*
G36*
G01X-21146Y-41113D02*
G01X-21146Y-40910D01*
G02X-21451Y-40757I0J381D01*
G01Y-41265D01*
G02X-21146Y-41113I305J-229D01*
G37*
G36*
G01X-21146Y-42363D02*
G01X-21146Y-42160D01*
G02X-21451Y-42007I0J381D01*
G01Y-42515D01*
G02X-21146Y-42363I305J-229D01*
G37*
G36*
G01X-20689Y-43765D02*
G01X-20689Y-43257D01*
G02X-21451Y-43211I0J6334D01*
G01Y-43811D01*
G02X-20689Y-43765I762J-6288D01*
G37*
G36*
G01X-21146Y-38612D02*
G01X-21146Y-38409D01*
G02X-21451Y-38257I0J381D01*
G01Y-38765D01*
G02X-21146Y-38612I305J-229D01*
G37*
G36*
G01X14432Y-33328D02*
G01X14229Y-33328D01*
G01X14228Y-33345D01*
G01X14225Y-33363D01*
G01X14220Y-33382D01*
G01X14213Y-33400D01*
G01X14204Y-33419D01*
G01X14194Y-33437D01*
G01X14169Y-33475D01*
G01X14139Y-33513D01*
G01X14104Y-33550D01*
G01X14047Y-33607D01*
G01X13861Y-33767D01*
G01X13772Y-33846D01*
G01X13743Y-33874D01*
G01X13731Y-33888D01*
G01X14931D01*
G01X14905Y-33860D01*
G01X14838Y-33800D01*
G01X14635Y-33625D01*
G01X14576Y-33569D01*
G01X14539Y-33532D01*
G01X14507Y-33494D01*
G01X14479Y-33456D01*
G01X14468Y-33437D01*
G01X14457Y-33419D01*
G01X14449Y-33400D01*
G01X14442Y-33382D01*
G01X14437Y-33363D01*
G01X14433Y-33345D01*
G01X14432Y-33328D01*
G37*
G36*
G01X11933Y-33328D02*
G01X11730Y-33328D01*
G01X11729Y-33345D01*
G01X11725Y-33363D01*
G01X11720Y-33382D01*
G01X11713Y-33400D01*
G01X11705Y-33419D01*
G01X11694Y-33437D01*
G01X11669Y-33475D01*
G01X11639Y-33513D01*
G01X11605Y-33550D01*
G01X11547Y-33607D01*
G01X11362Y-33767D01*
G01X11272Y-33846D01*
G01X11244Y-33874D01*
G01X11231Y-33888D01*
G01X12431D01*
G01X12405Y-33860D01*
G01X12339Y-33800D01*
G01X12135Y-33625D01*
G01X12076Y-33569D01*
G01X12040Y-33532D01*
G01X12008Y-33494D01*
G01X11980Y-33456D01*
G01X11968Y-33437D01*
G01X11958Y-33419D01*
G01X11949Y-33400D01*
G01X11942Y-33382D01*
G01X11937Y-33363D01*
G01X11934Y-33345D01*
G01X11933Y-33328D01*
G37*
G36*
G01X9373Y-33328D02*
G01X9169Y-33328D01*
G01X9168Y-33372D01*
G01X9165Y-33399D01*
G01X9162Y-33424D01*
G01X9157Y-33448D01*
G01X9151Y-33470D01*
G01X9144Y-33491D01*
G01X9136Y-33511D01*
G01X9127Y-33529D01*
G01X9117Y-33546D01*
G01X9106Y-33562D01*
G01X9095Y-33577D01*
G01X9082Y-33592D01*
G01X9062Y-33613D01*
G01X9040Y-33632D01*
G01X9001Y-33664D01*
G01X8883Y-33749D01*
G01X8834Y-33789D01*
G01X8793Y-33825D01*
G01X8752Y-33865D01*
G01X8732Y-33888D01*
G01X9932D01*
G01X9903Y-33858D01*
G01X9868Y-33827D01*
G01X9786Y-33763D01*
G01X9577Y-33610D01*
G01X9513Y-33556D01*
G01X9474Y-33519D01*
G01X9440Y-33482D01*
G01X9426Y-33463D01*
G01X9412Y-33444D01*
G01X9401Y-33425D01*
G01X9391Y-33406D01*
G01X9383Y-33387D01*
G01X9377Y-33367D01*
G01X9374Y-33347D01*
G01X9373Y-33328D01*
G37*
G36*
G01X39894Y-18922D02*
G01X39750Y-19066D01*
G01X39763Y-19080D01*
G01X39774Y-19096D01*
G01X39784Y-19114D01*
G01X39792Y-19133D01*
G01X39800Y-19153D01*
G01X39806Y-19175D01*
G01X39811Y-19198D01*
G01X39818Y-19248D01*
G01X39822Y-19301D01*
G01Y-19385D01*
G01X39813Y-19532D01*
G01X39792Y-19779D01*
G01X39791Y-19846D01*
G01X39792Y-19865D01*
G01X40693Y-18964D01*
G01X40653Y-18963D01*
G01X40582Y-18966D01*
G01X40301Y-18990D01*
G01X40184Y-18995D01*
G01X40129Y-18994D01*
G01X40076Y-18990D01*
G01X40026Y-18983D01*
G01X40003Y-18978D01*
G01X39981Y-18972D01*
G01X39961Y-18964D01*
G01X39942Y-18956D01*
G01X39924Y-18946D01*
G01X39908Y-18935D01*
G01X39894Y-18922D01*
G37*
G36*
G01X39894Y-21462D02*
G01X39750Y-21606D01*
G01X39763Y-21620D01*
G01X39774Y-21636D01*
G01X39784Y-21654D01*
G01X39792Y-21673D01*
G01X39800Y-21693D01*
G01X39806Y-21715D01*
G01X39811Y-21738D01*
G01X39818Y-21788D01*
G01X39822Y-21841D01*
G01Y-21925D01*
G01X39813Y-22072D01*
G01X39792Y-22319D01*
G01X39791Y-22386D01*
G01X39792Y-22405D01*
G01X40693Y-21504D01*
G01X40653Y-21503D01*
G01X40582Y-21506D01*
G01X40301Y-21530D01*
G01X40184Y-21535D01*
G01X40129Y-21534D01*
G01X40076Y-21530D01*
G01X40026Y-21523D01*
G01X40003Y-21518D01*
G01X39981Y-21512D01*
G01X39961Y-21504D01*
G01X39942Y-21496D01*
G01X39924Y-21486D01*
G01X39908Y-21475D01*
G01X39894Y-21462D01*
G37*
G36*
G01X-22835Y8819D02*
G01X-22631Y8819D01*
G02X-22479Y9124I381J0D01*
G01X-22987D01*
G02X-22835Y8819I-229J-305D01*
G37*
G36*
G01X41202Y24232D02*
G01X41202Y24028D01*
G01X41220Y24027D01*
G01X41238Y24024D01*
G01X41256Y24019D01*
G01X41274Y24012D01*
G01X41293Y24003D01*
G01X41311Y23993D01*
G01X41349Y23968D01*
G01X41387Y23938D01*
G01X41425Y23904D01*
G01X41481Y23846D01*
G01X41641Y23660D01*
G01X41720Y23571D01*
G01X41748Y23542D01*
G01X41762Y23530D01*
G01Y24730D01*
G01X41734Y24704D01*
G01X41674Y24638D01*
G01X41500Y24434D01*
G01X41443Y24375D01*
G01X41406Y24339D01*
G01X41368Y24306D01*
G01X41330Y24279D01*
G01X41311Y24267D01*
G01X41293Y24257D01*
G01X41274Y24248D01*
G01X41256Y24241D01*
G01X41238Y24236D01*
G01X41220Y24233D01*
G01X41202Y24232D01*
G37*
G36*
G01X6861Y-48227D02*
G01X6717Y-48084D01*
G01X6702Y-48097D01*
G01X6685Y-48109D01*
G01X6666Y-48120D01*
G01X6646Y-48129D01*
G01X6624Y-48137D01*
G01X6600Y-48143D01*
G01X6576Y-48149D01*
G01X6523Y-48156D01*
G01X6467Y-48160D01*
G01X6377Y-48159D01*
G01X6221Y-48149D01*
G01X5959Y-48124D01*
G01X5910Y-48123D01*
G01X5866Y-48124D01*
G01X6821Y-49078D01*
G01X6822Y-49035D01*
G01X6819Y-48960D01*
G01X6791Y-48661D01*
G01X6785Y-48537D01*
G01Y-48478D01*
G01X6789Y-48421D01*
G01X6796Y-48369D01*
G01X6802Y-48344D01*
G01X6808Y-48321D01*
G01X6816Y-48299D01*
G01X6825Y-48279D01*
G01X6835Y-48260D01*
G01X6847Y-48243D01*
G01X6861Y-48227D01*
G37*
G36*
G01X9401Y-48227D02*
G01X9257Y-48084D01*
G01X9242Y-48097D01*
G01X9225Y-48109D01*
G01X9206Y-48120D01*
G01X9186Y-48129D01*
G01X9164Y-48137D01*
G01X9140Y-48143D01*
G01X9116Y-48149D01*
G01X9063Y-48156D01*
G01X9007Y-48160D01*
G01X8917Y-48159D01*
G01X8761Y-48149D01*
G01X8499Y-48124D01*
G01X8450Y-48123D01*
G01X8406Y-48124D01*
G01X9361Y-49078D01*
G01X9362Y-49035D01*
G01X9359Y-48960D01*
G01X9331Y-48661D01*
G01X9325Y-48537D01*
G01Y-48478D01*
G01X9329Y-48421D01*
G01X9336Y-48369D01*
G01X9342Y-48344D01*
G01X9348Y-48321D01*
G01X9356Y-48299D01*
G01X9365Y-48279D01*
G01X9375Y-48260D01*
G01X9387Y-48243D01*
G01X9401Y-48227D01*
G37*
G36*
G01X8564Y-45257D02*
G01X8361Y-45257D01*
G01X8360Y-45277D01*
G01X8356Y-45298D01*
G01X8350Y-45318D01*
G01X8342Y-45339D01*
G01X8332Y-45360D01*
G01X8321Y-45381D01*
G01X8307Y-45403D01*
G01X8275Y-45445D01*
G01X8238Y-45487D01*
G01X8174Y-45550D01*
G01X8056Y-45653D01*
G01X7854Y-45822D01*
G01X7818Y-45855D01*
G01X7788Y-45887D01*
G01X9138D01*
G01X9108Y-45855D01*
G01X9052Y-45805D01*
G01X8821Y-45613D01*
G01X8729Y-45529D01*
G01X8688Y-45487D01*
G01X8650Y-45445D01*
G01X8619Y-45403D01*
G01X8605Y-45381D01*
G01X8593Y-45360D01*
G01X8583Y-45339D01*
G01X8575Y-45318D01*
G01X8569Y-45298D01*
G01X8566Y-45277D01*
G01X8564Y-45257D01*
G37*
G36*
G01X11941Y-48227D02*
G01X11797Y-48084D01*
G01X11782Y-48097D01*
G01X11765Y-48109D01*
G01X11746Y-48120D01*
G01X11726Y-48129D01*
G01X11704Y-48137D01*
G01X11680Y-48143D01*
G01X11656Y-48149D01*
G01X11603Y-48156D01*
G01X11547Y-48160D01*
G01X11457Y-48159D01*
G01X11301Y-48149D01*
G01X11039Y-48124D01*
G01X10990Y-48123D01*
G01X10946Y-48124D01*
G01X11901Y-49078D01*
G01X11902Y-49035D01*
G01X11899Y-48960D01*
G01X11871Y-48661D01*
G01X11865Y-48537D01*
G01Y-48478D01*
G01X11869Y-48421D01*
G01X11876Y-48369D01*
G01X11882Y-48344D01*
G01X11888Y-48321D01*
G01X11896Y-48299D01*
G01X11905Y-48279D01*
G01X11915Y-48260D01*
G01X11927Y-48243D01*
G01X11941Y-48227D01*
G37*
G36*
G01X17021Y-45687D02*
G01X16877Y-45544D01*
G01X16862Y-45557D01*
G01X16845Y-45569D01*
G01X16826Y-45580D01*
G01X16806Y-45589D01*
G01X16784Y-45597D01*
G01X16760Y-45603D01*
G01X16736Y-45609D01*
G01X16683Y-45616D01*
G01X16627Y-45620D01*
G01X16537Y-45619D01*
G01X16381Y-45609D01*
G01X16119Y-45584D01*
G01X16070Y-45583D01*
G01X16026Y-45584D01*
G01X16981Y-46538D01*
G01X16982Y-46495D01*
G01X16979Y-46420D01*
G01X16951Y-46121D01*
G01X16945Y-45997D01*
G01Y-45938D01*
G01X16949Y-45881D01*
G01X16956Y-45829D01*
G01X16962Y-45804D01*
G01X16968Y-45781D01*
G01X16976Y-45759D01*
G01X16985Y-45739D01*
G01X16995Y-45720D01*
G01X17007Y-45703D01*
G01X17021Y-45687D01*
G37*
G36*
G01X-14544Y8775D02*
G01X-14005Y9314D01*
G01X-14034Y9345D01*
G01X-14060Y9378D01*
G01X-14084Y9414D01*
G01X-14107Y9451D01*
G01X-14127Y9491D01*
G01X-14154Y9552D01*
G01X-14178Y9617D01*
G01X-14197Y9682D01*
G01X-14213Y9749D01*
G01X-14229Y9838D01*
G01X-14239Y9925D01*
G01X-14243Y9967D01*
G01X-15197Y9013D01*
G01X-15112Y9005D01*
G01X-15024Y8992D01*
G01X-14935Y8973D01*
G01X-14868Y8955D01*
G01X-14803Y8933D01*
G01X-14741Y8907D01*
G01X-14701Y8887D01*
G01X-14662Y8866D01*
G01X-14626Y8842D01*
G01X-14591Y8817D01*
G01X-14559Y8790D01*
G01X-14544Y8775D01*
G37*
G36*
G01X-14005Y2888D02*
G01X-14544Y3427D01*
G01X-14575Y3398D01*
G01X-14608Y3372D01*
G01X-14644Y3348D01*
G01X-14681Y3325D01*
G01X-14720Y3305D01*
G01X-14782Y3278D01*
G01X-14846Y3254D01*
G01X-14912Y3235D01*
G01X-14979Y3219D01*
G01X-15068Y3203D01*
G01X-15155Y3193D01*
G01X-15197Y3189D01*
G01X-14243Y2235D01*
G01X-14235Y2320D01*
G01X-14222Y2408D01*
G01X-14203Y2497D01*
G01X-14185Y2564D01*
G01X-14163Y2629D01*
G01X-14137Y2691D01*
G01X-14117Y2731D01*
G01X-14096Y2770D01*
G01X-14072Y2806D01*
G01X-14047Y2841D01*
G01X-14020Y2873D01*
G01X-14005Y2888D01*
G37*
G36*
G01X43544Y-884D02*
G01X43544Y386D01*
G01X43491Y384D01*
G01X43442Y380D01*
G01X43385Y371D01*
G01X43256Y344D01*
G01X43211Y335D01*
G01X43176Y330D01*
G01X43150Y329D01*
G01X43133Y328D01*
G01X43116Y329D01*
G01X43099Y331D01*
G01X43081Y334D01*
G01X43064Y338D01*
G01X43047Y344D01*
G01X43029Y351D01*
G01X43011Y359D01*
G01X42992Y369D01*
G01X42973Y380D01*
G01X42954Y394D01*
G01X42924Y417D01*
G01X42914Y426D01*
G01Y-924D01*
G01X42944Y-899D01*
G01X42964Y-885D01*
G01X42983Y-872D01*
G01X43002Y-862D01*
G01X43020Y-852D01*
G01X43038Y-845D01*
G01X43055Y-839D01*
G01X43073Y-834D01*
G01X43090Y-830D01*
G01X43107Y-828D01*
G01X43124Y-827D01*
G01X43141Y-826D01*
G01X43167Y-827D01*
G01X43193Y-830D01*
G01X43237Y-838D01*
G01X43364Y-865D01*
G01X43419Y-875D01*
G01X43466Y-880D01*
G01X43517Y-883D01*
G01X43544Y-884D01*
G37*
G36*
G01X43634Y386D02*
G01X43634Y-884D01*
G01X43686Y-882D01*
G01X43736Y-878D01*
G01X43793Y-869D01*
G01X43922Y-842D01*
G01X43967Y-833D01*
G01X44002Y-828D01*
G01X44028Y-826D01*
G01X44045D01*
G01X44062Y-827D01*
G01X44079Y-829D01*
G01X44096Y-832D01*
G01X44114Y-836D01*
G01X44131Y-842D01*
G01X44149Y-848D01*
G01X44167Y-857D01*
G01X44186Y-867D01*
G01X44204Y-878D01*
G01X44224Y-892D01*
G01X44253Y-915D01*
G01X44264Y-924D01*
G01Y426D01*
G01X44233Y401D01*
G01X44214Y387D01*
G01X44195Y374D01*
G01X44176Y364D01*
G01X44158Y355D01*
G01X44140Y347D01*
G01X44123Y341D01*
G01X44105Y336D01*
G01X44088Y332D01*
G01X44071Y330D01*
G01X44054Y329D01*
G01X44036Y328D01*
G01X44011Y330D01*
G01X43985Y332D01*
G01X43940Y340D01*
G01X43814Y367D01*
G01X43759Y377D01*
G01X43712Y382D01*
G01X43661Y386D01*
G01X43634D01*
G37*
G36*
G01X43544Y11816D02*
G01X43544Y13086D01*
G01X43491Y13084D01*
G01X43442Y13080D01*
G01X43385Y13071D01*
G01X43256Y13044D01*
G01X43211Y13035D01*
G01X43176Y13030D01*
G01X43150Y13029D01*
G01X43133Y13028D01*
G01X43116Y13029D01*
G01X43099Y13031D01*
G01X43081Y13034D01*
G01X43064Y13038D01*
G01X43047Y13044D01*
G01X43029Y13051D01*
G01X43011Y13059D01*
G01X42992Y13069D01*
G01X42973Y13080D01*
G01X42954Y13094D01*
G01X42924Y13117D01*
G01X42914Y13126D01*
G01Y11776D01*
G01X42944Y11801D01*
G01X42964Y11815D01*
G01X42983Y11828D01*
G01X43002Y11838D01*
G01X43020Y11848D01*
G01X43038Y11855D01*
G01X43055Y11861D01*
G01X43073Y11866D01*
G01X43090Y11870D01*
G01X43107Y11872D01*
G01X43124Y11873D01*
G01X43141Y11874D01*
G01X43167Y11873D01*
G01X43193Y11870D01*
G01X43237Y11862D01*
G01X43364Y11835D01*
G01X43419Y11825D01*
G01X43466Y11820D01*
G01X43517Y11817D01*
G01X43544Y11816D01*
G37*
G36*
G01X43634Y13086D02*
G01X43634Y11816D01*
G01X43686Y11818D01*
G01X43736Y11822D01*
G01X43793Y11831D01*
G01X43922Y11858D01*
G01X43967Y11867D01*
G01X44002Y11872D01*
G01X44028Y11874D01*
G01X44045D01*
G01X44062Y11873D01*
G01X44079Y11871D01*
G01X44096Y11868D01*
G01X44114Y11864D01*
G01X44131Y11858D01*
G01X44149Y11852D01*
G01X44167Y11843D01*
G01X44186Y11833D01*
G01X44204Y11822D01*
G01X44224Y11808D01*
G01X44253Y11785D01*
G01X44264Y11776D01*
G01Y13126D01*
G01X44233Y13101D01*
G01X44214Y13087D01*
G01X44195Y13074D01*
G01X44176Y13064D01*
G01X44158Y13055D01*
G01X44140Y13047D01*
G01X44123Y13041D01*
G01X44105Y13036D01*
G01X44088Y13032D01*
G01X44071Y13030D01*
G01X44054Y13029D01*
G01X44036Y13028D01*
G01X44011Y13030D01*
G01X43985Y13032D01*
G01X43940Y13040D01*
G01X43814Y13067D01*
G01X43759Y13077D01*
G01X43712Y13082D01*
G01X43661Y13086D01*
G01X43634D01*
G37*
G36*
G01X37341Y-45580D02*
G01X37198Y-45723D01*
G01X37227Y-45755D01*
G01X37244Y-45775D01*
G01X37259Y-45795D01*
G01X37272Y-45815D01*
G01X37283Y-45834D01*
G01X37292Y-45853D01*
G01X37300Y-45871D01*
G01X37306Y-45890D01*
G01X37310Y-45908D01*
G01X37314Y-45926D01*
G01X37316Y-45944D01*
G01X37317Y-45963D01*
G01X37316Y-45990D01*
G01X37314Y-46018D01*
G01X37307Y-46066D01*
G01X37283Y-46204D01*
G01X37275Y-46265D01*
G01X37271Y-46317D01*
G01Y-46373D01*
G01X37272Y-46403D01*
G01X38081Y-45594D01*
G01X38042D01*
G01X37976Y-45598D01*
G01X37744Y-45628D01*
G01X37636Y-45639D01*
G01X37559Y-45642D01*
G01X37511Y-45640D01*
G01X37465Y-45635D01*
G01X37444Y-45631D01*
G01X37424Y-45625D01*
G01X37404Y-45619D01*
G01X37387Y-45611D01*
G01X37370Y-45602D01*
G01X37355Y-45592D01*
G01X37341Y-45580D01*
G37*
G36*
G01X42371Y-45550D02*
G01X42228Y-45693D01*
G01X42260Y-45728D01*
G01X42278Y-45750D01*
G01X42294Y-45771D01*
G01X42307Y-45792D01*
G01X42318Y-45812D01*
G01X42327Y-45831D01*
G01X42334Y-45851D01*
G01X42340Y-45870D01*
G01X42344Y-45888D01*
G01X42346Y-45907D01*
G01Y-45925D01*
G01Y-45944D01*
G01X42344Y-45962D01*
G01X42340Y-45990D01*
G01X42331Y-46028D01*
G01X42300Y-46143D01*
G01X42286Y-46202D01*
G01X42278Y-46253D01*
G01X42273Y-46295D01*
G01X42271Y-46339D01*
G01X42272Y-46386D01*
G01Y-46403D01*
G01X43081Y-45594D01*
G01X43032Y-45593D01*
G01X42987Y-45594D01*
G01X42945Y-45598D01*
G01X42892Y-45606D01*
G01X42832Y-45619D01*
G01X42716Y-45651D01*
G01X42678Y-45660D01*
G01X42650Y-45665D01*
G01X42631Y-45667D01*
G01X42613Y-45668D01*
G01X42594D01*
G01X42576Y-45667D01*
G01X42557Y-45664D01*
G01X42538Y-45659D01*
G01X42519Y-45653D01*
G01X42500Y-45645D01*
G01X42480Y-45635D01*
G01X42459Y-45623D01*
G01X42438Y-45608D01*
G01X42417Y-45591D01*
G01X42383Y-45561D01*
G01X42371Y-45550D01*
G37*
G36*
G01X44871Y-45550D02*
G01X44728Y-45693D01*
G01X44760Y-45728D01*
G01X44778Y-45750D01*
G01X44794Y-45771D01*
G01X44807Y-45792D01*
G01X44818Y-45812D01*
G01X44827Y-45831D01*
G01X44835Y-45851D01*
G01X44840Y-45870D01*
G01X44844Y-45888D01*
G01X44846Y-45907D01*
G01Y-45925D01*
G01Y-45944D01*
G01X44844Y-45962D01*
G01X44840Y-45990D01*
G01X44831Y-46028D01*
G01X44800Y-46143D01*
G01X44786Y-46202D01*
G01X44778Y-46253D01*
G01X44773Y-46295D01*
G01X44771Y-46339D01*
G01X44772Y-46386D01*
G01X44773Y-46403D01*
G01X45581Y-45594D01*
G01X45533Y-45593D01*
G01X45487Y-45594D01*
G01X45445Y-45598D01*
G01X45392Y-45606D01*
G01X45332Y-45619D01*
G01X45216Y-45651D01*
G01X45178Y-45660D01*
G01X45150Y-45665D01*
G01X45131Y-45667D01*
G01X45113Y-45668D01*
G01X45094D01*
G01X45076Y-45667D01*
G01X45057Y-45664D01*
G01X45038Y-45659D01*
G01X45019Y-45653D01*
G01X45000Y-45645D01*
G01X44980Y-45635D01*
G01X44959Y-45623D01*
G01X44938Y-45608D01*
G01X44917Y-45591D01*
G01X44883Y-45561D01*
G01X44871Y-45550D01*
G37*
G36*
G01X30956Y27067D02*
G01X31099Y27210D01*
G01X31087Y27223D01*
G01X31077Y27236D01*
G01X31069Y27250D01*
G01X31062Y27263D01*
G01X31056Y27277D01*
G01X31052Y27291D01*
G01X31048Y27306D01*
G01X31046Y27320D01*
G01X31042Y27351D01*
G01X31039Y27433D01*
G01X31038Y27451D01*
G01X30715Y27128D01*
G01X30800Y27125D01*
G01X30831Y27122D01*
G01X30846Y27120D01*
G01X30860Y27118D01*
G01X30875Y27114D01*
G01X30889Y27110D01*
G01X30903Y27104D01*
G01X30916Y27097D01*
G01X30930Y27089D01*
G01X30943Y27079D01*
G01X30956Y27067D01*
G37*
G36*
G01X28092Y27017D02*
G01X28296Y27017D01*
G01Y27034D01*
G01X28298Y27051D01*
G01X28302Y27066D01*
G01X28307Y27081D01*
G01X28312Y27095D01*
G01X28319Y27108D01*
G01X28327Y27120D01*
G01X28335Y27133D01*
G01X28355Y27157D01*
G01X28411Y27217D01*
G01X28423Y27230D01*
G01X27965D01*
G01X28023Y27168D01*
G01X28043Y27145D01*
G01X28053Y27133D01*
G01X28061Y27120D01*
G01X28069Y27108D01*
G01X28076Y27095D01*
G01X28081Y27081D01*
G01X28086Y27066D01*
G01X28090Y27051D01*
G01X28092Y27034D01*
G01Y27017D01*
G37*
G36*
G01X37245Y-6618D02*
G01X37102Y-6762D01*
G01X37114Y-6775D01*
G01X37124Y-6788D01*
G01X37132Y-6801D01*
G01X37139Y-6815D01*
G01X37145Y-6829D01*
G01X37149Y-6843D01*
G01X37152Y-6857D01*
G01X37155Y-6872D01*
G01X37158Y-6903D01*
G01X37160Y-6986D01*
G01X37161Y-7004D01*
G01X37484Y-6681D01*
G01X37400Y-6677D01*
G01X37369Y-6674D01*
G01X37340Y-6669D01*
G01X37325Y-6666D01*
G01X37311Y-6661D01*
G01X37297Y-6655D01*
G01X37284Y-6648D01*
G01X37271Y-6639D01*
G01X37258Y-6630D01*
G01X37245Y-6618D01*
G37*
G36*
G01X35973Y-6239D02*
G01X35830Y-6382D01*
G01X35842Y-6395D01*
G01X35852Y-6408D01*
G01X35860Y-6422D01*
G01X35867Y-6435D01*
G01X35873Y-6449D01*
G01X35877Y-6463D01*
G01X35881Y-6478D01*
G01X35883Y-6492D01*
G01X35887Y-6523D01*
G01X35890Y-6605D01*
G01X35891Y-6623D01*
G01X36214Y-6300D01*
G01X36129Y-6297D01*
G01X36098Y-6294D01*
G01X36083Y-6292D01*
G01X36069Y-6290D01*
G01X36054Y-6286D01*
G01X36040Y-6282D01*
G01X36026Y-6276D01*
G01X36013Y-6269D01*
G01X35999Y-6261D01*
G01X35986Y-6251D01*
G01X35973Y-6239D01*
G37*
G36*
G01X22892Y18272D02*
G01X22749Y18129D01*
G01X22761Y18116D01*
G01X22771Y18103D01*
G01X22779Y18089D01*
G01X22786Y18076D01*
G01X22792Y18062D01*
G01X22796Y18048D01*
G01X22800Y18033D01*
G01X22802Y18019D01*
G01X22806Y17988D01*
G01X22809Y17906D01*
G01X22810Y17888D01*
G01X23133Y18211D01*
G01X23048Y18214D01*
G01X23017Y18217D01*
G01X23002Y18219D01*
G01X22988Y18221D01*
G01X22973Y18225D01*
G01X22959Y18229D01*
G01X22945Y18235D01*
G01X22932Y18242D01*
G01X22918Y18250D01*
G01X22905Y18260D01*
G01X22892Y18272D01*
G37*
G36*
G01X23012Y27017D02*
G01X23216Y27017D01*
G01Y27034D01*
G01X23218Y27051D01*
G01X23222Y27066D01*
G01X23227Y27081D01*
G01X23232Y27095D01*
G01X23239Y27108D01*
G01X23247Y27120D01*
G01X23255Y27133D01*
G01X23275Y27157D01*
G01X23331Y27217D01*
G01X23343Y27230D01*
G01X22885D01*
G01X22943Y27168D01*
G01X22963Y27145D01*
G01X22973Y27133D01*
G01X22981Y27120D01*
G01X22989Y27108D01*
G01X22996Y27095D01*
G01X23001Y27081D01*
G01X23006Y27066D01*
G01X23010Y27051D01*
G01X23012Y27034D01*
G01Y27017D01*
G37*
G36*
G01X-6579Y32859D02*
G01X-6375Y32859D01*
G01Y32876D01*
G01X-6373Y32893D01*
G01X-6369Y32908D01*
G01X-6364Y32923D01*
G01X-6359Y32937D01*
G01X-6352Y32950D01*
G01X-6344Y32962D01*
G01X-6336Y32975D01*
G01X-6316Y32999D01*
G01X-6260Y33059D01*
G01X-6248Y33072D01*
G01X-6706D01*
G01X-6648Y33010D01*
G01X-6628Y32987D01*
G01X-6618Y32975D01*
G01X-6610Y32962D01*
G01X-6602Y32950D01*
G01X-6595Y32937D01*
G01X-6590Y32923D01*
G01X-6585Y32908D01*
G01X-6581Y32893D01*
G01X-6579Y32876D01*
G01Y32859D01*
G37*
G36*
G01X216Y-10557D02*
G01X72Y-10700D01*
G01X84Y-10713D01*
G01X94Y-10726D01*
G01X103Y-10740D01*
G01X110Y-10753D01*
G01X115Y-10767D01*
G01X120Y-10781D01*
G01X123Y-10796D01*
G01X126Y-10810D01*
G01X129Y-10841D01*
G01X132Y-10923D01*
G01X133Y-10941D01*
G01X457Y-10618D01*
G01X372Y-10615D01*
G01X341Y-10612D01*
G01X326Y-10610D01*
G01X311Y-10608D01*
G01X297Y-10604D01*
G01X283Y-10600D01*
G01X269Y-10594D01*
G01X255Y-10587D01*
G01X242Y-10579D01*
G01X229Y-10569D01*
G01X216Y-10557D01*
G37*
G36*
G01X4547Y-39590D02*
G01X4343Y-39590D01*
G01Y-39607D01*
G01X4341Y-39624D01*
G01X4337Y-39639D01*
G01X4332Y-39654D01*
G01X4327Y-39668D01*
G01X4320Y-39681D01*
G01X4312Y-39693D01*
G01X4304Y-39706D01*
G01X4284Y-39730D01*
G01X4228Y-39790D01*
G01X4216Y-39803D01*
G01X4674D01*
G01X4616Y-39741D01*
G01X4596Y-39718D01*
G01X4586Y-39706D01*
G01X4578Y-39693D01*
G01X4570Y-39681D01*
G01X4563Y-39668D01*
G01X4558Y-39654D01*
G01X4553Y-39639D01*
G01X4549Y-39624D01*
G01X4547Y-39607D01*
G01Y-39590D01*
G37*
G36*
G01X23638Y-13303D02*
G01X23781Y-13446D01*
G01X23794Y-13434D01*
G01X23807Y-13424D01*
G01X23821Y-13416D01*
G01X23834Y-13409D01*
G01X23848Y-13403D01*
G01X23862Y-13399D01*
G01X23877Y-13395D01*
G01X23891Y-13393D01*
G01X23922Y-13389D01*
G01X24004Y-13386D01*
G01X24022Y-13385D01*
G01X23699Y-13062D01*
G01X23696Y-13147D01*
G01X23693Y-13178D01*
G01X23691Y-13193D01*
G01X23689Y-13207D01*
G01X23685Y-13222D01*
G01X23681Y-13236D01*
G01X23675Y-13250D01*
G01X23668Y-13263D01*
G01X23660Y-13277D01*
G01X23650Y-13290D01*
G01X23638Y-13303D01*
G37*
G36*
G01X24527Y-13557D02*
G01X24670Y-13700D01*
G01X24683Y-13688D01*
G01X24696Y-13678D01*
G01X24710Y-13670D01*
G01X24723Y-13663D01*
G01X24737Y-13657D01*
G01X24751Y-13653D01*
G01X24766Y-13649D01*
G01X24780Y-13647D01*
G01X24811Y-13643D01*
G01X24893Y-13640D01*
G01X24911Y-13639D01*
G01X24588Y-13316D01*
G01X24585Y-13401D01*
G01X24582Y-13432D01*
G01X24580Y-13447D01*
G01X24578Y-13461D01*
G01X24574Y-13476D01*
G01X24570Y-13490D01*
G01X24564Y-13504D01*
G01X24557Y-13517D01*
G01X24549Y-13531D01*
G01X24539Y-13544D01*
G01X24527Y-13557D01*
G37*
G36*
G01X25310Y-14328D02*
G01X25454Y-14472D01*
G01X25467Y-14460D01*
G01X25480Y-14450D01*
G01X25493Y-14441D01*
G01X25507Y-14434D01*
G01X25520Y-14429D01*
G01X25535Y-14424D01*
G01X25549Y-14421D01*
G01X25564Y-14418D01*
G01X25594Y-14415D01*
G01X25677Y-14412D01*
G01X25694Y-14411D01*
G01X25371Y-14087D01*
G01X25368Y-14172D01*
G01X25366Y-14203D01*
G01X25364Y-14218D01*
G01X25361Y-14233D01*
G01X25358Y-14247D01*
G01X25353Y-14261D01*
G01X25347Y-14275D01*
G01X25340Y-14289D01*
G01X25332Y-14302D01*
G01X25322Y-14315D01*
G01X25310Y-14328D01*
G37*
G36*
G01X-6706Y27271D02*
G01X-6502Y27271D01*
G01Y27288D01*
G01X-6500Y27305D01*
G01X-6496Y27320D01*
G01X-6491Y27335D01*
G01X-6486Y27349D01*
G01X-6479Y27362D01*
G01X-6471Y27374D01*
G01X-6463Y27387D01*
G01X-6443Y27411D01*
G01X-6387Y27471D01*
G01X-6375Y27484D01*
G01X-6833D01*
G01X-6775Y27422D01*
G01X-6755Y27399D01*
G01X-6745Y27387D01*
G01X-6737Y27374D01*
G01X-6729Y27362D01*
G01X-6722Y27349D01*
G01X-6717Y27335D01*
G01X-6712Y27320D01*
G01X-6708Y27305D01*
G01X-6706Y27288D01*
G01Y27271D01*
G37*
G36*
G01X35338Y-39894D02*
G01X35195Y-40037D01*
G01X35207Y-40050D01*
G01X35217Y-40063D01*
G01X35225Y-40077D01*
G01X35232Y-40090D01*
G01X35238Y-40104D01*
G01X35242Y-40118D01*
G01X35246Y-40133D01*
G01X35248Y-40147D01*
G01X35252Y-40178D01*
G01X35255Y-40260D01*
G01X35256Y-40278D01*
G01X35579Y-39955D01*
G01X35494Y-39952D01*
G01X35463Y-39949D01*
G01X35448Y-39947D01*
G01X35434Y-39945D01*
G01X35419Y-39941D01*
G01X35405Y-39937D01*
G01X35391Y-39931D01*
G01X35378Y-39924D01*
G01X35364Y-39916D01*
G01X35351Y-39906D01*
G01X35338Y-39894D01*
G37*
G36*
G01X9169Y-17179D02*
G01X9373Y-17179D01*
G01Y-17162D01*
G01X9375Y-17145D01*
G01X9379Y-17130D01*
G01X9384Y-17115D01*
G01X9389Y-17101D01*
G01X9396Y-17088D01*
G01X9404Y-17076D01*
G01X9412Y-17063D01*
G01X9432Y-17039D01*
G01X9488Y-16979D01*
G01X9500Y-16966D01*
G01X9042D01*
G01X9100Y-17028D01*
G01X9120Y-17051D01*
G01X9130Y-17063D01*
G01X9138Y-17076D01*
G01X9146Y-17088D01*
G01X9153Y-17101D01*
G01X9158Y-17115D01*
G01X9163Y-17130D01*
G01X9167Y-17145D01*
G01X9169Y-17162D01*
G01Y-17179D01*
G37*
G36*
G01X12090Y-40166D02*
G01X12294Y-40166D01*
G01Y-40149D01*
G01X12296Y-40132D01*
G01X12300Y-40117D01*
G01X12305Y-40102D01*
G01X12310Y-40088D01*
G01X12317Y-40075D01*
G01X12325Y-40063D01*
G01X12333Y-40050D01*
G01X12353Y-40026D01*
G01X12409Y-39966D01*
G01X12421Y-39953D01*
G01X11963D01*
G01X12021Y-40015D01*
G01X12041Y-40038D01*
G01X12051Y-40050D01*
G01X12059Y-40063D01*
G01X12067Y-40075D01*
G01X12074Y-40088D01*
G01X12079Y-40102D01*
G01X12084Y-40117D01*
G01X12088Y-40132D01*
G01X12090Y-40149D01*
G01Y-40166D01*
G37*
G36*
G01X11110Y-35801D02*
G01X10966Y-35945D01*
G01X10981Y-35961D01*
G01X10993Y-35977D01*
G01X11002Y-35992D01*
G01X11008Y-36007D01*
G01X11012Y-36022D01*
G01X11014Y-36036D01*
G01Y-36051D01*
G01X11013Y-36066D01*
G01X11006Y-36114D01*
G01X11000Y-36150D01*
G01X10999Y-36170D01*
G01X10998Y-36191D01*
G01X10999Y-36214D01*
G01X11322Y-35891D01*
G01X11309Y-35890D01*
G01X11282Y-35885D01*
G01X11253Y-35878D01*
G01X11223Y-35868D01*
G01X11194Y-35856D01*
G01X11166Y-35842D01*
G01X11141Y-35827D01*
G01X11130Y-35818D01*
G01X11119Y-35810D01*
G01X11110Y-35801D01*
G37*
G36*
G01X-3132Y-34764D02*
G01X-3335Y-34764D01*
G01X-3336Y-34791D01*
G01X-3339Y-34819D01*
G01X-3345Y-34848D01*
G01X-3352Y-34877D01*
G01X-3362Y-34905D01*
G01X-3374Y-34932D01*
G01X-3381Y-34945D01*
G01X-3388Y-34956D01*
G01X-3395Y-34967D01*
G01X-3404Y-34977D01*
G01X-2946D01*
G01X-2964Y-34959D01*
G01X-2981Y-34944D01*
G01X-2998Y-34931D01*
G01X-3030Y-34910D01*
G01X-3074Y-34884D01*
G01X-3086Y-34875D01*
G01X-3097Y-34865D01*
G01X-3107Y-34854D01*
G01X-3116Y-34842D01*
G01X-3122Y-34827D01*
G01X-3127Y-34809D01*
G01X-3131Y-34788D01*
G01X-3132Y-34764D01*
G37*
G36*
G01X-1930Y-36669D02*
G01X-2134Y-36669D01*
G01Y-36686D01*
G01X-2136Y-36703D01*
G01X-2140Y-36718D01*
G01X-2145Y-36733D01*
G01X-2150Y-36747D01*
G01X-2157Y-36760D01*
G01X-2165Y-36772D01*
G01X-2173Y-36785D01*
G01X-2193Y-36809D01*
G01X-2249Y-36869D01*
G01X-2261Y-36882D01*
G01X-1803D01*
G01X-1861Y-36820D01*
G01X-1881Y-36797D01*
G01X-1891Y-36785D01*
G01X-1899Y-36772D01*
G01X-1907Y-36760D01*
G01X-1914Y-36747D01*
G01X-1919Y-36733D01*
G01X-1924Y-36718D01*
G01X-1928Y-36703D01*
G01X-1930Y-36686D01*
G01Y-36669D01*
G37*
G36*
G01X-406Y-37431D02*
G01X-610Y-37431D01*
G01Y-37448D01*
G01X-612Y-37465D01*
G01X-616Y-37480D01*
G01X-621Y-37495D01*
G01X-626Y-37509D01*
G01X-633Y-37522D01*
G01X-641Y-37534D01*
G01X-649Y-37547D01*
G01X-669Y-37571D01*
G01X-725Y-37631D01*
G01X-737Y-37644D01*
G01X-279D01*
G01X-337Y-37582D01*
G01X-357Y-37559D01*
G01X-367Y-37547D01*
G01X-375Y-37534D01*
G01X-383Y-37522D01*
G01X-390Y-37509D01*
G01X-395Y-37495D01*
G01X-400Y-37480D01*
G01X-404Y-37465D01*
G01X-406Y-37448D01*
G01Y-37431D01*
G37*
G36*
G01X2480Y-38193D02*
G01X2277Y-38193D01*
G01Y-38206D01*
G01X2275Y-38220D01*
G01X2273Y-38234D01*
G01X2269Y-38249D01*
G01X2260Y-38277D01*
G01X2248Y-38306D01*
G01X2234Y-38334D01*
G01X2218Y-38361D01*
G01X2202Y-38385D01*
G01X2184Y-38406D01*
G01X2642D01*
G01X2627Y-38390D01*
G01X2597Y-38363D01*
G01X2543Y-38321D01*
G01X2531Y-38311D01*
G01X2520Y-38301D01*
G01X2510Y-38290D01*
G01X2502Y-38278D01*
G01X2494Y-38265D01*
G01X2488Y-38250D01*
G01X2484Y-38233D01*
G01X2481Y-38215D01*
G01X2480Y-38193D01*
G37*
G36*
G01X1948Y-38955D02*
G01X1745Y-38955D01*
G01X1744Y-38982D01*
G01X1741Y-39010D01*
G01X1735Y-39039D01*
G01X1728Y-39068D01*
G01X1718Y-39096D01*
G01X1706Y-39123D01*
G01X1699Y-39136D01*
G01X1692Y-39147D01*
G01X1685Y-39158D01*
G01X1676Y-39168D01*
G01X2134D01*
G01X2116Y-39150D01*
G01X2099Y-39135D01*
G01X2082Y-39122D01*
G01X2050Y-39101D01*
G01X2006Y-39075D01*
G01X1994Y-39066D01*
G01X1983Y-39056D01*
G01X1973Y-39045D01*
G01X1964Y-39033D01*
G01X1958Y-39018D01*
G01X1953Y-39000D01*
G01X1949Y-38979D01*
G01X1948Y-38955D01*
G37*
G04 Tear End*

G04 Pad Start*
G54D10*
G01X31323Y22021D03*
G01X33863Y22021D03*
G01X8463Y22021D03*
G01X33863Y16941D03*
G01X31323Y16941D03*
G01X31323Y14401D03*
G01X33863Y14401D03*
G01X33863Y11861D03*
G01X31323Y11861D03*
G01X31323Y9321D03*
G01X33863Y9321D03*
G01X33863Y6781D03*
G01X31323Y6781D03*
G01X33863Y4241D03*
G01X31323Y4241D03*
G01X33863Y1701D03*
G01X31323Y1701D03*
G01X33863Y-839D03*
G01X31323Y-839D03*
G01X33863Y-3379D03*
G01X31323Y-3379D03*
G01X31323Y-5919D03*
G01X33863Y-5919D03*
G01X31323Y-8459D03*
G01X33863Y-8459D03*
G01X33863Y-10999D03*
G01X31323Y-10999D03*
G01X31323Y-13539D03*
G01X33863Y-13539D03*
G01X31323Y-18619D03*
G01X33863Y-16079D03*
G01X31323Y-16079D03*
G01X33863Y-18619D03*
G01X33863Y-21159D03*
G01X31323Y-21159D03*
G01X31323Y-23699D03*
G01X33863Y-23699D03*
G01X33863Y-26239D03*
G01X31323Y-26239D03*
G01X28783Y-26239D03*
G01X28783Y-23699D03*
G01X26243Y-23699D03*
G01X26243Y-26239D03*
G01X23703Y-23699D03*
G01X23703Y-26239D03*
G01X21163Y-26239D03*
G01X21163Y-23699D03*
G01X5923Y-23699D03*
G01X5923Y-26239D03*
G01X3383Y-26239D03*
G01X3383Y-23699D03*
G01X843Y-26239D03*
G01X843Y-23699D03*
G01X-1697Y-23699D03*
G01X-1697Y-26239D03*
G01X-4237Y-26239D03*
G01X-6777Y-26239D03*
G01X-4237Y-23699D03*
G01X-6777Y-23699D03*
G01X-6777Y-21159D03*
G01X-4237Y-21159D03*
G01X-6777Y-18619D03*
G01X-4237Y-18619D03*
G01X-4237Y-16079D03*
G01X-6777Y-16079D03*
G01X-6777Y-13539D03*
G01X-4237Y-13539D03*
G01X-6777Y-10999D03*
G01X-4237Y-8459D03*
G01X-6777Y-8459D03*
G01X-6777Y-5919D03*
G01X-4237Y-5919D03*
G01X-4237Y-3379D03*
G01X-4237Y-839D03*
G01X-6777Y1701D03*
G01X-4237Y1701D03*
G01X-4237Y4241D03*
G01X-6777Y4241D03*
G01X-6777Y6781D03*
G01X-4237Y6781D03*
G01X-4237Y9321D03*
G01X-6777Y9321D03*
G01X-6777Y11861D03*
G01X-4237Y11861D03*
G01X-4237Y14401D03*
G01X-6777Y14401D03*
G01X-4237Y16941D03*
G01X-4237Y19481D03*
G01X3383Y19481D03*
G01X843Y19481D03*
G01X5923Y19481D03*
G01X8463Y19481D03*
G01X11003Y19481D03*
G01X13543Y19481D03*
G01X16083Y19481D03*
G01X18623Y19481D03*
G01X21163Y19481D03*
G01X23703Y19481D03*
G01X26243Y19481D03*
G01X28783Y19481D03*
G01X31323Y19481D03*
G01X33863Y19481D03*
G01X28783Y22021D03*
G01X26243Y22021D03*
G01X23703Y22021D03*
G01X21163Y22021D03*
G01X18623Y22021D03*
G01X16083Y22021D03*
G01X13543Y22021D03*
G01X11003Y22021D03*
G01X5923Y22021D03*
G01X843Y22021D03*
G01X-6777Y16941D03*
G01X-6777Y19481D03*
G01X-6777Y22021D03*
G01X3383Y22021D03*
G01X-6777Y-839D03*
G01X-6777Y-3379D03*
G01X-4237Y22021D03*
G01X-1697Y22021D03*
G01X-1697Y19481D03*
G01X-4237Y-10999D03*
G54D11*
G01X-25451Y-45361D03*
G54D12*
G01X-22301Y-39761D03*
G01X-22301Y-41011D03*
G01X-22301Y-42261D03*
G01X-22301Y-43511D03*
G01X-22301Y-38511D03*
G01X-22301Y-37261D03*
G54D11*
G01X-25451Y-35411D03*
G54D13*
G01X19332Y-34417D03*
G54D14*
G01X16830Y-34417D03*
G01X14331Y-34417D03*
G01X11831Y-34417D03*
G01X9332Y-34417D03*
G01X6830Y-34417D03*
G54D16*
G01X40640Y-14732D03*
G54D17*
G01X40640Y-17272D03*
G01X40640Y-19812D03*
G01X40640Y-22352D03*
G54D18*
G01X-22733Y14991D03*
G01X-22733Y12451D03*
G54D19*
G01X-22733Y9911D03*
G54D20*
G01X42291Y26670D03*
G54D21*
G01X44831Y26670D03*
G01X42291Y24130D03*
G01X44831Y24130D03*
G01X42291Y21590D03*
G01X44831Y21590D03*
G01X42291Y19050D03*
G01X44831Y19050D03*
G54D22*
G01X843Y-46482D03*
G01X843Y-49022D03*
G01X3383Y-49022D03*
G01X3383Y-46482D03*
G01X5923Y-49022D03*
G01X5923Y-46482D03*
G01X8463Y-49022D03*
G01X8463Y-46482D03*
G01X11003Y-49022D03*
G01X11003Y-46482D03*
G01X13543Y-49022D03*
G01X13543Y-46482D03*
G01X16083Y-49022D03*
G01X16083Y-46482D03*
G01X18623Y-49022D03*
G01X18623Y-46482D03*
G01X21163Y-49022D03*
G01X21163Y-46482D03*
G01X23703Y-49022D03*
G01X23703Y-46482D03*
G01X26243Y-49022D03*
G54D23*
G01X26243Y-46482D03*
G54D24*
G01X-17526Y-16383D03*
G54D22*
G01X-17526Y-18923D03*
G01X-17526Y-21463D03*
G01X-17526Y-24003D03*
G01X-17526Y-26543D03*
G01X-17526Y-29083D03*
G01X-17526Y-31623D03*
G01X-17526Y-34163D03*
G01X-15141Y14991D03*
G01X-17681Y14991D03*
G01X-15141Y12451D03*
G01X-17681Y12451D03*
G01X-15141Y9911D03*
G01X-17681Y9911D03*
G01X-15141Y7371D03*
G01X-17681Y7371D03*
G01X-15141Y4831D03*
G01X-17681Y4831D03*
G01X-15141Y2291D03*
G01X-17681Y2291D03*
G01X-15141Y-249D03*
G01X-17681Y-249D03*
G01X-15141Y-2789D03*
G54D25*
G01X-17681Y-2789D03*
G54D22*
G01X42319Y-2789D03*
G01X44859Y-2789D03*
G01X42319Y-249D03*
G01X44859Y-249D03*
G01X42319Y2291D03*
G01X44859Y2291D03*
G01X42319Y4831D03*
G01X44859Y4831D03*
G01X42319Y7371D03*
G01X44859Y7371D03*
G01X42319Y9911D03*
G01X44859Y9911D03*
G01X42319Y12451D03*
G01X44859Y12451D03*
G01X42319Y14991D03*
G54D24*
G01X44859Y14991D03*
G54D26*
G01X33033Y-46355D03*
G54D27*
G01X35533Y-46355D03*
G01X38033Y-46355D03*
G01X40533Y-46355D03*
G01X43033Y-46355D03*
G01X45533Y-46355D03*
G01X48033Y-46355D03*
G01X50533Y-46355D03*
G54D22*
G01X15240Y-4540D03*
G01X15240Y-540D03*
G04 Pad End*

G04 Via Start*
G54D28*
G01X30734Y27432D03*
G01X28194Y27432D03*
G01X37465Y-6985D03*
G01X36195Y-6604D03*
G01X23114Y17907D03*
G01X23114Y27432D03*
G01X-6477Y33274D03*
G01X438Y-10922D03*
G01X4445Y-40005D03*
G01X24003Y-13081D03*
G01X24892Y-13335D03*
G01X25675Y-14107D03*
G01X-6604Y27686D03*
G01X35560Y-40259D03*
G01X9271Y-16764D03*
G01X12192Y-39751D03*
G01X11303Y-36195D03*
G01X22987Y14274D03*
G01X22912Y11734D03*
G01X22912Y9194D03*
G01X22912Y6654D03*
G01X22912Y4114D03*
G01X22912Y1574D03*
G01X22912Y-966D03*
G01X22912Y-3506D03*
G01X22912Y-6046D03*
G01X6828Y-7747D03*
G01X-14224Y-43561D03*
G01X15875Y26974D03*
G01X15875Y28498D03*
G01X15875Y30022D03*
G01X17399Y25450D03*
G01X17399Y30022D03*
G01X-24239Y18923D03*
G01X-24239Y24003D03*
G01X-24239Y29083D03*
G01X-24239Y34163D03*
G01X-21699Y18923D03*
G01X-21699Y24003D03*
G01X-21699Y29083D03*
G01X-21699Y34163D03*
G01X-19159Y24003D03*
G01X-19159Y29083D03*
G01X-19159Y34163D03*
G01X-16619Y24003D03*
G01X-16619Y29083D03*
G01X-16619Y34163D03*
G01X-14079Y29083D03*
G01X-14079Y34163D03*
G01X-11539Y34163D03*
G01X-1379Y34163D03*
G01X10033Y33655D03*
G01X12573Y33655D03*
G01X15113Y33655D03*
G01X10368Y-1924D03*
G01X12908Y-1924D03*
G01X-1397Y11811D03*
G01X1652Y11811D03*
G01X-24638Y-41698D03*
G01X-24638Y-36618D03*
G01X-24638Y-31538D03*
G01X-24638Y-26458D03*
G01X-24638Y-21378D03*
G01X-24638Y-16298D03*
G01X-22098Y-36618D03*
G01X-22098Y-31538D03*
G01X-22098Y-26458D03*
G01X-22098Y-21378D03*
G01X-22098Y-16298D03*
G01X-17018Y-36618D03*
G01X-14478Y-36618D03*
G01X-14478Y-16298D03*
G01X-11938Y-31538D03*
G01X-11938Y-26458D03*
G01X-11938Y-16298D03*
G01X-9398Y-31538D03*
G01X-9398Y-26458D03*
G01X50739Y-9461D03*
G01X50739Y-14160D03*
G01X50739Y-18732D03*
G01X50739Y-23304D03*
G01X45466Y-28321D03*
G01X53043Y14224D03*
G01X53043Y9144D03*
G01X53043Y4064D03*
G01X21209Y24457D03*
G01X21209Y25727D03*
G01X21209Y29537D03*
G01X21844Y27432D03*
G01X33782Y29718D03*
G01X33274Y25273D03*
G01X-25908Y9017D03*
G01X-3175Y-35179D03*
G01X-2032Y-37084D03*
G01X-508Y-37846D03*
G01X2413Y-38608D03*
G01X1905Y-39370D03*
G01X39751Y32639D03*
G01X39751Y-2921D03*
G01X39751Y2159D03*
G01X39751Y7239D03*
G01X39751Y12319D03*
G01X39751Y17399D03*
G01X42291Y32639D03*
G01X44831Y32639D03*
G01X47371Y32639D03*
G01X47371Y-2921D03*
G01X47371Y22479D03*
G01X49911Y-2921D03*
G01X49911Y22479D03*
G01X49911Y27559D03*
G01X49911Y32639D03*
G01X52451Y-2921D03*
G01X52451Y22479D03*
G01X52451Y27559D03*
G01X52451Y32639D03*
G01X-17018Y-12700D03*
G01X-17018Y-7620D03*
G01X-14478Y-12700D03*
G01X-14478Y-7620D03*
G01X-11938Y-12700D03*
G01X-11938Y-7620D03*
G01X-11938Y-2540D03*
G01X30607Y-30099D03*
G01X35687Y-35179D03*
G01X35687Y-30099D03*
G01X40767Y-40259D03*
G01X40767Y-35179D03*
G01X40767Y-30099D03*
G01X45847Y-40259D03*
G01X50927Y-40259D03*
G01X53340Y-27305D03*
G04 Via End*

G04 Track Start*
G54D29*
G01X32643Y18161D02*
G01X33863Y16941D01*
G01X37465Y-6981D02*
G01X33863Y-3379D01*
G01X32516Y-4572D02*
G01X31323Y-3379D01*
G01X23114Y24765D02*
G01X23114Y27432D01*
G01X31323Y14401D02*
G01X32543Y15621D01*
G01X36957Y15621D02*
G01X37719Y16383D01*
G01X32543Y15621D02*
G01X36957Y15621D01*
G01X42291Y24130D02*
G01X40640Y24130D01*
G01X37719Y21209D01*
G01Y16383D01*
G01X23114Y17907D02*
G01X22479Y18542D01*
G01Y24130D01*
G01X23114Y24765D01*
G01X32639Y20797D02*
G01X31323Y19481D01*
G01X30734Y27432D02*
G01X32639Y25527D01*
G01X32639Y20797D02*
G01X32639Y25527D01*
G01X28194Y27432D02*
G01X28194Y26289D01*
G01X31115Y18161D02*
G01X32643Y18161D01*
G01X28194Y26289D02*
G01X30099Y24384D01*
G01Y19177D01*
G01X31115Y18161D01*
G01X-6477Y31877D02*
G01X-6477Y33274D01*
G01X438Y-10922D02*
G01X-705Y-9779D01*
G01X32516Y-14732D02*
G01X31323Y-13539D01*
G01X35432Y-14732D02*
G01X32516Y-14732D01*
G01X37465Y-6985D02*
G01X37465Y-6981D01*
G01X40640Y-19812D02*
G01X37719Y-16891D01*
G01X35432Y-14732D02*
G01X36703Y-16003D01*
G01X36703Y-18415D02*
G01X40640Y-22352D01*
G01X36703Y-16003D02*
G01X36703Y-18415D01*
G01X33863Y-13539D02*
G01X35399Y-13539D01*
G01X37719Y-15860D01*
G01X37719Y-16891D02*
G01X37719Y-15860D01*
G01X8463Y-40305D02*
G01X8463Y-46482D01*
G01X3383Y-24049D02*
G01X3383Y-23699D01*
G01X2379Y-38574D02*
G01X2379Y-25053D01*
G01X3383Y-24049D01*
G01X-3233Y-17083D02*
G01X-4237Y-16079D01*
G01X-1701Y-13539D02*
G01X-4237Y-13539D01*
G01X-508Y-14732D02*
G01X-1701Y-13539D01*
G01X21463Y-29718D02*
G01X21463Y-36449D01*
G01X25675Y-14107D02*
G01X20066Y-19716D01*
G01X20066Y-27305D02*
G01X22098Y-29337D01*
G01X20066Y-19716D02*
G01X20066Y-27305D01*
G01X22098Y-29337D02*
G01X22098Y-36830D01*
G01X11003Y-49022D02*
G01X12192Y-47833D01*
G01X-6777Y-5919D02*
G01X-9144Y-3552D01*
G01Y22606D01*
G01X-6604Y25146D02*
G01X-9144Y22606D01*
G01X-6604Y27686D02*
G01X-6604Y25146D01*
G01X-4237Y-23795D02*
G01X-4237Y-23699D01*
G01X-5241Y-24799D02*
G01X-4237Y-23795D01*
G01X-5588Y-22510D02*
G01X-4237Y-21159D01*
G01X-22301Y-39761D02*
G01X-11567Y-39761D01*
G01X-22301Y-38511D02*
G01X-11841Y-38511D01*
G01X-7874Y-34544D01*
G01Y-24796D01*
G01X-6777Y-23699D01*
G01X-10759Y-42261D02*
G01X-5241Y-36743D01*
G01X-22301Y-42261D02*
G01X-10759Y-42261D01*
G01X-5241Y-36743D02*
G01X-5241Y-24799D01*
G01X27432Y-25050D02*
G01X28783Y-23699D01*
G01X31323Y-26239D02*
G01X31323Y-36022D01*
G01X35560Y-40259D01*
G01X9271Y-16764D02*
G01X9271Y-34356D01*
G01X9332Y-34417D01*
G01X5923Y-49022D02*
G01X7309Y-47636D01*
G01Y-40316D01*
G01X12192Y-47833D02*
G01X12192Y-39751D01*
G01X33863Y1701D02*
G01X32543Y381D01*
G01X30480D01*
G01X14331Y-15768D01*
G01Y-34417D01*
G01X31323Y1701D02*
G01X29006Y1701D01*
G01X11831Y-15474D01*
G01Y-34417D01*
G01X24765Y28448D02*
G01X22225Y30988D01*
G01X-5588D01*
G01X-6477Y31877D01*
G54D30*
G01X-14224Y-43561D02*
G01X-14274Y-43511D01*
G01X-22301D01*
G54D29*
G01X9652Y-47833D02*
G01X8463Y-49022D01*
G01X-508Y-37846D02*
G01X-508Y-14732D01*
G01X2413Y-38608D02*
G01X2379Y-38574D01*
G01X1905Y-39370D02*
G01X1847Y-39312D01*
G01Y-24703D01*
G01X843Y-23699D01*
G01X4445Y-40005D02*
G01X4445Y-17145D01*
G01X-6777Y-10999D02*
G01X-5407Y-12370D01*
G01X-330Y-12370D02*
G01X-5407Y-12370D01*
G01X-330Y-12370D02*
G01X4445Y-17145D01*
G01X-6777Y-16079D02*
G01X-5557Y-14859D01*
G01X-3846D01*
G01X-2794Y-15911D02*
G01X-3846Y-14859D01*
G01X-2032Y-37084D02*
G01X-2032Y-32027D01*
G01X-2794Y-31265D01*
G01Y-15911D01*
G01X-3175Y-35179D02*
G01X-3233Y-35121D01*
G01Y-17083D01*
G01X11303Y-36195D02*
G01X11303Y-36138D01*
G01X10668Y-35503D01*
G01Y-14224D01*
G54D31*
G01X42319Y12451D02*
G01X44859Y12451D01*
G01X42319Y-249D02*
G01X44859Y-249D01*
G54D29*
G01X-17372Y-9779D02*
G01X-22733Y-4418D01*
G01X-705Y-9779D02*
G01X-17372Y-9779D01*
G01X-22733Y-4418D02*
G01X-22733Y9911D01*
G01X28783Y22021D02*
G01X28779Y22021D01*
G01X24765Y26035D01*
G01Y28448D01*
G54D32*
G01X-15141Y2291D02*
G01X-13462Y3970D01*
G01Y8232D01*
G01X-15141Y9911D01*
G54D29*
G01X38033Y-46355D02*
G01X37973Y-46355D01*
G01X26243Y-34625D01*
G01Y-26239D01*
G01X45533Y-46355D02*
G01X42485Y-43307D01*
G01X43033Y-46355D02*
G01X41128Y-44450D01*
G01X42485Y-43307D02*
G01X37211Y-43307D01*
G01X28783Y-34879D01*
G01Y-26239D01*
G01X41128Y-44450D02*
G01X37211Y-44450D01*
G01X27432Y-34671D01*
G01Y-25050D01*
G01X24892Y-13335D02*
G01X19431Y-18796D01*
G01X18669Y-18415D02*
G01X24003Y-13081D01*
G01X19431Y-18796D02*
G01X19431Y-27686D01*
G01X21463Y-29718D01*
G01X20701Y-36195D02*
G01X20701Y-30099D01*
G01X18669Y-28067D01*
G01Y-18415D01*
G01X7309Y-40316D02*
G01X10160Y-37465D01*
G01X19431D01*
G01X20701Y-36195D01*
G01X21463Y-36449D02*
G01X19812Y-38100D01*
G01X10668D01*
G01X8463Y-40305D01*
G01X9652Y-40005D02*
G01X9652Y-47833D01*
G01X22098Y-36830D02*
G01X20193Y-38735D01*
G01X10922D01*
G01X9652Y-40005D01*
G01X34163Y-4572D02*
G01X32516Y-4572D01*
G01X36195Y-6604D02*
G01X34163Y-4572D01*
G01X10668Y-14224D02*
G01X17145Y-7747D01*
G01Y18419D01*
G01X16083Y19481D01*
G01X-6777Y-34971D02*
G01X-6777Y-26239D01*
G01X-6777Y-34971D02*
G01X-11567Y-39761D01*
G01X-22301Y-41011D02*
G01X-11039Y-41011D01*
G01X-5588Y-35560D01*
G01Y-22510D01*
G01X23703Y-38862D02*
G01X23703Y-26239D01*
G01X23703Y-38862D02*
G01X16083Y-46482D01*
G04 Track End*

M02*
