G04 Layer: InnerLayer1*
G04 EasyEDA Pro v2.1.21.9b64d12f.b3811b, 2024-07-11 22:11:45*
G04 Gerber Generator version 0.3*
G04 Scale: 100 percent, Rotated: No, Reflected: No*
G04 Dimensions in millimeters*
G04 Leading zeros omitted, absolute positions, 3 integers and 3 decimals*
%FSLAX33Y33*%
%MOMM*%
%ADD10C,1.5*%
%ADD11R,1.6X1.6*%
%ADD12C,1.6*%
%ADD13R,1.7X1.7*%
%ADD14C,1.7*%
%ADD15C,1.5780*%
%ADD16C,1.575*%
%ADD17R,1.575X1.575*%
%ADD18R,1.6X1.6*%
%ADD19C,1.6*%
%ADD20C,1.8*%
%ADD21R,1.8X1.8*%
%ADD22R,1.8X1.8*%
%ADD23R,1.8X1.8*%
%ADD24R,1.524X1.524*%
%ADD25C,1.524*%
%ADD26C,0.61*%
G75*


G04 PlaneZone Start*
G36*
G01X29947Y-50190D02*
G01X29947Y-44577D01*
G03X29917Y-44505I-102J0D01*
G01X27123Y-41711D01*
G03X27051Y-41681I-72J-72D01*
G01X-2244D01*
G01X-7438Y-36488D01*
G01Y-26999D01*
G03X-6777Y-27246I660J760D01*
G03X-5771Y-26239I0J1007D01*
G03X-6777Y-25233I-1007J0D01*
G03X-7438Y-25480I0J-1007D01*
G01Y-24459D01*
G03X-6777Y-24706I660J760D01*
G03X-5771Y-23699I0J1007D01*
G03X-6777Y-22693I-1007J0D01*
G03X-7438Y-22940I0J-1007D01*
G01Y-21919D01*
G03X-6777Y-22166I660J760D01*
G03X-5771Y-21159I0J1007D01*
G03X-6777Y-20153I-1007J0D01*
G03X-7438Y-20400I0J-1007D01*
G01Y-19379D01*
G03X-6777Y-19626I660J760D01*
G03X-5771Y-18619I0J1007D01*
G03X-6777Y-17613I-1007J0D01*
G03X-7438Y-17860I0J-1007D01*
G01Y-16839D01*
G03X-6777Y-17086I660J760D01*
G03X-5771Y-16079I0J1007D01*
G03X-6777Y-15073I-1007J0D01*
G03X-7438Y-15320I0J-1007D01*
G01Y-14299D01*
G03X-6777Y-14546I660J760D01*
G03X-5771Y-13539I0J1007D01*
G03X-6777Y-12533I-1007J0D01*
G03X-7438Y-12780I0J-1007D01*
G01Y-11759D01*
G03X-6777Y-12006I660J760D01*
G03X-5771Y-10999I0J1007D01*
G03X-6777Y-9993I-1007J0D01*
G03X-7438Y-10240I0J-1007D01*
G01Y-9219D01*
G03X-6777Y-9466I660J760D01*
G03X-5771Y-8459I0J1007D01*
G03X-6777Y-7453I-1007J0D01*
G03X-7438Y-7700I0J-1007D01*
G01Y-6679D01*
G03X-6777Y-6926I660J760D01*
G03X-5771Y-5919I0J1007D01*
G03X-6777Y-4913I-1007J0D01*
G03X-7438Y-5160I0J-1007D01*
G01Y-4139D01*
G03X-6777Y-4386I660J760D01*
G03X-5771Y-3379I0J1007D01*
G03X-6777Y-2373I-1007J0D01*
G03X-7438Y-2620I0J-1007D01*
G01Y-1599D01*
G03X-6777Y-1846I660J760D01*
G03X-5771Y-839I0J1007D01*
G03X-6777Y167I-1007J0D01*
G03X-7745Y-563I0J-1007D01*
G01X-10671Y2363D01*
G03X-10743Y2393I-72J-72D01*
G01X-13989D01*
G03X-15141Y3448I-1152J-102D01*
G03X-16293Y2393I0J-1157D01*
G01X-16529D01*
G03X-17681Y3448I-1152J-102D01*
G03X-18833Y2393I0J-1157D01*
G01X-19680D01*
G03X-19752Y2363I0J-102D01*
G01X-21281Y834D01*
G03X-21311Y762I72J-72D01*
G01Y-6604D01*
G03X-21281Y-6676I102J0D01*
G01X-15596Y-12361D01*
G01Y-20125D01*
G01Y-22056D01*
G01X-16717Y-23177D01*
G03X-17526Y-22846I-809J-826D01*
G03X-18683Y-24003I0J-1157D01*
G03X-18552Y-24536I1157J0D01*
G01X-23418D01*
G01X-26921Y-21033D01*
G01Y7766D01*
G01X-26920Y7767D01*
G01X-26168Y8519D01*
G03X-25908Y8456I260J498D01*
G03X-25347Y9017I0J561D01*
G03X-25410Y9277I-561J0D01*
G01X-24661Y10026D01*
G01X-23777D01*
G01Y9124D01*
G03X-23520Y8867I257J0D01*
G01X-21946D01*
G03X-21689Y9124I0J257D01*
G01Y10026D01*
G01X-21124D01*
G01X-19404Y8306D01*
G03X-19332Y8276I72J72D01*
G01X-9910D01*
G03X-9839Y8306I0J102D01*
G01X-7198Y10946D01*
G03X-6777Y10854I421J914D01*
G03X-5771Y11861I0J1007D01*
G03X-5863Y12281I-1007J0D01*
G01X-4658Y13486D01*
G03X-4237Y13394I421J914D01*
G03X-3231Y14401I0J1007D01*
G03X-3323Y14821I-1007J0D01*
G01X-1452Y16692D01*
G03X-1422Y16764I-72J72D01*
G01Y18513D01*
G03X-691Y19481I-275J968D01*
G03X-1422Y20449I-1007J0D01*
G01Y21053D01*
G03X-691Y22021I-275J968D01*
G03X-1422Y22989I-1007J0D01*
G01Y23114D01*
G03X-1452Y23186I-102J0D01*
G01X-2849Y24583D01*
G03X-2921Y24613I-72J-72D01*
G01X-13487D01*
G01Y32343D01*
G01X-11995Y33835D01*
G03X-11539Y33602I456J328D01*
G03X-10978Y34163I0J561D01*
G03X-11211Y34619I-561J0D01*
G01X-10372Y35458D01*
G01X9398D01*
G01X11261D01*
G01X12507Y34212D01*
G03X12012Y33655I66J-557D01*
G03X12573Y33094I561J0D01*
G03X13130Y33589I0J561D01*
G01X14249Y32470D01*
G01Y26945D01*
G03X14279Y26873I102J0D01*
G01X17298Y23854D01*
G03X17370Y23824I72J72D01*
G01X33821D01*
G01X35666Y21979D01*
G01Y6777D01*
G03X35696Y6705I102J0D01*
G01X38633Y3768D01*
G01Y-16066D01*
G03X38663Y-16138I102J0D01*
G01X39268Y-16743D01*
G01Y-47710D01*
G01X36788Y-50190D01*
G01X29947D01*
G37*
%LPC*%
G36*
G01X25675Y-14668D02*
G03X26237Y-14107I0J561D01*
G03X25675Y-13545I-561J0D01*
G03X25363Y-13640I0J-561D01*
G03X25453Y-13335I-471J305D01*
G03X24892Y-12774I-561J0D01*
G03X24535Y-12902I0J-561D01*
G03X24003Y-12520I-532J-179D01*
G03X23442Y-13081I0J-561D01*
G03X24003Y-13642I561J0D01*
G03X24360Y-13514I0J561D01*
G03X24892Y-13896I532J179D01*
G03X25204Y-13802I0J561D01*
G03X25114Y-14107I471J-305D01*
G03X25675Y-14668I561J0D01*
G37*
G36*
G01X-17526Y-22620D02*
G03X-16369Y-21463I0J1157D01*
G03X-17526Y-20306I-1157J0D01*
G03X-18683Y-21463I0J-1157D01*
G03X-17526Y-22620I1157J0D01*
G37*
G36*
G01X-18683Y-17283D02*
G03X-18426Y-17540I257J0D01*
G01X-16626D01*
G03X-16369Y-17283I0J257D01*
G01Y-15483D01*
G03X-16626Y-15226I-257J0D01*
G01X-18426D01*
G03X-18683Y-15483I0J-257D01*
G01Y-17283D01*
G37*
G36*
G01X15240Y-1697D02*
G03X16397Y-540I0J1157D01*
G03X15240Y617I-1157J0D01*
G03X14083Y-540I0J-1157D01*
G03X15240Y-1697I1157J0D01*
G37*
G36*
G01X14083Y-4540D02*
G03X15240Y-5697I1157J0D01*
G03X16397Y-4540I0J1157D01*
G03X15240Y-3383I-1157J0D01*
G03X14083Y-4540I0J-1157D01*
G37*
G36*
G01X8275Y-34417D02*
G03X9332Y-35474I1057J0D01*
G03X10389Y-34417I0J1057D01*
G03X9332Y-33360I-1057J0D01*
G03X8275Y-34417I0J-1057D01*
G37*
G36*
G01X6830Y-35474D02*
G03X7887Y-34417I0J1057D01*
G03X6830Y-33360I-1057J0D01*
G03X5773Y-34417I0J-1057D01*
G03X6830Y-35474I1057J0D01*
G37*
G36*
G01X16830Y-35474D02*
G03X17887Y-34417I0J1057D01*
G03X16830Y-33360I-1057J0D01*
G03X15773Y-34417I0J-1057D01*
G03X16830Y-35474I1057J0D01*
G37*
G36*
G01X13274Y-34417D02*
G03X14331Y-35474I1057J0D01*
G03X15387Y-34417I0J1057D01*
G03X14331Y-33360I-1057J0D01*
G03X13274Y-34417I0J-1057D01*
G37*
G36*
G01X11831Y-35474D02*
G03X12888Y-34417I0J1057D01*
G03X11831Y-33360I-1057J0D01*
G03X10775Y-34417I0J-1057D01*
G03X11831Y-35474I1057J0D01*
G37*
G36*
G01X37014Y-46355D02*
G03X38033Y-47374I1019J0D01*
G03X39051Y-46355I0J1019D01*
G03X38033Y-45336I-1019J0D01*
G03X37014Y-46355I0J-1019D01*
G37*
G36*
G01X34515Y-46355D02*
G03X35533Y-47374I1019J0D01*
G03X36552Y-46355I0J1019D01*
G03X35533Y-45336I-1019J0D01*
G03X34515Y-46355I0J-1019D01*
G37*
G36*
G01X33863Y-14546D02*
G03X34869Y-13539I0J1007D01*
G03X33863Y-12533I-1007J0D01*
G03X32856Y-13539I0J-1007D01*
G03X33863Y-14546I1007J0D01*
G37*
G36*
G01X30316Y22021D02*
G03X31323Y21014I1007J0D01*
G03X32329Y22021I0J1007D01*
G03X31323Y23027I-1007J0D01*
G03X30316Y22021I0J-1007D01*
G37*
G36*
G01X-5244Y-8459D02*
G03X-4237Y-9466I1007J0D01*
G03X-3231Y-8459I0J1007D01*
G03X-4237Y-7453I-1007J0D01*
G03X-5244Y-8459I0J-1007D01*
G37*
G36*
G01X28783Y-27246D02*
G03X29789Y-26239I0J1007D01*
G03X28783Y-25233I-1007J0D01*
G03X27776Y-26239I0J-1007D01*
G03X28783Y-27246I1007J0D01*
G37*
G36*
G01X32856Y-18619D02*
G03X33863Y-19626I1007J0D01*
G03X34869Y-18619I0J1007D01*
G03X33863Y-17613I-1007J0D01*
G03X32856Y-18619I0J-1007D01*
G37*
G36*
G01X2376Y22021D02*
G03X3383Y21014I1007J0D01*
G03X4389Y22021I0J1007D01*
G03X3383Y23027I-1007J0D01*
G03X2376Y22021I0J-1007D01*
G37*
G36*
G01X33863Y-9466D02*
G03X34869Y-8459I0J1007D01*
G03X33863Y-7453I-1007J0D01*
G03X32856Y-8459I0J-1007D01*
G03X33863Y-9466I1007J0D01*
G37*
G36*
G01X-164Y-26239D02*
G03X843Y-27246I1007J0D01*
G03X1849Y-26239I0J1007D01*
G03X843Y-25233I-1007J0D01*
G03X-164Y-26239I0J-1007D01*
G37*
G36*
G01X-4237Y-19626D02*
G03X-3231Y-18619I0J1007D01*
G03X-4237Y-17613I-1007J0D01*
G03X-5244Y-18619I0J-1007D01*
G03X-4237Y-19626I1007J0D01*
G37*
G36*
G01X-4237Y8314D02*
G03X-3231Y9321I0J1007D01*
G03X-4237Y10327I-1007J0D01*
G03X-5244Y9321I0J-1007D01*
G03X-4237Y8314I1007J0D01*
G37*
G36*
G01X33863Y-12006D02*
G03X34869Y-10999I0J1007D01*
G03X33863Y-9993I-1007J0D01*
G03X32856Y-10999I0J-1007D01*
G03X33863Y-12006I1007J0D01*
G37*
G36*
G01X28783Y-24706D02*
G03X29789Y-23699I0J1007D01*
G03X28783Y-22693I-1007J0D01*
G03X27776Y-23699I0J-1007D01*
G03X28783Y-24706I1007J0D01*
G37*
G36*
G01X32856Y-16079D02*
G03X33863Y-17086I1007J0D01*
G03X34869Y-16079I0J1007D01*
G03X33863Y-15073I-1007J0D01*
G03X32856Y-16079I0J-1007D01*
G37*
G36*
G01X31323Y-27246D02*
G03X32329Y-26239I0J1007D01*
G03X31323Y-25233I-1007J0D01*
G03X30316Y-26239I0J-1007D01*
G03X31323Y-27246I1007J0D01*
G37*
G36*
G01X-5244Y-10999D02*
G03X-4237Y-12006I1007J0D01*
G03X-3231Y-10999I0J1007D01*
G03X-4237Y-9993I-1007J0D01*
G03X-5244Y-10999I0J-1007D01*
G37*
G36*
G01X-164Y-23699D02*
G03X843Y-24706I1007J0D01*
G03X1849Y-23699I0J1007D01*
G03X843Y-22693I-1007J0D01*
G03X-164Y-23699I0J-1007D01*
G37*
G36*
G01X-5244Y-13539D02*
G03X-4237Y-14546I1007J0D01*
G03X-3231Y-13539I0J1007D01*
G03X-4237Y-12533I-1007J0D01*
G03X-5244Y-13539I0J-1007D01*
G37*
G36*
G01X-2704Y-26239D02*
G03X-1697Y-27246I1007J0D01*
G03X-691Y-26239I0J1007D01*
G03X-1697Y-25233I-1007J0D01*
G03X-2704Y-26239I0J-1007D01*
G37*
G36*
G01X32856Y-5919D02*
G03X33863Y-6926I1007J0D01*
G03X34869Y-5919I0J1007D01*
G03X33863Y-4913I-1007J0D01*
G03X32856Y-5919I0J-1007D01*
G37*
G36*
G01X16083Y21014D02*
G03X17089Y22021I0J1007D01*
G03X16083Y23027I-1007J0D01*
G03X15076Y22021I0J-1007D01*
G03X16083Y21014I1007J0D01*
G37*
G36*
G01X33863Y-22166D02*
G03X34869Y-21159I0J1007D01*
G03X33863Y-20153I-1007J0D01*
G03X32856Y-21159I0J-1007D01*
G03X33863Y-22166I1007J0D01*
G37*
G36*
G01X31323Y-24706D02*
G03X32329Y-23699I0J1007D01*
G03X31323Y-22693I-1007J0D01*
G03X30316Y-23699I0J-1007D01*
G03X31323Y-24706I1007J0D01*
G37*
G36*
G01X-5244Y-5919D02*
G03X-4237Y-6926I1007J0D01*
G03X-3231Y-5919I0J1007D01*
G03X-4237Y-4913I-1007J0D01*
G03X-5244Y-5919I0J-1007D01*
G37*
G36*
G01X27776Y19481D02*
G03X28783Y18474I1007J0D01*
G03X29789Y19481I0J1007D01*
G03X28783Y20487I-1007J0D01*
G03X27776Y19481I0J-1007D01*
G37*
G36*
G01X-4237Y-22166D02*
G03X-3231Y-21159I0J1007D01*
G03X-4237Y-20153I-1007J0D01*
G03X-5244Y-21159I0J-1007D01*
G03X-4237Y-22166I1007J0D01*
G37*
G36*
G01X-1697Y-24706D02*
G03X-691Y-23699I0J1007D01*
G03X-1697Y-22693I-1007J0D01*
G03X-2704Y-23699I0J-1007D01*
G03X-1697Y-24706I1007J0D01*
G37*
G36*
G01X-164Y22021D02*
G03X843Y21014I1007J0D01*
G03X1849Y22021I0J1007D01*
G03X843Y23027I-1007J0D01*
G03X-164Y22021I0J-1007D01*
G37*
G36*
G01X5923Y18474D02*
G03X6929Y19481I0J1007D01*
G03X5923Y20487I-1007J0D01*
G03X4916Y19481I0J-1007D01*
G03X5923Y18474I1007J0D01*
G37*
G36*
G01X-4237Y-17086D02*
G03X-3231Y-16079I0J1007D01*
G03X-4237Y-15073I-1007J0D01*
G03X-5244Y-16079I0J-1007D01*
G03X-4237Y-17086I1007J0D01*
G37*
G36*
G01X3383Y18474D02*
G03X4389Y19481I0J1007D01*
G03X3383Y20487I-1007J0D01*
G03X2376Y19481I0J-1007D01*
G03X3383Y18474I1007J0D01*
G37*
G36*
G01X32856Y-3379D02*
G03X33863Y-4386I1007J0D01*
G03X34869Y-3379I0J1007D01*
G03X33863Y-2373I-1007J0D01*
G03X32856Y-3379I0J-1007D01*
G37*
G36*
G01X27776Y22021D02*
G03X28783Y21014I1007J0D01*
G03X29789Y22021I0J1007D01*
G03X28783Y23027I-1007J0D01*
G03X27776Y22021I0J-1007D01*
G37*
G36*
G01X32856Y-26239D02*
G03X33863Y-27246I1007J0D01*
G03X34869Y-26239I0J1007D01*
G03X33863Y-25233I-1007J0D01*
G03X32856Y-26239I0J-1007D01*
G37*
G36*
G01X31323Y-22166D02*
G03X32329Y-21159I0J1007D01*
G03X31323Y-20153I-1007J0D01*
G03X30316Y-21159I0J-1007D01*
G03X31323Y-22166I1007J0D01*
G37*
G36*
G01X-4237Y-4386D02*
G03X-3231Y-3379I0J1007D01*
G03X-4237Y-2373I-1007J0D01*
G03X-5244Y-3379I0J-1007D01*
G03X-4237Y-4386I1007J0D01*
G37*
G36*
G01X5923Y21014D02*
G03X6929Y22021I0J1007D01*
G03X5923Y23027I-1007J0D01*
G03X4916Y22021I0J-1007D01*
G03X5923Y21014I1007J0D01*
G37*
G36*
G01X-4237Y-27246D02*
G03X-3231Y-26239I0J1007D01*
G03X-4237Y-25233I-1007J0D01*
G03X-5244Y-26239I0J-1007D01*
G03X-4237Y-27246I1007J0D01*
G37*
G36*
G01X31323Y-19626D02*
G03X32329Y-18619I0J1007D01*
G03X31323Y-17613I-1007J0D01*
G03X30316Y-18619I0J-1007D01*
G03X31323Y-19626I1007J0D01*
G37*
G36*
G01X33863Y21014D02*
G03X34869Y22021I0J1007D01*
G03X33863Y23027I-1007J0D01*
G03X32856Y22021I0J-1007D01*
G03X33863Y21014I1007J0D01*
G37*
G36*
G01X26243Y-27246D02*
G03X27249Y-26239I0J1007D01*
G03X26243Y-25233I-1007J0D01*
G03X25236Y-26239I0J-1007D01*
G03X26243Y-27246I1007J0D01*
G37*
G36*
G01X32856Y-23699D02*
G03X33863Y-24706I1007J0D01*
G03X34869Y-23699I0J1007D01*
G03X33863Y-22693I-1007J0D01*
G03X32856Y-23699I0J-1007D01*
G37*
G36*
G01X31323Y18474D02*
G03X32329Y19481I0J1007D01*
G03X31323Y20487I-1007J0D01*
G03X30316Y19481I0J-1007D01*
G03X31323Y18474I1007J0D01*
G37*
G36*
G01X843Y18474D02*
G03X1849Y19481I0J1007D01*
G03X843Y20487I-1007J0D01*
G03X-164Y19481I0J-1007D01*
G03X843Y18474I1007J0D01*
G37*
G36*
G01X2376Y-26239D02*
G03X3383Y-27246I1007J0D01*
G03X4389Y-26239I0J1007D01*
G03X3383Y-25233I-1007J0D01*
G03X2376Y-26239I0J-1007D01*
G37*
G36*
G01X-5244Y-23699D02*
G03X-4237Y-24706I1007J0D01*
G03X-3231Y-23699I0J1007D01*
G03X-4237Y-22693I-1007J0D01*
G03X-5244Y-23699I0J-1007D01*
G37*
G36*
G01X30316Y-16079D02*
G03X31323Y-17086I1007J0D01*
G03X32329Y-16079I0J1007D01*
G03X31323Y-15073I-1007J0D01*
G03X30316Y-16079I0J-1007D01*
G37*
G36*
G01X-5244Y-839D02*
G03X-4237Y-1846I1007J0D01*
G03X-3231Y-839I0J1007D01*
G03X-4237Y167I-1007J0D01*
G03X-5244Y-839I0J-1007D01*
G37*
G36*
G01X25236Y-23699D02*
G03X26243Y-24706I1007J0D01*
G03X27249Y-23699I0J1007D01*
G03X26243Y-22693I-1007J0D01*
G03X25236Y-23699I0J-1007D01*
G37*
G36*
G01X33863Y-1846D02*
G03X34869Y-839I0J1007D01*
G03X33863Y167I-1007J0D01*
G03X32856Y-839I0J-1007D01*
G03X33863Y-1846I1007J0D01*
G37*
G36*
G01X31323Y-14546D02*
G03X32329Y-13539I0J1007D01*
G03X31323Y-12533I-1007J0D01*
G03X30316Y-13539I0J-1007D01*
G03X31323Y-14546I1007J0D01*
G37*
G36*
G01X32856Y19481D02*
G03X33863Y18474I1007J0D01*
G03X34869Y19481I0J1007D01*
G03X33863Y20487I-1007J0D01*
G03X32856Y19481I0J-1007D01*
G37*
G36*
G01X2376Y-23699D02*
G03X3383Y-24706I1007J0D01*
G03X4389Y-23699I0J1007D01*
G03X3383Y-22693I-1007J0D01*
G03X2376Y-23699I0J-1007D01*
G37*
G36*
G01X-7784Y1701D02*
G03X-6777Y694I1007J0D01*
G03X-5771Y1701I0J1007D01*
G03X-6777Y2707I-1007J0D01*
G03X-7784Y1701I0J-1007D01*
G37*
G36*
G01X30316Y-10999D02*
G03X31323Y-12006I1007J0D01*
G03X32329Y-10999I0J1007D01*
G03X31323Y-9993I-1007J0D01*
G03X30316Y-10999I0J-1007D01*
G37*
G36*
G01X32856Y1701D02*
G03X33863Y694I1007J0D01*
G03X34869Y1701I0J1007D01*
G03X33863Y2707I-1007J0D01*
G03X32856Y1701I0J-1007D01*
G37*
G36*
G01X25236Y19481D02*
G03X26243Y18474I1007J0D01*
G03X27249Y19481I0J1007D01*
G03X26243Y20487I-1007J0D01*
G03X25236Y19481I0J-1007D01*
G37*
G36*
G01X-6777Y3234D02*
G03X-5771Y4241I0J1007D01*
G03X-6777Y5247I-1007J0D01*
G03X-7784Y4241I0J-1007D01*
G03X-6777Y3234I1007J0D01*
G37*
G36*
G01X30316Y11861D02*
G03X31323Y10854I1007J0D01*
G03X32329Y11861I0J1007D01*
G03X31323Y12867I-1007J0D01*
G03X30316Y11861I0J-1007D01*
G37*
G36*
G01X32856Y4241D02*
G03X33863Y3234I1007J0D01*
G03X34869Y4241I0J1007D01*
G03X33863Y5247I-1007J0D01*
G03X32856Y4241I0J-1007D01*
G37*
G36*
G01X8463Y18474D02*
G03X9469Y19481I0J1007D01*
G03X8463Y20487I-1007J0D01*
G03X7456Y19481I0J-1007D01*
G03X8463Y18474I1007J0D01*
G37*
G36*
G01X-6777Y5774D02*
G03X-5771Y6781I0J1007D01*
G03X-6777Y7787I-1007J0D01*
G03X-7784Y6781I0J-1007D01*
G03X-6777Y5774I1007J0D01*
G37*
G36*
G01X30316Y-8459D02*
G03X31323Y-9466I1007J0D01*
G03X32329Y-8459I0J1007D01*
G03X31323Y-7453I-1007J0D01*
G03X30316Y-8459I0J-1007D01*
G37*
G36*
G01X33863Y5774D02*
G03X34869Y6781I0J1007D01*
G03X33863Y7787I-1007J0D01*
G03X32856Y6781I0J-1007D01*
G03X33863Y5774I1007J0D01*
G37*
G36*
G01X26243Y21014D02*
G03X27249Y22021I0J1007D01*
G03X26243Y23027I-1007J0D01*
G03X25236Y22021I0J-1007D01*
G03X26243Y21014I1007J0D01*
G37*
G36*
G01X32856Y9321D02*
G03X33863Y8314I1007J0D01*
G03X34869Y9321I0J1007D01*
G03X33863Y10327I-1007J0D01*
G03X32856Y9321I0J-1007D01*
G37*
G36*
G01X30316Y-5919D02*
G03X31323Y-6926I1007J0D01*
G03X32329Y-5919I0J1007D01*
G03X31323Y-4913I-1007J0D01*
G03X30316Y-5919I0J-1007D01*
G37*
G36*
G01X-7784Y9321D02*
G03X-6777Y8314I1007J0D01*
G03X-5771Y9321I0J1007D01*
G03X-6777Y10327I-1007J0D01*
G03X-7784Y9321I0J-1007D01*
G37*
G36*
G01X7456Y22021D02*
G03X8463Y21014I1007J0D01*
G03X9469Y22021I0J1007D01*
G03X8463Y23027I-1007J0D01*
G03X7456Y22021I0J-1007D01*
G37*
G36*
G01X-4237Y10854D02*
G03X-3231Y11861I0J1007D01*
G03X-4237Y12867I-1007J0D01*
G03X-5244Y11861I0J-1007D01*
G03X-4237Y10854I1007J0D01*
G37*
G36*
G01X30316Y-3379D02*
G03X31323Y-4386I1007J0D01*
G03X32329Y-3379I0J1007D01*
G03X31323Y-2373I-1007J0D01*
G03X30316Y-3379I0J-1007D01*
G37*
G36*
G01X32856Y11861D02*
G03X33863Y10854I1007J0D01*
G03X34869Y11861I0J1007D01*
G03X33863Y12867I-1007J0D01*
G03X32856Y11861I0J-1007D01*
G37*
G36*
G01X23703Y-27246D02*
G03X24709Y-26239I0J1007D01*
G03X23703Y-25233I-1007J0D01*
G03X22696Y-26239I0J-1007D01*
G03X23703Y-27246I1007J0D01*
G37*
G36*
G01X31323Y13394D02*
G03X32329Y14401I0J1007D01*
G03X31323Y15407I-1007J0D01*
G03X30316Y14401I0J-1007D01*
G03X31323Y13394I1007J0D01*
G37*
G36*
G01X30316Y-839D02*
G03X31323Y-1846I1007J0D01*
G03X32329Y-839I0J1007D01*
G03X31323Y167I-1007J0D01*
G03X30316Y-839I0J-1007D01*
G37*
G36*
G01X33863Y13394D02*
G03X34869Y14401I0J1007D01*
G03X33863Y15407I-1007J0D01*
G03X32856Y14401I0J-1007D01*
G03X33863Y13394I1007J0D01*
G37*
G36*
G01X4916Y-26239D02*
G03X5923Y-27246I1007J0D01*
G03X6929Y-26239I0J1007D01*
G03X5923Y-25233I-1007J0D01*
G03X4916Y-26239I0J-1007D01*
G37*
G36*
G01X30316Y16941D02*
G03X31323Y15934I1007J0D01*
G03X32329Y16941I0J1007D01*
G03X31323Y17947I-1007J0D01*
G03X30316Y16941I0J-1007D01*
G37*
G36*
G01X-5244Y1701D02*
G03X-4237Y694I1007J0D01*
G03X-3231Y1701I0J1007D01*
G03X-4237Y2707I-1007J0D01*
G03X-5244Y1701I0J-1007D01*
G37*
G36*
G01X33863Y15934D02*
G03X34869Y16941I0J1007D01*
G03X33863Y17947I-1007J0D01*
G03X32856Y16941I0J-1007D01*
G03X33863Y15934I1007J0D01*
G37*
G36*
G01X22696Y-23699D02*
G03X23703Y-24706I1007J0D01*
G03X24709Y-23699I0J1007D01*
G03X23703Y-22693I-1007J0D01*
G03X22696Y-23699I0J-1007D01*
G37*
G36*
G01X30316Y1701D02*
G03X31323Y694I1007J0D01*
G03X32329Y1701I0J1007D01*
G03X31323Y2707I-1007J0D01*
G03X30316Y1701I0J-1007D01*
G37*
G36*
G01X4916Y-23699D02*
G03X5923Y-24706I1007J0D01*
G03X6929Y-23699I0J1007D01*
G03X5923Y-22693I-1007J0D01*
G03X4916Y-23699I0J-1007D01*
G37*
G36*
G01X-4237Y3234D02*
G03X-3231Y4241I0J1007D01*
G03X-4237Y5247I-1007J0D01*
G03X-5244Y4241I0J-1007D01*
G03X-4237Y3234I1007J0D01*
G37*
G36*
G01X23703Y18474D02*
G03X24709Y19481I0J1007D01*
G03X23703Y20487I-1007J0D01*
G03X22696Y19481I0J-1007D01*
G03X23703Y18474I1007J0D01*
G37*
G36*
G01X31323Y3234D02*
G03X32329Y4241I0J1007D01*
G03X31323Y5247I-1007J0D01*
G03X30316Y4241I0J-1007D01*
G03X31323Y3234I1007J0D01*
G37*
G36*
G01X11003Y18474D02*
G03X12009Y19481I0J1007D01*
G03X11003Y20487I-1007J0D01*
G03X9996Y19481I0J-1007D01*
G03X11003Y18474I1007J0D01*
G37*
G36*
G01X-5244Y6781D02*
G03X-4237Y5774I1007J0D01*
G03X-3231Y6781I0J1007D01*
G03X-4237Y7787I-1007J0D01*
G03X-5244Y6781I0J-1007D01*
G37*
G36*
G01X22696Y22021D02*
G03X23703Y21014I1007J0D01*
G03X24709Y22021I0J1007D01*
G03X23703Y23027I-1007J0D01*
G03X22696Y22021I0J-1007D01*
G37*
G36*
G01X30316Y6781D02*
G03X31323Y5774I1007J0D01*
G03X32329Y6781I0J1007D01*
G03X31323Y7787I-1007J0D01*
G03X30316Y6781I0J-1007D01*
G37*
G36*
G01X9996Y22021D02*
G03X11003Y21014I1007J0D01*
G03X12009Y22021I0J1007D01*
G03X11003Y23027I-1007J0D01*
G03X9996Y22021I0J-1007D01*
G37*
G36*
G01X30316Y9321D02*
G03X31323Y8314I1007J0D01*
G03X32329Y9321I0J1007D01*
G03X31323Y10327I-1007J0D01*
G03X30316Y9321I0J-1007D01*
G37*
G36*
G01X20156Y-26239D02*
G03X21163Y-27246I1007J0D01*
G03X22169Y-26239I0J1007D01*
G03X21163Y-25233I-1007J0D01*
G03X20156Y-26239I0J-1007D01*
G37*
G36*
G01X20156Y-23699D02*
G03X21163Y-24706I1007J0D01*
G03X22169Y-23699I0J1007D01*
G03X21163Y-22693I-1007J0D01*
G03X20156Y-23699I0J-1007D01*
G37*
G36*
G01X21163Y18474D02*
G03X22169Y19481I0J1007D01*
G03X21163Y20487I-1007J0D01*
G03X20156Y19481I0J-1007D01*
G03X21163Y18474I1007J0D01*
G37*
G36*
G01X13543Y18474D02*
G03X14549Y19481I0J1007D01*
G03X13543Y20487I-1007J0D01*
G03X12536Y19481I0J-1007D01*
G03X13543Y18474I1007J0D01*
G37*
G36*
G01X21163Y21014D02*
G03X22169Y22021I0J1007D01*
G03X21163Y23027I-1007J0D01*
G03X20156Y22021I0J-1007D01*
G03X21163Y21014I1007J0D01*
G37*
G36*
G01X13543Y21014D02*
G03X14549Y22021I0J1007D01*
G03X13543Y23027I-1007J0D01*
G03X12536Y22021I0J-1007D01*
G03X13543Y21014I1007J0D01*
G37*
G36*
G01X18623Y18474D02*
G03X19629Y19481I0J1007D01*
G03X18623Y20487I-1007J0D01*
G03X17616Y19481I0J-1007D01*
G03X18623Y18474I1007J0D01*
G37*
G36*
G01X16083Y18474D02*
G03X17089Y19481I0J1007D01*
G03X16083Y20487I-1007J0D01*
G03X15076Y19481I0J-1007D01*
G03X16083Y18474I1007J0D01*
G37*
G36*
G01X18623Y21014D02*
G03X19629Y22021I0J1007D01*
G03X18623Y23027I-1007J0D01*
G03X17616Y22021I0J-1007D01*
G03X18623Y21014I1007J0D01*
G37*
G36*
G01X1344Y-39370D02*
G03X1905Y-39931I561J0D01*
G03X2466Y-39370I0J561D01*
G03X2429Y-39169I-561J0D01*
G03X2974Y-38608I-16J561D01*
G03X2413Y-38047I-561J0D01*
G03X1852Y-38608I0J-561D01*
G03X1889Y-38809I561J0D01*
G03X1344Y-39370I16J-561D01*
G37*
G36*
G01X35560Y-40820D02*
G03X36121Y-40259I0J561D01*
G03X35560Y-39698I-561J0D01*
G03X34999Y-40259I0J-561D01*
G03X35560Y-40820I561J0D01*
G37*
G36*
G01X35687Y-35740D02*
G03X36248Y-35179I0J561D01*
G03X35687Y-34618I-561J0D01*
G03X35126Y-35179I0J-561D01*
G03X35687Y-35740I561J0D01*
G37*
G36*
G01X12192Y-40312D02*
G03X12753Y-39751I0J561D01*
G03X12192Y-39190I-561J0D01*
G03X11631Y-39751I0J-561D01*
G03X12192Y-40312I561J0D01*
G37*
G36*
G01X9472Y33655D02*
G03X10033Y33094I561J0D01*
G03X10594Y33655I0J561D01*
G03X10033Y34216I-561J0D01*
G03X9472Y33655I0J-561D01*
G37*
G36*
G01X37465Y-7546D02*
G03X38026Y-6985I0J561D01*
G03X37465Y-6424I-561J0D01*
G03X36904Y-6985I0J-561D01*
G03X37465Y-7546I561J0D01*
G37*
G36*
G01X-6477Y32713D02*
G03X-5916Y33274I0J561D01*
G03X-6477Y33835I-561J0D01*
G03X-7038Y33274I0J-561D01*
G03X-6477Y32713I561J0D01*
G37*
G36*
G01X-3175Y-35740D02*
G03X-2614Y-35179I0J561D01*
G03X-3175Y-34618I-561J0D01*
G03X-3736Y-35179I0J-561D01*
G03X-3175Y-35740I561J0D01*
G37*
G36*
G01X35634Y-6604D02*
G03X36195Y-7165I561J0D01*
G03X36756Y-6604I0J561D01*
G03X36195Y-6043I-561J0D01*
G03X35634Y-6604I0J-561D01*
G37*
G36*
G01X10742Y-36195D02*
G03X11303Y-36756I561J0D01*
G03X11864Y-36195I0J561D01*
G03X11303Y-35634I-561J0D01*
G03X10742Y-36195I0J-561D01*
G37*
G36*
G01X4445Y-40566D02*
G03X5006Y-40005I0J561D01*
G03X4445Y-39444I-561J0D01*
G03X3884Y-40005I0J-561D01*
G03X4445Y-40566I561J0D01*
G37*
G36*
G01X-2032Y-37645D02*
G03X-1471Y-37084I0J561D01*
G03X-2032Y-36523I-561J0D01*
G03X-2593Y-37084I0J-561D01*
G03X-2032Y-37645I561J0D01*
G37*
G36*
G01X-508Y-38407D02*
G03X53Y-37846I0J561D01*
G03X-508Y-37285I-561J0D01*
G03X-1069Y-37846I0J-561D01*
G03X-508Y-38407I561J0D01*
G37*
G36*
G01X-1940Y34163D02*
G03X-1379Y33602I561J0D01*
G03X-818Y34163I0J561D01*
G03X-1379Y34724I-561J0D01*
G03X-1940Y34163I0J-561D01*
G37*
G36*
G01X35126Y-30099D02*
G03X35687Y-30660I561J0D01*
G03X36248Y-30099I0J561D01*
G03X35687Y-29538I-561J0D01*
G03X35126Y-30099I0J-561D01*
G37*
G36*
G01X438Y-11483D02*
G03X999Y-10922I0J561D01*
G03X438Y-10361I-561J0D01*
G03X-124Y-10922I0J-561D01*
G03X438Y-11483I561J0D01*
G37*
G36*
G01X-1958Y11811D02*
G03X-1397Y11250I561J0D01*
G03X-836Y11811I0J561D01*
G03X-1397Y12372I-561J0D01*
G03X-1958Y11811I0J-561D01*
G37*
G36*
G01X12346Y-1924D02*
G03X12908Y-2486I561J0D01*
G03X13469Y-1924I0J561D01*
G03X12908Y-1363I-561J0D01*
G03X12346Y-1924I0J-561D01*
G37*
G36*
G01X1652Y11250D02*
G03X2213Y11811I0J561D01*
G03X1652Y12372I-561J0D01*
G03X1090Y11811I0J-561D01*
G03X1652Y11250I561J0D01*
G37*
G36*
G01X10368Y-2486D02*
G03X10929Y-1924I0J561D01*
G03X10368Y-1363I-561J0D01*
G03X9806Y-1924I0J-561D01*
G03X10368Y-2486I561J0D01*
G37*
G36*
G01X9271Y-17325D02*
G03X9832Y-16764I0J561D01*
G03X9271Y-16203I-561J0D01*
G03X8710Y-16764I0J-561D01*
G03X9271Y-17325I561J0D01*
G37*
G36*
G01X-17018Y-13261D02*
G03X-16457Y-12700I0J561D01*
G03X-17018Y-12139I-561J0D01*
G03X-17579Y-12700I0J-561D01*
G03X-17018Y-13261I561J0D01*
G37*
G36*
G01X-6604Y27125D02*
G03X-6043Y27686I0J561D01*
G03X-6604Y28247I-561J0D01*
G03X-7165Y27686I0J-561D01*
G03X-6604Y27125I561J0D01*
G37*
G36*
G01X-25199Y-16298D02*
G03X-24638Y-16859I561J0D01*
G03X-24077Y-16298I0J561D01*
G03X-24638Y-15737I-561J0D01*
G03X-25199Y-16298I0J-561D01*
G37*
G36*
G01X-22659Y-16298D02*
G03X-22098Y-16859I561J0D01*
G03X-21537Y-16298I0J561D01*
G03X-22098Y-15737I-561J0D01*
G03X-22659Y-16298I0J-561D01*
G37*
G36*
G01X-24638Y-21939D02*
G03X-24077Y-21378I0J561D01*
G03X-24638Y-20817I-561J0D01*
G03X-25199Y-21378I0J-561D01*
G03X-24638Y-21939I561J0D01*
G37*
G36*
G01X-22098Y-21939D02*
G03X-21537Y-21378I0J561D01*
G03X-22098Y-20817I-561J0D01*
G03X-22659Y-21378I0J-561D01*
G03X-22098Y-21939I561J0D01*
G37*
G36*
G01X23114Y17346D02*
G03X23675Y17907I0J561D01*
G03X23114Y18468I-561J0D01*
G03X22553Y17907I0J-561D01*
G03X23114Y17346I561J0D01*
G37*
G36*
G01X30046Y-30099D02*
G03X30607Y-30660I561J0D01*
G03X31168Y-30099I0J561D01*
G03X30607Y-29538I-561J0D01*
G03X30046Y-30099I0J-561D01*
G37*
%LPD*%
G36*
G01X-12128Y-50137D02*
G01X-15339Y-46926D01*
G01Y-22343D01*
G03X-15383Y-22200I-257J0D01*
G03X-15339Y-22056I-213J144D01*
G01Y-20125D01*
G01Y-12361D01*
G03X-15414Y-12180I-257J0D01*
G01X-21054Y-6540D01*
G01Y698D01*
G01X-19616Y2136D01*
G01X-18827D01*
G03X-17681Y1135I1146J155D01*
G03X-16535Y2136I0J1157D01*
G01X-16287D01*
G03X-15141Y1135I1146J155D01*
G03X-13995Y2136I0J1157D01*
G01X-10807D01*
G01X-7783Y-888D01*
G03X-7694Y-1254I1005J49D01*
G01Y-2964D01*
G03X-7784Y-3379I917J-415D01*
G03X-7694Y-3794I1007J0D01*
G01Y-5504D01*
G03X-7784Y-5919I917J-415D01*
G03X-7694Y-6334I1007J0D01*
G01Y-8044D01*
G03X-7784Y-8459I917J-415D01*
G03X-7694Y-8874I1007J0D01*
G01Y-10584D01*
G03X-7784Y-10999I917J-415D01*
G03X-7694Y-11414I1007J0D01*
G01Y-13124D01*
G03X-7784Y-13539I917J-415D01*
G03X-7694Y-13954I1007J0D01*
G01Y-15664D01*
G03X-7784Y-16079I917J-415D01*
G03X-7694Y-16494I1007J0D01*
G01Y-18204D01*
G03X-7784Y-18619I917J-415D01*
G03X-7694Y-19034I1007J0D01*
G01Y-20744D01*
G03X-7784Y-21159I917J-415D01*
G03X-7694Y-21574I1007J0D01*
G01Y-23284D01*
G03X-7784Y-23699I917J-415D01*
G03X-7694Y-24114I1007J0D01*
G01Y-25824D01*
G03X-7784Y-26239I917J-415D01*
G03X-7694Y-26654I1007J0D01*
G01Y-36488D01*
G03X-7619Y-36669I257J0D01*
G01X-2425Y-41863D01*
G03X-2244Y-41938I181J181D01*
G01X26987D01*
G01X29690Y-44641D01*
G01Y-50137D01*
G01X26550D01*
G03X27399Y-49022I-307J1115D01*
G03X26243Y-47865I-1157J0D01*
G03X25086Y-49022I0J-1157D01*
G03X25936Y-50137I1157J0D01*
G01X24010D01*
G03X24859Y-49022I-307J1115D01*
G03X23703Y-47865I-1157J0D01*
G03X22546Y-49022I0J-1157D01*
G03X23396Y-50137I1157J0D01*
G01X21470D01*
G03X22319Y-49022I-307J1115D01*
G03X21163Y-47865I-1157J0D01*
G03X20006Y-49022I0J-1157D01*
G03X20856Y-50137I1157J0D01*
G01X18930D01*
G03X19779Y-49022I-307J1115D01*
G03X18623Y-47865I-1157J0D01*
G03X17466Y-49022I0J-1157D01*
G03X18316Y-50137I1157J0D01*
G01X16390D01*
G03X17239Y-49022I-307J1115D01*
G03X16083Y-47865I-1157J0D01*
G03X14926Y-49022I0J-1157D01*
G03X15776Y-50137I1157J0D01*
G01X13850D01*
G03X14699Y-49022I-307J1115D01*
G03X13543Y-47865I-1157J0D01*
G03X12386Y-49022I0J-1157D01*
G03X13236Y-50137I1157J0D01*
G01X11310D01*
G03X12159Y-49022I-307J1115D01*
G03X11003Y-47865I-1157J0D01*
G03X9846Y-49022I0J-1157D01*
G03X10696Y-50137I1157J0D01*
G01X8770D01*
G03X9619Y-49022I-307J1115D01*
G03X8463Y-47865I-1157J0D01*
G03X7306Y-49022I0J-1157D01*
G03X8156Y-50137I1157J0D01*
G01X6230D01*
G03X7079Y-49022I-307J1115D01*
G03X5923Y-47865I-1157J0D01*
G03X4766Y-49022I0J-1157D01*
G03X5616Y-50137I1157J0D01*
G01X3690D01*
G03X4539Y-49022I-307J1115D01*
G03X3383Y-47865I-1157J0D01*
G03X2226Y-49022I0J-1157D01*
G03X3076Y-50137I1157J0D01*
G01X1150D01*
G03X1999Y-49022I-307J1115D01*
G03X843Y-47865I-1157J0D01*
G03X-314Y-49022I0J-1157D01*
G03X536Y-50137I1157J0D01*
G01X-12128D01*
G37*
%LPC*%
G36*
G01X22546Y-46482D02*
G03X23703Y-47639I1157J0D01*
G03X24859Y-46482I0J1157D01*
G03X23703Y-45325I-1157J0D01*
G03X22546Y-46482I0J-1157D01*
G37*
G36*
G01X25086Y-47382D02*
G03X25343Y-47639I257J0D01*
G01X27143D01*
G03X27400Y-47382I0J257D01*
G01Y-45582D01*
G03X27143Y-45325I-257J0D01*
G01X25343D01*
G03X25086Y-45582I0J-257D01*
G01Y-47382D01*
G37*
G36*
G01X843Y-47639D02*
G03X1999Y-46482I0J1157D01*
G03X843Y-45325I-1157J0D01*
G03X-314Y-46482I0J-1157D01*
G03X843Y-47639I1157J0D01*
G37*
G36*
G01X12386Y-46482D02*
G03X13543Y-47639I1157J0D01*
G03X14699Y-46482I0J1157D01*
G03X13543Y-45325I-1157J0D01*
G03X12386Y-46482I0J-1157D01*
G37*
G36*
G01X14926Y-46482D02*
G03X16083Y-47639I1157J0D01*
G03X17239Y-46482I0J1157D01*
G03X16083Y-45325I-1157J0D01*
G03X14926Y-46482I0J-1157D01*
G37*
G36*
G01X11003Y-47639D02*
G03X12159Y-46482I0J1157D01*
G03X11003Y-45325I-1157J0D01*
G03X9846Y-46482I0J-1157D01*
G03X11003Y-47639I1157J0D01*
G37*
G36*
G01X4766Y-46482D02*
G03X5923Y-47639I1157J0D01*
G03X7079Y-46482I0J1157D01*
G03X5923Y-45325I-1157J0D01*
G03X4766Y-46482I0J-1157D01*
G37*
G36*
G01X8463Y-47639D02*
G03X9619Y-46482I0J1157D01*
G03X8463Y-45325I-1157J0D01*
G03X7306Y-46482I0J-1157D01*
G03X8463Y-47639I1157J0D01*
G37*
G36*
G01X3383Y-47639D02*
G03X4539Y-46482I0J1157D01*
G03X3383Y-45325I-1157J0D01*
G03X2226Y-46482I0J-1157D01*
G03X3383Y-47639I1157J0D01*
G37*
G36*
G01X-18837Y-3689D02*
G03X-18581Y-3945I257J0D01*
G01X-16781D01*
G03X-16524Y-3689I0J257D01*
G01Y-1889D01*
G03X-16781Y-1632I-257J0D01*
G01X-18581D01*
G03X-18837Y-1889I0J-257D01*
G01Y-3689D01*
G37*
G36*
G01X21163Y-47639D02*
G03X22319Y-46482I0J1157D01*
G03X21163Y-45325I-1157J0D01*
G03X20006Y-46482I0J-1157D01*
G03X21163Y-47639I1157J0D01*
G37*
G36*
G01X18623Y-47639D02*
G03X19779Y-46482I0J1157D01*
G03X18623Y-45325I-1157J0D01*
G03X17466Y-46482I0J-1157D01*
G03X18623Y-47639I1157J0D01*
G37*
G36*
G01X-16297Y-2789D02*
G03X-15141Y-3945I1157J0D01*
G03X-13984Y-2789I0J1157D01*
G03X-15141Y-1632I-1157J0D01*
G03X-16297Y-2789I0J-1157D01*
G37*
G36*
G01X-15141Y-1405D02*
G03X-13984Y-249I0J1157D01*
G03X-15141Y908I-1157J0D01*
G03X-16297Y-249I0J-1157D01*
G03X-15141Y-1405I1157J0D01*
G37*
G36*
G01X-17681Y-1405D02*
G03X-16524Y-249I0J1157D01*
G03X-17681Y908I-1157J0D01*
G03X-18837Y-249I0J-1157D01*
G03X-17681Y-1405I1157J0D01*
G37*
G36*
G01X-14478Y-37179D02*
G03X-13917Y-36618I0J561D01*
G03X-14478Y-36057I-561J0D01*
G03X-15039Y-36618I0J-561D01*
G03X-14478Y-37179I561J0D01*
G37*
G36*
G01X-14224Y-44122D02*
G03X-13663Y-43561I0J561D01*
G03X-14224Y-43000I-561J0D01*
G03X-14785Y-43561I0J-561D01*
G03X-14224Y-44122I561J0D01*
G37*
G36*
G01X-12499Y-7620D02*
G03X-11938Y-8181I561J0D01*
G03X-11377Y-7620I0J561D01*
G03X-11938Y-7059I-561J0D01*
G03X-12499Y-7620I0J-561D01*
G37*
G36*
G01X-15039Y-7620D02*
G03X-14478Y-8181I561J0D01*
G03X-13917Y-7620I0J561D01*
G03X-14478Y-7059I-561J0D01*
G03X-15039Y-7620I0J-561D01*
G37*
G36*
G01X-12499Y-12700D02*
G03X-11938Y-13261I561J0D01*
G03X-11377Y-12700I0J561D01*
G03X-11938Y-12139I-561J0D01*
G03X-12499Y-12700I0J-561D01*
G37*
G36*
G01X-15039Y-12700D02*
G03X-14478Y-13261I561J0D01*
G03X-13917Y-12700I0J561D01*
G03X-14478Y-12139I-561J0D01*
G03X-15039Y-12700I0J-561D01*
G37*
G36*
G01X-11938Y-3101D02*
G03X-11377Y-2540I0J561D01*
G03X-11938Y-1979I-561J0D01*
G03X-12499Y-2540I0J-561D01*
G03X-11938Y-3101I561J0D01*
G37*
G36*
G01X-11938Y-16859D02*
G03X-11377Y-16298I0J561D01*
G03X-11938Y-15737I-561J0D01*
G03X-12499Y-16298I0J-561D01*
G03X-11938Y-16859I561J0D01*
G37*
G36*
G01X-14478Y-16859D02*
G03X-13917Y-16298I0J561D01*
G03X-14478Y-15737I-561J0D01*
G03X-15039Y-16298I0J-561D01*
G03X-14478Y-16859I561J0D01*
G37*
G36*
G01X-17018Y-8181D02*
G03X-16457Y-7620I0J561D01*
G03X-17018Y-7059I-561J0D01*
G03X-17579Y-7620I0J-561D01*
G03X-17018Y-8181I561J0D01*
G37*
G36*
G01X-9398Y-27019D02*
G03X-8837Y-26458I0J561D01*
G03X-9398Y-25897I-561J0D01*
G03X-9959Y-26458I0J-561D01*
G03X-9398Y-27019I561J0D01*
G37*
G36*
G01X-11938Y-27019D02*
G03X-11377Y-26458I0J561D01*
G03X-11938Y-25897I-561J0D01*
G03X-12499Y-26458I0J-561D01*
G03X-11938Y-27019I561J0D01*
G37*
G36*
G01X-9398Y-32099D02*
G03X-8837Y-31538I0J561D01*
G03X-9398Y-30977I-561J0D01*
G03X-9959Y-31538I0J-561D01*
G03X-9398Y-32099I561J0D01*
G37*
G36*
G01X-11938Y-32099D02*
G03X-11377Y-31538I0J561D01*
G03X-11938Y-30977I-561J0D01*
G03X-12499Y-31538I0J-561D01*
G03X-11938Y-32099I561J0D01*
G37*
%LPD*%
G36*
G01X39472Y-16546D02*
G03X39437Y-16549I0J-257D01*
G01X38890Y-16002D01*
G01Y3708D01*
G01X42041D01*
G03X42319Y3675I278J1123D01*
G03X42597Y3708I0J1157D01*
G01X44581D01*
G03X44859Y3675I278J1123D01*
G03X45137Y3708I0J1157D01*
G01X46990D01*
G03X47062Y3738I0J102D01*
G01X47824Y4500D01*
G03X47854Y4572I-72J72D01*
G01Y6572D01*
G03X47824Y6644I-102J0D01*
G01X46014Y8454D01*
G03X45942Y8484I-72J-72D01*
G01X45175D01*
G03X44859Y8528I-316J-1113D01*
G03X44543Y8484I0J-1157D01*
G01X42635D01*
G03X42319Y8528I-316J-1113D01*
G03X42003Y8484I0J-1157D01*
G01X41444D01*
G01X40996Y8932D01*
G01Y21572D01*
G03X41036Y21575I0J257D01*
G01X41235D01*
G03X42291Y20533I1056J15D01*
G03X43347Y21575I0J1057D01*
G01X43775D01*
G03X44831Y20533I1056J15D01*
G03X45887Y21575I0J1057D01*
G01X49707D01*
G01X53947Y17335D01*
G01Y64D01*
G01X47545Y-6338D01*
G03X47470Y-6519I181J-181D01*
G01Y-11516D01*
G01X42440Y-16546D01*
G01X41475D01*
G03X40640Y-16165I-835J-726D01*
G03X39805Y-16546I0J-1107D01*
G01X39472D01*
G37*
%LPC*%
G36*
G01X43702Y14091D02*
G03X43959Y13835I257J0D01*
G01X45759D01*
G03X46015Y14091I0J257D01*
G01Y15891D01*
G03X45759Y16148I-257J0D01*
G01X43959D01*
G03X43702Y15891I0J-257D01*
G01Y14091D01*
G37*
G36*
G01X41162Y-2789D02*
G03X42319Y-3945I1157J0D01*
G03X43475Y-2789I0J1157D01*
G03X42319Y-1632I-1157J0D01*
G03X41162Y-2789I0J-1157D01*
G37*
G36*
G01X43702Y-2789D02*
G03X44859Y-3945I1157J0D01*
G03X46015Y-2789I0J1157D01*
G03X44859Y-1632I-1157J0D01*
G03X43702Y-2789I0J-1157D01*
G37*
G36*
G01X41162Y14991D02*
G03X42319Y13835I1157J0D01*
G03X43475Y14991I0J1157D01*
G03X42319Y16148I-1157J0D01*
G03X41162Y14991I0J-1157D01*
G37*
G36*
G01X43702Y12451D02*
G03X44859Y11295I1157J0D01*
G03X46015Y12451I0J1157D01*
G03X44859Y13608I-1157J0D01*
G03X43702Y12451I0J-1157D01*
G37*
G36*
G01X41162Y-249D02*
G03X42319Y-1405I1157J0D01*
G03X43475Y-249I0J1157D01*
G03X42319Y908I-1157J0D01*
G03X41162Y-249I0J-1157D01*
G37*
G36*
G01X44859Y-1405D02*
G03X46015Y-249I0J1157D01*
G03X44859Y908I-1157J0D01*
G03X43702Y-249I0J-1157D01*
G03X44859Y-1405I1157J0D01*
G37*
G36*
G01X41162Y2291D02*
G03X42319Y1135I1157J0D01*
G03X43475Y2291I0J1157D01*
G03X42319Y3448I-1157J0D01*
G03X41162Y2291I0J-1157D01*
G37*
G36*
G01X43702Y2291D02*
G03X44859Y1135I1157J0D01*
G03X46015Y2291I0J1157D01*
G03X44859Y3448I-1157J0D01*
G03X43702Y2291I0J-1157D01*
G37*
G36*
G01X41162Y12451D02*
G03X42319Y11295I1157J0D01*
G03X43475Y12451I0J1157D01*
G03X42319Y13608I-1157J0D01*
G03X41162Y12451I0J-1157D01*
G37*
G36*
G01X44859Y8755D02*
G03X46015Y9911I0J1157D01*
G03X44859Y11068I-1157J0D01*
G03X43702Y9911I0J-1157D01*
G03X44859Y8755I1157J0D01*
G37*
G36*
G01X41162Y9911D02*
G03X42319Y8755I1157J0D01*
G03X43475Y9911I0J1157D01*
G03X42319Y11068I-1157J0D01*
G03X41162Y9911I0J-1157D01*
G37*
G36*
G01X39533Y-15582D02*
G03X39790Y-15839I257J0D01*
G01X41490D01*
G03X41747Y-15582I0J257D01*
G01Y-13882D01*
G03X41490Y-13625I-257J0D01*
G01X39790D01*
G03X39533Y-13882I0J-257D01*
G01Y-15582D01*
G37*
G36*
G01X43774Y19050D02*
G03X44831Y17993I1057J0D01*
G03X45888Y19050I0J1057D01*
G03X44831Y20107I-1057J0D01*
G03X43774Y19050I0J-1057D01*
G37*
G36*
G01X42291Y17993D02*
G03X43348Y19050I0J1057D01*
G03X42291Y20107I-1057J0D01*
G03X41234Y19050I0J-1057D01*
G03X42291Y17993I1057J0D01*
G37*
G36*
G01X53043Y3503D02*
G03X53604Y4064I0J561D01*
G03X53043Y4625I-561J0D01*
G03X52482Y4064I0J-561D01*
G03X53043Y3503I561J0D01*
G37*
G36*
G01X53043Y13663D02*
G03X53604Y14224I0J561D01*
G03X53043Y14785I-561J0D01*
G03X52482Y14224I0J-561D01*
G03X53043Y13663I561J0D01*
G37*
G36*
G01X39751Y-3482D02*
G03X40312Y-2921I0J561D01*
G03X39751Y-2360I-561J0D01*
G03X39190Y-2921I0J-561D01*
G03X39751Y-3482I561J0D01*
G37*
G36*
G01X49350Y-2921D02*
G03X49911Y-3482I561J0D01*
G03X50472Y-2921I0J561D01*
G03X49911Y-2360I-561J0D01*
G03X49350Y-2921I0J-561D01*
G37*
G36*
G01X53043Y8583D02*
G03X53604Y9144I0J561D01*
G03X53043Y9705I-561J0D01*
G03X52482Y9144I0J-561D01*
G03X53043Y8583I561J0D01*
G37*
G36*
G01X46810Y-2921D02*
G03X47371Y-3482I561J0D01*
G03X47932Y-2921I0J561D01*
G03X47371Y-2360I-561J0D01*
G03X46810Y-2921I0J-561D01*
G37*
G36*
G01X39751Y1598D02*
G03X40312Y2159I0J561D01*
G03X39751Y2720I-561J0D01*
G03X39190Y2159I0J-561D01*
G03X39751Y1598I561J0D01*
G37*
%LPD*%
G36*
G01X38837Y3965D02*
G03X38802Y3963I0J-257D01*
G01X35923Y6841D01*
G01Y21979D01*
G03X35848Y22160I-257J0D01*
G01X34002Y24006D01*
G03X33821Y24081I-181J-181D01*
G01X21625D01*
G03X21770Y24457I-416J377D01*
G03X21209Y25019I-561J0D01*
G03X20648Y24457I0J-561D01*
G03X20793Y24081I561J0D01*
G01X17434D01*
G01X14506Y27009D01*
G01Y32451D01*
G03X14532Y32474I-155J204D01*
G01X15153Y33095D01*
G03X15673Y33615I-40J560D01*
G01X17463Y35405D01*
G01X38925D01*
G01X40739Y33591D01*
G01Y21828D01*
G03X40759Y21730I257J0D01*
G03X40739Y21632I237J-98D01*
G01Y8932D01*
G03X40814Y8751I257J0D01*
G01X41263Y8302D01*
G03X41444Y8227I181J181D01*
G01X41541D01*
G03X41162Y7371I778J-856D01*
G03X42319Y6215I1157J0D01*
G03X43475Y7371I0J1157D01*
G03X43097Y8227I-1157J0D01*
G01X44081D01*
G03X43702Y7371I778J-856D01*
G03X44859Y6215I1157J0D01*
G03X46015Y7371I0J1157D01*
G03X45637Y8227I-1157J0D01*
G01X45878D01*
G01X47597Y6508D01*
G01Y4636D01*
G01X46926Y3965D01*
G01X45625D01*
G03X46015Y4831I-766J866D01*
G03X44859Y5988I-1157J0D01*
G03X43702Y4831I0J-1157D01*
G03X44093Y3965I1157J0D01*
G01X43085D01*
G03X43475Y4831I-766J866D01*
G03X42319Y5988I-1157J0D01*
G03X41162Y4831I0J-1157D01*
G03X41553Y3965I1157J0D01*
G01X38837D01*
G37*
%LPC*%
G36*
G01X39190Y7239D02*
G03X39751Y6678I561J0D01*
G03X40312Y7239I0J561D01*
G03X39751Y7800I-561J0D01*
G03X39190Y7239I0J-561D01*
G37*
G36*
G01X39190Y12319D02*
G03X39751Y11758I561J0D01*
G03X40312Y12319I0J561D01*
G03X39751Y12880I-561J0D01*
G03X39190Y12319I0J-561D01*
G37*
G36*
G01X39190Y32639D02*
G03X39751Y32078I561J0D01*
G03X40312Y32639I0J561D01*
G03X39751Y33200I-561J0D01*
G03X39190Y32639I0J-561D01*
G37*
G36*
G01X32713Y25273D02*
G03X33274Y24712I561J0D01*
G03X33835Y25273I0J561D01*
G03X33274Y25834I-561J0D01*
G03X32713Y25273I0J-561D01*
G37*
G36*
G01X39190Y17399D02*
G03X39751Y16838I561J0D01*
G03X40312Y17399I0J561D01*
G03X39751Y17960I-561J0D01*
G03X39190Y17399I0J-561D01*
G37*
G36*
G01X33221Y29718D02*
G03X33782Y29157I561J0D01*
G03X34343Y29718I0J561D01*
G03X33782Y30279I-561J0D01*
G03X33221Y29718I0J-561D01*
G37*
G36*
G01X30734Y26871D02*
G03X31295Y27432I0J561D01*
G03X30734Y27993I-561J0D01*
G03X30173Y27432I0J-561D01*
G03X30734Y26871I561J0D01*
G37*
G36*
G01X21209Y28976D02*
G03X21770Y29537I0J561D01*
G03X21209Y30099I-561J0D01*
G03X20648Y29537I0J-561D01*
G03X21209Y28976I561J0D01*
G37*
G36*
G01X21283Y27432D02*
G03X21844Y26871I561J0D01*
G03X22405Y27432I0J561D01*
G03X21844Y27993I-561J0D01*
G03X21283Y27432I0J-561D01*
G37*
G36*
G01X21209Y25166D02*
G03X21770Y25727I0J561D01*
G03X21209Y26289I-561J0D01*
G03X20648Y25727I0J-561D01*
G03X21209Y25166I561J0D01*
G37*
G36*
G01X23114Y26871D02*
G03X23675Y27432I0J561D01*
G03X23114Y27993I-561J0D01*
G03X22553Y27432I0J-561D01*
G03X23114Y26871I561J0D01*
G37*
G36*
G01X28194Y26871D02*
G03X28755Y27432I0J561D01*
G03X28194Y27993I-561J0D01*
G03X27633Y27432I0J-561D01*
G03X28194Y26871I561J0D01*
G37*
%LPD*%
G36*
G01X-19268Y8533D02*
G01X-20929Y10194D01*
G03X-20927Y10229I-254J35D01*
G01Y16954D01*
G01X-13522Y24358D01*
G03X-13487Y24356I35J254D01*
G01X-2985D01*
G01X-1679Y23050D01*
G01Y23027D01*
G01X-1697D01*
G03X-2704Y22021I0J-1007D01*
G03X-1697Y21014I1007J0D01*
G01X-1679D01*
G01Y20487D01*
G01X-1697D01*
G03X-2704Y19481I0J-1007D01*
G03X-1697Y18474I1007J0D01*
G01X-1679D01*
G01Y16828D01*
G01X-3463Y15044D01*
G03X-4237Y15407I-774J-643D01*
G03X-5244Y14401I0J-1007D01*
G03X-4880Y13627I1007J0D01*
G01X-6003Y12504D01*
G03X-6777Y12867I-774J-643D01*
G03X-7784Y11861I0J-1007D01*
G03X-7420Y11087I1007J0D01*
G01X-9975Y8533D01*
G01X-19268D01*
G37*
%LPC*%
G36*
G01X-17681Y13835D02*
G03X-16524Y14991I0J1157D01*
G03X-17681Y16148I-1157J0D01*
G03X-18837Y14991I0J-1157D01*
G03X-17681Y13835I1157J0D01*
G37*
G36*
G01X-16297Y9911D02*
G03X-15141Y8755I1157J0D01*
G03X-13984Y9911I0J1157D01*
G03X-15141Y11068I-1157J0D01*
G03X-16297Y9911I0J-1157D01*
G37*
G36*
G01X-16297Y12451D02*
G03X-15141Y11295I1157J0D01*
G03X-13984Y12451I0J1157D01*
G03X-15141Y13608I-1157J0D01*
G03X-16297Y12451I0J-1157D01*
G37*
G36*
G01X-15141Y13835D02*
G03X-13984Y14991I0J1157D01*
G03X-15141Y16148I-1157J0D01*
G03X-16297Y14991I0J-1157D01*
G03X-15141Y13835I1157J0D01*
G37*
G36*
G01X-18837Y12451D02*
G03X-17681Y11295I1157J0D01*
G03X-16524Y12451I0J1157D01*
G03X-17681Y13608I-1157J0D01*
G03X-18837Y12451I0J-1157D01*
G37*
G36*
G01X-17681Y8755D02*
G03X-16524Y9911I0J1157D01*
G03X-17681Y11068I-1157J0D01*
G03X-18837Y9911I0J-1157D01*
G03X-17681Y8755I1157J0D01*
G37*
G36*
G01X-6777Y13394D02*
G03X-5771Y14401I0J1007D01*
G03X-6777Y15407I-1007J0D01*
G03X-7784Y14401I0J-1007D01*
G03X-6777Y13394I1007J0D01*
G37*
G36*
G01X-7784Y16941D02*
G03X-6777Y15934I1007J0D01*
G03X-5771Y16941I0J1007D01*
G03X-6777Y17947I-1007J0D01*
G03X-7784Y16941I0J-1007D01*
G37*
G36*
G01X-4237Y15934D02*
G03X-3231Y16941I0J1007D01*
G03X-4237Y17947I-1007J0D01*
G03X-5244Y16941I0J-1007D01*
G03X-4237Y15934I1007J0D01*
G37*
G36*
G01X-6777Y18474D02*
G03X-5771Y19481I0J1007D01*
G03X-6777Y20487I-1007J0D01*
G03X-7784Y19481I0J-1007D01*
G03X-6777Y18474I1007J0D01*
G37*
G36*
G01X-5244Y19481D02*
G03X-4237Y18474I1007J0D01*
G03X-3231Y19481I0J1007D01*
G03X-4237Y20487I-1007J0D01*
G03X-5244Y19481I0J-1007D01*
G37*
G36*
G01X-7784Y22021D02*
G03X-6777Y21014I1007J0D01*
G03X-5771Y22021I0J1007D01*
G03X-6777Y23027I-1007J0D01*
G03X-7784Y22021I0J-1007D01*
G37*
G36*
G01X-5244Y22021D02*
G03X-4237Y21014I1007J0D01*
G03X-3231Y22021I0J1007D01*
G03X-4237Y23027I-1007J0D01*
G03X-5244Y22021I0J-1007D01*
G37*
%LPD*%
G36*
G01X-18840Y-630D02*
G02X-18840Y132I0J381D01*
G01X-17681D01*
G02Y-630I0J-381D01*
G01X-18840D01*
G37*
G36*
G01X-17681Y-630D02*
G02X-17681Y132I0J381D01*
G01X-16522D01*
G02Y-630I0J-381D01*
G01X-17681D01*
G37*
G36*
G01X-16300Y-630D02*
G02X-16300Y132I0J381D01*
G01X-15141D01*
G02Y-630I0J-381D01*
G01X-16300D01*
G37*
G36*
G01X-15141Y-630D02*
G02X-15141Y132I0J381D01*
G01X-13982D01*
G02Y-630I0J-381D01*
G01X-15141D01*
G37*
G36*
G01X-316Y-46863D02*
G02X-316Y-46101I0J381D01*
G01X843D01*
G02Y-46863I0J-381D01*
G01X-316D01*
G37*
G36*
G01X1224Y-47641D02*
G02X462Y-47641I-381J0D01*
G01Y-46482D01*
G02X1224I381J0D01*
G01Y-47641D01*
G37*
G36*
G01X1224Y-46482D02*
G02X462Y-46482I-381J0D01*
G01Y-45323D01*
G02X1224I381J0D01*
G01Y-46482D01*
G37*
G36*
G01X-316Y-49403D02*
G02X-316Y-48641I0J381D01*
G01X843D01*
G02Y-49403I0J-381D01*
G01X-316D01*
G37*
G36*
G01X1224Y-49022D02*
G02X462Y-49022I-381J0D01*
G01Y-47863D01*
G02X1224I381J0D01*
G01Y-49022D01*
G37*
G36*
G01X26243Y-49403D02*
G02X26243Y-48641I0J381D01*
G01X27402D01*
G02Y-49403I0J-381D01*
G01X26243D01*
G37*
G36*
G01X26624Y-49022D02*
G02X25862Y-49022I-381J0D01*
G01Y-47863D01*
G02X26624I381J0D01*
G01Y-49022D01*
G37*
G36*
G01X26243Y-46863D02*
G02X26243Y-46101I0J381D01*
G01X27402D01*
G02Y-46863I0J-381D01*
G01X26243D01*
G37*
G36*
G01X25862Y-46482D02*
G02X26624Y-46482I381J0D01*
G01Y-47641D01*
G02X25862I-381J0D01*
G01Y-46482D01*
G37*
G36*
G01X26624Y-46482D02*
G02X25862Y-46482I-381J0D01*
G01Y-45323D01*
G02X26624I381J0D01*
G01Y-46482D01*
G37*
G36*
G01X41021Y-14732D02*
G02X40259Y-14732I-381J0D01*
G01Y-13623D01*
G02X41021I381J0D01*
G01Y-14732D01*
G37*
G36*
G01X40640Y-15113D02*
G02X40640Y-14351I0J381D01*
G01X41749D01*
G02Y-15113I0J-381D01*
G01X40640D01*
G37*
G36*
G01X39531Y-15113D02*
G02X39531Y-14351I0J381D01*
G01X40640D01*
G02Y-15113I0J-381D01*
G01X39531D01*
G37*
G36*
G01X42672Y19050D02*
G02X41910Y19050I-381J0D01*
G01Y20109D01*
G02X42672I381J0D01*
G01Y19050D01*
G37*
G36*
G01X41910Y19050D02*
G02X42672Y19050I381J0D01*
G01Y17991D01*
G02X41910I-381J0D01*
G01Y19050D01*
G37*
G36*
G01X42291Y18669D02*
G02X42291Y19431I0J381D01*
G01X43350D01*
G02Y18669I0J-381D01*
G01X42291D01*
G37*
G36*
G01X42319Y1910D02*
G02X42319Y2672I0J381D01*
G01X43478D01*
G02Y1910I0J-381D01*
G01X42319D01*
G37*
G36*
G01X41160Y1910D02*
G02X41160Y2672I0J381D01*
G01X42319D01*
G02Y1910I0J-381D01*
G01X41160D01*
G37*
G36*
G01X42319Y9530D02*
G02X42319Y10292I0J381D01*
G01X43478D01*
G02Y9530I0J-381D01*
G01X42319D01*
G37*
G36*
G01X44859Y9530D02*
G02X44859Y10292I0J381D01*
G01X46018D01*
G02Y9530I0J-381D01*
G01X44859D01*
G37*
G36*
G01X43700Y9530D02*
G02X43700Y10292I0J381D01*
G01X44859D01*
G02Y9530I0J-381D01*
G01X43700D01*
G37*
G36*
G01X44859Y1910D02*
G02X44859Y2672I0J381D01*
G01X46018D01*
G02Y1910I0J-381D01*
G01X44859D01*
G37*
G36*
G01X43700Y1910D02*
G02X43700Y2672I0J381D01*
G01X44859D01*
G02Y1910I0J-381D01*
G01X43700D01*
G37*
G36*
G01X42700Y4831D02*
G02X41938Y4831I-381J0D01*
G01Y5990D01*
G02X42700I381J0D01*
G01Y4831D01*
G37*
G36*
G01X42319Y4450D02*
G02X42319Y5212I0J381D01*
G01X43478D01*
G02Y4450I0J-381D01*
G01X42319D01*
G37*
G36*
G01X41160Y4450D02*
G02X41160Y5212I0J381D01*
G01X42319D01*
G02Y4450I0J-381D01*
G01X41160D01*
G37*
G36*
G01X41938Y7371D02*
G02X42700Y7371I381J0D01*
G01Y6212D01*
G02X41938I-381J0D01*
G01Y7371D01*
G37*
G36*
G01X42319Y6990D02*
G02X42319Y7752I0J381D01*
G01X43478D01*
G02Y6990I0J-381D01*
G01X42319D01*
G37*
G36*
G01X41160Y6990D02*
G02X41160Y7752I0J381D01*
G01X42319D01*
G02Y6990I0J-381D01*
G01X41160D01*
G37*
G36*
G01X44478Y7371D02*
G02X45240Y7371I381J0D01*
G01Y6212D01*
G02X44478I-381J0D01*
G01Y7371D01*
G37*
G36*
G01X44859Y6990D02*
G02X44859Y7752I0J381D01*
G01X46018D01*
G02Y6990I0J-381D01*
G01X44859D01*
G37*
G36*
G01X43700Y6990D02*
G02X43700Y7752I0J381D01*
G01X44859D01*
G02Y6990I0J-381D01*
G01X43700D01*
G37*
G36*
G01X45240Y4831D02*
G02X44478Y4831I-381J0D01*
G01Y5990D01*
G02X45240I381J0D01*
G01Y4831D01*
G37*
G36*
G01X44859Y4450D02*
G02X44859Y5212I0J381D01*
G01X46018D01*
G02Y4450I0J-381D01*
G01X44859D01*
G37*
G36*
G01X43700Y4450D02*
G02X43700Y5212I0J381D01*
G01X44859D01*
G02Y4450I0J-381D01*
G01X43700D01*
G37*
G36*
G01X-18840Y9530D02*
G02X-18840Y10292I0J381D01*
G01X-17681D01*
G02Y9530I0J-381D01*
G01X-18840D01*
G37*
G36*
G01X-17681Y9530D02*
G02X-17681Y10292I0J381D01*
G01X-16522D01*
G02Y9530I0J-381D01*
G01X-17681D01*
G37*
G36*
G01X-16300Y9530D02*
G02X-16300Y10292I0J381D01*
G01X-15141D01*
G02Y9530I0J-381D01*
G01X-16300D01*
G37*
G36*
G01X-15141Y9530D02*
G02X-15141Y10292I0J381D01*
G01X-13982D01*
G02Y9530I0J-381D01*
G01X-15141D01*
G37*
G36*
G01X-3856Y19481D02*
G02X-4618Y19481I-381J0D01*
G01Y20490D01*
G02X-3856I381J0D01*
G01Y19481D01*
G37*
G36*
G01X-4618Y19481D02*
G02X-3856Y19481I381J0D01*
G01Y18472D01*
G02X-4618I-381J0D01*
G01Y19481D01*
G37*
G36*
G01X-4237Y19100D02*
G02X-4237Y19862I0J381D01*
G01X-3228D01*
G02Y19100I0J-381D01*
G01X-4237D01*
G37*
G36*
G01X-5246Y19100D02*
G02X-5246Y19862I0J381D01*
G01X-4237D01*
G02Y19100I0J-381D01*
G01X-5246D01*
G37*
G36*
G01X-3856Y22021D02*
G02X-4618Y22021I-381J0D01*
G01Y23030D01*
G02X-3856I381J0D01*
G01Y22021D01*
G37*
G36*
G01X-4618Y22021D02*
G02X-3856Y22021I381J0D01*
G01Y21012D01*
G02X-4618I-381J0D01*
G01Y22021D01*
G37*
G36*
G01X-4237Y21640D02*
G02X-4237Y22402I0J381D01*
G01X-3228D01*
G02Y21640I0J-381D01*
G01X-4237D01*
G37*
G36*
G01X-5246Y21640D02*
G02X-5246Y22402I0J381D01*
G01X-4237D01*
G02Y21640I0J-381D01*
G01X-5246D01*
G37*
G04 PlaneZone End*

G04 Pad Start*
G54D10*
G01X31323Y22021D03*
G01X33863Y22021D03*
G01X8463Y22021D03*
G01X33863Y16941D03*
G01X31323Y16941D03*
G01X31323Y14401D03*
G01X33863Y14401D03*
G01X33863Y11861D03*
G01X31323Y11861D03*
G01X31323Y9321D03*
G01X33863Y9321D03*
G01X33863Y6781D03*
G01X31323Y6781D03*
G01X33863Y4241D03*
G01X31323Y4241D03*
G01X33863Y1701D03*
G01X31323Y1701D03*
G01X33863Y-839D03*
G01X31323Y-839D03*
G01X33863Y-3379D03*
G01X31323Y-3379D03*
G01X31323Y-5919D03*
G01X33863Y-5919D03*
G01X31323Y-8459D03*
G01X33863Y-8459D03*
G01X33863Y-10999D03*
G01X31323Y-10999D03*
G01X31323Y-13539D03*
G01X33863Y-13539D03*
G01X31323Y-18619D03*
G01X33863Y-16079D03*
G01X31323Y-16079D03*
G01X33863Y-18619D03*
G01X33863Y-21159D03*
G01X31323Y-21159D03*
G01X31323Y-23699D03*
G01X33863Y-23699D03*
G01X33863Y-26239D03*
G01X31323Y-26239D03*
G01X28783Y-26239D03*
G01X28783Y-23699D03*
G01X26243Y-23699D03*
G01X26243Y-26239D03*
G01X23703Y-23699D03*
G01X23703Y-26239D03*
G01X21163Y-26239D03*
G01X21163Y-23699D03*
G01X5923Y-23699D03*
G01X5923Y-26239D03*
G01X3383Y-26239D03*
G01X3383Y-23699D03*
G01X843Y-26239D03*
G01X843Y-23699D03*
G01X-1697Y-23699D03*
G01X-1697Y-26239D03*
G01X-4237Y-26239D03*
G01X-6777Y-26239D03*
G01X-4237Y-23699D03*
G01X-6777Y-23699D03*
G01X-6777Y-21159D03*
G01X-4237Y-21159D03*
G01X-6777Y-18619D03*
G01X-4237Y-18619D03*
G01X-4237Y-16079D03*
G01X-6777Y-16079D03*
G01X-6777Y-13539D03*
G01X-4237Y-13539D03*
G01X-6777Y-10999D03*
G01X-4237Y-8459D03*
G01X-6777Y-8459D03*
G01X-6777Y-5919D03*
G01X-4237Y-5919D03*
G01X-4237Y-3379D03*
G01X-4237Y-839D03*
G01X-6777Y1701D03*
G01X-4237Y1701D03*
G01X-4237Y4241D03*
G01X-6777Y4241D03*
G01X-6777Y6781D03*
G01X-4237Y6781D03*
G01X-4237Y9321D03*
G01X-6777Y9321D03*
G01X-6777Y11861D03*
G01X-4237Y11861D03*
G01X-4237Y14401D03*
G01X-6777Y14401D03*
G01X-4237Y16941D03*
G01X-4237Y19481D03*
G01X3383Y19481D03*
G01X843Y19481D03*
G01X5923Y19481D03*
G01X8463Y19481D03*
G01X11003Y19481D03*
G01X13543Y19481D03*
G01X16083Y19481D03*
G01X18623Y19481D03*
G01X21163Y19481D03*
G01X23703Y19481D03*
G01X26243Y19481D03*
G01X28783Y19481D03*
G01X31323Y19481D03*
G01X33863Y19481D03*
G01X28783Y22021D03*
G01X26243Y22021D03*
G01X23703Y22021D03*
G01X21163Y22021D03*
G01X18623Y22021D03*
G01X16083Y22021D03*
G01X13543Y22021D03*
G01X11003Y22021D03*
G01X5923Y22021D03*
G01X843Y22021D03*
G01X-6777Y16941D03*
G01X-6777Y19481D03*
G01X-6777Y22021D03*
G01X3383Y22021D03*
G01X-6777Y-839D03*
G01X-6777Y-3379D03*
G01X-4237Y22021D03*
G01X-1697Y22021D03*
G01X-1697Y19481D03*
G01X-4237Y-10999D03*
G54D11*
G01X19332Y-34417D03*
G54D12*
G01X16830Y-34417D03*
G01X14331Y-34417D03*
G01X11831Y-34417D03*
G01X9332Y-34417D03*
G01X6830Y-34417D03*
G54D13*
G01X40640Y-14732D03*
G54D14*
G01X40640Y-17272D03*
G01X40640Y-19812D03*
G01X40640Y-22352D03*
G54D16*
G01X-22733Y14991D03*
G01X-22733Y12451D03*
G54D17*
G01X-22733Y9911D03*
G54D18*
G01X42291Y26670D03*
G54D19*
G01X44831Y26670D03*
G01X42291Y24130D03*
G01X44831Y24130D03*
G01X42291Y21590D03*
G01X44831Y21590D03*
G01X42291Y19050D03*
G01X44831Y19050D03*
G54D20*
G01X843Y-46482D03*
G01X843Y-49022D03*
G01X3383Y-49022D03*
G01X3383Y-46482D03*
G01X5923Y-49022D03*
G01X5923Y-46482D03*
G01X8463Y-49022D03*
G01X8463Y-46482D03*
G01X11003Y-49022D03*
G01X11003Y-46482D03*
G01X13543Y-49022D03*
G01X13543Y-46482D03*
G01X16083Y-49022D03*
G01X16083Y-46482D03*
G01X18623Y-49022D03*
G01X18623Y-46482D03*
G01X21163Y-49022D03*
G01X21163Y-46482D03*
G01X23703Y-49022D03*
G01X23703Y-46482D03*
G01X26243Y-49022D03*
G54D21*
G01X26243Y-46482D03*
G54D22*
G01X-17526Y-16383D03*
G54D20*
G01X-17526Y-18923D03*
G01X-17526Y-21463D03*
G01X-17526Y-24003D03*
G01X-17526Y-26543D03*
G01X-17526Y-29083D03*
G01X-17526Y-31623D03*
G01X-17526Y-34163D03*
G01X-15141Y14991D03*
G01X-17681Y14991D03*
G01X-15141Y12451D03*
G01X-17681Y12451D03*
G01X-15141Y9911D03*
G01X-17681Y9911D03*
G01X-15141Y7371D03*
G01X-17681Y7371D03*
G01X-15141Y4831D03*
G01X-17681Y4831D03*
G01X-15141Y2291D03*
G01X-17681Y2291D03*
G01X-15141Y-249D03*
G01X-17681Y-249D03*
G01X-15141Y-2789D03*
G54D23*
G01X-17681Y-2789D03*
G54D20*
G01X42319Y-2789D03*
G01X44859Y-2789D03*
G01X42319Y-249D03*
G01X44859Y-249D03*
G01X42319Y2291D03*
G01X44859Y2291D03*
G01X42319Y4831D03*
G01X44859Y4831D03*
G01X42319Y7371D03*
G01X44859Y7371D03*
G01X42319Y9911D03*
G01X44859Y9911D03*
G01X42319Y12451D03*
G01X44859Y12451D03*
G01X42319Y14991D03*
G54D22*
G01X44859Y14991D03*
G54D24*
G01X33033Y-46355D03*
G54D25*
G01X35533Y-46355D03*
G01X38033Y-46355D03*
G01X40533Y-46355D03*
G01X43033Y-46355D03*
G01X45533Y-46355D03*
G01X48033Y-46355D03*
G01X50533Y-46355D03*
G54D20*
G01X15240Y-4540D03*
G01X15240Y-540D03*
G04 Pad End*

G04 Via Start*
G54D26*
G01X30734Y27432D03*
G01X28194Y27432D03*
G01X37465Y-6985D03*
G01X36195Y-6604D03*
G01X23114Y17907D03*
G01X23114Y27432D03*
G01X-6477Y33274D03*
G01X438Y-10922D03*
G01X4445Y-40005D03*
G01X24003Y-13081D03*
G01X24892Y-13335D03*
G01X25675Y-14107D03*
G01X-6604Y27686D03*
G01X35560Y-40259D03*
G01X9271Y-16764D03*
G01X12192Y-39751D03*
G01X11303Y-36195D03*
G01X22987Y14274D03*
G01X22912Y11734D03*
G01X22912Y9194D03*
G01X22912Y6654D03*
G01X22912Y4114D03*
G01X22912Y1574D03*
G01X22912Y-966D03*
G01X22912Y-3506D03*
G01X22912Y-6046D03*
G01X6828Y-7747D03*
G01X-14224Y-43561D03*
G01X15875Y26974D03*
G01X15875Y28498D03*
G01X15875Y30022D03*
G01X17399Y25450D03*
G01X17399Y30022D03*
G01X-24239Y18923D03*
G01X-24239Y24003D03*
G01X-24239Y29083D03*
G01X-24239Y34163D03*
G01X-21699Y18923D03*
G01X-21699Y24003D03*
G01X-21699Y29083D03*
G01X-21699Y34163D03*
G01X-19159Y24003D03*
G01X-19159Y29083D03*
G01X-19159Y34163D03*
G01X-16619Y24003D03*
G01X-16619Y29083D03*
G01X-16619Y34163D03*
G01X-14079Y29083D03*
G01X-14079Y34163D03*
G01X-11539Y34163D03*
G01X-1379Y34163D03*
G01X10033Y33655D03*
G01X12573Y33655D03*
G01X15113Y33655D03*
G01X10368Y-1924D03*
G01X12908Y-1924D03*
G01X-1397Y11811D03*
G01X1652Y11811D03*
G01X-24638Y-41698D03*
G01X-24638Y-36618D03*
G01X-24638Y-31538D03*
G01X-24638Y-26458D03*
G01X-24638Y-21378D03*
G01X-24638Y-16298D03*
G01X-22098Y-36618D03*
G01X-22098Y-31538D03*
G01X-22098Y-26458D03*
G01X-22098Y-21378D03*
G01X-22098Y-16298D03*
G01X-17018Y-36618D03*
G01X-14478Y-36618D03*
G01X-14478Y-16298D03*
G01X-11938Y-31538D03*
G01X-11938Y-26458D03*
G01X-11938Y-16298D03*
G01X-9398Y-31538D03*
G01X-9398Y-26458D03*
G01X50739Y-9461D03*
G01X50739Y-14160D03*
G01X50739Y-18732D03*
G01X50739Y-23304D03*
G01X45466Y-28321D03*
G01X53043Y14224D03*
G01X53043Y9144D03*
G01X53043Y4064D03*
G01X21209Y24457D03*
G01X21209Y25727D03*
G01X21209Y29537D03*
G01X21844Y27432D03*
G01X33782Y29718D03*
G01X33274Y25273D03*
G01X-25908Y9017D03*
G01X-3175Y-35179D03*
G01X-2032Y-37084D03*
G01X-508Y-37846D03*
G01X2413Y-38608D03*
G01X1905Y-39370D03*
G01X39751Y32639D03*
G01X39751Y-2921D03*
G01X39751Y2159D03*
G01X39751Y7239D03*
G01X39751Y12319D03*
G01X39751Y17399D03*
G01X42291Y32639D03*
G01X44831Y32639D03*
G01X47371Y32639D03*
G01X47371Y-2921D03*
G01X47371Y22479D03*
G01X49911Y-2921D03*
G01X49911Y22479D03*
G01X49911Y27559D03*
G01X49911Y32639D03*
G01X52451Y-2921D03*
G01X52451Y22479D03*
G01X52451Y27559D03*
G01X52451Y32639D03*
G01X-17018Y-12700D03*
G01X-17018Y-7620D03*
G01X-14478Y-12700D03*
G01X-14478Y-7620D03*
G01X-11938Y-12700D03*
G01X-11938Y-7620D03*
G01X-11938Y-2540D03*
G01X30607Y-30099D03*
G01X35687Y-35179D03*
G01X35687Y-30099D03*
G01X40767Y-40259D03*
G01X40767Y-35179D03*
G01X40767Y-30099D03*
G01X45847Y-40259D03*
G01X50927Y-40259D03*
G01X53340Y-27305D03*
G04 Via End*

M02*
