G04 Layer: BottomSilkscreenLayer*
G04 EasyEDA Pro v2.1.21.9b64d12f.b3811b, 2024-07-11 22:11:45*
G04 Gerber Generator version 0.3*
G04 Scale: 100 percent, Rotated: No, Reflected: No*
G04 Dimensions in millimeters*
G04 Leading zeros omitted, absolute positions, 3 integers and 3 decimals*
%FSLAX33Y33*%
%MOMM*%
%ADD10C,0.152*%
%ADD11C,0.254*%
%ADD12C,0.203*%
G75*


G04 Text Start*
G54D10*
G01X-20764Y-38888D02*
G01X-20764Y-38238D01*
G01X-20764Y-38888D02*
G01X-20548Y-38888D01*
G01X-20454Y-38858D01*
G01X-20394Y-38797D01*
G01X-20363Y-38733D01*
G01X-20330Y-38642D01*
G01Y-38487D01*
G01X-20363Y-38393D01*
G01X-20394Y-38332D01*
G01X-20454Y-38268D01*
G01X-20548Y-38238D01*
G01X-20764D01*
G01X-20028Y-38888D02*
G01X-20028Y-38238D01*
G01X-19726Y-38888D02*
G01X-19726Y-38238D01*
G01X-19726Y-38888D02*
G01X-19449Y-38888D01*
G01X-19355Y-38858D01*
G01X-19324Y-38827D01*
G01X-19294Y-38764D01*
G01Y-38703D01*
G01X-19324Y-38642D01*
G01X-19355Y-38611D01*
G01X-19449Y-38578D01*
G01X-19726D01*
G01X-19510Y-38578D02*
G01X-19294Y-38238D01*
G01X-18961Y-38733D02*
G01X-18961Y-38764D01*
G01X-18930Y-38827D01*
G01X-18900Y-38858D01*
G01X-18839Y-38888D01*
G01X-18715D01*
G01X-18651Y-38858D01*
G01X-18621Y-38827D01*
G01X-18590Y-38764D01*
G01Y-38703D01*
G01X-18621Y-38642D01*
G01X-18684Y-38548D01*
G01X-18991Y-38238D01*
G01X-18560D01*
G01X-20764Y-40092D02*
G01X-20764Y-39441D01*
G01X-20764Y-40092D02*
G01X-20485Y-40092D01*
G01X-20394Y-40061D01*
G01X-20363Y-40031D01*
G01X-20330Y-39967D01*
G01Y-39876D01*
G01X-20363Y-39815D01*
G01X-20394Y-39782D01*
G01X-20485Y-39751D01*
G01X-20764D01*
G01X-20028Y-40092D02*
G01X-19875Y-39441D01*
G01X-19720Y-40092D02*
G01X-19875Y-39441D01*
G01X-19720Y-40092D02*
G01X-19565Y-39441D01*
G01X-19411Y-40092D02*
G01X-19565Y-39441D01*
G01X-19108Y-40092D02*
G01X-19108Y-39441D01*
G01X-19108Y-40092D02*
G01X-18862Y-39441D01*
G01X-18613Y-40092D02*
G01X-18862Y-39441D01*
G01X-18613Y-40092D02*
G01X-18613Y-39441D01*
G01X-18280Y-39937D02*
G01X-18280Y-39967D01*
G01X-18250Y-40031D01*
G01X-18219Y-40061D01*
G01X-18158Y-40092D01*
G01X-18034D01*
G01X-17970Y-40061D01*
G01X-17940Y-40031D01*
G01X-17909Y-39967D01*
G01Y-39906D01*
G01X-17940Y-39845D01*
G01X-18003Y-39751D01*
G01X-18311Y-39441D01*
G01X-17879D01*
G01X-20764Y-41326D02*
G01X-20764Y-40676D01*
G01X-20764Y-41326D02*
G01X-20548Y-41326D01*
G01X-20454Y-41295D01*
G01X-20394Y-41234D01*
G01X-20363Y-41171D01*
G01X-20330Y-41079D01*
G01Y-40924D01*
G01X-20363Y-40831D01*
G01X-20394Y-40770D01*
G01X-20454Y-40706D01*
G01X-20548Y-40676D01*
G01X-20764D01*
G01X-20028Y-41326D02*
G01X-20028Y-40676D01*
G01X-19726Y-41326D02*
G01X-19726Y-40676D01*
G01X-19726Y-41326D02*
G01X-19449Y-41326D01*
G01X-19355Y-41295D01*
G01X-19324Y-41265D01*
G01X-19294Y-41201D01*
G01Y-41140D01*
G01X-19324Y-41079D01*
G01X-19355Y-41049D01*
G01X-19449Y-41016D01*
G01X-19726D01*
G01X-19510Y-41016D02*
G01X-19294Y-40676D01*
G01X-18991Y-41201D02*
G01X-18930Y-41234D01*
G01X-18839Y-41326D01*
G01Y-40676D01*
G01X-20764Y-42517D02*
G01X-20764Y-41867D01*
G01X-20764Y-42517D02*
G01X-20485Y-42517D01*
G01X-20394Y-42486D01*
G01X-20363Y-42456D01*
G01X-20330Y-42392D01*
G01Y-42301D01*
G01X-20363Y-42240D01*
G01X-20394Y-42207D01*
G01X-20485Y-42176D01*
G01X-20764D01*
G01X-20028Y-42517D02*
G01X-19875Y-41867D01*
G01X-19720Y-42517D02*
G01X-19875Y-41867D01*
G01X-19720Y-42517D02*
G01X-19565Y-41867D01*
G01X-19411Y-42517D02*
G01X-19565Y-41867D01*
G01X-19108Y-42517D02*
G01X-19108Y-41867D01*
G01X-19108Y-42517D02*
G01X-18862Y-41867D01*
G01X-18613Y-42517D02*
G01X-18862Y-41867D01*
G01X-18613Y-42517D02*
G01X-18613Y-41867D01*
G01X-18311Y-42392D02*
G01X-18250Y-42425D01*
G01X-18158Y-42517D01*
G01Y-41867D01*
G01X-20703Y-43751D02*
G01X-20363Y-43751D01*
G01X-20548Y-43505D01*
G01X-20454D01*
G01X-20394Y-43474D01*
G01X-20363Y-43441D01*
G01X-20330Y-43350D01*
G01Y-43286D01*
G01X-20363Y-43195D01*
G01X-20424Y-43131D01*
G01X-20515Y-43101D01*
G01X-20609D01*
G01X-20703Y-43131D01*
G01X-20734Y-43164D01*
G01X-20764Y-43225D01*
G01X-20028Y-43751D02*
G01X-19781Y-43101D01*
G01X-19532Y-43751D02*
G01X-19781Y-43101D01*
G01X-19169Y-43751D02*
G01X-18829Y-43751D01*
G01X-19014Y-43505D01*
G01X-18923D01*
G01X-18859Y-43474D01*
G01X-18829Y-43441D01*
G01X-18798Y-43350D01*
G01Y-43286D01*
G01X-18829Y-43195D01*
G01X-18890Y-43131D01*
G01X-18984Y-43101D01*
G01X-19078D01*
G01X-19169Y-43131D01*
G01X-19200Y-43164D01*
G01X-19230Y-43225D01*
G36*
G01X-17580Y-41103D02*
G01X-17580Y-41537D01*
G01X-17548D01*
G01Y-41505D01*
G01X-17547Y-41479D01*
G01X-17546Y-41468D01*
G01X-17545Y-41462D01*
G01X-17543Y-41454D01*
G01Y-41445D01*
G01X-17542Y-41441D01*
G01X-17541Y-41436D01*
G01X-17536Y-41426D01*
G01X-17528Y-41408D01*
G01X-17525Y-41402D01*
G01X-17521Y-41397D01*
G01X-17516Y-41392D01*
G01X-17508Y-41385D01*
G01X-17502Y-41382D01*
G01X-17497Y-41380D01*
G01X-17492Y-41378D01*
G01X-17476Y-41374D01*
G01X-17472Y-41373D01*
G01X-17104Y-41371D01*
G01X-16731Y-41373D01*
G01X-16728Y-41374D01*
G01X-16722Y-41375D01*
G01X-16714Y-41377D01*
G01X-16705Y-41380D01*
G01X-16699Y-41383D01*
G01X-16695Y-41387D01*
G01X-16690Y-41391D01*
G01X-16687Y-41396D01*
G01X-16686Y-41398D01*
G01X-16684Y-41403D01*
G01X-16683Y-41411D01*
G01X-16682Y-41419D01*
G01X-16681Y-41435D01*
G01X-16680Y-41473D01*
G01Y-41537D01*
G01X-16643D01*
G01Y-41483D01*
G01X-16642Y-41453D01*
G01X-16641Y-41445D01*
G01Y-41443D01*
G01X-16638Y-41433D01*
G01X-16634Y-41412D01*
G01X-16633Y-41405D01*
G01X-16631Y-41398D01*
G01X-16629Y-41392D01*
G01X-16625Y-41384D01*
G01X-16620Y-41371D01*
G01X-16617Y-41366D01*
G01X-16613Y-41359D01*
G01X-16595Y-41335D01*
G01X-16590Y-41329D01*
G01X-16586Y-41325D01*
G01X-16581Y-41320D01*
G01X-16569Y-41312D01*
G01X-16564Y-41309D01*
G01X-16557Y-41305D01*
G01X-16554Y-41302D01*
G01X-16553Y-41299D01*
G01X-16552Y-41297D01*
G01X-16551Y-41294D01*
G01Y-41291D01*
G01X-16550Y-41274D01*
G01X-17010D01*
G01X-17448Y-41271D01*
G01X-17480Y-41270D01*
G01X-17483Y-41269D01*
G01X-17497Y-41264D01*
G01X-17503Y-41261D01*
G01X-17509Y-41258D01*
G01X-17514Y-41255D01*
G01X-17518Y-41251D01*
G01X-17522Y-41248D01*
G01X-17525Y-41244D01*
G01X-17535Y-41228D01*
G01X-17537Y-41224D01*
G01X-17540Y-41217D01*
G01X-17543Y-41201D01*
G01X-17546Y-41191D01*
G01X-17547Y-41179D01*
G01X-17548Y-41145D01*
G01Y-41103D01*
G37*
G36*
G01X-16776Y-41824D02*
G01X-16778Y-41824D01*
G01X-16782Y-41827D01*
G01X-16783Y-41829D01*
G01X-16785Y-41831D01*
G01X-16788Y-41837D01*
G01X-16791Y-41841D01*
G01X-16794Y-41844D01*
G01X-16801Y-41849D01*
G01X-16807Y-41855D01*
G01X-16811Y-41861D01*
G01X-16814Y-41863D01*
G01X-16817D01*
G01X-16820D01*
G01X-16823Y-41862D01*
G01X-16835Y-41861D01*
G01X-16878D01*
G01X-16927Y-41862D01*
G01X-16937D01*
G01X-16941Y-41863D01*
G01X-16951Y-41865D01*
G01X-16960Y-41868D01*
G01X-16969D01*
G01X-17107Y-41870D01*
G01X-17194D01*
G01X-17251Y-41871D01*
G01X-17259Y-41873D01*
G01X-17268Y-41874D01*
G01X-17295Y-41875D01*
G01X-17301Y-41876D01*
G01X-17308Y-41877D01*
G01X-17320Y-41879D01*
G01X-17349D01*
G01X-17389Y-41880D01*
G01X-17407Y-41882D01*
G01X-17417Y-41883D01*
G01X-17430Y-41885D01*
G01X-17436Y-41886D01*
G01X-17442Y-41888D01*
G01X-17450D01*
G01X-17480Y-41889D01*
G01X-17493Y-41890D01*
G01X-17500Y-41891D01*
G01X-17510Y-41893D01*
G01X-17525Y-41897D01*
G01X-17539Y-41898D01*
G01X-17547Y-41899D01*
G01X-17560Y-41902D01*
G01X-17581Y-41906D01*
G01X-17587Y-41907D01*
G01X-17593Y-41909D01*
G01X-17597Y-41912D01*
G01X-17604Y-41916D01*
G01X-17615Y-41919D01*
G01X-17619Y-41921D01*
G01X-17627Y-41924D01*
G01X-17636Y-41931D01*
G01X-17643Y-41935D01*
G01X-17650Y-41938D01*
G01X-17654Y-41940D01*
G01X-17656Y-41943D01*
G01X-17660Y-41948D01*
G01X-17663Y-41951D01*
G01X-17670Y-41956D01*
G01X-17678Y-41962D01*
G01X-17683Y-41966D01*
G01X-17688Y-41970D01*
G01X-17692Y-41976D01*
G01X-17701Y-41990D01*
G01X-17714Y-42007D01*
G01X-17718Y-42013D01*
G01X-17721Y-42019D01*
G01X-17727Y-42033D01*
G01X-17733Y-42045D01*
G01X-17737Y-42055D01*
G01X-17739Y-42066D01*
G01X-17740Y-42072D01*
G01Y-42076D01*
G01X-17739Y-42078D01*
G01X-17737Y-42080D01*
G01X-17719Y-42089D01*
G01X-17712Y-42093D01*
G01X-17705Y-42098D01*
G01X-17694Y-42107D01*
G01X-17682Y-42120D01*
G01X-17675Y-42128D01*
G01X-17663Y-42145D01*
G01X-17649Y-42166D01*
G01X-17640Y-42183D01*
G01X-17635Y-42192D01*
G01X-17630Y-42201D01*
G01X-17622Y-42220D01*
G01X-17616Y-42230D01*
G01X-17611Y-42238D01*
G01X-17606Y-42251D01*
G01X-17603Y-42255D01*
G01X-17601Y-42258D01*
G01X-17599Y-42260D01*
G01X-17598Y-42261D01*
G01X-17596D01*
G01X-17590D01*
G01X-17582Y-42260D01*
G01X-17578Y-42258D01*
G01X-17574Y-42256D01*
G01X-17573Y-42253D01*
G01Y-42248D01*
G01X-17578Y-42233D01*
G01X-17580Y-42225D01*
G01Y-42212D01*
G01X-17581Y-42204D01*
G01X-17585Y-42191D01*
G01X-17587Y-42179D01*
G01X-17593Y-42142D01*
G01X-17595Y-42130D01*
G01X-17597Y-42126D01*
G01Y-42123D01*
G01X-17598Y-42111D01*
G01X-17599Y-42080D01*
G01X-17598Y-42049D01*
G01Y-42040D01*
G01X-17597Y-42034D01*
G01X-17592Y-42018D01*
G01X-17591Y-42013D01*
G01X-17588Y-42010D01*
G01X-17585Y-42007D01*
G01X-17582Y-42004D01*
G01X-17569Y-41994D01*
G01X-17565Y-41992D01*
G01X-17557Y-41990D01*
G01X-17550D01*
G01X-17546Y-41989D01*
G01X-17541Y-41988D01*
G01X-17536Y-41986D01*
G01X-17529Y-41983D01*
G01X-17524Y-41982D01*
G01X-17519Y-41981D01*
G01X-17508D01*
G01X-17499Y-41980D01*
G01X-17490Y-41979D01*
G01X-17468Y-41973D01*
G01X-17457Y-41972D01*
G01X-17444Y-41971D01*
G01X-17426D01*
G01X-17420Y-41970D01*
G01X-17416Y-41969D01*
G01X-17412Y-41968D01*
G01X-17402Y-41967D01*
G01X-17388D01*
G01X-17371Y-41966D01*
G01X-17365Y-41965D01*
G01X-17361Y-41964D01*
G01X-17357D01*
G01X-17346Y-41963D01*
G01X-17299Y-41962D01*
G01X-17292Y-41961D01*
G01X-17287Y-41960D01*
G01X-17285Y-41959D01*
G01X-17274Y-41958D01*
G01X-17153Y-41957D01*
G01X-17142Y-41956D01*
G01X-17139Y-41955D01*
G01X-17136D01*
G01X-17125Y-41954D01*
G01X-17082Y-41952D01*
G01X-17072Y-41951D01*
G01X-17069D01*
G01X-17059Y-41950D01*
G01X-16959Y-41949D01*
G01X-16879Y-41948D01*
G01X-16851Y-41947D01*
G01X-16845Y-41945D01*
G01X-16837D01*
G01X-16827Y-41947D01*
G01X-16819D01*
G01X-16812Y-41945D01*
G01X-16804D01*
G01X-16800Y-41946D01*
G01X-16799D01*
G01Y-41947D01*
G01X-16798Y-41948D01*
G01X-16797Y-41950D01*
G01X-16796Y-41952D01*
G01X-16794Y-41959D01*
G01X-16793Y-41969D01*
G01X-16792Y-41991D01*
G01X-16790Y-42059D01*
G01X-16791Y-42128D01*
G01X-16792Y-42177D01*
G01X-16793Y-42182D01*
G01X-16795Y-42193D01*
G01X-16835D01*
G01X-16866D01*
G01X-16875Y-42194D01*
G01X-16880Y-42195D01*
G01X-16884Y-42197D01*
G01X-16894Y-42198D01*
G01X-16909Y-42199D01*
G01X-16917Y-42200D01*
G01X-16921Y-42201D01*
G01X-16931Y-42202D01*
G01X-16967Y-42203D01*
G01X-16980Y-42204D01*
G01X-16987Y-42205D01*
G01X-17009Y-42210D01*
G01X-17020Y-42211D01*
G01X-17042Y-42212D01*
G01X-17051Y-42213D01*
G01X-17055D01*
G01X-17061Y-42215D01*
G01X-17068Y-42218D01*
G01X-17073Y-42220D01*
G01X-17078D01*
G01X-17089Y-42221D01*
G01X-17098Y-42222D01*
G01X-17110Y-42225D01*
G01X-17121Y-42228D01*
G01X-17144Y-42233D01*
G01X-17154Y-42235D01*
G01X-17166Y-42238D01*
G01X-17174Y-42239D01*
G01X-17183Y-42240D01*
G01X-17192Y-42242D01*
G01X-17202Y-42246D01*
G01X-17212Y-42249D01*
G01X-17230Y-42254D01*
G01X-17243Y-42258D01*
G01X-17285Y-42272D01*
G01X-17300Y-42277D01*
G01X-17316Y-42285D01*
G01X-17331Y-42290D01*
G01X-17340Y-42296D01*
G01X-17348Y-42301D01*
G01X-17371Y-42311D01*
G01X-17382Y-42318D01*
G01X-17400Y-42327D01*
G01X-17415Y-42336D01*
G01X-17428Y-42343D01*
G01X-17435Y-42347D01*
G01X-17442Y-42352D01*
G01X-17468Y-42373D01*
G01X-17473Y-42376D01*
G01X-17477Y-42378D01*
G01X-17484Y-42381D01*
G01X-17487Y-42383D01*
G01X-17490Y-42386D01*
G01X-17495Y-42393D01*
G01X-17498Y-42395D01*
G01X-17501Y-42397D01*
G01X-17507Y-42400D01*
G01X-17510Y-42402D01*
G01X-17513Y-42405D01*
G01X-17515Y-42408D01*
G01X-17521Y-42414D01*
G01X-17531Y-42422D01*
G01X-17536Y-42428D01*
G01X-17541Y-42434D01*
G01X-17544Y-42437D01*
G01X-17548Y-42440D01*
G01X-17557Y-42445D01*
G01X-17561Y-42447D01*
G01X-17564Y-42451D01*
G01X-17569Y-42458D01*
G01X-17575Y-42463D01*
G01X-17581Y-42468D01*
G01X-17584Y-42471D01*
G01X-17587Y-42475D01*
G01X-17592Y-42484D01*
G01X-17595Y-42488D01*
G01X-17598Y-42491D01*
G01X-17603Y-42495D01*
G01X-17606Y-42498D01*
G01X-17611Y-42504D01*
G01X-17618Y-42515D01*
G01X-17622Y-42519D01*
G01X-17625Y-42523D01*
G01X-17632Y-42528D01*
G01X-17635Y-42531D01*
G01X-17636Y-42534D01*
G01X-17639Y-42540D01*
G01X-17641Y-42543D01*
G01X-17644Y-42547D01*
G01X-17649Y-42550D01*
G01X-17652Y-42553D01*
G01X-17658Y-42560D01*
G01X-17669Y-42576D01*
G01X-17677Y-42588D01*
G01X-17688Y-42602D01*
G01X-17700Y-42622D01*
G01X-17710Y-42636D01*
G01X-17715Y-42644D01*
G01X-17721Y-42655D01*
G01X-17726Y-42662D01*
G01X-17734Y-42674D01*
G01X-17738Y-42680D01*
G01X-17746Y-42696D01*
G01X-17753Y-42707D01*
G01X-17754Y-42710D01*
G01Y-42713D01*
G01Y-42715D01*
G01X-17750Y-42719D01*
G01X-17746Y-42721D01*
G01X-17742Y-42722D01*
G01X-17737D01*
G01X-17734D01*
G01X-17731Y-42720D01*
G01X-17728Y-42717D01*
G01X-17702Y-42681D01*
G01X-17687Y-42661D01*
G01X-17675Y-42645D01*
G01X-17666Y-42634D01*
G01X-17659Y-42625D01*
G01X-17652Y-42616D01*
G01X-17645Y-42608D01*
G01X-17638Y-42598D01*
G01X-17632Y-42593D01*
G01X-17626Y-42588D01*
G01X-17623Y-42585D01*
G01X-17621Y-42582D01*
G01X-17618Y-42575D01*
G01X-17616Y-42572D01*
G01X-17613Y-42570D01*
G01X-17607Y-42565D01*
G01X-17601Y-42559D01*
G01X-17594Y-42549D01*
G01X-17584Y-42541D01*
G01X-17578Y-42536D01*
G01X-17570Y-42526D01*
G01X-17561Y-42519D01*
G01X-17555Y-42513D01*
G01X-17550Y-42506D01*
G01X-17547Y-42504D01*
G01X-17544Y-42502D01*
G01X-17538Y-42499D01*
G01X-17535Y-42497D01*
G01X-17532Y-42494D01*
G01X-17527Y-42488D01*
G01X-17521Y-42482D01*
G01X-17514Y-42477D01*
G01X-17494Y-42461D01*
G01X-17481Y-42452D01*
G01X-17439Y-42424D01*
G01X-17421Y-42412D01*
G01X-17413Y-42408D01*
G01X-17391Y-42396D01*
G01X-17382Y-42391D01*
G01X-17374Y-42386D01*
G01X-17357Y-42379D01*
G01X-17334Y-42369D01*
G01X-17322Y-42364D01*
G01X-17306Y-42358D01*
G01X-17294Y-42352D01*
G01X-17285Y-42349D01*
G01X-17271Y-42345D01*
G01X-17257Y-42339D01*
G01X-17251Y-42337D01*
G01X-17245Y-42335D01*
G01X-17232Y-42333D01*
G01X-17226Y-42331D01*
G01X-17220Y-42329D01*
G01X-17211Y-42325D01*
G01X-17206Y-42324D01*
G01X-17201Y-42322D01*
G01X-17192D01*
G01X-17188Y-42321D01*
G01X-17184Y-42320D01*
G01X-17179Y-42317D01*
G01X-17174Y-42315D01*
G01X-17169Y-42314D01*
G01X-17154Y-42313D01*
G01X-17148Y-42312D01*
G01X-17143Y-42311D01*
G01X-17137Y-42307D01*
G01X-17135D01*
G01X-17130Y-42305D01*
G01X-17125Y-42304D01*
G01X-17108Y-42303D01*
G01X-17103Y-42302D01*
G01X-17098Y-42301D01*
G01X-17090Y-42297D01*
G01X-17085Y-42296D01*
G01X-17079Y-42295D01*
G01X-17066D01*
G01X-17055Y-42294D01*
G01X-17049Y-42292D01*
G01X-17043Y-42290D01*
G01X-17028D01*
G01X-17018Y-42289D01*
G01X-17007Y-42286D01*
G01X-16994Y-42285D01*
G01X-16986Y-42284D01*
G01X-16979Y-42282D01*
G01X-16969Y-42281D01*
G01X-16944D01*
G01X-16921Y-42280D01*
G01X-16906Y-42279D01*
G01X-16898Y-42277D01*
G01X-16885Y-42275D01*
G01X-16878Y-42273D01*
G01X-16867Y-42272D01*
G01X-16832D01*
G01X-16790D01*
G01Y-42329D01*
G01X-16791Y-42360D01*
G01X-16792Y-42369D01*
G01X-16793Y-42373D01*
G01X-16794Y-42379D01*
G01X-16795Y-42398D01*
G01X-16797Y-42409D01*
G01X-16798Y-42413D01*
G01Y-42415D01*
G01Y-42420D01*
G01Y-42430D01*
G01X-16795Y-42442D01*
G01X-16794Y-42448D01*
G01X-16791Y-42457D01*
G01X-16788Y-42464D01*
G01X-16787Y-42467D01*
G01X-16785Y-42469D01*
G01X-16780Y-42473D01*
G01X-16775Y-42478D01*
G01X-16770Y-42485D01*
G01X-16767Y-42487D01*
G01X-16764Y-42488D01*
G01X-16760Y-42489D01*
G01X-16759Y-42488D01*
G01X-16758Y-42486D01*
G01X-16757Y-42483D01*
G01X-16756Y-42472D01*
G01X-16755Y-42455D01*
G01X-16753Y-42380D01*
G01Y-42272D01*
G01X-16568D01*
G01X-16443Y-42273D01*
G01X-16437Y-42274D01*
G01X-16430Y-42275D01*
G01X-16418Y-42277D01*
G01X-16412Y-42279D01*
G01X-16408Y-42280D01*
G01X-16400Y-42279D01*
G01X-16393D01*
G01X-16387Y-42277D01*
G01X-16383Y-42276D01*
G01X-16380Y-42274D01*
G01X-16379Y-42272D01*
G01X-16380Y-42269D01*
G01X-16381Y-42263D01*
G01X-16384Y-42255D01*
G01X-16389Y-42245D01*
G01X-16395Y-42235D01*
G01X-16399Y-42226D01*
G01X-16407Y-42208D01*
G01X-16412Y-42200D01*
G01X-16416Y-42192D01*
G01X-16421Y-42177D01*
G01X-16425Y-42170D01*
G01X-16428Y-42166D01*
G01X-16431Y-42161D01*
G01X-16434Y-42159D01*
G01X-16437Y-42158D01*
G01X-16439D01*
G01X-16442Y-42160D01*
G01X-16446Y-42163D01*
G01X-16454Y-42170D01*
G01X-16464Y-42177D01*
G01X-16469Y-42183D01*
G01X-16472Y-42186D01*
G01Y-42187D01*
G01X-16473D01*
G01X-16474D01*
G01X-16477Y-42188D01*
G01X-16488Y-42190D01*
G01X-16509Y-42191D01*
G01X-16603Y-42193D01*
G01X-16729Y-42192D01*
G01X-16740Y-42191D01*
G01X-16753Y-42188D01*
G01Y-42012D01*
G01X-16752Y-41964D01*
G01X-16751Y-41960D01*
G01X-16750Y-41955D01*
G01X-16748Y-41950D01*
G01X-16745Y-41947D01*
G01X-16739Y-41941D01*
G01X-16733Y-41935D01*
G01X-16728Y-41929D01*
G01X-16725Y-41926D01*
G01X-16722Y-41924D01*
G01X-16716Y-41922D01*
G01X-16713Y-41920D01*
G01X-16710Y-41917D01*
G01X-16708Y-41914D01*
G01X-16706Y-41911D01*
G01X-16705Y-41907D01*
G01X-16706Y-41904D01*
G01X-16708Y-41902D01*
G01X-16712Y-41897D01*
G01X-16719Y-41887D01*
G01X-16730Y-41872D01*
G01X-16753Y-41843D01*
G01X-16763Y-41831D01*
G01X-16765Y-41828D01*
G01X-16768Y-41825D01*
G01X-16771Y-41824D01*
G01X-16774D01*
G37*
G36*
G01X-16909Y-42438D02*
G01X-16909Y-42438D01*
G01X-16910Y-42439D01*
G01Y-42442D01*
G01X-16911Y-42450D01*
G01X-16913Y-42470D01*
G01X-16915Y-42625D01*
G01Y-42817D01*
G01X-16929Y-42809D01*
G01X-16933Y-42806D01*
G01X-16937Y-42803D01*
G01X-16957Y-42777D01*
G01X-16967Y-42763D01*
G01X-16976Y-42749D01*
G01X-16980Y-42746D01*
G01X-16983Y-42744D01*
G01X-16987Y-42743D01*
G01X-16989D01*
G01X-16990D01*
G01X-16995Y-42746D01*
G01X-16996Y-42748D01*
G01X-16997Y-42750D01*
G01X-17001Y-42756D01*
G01X-17005Y-42763D01*
G01X-17010Y-42768D01*
G01X-17017Y-42777D01*
G01X-17022Y-42784D01*
G01X-17032Y-42791D01*
G01X-17037Y-42797D01*
G01X-17045Y-42807D01*
G01X-17052Y-42812D01*
G01X-17061Y-42819D01*
G01X-17068Y-42826D01*
G01X-17078Y-42833D01*
G01X-17093Y-42844D01*
G01X-17107Y-42855D01*
G01X-17127Y-42868D01*
G01X-17144Y-42879D01*
G01X-17167Y-42895D01*
G01X-17171Y-42897D01*
G01X-17176Y-42902D01*
G01X-17185Y-42909D01*
G01X-17215Y-42928D01*
G01X-17225Y-42934D01*
G01X-17251Y-42955D01*
G01X-17267Y-42967D01*
G01X-17278Y-42976D01*
G01X-17287Y-42983D01*
G01X-17296Y-42990D01*
G01X-17303Y-42996D01*
G01X-17307Y-42998D01*
G01X-17313Y-43001D01*
G01X-17316Y-43003D01*
G01X-17319Y-43005D01*
G01X-17324Y-43011D01*
G01X-17327Y-43014D01*
G01X-17331Y-43017D01*
G01X-17340Y-43022D01*
G01X-17344Y-43025D01*
G01X-17347Y-43028D01*
G01X-17349Y-43031D01*
G01X-17354Y-43038D01*
G01X-17361Y-43043D01*
G01X-17370Y-43050D01*
G01X-17375Y-43055D01*
G01X-17384Y-43059D01*
G01X-17387Y-43060D01*
G01X-17390Y-43059D01*
G01X-17392Y-43057D01*
G01X-17393Y-43055D01*
G01X-17394Y-43047D01*
G01Y-43044D01*
G01X-17392Y-43039D01*
G01X-17391Y-43033D01*
G01Y-43016D01*
G01X-17389Y-43007D01*
G01X-17388Y-43002D01*
G01X-17387Y-42996D01*
G01X-17386Y-42975D01*
G01X-17384Y-42953D01*
G01X-17383Y-42943D01*
G01X-17381Y-42930D01*
G01X-17378Y-42921D01*
G01X-17377Y-42911D01*
G01Y-42890D01*
G01X-17375Y-42874D01*
G01X-17374Y-42867D01*
G01X-17371Y-42855D01*
G01X-17369Y-42847D01*
G01X-17368Y-42839D01*
G01Y-42820D01*
G01X-17367Y-42808D01*
G01X-17365Y-42796D01*
G01X-17364Y-42788D01*
G01X-17362Y-42777D01*
G01X-17360Y-42769D01*
G01X-17359Y-42759D01*
G01X-17358Y-42738D01*
G01Y-42725D01*
G01X-17356Y-42713D01*
G01X-17355Y-42705D01*
G01X-17353Y-42694D01*
G01X-17351Y-42685D01*
G01X-17350Y-42676D01*
G01X-17349Y-42662D01*
G01Y-42645D01*
G01X-17348Y-42638D01*
G01X-17346Y-42630D01*
G01X-17345Y-42623D01*
G01X-17344Y-42614D01*
G01X-17343Y-42612D01*
G01X-17341Y-42611D01*
G01X-17338D01*
G01X-17319Y-42618D01*
G01X-17308Y-42623D01*
G01X-17303Y-42626D01*
G01X-17294Y-42633D01*
G01X-17289Y-42636D01*
G01X-17283Y-42638D01*
G01X-17267Y-42646D01*
G01X-17257Y-42652D01*
G01X-17249Y-42656D01*
G01X-17235Y-42662D01*
G01X-17225Y-42668D01*
G01X-17216Y-42675D01*
G01X-17208Y-42679D01*
G01X-17197Y-42685D01*
G01X-17190Y-42690D01*
G01X-17185Y-42694D01*
G01X-17181Y-42696D01*
G01X-17166Y-42703D01*
G01X-17156Y-42710D01*
G01X-17144Y-42717D01*
G01X-17137Y-42720D01*
G01X-17132Y-42722D01*
G01X-17128D01*
G01X-17124D01*
G01X-17121Y-42720D01*
G01X-17119Y-42717D01*
G01X-17117Y-42714D01*
G01X-17116Y-42711D01*
G01X-17117Y-42708D01*
G01X-17119Y-42706D01*
G01X-17121Y-42703D01*
G01X-17128Y-42694D01*
G01X-17133Y-42688D01*
G01X-17142Y-42680D01*
G01X-17148Y-42675D01*
G01X-17153Y-42668D01*
G01X-17162Y-42657D01*
G01X-17169Y-42648D01*
G01X-17174Y-42642D01*
G01X-17184Y-42634D01*
G01X-17190Y-42628D01*
G01X-17197Y-42619D01*
G01X-17207Y-42611D01*
G01X-17213Y-42605D01*
G01X-17221Y-42595D01*
G01X-17227Y-42590D01*
G01X-17236Y-42584D01*
G01X-17243Y-42577D01*
G01X-17255Y-42567D01*
G01X-17260Y-42563D01*
G01X-17268Y-42557D01*
G01X-17273Y-42554D01*
G01X-17276Y-42552D01*
G01X-17278Y-42550D01*
G01X-17283Y-42543D01*
G01X-17288Y-42537D01*
G01X-17324Y-42512D01*
G01X-17340Y-42501D01*
G01X-17344Y-42499D01*
G01X-17351Y-42497D01*
G01X-17356Y-42496D01*
G01X-17367Y-42493D01*
G01X-17379Y-42488D01*
G01X-17390Y-42485D01*
G01X-17400Y-42484D01*
G01X-17407D01*
G01X-17417Y-42486D01*
G01X-17424Y-42488D01*
G01X-17442Y-42493D01*
G01X-17447Y-42495D01*
G01X-17452Y-42497D01*
G01X-17458Y-42500D01*
G01X-17463Y-42504D01*
G01X-17468Y-42507D01*
G01X-17471Y-42510D01*
G01X-17476Y-42518D01*
G01X-17482Y-42523D01*
G01X-17488Y-42528D01*
G01X-17491Y-42531D01*
G01X-17492Y-42535D01*
G01Y-42539D01*
G01Y-42544D01*
G01X-17491Y-42548D01*
G01X-17488Y-42551D01*
G01X-17485Y-42553D01*
G01X-17484Y-42555D01*
G01X-17474Y-42559D01*
G01X-17465Y-42563D01*
G01X-17436Y-42572D01*
G01X-17420Y-42575D01*
G01X-17415Y-42577D01*
G01X-17411Y-42579D01*
G01X-17404Y-42583D01*
G01X-17400Y-42585D01*
G01X-17395Y-42586D01*
G01X-17387D01*
G01X-17383Y-42587D01*
G01X-17381Y-42590D01*
G01X-17379Y-42593D01*
G01Y-42596D01*
G01X-17378Y-42599D01*
G01X-17379Y-42606D01*
G01X-17382Y-42615D01*
G01X-17384Y-42627D01*
G01X-17390Y-42665D01*
G01X-17392Y-42676D01*
G01X-17395Y-42690D01*
G01X-17399Y-42714D01*
G01X-17401Y-42727D01*
G01X-17405Y-42740D01*
G01X-17408Y-42758D01*
G01X-17411Y-42769D01*
G01X-17414Y-42781D01*
G01X-17417Y-42800D01*
G01X-17421Y-42814D01*
G01X-17425Y-42830D01*
G01X-17432Y-42857D01*
G01X-17437Y-42879D01*
G01X-17446Y-42911D01*
G01X-17450Y-42930D01*
G01X-17451Y-42936D01*
G01X-17453Y-42942D01*
G01X-17462Y-42967D01*
G01X-17470Y-42987D01*
G01X-17475Y-43003D01*
G01X-17483Y-43020D01*
G01X-17487Y-43033D01*
G01X-17488Y-43037D01*
G01X-17490Y-43040D01*
G01X-17492Y-43043D01*
G01X-17495Y-43045D01*
G01X-17497Y-43049D01*
G01X-17504Y-43064D01*
G01X-17509Y-43072D01*
G01X-17513Y-43078D01*
G01X-17515Y-43080D01*
G01X-17518Y-43087D01*
G01Y-43089D01*
G01Y-43090D01*
G01X-17517Y-43092D01*
G01X-17516Y-43094D01*
G01X-17514Y-43095D01*
G01X-17512Y-43097D01*
G01X-17506Y-43101D01*
G01X-17500Y-43104D01*
G01X-17481Y-43114D01*
G01X-17458Y-43128D01*
G01X-17449Y-43133D01*
G01X-17428Y-43144D01*
G01X-17417Y-43151D01*
G01X-17414Y-43152D01*
G01X-17411D01*
G01X-17407D01*
G01X-17404Y-43150D01*
G01X-17401Y-43147D01*
G01X-17399Y-43144D01*
G01X-17396Y-43135D01*
G01X-17394Y-43132D01*
G01X-17392Y-43129D01*
G01X-17385Y-43124D01*
G01X-17380Y-43118D01*
G01X-17372Y-43108D01*
G01X-17362Y-43100D01*
G01X-17356Y-43095D01*
G01X-17353Y-43090D01*
G01X-17348Y-43084D01*
G01X-17343Y-43080D01*
G01X-17338Y-43075D01*
G01X-17323Y-43065D01*
G01X-17305Y-43052D01*
G01X-17301Y-43050D01*
G01X-17297Y-43046D01*
G01X-17290Y-43041D01*
G01X-17282Y-43036D01*
G01X-17256Y-43020D01*
G01X-17244Y-43013D01*
G01X-17236Y-43008D01*
G01X-17232Y-43005D01*
G01X-17229Y-43003D01*
G01X-17223Y-42999D01*
G01X-17207Y-42992D01*
G01X-17203Y-42990D01*
G01X-17192Y-42983D01*
G01X-17184Y-42980D01*
G01X-17178Y-42977D01*
G01X-17164Y-42968D01*
G01X-17154Y-42962D01*
G01X-17143Y-42957D01*
G01X-17137Y-42954D01*
G01X-17132Y-42951D01*
G01X-17121Y-42944D01*
G01X-17114Y-42940D01*
G01X-17105Y-42938D01*
G01X-17097Y-42934D01*
G01X-17091Y-42931D01*
G01X-17083Y-42927D01*
G01X-17066Y-42919D01*
G01X-17049Y-42911D01*
G01X-17030Y-42903D01*
G01X-17007Y-42895D01*
G01X-16992Y-42889D01*
G01X-16979Y-42884D01*
G01X-16974Y-42882D01*
G01X-16968Y-42880D01*
G01X-16955Y-42878D01*
G01X-16949Y-42876D01*
G01X-16944Y-42874D01*
G01X-16937Y-42870D01*
G01X-16933Y-42869D01*
G01X-16929Y-42868D01*
G01X-16924D01*
G01X-16923D01*
G01X-16922Y-42869D01*
G01Y-42870D01*
G01X-16921Y-42872D01*
G01X-16919Y-42877D01*
G01X-16917Y-42890D01*
G01X-16916Y-42909D01*
G01X-16915Y-42965D01*
G01X-16916Y-43039D01*
G01X-16918Y-43059D01*
G01X-16919Y-43065D01*
G01X-16920Y-43068D01*
G01X-16922Y-43072D01*
G01X-16924Y-43077D01*
G01Y-43082D01*
G01X-16925Y-43096D01*
G01X-16926Y-43106D01*
G01X-16927Y-43111D01*
G01Y-43115D01*
G01X-16926Y-43120D01*
G01X-16924Y-43124D01*
G01X-16918Y-43130D01*
G01X-16912Y-43137D01*
G01X-16905Y-43142D01*
G01X-16899Y-43148D01*
G01X-16894Y-43155D01*
G01X-16892Y-43157D01*
G01X-16888Y-43159D01*
G01X-16885Y-43161D01*
G01X-16884Y-43160D01*
G01Y-43159D01*
G01Y-43158D01*
G01X-16882Y-43150D01*
G01X-16881Y-43130D01*
G01X-16878Y-42893D01*
G01Y-42687D01*
G01X-16876Y-42614D01*
G01Y-42611D01*
G01X-16874Y-42606D01*
G01X-16873Y-42601D01*
G01X-16870Y-42598D01*
G01X-16867Y-42595D01*
G01X-16861Y-42590D01*
G01X-16853Y-42580D01*
G01X-16847Y-42574D01*
G01X-16837Y-42567D01*
G01X-16830Y-42557D01*
G01X-16824Y-42551D01*
G01X-16817Y-42547D01*
G01X-16815Y-42544D01*
G01X-16814Y-42542D01*
G01Y-42537D01*
G01X-16815Y-42535D01*
G01X-16816Y-42533D01*
G01X-16820Y-42528D01*
G01X-16827Y-42519D01*
G01X-16833Y-42512D01*
G01X-16842Y-42505D01*
G01X-16848Y-42499D01*
G01X-16856Y-42489D01*
G01X-16866Y-42481D01*
G01X-16871Y-42476D01*
G01X-16879Y-42466D01*
G01X-16888Y-42459D01*
G01X-16894Y-42453D01*
G01X-16902Y-42443D01*
G01X-16908Y-42438D01*
G37*
G36*
G01X-16609Y-42521D02*
G01X-16609Y-42522D01*
G01X-16610Y-42523D01*
G01Y-42524D01*
G01X-16611Y-42532D01*
G01X-16613Y-42553D01*
G01X-16615Y-42743D01*
G01X-16616Y-42959D01*
G01X-16617Y-42974D01*
G01Y-42976D01*
G01X-16618Y-42980D01*
G01X-16619Y-42988D01*
G01X-16620Y-43013D01*
G01X-16621Y-43018D01*
G01X-16622Y-43023D01*
G01X-16624Y-43033D01*
G01X-16626Y-43050D01*
G01X-16627Y-43059D01*
G01X-16626Y-43067D01*
G01X-16625Y-43072D01*
G01X-16622Y-43075D01*
G01X-16619Y-43078D01*
G01X-16613Y-43083D01*
G01X-16605Y-43093D01*
G01X-16595Y-43101D01*
G01X-16590Y-43106D01*
G01X-16585Y-43112D01*
G01X-16583Y-43114D01*
G01X-16581D01*
G01X-16578Y-43112D01*
G01Y-43111D01*
G01Y-43110D01*
G01X-16577Y-43105D01*
G01X-16576Y-43091D01*
G01X-16573Y-42898D01*
G01X-16571Y-42739D01*
G01X-16569Y-42698D01*
G01X-16568Y-42687D01*
G01X-16567Y-42684D01*
G01X-16566Y-42683D01*
G01X-16560Y-42678D01*
G01X-16553Y-42668D01*
G01X-16547Y-42662D01*
G01X-16537Y-42654D01*
G01X-16529Y-42645D01*
G01X-16524Y-42639D01*
G01X-16517Y-42634D01*
G01X-16515Y-42631D01*
G01X-16513Y-42628D01*
G01X-16511Y-42625D01*
G01Y-42623D01*
G01Y-42622D01*
G01Y-42620D01*
G01X-16512Y-42618D01*
G01X-16513Y-42616D01*
G01X-16516Y-42613D01*
G01X-16522Y-42607D01*
G01X-16529Y-42601D01*
G01X-16534Y-42594D01*
G01X-16540Y-42588D01*
G01X-16550Y-42581D01*
G01X-16555Y-42574D01*
G01X-16560Y-42568D01*
G01X-16566Y-42563D01*
G01X-16569Y-42561D01*
G01X-16573Y-42556D01*
G01X-16579Y-42549D01*
G01X-16588Y-42541D01*
G01X-16594Y-42536D01*
G01X-16602Y-42526D01*
G01X-16608Y-42521D01*
G37*
G36*
G01X-17652Y-43304D02*
G01X-17652Y-43305D01*
G01X-17653Y-43307D01*
G01X-17654Y-43314D01*
G01X-17656Y-43333D01*
G01X-17659Y-43590D01*
G01X-17662Y-43878D01*
G01X-17663Y-43890D01*
G01Y-43893D01*
G01X-17666Y-43899D01*
G01X-17669Y-43903D01*
G01X-17672Y-43907D01*
G01X-17675Y-43909D01*
G01X-17678Y-43910D01*
G01X-17681Y-43912D01*
G01X-17689Y-43921D01*
G01X-17695Y-43927D01*
G01X-17701Y-43932D01*
G01X-17704Y-43935D01*
G01X-17706Y-43939D01*
G01X-17707Y-43944D01*
G01X-17708Y-43948D01*
G01Y-43951D01*
G01X-17707Y-43953D01*
G01X-17705Y-43955D01*
G01X-17702Y-43956D01*
G01X-17700Y-43958D01*
G01X-17693Y-43964D01*
G01X-17653Y-44004D01*
G01X-17646Y-44010D01*
G01X-17642Y-44013D01*
G01X-17639Y-44015D01*
G01X-17636D01*
G01X-17634D01*
G01X-17631Y-44013D01*
G01X-17617Y-43998D01*
G01X-17612Y-43991D01*
G01X-17610Y-43990D01*
G01X-17606Y-43989D01*
G01X-17595Y-43987D01*
G01X-17581Y-43986D01*
G01X-17550Y-43985D01*
G01X-17498Y-43986D01*
G01X-17488Y-43987D01*
G01X-17485D01*
G01X-17482Y-43988D01*
G01X-16975Y-43990D01*
G01X-16470Y-43988D01*
G01X-16467Y-43987D01*
G01X-16466D01*
G01Y-43986D01*
G01X-16465Y-43984D01*
G01Y-43983D01*
G01X-16466Y-43981D01*
G01X-16468Y-43976D01*
G01X-16476Y-43962D01*
G01X-16487Y-43948D01*
G01X-16491Y-43941D01*
G01X-16497Y-43930D01*
G01X-16502Y-43923D01*
G01X-16504Y-43920D01*
G01X-16505Y-43918D01*
G01Y-43913D01*
G01X-16506Y-43900D01*
G01X-16509Y-43703D01*
G01X-16508Y-43516D01*
G01X-16507Y-43482D01*
G01X-16506Y-43479D01*
G01X-16505Y-43474D01*
G01X-16503Y-43470D01*
G01X-16500Y-43466D01*
G01X-16494Y-43461D01*
G01X-16488Y-43455D01*
G01X-16481Y-43445D01*
G01X-16471Y-43438D01*
G01X-16465Y-43432D01*
G01X-16457Y-43422D01*
G01X-16451Y-43417D01*
G01X-16449Y-43414D01*
G01X-16447Y-43411D01*
G01Y-43408D01*
G01X-16449Y-43403D01*
G01X-16451Y-43399D01*
G01X-16454Y-43395D01*
G01X-16457Y-43392D01*
G01X-16464Y-43387D01*
G01X-16469Y-43381D01*
G01X-16473Y-43376D01*
G01X-16476Y-43373D01*
G01X-16483Y-43367D01*
G01X-16493Y-43360D01*
G01X-16498Y-43357D01*
G01X-16501Y-43353D01*
G01X-16506Y-43347D01*
G01X-16509Y-43344D01*
G01X-16513Y-43342D01*
G01X-16519Y-43340D01*
G01X-16522Y-43337D01*
G01X-16525Y-43335D01*
G01X-16527Y-43331D01*
G01X-16532Y-43325D01*
G01X-16539Y-43320D01*
G01Y-43321D01*
G01X-16540D01*
G01Y-43323D01*
G01X-16541Y-43330D01*
G01X-16543Y-43350D01*
G01X-16546Y-43602D01*
G01Y-43636D01*
G01X-16549Y-43884D01*
G01X-16550Y-43895D01*
G01Y-43897D01*
G01X-16553Y-43901D01*
G01X-16555Y-43903D01*
G01X-16557Y-43904D01*
G01X-16560D01*
G01X-16563D01*
G01X-17077Y-43902D01*
G01X-17582Y-43903D01*
G01X-17606Y-43904D01*
G01X-17622Y-43906D01*
G01Y-43696D01*
G01X-17620Y-43501D01*
G01Y-43477D01*
G01X-17619Y-43475D01*
G01X-17618Y-43470D01*
G01X-17616Y-43465D01*
G01X-17613Y-43461D01*
G01X-17610Y-43458D01*
G01X-17604Y-43453D01*
G01X-17596Y-43444D01*
G01X-17591Y-43438D01*
G01X-17581Y-43430D01*
G01X-17573Y-43421D01*
G01X-17567Y-43415D01*
G01X-17561Y-43410D01*
G01X-17559Y-43407D01*
G01X-17556Y-43404D01*
G01X-17555Y-43401D01*
G01X-17553Y-43395D01*
G01X-17555Y-43391D01*
G01X-17556Y-43390D01*
G01X-17563Y-43381D01*
G01X-17568Y-43375D01*
G01X-17573Y-43370D01*
G01X-17583Y-43362D01*
G01X-17600Y-43350D01*
G01X-17605Y-43344D01*
G01X-17609Y-43339D01*
G01X-17612Y-43335D01*
G01X-17619Y-43330D01*
G01X-17630Y-43323D01*
G01X-17634Y-43320D01*
G01X-17637Y-43317D01*
G01X-17643Y-43310D01*
G01X-17645Y-43308D01*
G01X-17648Y-43305D01*
G01X-17652Y-43304D01*
G37*
G36*
G01X-16759Y-43380D02*
G01X-16761Y-43380D01*
G01X-16763Y-43381D01*
G01X-16765Y-43383D01*
G01X-16772Y-43389D01*
G01X-16776Y-43394D01*
G01X-16780Y-43400D01*
G01X-16785Y-43408D01*
G01X-16789Y-43413D01*
G01X-16794Y-43418D01*
G01X-16799Y-43422D01*
G01X-16810Y-43429D01*
G01X-16823Y-43436D01*
G01X-16883Y-43465D01*
G01X-16905Y-43475D01*
G01X-16913Y-43479D01*
G01X-16928Y-43487D01*
G01X-16937Y-43492D01*
G01X-16956Y-43500D01*
G01X-16966Y-43506D01*
G01X-16974Y-43511D01*
G01X-16993Y-43518D01*
G01X-17002Y-43524D01*
G01X-17011Y-43529D01*
G01X-17030Y-43537D01*
G01X-17041Y-43544D01*
G01X-17049Y-43547D01*
G01X-17056Y-43549D01*
G01X-17061Y-43550D01*
G01X-17066D01*
G01X-17074Y-43549D01*
G01X-17080Y-43547D01*
G01X-17085Y-43545D01*
G01X-17088Y-43543D01*
G01X-17091Y-43539D01*
G01X-17093Y-43536D01*
G01X-17096Y-43533D01*
G01X-17100Y-43530D01*
G01X-17109Y-43525D01*
G01X-17112Y-43522D01*
G01X-17116Y-43519D01*
G01X-17121Y-43513D01*
G01X-17127Y-43507D01*
G01X-17134Y-43502D01*
G01X-17149Y-43491D01*
G01X-17171Y-43473D01*
G01X-17186Y-43462D01*
G01X-17205Y-43449D01*
G01X-17220Y-43439D01*
G01X-17227Y-43435D01*
G01X-17238Y-43428D01*
G01X-17265Y-43414D01*
G01X-17277Y-43409D01*
G01X-17284Y-43405D01*
G01X-17291Y-43401D01*
G01X-17294Y-43399D01*
G01X-17298D01*
G01X-17308Y-43398D01*
G01X-17316Y-43397D01*
G01X-17323Y-43395D01*
G01X-17326D01*
G01X-17330D01*
G01X-17333Y-43396D01*
G01X-17337Y-43397D01*
G01X-17346Y-43398D01*
G01X-17357Y-43399D01*
G01X-17363D01*
G01X-17369Y-43401D01*
G01X-17375Y-43403D01*
G01X-17401Y-43413D01*
G01X-17409Y-43417D01*
G01X-17414Y-43419D01*
G01X-17417Y-43422D01*
G01X-17423Y-43428D01*
G01X-17425Y-43432D01*
G01Y-43435D01*
G01Y-43438D01*
G01X-17423Y-43440D01*
G01X-17421Y-43443D01*
G01X-17414Y-43452D01*
G01X-17411Y-43455D01*
G01X-17408Y-43458D01*
G01X-17403Y-43461D01*
G01X-17387Y-43468D01*
G01X-17378Y-43474D01*
G01X-17374Y-43476D01*
G01X-17366Y-43478D01*
G01X-17355Y-43481D01*
G01X-17349Y-43483D01*
G01X-17344Y-43485D01*
G01X-17332Y-43492D01*
G01X-17323Y-43496D01*
G01X-17307Y-43504D01*
G01X-17289Y-43512D01*
G01X-17263Y-43523D01*
G01X-17253Y-43529D01*
G01X-17244Y-43534D01*
G01X-17231Y-43539D01*
G01X-17223Y-43544D01*
G01X-17219Y-43547D01*
G01X-17216Y-43550D01*
G01X-17209Y-43553D01*
G01X-17193Y-43560D01*
G01X-17182Y-43567D01*
G01X-17168Y-43573D01*
G01X-17160Y-43578D01*
G01X-17153Y-43583D01*
G01X-17152Y-43584D01*
G01X-17150Y-43588D01*
G01X-17149Y-43590D01*
G01Y-43592D01*
G01X-17150Y-43595D01*
G01X-17151Y-43597D01*
G01X-17154Y-43602D01*
G01X-17157Y-43606D01*
G01X-17162Y-43610D01*
G01X-17178Y-43620D01*
G01X-17195Y-43632D01*
G01X-17219Y-43648D01*
G01X-17229Y-43655D01*
G01X-17249Y-43669D01*
G01X-17269Y-43684D01*
G01X-17282Y-43694D01*
G01X-17291Y-43701D01*
G01X-17299Y-43707D01*
G01X-17302Y-43709D01*
G01X-17309Y-43712D01*
G01X-17312Y-43714D01*
G01X-17315Y-43716D01*
G01X-17318Y-43721D01*
G01X-17321Y-43725D01*
G01X-17328Y-43730D01*
G01X-17339Y-43737D01*
G01X-17343Y-43740D01*
G01X-17347Y-43744D01*
G01X-17349Y-43747D01*
G01X-17352Y-43750D01*
G01X-17355Y-43754D01*
G01X-17359Y-43756D01*
G01X-17368Y-43761D01*
G01X-17371Y-43764D01*
G01X-17375Y-43767D01*
G01X-17378Y-43772D01*
G01X-17381Y-43775D01*
G01X-17388Y-43780D01*
G01X-17398Y-43788D01*
G01X-17403Y-43791D01*
G01X-17407Y-43795D01*
G01X-17409Y-43798D01*
G01X-17415Y-43804D01*
G01X-17424Y-43812D01*
G01X-17430Y-43818D01*
G01X-17435Y-43824D01*
G01X-17438Y-43827D01*
G01X-17441Y-43829D01*
G01X-17447Y-43832D01*
G01X-17450Y-43834D01*
G01X-17453Y-43836D01*
G01X-17458Y-43843D01*
G01X-17464Y-43849D01*
G01X-17470Y-43854D01*
G01X-17473Y-43856D01*
G01X-17475Y-43859D01*
G01X-17476Y-43863D01*
G01X-17477Y-43866D01*
G01Y-43869D01*
G01X-17476Y-43872D01*
G01X-17474Y-43874D01*
G01X-17472Y-43876D01*
G01X-17470Y-43877D01*
G01X-17467Y-43878D01*
G01X-17465Y-43879D01*
G01X-17462Y-43878D01*
G01X-17459Y-43877D01*
G01X-17456Y-43876D01*
G01X-17449Y-43871D01*
G01X-17429Y-43856D01*
G01X-17411Y-43842D01*
G01X-17403Y-43835D01*
G01X-17395Y-43829D01*
G01X-17392Y-43827D01*
G01X-17385Y-43824D01*
G01X-17382Y-43822D01*
G01X-17380Y-43820D01*
G01X-17377Y-43817D01*
G01X-17375Y-43813D01*
G01X-17371Y-43810D01*
G01X-17368Y-43807D01*
G01X-17359Y-43803D01*
G01X-17352Y-43798D01*
G01X-17347Y-43793D01*
G01X-17338Y-43787D01*
G01X-17310Y-43768D01*
G01X-17287Y-43751D01*
G01X-17273Y-43742D01*
G01X-17247Y-43727D01*
G01X-17230Y-43717D01*
G01X-17184Y-43689D01*
G01X-17175Y-43683D01*
G01X-17157Y-43676D01*
G01X-17147Y-43670D01*
G01X-17138Y-43665D01*
G01X-17120Y-43657D01*
G01X-17109Y-43651D01*
G01X-17105Y-43649D01*
G01X-17098Y-43647D01*
G01X-17090Y-43645D01*
G01X-17085D01*
G01X-17079D01*
G01X-17074Y-43647D01*
G01X-17064Y-43652D01*
G01X-17048Y-43662D01*
G01X-17035Y-43669D01*
G01X-17028Y-43673D01*
G01X-17017Y-43681D01*
G01X-17010Y-43685D01*
G01X-16999Y-43692D01*
G01X-16992Y-43696D01*
G01X-16988Y-43700D01*
G01X-16980Y-43705D01*
G01X-16954Y-43722D01*
G01X-16854Y-43794D01*
G01X-16834Y-43809D01*
G01X-16820Y-43819D01*
G01X-16811Y-43826D01*
G01X-16807Y-43830D01*
G01X-16804Y-43832D01*
G01X-16801Y-43834D01*
G01X-16794Y-43836D01*
G01X-16791Y-43838D01*
G01X-16788Y-43841D01*
G01X-16783Y-43847D01*
G01X-16780Y-43849D01*
G01X-16776Y-43850D01*
G01X-16772Y-43849D01*
G01X-16766Y-43846D01*
G01X-16765Y-43842D01*
G01X-16768Y-43837D01*
G01X-16772Y-43830D01*
G01X-16777Y-43824D01*
G01X-16787Y-43817D01*
G01X-16792Y-43810D01*
G01X-16800Y-43801D01*
G01X-16810Y-43793D01*
G01X-16816Y-43788D01*
G01X-16823Y-43778D01*
G01X-16833Y-43770D01*
G01X-16839Y-43764D01*
G01X-16846Y-43755D01*
G01X-16856Y-43747D01*
G01X-16862Y-43741D01*
G01X-16870Y-43732D01*
G01X-16879Y-43724D01*
G01X-16885Y-43718D01*
G01X-16893Y-43708D01*
G01X-16899Y-43703D01*
G01X-16908Y-43696D01*
G01X-16915Y-43690D01*
G01X-16927Y-43680D01*
G01X-16932Y-43676D01*
G01X-16945Y-43666D01*
G01X-16951Y-43661D01*
G01X-16959Y-43651D01*
G01X-16965Y-43646D01*
G01X-16972Y-43641D01*
G01X-16982Y-43632D01*
G01X-16992Y-43625D01*
G01X-16998Y-43619D01*
G01X-17003Y-43613D01*
G01X-17005Y-43610D01*
G01Y-43607D01*
G01Y-43604D01*
G01X-17003Y-43602D01*
G01X-17001Y-43600D01*
G01X-16992Y-43592D01*
G01X-16984Y-43588D01*
G01X-16970Y-43584D01*
G01X-16965Y-43582D01*
G01X-16960Y-43579D01*
G01X-16949Y-43573D01*
G01X-16943Y-43571D01*
G01X-16938Y-43569D01*
G01X-16920Y-43563D01*
G01X-16905Y-43555D01*
G01X-16892Y-43551D01*
G01X-16877Y-43545D01*
G01X-16865Y-43540D01*
G01X-16855Y-43536D01*
G01X-16841Y-43532D01*
G01X-16823Y-43524D01*
G01X-16808Y-43518D01*
G01X-16798Y-43516D01*
G01X-16786Y-43513D01*
G01X-16772Y-43507D01*
G01X-16762Y-43504D01*
G01X-16751Y-43500D01*
G01X-16719Y-43491D01*
G01X-16704Y-43486D01*
G01X-16691Y-43482D01*
G01X-16686Y-43479D01*
G01X-16684Y-43477D01*
G01X-16683Y-43475D01*
G01X-16684Y-43473D01*
G01X-16686Y-43470D01*
G01X-16688Y-43467D01*
G01X-16690Y-43464D01*
G01X-16693Y-43457D01*
G01X-16695Y-43454D01*
G01X-16697Y-43452D01*
G01X-16704Y-43447D01*
G01X-16710Y-43441D01*
G01X-16723Y-43422D01*
G01X-16744Y-43395D01*
G01X-16755Y-43381D01*
G01X-16756Y-43380D01*
G37*
G36*
G01X-17110Y-44031D02*
G01X-17112Y-44033D01*
G01X-17115Y-44035D01*
G01X-17118Y-44042D01*
G01X-17120Y-44045D01*
G01X-17122Y-44047D01*
G01X-17129Y-44052D01*
G01X-17134Y-44058D01*
G01X-17139Y-44064D01*
G01X-17142Y-44067D01*
G01X-17147Y-44069D01*
G01X-17151Y-44071D01*
G01X-17182Y-44077D01*
G01X-17194Y-44081D01*
G01X-17203Y-44082D01*
G01X-17228D01*
G01X-17239Y-44083D01*
G01X-17246Y-44084D01*
G01X-17268Y-44090D01*
G01X-17276Y-44091D01*
G01X-17287D01*
G01X-17302Y-44092D01*
G01X-17309D01*
G01X-17315Y-44093D01*
G01X-17325Y-44096D01*
G01X-17338Y-44099D01*
G01X-17347Y-44100D01*
G01X-17371D01*
G01X-17379Y-44102D01*
G01X-17382D01*
G01X-17388Y-44104D01*
G01X-17393Y-44106D01*
G01X-17398Y-44108D01*
G01X-17403Y-44109D01*
G01X-17407Y-44110D01*
G01X-17420D01*
G01X-17435Y-44112D01*
G01X-17462Y-44117D01*
G01X-17485Y-44121D01*
G01X-17496Y-44123D01*
G01X-17512Y-44128D01*
G01X-17533Y-44133D01*
G01X-17549Y-44138D01*
G01X-17565Y-44141D01*
G01X-17575Y-44145D01*
G01X-17589Y-44151D01*
G01X-17615Y-44160D01*
G01X-17623Y-44164D01*
G01X-17644Y-44174D01*
G01X-17654Y-44177D01*
G01X-17660Y-44181D01*
G01X-17665Y-44184D01*
G01X-17676Y-44192D01*
G01X-17692Y-44205D01*
G01X-17695Y-44208D01*
G01X-17698Y-44212D01*
G01X-17703Y-44220D01*
G01X-17705Y-44224D01*
G01X-17708Y-44227D01*
G01X-17712Y-44230D01*
G01X-17715Y-44233D01*
G01X-17718Y-44236D01*
G01X-17721Y-44241D01*
G01X-17728Y-44256D01*
G01X-17734Y-44266D01*
G01X-17736Y-44271D01*
G01X-17738Y-44279D01*
G01X-17741Y-44292D01*
G01X-17743Y-44303D01*
G01X-17746Y-44313D01*
G01X-17748Y-44319D01*
G01X-17747Y-44324D01*
G01X-17745Y-44327D01*
G01X-17742Y-44329D01*
G01X-17737Y-44330D01*
G01X-17719Y-44336D01*
G01X-17712Y-44338D01*
G01X-17705Y-44341D01*
G01X-17693Y-44347D01*
G01X-17688Y-44351D01*
G01X-17683Y-44354D01*
G01X-17680Y-44358D01*
G01X-17677Y-44362D01*
G01X-17672Y-44368D01*
G01X-17662Y-44375D01*
G01X-17657Y-44381D01*
G01X-17639Y-44405D01*
G01X-17635Y-44412D01*
G01X-17627Y-44428D01*
G01X-17619Y-44439D01*
G01X-17616Y-44447D01*
G01X-17613Y-44456D01*
G01X-17611Y-44459D01*
G01X-17609Y-44461D01*
G01X-17606Y-44463D01*
G01X-17604D01*
G01X-17602Y-44464D01*
G01X-17598D01*
G01X-17594Y-44463D01*
G01X-17589Y-44461D01*
G01X-17585Y-44458D01*
G01X-17584Y-44455D01*
G01X-17583Y-44451D01*
G01X-17585Y-44447D01*
G01X-17589Y-44438D01*
G01X-17594Y-44423D01*
G01X-17599Y-44402D01*
G01X-17603Y-44385D01*
G01X-17608Y-44365D01*
G01X-17612Y-44348D01*
G01X-17616Y-44330D01*
G01X-17618Y-44319D01*
G01X-17620Y-44313D01*
G01Y-44308D01*
G01Y-44298D01*
G01X-17619Y-44290D01*
G01X-17618Y-44281D01*
G01X-17616Y-44273D01*
G01X-17613Y-44266D01*
G01X-17610Y-44260D01*
G01X-17606Y-44254D01*
G01X-17602Y-44249D01*
G01X-17597Y-44245D01*
G01X-17572Y-44229D01*
G01X-17568Y-44226D01*
G01X-17560Y-44224D01*
G01X-17549Y-44221D01*
G01X-17544Y-44220D01*
G01X-17540Y-44218D01*
G01X-17533Y-44214D01*
G01X-17529Y-44212D01*
G01X-17524D01*
G01X-17518Y-44211D01*
G01X-17513D01*
G01X-17509Y-44210D01*
G01X-17504Y-44208D01*
G01X-17497Y-44205D01*
G01X-17478Y-44202D01*
G01X-17473D01*
G01X-17462Y-44199D01*
G01X-17455Y-44195D01*
G01X-17451Y-44194D01*
G01X-17446Y-44193D01*
G01X-17442D01*
G01X-17429Y-44192D01*
G01X-17421Y-44190D01*
G01X-17411Y-44188D01*
G01X-17398Y-44185D01*
G01X-17389Y-44184D01*
G01X-17369Y-44183D01*
G01X-17361Y-44182D01*
G01X-17354Y-44181D01*
G01X-17347Y-44178D01*
G01X-17342Y-44176D01*
G01X-17331Y-44175D01*
G01X-17310Y-44174D01*
G01X-17305Y-44173D01*
G01X-17293Y-44170D01*
G01X-17277D01*
G01X-17267Y-44169D01*
G01X-17256Y-44166D01*
G01X-17243Y-44165D01*
G01X-17235Y-44164D01*
G01X-17228Y-44162D01*
G01X-17217Y-44160D01*
G01X-17197D01*
G01X-17176Y-44158D01*
G01X-17162Y-44157D01*
G01X-17154D01*
G01X-17144Y-44158D01*
G01X-17139Y-44159D01*
G01X-17136Y-44161D01*
G01X-17134Y-44164D01*
G01Y-44168D01*
G01X-17135Y-44169D01*
G01Y-44177D01*
G01X-17137Y-44320D01*
G01Y-44384D01*
G01X-17135Y-44468D01*
G01X-17134Y-44476D01*
G01X-17133Y-44479D01*
G01X-17134Y-44489D01*
G01X-17136Y-44493D01*
G01X-17137Y-44496D01*
G01X-17139Y-44498D01*
G01X-17144Y-44501D01*
G01X-17149Y-44506D01*
G01X-17153Y-44512D01*
G01X-17159Y-44518D01*
G01X-17165Y-44523D01*
G01X-17168Y-44526D01*
G01X-17170Y-44529D01*
G01X-17171Y-44532D01*
G01X-17172Y-44536D01*
G01Y-44539D01*
G01X-17171Y-44542D01*
G01X-17169Y-44546D01*
G01X-17164Y-44553D01*
G01X-17154Y-44560D01*
G01X-17149Y-44566D01*
G01X-17141Y-44575D01*
G01X-17131Y-44583D01*
G01X-17126Y-44589D01*
G01X-17122Y-44594D01*
G01X-17120Y-44595D01*
G01X-17118Y-44596D01*
G01X-17116D01*
G01X-17111D01*
G01X-17108D01*
G01X-17101Y-44593D01*
G01X-17095Y-44590D01*
G01X-17090Y-44586D01*
G01X-17086Y-44581D01*
G01X-17082Y-44575D01*
G01X-17079Y-44573D01*
G01X-17077Y-44571D01*
G01X-17071Y-44568D01*
G01X-17067Y-44566D01*
G01X-17058Y-44565D01*
G01X-17009Y-44559D01*
G01X-16996Y-44557D01*
G01X-16991Y-44555D01*
G01X-16984Y-44554D01*
G01X-16976Y-44553D01*
G01X-16956D01*
G01X-16935Y-44552D01*
G01X-16922Y-44551D01*
G01X-16914Y-44550D01*
G01X-16903Y-44547D01*
G01X-16897Y-44546D01*
G01X-16884Y-44544D01*
G01X-16825Y-44543D01*
G01X-16813Y-44542D01*
G01X-16809Y-44541D01*
G01X-16803Y-44540D01*
G01X-16784Y-44539D01*
G01X-16774Y-44538D01*
G01X-16768Y-44536D01*
G01X-16757Y-44535D01*
G01X-16687Y-44534D01*
G01X-16611D01*
G01X-16613Y-44525D01*
G01X-16616Y-44516D01*
G01X-16620Y-44507D01*
G01X-16631Y-44484D01*
G01X-16643Y-44457D01*
G01X-16649Y-44447D01*
G01X-16653Y-44438D01*
G01X-16659Y-44422D01*
G01X-16662Y-44418D01*
G01X-16665Y-44415D01*
G01X-16668Y-44414D01*
G01X-16672Y-44415D01*
G01X-16675Y-44416D01*
G01X-16677Y-44419D01*
G01X-16685Y-44428D01*
G01X-16694Y-44435D01*
G01X-16700Y-44441D01*
G01X-16704Y-44446D01*
G01X-16706Y-44447D01*
G01X-16708Y-44448D01*
G01X-16710Y-44449D01*
G01X-16716Y-44451D01*
G01X-16731Y-44452D01*
G01X-16756Y-44454D01*
G01X-16763Y-44455D01*
G01X-16775Y-44457D01*
G01X-16783Y-44459D01*
G01X-16791Y-44460D01*
G01X-16816Y-44461D01*
G01X-16821Y-44462D01*
G01X-16827Y-44464D01*
G01X-16833Y-44465D01*
G01X-16849D01*
G01X-16858Y-44467D01*
G01X-16870Y-44469D01*
G01X-16883Y-44470D01*
G01X-16891Y-44471D01*
G01X-16898Y-44473D01*
G01X-16909Y-44474D01*
G01X-16930Y-44475D01*
G01X-16945Y-44477D01*
G01X-16952Y-44478D01*
G01X-16964Y-44480D01*
G01X-16972Y-44483D01*
G01X-16982Y-44484D01*
G01X-17003Y-44485D01*
G01X-17019Y-44486D01*
G01X-17027Y-44487D01*
G01X-17038Y-44490D01*
G01X-17043Y-44491D01*
G01X-17049Y-44492D01*
G01X-17057Y-44493D01*
G01X-17072D01*
G01X-17082D01*
G01X-17089Y-44491D01*
G01X-17093Y-44489D01*
G01Y-44486D01*
G01Y-44484D01*
G01X-17092Y-44474D01*
G01X-17091Y-44407D01*
G01X-17092Y-44329D01*
G01X-17093Y-44315D01*
G01X-17095Y-44295D01*
G01X-17078Y-44294D01*
G01X-17069Y-44293D01*
G01X-17061Y-44291D01*
G01X-17051Y-44290D01*
G01X-17038D01*
G01X-17020Y-44289D01*
G01X-17014Y-44288D01*
G01X-17008Y-44287D01*
G01X-17002Y-44286D01*
G01X-16986Y-44285D01*
G01X-16977Y-44284D01*
G01X-16969Y-44282D01*
G01X-16960Y-44281D01*
G01X-16929Y-44280D01*
G01X-16908Y-44278D01*
G01X-16899Y-44277D01*
G01X-16885Y-44275D01*
G01X-16880Y-44274D01*
G01X-16877Y-44273D01*
G01X-16866Y-44272D01*
G01X-16846Y-44271D01*
G01X-16839D01*
G01X-16816Y-44270D01*
G01X-16802Y-44269D01*
G01X-16794Y-44268D01*
G01X-16783Y-44266D01*
G01X-16776Y-44264D01*
G01X-16766Y-44263D01*
G01X-16741Y-44262D01*
G01X-16718Y-44261D01*
G01X-16705Y-44260D01*
G01X-16697Y-44258D01*
G01X-16686Y-44256D01*
G01X-16681Y-44255D01*
G01X-16675Y-44254D01*
G01X-16667Y-44253D01*
G01X-16646D01*
G01X-16626Y-44252D01*
G01X-16613Y-44250D01*
G01X-16605Y-44249D01*
G01X-16594Y-44247D01*
G01X-16586Y-44245D01*
G01X-16575Y-44244D01*
G01X-16555D01*
G01X-16527D01*
G01Y-44392D01*
G01X-16528Y-44483D01*
G01X-16530Y-44536D01*
G01X-16531Y-44549D01*
G01X-16535Y-44563D01*
G01X-16537Y-44571D01*
G01X-16539Y-44583D01*
G01Y-44592D01*
G01Y-44600D01*
G01X-16537Y-44605D01*
G01X-16534Y-44608D01*
G01X-16531Y-44611D01*
G01X-16525Y-44617D01*
G01X-16518Y-44626D01*
G01X-16508Y-44634D01*
G01X-16502Y-44640D01*
G01X-16497Y-44646D01*
G01X-16495Y-44648D01*
G01X-16493Y-44650D01*
G01X-16490D01*
G01Y-44648D01*
G01X-16489Y-44644D01*
G01X-16488Y-44630D01*
G01X-16486Y-44447D01*
G01X-16485Y-44322D01*
G01X-16482Y-44254D01*
G01X-16481Y-44243D01*
G01X-16479Y-44239D01*
G01X-16475Y-44237D01*
G01X-16455Y-44221D01*
G01X-16442Y-44211D01*
G01X-16439Y-44209D01*
G01X-16438Y-44206D01*
G01Y-44203D01*
G01X-16439Y-44200D01*
G01X-16452Y-44182D01*
G01X-16467Y-44162D01*
G01X-16476Y-44149D01*
G01X-16484Y-44140D01*
G01X-16488Y-44135D01*
G01X-16490Y-44132D01*
G01X-16494Y-44123D01*
G01X-16497Y-44121D01*
G01X-16500Y-44119D01*
G01X-16504D01*
G01X-16508Y-44120D01*
G01X-16511D01*
G01X-16513Y-44122D01*
G01X-16517Y-44125D01*
G01X-16519Y-44128D01*
G01X-16527Y-44142D01*
G01X-16534Y-44151D01*
G01X-16537Y-44155D01*
G01X-16541Y-44159D01*
G01X-16545Y-44161D01*
G01X-16548Y-44163D01*
G01X-16550D01*
G01X-16556Y-44165D01*
G01X-16572D01*
G01X-16581Y-44167D01*
G01X-16589Y-44169D01*
G01X-16598Y-44170D01*
G01X-16626D01*
G01X-16631Y-44171D01*
G01X-16636Y-44172D01*
G01X-16640Y-44173D01*
G01X-16648Y-44174D01*
G01X-16674Y-44175D01*
G01X-16696Y-44177D01*
G01X-16706Y-44178D01*
G01X-16719Y-44180D01*
G01X-16728Y-44182D01*
G01X-16738Y-44183D01*
G01X-16772Y-44184D01*
G01X-16793Y-44186D01*
G01X-16802Y-44187D01*
G01X-16816Y-44189D01*
G01X-16820Y-44190D01*
G01X-16824Y-44191D01*
G01X-16834Y-44192D01*
G01X-16859Y-44193D01*
G01X-16881D01*
G01X-16895Y-44195D01*
G01X-16902Y-44197D01*
G01X-16913Y-44199D01*
G01X-16918Y-44200D01*
G01X-16925Y-44201D01*
G01X-16933Y-44202D01*
G01X-16953D01*
G01X-16974Y-44203D01*
G01X-16987Y-44204D01*
G01X-16994Y-44206D01*
G01X-17006Y-44208D01*
G01X-17013Y-44210D01*
G01X-17024Y-44211D01*
G01X-17048D01*
G01X-17063Y-44212D01*
G01X-17070Y-44213D01*
G01X-17078Y-44214D01*
G01X-17081Y-44215D01*
G01X-17089Y-44214D01*
G01X-17091Y-44212D01*
G01X-17093Y-44210D01*
G01X-17094Y-44208D01*
G01X-17093Y-44204D01*
G01X-17091Y-44197D01*
G01Y-44188D01*
G01X-17090Y-44176D01*
G01X-17088Y-44165D01*
G01X-17086Y-44159D01*
G01X-17084Y-44157D01*
G01X-17082Y-44155D01*
G01X-17079Y-44153D01*
G01X-17065Y-44143D01*
G01X-17061Y-44140D01*
G01X-17053Y-44133D01*
G01X-17044Y-44126D01*
G01X-17041Y-44123D01*
G01X-17040Y-44121D01*
G01Y-44119D01*
G01Y-44117D01*
G01X-17041Y-44114D01*
G01X-17042Y-44112D01*
G01X-17049Y-44105D01*
G01X-17065Y-44082D01*
G01X-17090Y-44050D01*
G01X-17093Y-44045D01*
G01X-17098Y-44036D01*
G01X-17100Y-44033D01*
G01X-17103Y-44032D01*
G01X-17107Y-44031D01*
G37*
G36*
G01X-17315Y-44223D02*
G01X-17317Y-44224D01*
G01X-17320Y-44226D01*
G01X-17322Y-44227D01*
G01X-17327Y-44235D01*
G01X-17330Y-44240D01*
G01X-17333Y-44245D01*
G01X-17335Y-44250D01*
G01X-17343Y-44269D01*
G01X-17349Y-44290D01*
G01X-17355Y-44305D01*
G01X-17362Y-44322D01*
G01X-17367Y-44336D01*
G01X-17370Y-44344D01*
G01X-17374Y-44349D01*
G01X-17376Y-44353D01*
G01X-17378Y-44361D01*
G01X-17381Y-44372D01*
G01X-17383Y-44377D01*
G01X-17385Y-44383D01*
G01X-17392Y-44395D01*
G01X-17394Y-44401D01*
G01X-17396Y-44406D01*
G01X-17399Y-44418D01*
G01X-17401Y-44424D01*
G01X-17404Y-44430D01*
G01X-17410Y-44441D01*
G01X-17413Y-44446D01*
G01X-17415Y-44452D01*
G01X-17418Y-44461D01*
G01X-17421Y-44469D01*
G01X-17427Y-44479D01*
G01X-17432Y-44493D01*
G01X-17435Y-44501D01*
G01X-17438Y-44506D01*
G01X-17443Y-44515D01*
G01X-17451Y-44533D01*
G01X-17457Y-44543D01*
G01X-17461Y-44552D01*
G01X-17467Y-44565D01*
G01X-17472Y-44573D01*
G01X-17476Y-44579D01*
G01X-17478Y-44581D01*
G01X-17480Y-44584D01*
G01X-17482Y-44591D01*
G01X-17484Y-44594D01*
G01X-17487Y-44597D01*
G01X-17490Y-44599D01*
G01X-17497Y-44604D01*
G01X-17502Y-44611D01*
G01X-17503Y-44614D01*
G01X-17504Y-44617D01*
G01X-17502Y-44620D01*
G01X-17500Y-44622D01*
G01X-17479Y-44637D01*
G01X-17472Y-44642D01*
G01X-17460Y-44648D01*
G01X-17444Y-44657D01*
G01X-17433Y-44664D01*
G01X-17423Y-44671D01*
G01X-17419Y-44674D01*
G01X-17415Y-44676D01*
G01X-17411D01*
G01X-17407D01*
G01X-17404Y-44674D01*
G01X-17403Y-44672D01*
G01X-17402Y-44670D01*
G01X-17401Y-44668D01*
G01Y-44665D01*
G01X-17400Y-44653D01*
G01X-17399Y-44643D01*
G01X-17395Y-44629D01*
G01X-17393Y-44616D01*
G01X-17388Y-44583D01*
G01X-17387Y-44575D01*
G01X-17385Y-44564D01*
G01X-17382Y-44551D01*
G01X-17378Y-44529D01*
G01X-17376Y-44518D01*
G01X-17373Y-44506D01*
G01X-17368Y-44485D01*
G01X-17363Y-44468D01*
G01X-17360Y-44449D01*
G01X-17356Y-44435D01*
G01X-17352Y-44419D01*
G01X-17346Y-44392D01*
G01X-17340Y-44371D01*
G01X-17331Y-44339D01*
G01X-17326Y-44318D01*
G01X-17322Y-44302D01*
G01X-17318Y-44283D01*
G01X-17316Y-44278D01*
G01X-17315Y-44273D01*
G01X-17311Y-44267D01*
G01X-17309Y-44263D01*
G01X-17307Y-44253D01*
G01X-17306Y-44246D01*
G01X-17305Y-44239D01*
G01X-17306Y-44233D01*
G01X-17307Y-44228D01*
G01X-17310Y-44225D01*
G01X-17312Y-44224D01*
G01X-17314D01*
G37*
G36*
G01X-17588Y-44822D02*
G01X-17592Y-44823D01*
G01X-17608Y-44828D01*
G01X-17612Y-44829D01*
G01X-17616Y-44832D01*
G01X-17619Y-44834D01*
G01X-17622Y-44837D01*
G01X-17625Y-44840D01*
G01X-17628Y-44843D01*
G01X-17631Y-44846D01*
G01X-17638Y-44850D01*
G01X-17642Y-44853D01*
G01X-17649Y-44859D01*
G01X-17654Y-44865D01*
G01X-17658Y-44871D01*
G01X-17662Y-44876D01*
G01X-17664Y-44881D01*
G01X-17667Y-44890D01*
G01X-17670Y-44900D01*
G01X-17673Y-44905D01*
G01Y-44907D01*
G01X-17675Y-44915D01*
G01X-17676Y-44931D01*
G01X-17677Y-45012D01*
G01X-17676Y-45090D01*
G01X-17675Y-45119D01*
G01Y-45124D01*
G01X-17672Y-45134D01*
G01X-17668Y-45144D01*
G01X-17663Y-45153D01*
G01X-17658Y-45162D01*
G01X-17652Y-45168D01*
G01X-17648Y-45172D01*
G01X-17642Y-45176D01*
G01X-17637Y-45181D01*
G01X-17631Y-45184D01*
G01X-17625Y-45187D01*
G01X-17609Y-45190D01*
G01X-17601Y-45193D01*
G01X-17598D01*
G01X-17074Y-45195D01*
G01X-16555D01*
G01Y-45472D01*
G01X-16825D01*
G01X-17072Y-45473D01*
G01X-17100Y-45474D01*
G01X-17102D01*
G01X-17106Y-45475D01*
G01X-17116Y-45476D01*
G01X-17144Y-45477D01*
G01X-17166D01*
G01X-17183Y-45478D01*
G01X-17190Y-45479D01*
G01X-17200Y-45481D01*
G01X-17211Y-45484D01*
G01X-17217Y-45485D01*
G01X-17236Y-45486D01*
G01X-17246Y-45487D01*
G01X-17250Y-45488D01*
G01X-17259Y-45490D01*
G01X-17277Y-45494D01*
G01X-17288Y-45496D01*
G01X-17292Y-45497D01*
G01X-17308Y-45502D01*
G01X-17356Y-45516D01*
G01X-17377Y-45523D01*
G01X-17392Y-45528D01*
G01X-17409Y-45536D01*
G01X-17423Y-45540D01*
G01X-17431Y-45544D01*
G01X-17437Y-45547D01*
G01X-17445Y-45552D01*
G01X-17468Y-45562D01*
G01X-17479Y-45569D01*
G01X-17497Y-45578D01*
G01X-17511Y-45587D01*
G01X-17524Y-45595D01*
G01X-17532Y-45599D01*
G01X-17535Y-45603D01*
G01X-17542Y-45608D01*
G01X-17560Y-45619D01*
G01X-17564Y-45622D01*
G01X-17572Y-45629D01*
G01X-17581Y-45636D01*
G01X-17591Y-45644D01*
G01X-17598Y-45649D01*
G01X-17611Y-45658D01*
G01X-17615Y-45662D01*
G01X-17619Y-45665D01*
G01X-17622Y-45668D01*
G01X-17627Y-45675D01*
G01X-17637Y-45682D01*
G01X-17642Y-45688D01*
G01X-17650Y-45698D01*
G01X-17660Y-45705D01*
G01X-17666Y-45711D01*
G01X-17673Y-45721D01*
G01X-17683Y-45729D01*
G01X-17689Y-45734D01*
G01X-17694Y-45741D01*
G01X-17705Y-45756D01*
G01X-17724Y-45779D01*
G01X-17731Y-45790D01*
G01X-17737Y-45800D01*
G01X-17738Y-45802D01*
G01X-17739Y-45804D01*
G01Y-45806D01*
G01X-17738Y-45810D01*
G01X-17735Y-45814D01*
G01X-17733Y-45816D01*
G01X-17728Y-45819D01*
G01X-17725Y-45820D01*
G01X-17722Y-45819D01*
G01X-17719Y-45816D01*
G01X-17713Y-45810D01*
G01X-17704Y-45802D01*
G01X-17698Y-45796D01*
G01X-17691Y-45787D01*
G01X-17681Y-45779D01*
G01X-17675Y-45773D01*
G01X-17667Y-45764D01*
G01X-17661Y-45759D01*
G01X-17652Y-45751D01*
G01X-17647Y-45747D01*
G01X-17644Y-45745D01*
G01X-17641Y-45743D01*
G01X-17635Y-45741D01*
G01X-17632Y-45739D01*
G01X-17629Y-45736D01*
G01X-17625Y-45731D01*
G01X-17622Y-45728D01*
G01X-17615Y-45723D01*
G01X-17599Y-45712D01*
G01X-17582Y-45700D01*
G01X-17569Y-45692D01*
G01X-17522Y-45664D01*
G01X-17512Y-45658D01*
G01X-17502Y-45654D01*
G01X-17493Y-45650D01*
G01X-17475Y-45639D01*
G01X-17465Y-45635D01*
G01X-17456Y-45631D01*
G01X-17443Y-45623D01*
G01X-17437Y-45621D01*
G01X-17432Y-45619D01*
G01X-17420Y-45616D01*
G01X-17410Y-45613D01*
G01X-17395Y-45607D01*
G01X-17378Y-45602D01*
G01X-17368Y-45599D01*
G01X-17358Y-45595D01*
G01X-17349Y-45592D01*
G01X-17343D01*
G01X-17338Y-45591D01*
G01X-17333Y-45590D01*
G01X-17328Y-45588D01*
G01X-17321Y-45585D01*
G01X-17316Y-45584D01*
G01X-17311Y-45583D01*
G01X-17300D01*
G01X-17295Y-45582D01*
G01X-17291Y-45580D01*
G01X-17283Y-45576D01*
G01X-17280Y-45575D01*
G01X-17275Y-45574D01*
G01X-17260Y-45573D01*
G01X-17246Y-45571D01*
G01X-17238Y-45570D01*
G01X-17226Y-45568D01*
G01X-17218Y-45566D01*
G01X-17208Y-45565D01*
G01X-17195D01*
G01X-17178Y-45564D01*
G01X-17171Y-45563D01*
G01X-17166Y-45562D01*
G01X-17159Y-45560D01*
G01X-17152D01*
G01X-17137D01*
G01X-17118Y-45559D01*
G01X-17111Y-45558D01*
G01X-17107Y-45557D01*
G01X-17106D01*
G01X-17100D01*
G01X-16874Y-45555D01*
G01X-16658Y-45556D01*
G01X-16642Y-45557D01*
G01X-16640D01*
G01X-16638Y-45558D01*
G01X-16625Y-45559D01*
G01X-16563Y-45560D01*
G01X-16554Y-45561D01*
G01X-16548Y-45562D01*
G01X-16545Y-45563D01*
G01X-16533Y-45564D01*
G01X-16511Y-45565D01*
G01X-16491Y-45564D01*
G01X-16476Y-45563D01*
G01X-16469Y-45562D01*
G01X-16462Y-45559D01*
G01X-16463Y-45555D01*
G01X-16464Y-45554D01*
G01X-16469Y-45547D01*
G01X-16486Y-45520D01*
G01X-16495Y-45507D01*
G01X-16506Y-45488D01*
G01X-16512Y-45478D01*
G01X-16514Y-45474D01*
G01X-16516Y-45470D01*
G01Y-45469D01*
G01X-16517Y-45460D01*
G01X-16518Y-45333D01*
G01Y-45254D01*
G01X-16516Y-45209D01*
G01X-16515Y-45203D01*
G01X-16514Y-45200D01*
G01X-16511Y-45197D01*
G01X-16504Y-45188D01*
G01X-16499Y-45182D01*
G01X-16489Y-45174D01*
G01X-16484Y-45168D01*
G01X-16480Y-45163D01*
G01X-16477Y-45160D01*
G01X-16473Y-45157D01*
G01X-16469Y-45155D01*
G01X-16463Y-45151D01*
G01X-16461Y-45148D01*
G01Y-45145D01*
G01X-16463Y-45142D01*
G01X-16472Y-45128D01*
G01X-16474Y-45125D01*
G01X-16480Y-45119D01*
G01X-16485Y-45115D01*
G01X-16491Y-45110D01*
G01X-16495Y-45106D01*
G01X-16507Y-45091D01*
G01X-16516Y-45081D01*
G01X-16520Y-45075D01*
G01X-16525Y-45066D01*
G01X-16528Y-45063D01*
G01X-16532Y-45060D01*
G01X-16536Y-45059D01*
G01X-16539Y-45058D01*
G01X-16541D01*
G01X-16543Y-45059D01*
G01X-16545D01*
G01X-16546Y-45060D01*
G01X-16548Y-45062D01*
G01X-16549Y-45064D01*
G01X-16553Y-45070D01*
G01X-16557Y-45077D01*
G01X-16565Y-45089D01*
G01X-16573Y-45103D01*
G01X-16574D01*
G01X-16575D01*
G01X-16577Y-45104D01*
G01X-16586Y-45105D01*
G01X-16611Y-45107D01*
G01X-17054Y-45112D01*
G01X-17531Y-45110D01*
G01X-17541Y-45109D01*
G01X-17564Y-45105D01*
G01X-17575Y-45102D01*
G01X-17585Y-45098D01*
G01X-17589Y-45096D01*
G01X-17593Y-45093D01*
G01X-17597Y-45087D01*
G01X-17599Y-45079D01*
G01X-17604Y-45068D01*
G01X-17605Y-45064D01*
G01X-17607Y-45055D01*
G01Y-45045D01*
G01X-17608Y-45022D01*
G01Y-45012D01*
G01X-17607Y-44989D01*
G01X-17605Y-44978D01*
G01X-17604Y-44974D01*
G01X-17601Y-44966D01*
G01X-17597Y-44957D01*
G01X-17594Y-44955D01*
G01X-17589Y-44950D01*
G01X-17581Y-44944D01*
G01X-17577Y-44942D01*
G01X-17570Y-44940D01*
G01X-17557Y-44938D01*
G01X-17532Y-44934D01*
G01X-17522Y-44933D01*
G01X-17508Y-44931D01*
G01X-17502Y-44929D01*
G01X-17490Y-44928D01*
G01X-17455Y-44927D01*
G01X-17446D01*
G01X-17417Y-44926D01*
G01X-17409Y-44925D01*
G01X-17403Y-44924D01*
G01X-17395Y-44923D01*
G01X-17384Y-44922D01*
G01X-17369D01*
G01X-17362Y-44921D01*
G01X-17356Y-44920D01*
G01X-17353Y-44919D01*
G01X-17351Y-44918D01*
G01X-17349Y-44917D01*
G01X-17346Y-44913D01*
G01X-17345Y-44910D01*
G01Y-44907D01*
G01Y-44890D01*
G01X-17376D01*
G01X-17391Y-44889D01*
G01X-17401Y-44888D01*
G01X-17404Y-44887D01*
G01X-17410Y-44886D01*
G01X-17417D01*
G01X-17438Y-44885D01*
G01X-17458D01*
G01X-17472Y-44883D01*
G01X-17500Y-44879D01*
G01X-17522Y-44874D01*
G01X-17528Y-44873D01*
G01X-17533Y-44871D01*
G01X-17537Y-44869D01*
G01X-17544Y-44865D01*
G01X-17551Y-44861D01*
G01X-17558Y-44859D01*
G01X-17561Y-44857D01*
G01X-17564Y-44854D01*
G01X-17566Y-44851D01*
G01X-17573Y-44842D01*
G01X-17578Y-44837D01*
G01X-17580Y-44834D01*
G01X-17581Y-44831D01*
G01X-17584Y-44825D01*
G01X-17586Y-44823D01*
G37*
G36*
G01X-16770Y-45631D02*
G01X-16772Y-45632D01*
G01X-16773D01*
G01Y-45633D01*
G01Y-45634D01*
G01X-16774Y-45641D01*
G01X-16775Y-45654D01*
G01X-16777Y-45754D01*
G01X-16778Y-45843D01*
G01X-16779Y-45865D01*
G01X-16780Y-45870D01*
G01X-16781Y-45871D01*
G01X-16782D01*
G01X-16783D01*
G01X-16794Y-45870D01*
G01X-16846Y-45869D01*
G01X-16902Y-45870D01*
G01X-16914Y-45871D01*
G01X-16923Y-45872D01*
G01X-16927Y-45871D01*
G01X-16931Y-45870D01*
G01X-16934Y-45867D01*
G01X-16938Y-45859D01*
G01X-16947Y-45840D01*
G01X-16953Y-45824D01*
G01X-16962Y-45802D01*
G01X-16965Y-45794D01*
G01X-16973Y-45777D01*
G01X-16983Y-45753D01*
G01X-16992Y-45735D01*
G01X-17001Y-45713D01*
G01X-17003Y-45708D01*
G01X-17006Y-45703D01*
G01X-17013Y-45694D01*
G01X-17017Y-45686D01*
G01X-17021Y-45679D01*
G01X-17023Y-45676D01*
G01X-17025Y-45673D01*
G01X-17028Y-45671D01*
G01X-17035Y-45666D01*
G01X-17040Y-45659D01*
G01X-17042Y-45656D01*
G01X-17051Y-45650D01*
G01X-17056Y-45647D01*
G01X-17074Y-45641D01*
G01X-17078Y-45640D01*
G01X-17086Y-45638D01*
G01X-17095D01*
G01X-17103Y-45640D01*
G01X-17115Y-45642D01*
G01X-17128Y-45643D01*
G01X-17135Y-45644D01*
G01X-17143Y-45646D01*
G01X-17160Y-45651D01*
G01X-17165Y-45653D01*
G01X-17170Y-45656D01*
G01X-17176Y-45659D01*
G01X-17181Y-45663D01*
G01X-17183Y-45666D01*
G01Y-45670D01*
G01X-17181Y-45673D01*
G01X-17163Y-45690D01*
G01X-17157Y-45696D01*
G01X-17130Y-45715D01*
G01X-17105Y-45731D01*
G01X-17095Y-45738D01*
G01X-17076Y-45751D01*
G01X-17070Y-45758D01*
G01X-17066Y-45762D01*
G01X-17063Y-45766D01*
G01X-17057Y-45771D01*
G01X-17046Y-45778D01*
G01X-17041Y-45781D01*
G01X-17038Y-45785D01*
G01X-17033Y-45792D01*
G01X-17027Y-45798D01*
G01X-17022Y-45801D01*
G01X-17019Y-45804D01*
G01X-17013Y-45811D01*
G01X-17006Y-45822D01*
G01X-17003Y-45826D01*
G01X-17000Y-45830D01*
G01X-16993Y-45835D01*
G01X-16990Y-45837D01*
G01X-16988Y-45840D01*
G01X-16985Y-45847D01*
G01X-16983Y-45850D01*
G01X-16981Y-45853D01*
G01X-16975Y-45858D01*
G01X-16973Y-45861D01*
G01X-16972Y-45864D01*
G01X-16973Y-45867D01*
G01X-16976Y-45871D01*
G01X-16980D01*
G01X-16985D01*
G01X-17308Y-45869D01*
G01X-17552D01*
G01X-17636Y-45867D01*
G01X-17638D01*
G01X-17640Y-45866D01*
G01X-17652Y-45865D01*
G01X-17682D01*
G01X-17705D01*
G01X-17715Y-45866D01*
G01X-17719Y-45867D01*
G01X-17722Y-45868D01*
G01X-17724Y-45869D01*
G01X-17725Y-45870D01*
G01X-17730Y-45877D01*
G01X-17735Y-45886D01*
G01X-17738Y-45891D01*
G01X-17741Y-45897D01*
G01X-17744Y-45904D01*
G01X-17751Y-45923D01*
G01X-17754Y-45928D01*
G01X-17757Y-45933D01*
G01X-17759Y-45937D01*
G01X-17761Y-45945D01*
G01X-17763Y-45950D01*
G01X-17765Y-45962D01*
G01X-17677D01*
G01X-17599Y-45961D01*
G01X-17585Y-45960D01*
G01X-17582Y-45959D01*
G01X-17576D01*
G01X-17328Y-45957D01*
G01X-17102Y-45958D01*
G01X-17076Y-45959D01*
G01X-17074D01*
G01X-17073Y-45960D01*
G01X-17072Y-45961D01*
G01X-17071Y-45962D01*
G01X-17072Y-45964D01*
G01X-17073Y-45965D01*
G01X-17077Y-45968D01*
G01X-17084Y-45973D01*
G01X-17091Y-45977D01*
G01X-17100Y-45979D01*
G01X-17108Y-45983D01*
G01X-17114Y-45986D01*
G01X-17123Y-45990D01*
G01X-17132Y-45994D01*
G01X-17148Y-46000D01*
G01X-17164Y-46007D01*
G01X-17173Y-46011D01*
G01X-17182Y-46015D01*
G01X-17198Y-46024D01*
G01X-17216Y-46033D01*
G01X-17231Y-46043D01*
G01X-17240Y-46047D01*
G01X-17252Y-46054D01*
G01X-17271Y-46063D01*
G01X-17276Y-46065D01*
G01X-17282Y-46070D01*
G01X-17296Y-46080D01*
G01X-17321Y-46095D01*
G01X-17338Y-46108D01*
G01X-17362Y-46123D01*
G01X-17380Y-46136D01*
G01X-17398Y-46147D01*
G01X-17403Y-46151D01*
G01X-17407Y-46154D01*
G01X-17412Y-46161D01*
G01X-17415Y-46163D01*
G01X-17418Y-46166D01*
G01X-17424Y-46169D01*
G01X-17427Y-46171D01*
G01X-17430Y-46173D01*
G01X-17433Y-46176D01*
G01X-17435Y-46180D01*
G01X-17438Y-46183D01*
G01X-17442Y-46185D01*
G01X-17451Y-46190D01*
G01X-17454Y-46193D01*
G01X-17457Y-46196D01*
G01X-17460Y-46200D01*
G01X-17466Y-46206D01*
G01X-17472Y-46211D01*
G01X-17474Y-46213D01*
G01X-17475Y-46216D01*
G01X-17474Y-46219D01*
G01X-17472Y-46222D01*
G01X-17470Y-46224D01*
G01X-17466Y-46226D01*
G01X-17461D01*
G01X-17456Y-46224D01*
G01X-17453Y-46222D01*
G01X-17430Y-46209D01*
G01X-17404Y-46192D01*
G01X-17391Y-46185D01*
G01X-17384Y-46181D01*
G01X-17379Y-46177D01*
G01X-17376Y-46175D01*
G01X-17372Y-46173D01*
G01X-17363Y-46171D01*
G01X-17360Y-46169D01*
G01X-17356Y-46167D01*
G01X-17353Y-46163D01*
G01X-17350Y-46161D01*
G01X-17343Y-46158D01*
G01X-17327Y-46151D01*
G01X-17318Y-46145D01*
G01X-17309Y-46141D01*
G01X-17292Y-46134D01*
G01X-17280Y-46128D01*
G01X-17257Y-46116D01*
G01X-17241Y-46109D01*
G01X-17218Y-46100D01*
G01X-17210Y-46096D01*
G01X-17187Y-46086D01*
G01X-17174Y-46082D01*
G01X-17158Y-46076D01*
G01X-17146Y-46070D01*
G01X-17136Y-46066D01*
G01X-17114Y-46060D01*
G01X-17105Y-46056D01*
G01X-17095Y-46052D01*
G01X-17086Y-46048D01*
G01X-17072Y-46044D01*
G01X-17042Y-46033D01*
G01X-17034Y-46031D01*
G01X-17018Y-46027D01*
G01X-17008Y-46024D01*
G01X-16998Y-46019D01*
G01X-16993Y-46018D01*
G01X-16987Y-46016D01*
G01X-16973Y-46014D01*
G01X-16967Y-46012D01*
G01X-16962Y-46010D01*
G01X-16952Y-46005D01*
G01X-16943Y-46003D01*
G01X-16934D01*
G01X-16930Y-46002D01*
G01X-16926Y-46000D01*
G01X-16918Y-45996D01*
G01X-16914Y-45995D01*
G01X-16910Y-45994D01*
G01X-16902D01*
G01X-16897Y-45993D01*
G01X-16894Y-45991D01*
G01X-16890Y-45989D01*
G01X-16886Y-45987D01*
G01X-16882Y-45986D01*
G01X-16877Y-45985D01*
G01X-16866Y-45984D01*
G01X-16861D01*
G01X-16856Y-45982D01*
G01X-16851Y-45979D01*
G01X-16847Y-45977D01*
G01X-16842Y-45976D01*
G01X-16837D01*
G01X-16829Y-45975D01*
G01X-16823D01*
G01X-16818Y-45973D01*
G01X-16811Y-45970D01*
G01X-16806Y-45968D01*
G01X-16800Y-45967D01*
G01X-16790Y-45966D01*
G01X-16777D01*
G01Y-46077D01*
G01X-16778Y-46114D01*
G01X-16780Y-46126D01*
G01X-16781Y-46132D01*
G01X-16783Y-46143D01*
G01Y-46150D01*
G01X-16782Y-46153D01*
G01Y-46156D01*
G01X-16780Y-46159D01*
G01X-16776Y-46168D01*
G01X-16772Y-46172D01*
G01X-16769Y-46176D01*
G01X-16762Y-46181D01*
G01X-16756Y-46187D01*
G01X-16751Y-46193D01*
G01X-16748Y-46196D01*
G01X-16745Y-46198D01*
G01X-16742Y-46200D01*
G01X-16741D01*
G01Y-46199D01*
G01X-16740Y-46197D01*
G01X-16739Y-46194D01*
G01X-16738Y-46185D01*
G01X-16737Y-46167D01*
G01X-16735Y-46079D01*
G01Y-45957D01*
G01X-16615D01*
G01X-16523Y-45958D01*
G01X-16492Y-45959D01*
G01X-16488D01*
G01X-16486Y-45960D01*
G01X-16474Y-45961D01*
G01X-16423Y-45962D01*
G01X-16371Y-45961D01*
G01X-16361Y-45960D01*
G01X-16359Y-45959D01*
G01X-16356Y-45958D01*
G01X-16355Y-45955D01*
G01Y-45952D01*
G01X-16361Y-45938D01*
G01X-16365Y-45925D01*
G01X-16368Y-45917D01*
G01X-16371Y-45911D01*
G01X-16376Y-45902D01*
G01X-16379Y-45892D01*
G01X-16385Y-45877D01*
G01X-16391Y-45864D01*
G01X-16398Y-45849D01*
G01X-16402Y-45840D01*
G01X-16405Y-45837D01*
G01X-16408Y-45838D01*
G01X-16409Y-45839D01*
G01X-16417Y-45846D01*
G01X-16427Y-45853D01*
G01X-16432Y-45859D01*
G01X-16435Y-45863D01*
G01X-16436D01*
G01X-16437Y-45864D01*
G01X-16440D01*
G01X-16452Y-45866D01*
G01X-16472Y-45867D01*
G01X-16573Y-45869D01*
G01X-16656D01*
G01X-16711Y-45871D01*
G01X-16714D01*
G01X-16718Y-45872D01*
G01X-16721Y-45873D01*
G01X-16725Y-45872D01*
G01X-16728Y-45871D01*
G01X-16730Y-45870D01*
G01X-16731Y-45868D01*
G01X-16732Y-45867D01*
G01X-16733Y-45864D01*
G01X-16734Y-45857D01*
G01X-16735Y-45848D01*
G01Y-45837D01*
G01Y-45816D01*
G01X-16734Y-45800D01*
G01X-16733Y-45793D01*
G01X-16731Y-45788D01*
G01X-16730Y-45783D01*
G01X-16728Y-45779D01*
G01X-16723Y-45774D01*
G01X-16717Y-45765D01*
G01X-16711Y-45759D01*
G01X-16702Y-45751D01*
G01X-16696Y-45745D01*
G01X-16688Y-45736D01*
G01X-16679Y-45728D01*
G01X-16678Y-45725D01*
G01Y-45721D01*
G01X-16680Y-45717D01*
G01X-16682Y-45712D01*
G01X-16685Y-45709D01*
G01X-16688Y-45706D01*
G01X-16694Y-45701D01*
G01X-16700Y-45695D01*
G01X-16708Y-45685D01*
G01X-16718Y-45677D01*
G01X-16723Y-45672D01*
G01X-16731Y-45662D01*
G01X-16741Y-45654D01*
G01X-16747Y-45648D01*
G01X-16754Y-45639D01*
G01X-16760Y-45634D01*
G01X-16764Y-45632D01*
G01X-16767Y-45631D01*
G37*
G36*
G01X-17628Y-46375D02*
G01X-17630Y-46376D01*
G01X-17633Y-46377D01*
G01X-17638Y-46379D01*
G01X-17648Y-46386D01*
G01X-17651Y-46389D01*
G01X-17659Y-46396D01*
G01X-17667Y-46402D01*
G01X-17673Y-46407D01*
G01X-17677Y-46411D01*
G01X-17682Y-46416D01*
G01X-17686Y-46422D01*
G01X-17689Y-46427D01*
G01X-17692Y-46431D01*
G01X-17696Y-46442D01*
G01X-17701Y-46451D01*
G01X-17703Y-46455D01*
G01X-17706Y-46464D01*
G01X-17708Y-46479D01*
G01X-17711Y-46491D01*
G01X-17712Y-46495D01*
G01Y-46496D01*
G01Y-46501D01*
G01X-17714Y-46765D01*
G01Y-46827D01*
G01X-17711Y-47028D01*
G01X-17710Y-47039D01*
G01X-17709Y-47042D01*
G01X-17705Y-47055D01*
G01X-17703Y-47059D01*
G01X-17696Y-47070D01*
G01X-17690Y-47081D01*
G01X-17687Y-47086D01*
G01X-17680Y-47093D01*
G01X-17675Y-47098D01*
G01X-17669Y-47102D01*
G01X-17665Y-47105D01*
G01X-17660Y-47108D01*
G01X-17653Y-47110D01*
G01X-17646Y-47114D01*
G01X-17642Y-47116D01*
G01X-17640Y-47117D01*
G01X-17634Y-47118D01*
G01X-17619Y-47119D01*
G01X-17483Y-47121D01*
G01X-17271D01*
G01X-17007D01*
G01Y-47308D01*
G01X-16971D01*
G01X-16969Y-47147D01*
G01Y-47134D01*
G01X-16966Y-47121D01*
G01X-16850D01*
G01X-16779D01*
G01X-16728Y-47123D01*
G01X-16723D01*
G01X-16715Y-47126D01*
G01X-16714Y-47130D01*
G01X-16715Y-47131D01*
G01Y-47139D01*
G01X-16717Y-47292D01*
G01X-16716Y-47361D01*
G01X-16715Y-47451D01*
G01X-16714Y-47455D01*
G01X-16713Y-47459D01*
G01Y-47466D01*
G01X-16714Y-47470D01*
G01X-16715Y-47471D01*
G01X-16717D01*
G01X-16719Y-47472D01*
G01X-16730Y-47473D01*
G01X-16749Y-47475D01*
G01X-16841Y-47476D01*
G01X-16949D01*
G01X-16966Y-47475D01*
G01X-16968Y-47474D01*
G01X-16969Y-47473D01*
G01Y-47466D01*
G01X-16971Y-47308D01*
G01X-17007D01*
G01Y-47476D01*
G01X-17137D01*
G01X-17234D01*
G01X-17266Y-47475D01*
G01X-17268Y-47474D01*
G01X-17269Y-47473D01*
G01Y-47466D01*
G01X-17271Y-47296D01*
G01Y-47121D01*
G01X-17483D01*
G01X-17334Y-47122D01*
G01X-17321Y-47123D01*
G01X-17308Y-47125D01*
G01Y-47289D01*
G01X-17309Y-47450D01*
G01X-17310Y-47463D01*
G01X-17312Y-47476D01*
G01X-17341D01*
G01X-17361Y-47477D01*
G01X-17375Y-47479D01*
G01X-17382Y-47480D01*
G01X-17388Y-47482D01*
G01X-17392Y-47485D01*
G01X-17395Y-47488D01*
G01X-17400Y-47495D01*
G01X-17407Y-47509D01*
G01X-17419Y-47535D01*
G01X-17425Y-47547D01*
G01X-17429Y-47555D01*
G01X-17433Y-47569D01*
G01X-17382D01*
G01X-17335Y-47568D01*
G01X-17326Y-47567D01*
G01X-17324D01*
G01X-17323Y-47566D01*
G01X-17318D01*
G01X-17024Y-47564D01*
G01X-16769Y-47565D01*
G01X-16725Y-47566D01*
G01X-16721Y-47567D01*
G01X-16710Y-47568D01*
G01X-16675Y-47569D01*
G01X-16643Y-47568D01*
G01X-16635Y-47566D01*
G01X-16631Y-47564D01*
G01X-16630Y-47562D01*
G01Y-47559D01*
G01X-16631Y-47557D01*
G01X-16636Y-47552D01*
G01X-16638Y-47548D01*
G01X-16645Y-47533D01*
G01X-16648Y-47527D01*
G01X-16651Y-47523D01*
G01X-16658Y-47513D01*
G01X-16660Y-47508D01*
G01X-16663Y-47503D01*
G01X-16670Y-47489D01*
G01X-16675Y-47476D01*
G01X-16676Y-47474D01*
G01X-16677Y-47468D01*
G01X-16678Y-47453D01*
G01X-16680Y-47303D01*
G01X-16679Y-47216D01*
G01X-16677Y-47144D01*
G01X-16676Y-47135D01*
G01Y-47132D01*
G01X-16675Y-47129D01*
G01X-16673Y-47127D01*
G01X-16671Y-47126D01*
G01X-16667Y-47124D01*
G01X-16663Y-47123D01*
G01X-16656Y-47122D01*
G01X-16649Y-47121D01*
G01X-16638D01*
G01X-16612D01*
G01X-16604Y-47122D01*
G01X-16599Y-47123D01*
G01X-16597Y-47124D01*
G01X-16587D01*
G01X-16504Y-47125D01*
G01X-16426Y-47126D01*
G01X-16412Y-47127D01*
G01X-16409Y-47128D01*
G01X-16408D01*
G01X-16401Y-47129D01*
G01X-16391Y-47130D01*
G01X-16380Y-47129D01*
G01X-16372Y-47128D01*
G01X-16370Y-47126D01*
G01X-16368Y-47124D01*
G01X-16367Y-47122D01*
G01X-16368Y-47119D01*
G01X-16372Y-47105D01*
G01X-16375Y-47098D01*
G01X-16384Y-47084D01*
G01X-16387Y-47075D01*
G01X-16391Y-47066D01*
G01X-16401Y-47048D01*
G01X-16403Y-47044D01*
G01X-16408Y-47033D01*
G01X-16413Y-47024D01*
G01X-16418Y-47015D01*
G01X-16421Y-47008D01*
G01X-16424Y-47003D01*
G01X-16426Y-47000D01*
G01X-16429Y-46998D01*
G01X-16433D01*
G01X-16436Y-47000D01*
G01X-16438Y-47002D01*
G01X-16440Y-47004D01*
G01X-16443Y-47011D01*
G01X-16445Y-47014D01*
G01X-16448Y-47017D01*
G01X-16455Y-47021D01*
G01X-16460Y-47028D01*
G01X-16463Y-47031D01*
G01X-16464Y-47032D01*
G01X-16466Y-47033D01*
G01X-16470Y-47034D01*
G01X-16480Y-47035D01*
G01X-16498Y-47036D01*
G01X-16562Y-47038D01*
G01X-16636Y-47037D01*
G01X-16664Y-47036D01*
G01X-16668Y-47035D01*
G01X-16680Y-47033D01*
G01Y-46857D01*
G01X-16678Y-46724D01*
G01X-16676Y-46688D01*
G01X-16675Y-46678D01*
G01X-16674Y-46675D01*
G01X-16673Y-46673D01*
G01X-16660Y-46655D01*
G01X-16655Y-46649D01*
G01X-16650Y-46645D01*
G01X-16640Y-46636D01*
G01X-16635Y-46632D01*
G01X-16631Y-46628D01*
G01X-16629Y-46624D01*
G01X-16627Y-46621D01*
G01X-16626Y-46617D01*
G01Y-46614D01*
G01Y-46611D01*
G01X-16628Y-46607D01*
G01X-16630Y-46604D01*
G01X-16632Y-46601D01*
G01X-16639Y-46596D01*
G01X-16645Y-46591D01*
G01X-16653Y-46581D01*
G01X-16662Y-46573D01*
G01X-16668Y-46567D01*
G01X-16676Y-46558D01*
G01X-16685Y-46550D01*
G01X-16691Y-46544D01*
G01X-16696Y-46538D01*
G01X-16698Y-46537D01*
G01X-16702D01*
G01X-16705Y-46539D01*
G01X-16711Y-46544D01*
G01X-16717Y-46551D01*
G01X-16723Y-46560D01*
G01X-16728Y-46564D01*
G01X-16733Y-46571D01*
G01X-16735Y-46576D01*
G01X-16736D01*
G01Y-46577D01*
G01X-16737Y-46578D01*
G01X-16740D01*
G01X-16746Y-46580D01*
G01X-16756Y-46581D01*
G01X-16783Y-46583D01*
G01X-16938Y-46585D01*
G01X-17128Y-46584D01*
G01X-17142Y-46583D01*
G01X-17144D01*
G01X-17146D01*
G01X-17156Y-46582D01*
G01X-17246Y-46581D01*
G01X-17303Y-46582D01*
G01X-17328Y-46584D01*
G01X-17337Y-46586D01*
G01X-17342Y-46588D01*
G01X-17345Y-46590D01*
G01X-17354Y-46608D01*
G01X-17358Y-46617D01*
G01X-17364Y-46631D01*
G01X-17370Y-46642D01*
G01X-17374Y-46650D01*
G01X-17376Y-46659D01*
G01Y-46665D01*
G01X-17375Y-46668D01*
G01X-17374Y-46669D01*
G01X-17373Y-46670D01*
G01X-17371Y-46671D01*
G01X-17368D01*
G01X-17359Y-46672D01*
G01X-17338Y-46673D01*
G01X-17326Y-46674D01*
G01X-17319Y-46675D01*
G01X-17308Y-46678D01*
G01X-17273D01*
G01Y-46677D01*
G01X-17271Y-46676D01*
G01X-17265Y-46675D01*
G01X-17253D01*
G01X-17141Y-46673D01*
G01X-17007D01*
G01X-16971D01*
G01X-16785D01*
G01X-16731Y-46676D01*
G01X-16721Y-46677D01*
G01X-16716Y-46678D01*
G01X-16714Y-46680D01*
G01X-16715Y-46681D01*
G01Y-46688D01*
G01X-16717Y-46862D01*
G01Y-47038D01*
G01X-16835D01*
G01X-16925Y-47037D01*
G01X-16956Y-47036D01*
G01X-16959Y-47035D01*
G01X-16965Y-47033D01*
G01X-16968Y-47031D01*
G01X-16969Y-47030D01*
G01Y-47023D01*
G01X-16971Y-46851D01*
G01Y-46673D01*
G01X-17007D01*
G01Y-47038D01*
G01X-17271D01*
G01Y-46860D01*
G01X-17273Y-46681D01*
G01Y-46678D01*
G01X-17308D01*
G01Y-46846D01*
G01X-17309Y-47004D01*
G01X-17310Y-47024D01*
G01X-17312Y-47038D01*
G01X-17442D01*
G01X-17511Y-47037D01*
G01X-17581Y-47036D01*
G01X-17587Y-47035D01*
G01X-17598Y-47033D01*
G01X-17605Y-47032D01*
G01X-17610Y-47030D01*
G01X-17617Y-47026D01*
G01X-17620Y-47023D01*
G01X-17627Y-47017D01*
G01X-17636Y-47003D01*
G01Y-47001D01*
G01X-17637Y-46996D01*
G01X-17638Y-46982D01*
G01X-17640Y-46775D01*
G01X-17639Y-46563D01*
G01X-17638Y-46548D01*
G01Y-46546D01*
G01X-17631Y-46527D01*
G01X-17629Y-46522D01*
G01X-17625Y-46518D01*
G01X-17622Y-46514D01*
G01X-17619Y-46512D01*
G01X-17617Y-46511D01*
G01X-17598Y-46501D01*
G01X-17593Y-46500D01*
G01X-17582Y-46498D01*
G01X-17574D01*
G01X-17539Y-46497D01*
G01X-17529Y-46496D01*
G01X-17523Y-46494D01*
G01X-17514Y-46493D01*
G01X-17486Y-46492D01*
G01X-17480Y-46491D01*
G01X-17476Y-46490D01*
G01X-17474D01*
G01X-17462Y-46489D01*
G01X-17421Y-46488D01*
G01X-17375Y-46487D01*
G01X-17364Y-46486D01*
G01X-17361D01*
G01X-17358Y-46485D01*
G01X-17356Y-46484D01*
G01X-17354Y-46483D01*
G01X-17351Y-46478D01*
G01X-17350Y-46476D01*
G01X-17349Y-46470D01*
G01Y-46456D01*
G01X-17377D01*
G01X-17400Y-46455D01*
G01X-17410Y-46454D01*
G01X-17413Y-46453D01*
G01X-17420Y-46452D01*
G01X-17436Y-46451D01*
G01X-17445Y-46450D01*
G01X-17453Y-46448D01*
G01X-17462Y-46447D01*
G01X-17487Y-46446D01*
G01X-17498Y-46445D01*
G01X-17510Y-46443D01*
G01X-17532Y-46437D01*
G01X-17539Y-46435D01*
G01X-17546Y-46433D01*
G01X-17553Y-46429D01*
G01X-17562Y-46424D01*
G01X-17575Y-46416D01*
G01X-17582Y-46412D01*
G01X-17590Y-46405D01*
G01X-17600Y-46398D01*
G01X-17605Y-46392D01*
G01X-17613Y-46382D01*
G01X-17619Y-46377D01*
G01X-17622Y-46376D01*
G01X-17623D01*
G01X-17625Y-46375D01*
G37*
G01X-12700Y-4084D02*
G01X-13350Y-4084D01*
G01X-12700Y-4084D02*
G01X-12700Y-3805D01*
G01X-12730Y-3713D01*
G01X-12761Y-3683D01*
G01X-12824Y-3650D01*
G01X-12916D01*
G01X-12977Y-3683D01*
G01X-13010Y-3713D01*
G01X-13040Y-3805D01*
G01Y-4084D01*
G01X-12855Y-3317D02*
G01X-12824Y-3317D01*
G01X-12761Y-3287D01*
G01X-12730Y-3256D01*
G01X-12700Y-3195D01*
G01Y-3071D01*
G01X-12730Y-3007D01*
G01X-12761Y-2977D01*
G01X-12824Y-2946D01*
G01X-12885D01*
G01X-12946Y-2977D01*
G01X-13040Y-3040D01*
G01X-13350Y-3348D01*
G01Y-2916D01*
G01X39878Y16286D02*
G01X40528Y16286D01*
G01X39878Y16286D02*
G01X39878Y16007D01*
G01X39908Y15916D01*
G01X39939Y15885D01*
G01X40002Y15852D01*
G01X40094D01*
G01X40155Y15885D01*
G01X40188Y15916D01*
G01X40218Y16007D01*
G01Y16286D01*
G01X39878Y15489D02*
G01X39878Y15149D01*
G01X40124Y15334D01*
G01Y15243D01*
G01X40155Y15179D01*
G01X40188Y15149D01*
G01X40279Y15118D01*
G01X40343D01*
G01X40434Y15149D01*
G01X40498Y15210D01*
G01X40528Y15304D01*
G01Y15397D01*
G01X40498Y15489D01*
G01X40465Y15519D01*
G01X40404Y15550D01*
G04 Text End*

G04 PolygonModel Start*
G54D11*
G01X-22898Y-45761D02*
G01X-22898Y-44042D01*
G01X-22898Y-35011D02*
G01X-22898Y-36730D01*
G01X-23820Y-35011D02*
G01X-22898Y-35011D01*
G01X-27148Y-35011D02*
G01X-27082Y-35011D01*
G01X-27148Y-45761D02*
G01X-27148Y-35011D01*
G01X-23820Y-45761D02*
G01X-22898Y-45761D01*
G01X-27148Y-45761D02*
G01X-27082Y-45761D01*
G01X-22898Y-37980D02*
G01X-22898Y-37792D01*
G01X-22898Y-39230D02*
G01X-22898Y-39042D01*
G01X-22898Y-40480D02*
G01X-22898Y-40292D01*
G01X-22898Y-41730D02*
G01X-22898Y-41542D01*
G01X-22898Y-42980D02*
G01X-22898Y-42792D01*
G54D12*
G01X-18951Y-4059D02*
G01X-18951Y16261D01*
G01X-18951Y16261D02*
G01X-13871Y16261D01*
G01X-13871Y16261D02*
G01X-13871Y-4059D01*
G01X-13871Y-4059D02*
G01X-18951Y-4059D01*
G01X46129Y16261D02*
G01X46129Y-4059D01*
G01X46129Y-4059D02*
G01X41049Y-4059D01*
G01X41049Y-4059D02*
G01X41049Y16261D01*
G01X41049Y16261D02*
G01X46129Y16261D01*
G04 PolygonModel End*

G04 Circle Start*
G54D11*
G01X-22390Y-44708D02*
G03X-22136Y-44708I127J0D01*
G03X-22390I-127J0D01*
G04 Circle End*

M02*
