G04 Layer: TopPasteMaskLayer*
G04 EasyEDA Pro v2.1.21.9b64d12f.b3811b, 2024-07-11 22:11:45*
G04 Gerber Generator version 0.3*
G04 Scale: 100 percent, Rotated: No, Reflected: No*
G04 Dimensions in millimeters*
G04 Leading zeros omitted, absolute positions, 3 integers and 3 decimals*
%FSLAX33Y33*%
%MOMM*%
%AMRect*21,1,$1,$2,0,0,$3*%
%ADD10R,1.0X1.25*%
%ADD11R,1.0X1.25*%
%ADD12R,0.7X1.25*%
%ADD13R,1.27X2.8*%
%ADD14Rect,2.0X1.0X-45.0*%
%ADD15Rect,1.6036X1.0X-45.0*%
%ADD16Rect,1.6X1.0X-45.0*%
%ADD17Rect,1.5X1.5X-45.0*%
%ADD18R,1.3X0.7*%
%ADD19R,1.02X2.5*%
G75*


G04 PolygonModel Start*
G36*
G01X49653Y2931D02*
G01X49653Y1651D01*
G01X49603Y1601D01*
G01X48453D01*
G01X48403Y1651D01*
G01X48398Y2061D01*
G01X48848D01*
G01Y2511D01*
G01X48408D01*
G01X48403Y2931D01*
G01X48453Y2981D01*
G01X49603D01*
G01X49653Y2931D01*
G37*
G36*
G01X47503Y2931D02*
G01X47503Y2511D01*
G01X47058D01*
G01Y2061D01*
G01X47498D01*
G01X47503Y1651D01*
G01X47453Y1601D01*
G01X46303D01*
G01X46253Y1651D01*
G01Y2931D01*
G01X46303Y2981D01*
G01X47453D01*
G01X47503Y2931D01*
G37*
G36*
G01X49653Y8011D02*
G01X49653Y6731D01*
G01X49603Y6681D01*
G01X48453D01*
G01X48403Y6731D01*
G01X48398Y7141D01*
G01X48848D01*
G01Y7591D01*
G01X48408D01*
G01X48403Y8011D01*
G01X48453Y8061D01*
G01X49603D01*
G01X49653Y8011D01*
G37*
G36*
G01X47503Y8011D02*
G01X47503Y7591D01*
G01X47058D01*
G01Y7141D01*
G01X47498D01*
G01X47503Y6731D01*
G01X47453Y6681D01*
G01X46303D01*
G01X46253Y6731D01*
G01Y8011D01*
G01X46303Y8061D01*
G01X47453D01*
G01X47503Y8011D01*
G37*
G36*
G01X-22655Y6599D02*
G01X-22655Y7879D01*
G01X-22605Y7929D01*
G01X-21455D01*
G01X-21405Y7879D01*
G01X-21400Y7469D01*
G01X-21850D01*
G01Y7019D01*
G01X-21410D01*
G01X-21405Y6599D01*
G01X-21455Y6549D01*
G01X-22605D01*
G01X-22655Y6599D01*
G37*
G36*
G01X-20505Y6599D02*
G01X-20505Y7019D01*
G01X-20060D01*
G01Y7469D01*
G01X-20500D01*
G01X-20505Y7879D01*
G01X-20455Y7929D01*
G01X-19305D01*
G01X-19255Y7879D01*
G01Y6599D01*
G01X-19305Y6549D01*
G01X-20455D01*
G01X-20505Y6599D01*
G37*
G36*
G01X28282Y7294D02*
G01X28282Y6014D01*
G01X28232Y5964D01*
G01X27082D01*
G01X27032Y6014D01*
G01X27027Y6424D01*
G01X27477D01*
G01Y6874D01*
G01X27037D01*
G01X27032Y7294D01*
G01X27082Y7344D01*
G01X28232D01*
G01X28282Y7294D01*
G37*
G36*
G01X26132Y7294D02*
G01X26132Y6874D01*
G01X25687D01*
G01Y6424D01*
G01X26127D01*
G01X26132Y6014D01*
G01X26082Y5964D01*
G01X24932D01*
G01X24882Y6014D01*
G01Y7294D01*
G01X24932Y7344D01*
G01X26082D01*
G01X26132Y7294D01*
G37*
G36*
G01X28282Y9834D02*
G01X28282Y8554D01*
G01X28232Y8504D01*
G01X27082D01*
G01X27032Y8554D01*
G01X27027Y8964D01*
G01X27477D01*
G01Y9414D01*
G01X27037D01*
G01X27032Y9834D01*
G01X27082Y9884D01*
G01X28232D01*
G01X28282Y9834D01*
G37*
G36*
G01X26132Y9834D02*
G01X26132Y9414D01*
G01X25687D01*
G01Y8964D01*
G01X26127D01*
G01X26132Y8554D01*
G01X26082Y8504D01*
G01X24932D01*
G01X24882Y8554D01*
G01Y9834D01*
G01X24932Y9884D01*
G01X26082D01*
G01X26132Y9834D01*
G37*
G36*
G01X28282Y12374D02*
G01X28282Y11094D01*
G01X28232Y11044D01*
G01X27082D01*
G01X27032Y11094D01*
G01X27027Y11504D01*
G01X27477D01*
G01Y11954D01*
G01X27037D01*
G01X27032Y12374D01*
G01X27082Y12424D01*
G01X28232D01*
G01X28282Y12374D01*
G37*
G36*
G01X26132Y12374D02*
G01X26132Y11954D01*
G01X25687D01*
G01Y11504D01*
G01X26127D01*
G01X26132Y11094D01*
G01X26082Y11044D01*
G01X24932D01*
G01X24882Y11094D01*
G01Y12374D01*
G01X24932Y12424D01*
G01X26082D01*
G01X26132Y12374D01*
G37*
G36*
G01X28282Y14914D02*
G01X28282Y13634D01*
G01X28232Y13584D01*
G01X27082D01*
G01X27032Y13634D01*
G01X27027Y14044D01*
G01X27477D01*
G01Y14494D01*
G01X27037D01*
G01X27032Y14914D01*
G01X27082Y14964D01*
G01X28232D01*
G01X28282Y14914D01*
G37*
G36*
G01X26132Y14914D02*
G01X26132Y14494D01*
G01X25687D01*
G01Y14044D01*
G01X26127D01*
G01X26132Y13634D01*
G01X26082Y13584D01*
G01X24932D01*
G01X24882Y13634D01*
G01Y14914D01*
G01X24932Y14964D01*
G01X26082D01*
G01X26132Y14914D01*
G37*
G36*
G01X28282Y-5406D02*
G01X28282Y-6686D01*
G01X28232Y-6736D01*
G01X27082D01*
G01X27032Y-6686D01*
G01X27027Y-6276D01*
G01X27477D01*
G01Y-5826D01*
G01X27037D01*
G01X27032Y-5406D01*
G01X27082Y-5356D01*
G01X28232D01*
G01X28282Y-5406D01*
G37*
G36*
G01X26132Y-5406D02*
G01X26132Y-5826D01*
G01X25687D01*
G01Y-6276D01*
G01X26127D01*
G01X26132Y-6686D01*
G01X26082Y-6736D01*
G01X24932D01*
G01X24882Y-6686D01*
G01Y-5406D01*
G01X24932Y-5356D01*
G01X26082D01*
G01X26132Y-5406D01*
G37*
G36*
G01X28282Y-2866D02*
G01X28282Y-4146D01*
G01X28232Y-4196D01*
G01X27082D01*
G01X27032Y-4146D01*
G01X27027Y-3736D01*
G01X27477D01*
G01Y-3286D01*
G01X27037D01*
G01X27032Y-2866D01*
G01X27082Y-2816D01*
G01X28232D01*
G01X28282Y-2866D01*
G37*
G36*
G01X26132Y-2866D02*
G01X26132Y-3286D01*
G01X25687D01*
G01Y-3736D01*
G01X26127D01*
G01X26132Y-4146D01*
G01X26082Y-4196D01*
G01X24932D01*
G01X24882Y-4146D01*
G01Y-2866D01*
G01X24932Y-2816D01*
G01X26082D01*
G01X26132Y-2866D01*
G37*
G36*
G01X28282Y-326D02*
G01X28282Y-1606D01*
G01X28232Y-1656D01*
G01X27082D01*
G01X27032Y-1606D01*
G01X27027Y-1196D01*
G01X27477D01*
G01Y-746D01*
G01X27037D01*
G01X27032Y-326D01*
G01X27082Y-276D01*
G01X28232D01*
G01X28282Y-326D01*
G37*
G36*
G01X26132Y-326D02*
G01X26132Y-746D01*
G01X25687D01*
G01Y-1196D01*
G01X26127D01*
G01X26132Y-1606D01*
G01X26082Y-1656D01*
G01X24932D01*
G01X24882Y-1606D01*
G01Y-326D01*
G01X24932Y-276D01*
G01X26082D01*
G01X26132Y-326D01*
G37*
G36*
G01X28282Y4754D02*
G01X28282Y3474D01*
G01X28232Y3424D01*
G01X27082D01*
G01X27032Y3474D01*
G01X27027Y3884D01*
G01X27477D01*
G01Y4334D01*
G01X27037D01*
G01X27032Y4754D01*
G01X27082Y4804D01*
G01X28232D01*
G01X28282Y4754D01*
G37*
G36*
G01X26132Y4754D02*
G01X26132Y4334D01*
G01X25687D01*
G01Y3884D01*
G01X26127D01*
G01X26132Y3474D01*
G01X26082Y3424D01*
G01X24932D01*
G01X24882Y3474D01*
G01Y4754D01*
G01X24932Y4804D01*
G01X26082D01*
G01X26132Y4754D01*
G37*
G36*
G01X28282Y2214D02*
G01X28282Y934D01*
G01X28232Y884D01*
G01X27082D01*
G01X27032Y934D01*
G01X27027Y1344D01*
G01X27477D01*
G01Y1794D01*
G01X27037D01*
G01X27032Y2214D01*
G01X27082Y2264D01*
G01X28232D01*
G01X28282Y2214D01*
G37*
G36*
G01X26132Y2214D02*
G01X26132Y1794D01*
G01X25687D01*
G01Y1344D01*
G01X26127D01*
G01X26132Y934D01*
G01X26082Y884D01*
G01X24932D01*
G01X24882Y934D01*
G01Y2214D01*
G01X24932Y2264D01*
G01X26082D01*
G01X26132Y2214D01*
G37*
G36*
G01X6128Y-6300D02*
G01X6128Y-5020D01*
G01X6178Y-4970D01*
G01X7328D01*
G01X7378Y-5020D01*
G01X7383Y-5430D01*
G01X6933D01*
G01Y-5880D01*
G01X7373D01*
G01X7378Y-6300D01*
G01X7328Y-6350D01*
G01X6178D01*
G01X6128Y-6300D01*
G37*
G36*
G01X8278Y-6300D02*
G01X8278Y-5880D01*
G01X8723D01*
G01Y-5430D01*
G01X8283D01*
G01X8278Y-5020D01*
G01X8328Y-4970D01*
G01X9478D01*
G01X9528Y-5020D01*
G01Y-6300D01*
G01X9478Y-6350D01*
G01X8328D01*
G01X8278Y-6300D01*
G37*
G36*
G01X6128Y-3842D02*
G01X6128Y-2562D01*
G01X6178Y-2512D01*
G01X7328D01*
G01X7378Y-2562D01*
G01X7383Y-2972D01*
G01X6933D01*
G01Y-3422D01*
G01X7373D01*
G01X7378Y-3842D01*
G01X7328Y-3892D01*
G01X6178D01*
G01X6128Y-3842D01*
G37*
G36*
G01X8278Y-3842D02*
G01X8278Y-3422D01*
G01X8723D01*
G01Y-2972D01*
G01X8283D01*
G01X8278Y-2562D01*
G01X8328Y-2512D01*
G01X9478D01*
G01X9528Y-2562D01*
G01Y-3842D01*
G01X9478Y-3892D01*
G01X8328D01*
G01X8278Y-3842D01*
G37*
G36*
G01X1065Y-10282D02*
G01X1065Y-11562D01*
G01X1015Y-11612D01*
G01X-135D01*
G01X-185Y-11562D01*
G01X-190Y-11152D01*
G01X260D01*
G01Y-10702D01*
G01X-180D01*
G01X-185Y-10282D01*
G01X-135Y-10232D01*
G01X1015D01*
G01X1065Y-10282D01*
G37*
G36*
G01X-1085Y-10282D02*
G01X-1085Y-10702D01*
G01X-1530D01*
G01Y-11152D01*
G01X-1090D01*
G01X-1085Y-11562D01*
G01X-1135Y-11612D01*
G01X-2285D01*
G01X-2335Y-11562D01*
G01Y-10282D01*
G01X-2285Y-10232D01*
G01X-1135D01*
G01X-1085Y-10282D01*
G37*
G36*
G01X2291Y3380D02*
G01X1011Y3380D01*
G01X961Y3430D01*
G01Y4580D01*
G01X1011Y4630D01*
G01X1421Y4635D01*
G01Y4185D01*
G01X1871D01*
G01Y4625D01*
G01X2291Y4630D01*
G01X2341Y4580D01*
G01Y3430D01*
G01X2291Y3380D01*
G37*
G36*
G01X2291Y5530D02*
G01X1871Y5530D01*
G01Y5975D01*
G01X1421D01*
G01Y5535D01*
G01X1011Y5530D01*
G01X961Y5580D01*
G01Y6730D01*
G01X1011Y6780D01*
G01X2291D01*
G01X2341Y6730D01*
G01Y5580D01*
G01X2291Y5530D01*
G37*
G36*
G01X2291Y7330D02*
G01X1011Y7330D01*
G01X961Y7380D01*
G01Y8530D01*
G01X1011Y8580D01*
G01X1421Y8585D01*
G01Y8135D01*
G01X1871D01*
G01Y8575D01*
G01X2291Y8580D01*
G01X2341Y8530D01*
G01Y7380D01*
G01X2291Y7330D01*
G37*
G36*
G01X2291Y9480D02*
G01X1871Y9480D01*
G01Y9925D01*
G01X1421D01*
G01Y9485D01*
G01X1011Y9480D01*
G01X961Y9530D01*
G01Y10680D01*
G01X1011Y10730D01*
G01X2291D01*
G01X2341Y10680D01*
G01Y9530D01*
G01X2291Y9480D01*
G37*
G36*
G01X-650Y7342D02*
G01X-1930Y7342D01*
G01X-1980Y7392D01*
G01Y8542D01*
G01X-1930Y8592D01*
G01X-1520Y8597D01*
G01Y8147D01*
G01X-1070D01*
G01Y8587D01*
G01X-650Y8592D01*
G01X-600Y8542D01*
G01Y7392D01*
G01X-650Y7342D01*
G37*
G36*
G01X-650Y9492D02*
G01X-1070Y9492D01*
G01Y9937D01*
G01X-1520D01*
G01Y9497D01*
G01X-1930Y9492D01*
G01X-1980Y9542D01*
G01Y10692D01*
G01X-1930Y10742D01*
G01X-650D01*
G01X-600Y10692D01*
G01Y9542D01*
G01X-650Y9492D01*
G37*
G36*
G01X49653Y13091D02*
G01X49653Y11811D01*
G01X49603Y11761D01*
G01X48453D01*
G01X48403Y11811D01*
G01X48398Y12221D01*
G01X48848D01*
G01Y12671D01*
G01X48408D01*
G01X48403Y13091D01*
G01X48453Y13141D01*
G01X49603D01*
G01X49653Y13091D01*
G37*
G36*
G01X47503Y13091D02*
G01X47503Y12671D01*
G01X47058D01*
G01Y12221D01*
G01X47498D01*
G01X47503Y11811D01*
G01X47453Y11761D01*
G01X46303D01*
G01X46253Y11811D01*
G01Y13091D01*
G01X46303Y13141D01*
G01X47453D01*
G01X47503Y13091D01*
G37*
G36*
G01X4186Y-459D02*
G01X5466Y-459D01*
G01X5516Y-509D01*
G01Y-1659D01*
G01X5466Y-1709D01*
G01X5056Y-1714D01*
G01Y-1264D01*
G01X4606D01*
G01Y-1704D01*
G01X4186Y-1709D01*
G01X4136Y-1659D01*
G01Y-509D01*
G01X4186Y-459D01*
G37*
G36*
G01X4186Y-2609D02*
G01X4606Y-2609D01*
G01Y-3054D01*
G01X5056D01*
G01Y-2614D01*
G01X5466Y-2609D01*
G01X5516Y-2659D01*
G01Y-3809D01*
G01X5466Y-3859D01*
G01X4186D01*
G01X4136Y-3809D01*
G01Y-2659D01*
G01X4186Y-2609D01*
G37*
G04 PolygonModel End*

G04 Pad Start*
G54D10*
G01X50843Y2296D03*
G01X53043Y2296D03*
G01X50843Y7376D03*
G01X53043Y7376D03*
G54D11*
G01X-23792Y7239D03*
G01X-25992Y7239D03*
G54D12*
G01X6878Y-1199D03*
G01X8778Y-1199D03*
G01X7828Y801D03*
G54D13*
G01X-4028Y33216D03*
G01X-4028Y27617D03*
G01X-6568Y33216D03*
G01X-6568Y27617D03*
G01X-9108Y33216D03*
G01X-9108Y27617D03*
G01X8672Y33216D03*
G01X8672Y27617D03*
G01X6132Y33216D03*
G01X6132Y27617D03*
G01X3592Y33216D03*
G01X3592Y27617D03*
G54D14*
G01X47667Y-28542D03*
G01X46677Y-29532D03*
G54D16*
G01X45829Y-30664D03*
G54D14*
G01X52865Y-33740D03*
G01X51875Y-34730D03*
G01X50885Y-35720D03*
G54D17*
G01X52087Y-29320D03*
G01X46465Y-34942D03*
G54D18*
G01X52194Y-25455D03*
G01X47694Y-25455D03*
G01X52194Y-23304D03*
G01X47694Y-23304D03*
G01X52194Y-20840D03*
G01X47694Y-20840D03*
G01X52194Y-18690D03*
G01X47694Y-18690D03*
G01X52194Y-16226D03*
G01X47694Y-16226D03*
G01X52194Y-14076D03*
G01X47694Y-14076D03*
G01X52194Y-11612D03*
G01X47694Y-11612D03*
G01X52194Y-9461D03*
G01X47694Y-9461D03*
G54D10*
G01X50843Y12456D03*
G01X53043Y12456D03*
G54D19*
G01X28194Y27416D03*
G01X28194Y33416D03*
G01X30734Y27416D03*
G01X30734Y33416D03*
G01X33274Y27416D03*
G01X33274Y33416D03*
G01X35814Y27416D03*
G01X35814Y33416D03*
G01X25654Y33417D03*
G01X25654Y27417D03*
G01X23114Y33417D03*
G01X23114Y27417D03*
G01X20574Y33417D03*
G01X20574Y27417D03*
G01X18034Y33417D03*
G01X18034Y27417D03*
G04 Pad End*

M02*
